<?xml version="1.0" encoding="UTF-8"?><svg id="a" xmlns="http://www.w3.org/2000/svg" viewBox="0 0 32 32"><defs><style>.g{fill:#fff;}.h{fill:#7289da;}</style></defs><g id="b"><path class="h" d="M26.72,0H5.28C3.47,0,2,1.47,2,3.3V24.93c0,1.82,1.47,3.3,3.28,3.3H23.42l-.85-2.96,2.05,1.9,1.94,1.79,3.44,3.04V3.3c0-1.82-1.47-3.3-3.28-3.3Z"/><path class="g" d="M19.39,19.6c.48,.61,1.06,1.3,1.06,1.3,3.54-.11,4.9-2.43,4.9-2.43,0-5.15-2.3-9.33-2.3-9.33-2.3-1.73-4.5-1.68-4.5-1.68l-.22,.26c2.72,.83,3.98,2.03,3.98,2.03-1.66-.91-3.3-1.36-4.82-1.54-1.15-.13-2.26-.1-3.23,.03-.1,0-.18,.02-.27,.03-.56,.05-1.92,.26-3.63,1.01-.59,.27-.94,.46-.94,.46,0,0,1.33-1.26,4.21-2.1l-.16-.19s-2.19-.05-4.5,1.68c0,0-2.3,4.18-2.3,9.33,0,0,1.34,2.32,4.88,2.43,0,0,.59-.72,1.07-1.33-2.03-.61-2.8-1.89-2.8-1.89,0,0,.16,.11,.45,.27,.02,.02,.03,.03,.06,.05,.05,.03,.1,.05,.14,.08,.4,.22,.8,.4,1.17,.54,.66,.26,1.44,.51,2.35,.69,1.2,.22,2.61,.3,4.14,.02,.75-.13,1.52-.35,2.32-.69,.56-.21,1.18-.51,1.84-.94,0,0-.8,1.31-2.9,1.9Zm-6.38-2.62c-.9,0-1.63-.8-1.63-1.78s.72-1.78,1.63-1.78,1.65,.8,1.63,1.78c0,.98-.72,1.78-1.63,1.78Zm5.84,0c-.9,0-1.63-.8-1.63-1.78s.72-1.78,1.63-1.78,1.63,.8,1.63,1.78-.72,1.78-1.63,1.78Z"/></g></svg>