<?xml version="1.0" encoding="utf-8"?>
<!-- Generator: Adobe Illustrator 26.0.0, SVG Export Plug-In . SVG Version: 6.00 Build 0)  -->
<svg version="1.1" id="Calque_1" xmlns="http://www.w3.org/2000/svg" xmlns:xlink="http://www.w3.org/1999/xlink" x="0px" y="0px"
	 viewBox="0 0 595.28 253.55" style="enable-background:new 0 0 595.28 253.55;" xml:space="preserve">
<style type="text/css">
	.st0{fill:#4C4C4B;}
	.st1{fill:#949696;}
	.st2{fill:#2F2F30;}
	.st3{fill:#858788;}
	.st4{fill:#676868;}
	.st5{fill:#BFC0C1;}
	.st6{fill:#989B9B;}
	.st7{fill:#6F7070;}
	.st8{fill:#6C6D6D;}
	.st9{fill:#737374;}
	.st10{fill:#828283;}
	.st11{fill:#7B7B7C;}
	.st12{fill:#8E9091;}
	.st13{fill:#353635;}
	.st14{fill:#AEABAC;}
	.st15{fill:#D2D0D1;}
	.st16{fill:#D5D4D5;}
	.st17{fill:#929495;}
	.st18{fill:#EAE9EA;}
	.st19{fill:#BAB9BA;}
	.st20{fill:#C2C0C1;}
	.st21{fill:#DEDCDD;}
	.st22{fill:#9A9D9D;}
	.st23{fill:#585856;}
	.st24{fill:#3E403F;}
	.st25{fill:#BBBCBD;}
	.st26{fill:#686869;}
	.st27{fill:#505252;}
	.st28{fill:#535454;}
	.st29{fill:#76BE7D;}
</style>
<g>
	<g>
		<path class="st0" d="M447.39,94.61c0.19-0.09,0.37-0.19,0.56-0.28c0.18-0.1,0.36-0.21,0.54-0.31c0.33-0.23,0.66-0.47,0.99-0.7
			c0.37-0.11,0.77-0.16,1.1-0.34c0.94-0.51,1.84-1.09,2.77-1.62c3.72-2.12,7.46-4.22,11.16-6.37c2.91-1.69,5.81-3.4,8.67-5.18
			c1.38-0.86,2.59-1.02,4.01-0.05c1.7,1.16,3.5,2.15,5.28,3.18c5.39,3.1,10.8,6.15,16.19,9.27c5.55,3.21,11.07,6.47,16.62,9.7
			c5.65,3.28,11.31,6.53,16.96,9.8c4.08,2.36,8.16,4.73,12.24,7.09c3.73,2.17,7.47,4.34,11.2,6.5c4.05,2.34,8.09,4.67,12.15,6.99
			c2.23,1.27,4.48,2.52,6.72,3.77c0,0,0.02,0.02,0.02,0.02c0.31,0.32,0.63,0.63,0.94,0.95c0.16,0.22,0.33,0.44,0.49,0.67
			c-0.38,0.63,0.03,0.7,0.51,0.72c0.1,0.07,0.21,0.14,0.31,0.21c-0.02,0.17-0.03,0.33-0.05,0.5c-0.07,0.65-0.1,1.31-0.23,1.95
			c-0.06,0.32-0.3,0.61-0.46,0.91c-0.26-0.3-0.52-0.59-0.78-0.89c-0.36-0.32-0.92-0.99-1.06-0.92c-1.04,0.6-2,1.34-2.98,2.04
			c-0.12,0.03-0.25,0.07-0.37,0.1c-0.68,0.42-1.36,0.85-2.04,1.27c-0.12,0.47-0.24,0.95-0.37,1.42c0.19,0.52,0.28,1.12,0.6,1.53
			c0.61,0.77,1.38,1.41,2.04,2.14c0.43,0.49,0.83,1.06-0.1,1.49c-0.24-0.23-0.49-0.47-0.73-0.7l-0.02-0.02
			c-0.23-0.24-0.46-0.48-0.69-0.72l-0.01-0.01c-0.32-0.39-0.64-0.78-0.97-1.18c-0.16-0.17-0.31-0.33-0.47-0.5
			c-0.22-0.25-0.45-0.51-0.67-0.76c0,0,0,0,0,0c-0.85-1.67-0.86-1.68-2.39-0.8c-0.92,0.53-1.82,1.09-2.7,1.67
			c-0.44,0.29-0.82,0.66-1.22,0.99c-0.25,0.1-0.5,0.2-0.76,0.31c-0.38,0.34-0.69,0.68-0.04,1.06c0.04,0.06,0.07,0.12,0.11,0.17
			c0.08,0.24,0.16,0.48,0.25,0.72c0.05,0.33-0.01,0.75,0.17,0.98c0.58,0.73,1.3,1.35,1.85,2.11c0.21,0.29,0.11,0.82,0.15,1.24
			c-0.15-0.02-0.3-0.03-0.46-0.05c-1.13-1.34-2.27-2.68-3.4-4.02c-0.16-0.16-0.33-0.32-0.49-0.49c-0.06-0.02-0.12-0.06-0.16-0.11
			c-0.1-0.18-0.2-0.37-0.3-0.55c-0.77,0.54-1.55,1.09-2.32,1.63l-0.01,0c-1.41,0.37-2.71,0.92-3.62,2.13c0,0,0.02,0.03,0.02,0.03
			c-0.85,0.06-0.56,0.5-0.3,0.92c0.23,0.51,0.37,1.08,0.7,1.52c0.59,0.77,1.36,1.41,1.93,2.2c0.25,0.35,0.95,0.96-0.06,1.36
			c-1.32-1.47-2.65-2.94-3.97-4.41c-0.16-0.08-0.33-0.16-0.49-0.23c-0.16,0.01-0.32,0.01-0.48,0.02c-0.94,0.58-1.88,1.16-2.82,1.74
			l-0.02,0.01c-0.5,0.28-1,0.57-1.5,0.85c-0.36,0.21-0.72,0.41-1.07,0.62c-0.24,0.16-0.72,0.4-0.7,0.46
			c0.28,0.71,0.53,1.46,0.98,2.07c0.62,0.85,1.39,1.61,2.12,2.38c0.56,0.59,0.44,0.95-0.31,1.17c-0.06-0.03-0.12-0.02-0.18,0
			c-0.29-0.36-0.59-0.72-0.88-1.08c-0.36-0.43-0.71-0.87-1.07-1.3c-0.2-0.21-0.4-0.41-0.6-0.62c-0.15-0.17-0.31-0.34-0.46-0.51l0,0
			c-0.14-0.18-0.28-0.35-0.42-0.53l0,0c-0.16-0.16-0.32-0.32-0.48-0.47l0,0c-0.37-0.06-0.82-0.29-1.09-0.15
			c-1.08,0.54-2.13,1.17-3.15,1.83c-0.63,0.41-1.2,0.93-1.79,1.4c-0.06,0.04-0.11,0.07-0.18,0.1c-0.95,0.17-0.52,0.71-0.31,1.18
			c0.29,0.55,0.5,1.15,0.88,1.63c0.69,0.87,1.5,1.63,2.2,2.49c0.44,0.55,0.64,1.14-0.47,1.06c-1.03-1.16-2.07-2.32-3.1-3.48
			c-0.29-0.35-0.58-0.7-0.87-1.05l-0.01-0.01c-0.19-0.75-0.65-0.83-1.25-0.49c-1.8,1.01-3.62,1.99-5.38,3.07
			c-0.53,0.33-0.92,0.96-0.14,1.55c0.2,0.5,0.31,1.07,0.63,1.47c0.66,0.83,1.45,1.54,2.14,2.34c0.4,0.47,0.87,1.07-0.31,1.17
			c-0.05-0.03-0.11-0.03-0.17-0.02c-0.28-0.38-0.55-0.76-0.83-1.14c-0.15-0.17-0.3-0.33-0.44-0.5c-0.42-0.46-0.83-0.93-1.25-1.39
			c-0.23-0.25-0.46-0.5-0.69-0.76c-0.24-0.25-0.47-0.51-0.71-0.76c-0.02-0.52-0.13-0.73-0.71-0.39c-1.62,0.95-3.29,1.83-4.92,2.78
			c-0.27,0.16-0.43,0.5-0.64,0.76c-0.09,0.25-0.18,0.5-0.27,0.74c-0.25,1.56,1.09,2.2,1.84,3.18c0.53,0.7,1.06,1.39,1.59,2.09
			c-0.09,0.07-0.18,0.15-0.27,0.22c-0.34-0.14-0.69-0.28-1.03-0.42c-0.24-0.24-0.49-0.47-0.73-0.71c-0.45-0.5-0.89-1.01-1.34-1.51
			c-0.03-0.06-0.05-0.12-0.09-0.17c-0.51-0.93-0.99-2.32-2.13-2.07c-1.2,0.27-2.23,1.31-3.33,2.02c-0.07,0.02-0.13,0.03-0.2,0.06
			c-0.27,0.13-0.54,0.26-0.81,0.39c-1.78,0.3-2.34,1.05-1.8,2.43c0.08,0.21,0.24,0.41,0.4,0.58c0.82,0.91,1.64,1.81,2.47,2.71
			c0.69,0.75,0.6,1.16-0.35,1.46c-0.47-0.6-0.95-1.2-1.42-1.8c-0.16-0.17-0.32-0.34-0.48-0.51c-0.07-0.08-0.14-0.17-0.21-0.25
			c-0.16-0.17-0.32-0.33-0.47-0.5c-0.47-0.56-0.95-1.13-1.42-1.69c-0.23-0.76-0.67-0.46-1.1-0.21c-1.42,0.81-2.83,1.65-4.26,2.44
			c-1.56,0.86-1.8,1.46-1.08,3.01c0.15,0.31,0.41,0.58,0.65,0.83c0.6,0.63,1.28,1.2,1.83,1.87c0.45,0.56,1.03,1.25-0.12,1.76
			c-1.43-1.65-2.87-3.29-4.3-4.94c-0.11-0.14-0.22-0.28-0.33-0.42c-0.14,0.15-0.28,0.29-0.42,0.44c-0.12,0.05-0.24,0.1-0.35,0.15
			c-0.28,0.19-0.57,0.38-0.85,0.57c-0.12,0.04-0.25,0.08-0.37,0.13c-1.04,0.52-2.03,1.22-3.12,1.53c-1.53,0.43-1.38,1.36-1.02,2.43
			c0.12,0.36,0.36,0.7,0.62,0.98c0.71,0.76,1.5,1.44,2.17,2.24c0.42,0.5,0.79,1.17-0.36,1.32c-1.06-1.26-2.13-2.52-3.19-3.78
			c-0.23-0.25-0.46-0.51-0.69-0.76l0,0c-0.08-0.7-0.45-0.77-0.99-0.45c-1.09,0.64-2.18,1.26-3.24,1.93
			c-0.47,0.3-0.88,0.71-1.31,1.07c-0.35,0.26-0.7,0.52-1.04,0.77c-0.2,0.17-0.41,0.34-0.61,0.51c-0.34,0.14-0.68,0.3-1.03,0.42
			c-0.53,0.19-1.07,0.36-1.6,0.54c0-0.96-0.06-1.92,0.01-2.87c0.09-1.09-0.53-1.57-1.4-1.91c-0.22-0.09-0.45-0.15-0.65-0.26
			c-3.1-1.83-6.17-3.7-9.28-5.5c-3.01-1.75-6.07-3.4-9.08-5.15c-3.43-1.99-6.8-4.07-10.23-6.05c-3.52-2.03-7.1-3.96-10.62-5.99
			c-4.78-2.76-9.51-5.6-14.28-8.37c-4.4-2.55-8.83-5.04-13.24-7.58c-5.01-2.89-10.01-5.81-15.02-8.71
			c-4.44-2.57-8.88-5.13-13.33-7.67c-0.61-0.35-1.29-0.56-1.94-0.83c0.29-0.26,0.55-0.57,0.88-0.76c2.48-1.49,4.96-2.98,7.45-4.44
			c4.08-2.38,8.16-4.74,12.25-7.1c4.19-2.42,8.38-4.84,12.56-7.27c4.08-2.37,8.14-4.77,12.23-7.13c4.53-2.62,9.07-5.21,13.6-7.83
			c0.39-0.23,0.72-0.57,1.08-0.85c0.32-0.24,0.63-0.48,0.95-0.73c0.19-0.11,0.39-0.21,0.58-0.32c0.18-0.09,0.36-0.18,0.55-0.28
			c0.16-0.03,0.33-0.06,0.49-0.09C447.01,94.93,447.2,94.77,447.39,94.61z M559.54,133.09c0.29-0.04,0.57-0.07,0.92-0.11
			c-1.46-2.34-3-3.23-5.49-3.23c-0.64,0-1.28,0.06-1.91-0.01c-1.65-0.19-2.97,0.64-4.33,1.35c-0.5,0.26-0.77,0.57,0.02,0.83
			c-0.17,0.25-0.32,0.52-0.51,0.75c-1.14,1.39-1.36,2.29-0.31,3.2c0.94,0.81,2.19,1.34,3.38,1.76c1.63,0.57,3.4,0.43,4.99-0.04
			c1.25-0.37,2.39-1.26,3.44-2.09C560.72,134.72,559.84,133.88,559.54,133.09z"/>
		<path class="st1" d="M476.21,203.58c0.02,0.99,0.03,1.98,0.05,2.98c-0.71,0.42-1.4,0.87-2.13,1.26c-1.47,0.79-2.96,1.54-4.44,2.31
			c-0.02-1.35-1.3-1.43-2.07-1.98c-1.21-0.86-2.5-1.6-3.76-2.39c0.59-0.42,1.2-0.81,1.77-1.25c0.78-0.61,2.01-0.71,2.38-2.25
			c-0.74,0.25-1.25,0.42-1.76,0.59c-0.19-0.3-0.38-0.61-0.58-0.9c-0.19-0.27-0.41-0.52-0.62-0.78c0.42,0.15,0.84,0.3,1.43,0.52
			c0-3.18,0.01-6.18-0.02-9.18c0-0.23-0.3-0.52-0.54-0.67c-1.55-0.94-3.13-1.82-4.66-2.79c-0.35-0.22-0.52-0.71-0.77-1.07
			c0.23-0.37,0.41-0.77,0.69-1.1c0.83-0.99,1.69-1.95,2.53-2.93l0.09,0l0.08-0.03c0.15-0.16,0.31-0.33,0.46-0.49l0,0
			c0.27-0.05,0.53-0.09,0.8-0.14c0.2,0.06,0.4,0.11,0.61,0.17c0.58,0.38,1.15,0.76,1.73,1.14c0.2,0.03,0.4,0.07,0.6,0.1
			c0.58,0.44,1.13,0.92,1.74,1.32c1.29,0.86,1.47,1.98,0.48,3.15c-0.73,0.86-1.44,1.73-2.16,2.6c-0.15,0.33-0.44,0.66-0.42,0.97
			c0.2,3.26,0.44,6.51,0.71,9.77c0.02,0.26,0.27,0.58,0.51,0.73c1.54,0.98,3.09,1.96,4.67,2.87c0.89,0.51,1.25,0.28,1.26-0.73
			c0.02-2.51,0.06-5.03-0.03-7.54c-0.02-0.48-0.45-1.12-0.88-1.39c-1.54-0.96-3.17-1.77-4.72-2.71c-0.37-0.22-0.53-0.77-0.79-1.17
			c0.97-1.11,1.94-2.22,2.9-3.33c-0.01-0.1-0.02-0.2-0.04-0.3l0,0.03c0.39-0.33,0.78-0.67,1.17-1c0.31,0.04,0.68,0,0.93,0.15
			c1.71,1,3.38,2.05,5.09,3.05c0.99,0.58,0.92,1.33,0.34,2.09c-0.61,0.78-1.34,1.47-1.97,2.23c-0.28,0.34-0.45,0.76-0.67,1.15
			C476.21,198.95,476.21,201.27,476.21,203.58z"/>
		<path class="st2" d="M476.21,203.58c0-2.32-0.01-4.63-0.01-6.95c0.67-0.6,1.35-1.19,2-1.8c1.01-0.94,1.75-2.01,1.46-3.5
			c2.4,0.45,3.38,1.59,3.38,3.93c0,2.83-0.01,5.66,0.01,8.49c0,0.41,0.15,0.83,0.23,1.24c0,0.08,0,0.16,0,0.24
			c0.28,0.48,0.55,0.96,0.83,1.44c0.01,0.08,0.04,0.15,0.1,0.21c-0.13,0.04-0.26,0.08-0.39,0.12c-0.18-0.02-0.35-0.05-0.53-0.07
			c-0.16,0-0.33,0-0.49-0.01c-0.58-0.21-1.16-0.41-1.74-0.62c-0.2-0.13-0.41-0.27-0.61-0.4c-0.44-0.27-0.87-0.53-1.31-0.8
			c-0.13-0.05-0.26-0.09-0.39-0.14c-0.68-0.4-1.35-0.8-2.03-1.2C476.56,203.7,476.39,203.64,476.21,203.58z"/>
		<path class="st3" d="M579.16,146.29c0.04,3.01,0.08,6.03,0.12,9.04c-0.04,0.1-0.08,0.19-0.12,0.29c-1.73,1-3.47,1.98-5.17,3.02
			c-0.2,0.12-0.22,0.54-0.32,0.82c-0.28-0.32-0.8-0.63-0.81-0.96c-0.03-3.02,0.03-6.05,0.06-9.07c0.17-0.17,0.34-0.34,0.51-0.51
			c1.01-0.63,2.01-1.29,3.05-1.87c0.61-0.34,1.29-0.55,1.93-0.82C578.67,146.25,578.92,146.27,579.16,146.29z"/>
		<path class="st4" d="M378.96,150.32c0.02-0.47,0.04-0.93,0.06-1.4c0.15-0.42,0.42-0.85,0.41-1.26c-0.05-2.02-0.17-4.03-0.27-6.05
			c1.97,1.07,3.96,2.11,5.9,3.22c0.24,0.13,0.39,0.61,0.39,0.93c0.03,2.64,0.01,5.27,0.03,7.91c0.01,0.85-0.39,0.83-0.97,0.53
			c-0.14-0.01-0.28-0.02-0.43-0.04c-1.38-0.87-2.75-1.73-4.13-2.6c-0.14-0.01-0.28-0.02-0.42-0.04c-0.16-0.17-0.33-0.33-0.49-0.5
			C379.01,150.79,378.98,150.55,378.96,150.32z"/>
		<path class="st5" d="M578.42,146.23c-0.65,0.27-1.33,0.48-1.93,0.82c-1.04,0.58-2.03,1.24-3.05,1.87
			c-0.26,0.02-0.52,0.04-0.78,0.07c-0.38-0.33-0.77-0.64-1.13-0.98c-1.02-1-2.03-2.01-3.05-3.02c0.12-0.47,0.24-0.95,0.37-1.42
			c0.68-0.42,1.36-0.85,2.04-1.27c0.12-0.03,0.25-0.07,0.38-0.1c1.04-0.53,2.08-1.06,3.16-1.61c0.27,0.15,0.57,0.32,0.88,0.49
			c0.26,0.3,0.52,0.59,0.78,0.89c0.23,0.65,0.74,0.79,0.85,0.09c0.14-0.95-0.09-1.97-0.16-2.95c0.02-0.17,0.03-0.33,0.05-0.5
			c0.22,0.41,0.59,0.81,0.62,1.23c0.07,1.02-0.15,2.06-0.02,3.07c0.07,0.59,0.56,1.14,0.9,1.68c0.26,0.42,0.58,0.81,0.88,1.22
			C578.94,145.94,578.68,146.08,578.42,146.23z"/>
		<path class="st6" d="M559.68,172.88c0,0.13,0,0.27,0.01,0.4c-0.71,0.56-1.42,1.11-2.14,1.67c-0.13,0.04-0.26,0.07-0.4,0.11
			c-0.58,0.37-1.16,0.75-1.74,1.12c-0.13,0.04-0.27,0.07-0.4,0.11c-0.27,0.19-0.55,0.38-0.82,0.58c-0.13,0.04-0.26,0.08-0.39,0.12
			c-0.42-0.05-0.85-0.11-1.27-0.16c0.24-0.09,0.48-0.17,1.04-0.38c-1.78-1.13-3.31-2.1-4.84-3.07c0.18-0.18,0.33-0.4,0.54-0.53
			c1.75-1.04,3.51-2.06,5.27-3.09C556.25,170.8,557.96,171.84,559.68,172.88z"/>
		<path class="st7" d="M497.01,192.51c1.16-0.15,0.78-0.83,0.36-1.32c-0.67-0.79-1.46-1.47-2.17-2.24c-0.26-0.28-0.5-0.62-0.62-0.98
			c-0.36-1.08-0.51-2,1.02-2.43c1.1-0.31,2.09-1.01,3.12-1.53c-1.05,0.69-2.05,1.45-3.15,2.04c-0.89,0.48-0.97,1.06-0.4,1.7
			c1.26,1.41,2.6,2.74,3.91,4.1c0.08,0.58,0.25,1.17,0.23,1.75c-0.04,2.37-0.14,4.75-0.22,7.12c-0.03,0.87,0.32,1.45,1.21,1.61
			c0.87,0.41,1.74,0.83,2.6,1.24c0.25,0.23,0.49,0.46,0.74,0.7c0.15,0.01,0.3,0.02,0.46,0.03c0.02,0.32,0.04,0.64,0.05,0.97
			c-0.25,0.08-0.5,0.15-0.76,0.23c-0.07-0.01-0.13-0.03-0.19-0.05c-1.83-1.08-3.66-2.16-5.48-3.24c-0.02-0.73,0.02-1.48-0.1-2.2
			c-0.05-0.29-0.45-0.53-0.68-0.79c-0.02-1.93-0.04-3.86-0.05-5.78C496.94,193.12,496.97,192.81,497.01,192.51z"/>
		<path class="st7" d="M505.35,188.08c1.15-0.5,0.58-1.2,0.12-1.76c-0.55-0.67-1.23-1.24-1.83-1.87c-0.24-0.25-0.5-0.52-0.65-0.83
			c-0.73-1.55-0.48-2.16,1.08-3.01c1.43-0.79,2.84-1.62,4.26-2.44c0.43-0.24,0.87-0.55,1.1,0.21c-0.26,0.06-0.56,0.06-0.78,0.19
			c-1.61,0.92-3.17,1.96-4.83,2.77c-1.08,0.52-0.92,0.94-0.28,1.65c1.18,1.33,2.32,2.71,3.48,4.06c0.16,0.62,0.47,1.25,0.47,1.87
			c0.01,2.5-0.09,4.99-0.09,7.49c0,0.22,0.39,0.45,0.59,0.67c1.6,0.96,3.2,1.91,4.8,2.87c0.08,0.08,0.16,0.16,0.24,0.25
			c-0.1,0.07-0.19,0.14-0.29,0.21c-0.25,0.04-0.51,0.09-0.76,0.13c-0.15,0.02-0.3,0.05-0.45,0.07c-0.22-0.06-0.44-0.12-0.66-0.18
			c-0.98-0.68-1.97-1.36-2.95-2.05c-0.62-0.43-1.24-0.86-1.86-1.29c-0.16-1.05-0.31-2.09-0.47-3.14c0.24-0.11,0.68-0.2,0.68-0.32
			c0.06-0.91,0.06-1.82,0-2.73c-0.01-0.12-0.45-0.2-0.7-0.31c-0.09-0.68-0.18-1.35-0.27-2.03l0.01,0.02
			C505.33,188.43,505.34,188.26,505.35,188.08z"/>
		<path class="st6" d="M573.67,159.46c0.1-0.28,0.12-0.7,0.32-0.82c1.71-1.04,3.44-2.02,5.17-3.02c0.99,0.54,1.98,1.08,2.97,1.62
			c0.13,0.03,0.26,0.07,0.39,0.1c0.41,0.39,0.82,0.77,1.23,1.16c-2.19,0.58-4.04,1.77-5.79,3.16
			C576.53,160.93,575.1,160.2,573.67,159.46z"/>
		<path class="st7" d="M573.67,159.46c1.43,0.73,2.86,1.47,4.29,2.2c0,0.07,0,0.14,0.01,0.21c0.01,0.15,0.01,0.31,0.02,0.46
			c-0.28,0.12-0.56,0.24-0.84,0.36c-0.2-0.04-0.39-0.09-0.59-0.13c-0.81-0.77-1.73-1.25-2.89-1.17c-0.12-0.24-0.18-0.55-0.37-0.71
			c-0.6-0.49-1.24-0.92-1.87-1.38c-0.05-0.91-0.09-1.82-0.14-2.73c-0.16-0.46-0.47-0.92-0.47-1.38c0.01-1.68,0.12-3.36,0.2-5.04
			c0.94-0.43,0.54-1,0.1-1.49c-0.65-0.74-1.43-1.37-2.04-2.14c-0.33-0.41-0.41-1.02-0.6-1.53c1.02,1.01,2.02,2.02,3.05,3.02
			c0.36,0.35,0.75,0.66,1.13,0.98c0.09,0.15,0.18,0.3,0.27,0.45c-0.03,3.02-0.09,6.05-0.06,9.07
			C572.87,158.83,573.39,159.14,573.67,159.46z"/>
		<path class="st8" d="M529.84,173.57c1.19-0.1,0.71-0.7,0.31-1.17c-0.69-0.8-1.48-1.52-2.14-2.34c-0.32-0.4-0.43-0.98-0.63-1.47
			c0.1-0.01,0.2-0.02,0.31-0.02c1.34,1.45,2.68,2.9,4.02,4.35c0.01,2.86-0.03,5.72,0.06,8.58c0.02,0.61,0.3,1.44,0.75,1.75
			c1.17,0.82,2.51,1.4,3.78,2.08c0.15,0.01,0.3,0.02,0.46,0.03c0,0.39,0,0.78,0,1.16c-0.17,0.04-0.34,0.08-0.5,0.12
			c-0.39-0.21-0.77-0.43-1.16-0.64c-1.55-0.91-3.11-1.82-4.66-2.73c-0.04-0.99-0.09-1.97-0.13-2.96c-0.16-0.68-0.43-1.35-0.46-2.04
			C529.76,176.71,529.82,175.14,529.84,173.57z"/>
		<path class="st9" d="M568.85,167.69c-0.31-0.19-0.62-0.38-0.93-0.57c-1.58-0.92-3.17-1.85-4.75-2.77
			c-0.04-0.69-0.15-1.38-0.11-2.06c0.04-0.59,0.23-1.15-0.66-1.15c-0.04-0.69-0.81-1.55,0.46-1.92c-0.05,0.83,0.08,1.56,1.24,1.93
			c0-2.33,0-4.53,0-6.73c0.23,0.35,0.64,0.69,0.66,1.05c0.08,1.3,0.07,2.61,0.02,3.92c-0.03,0.94-0.03,1.91-0.29,2.79
			c-0.33,1.11-0.06,1.75,1.02,2.1c1.28,0.71,2.57,1.43,3.85,2.14c0.15,0.39,0.3,0.78,0.46,1.17
			C569.5,167.61,569.17,167.65,568.85,167.69z"/>
		<path class="st4" d="M490.61,207.36c-0.32-0.18-0.64-0.37-0.97-0.55c-0.01-0.13-0.02-0.25-0.04-0.38
			c0.05-0.72,0.11-1.44,0.16-2.16c-0.09-0.15-0.19-0.29-0.28-0.44c-0.08-0.03-0.15-0.05-0.23-0.08c0-0.47,0.01-0.93,0.01-1.4
			c0.01-1.52-0.05-3.04,0.04-4.55c0.07-1.14-0.23-1.98-1.17-2.68c-0.58-0.44-1.01-1.09-1.5-1.64c0-0.32-0.01-0.64-0.01-0.96
			c0.16,0,0.32,0,0.49,0.01c0.41,0.47,0.81,0.94,1.22,1.41c0.24,0.24,0.48,0.49,0.72,0.73c0.25,0.31,0.49,0.62,0.73,0.93
			c0.23,0.26,0.45,0.51,0.68,0.77c0.08,0.08,0.16,0.16,0.24,0.24c-0.07,0.1-0.19,0.19-0.19,0.29c-0.02,2.98-0.04,5.97-0.01,8.95
			c0,0.2,0.43,0.4,0.67,0.6c0.01,0.15,0.02,0.31,0.02,0.46C491.01,207.06,490.81,207.21,490.61,207.36z"/>
		<path class="st10" d="M396.26,167.86c-1.66-0.92-3.33-1.84-4.99-2.76c-0.39-0.43-0.78-0.85-1.16-1.28
			c0.21-0.25,0.42-0.5,0.63-0.74c1.68,1.02,3.31,2.13,5.05,3.02c0.74,0.38,1.05,0.73,0.94,1.5
			C396.58,167.69,396.42,167.77,396.26,167.86z"/>
		<path class="st11" d="M382.24,158.63c0.01-0.06,0.04-0.11,0.08-0.16c2.08,1.17,4.16,2.34,6.23,3.53c0.17,0.1,0.22,0.4,0.33,0.6
			c-0.04,0.18-0.08,0.36-0.12,0.54l0.03,0.08c-1.02-0.47-2.04-0.94-3.05-1.4c-0.12-0.1-0.24-0.2-0.37-0.31c0,0-0.03-0.02-0.04-0.02
			c-0.41-0.24-0.82-0.47-1.23-0.71c-0.18-0.06-0.35-0.12-0.53-0.18c-0.45-0.42-0.89-0.84-1.34-1.27
			C382.23,159.1,382.23,158.86,382.24,158.63z"/>
		<path class="st1" d="M502.1,205.49c-0.03,0.47-0.07,0.95-0.1,1.42c-0.73,0.38-1.48,0.73-2.18,1.16c-0.68,0.42-1.32,0.92-1.97,1.38
			c-0.13,0.04-0.26,0.08-0.39,0.11c-0.41,0.15-0.81,0.3-1.22,0.45c-0.16-0.4-0.32-0.8-0.48-1.2c1.55-0.85,3.11-1.69,4.66-2.56
			c0.4-0.22,0.74-0.54,1.1-0.82C501.71,205.46,501.91,205.48,502.1,205.49z"/>
		<path class="st10" d="M404.15,172.48c-1.9-1.15-3.81-2.3-5.71-3.46c0.14-0.32,0.29-0.65,0.43-0.97c1.9,1.07,3.82,2.11,5.7,3.22
			c0.28,0.17,0.4,0.61,0.59,0.93C404.82,172.29,404.49,172.39,404.15,172.48z"/>
		<path class="st11" d="M428.57,186.65c-1.75-1.04-3.47-2.12-5.26-3.09c-0.73-0.39-0.88-0.81-0.57-1.5
			c0.28-0.08,0.55-0.16,0.83-0.24c0.2,0.3,0.34,0.66,0.61,0.87c0.45,0.36,0.95,0.66,1.46,0.93c1.14,0.6,2.29,1.16,3.44,1.74
			c0.01,0.39,0.02,0.79,0.02,1.18C428.93,186.57,428.75,186.61,428.57,186.65z"/>
		<path class="st12" d="M524.69,193.87c-0.13,0.04-0.26,0.08-0.38,0.12c-0.18,0.06-0.37,0.1-0.54,0.18
			c-1.07,0.51-2.14,1.02-3.2,1.54c-0.21-0.42-0.41-0.83-0.62-1.25c0.47-0.05,1.02,0.04,1.4-0.17c1.65-0.89,3.26-1.87,4.89-2.81
			c0.08,0,0.15,0.02,0.22,0.06c0.07,0.31,0.14,0.63,0.2,0.94c-0.22,0.19-0.44,0.37-0.67,0.56
			C525.56,193.32,525.12,193.6,524.69,193.87z"/>
		<path class="st1" d="M531.4,190.02c-0.13,0.04-0.26,0.09-0.39,0.13c-0.25,0.07-0.51,0.14-0.76,0.22
			c-0.56-0.07-1.12-0.15-1.68-0.22c0-0.07,0-0.14,0.01-0.21c0.7-0.42,1.38-0.88,2.1-1.25c1.3-0.67,2.63-1.28,3.95-1.92
			c0.06,0.4,0.12,0.8,0.17,1.2c-0.06,0.02-0.12,0.05-0.18,0.07c-0.68,0.43-1.35,0.85-2.03,1.28c-0.13,0.04-0.26,0.08-0.39,0.12
			C531.94,189.63,531.67,189.82,531.4,190.02z"/>
		<path class="st1" d="M564.33,170.97c-0.22,0.03-0.44,0.05-0.67,0.08c-0.17-0.17-0.34-0.35-0.51-0.52
			c-0.16,0.36-0.33,0.71-0.49,1.07c-0.17,0.1-0.33,0.19-0.5,0.29c-0.24-0.31-0.47-0.62-0.71-0.93c1.58-0.91,3.16-1.82,4.71-2.72
			c-0.06-0.45-0.1-0.79-0.15-1.14c0.59,0.57,1.97,0.55,1.44,1.95c-0.8,0.48-1.6,0.96-2.4,1.44
			C564.8,170.65,564.57,170.81,564.33,170.97z"/>
		<path class="st11" d="M448.04,198.05c-0.16-0.08-0.32-0.15-0.48-0.23c-0.2-0.19-0.4-0.38-0.6-0.58c-0.02-0.29-0.05-0.58-0.07-0.87
			c0.22-0.02,0.43-0.04,0.65-0.06c1.75,1.05,3.48,2.11,5.25,3.12c0.64,0.37,0.83,0.78,0.51,1.43c-0.15,0.02-0.31,0.03-0.46,0.05
			c-0.23-0.17-0.47-0.33-0.7-0.5c-0.25-0.15-0.49-0.31-0.74-0.46c-0.96-0.57-1.91-1.14-2.87-1.71
			C448.37,198.18,448.2,198.11,448.04,198.05z"/>
		<path class="st13" d="M489.27,202.36c0,0.47-0.01,0.93-0.01,1.4c-0.07,0.02-0.13,0.04-0.2,0.07c-0.17,0.15-0.33,0.29-0.5,0.44
			c-0.04,0.05-0.1,0.07-0.16,0.07c-0.68,0.42-1.36,0.84-2.04,1.26c-0.13,0.05-0.26,0.11-0.4,0.16c-0.62,0.3-1.23,0.6-1.85,0.9
			c-0.28-0.48-0.55-0.96-0.83-1.44c0.26,0.02,0.57,0.15,0.76,0.04c1.46-0.85,2.9-1.75,4.36-2.62
			C488.66,202.5,488.98,202.45,489.27,202.36z"/>
		<path class="st12" d="M569.82,167.56c-0.15-0.39-0.3-0.78-0.46-1.17c0.64-0.35,1.29-0.71,1.93-1.06c1.31-0.71,2.62-1.42,3.94-2.13
			c1.12,0.16,0.35,0.78,0.31,1.23c-0.37,0.2-0.74,0.41-1.1,0.61C572.9,165.89,571.36,166.73,569.82,167.56z"/>
		<path class="st11" d="M463.87,205.76c1.26,0.79,2.55,1.53,3.76,2.39c0.77,0.55,2.05,0.63,2.07,1.98c-0.18,0.07-0.37,0.14-0.55,0.2
			c-0.12-0.04-0.25-0.09-0.37-0.13c-0.19-0.16-0.38-0.31-0.57-0.47c-0.17-0.07-0.34-0.13-0.5-0.2c-0.33-0.2-0.65-0.41-0.98-0.61
			c-0.43-0.22-0.85-0.44-1.28-0.66c-0.56-0.37-1.13-0.74-1.69-1.13c-0.54-0.37-0.85-0.81-0.38-1.45
			C463.54,205.71,463.7,205.73,463.87,205.76z"/>
		<path class="st11" d="M413.08,176.74c-0.26,0.16-0.52,0.32-0.77,0.48c-0.95-0.58-1.9-1.15-2.86-1.73
			c-0.56-0.31-1.12-0.62-1.68-0.94c-0.16-0.08-0.32-0.15-0.48-0.23c-0.25-0.49-0.5-0.98-0.74-1.46c1.01,0.48,2.06,0.89,3.02,1.47
			C410.78,175.06,411.91,175.93,413.08,176.74z"/>
		<path class="st11" d="M457.15,203.34c-0.24-0.09-0.47-0.18-0.71-0.27c-0.26-0.23-0.62-0.4-0.75-0.69
			c-0.18-0.39-0.19-0.86-0.27-1.29c0.62,0.34,1.24,0.68,1.86,1.02c1.32,0.72,2.64,1.44,3.96,2.16c0.1,0.43,0.2,0.86,0.3,1.29
			c-0.42-0.12-0.83-0.24-1.25-0.36c-0.88-0.55-1.77-1.1-2.65-1.64C457.47,203.48,457.31,203.41,457.15,203.34z"/>
		<path class="st1" d="M577.97,161.87c-0.01-0.07-0.01-0.14-0.01-0.21c1.75-1.39,3.6-2.59,5.79-3.16c0.08,0.25,0.17,0.5,0.25,0.74
			c-1.2,0.8-2.4,1.6-3.61,2.39c-0.16-0.01-0.32-0.01-0.48-0.02C579.27,161.7,578.62,161.79,577.97,161.87z"/>
		<path class="st11" d="M437.53,191.13c-0.25,0.1-0.51,0.19-0.76,0.29c-0.3-0.22-0.61-0.43-0.91-0.65
			c-0.74-0.44-1.48-0.89-2.22-1.33c-0.13-0.05-0.27-0.1-0.4-0.14c-0.28-0.18-0.56-0.35-0.84-0.53c-0.2-0.05-0.39-0.1-0.59-0.14
			c-0.26-0.21-0.53-0.42-0.79-0.63c-0.05-0.03-0.1-0.06-0.16-0.09c0.21-0.3,0.42-0.61,0.64-0.91c1.83,0.97,3.67,1.95,5.5,2.92
			C437.17,190.32,437.35,190.73,437.53,191.13z"/>
		<path class="st11" d="M439.65,193.28c-0.22-0.46-0.43-0.91-0.65-1.37c0.91,0.37,1.88,0.63,2.71,1.14
			c1.32,0.81,2.55,1.77,3.82,2.67c-0.05,0.13-0.1,0.26-0.15,0.39c-0.07,0.05-0.14,0.11-0.21,0.16c-1.43-0.77-2.87-1.53-4.3-2.3
			c-0.24-0.15-0.49-0.31-0.73-0.46C439.97,193.43,439.81,193.35,439.65,193.28z"/>
		<path class="st11" d="M414.7,178.65c-0.06-0.51-0.44-1.14,0.49-1.26c0.94,0.52,1.91,1.01,2.81,1.58c1.01,0.64,1.98,1.37,2.96,2.06
			c-0.08,0.24-0.17,0.47-0.25,0.71c-0.16,0-0.32,0.01-0.47,0.01c-0.46-0.29-0.93-0.58-1.39-0.87c-1.16-0.65-2.32-1.3-3.47-1.94
			C415.15,178.83,414.93,178.74,414.7,178.65z"/>
		<path class="st11" d="M380.1,158.17c-0.19-0.01-0.39-0.02-0.58-0.03c-0.04-0.01-0.08-0.02-0.12-0.01
			c-0.3-0.19-0.59-0.38-0.89-0.56c-0.16-0.08-0.32-0.17-0.47-0.25c-0.16-0.14-0.33-0.28-0.49-0.42c-0.79-0.44-1.57-0.88-2.36-1.32
			c-0.13-0.56-1.32-0.78-0.51-1.64c1.66,0.97,3.32,1.93,4.96,2.93C380.11,157.15,380.86,157.42,380.1,158.17z"/>
		<path class="st12" d="M551.13,177.44c0.27,1.36-1.06,1.31-1.68,1.89c-0.33,0.31-0.7,0.57-1.05,0.85
			c-0.22,0.11-0.44,0.22-0.66,0.33c-0.46,0.11-0.92,0.23-1.38,0.34c-0.01-0.26-0.02-0.52-0.03-0.78
			C547.94,179.19,549.54,178.32,551.13,177.44z"/>
		<path class="st14" d="M374.68,153.94c-0.81,0.85,0.38,1.08,0.51,1.64c-0.47-0.35-1.36-0.73-1.34-1.05
			c0.05-0.64,0.44-1.46,0.95-1.83c1.3-0.91,2.75-1.6,4.15-2.38c0.03,0.24,0.06,0.47,0.08,0.71c-0.02,0.09-0.04,0.18-0.06,0.28
			C377.55,152.18,376.11,153.06,374.68,153.94z"/>
		<path class="st11" d="M495.76,208.82c0.16,0.4,0.32,0.8,0.48,1.2c-0.16,0.09-0.32,0.18-0.48,0.27c-1.52-0.89-3.05-1.77-4.57-2.66
			c0.03-0.03,0.06-0.06,0.09-0.09c0.38-0.06,0.77-0.11,1.15-0.17C493.54,207.86,494.65,208.34,495.76,208.82z"/>
		<path class="st3" d="M504.17,205.27c-0.02-0.32-0.04-0.64-0.05-0.97c0.89-0.41,1.77-0.83,2.66-1.24c0.43-0.04,0.87-0.08,1.3-0.11
			c-0.14,0.24-0.29,0.49-0.43,0.73c-0.13,0.04-0.25,0.08-0.38,0.12c-0.28,0.19-0.55,0.38-0.83,0.57c-0.2,0.13-0.4,0.26-0.61,0.39
			C505.28,204.93,504.73,205.1,504.17,205.27z"/>
		<path class="st1" d="M508.08,202.95c-0.43,0.04-0.87,0.08-1.3,0.11c1.05-0.72,2.1-1.45,3.16-2.18c0.08,0.42,0.17,0.84,0.25,1.25
			c-0.4,0.27-0.8,0.53-1.2,0.8C508.69,202.94,508.39,202.95,508.08,202.95z"/>
		<path class="st14" d="M415.38,178.93c1.16,0.65,2.32,1.3,3.47,1.94C417.7,180.22,416.54,179.57,415.38,178.93z"/>
		<path class="st5" d="M579.17,155.62c0.04-0.1,0.08-0.19,0.12-0.29c0.95,0.64,1.9,1.27,2.84,1.91"/>
		<path class="st3" d="M577.97,161.87c0.65-0.08,1.3-0.17,1.95-0.25c-0.11,0.13-0.22,0.27-0.32,0.4c-0.45,0.2-0.9,0.4-1.36,0.6
			c-0.08-0.1-0.17-0.19-0.25-0.29C577.98,162.18,577.98,162.03,577.97,161.87z"/>
		<path class="st1" d="M489.06,203.82c0.07-0.03,0.13-0.05,0.2-0.07c0.08,0.02,0.15,0.05,0.23,0.07c0.09,0.15,0.19,0.29,0.28,0.44
			c-0.05,0.72-0.11,1.44-0.16,2.16c-0.11,0-0.23,0-0.34,0c-0.07-0.72-0.15-1.45-0.22-2.17
			C489.05,204.12,489.05,203.97,489.06,203.82z"/>
		<path class="st15" d="M503.42,205.49c0.25-0.08,0.5-0.15,0.76-0.23c0.55-0.17,1.11-0.33,1.66-0.5"/>
		<path class="st3" d="M561.45,170.96c0.24,0.31,0.47,0.62,0.71,0.93c-0.03,0.13-0.07,0.26-0.1,0.38c-0.12,0.04-0.24,0.08-0.37,0.13
			c-0.15-0.07-0.3-0.13-0.45-0.2c-0.1-0.4-0.19-0.81-0.29-1.21C561.11,170.98,561.28,170.97,561.45,170.96z"/>
		<path class="st16" d="M557.54,174.95c0.71-0.56,1.42-1.11,2.14-1.67"/>
		<path class="st11" d="M486.36,205.6c0.68-0.42,1.36-0.84,2.04-1.26C487.72,204.76,487.04,205.18,486.36,205.6z"/>
		<path class="st14" d="M433.63,189.44c0.74,0.44,1.48,0.89,2.22,1.33C435.12,190.33,434.37,189.88,433.63,189.44z"/>
		<path class="st1" d="M476.73,203.75c0.68,0.4,1.35,0.8,2.03,1.2C478.08,204.55,477.41,204.15,476.73,203.75z"/>
		<path class="st15" d="M532.6,189.31c0.68-0.43,1.35-0.85,2.03-1.28C533.95,188.46,533.28,188.88,532.6,189.31z"/>
		<path class="st3" d="M562.66,171.6c0.16-0.36,0.33-0.71,0.49-1.07c0.17,0.17,0.34,0.35,0.51,0.52c-0.25,0.22-0.51,0.43-0.76,0.65
			C562.82,171.67,562.74,171.64,562.66,171.6z"/>
		<path class="st1" d="M484.12,206.66c0.62-0.3,1.23-0.6,1.85-0.9c-0.58,0.37-1.17,0.74-1.75,1.11
			C484.16,206.81,484.13,206.74,484.12,206.66z"/>
		<path class="st16" d="M555.41,176.18c0.58-0.37,1.16-0.75,1.74-1.12C556.57,175.44,555.99,175.81,555.41,176.18z"/>
		<path class="st15" d="M508.08,202.95c0.3,0,0.61-0.01,0.91-0.01c-0.45,0.25-0.9,0.5-1.35,0.74
			C507.79,203.44,507.94,203.19,508.08,202.95z"/>
		<path class="st17" d="M422.63,181.01c0,0.12,0,0.25,0.01,0.37c-0.24,0.06-0.48,0.13-0.72,0.19c0.03-0.04,0.04-0.09,0.04-0.14
			c0.12-0.34,0.25-0.69,0.48-1.32C422.54,180.61,422.58,180.81,422.63,181.01z"/>
		<path class="st1" d="M479.15,205.09c0.44,0.27,0.87,0.53,1.31,0.8C480.02,205.63,479.58,205.36,479.15,205.09z"/>
		<path class="st17" d="M420.72,181.73c0.08-0.24,0.17-0.47,0.25-0.71c0.23,0.16,0.47,0.31,0.7,0.47c-0.16,0.19-0.32,0.38-0.48,0.57
			c-0.16,0-0.32-0.01-0.48-0.01C420.71,181.94,420.72,181.83,420.72,181.73z"/>
		<path class="st15" d="M524.69,193.87c0.43-0.27,0.87-0.55,1.3-0.82C525.56,193.32,525.12,193.6,524.69,193.87z"/>
		<path class="st18" d="M384.09,160.79c0.41,0.24,0.82,0.47,1.23,0.71"/>
		<path class="st19" d="M575.52,137.01c-0.31-0.32-0.63-0.63-0.94-0.95C574.89,136.38,575.2,136.69,575.52,137.01z"/>
		<path class="st18" d="M466.73,208.91c0.33,0.2,0.65,0.41,0.98,0.61C467.38,209.32,467.06,209.12,466.73,208.91z"/>
		<path class="st3" d="M545.23,181.38c-0.35,0.13-0.7,0.26-1.05,0.38c-0.16-0.08-0.31-0.16-0.47-0.24
			c-0.01-0.08-0.01-0.17-0.02-0.25C544.2,181.31,544.71,181.35,545.23,181.38z"/>
		<path class="st16" d="M560.97,172.43c0.01-0.08,0.02-0.17,0.03-0.25c0.08,0.01,0.16,0.01,0.24,0.02c0.15,0.07,0.3,0.13,0.45,0.2"
			/>
		<path class="st1" d="M577.99,162.33c0.08,0.1,0.17,0.19,0.25,0.29c-0.33,0.53-0.69,0.77-1.1,0.07
			C577.43,162.57,577.71,162.45,577.99,162.33z"/>
		<path class="st11" d="M490.61,207.36c0.2-0.15,0.4-0.3,0.6-0.46c0,0-0.01-0.01-0.01-0.01c0.03,0.22,0.05,0.43,0.08,0.65
			c-0.03,0.03-0.06,0.06-0.09,0.09c-0.22-0.04-0.44-0.08-0.65-0.13c-0.02,0-0.04-0.08-0.03-0.1
			C490.52,207.38,490.57,207.38,490.61,207.36z"/>
		<path class="st7" d="M576.51,138.39c-0.48-0.02-0.89-0.09-0.51-0.72C576.17,137.91,576.34,138.15,576.51,138.39z"/>
		<path class="st14" d="M432.39,188.77c0.28,0.18,0.56,0.35,0.84,0.53C432.95,189.12,432.67,188.94,432.39,188.77z"/>
		<path class="st16" d="M554.19,176.87c0.27-0.19,0.55-0.38,0.82-0.58C554.74,176.49,554.46,176.68,554.19,176.87z"/>
		<path class="st15" d="M531.4,190.02c0.27-0.2,0.54-0.39,0.81-0.59C531.94,189.63,531.67,189.82,531.4,190.02z"/>
		<path class="st16" d="M562.9,171.7c-0.28,0.19-0.56,0.38-0.84,0.57c0.03-0.13,0.07-0.26,0.1-0.38"/>
		<path class="st16" d="M564.33,170.97c0.24-0.16,0.48-0.32,0.72-0.49C564.8,170.65,564.57,170.81,564.33,170.97z"/>
		<path class="st18" d="M378.51,157.56c0.3,0.19,0.59,0.38,0.89,0.56C379.11,157.94,378.81,157.75,378.51,157.56z"/>
		<path class="st19" d="M421.19,182.06c0.16-0.19,0.32-0.38,0.48-0.57c0.09-0.02,0.19-0.04,0.28-0.06c0,0.05-0.01,0.1-0.04,0.14
			C421.67,181.74,421.43,181.9,421.19,182.06z"/>
		<path class="st15" d="M506.44,204.38c0.28-0.19,0.55-0.38,0.83-0.57C507,204,506.72,204.19,506.44,204.38z"/>
		<path class="st20" d="M431.01,187.99c0.26,0.21,0.53,0.42,0.79,0.63C431.54,188.41,431.28,188.2,431.01,187.99z"/>
		<path class="st20" d="M446.96,197.24c0.2,0.19,0.4,0.38,0.6,0.58C447.36,197.63,447.16,197.43,446.96,197.24z"/>
		<path class="st19" d="M446.82,95.09c-0.16,0.03-0.33,0.06-0.49,0.09c0.18-0.18,0.36-0.36,0.53-0.54
			C446.85,94.79,446.84,94.94,446.82,95.09z"/>
		<path class="st1" d="M527.85,191.35c0.01-0.09,0.03-0.18,0.04-0.27c0.23-0.01,0.46-0.02,0.69-0.02c0.09,0.05,0.17,0.1,0.26,0.16
			c-0.16,0.11-0.32,0.21-0.48,0.32C528.19,191.48,528.02,191.42,527.85,191.35z"/>
		<path class="st15" d="M511.52,200.61c0.15-0.02,0.3-0.05,0.45-0.07"/>
		<path class="st14" d="M446.82,95.09c0.01-0.15,0.03-0.3,0.04-0.45c0.18-0.01,0.35-0.02,0.53-0.03
			C447.2,94.77,447.01,94.93,446.82,95.09z"/>
		<path class="st6" d="M578.42,146.23c0.26-0.15,0.52-0.29,0.79-0.44c-0.01,0.17-0.03,0.33-0.04,0.5
			C578.92,146.27,578.67,146.25,578.42,146.23z"/>
		<path class="st21" d="M451.4,199.97c0.25,0.15,0.49,0.31,0.74,0.46C451.89,200.27,451.64,200.12,451.4,199.97z"/>
		<path class="st16" d="M579.6,162.02c0.11-0.13,0.22-0.27,0.32-0.4c0.16,0.01,0.32,0.01,0.48,0.02
			C580.13,161.76,579.87,161.89,579.6,162.02z"/>
		<path class="st18" d="M440.13,193.5c0.24,0.15,0.49,0.31,0.73,0.46C440.62,193.81,440.37,193.66,440.13,193.5z"/>
		<path class="st18" d="M377.55,156.89c0.16,0.14,0.33,0.28,0.49,0.42C377.88,157.17,377.71,157.03,377.55,156.89z"/>
		<path class="st18" d="M468.21,209.73c0.19,0.16,0.38,0.31,0.57,0.47C468.59,210.04,468.4,209.88,468.21,209.73z"/>
		<path class="st19" d="M420.72,181.73c0,0.11,0,0.21,0,0.32c-0.16-0.1-0.31-0.2-0.47-0.31
			C420.4,181.73,420.56,181.73,420.72,181.73z"/>
		<path class="st20" d="M448.04,198.05c0.16,0.07,0.32,0.14,0.48,0.21C448.37,198.18,448.2,198.11,448.04,198.05z"/>
		<path class="st21" d="M457.15,203.34c0.16,0.07,0.33,0.15,0.49,0.22C457.47,203.48,457.31,203.41,457.15,203.34z"/>
		<path class="st11" d="M489.06,203.82c0,0.15-0.01,0.29-0.01,0.44c-0.16,0-0.32,0-0.48,0
			C488.73,204.12,488.89,203.97,489.06,203.82z"/>
		<path class="st14" d="M448.49,94.01c-0.18,0.1-0.36,0.21-0.54,0.31C448.13,94.22,448.31,94.12,448.49,94.01z"/>
		<path class="st15" d="M489.27,206.43c0.11,0,0.23,0,0.34,0c0.01,0.13,0.02,0.25,0.04,0.38
			C489.52,206.68,489.39,206.56,489.27,206.43z"/>
		<path class="st19" d="M445.79,95.45c-0.19,0.11-0.39,0.21-0.58,0.32C445.4,95.66,445.59,95.56,445.79,95.45z"/>
		<path class="st18" d="M385.36,161.51c0.12,0.1,0.24,0.2,0.37,0.31"/>
		<path class="st22" d="M445.38,196.1c0.01,0.1,0.02,0.21,0.03,0.31c-0.08-0.05-0.16-0.1-0.24-0.15
			C445.23,196.21,445.31,196.15,445.38,196.1z"/>
		<path class="st3" d="M561,172.18c-0.01,0.08-0.02,0.16-0.03,0.25c-0.07-0.03-0.14-0.05-0.21-0.05c-0.01-0.08-0.01-0.15-0.01-0.23
			C560.83,172.16,560.91,172.17,561,172.18z"/>
		<path class="st13" d="M381.58,137.24c-0.66-2.54,1.01-3.94,2.64-5.36c0.65,0.27,1.33,0.48,1.94,0.83c4.45,2.54,8.9,5.1,13.33,7.67
			c5.01,2.9,10,5.82,15.02,8.71c4.41,2.54,8.84,5.03,13.24,7.58c4.77,2.77,9.5,5.61,14.28,8.37c3.52,2.03,7.1,3.96,10.62,5.99
			c3.43,1.98,6.81,4.06,10.23,6.05c3.01,1.75,6.07,3.4,9.08,5.15c3.11,1.8,6.19,3.67,9.28,5.5c0.2,0.12,0.43,0.18,0.65,0.26
			c0.87,0.34,1.49,0.82,1.4,1.91c-0.08,0.95-0.01,1.92-0.01,2.87c0.08,1.07,0.21,2.13,0.23,3.2c0.03,2.59,0.02,5.19,0,7.78
			c0,0.41-0.15,0.83-0.23,1.24c-0.08-0.41-0.23-0.83-0.23-1.24c-0.02-2.83-0.01-5.66-0.01-8.49c0-2.34-0.98-3.48-3.38-3.93
			c-1.94-1.17-3.88-2.36-5.84-3.51c-0.43-0.25-0.97-0.7-1.33,0.14c-0.39,0.33-0.78,0.67-1.17,1c0.01-0.43,0.08-0.88,0.02-1.3
			c-0.07-0.51-0.08-1.23-0.4-1.45c-0.87-0.62-1.9-1.02-2.86-1.51c-0.2-0.03-0.4-0.07-0.6-0.1c-0.58-0.38-1.15-0.76-1.73-1.14
			c-0.2-0.06-0.4-0.11-0.61-0.17c-0.13-0.17-0.26-0.33-0.39-0.5c-0.14,0.21-0.27,0.42-0.41,0.63c0,0,0,0,0,0
			c-0.15,0.16-0.31,0.33-0.46,0.49c0,0-0.08,0.03-0.08,0.03s-0.09,0-0.09,0c-0.22-0.02-0.44-0.05-0.66-0.07
			c0.16-0.97,0.13-1.87-0.84-2.46c-1.19-0.7-2.38-1.41-3.57-2.11c-0.41-0.23-0.82-0.46-1.23-0.68c-0.08-0.09-0.17-0.17-0.25-0.26
			c-0.68-0.96-1.11,0.56-1.74,0.18c-0.55-0.46,0.38-1.78-1.01-1.75c-0.2-0.12-0.41-0.23-0.61-0.35c-0.2-0.12-0.4-0.24-0.59-0.36
			c-0.37-0.19-0.73-0.38-1.1-0.57c-1.11-0.71-2.21-1.46-3.36-2.1c-0.13-0.07-0.61,0.47-0.92,0.72c-0.25,0.26-0.49,0.53-0.74,0.79
			c-0.09-0.2-0.17-0.4-0.26-0.6c-0.06-0.66-0.12-1.32-0.18-1.98c-0.22-0.27-0.39-0.63-0.67-0.8c-1.26-0.73-2.63-1.3-3.81-2.13
			c-1.1-0.77-2.02-1.22-3.14,0.28c-0.05-0.62,0-1-0.13-1.29c-0.22-0.51-0.45-1.15-0.87-1.42c-1.55-1.01-3.22-1.84-4.78-2.85
			c-0.73-0.47-1.19-0.4-1.75,0.2c-0.22,0.23-0.64,0.27-0.96,0.39c0.02-0.15,0.03-0.31,0.05-0.46c0.13-0.17,0.42-0.41,0.38-0.49
			c-0.27-0.51-0.51-1.17-0.96-1.44c-1.15-0.71-2.41-1.25-3.63-1.86c-0.46-0.25-0.93-0.49-1.39-0.74c-0.16-0.24-0.32-0.47-0.48-0.71
			c-0.16,0.14-0.31,0.27-0.47,0.41l-0.01,0.01c-0.16,0.15-0.31,0.31-0.47,0.46c-0.05,0.04-0.1,0.07-0.16,0.08
			c-0.19-0.29-0.52-0.58-0.53-0.88c-0.03-0.69-0.15-1.11-0.88-1.46c-1.62-0.79-3.16-1.76-4.71-2.7c-1.43-0.87-2.01-0.66-2.54,0.98
			c-0.17,0.16-0.34,0.33-0.51,0.49c-0.02-0.2-0.04-0.4-0.06-0.6c0.18-0.81,0.73-1.64-0.15-2.39l-0.01-0.02
			c-1.07-0.67-2.14-1.34-3.21-2.01c-0.86-0.5-1.73-1.01-2.59-1.51c-0.06-0.13-0.12-0.26-0.17-0.4c-0.09,0.14-0.18,0.28-0.26,0.42
			c-0.3,0.32-0.6,0.65-0.9,0.97c-0.26-0.09-0.51-0.18-0.77-0.26c0.06-0.55,0.11-1.1,0.17-1.65c-0.64-1.34-1.96-1.66-3.17-2.14
			c-0.13-0.03-0.25-0.06-0.38-0.1c-0.9-0.62-1.79-1.26-2.72-1.83c-0.07-0.04-0.43,0.41-0.66,0.63l-0.01,0.01
			c-0.26,0.06-0.52,0.13-0.8,0.19c0.18-1.63,0.15-1.68-0.91-2.06c-1.56-0.9-3.09-1.86-4.68-2.68c-0.47-0.25-1.13-0.15-1.7-0.2
			c-0.31,0.09-0.62,0.17-0.86,0.24c-0.14-0.36-0.26-0.67-0.38-0.98c-0.01-0.23-0.03-0.46-0.04-0.68c-0.12-0.17-0.21-0.4-0.38-0.5
			c-1.51-0.92-3.05-1.79-4.56-2.73c-1.47-0.91-2.26-0.64-2.88,1.08l-0.01,0.02C381.96,137.23,381.77,137.23,381.58,137.24z"/>
		<path class="st23" d="M559.54,133.09c0.3,0.79,1.18,1.63,0.19,2.4c-1.06,0.83-2.19,1.72-3.44,2.09c-1.59,0.47-3.36,0.61-4.99,0.04
			c-1.19-0.42-2.44-0.95-3.38-1.76c-1.05-0.91-0.83-1.81,0.31-3.2c0.19-0.23,0.34-0.5,0.51-0.75c0.64-0.24,1.27-0.48,1.91-0.73
			c0.48-0.16,0.96-0.32,1.44-0.48c1.68,0.16,3.41,0.15,5.02,0.57C558.02,131.5,558.74,132.46,559.54,133.09z"/>
		<path class="st3" d="M565.52,164.26c-1.08-0.34-1.35-0.98-1.02-2.1c0.26-0.88,0.26-1.86,0.29-2.79c0.04-1.31,0.06-2.62-0.02-3.92
			c-0.02-0.36-0.43-0.7-0.66-1.05c-0.02-0.15-0.03-0.3-0.05-0.44c0.01-0.09,0.02-0.17,0.03-0.26c0.63-0.19,1.3-0.28,1.87-0.58
			c1.28-0.68,2.46-1.57,3.77-2.15c0.91-0.4,0.88-0.83,0.55-1.52c0.24,0.23,0.49,0.47,0.73,0.7c-0.07,1.68-0.19,3.36-0.2,5.04
			c0,0.46,0.3,0.92,0.47,1.38c-0.76,0.78-0.85,1.68-0.47,2.66c0,0.23,0,0.47,0,0.7c-0.35,0.39-0.64,0.89-1.07,1.16
			c-1.28,0.82-2.63,1.53-3.92,2.33C565.63,163.55,565.62,163.98,565.52,164.26z"/>
		<path class="st3" d="M562.87,159.21c-1.27,0.37-0.5,1.23-0.46,1.92c-0.08,0.9-0.4,1.88-0.17,2.69c0.37,1.3-0.25,1.85-1.17,2.37
			c-0.68,0.38-1.42,0.68-2.07,1.12c-0.67,0.45-1.26,1.01-1.89,1.53c-0.23-0.39-0.66-0.77-0.67-1.17c-0.06-2.34,0.01-4.69-0.05-7.04
			c-0.02-0.71-0.3-1.42-0.46-2.12c0.48-0.11,1.01-0.13,1.44-0.35c1.42-0.74,2.82-1.52,4.18-2.37c0.38-0.23,0.58-0.74,0.87-1.13
			c0.15,0.02,0.3,0.03,0.46,0.05C562.88,156.2,562.87,157.71,562.87,159.21z"/>
		<path class="st3" d="M545.96,163.96c0.06-0.03,0.12-0.03,0.18,0c-0.06,0.63-0.17,1.26-0.17,1.89c0.02,1.54,0.09,3.07,0.14,4.61
			c-0.07,1.01-0.4,2.09-0.16,3.02c0.3,1.17-0.22,1.57-1.04,2.01c-1.27,0.67-2.53,1.36-3.78,2.08c-0.17,0.1-0.21,0.39-0.32,0.6
			c-0.72,0.04-0.71-0.44-0.71-0.95c0.01-1.67,0.03-3.34,0-5.01c-0.03-1.49,0.35-3.06-0.68-4.39c0.66-0.09,1.36-0.06,1.96-0.29
			c0.79-0.3,1.62-0.68,2.21-1.26C544.37,165.49,545.98,165.54,545.96,163.96z"/>
		<path class="st3" d="M529.84,173.57c-0.01,1.57-0.07,3.14-0.01,4.7c0.03,0.68,0.3,1.36,0.46,2.04c-0.24,0.23-0.66,0.44-0.68,0.69
			c-0.06,0.78,0.09,1.58,0.04,2.37c-0.02,0.4-0.17,0.96-0.46,1.15c-1.21,0.79-2.53,1.42-3.74,2.21c-0.4,0.26-0.6,0.81-0.89,1.23
			c-0.25-0.49-0.69-0.97-0.7-1.47c-0.07-2.47-0.02-4.95-0.05-7.42c-0.01-0.5-0.17-1.01-0.26-1.51c0.34-0.1,0.71-0.15,1.01-0.32
			c1.48-0.82,2.96-1.64,4.39-2.54c0.35-0.22,0.49-0.76,0.73-1.15C529.73,173.53,529.78,173.54,529.84,173.57z"/>
		<path class="st24" d="M483.29,204.99c0.08-0.41,0.23-0.83,0.23-1.24c0.02-2.59,0.03-5.19,0-7.78c-0.01-1.07-0.15-2.13-0.23-3.2
			c0.54-0.18,1.07-0.35,1.6-0.54c0.35-0.12,0.69-0.28,1.03-0.42c0,0,0,0,0,0c0.24,0.56,0.48,1.12,0.72,1.68
			c0.49,0.56,0.92,1.21,1.5,1.64c0.94,0.7,1.24,1.54,1.17,2.68c-0.09,1.51-0.03,3.03-0.04,4.55c-0.29,0.1-0.61,0.14-0.87,0.3
			c-1.46,0.86-2.89,1.77-4.36,2.62c-0.18,0.11-0.5-0.02-0.76-0.04C483.29,205.15,483.29,205.07,483.29,204.99z"/>
		<path class="st25" d="M505.35,188.08c-0.01,0.17-0.02,0.35-0.03,0.52c0,0-0.01-0.02-0.01-0.02c-0.4,0.16-0.82,0.27-1.19,0.47
			c-1.68,0.92-3.35,1.86-5.02,2.79c-1.31-1.36-2.65-2.7-3.91-4.1c-0.57-0.64-0.49-1.22,0.4-1.7c1.1-0.59,2.11-1.35,3.15-2.04
			c0.12-0.04,0.25-0.08,0.37-0.13c0.28-0.19,0.57-0.38,0.85-0.57c0.12-0.05,0.24-0.1,0.35-0.15c0.25-0.01,0.5-0.01,0.74-0.02
			C502.48,184.79,503.91,186.44,505.35,188.08z"/>
		<path class="st25" d="M549.46,154.66c0.16-0.01,0.32-0.01,0.48-0.02c0.16,0.08,0.33,0.16,0.49,0.23c1.32,1.47,2.65,2.94,3.97,4.41
			c0.02,0.2,0.04,0.41,0.06,0.61c-0.98,0.56-1.95,1.16-2.95,1.69c-1.16,0.61-2.34,1.17-3.51,1.75c-1.24-1.38-2.51-2.74-3.7-4.16
			c-0.25-0.3-0.18-0.86-0.26-1.3c0.36-0.21,0.72-0.41,1.07-0.62c0.5-0.28,1-0.57,1.5-0.85c0,0,0.02-0.01,0.02-0.01
			C547.58,155.82,548.52,155.24,549.46,154.66z"/>
		<path class="st25" d="M488.34,193.95c-0.41-0.47-0.81-0.94-1.22-1.41c-0.16-0.16-0.32-0.32-0.47-0.48
			c-0.05-0.07-0.09-0.14-0.14-0.21c0.01-0.18,0.02-0.37,0.04-0.55c0.35-0.26,0.7-0.52,1.04-0.77c0.62-0.31,1.22-0.63,1.85-0.92
			c1.22-0.56,2.46-1.09,3.69-1.63c0,0,0,0,0,0c0.23,0.25,0.46,0.51,0.69,0.76c1.06,1.26,2.13,2.52,3.19,3.78
			c-0.03,0.31-0.07,0.61-0.1,0.92c-1.9,1.06-3.8,2.11-5.71,3.16c-0.16,0-0.32,0.01-0.48,0.01c-0.08-0.08-0.16-0.16-0.24-0.24
			c-0.23-0.26-0.45-0.51-0.68-0.77c-0.24-0.31-0.49-0.62-0.74-0.93C488.82,194.43,488.58,194.19,488.34,193.95z"/>
		<path class="st25" d="M529.67,173.55c-0.24,0.39-0.38,0.93-0.73,1.15c-1.43,0.9-2.91,1.72-4.39,2.54
			c-0.3,0.17-0.67,0.21-1.01,0.31c-1.44-1.56-2.88-3.11-4.32-4.67c0.09-0.25,0.18-0.5,0.27-0.74c1.28-0.69,2.54-1.4,3.83-2.06
			c0.79-0.4,1.62-0.72,2.43-1.08c0.24,0.25,0.47,0.51,0.71,0.76c0.23,0.25,0.46,0.5,0.69,0.76c0.42,0.46,0.83,0.93,1.25,1.39
			c0.15,0.17,0.3,0.33,0.44,0.5C529.11,172.79,529.39,173.17,529.67,173.55z"/>
		<path class="st25" d="M507.01,187.06c-1.16-1.36-2.3-2.73-3.48-4.06c-0.64-0.72-0.8-1.13,0.28-1.65c1.67-0.81,3.22-1.85,4.83-2.77
			c0.22-0.13,0.52-0.13,0.78-0.19c0.47,0.56,0.95,1.13,1.42,1.69c0.16,0.17,0.32,0.33,0.47,0.5c0.07,0.08,0.14,0.17,0.21,0.25
			c0.16,0.17,0.32,0.34,0.48,0.51c0.47,0.6,0.95,1.2,1.42,1.8c-0.04,0.17-0.07,0.34-0.11,0.52c-0.42,0.28-0.83,0.59-1.28,0.83
			C510.37,185.35,508.69,186.2,507.01,187.06z"/>
		<path class="st25" d="M562.42,154.65c-0.28,0.38-0.49,0.89-0.87,1.13c-1.36,0.84-2.76,1.62-4.18,2.37
			c-0.42,0.22-0.95,0.24-1.44,0.35c-1.27-1.45-2.53-2.9-3.8-4.34c0-0.29,0-0.58,0-0.86c0,0-0.02-0.03-0.02-0.03
			c1.21-0.71,2.41-1.42,3.62-2.13c0,0,0.01,0,0.01,0c0.87-0.36,1.75-0.72,2.62-1.08c0.05,0.05,0.1,0.08,0.16,0.11
			c0.16,0.16,0.33,0.32,0.49,0.49C560.16,151.97,561.29,153.31,562.42,154.65z"/>
		<path class="st25" d="M531.7,172.91c-1.34-1.45-2.68-2.9-4.02-4.35c0.16-0.44,0.19-1.09,0.51-1.29c1.21-0.78,2.5-1.47,3.8-2.11
			c0.67-0.33,1.43-0.48,2.15-0.71c0,0,0.01,0.01,0.01,0.01c0.29,0.35,0.58,0.7,0.87,1.05c1.03,1.16,2.07,2.32,3.1,3.48
			c-0.04,0.18-0.08,0.36-0.12,0.55c-0.46,0.22-0.93,0.41-1.38,0.65C534.98,171.09,533.34,172,531.7,172.91z"/>
		<path class="st25" d="M545.96,163.96c0.02,1.58-1.59,1.52-2.37,2.3c-0.58,0.58-1.42,0.96-2.21,1.26c-0.6,0.23-1.31,0.21-1.96,0.29
			c-1.2-1.36-2.39-2.71-3.59-4.07c0-0.37,0-0.75,0-1.12c0.06-0.03,0.12-0.06,0.18-0.1c0.32-0.11,0.67-0.17,0.96-0.33
			c1.7-0.91,3.38-1.83,5.07-2.76c0,0,0,0,0,0c0.16,0.16,0.32,0.32,0.48,0.47c0,0,0,0,0,0c0.14,0.18,0.28,0.35,0.42,0.53c0,0,0,0,0,0
			c0.15,0.17,0.31,0.34,0.46,0.51c0.2,0.21,0.4,0.41,0.6,0.62c0.36,0.43,0.71,0.87,1.07,1.3
			C545.37,163.25,545.67,163.6,545.96,163.96z"/>
		<path class="st25" d="M519.19,175.56c0.03,0.06,0.06,0.11,0.09,0.17c0.45,0.5,0.89,1.01,1.34,1.51c0.24,0.24,0.49,0.47,0.73,0.71
			c0.09,0.37,0.18,0.74,0.26,1.11c-0.49,0.24-1,0.46-1.48,0.72c-1.58,0.82-3.16,1.65-4.74,2.48c-1.49-1.64-2.98-3.27-4.53-4.98
			c0.82-0.48,1.35-0.79,1.89-1.11c0.26-0.21,0.52-0.41,0.78-0.62c0.06-0.02,0.13-0.04,0.2-0.06c0.8-0.4,1.67-0.71,2.39-1.22
			c0.89-0.63,1.44-0.56,2,0.39C518.34,175.05,518.83,175.27,519.19,175.56z"/>
		<path class="st25" d="M570.28,149.45c0.33,0.69,0.36,1.13-0.55,1.52c-1.32,0.58-2.49,1.47-3.77,2.15
			c-0.57,0.3-1.24,0.39-1.87,0.58c-0.16-0.09-0.31-0.18-0.47-0.27c-0.19-0.3-0.37-0.59-0.56-0.89c-0.14-0.16-0.29-0.32-0.43-0.49
			c-0.46-0.49-0.93-0.99-1.39-1.48c-0.26-0.3-0.52-0.61-0.78-0.91c-0.04-0.06-0.08-0.12-0.11-0.17c0.01-0.35,0.03-0.71,0.04-1.06
			c0.25-0.1,0.5-0.2,0.76-0.31c0.62-0.3,1.21-0.67,1.86-0.88c1.45-0.47,2.55-2.58,4.45-0.98c0,0,0,0,0,0
			c0.22,0.25,0.45,0.51,0.67,0.76c0.16,0.17,0.31,0.33,0.47,0.5c0.32,0.39,0.64,0.78,0.97,1.18c0,0,0.01,0.01,0.01,0.01
			c0.23,0.24,0.46,0.48,0.69,0.72L570.28,149.45z"/>
		<path class="st7" d="M512.75,176.18c-0.54,0.31-1.07,0.63-1.89,1.11c1.55,1.7,3.04,3.34,4.53,4.98c0.08,0.98,0.22,1.96,0.24,2.95
			c0.04,2.03-0.02,4.06,0.03,6.09c0.01,0.41,0.31,0.81,0.47,1.22c0.23,0.09,0.46,0.18,0.69,0.26c0.49,0.31,0.97,0.63,1.46,0.94
			c0.15,0.01,0.29,0.02,0.44,0.03c0.25,0.23,0.51,0.45,0.76,0.68c0.15,0.01,0.3,0.02,0.45,0.03c0.21,0.41,0.41,0.83,0.62,1.24
			c0,0-0.05,0.06-0.05,0.06c-0.35-0.03-0.7-0.06-1.05-0.1c-1.83-1.06-3.65-2.13-5.48-3.19c0-0.78-0.01-1.56-0.01-2.35
			c-0.07-0.16-0.14-0.33-0.22-0.49c0,0-0.01-0.01-0.01-0.01c-0.08-1.22-0.17-2.44-0.25-3.66c-0.05-0.77-0.12-1.55-0.17-2.32
			c0.03-0.17,0.07-0.34,0.11-0.52c0.95-0.3,1.05-0.71,0.35-1.46c-0.83-0.9-1.65-1.8-2.47-2.71c-0.16-0.17-0.32-0.37-0.4-0.58
			c-0.54-1.37,0.03-2.13,1.8-2.43C512.74,176.02,512.75,176.1,512.75,176.18z"/>
		<path class="st7" d="M544.05,157.88c0.08,0.44,0.01,1,0.26,1.3c1.19,1.43,2.46,2.78,3.7,4.16c0.13,0.36,0.38,0.73,0.38,1.09
			c-0.01,2.67-0.1,5.33-0.11,8c0,0.31,0.29,0.63,0.45,0.94c1.53,0.97,3.07,1.94,4.84,3.07c-0.57,0.21-0.81,0.29-1.04,0.38
			c-1.74-0.97-3.47-1.95-5.21-2.92c-0.23-0.13-0.49-0.21-0.73-0.32c0-0.66,0.07-1.33-0.01-1.98c-0.05-0.39-0.3-0.77-0.46-1.15
			c-0.05-1.54-0.12-3.07-0.14-4.61c-0.01-0.63,0.11-1.26,0.17-1.89c0.75-0.22,0.87-0.58,0.31-1.18c-0.73-0.77-1.49-1.53-2.12-2.38
			c-0.44-0.61-0.7-1.36-0.98-2.07C543.33,158.28,543.81,158.03,544.05,157.88z"/>
		<path class="st7" d="M521.61,179.06c-0.09-0.37-0.17-0.74-0.26-1.11c0.34,0.14,0.69,0.28,1.03,0.42c0.09-0.07,0.18-0.15,0.27-0.22
			c-0.53-0.7-1.06-1.39-1.59-2.09c-0.75-0.98-2.09-1.62-1.84-3.18c1.44,1.55,2.88,3.11,4.32,4.67c0.09,0.5,0.25,1.01,0.26,1.51
			c0.03,2.47-0.03,4.95,0.05,7.42c0.01,0.5,0.46,0.98,0.7,1.47c0.24,0.12,0.48,0.25,0.72,0.36c1.11,0.54,2.22,1.07,3.32,1.61
			c-0.01,0.07-0.01,0.14-0.01,0.21c0,0.31,0,0.62,0,0.93c-0.23,0.01-0.46,0.02-0.69,0.02c-1.83-1.09-3.65-2.17-5.48-3.26
			c-0.03-0.91,0.28-2.08-0.17-2.66c-0.73-0.94-0.53-1.84-0.57-2.78C521.61,181.28,521.63,180.17,521.61,179.06z"/>
		<path class="st8" d="M535.83,163.74c1.2,1.36,2.39,2.71,3.59,4.07c1.03,1.34,0.65,2.9,0.68,4.39c0.03,1.67,0.01,3.34,0,5.01
			c0,0.51-0.01,0.99,0.71,0.95c0.11,0.2,0.18,0.47,0.35,0.57c1.32,0.78,2.66,1.52,3.99,2.27c0.04,0.11,0.07,0.22,0.11,0.34
			c0,0-0.04,0.03-0.04,0.03c-0.51-0.03-1.02-0.07-1.54-0.1c-1.61-0.94-3.22-1.88-4.83-2.81c0.04-1.21,0.3-2.44-0.63-3.5
			c-0.2-0.23-0.23-0.67-0.24-1.02c-0.02-1.47,0.01-2.94,0.02-4.41c0.04-0.18,0.08-0.36,0.12-0.55c1.12,0.07,0.92-0.52,0.48-1.06
			c-0.7-0.86-1.51-1.63-2.2-2.49c-0.38-0.48-0.59-1.08-0.88-1.63C535.63,163.79,535.73,163.77,535.83,163.74z"/>
		<path class="st8" d="M552.14,154.15c1.27,1.45,2.53,2.9,3.8,4.34c0.16,0.71,0.44,1.41,0.46,2.12c0.06,2.35-0.01,4.69,0.05,7.04
			c0.01,0.39,0.43,0.78,0.67,1.17c0,0,0.01,0,0.01,0c1.12,0.71,2.25,1.42,3.37,2.14c0.15,0.01,0.3,0.02,0.45,0.03
			c0.1,0.4,0.19,0.81,0.29,1.21c-0.08-0.01-0.16-0.01-0.24-0.02c-0.08-0.01-0.17-0.02-0.25-0.03c-1.45-0.8-2.91-1.59-4.36-2.39
			c-0.4-0.22-0.76-0.5-1.14-0.75c0-0.07-0.01-0.14-0.03-0.2c-0.02-0.87,0.3-2.02-0.13-2.55c-0.81-1-0.52-2.01-0.58-3.02
			c-0.06-1.11-0.03-2.22-0.04-3.33c-0.02-0.2-0.04-0.41-0.06-0.61c1.01-0.4,0.31-1.02,0.06-1.36c-0.57-0.79-1.34-1.43-1.93-2.2
			c-0.33-0.43-0.47-1.01-0.7-1.52C551.94,154.19,552.04,154.17,552.14,154.15z"/>
		<path class="st24" d="M550.65,131.18c-0.64,0.24-1.27,0.48-1.91,0.73c-0.79-0.26-0.52-0.56-0.02-0.83
			c1.36-0.71,2.67-1.54,4.33-1.35c0.63,0.07,1.28,0.01,1.91,0.01c2.49,0,4.03,0.89,5.49,3.23c-0.34,0.04-0.63,0.08-0.92,0.11
			c-0.8-0.63-1.52-1.59-2.43-1.82c-1.61-0.42-3.34-0.4-5.02-0.57C551.42,130.25,550.95,130.46,550.65,131.18z"/>
		<path class="st4" d="M561.24,150.57c0.46,0.49,0.93,0.99,1.39,1.48c0.14,0.16,0.29,0.32,0.43,0.49c0.19,0.3,0.37,0.59,0.56,0.89
			c0.15,0.18,0.29,0.35,0.44,0.53c0.02,0.15,0.03,0.3,0.05,0.44c0,2.2,0,4.41,0,6.73c-1.16-0.37-1.28-1.1-1.24-1.93
			c0-1.5,0-3,0.01-4.5c-0.04-0.42,0.06-0.94-0.15-1.24c-0.55-0.75-1.27-1.37-1.85-2.11c-0.18-0.23-0.12-0.65-0.17-0.98
			C560.89,150.44,561.06,150.51,561.24,150.57z"/>
		<path class="st9" d="M534.14,164.45c-0.72,0.23-1.48,0.38-2.15,0.71c-1.3,0.64-2.59,1.32-3.8,2.11c-0.32,0.2-0.35,0.85-0.51,1.29
			c-0.1,0.01-0.2,0.01-0.31,0.02c-0.78-0.59-0.39-1.22,0.14-1.55c1.75-1.09,3.58-2.06,5.38-3.07
			C533.49,163.62,533.95,163.7,534.14,164.45z"/>
		<path class="st3" d="M567.46,146.27c-1.9-1.6-3,0.51-4.45,0.98c-0.65,0.21-1.24,0.58-1.86,0.88c0.41-0.33,0.79-0.7,1.22-0.99
			c0.88-0.58,1.78-1.14,2.7-1.67C566.6,144.58,566.61,144.59,567.46,146.27z"/>
		<path class="st9" d="M542.04,159.44c-1.69,0.92-3.37,1.85-5.07,2.76c-0.29,0.16-0.64,0.22-0.96,0.33c0.59-0.47,1.16-0.99,1.79-1.4
			c1.02-0.66,2.06-1.28,3.15-1.83C541.22,159.16,541.67,159.38,542.04,159.44z"/>
		<path class="st7" d="M525.75,169c-0.81,0.36-1.64,0.68-2.43,1.08c-1.29,0.66-2.56,1.37-3.83,2.06c0.21-0.26,0.37-0.6,0.64-0.76
			c1.63-0.94,3.3-1.82,4.92-2.78C525.62,168.27,525.73,168.48,525.75,169z"/>
		<path class="st3" d="M519.19,175.56c-0.37-0.29-0.85-0.51-1.07-0.88c-0.56-0.95-1.12-1.02-2-0.39c-0.72,0.51-1.59,0.82-2.39,1.22
			c1.1-0.7,2.13-1.75,3.33-2.02C518.2,173.23,518.69,174.63,519.19,175.56z"/>
		<path class="st4" d="M493.12,187.97c-1.23,0.54-2.47,1.08-3.69,1.63c-0.63,0.28-1.23,0.61-1.85,0.92
			c0.43-0.36,0.84-0.77,1.31-1.07c1.06-0.67,2.16-1.3,3.24-1.93C492.67,187.2,493.05,187.27,493.12,187.97z"/>
		<path class="st9" d="M555.74,151.12c-1.21,0.71-2.41,1.42-3.62,2.13C553.03,152.05,554.33,151.49,555.74,151.12z"/>
		<path class="st7" d="M575.31,141.07c-0.31-0.17-0.61-0.34-0.88-0.49c-1.08,0.55-2.12,1.08-3.16,1.61c0.98-0.7,1.94-1.44,2.98-2.04
			C574.38,140.08,574.95,140.75,575.31,141.07z"/>
		<path class="st7" d="M576.78,139.1c0.07,0.99,0.3,2,0.16,2.95c-0.11,0.7-0.62,0.56-0.85-0.09c0.16-0.3,0.4-0.59,0.46-0.91
			C576.68,140.41,576.71,139.75,576.78,139.1z"/>
		<path class="st9" d="M558.37,150.04c-0.88,0.36-1.75,0.72-2.62,1.08c0.77-0.54,1.55-1.09,2.32-1.63
			C558.17,149.67,558.27,149.85,558.37,150.04z"/>
		<path class="st7" d="M549.46,154.66c-0.94,0.58-1.88,1.16-2.82,1.74C547.58,155.82,548.52,155.24,549.46,154.66z"/>
		<path class="st7" d="M570.89,142.29c-0.68,0.42-1.36,0.85-2.04,1.27C569.53,143.14,570.21,142.71,570.89,142.29z"/>
		<path class="st3" d="M520.62,177.24c-0.45-0.5-0.89-1.01-1.34-1.51C519.73,176.23,520.17,176.74,520.62,177.24z"/>
		<path class="st9" d="M545.08,162.89c-0.36-0.43-0.71-0.87-1.07-1.3C544.37,162.02,544.72,162.45,545.08,162.89z"/>
		<path class="st7" d="M546.62,156.41c-0.5,0.28-1,0.57-1.5,0.85C545.62,156.97,546.12,156.69,546.62,156.41z"/>
		<path class="st3" d="M569.56,148.7c-0.32-0.39-0.64-0.78-0.97-1.18C568.92,147.92,569.24,148.31,569.56,148.7z"/>
		<path class="st9" d="M535.02,165.51c-0.29-0.35-0.58-0.7-0.87-1.05C534.45,164.81,534.73,165.16,535.02,165.51z"/>
		<path class="st3" d="M535.83,163.74c-0.1,0.02-0.2,0.04-0.3,0.06c-0.21-0.47-0.64-1.01,0.31-1.18
			C535.83,163,535.83,163.37,535.83,163.74z"/>
		<path class="st3" d="M552.14,154.15c-0.1,0.02-0.2,0.04-0.3,0.06c-0.26-0.42-0.55-0.86,0.3-0.92
			C552.14,153.58,552.14,153.86,552.14,154.15z"/>
		<path class="st3" d="M561.24,150.57c-0.18-0.06-0.35-0.13-0.53-0.19c-0.08-0.24-0.16-0.48-0.25-0.72
			C560.72,149.97,560.98,150.27,561.24,150.57z"/>
		<path class="st7" d="M499.95,183.31c-0.28,0.19-0.57,0.38-0.85,0.57C499.39,183.69,499.67,183.5,499.95,183.31z"/>
		<path class="st3" d="M560.39,148.43c-0.01,0.35-0.03,0.71-0.04,1.06C559.69,149.11,560.01,148.77,560.39,148.43z"/>
		<path class="st3" d="M570.27,149.43c-0.23-0.24-0.46-0.48-0.69-0.72C569.8,148.95,570.03,149.19,570.27,149.43z"/>
		<path class="st3" d="M568.13,147.03c-0.22-0.25-0.45-0.51-0.67-0.76C567.68,146.52,567.9,146.77,568.13,147.03z"/>
		<path class="st7" d="M527.14,170.51c-0.23-0.25-0.46-0.5-0.69-0.76C526.68,170.01,526.91,170.26,527.14,170.51z"/>
		<path class="st4" d="M493.81,188.73c-0.23-0.25-0.46-0.51-0.69-0.76C493.35,188.23,493.58,188.48,493.81,188.73z"/>
		<path class="st3" d="M512.75,176.18c0-0.08-0.01-0.16-0.04-0.23c0.27-0.13,0.54-0.26,0.81-0.39
			C513.27,175.77,513.01,175.97,512.75,176.18z"/>
		<path class="st7" d="M501.05,183.15c-0.25,0.01-0.5,0.01-0.74,0.02c0.14-0.15,0.28-0.29,0.42-0.44
			C500.83,182.87,500.94,183.01,501.05,183.15z"/>
		<path class="st4" d="M486.54,191.3c-0.01,0.18-0.02,0.37-0.04,0.55c-0.19-0.01-0.38-0.02-0.58-0.03c0,0,0,0,0,0
			C486.13,191.64,486.33,191.47,486.54,191.3z"/>
		<path class="st9" d="M543.41,160.97c-0.15-0.17-0.31-0.34-0.46-0.51C543.1,160.63,543.25,160.8,543.41,160.97z"/>
		<path class="st7" d="M511.32,180.57c-0.16-0.17-0.32-0.33-0.47-0.5C511.01,180.24,511.16,180.41,511.32,180.57z"/>
		<path class="st9" d="M542.94,160.46c-0.14-0.18-0.28-0.35-0.42-0.53C542.66,160.1,542.8,160.28,542.94,160.46z"/>
		<path class="st9" d="M542.52,159.92c-0.16-0.16-0.32-0.32-0.48-0.47C542.2,159.61,542.36,159.77,542.52,159.92z"/>
		<path class="st7" d="M528.84,172.41c-0.15-0.17-0.3-0.33-0.44-0.5C528.54,172.07,528.69,172.24,528.84,172.41z"/>
		<path class="st9" d="M559.02,150.63c-0.16-0.16-0.33-0.32-0.49-0.49C558.7,150.31,558.86,150.47,559.02,150.63z"/>
		<path class="st7" d="M512.01,181.33c-0.16-0.17-0.32-0.34-0.48-0.51C511.69,180.99,511.85,181.16,512.01,181.33z"/>
		<path class="st7" d="M550.43,154.88c-0.16-0.08-0.33-0.16-0.49-0.23C550.11,154.72,550.27,154.8,550.43,154.88z"/>
		<path class="st26" d="M468.45,192.56c0.26,0.4,0.43,0.95,0.79,1.17c1.55,0.95,3.19,1.75,4.72,2.71c0.43,0.27,0.86,0.91,0.88,1.39
			c0.09,2.51,0.05,5.03,0.03,7.54c-0.01,1.01-0.37,1.24-1.26,0.73c-1.59-0.91-3.13-1.89-4.67-2.87c-0.24-0.15-0.49-0.47-0.51-0.73
			c-0.27-3.25-0.51-6.51-0.71-9.77c-0.02-0.32,0.27-0.65,0.42-0.97C468.25,192.03,468.35,192.3,468.45,192.56z"/>
		<path class="st4" d="M460.5,187.97c0.25,0.36,0.43,0.85,0.77,1.07c1.53,0.97,3.11,1.85,4.66,2.79c0.24,0.14,0.54,0.44,0.54,0.67
			c0.04,3,0.02,6,0.02,9.18c-0.6-0.22-1.01-0.37-1.43-0.52c-0.14-0.01-0.28-0.03-0.42-0.04c-0.98-0.63-1.95-1.26-2.93-1.89
			c-0.14-0.01-0.28-0.02-0.42-0.03c-1.11-0.89-1.35-2.03-1.3-3.42c0.1-2.58,0.01-5.18,0-7.77C460.17,188,460.34,187.98,460.5,187.97
			z"/>
		<path class="st22" d="M461.29,199.21c0.14,0.01,0.28,0.02,0.42,0.03c0.98,0.63,1.95,1.26,2.93,1.89c0.14,0.01,0.28,0.03,0.42,0.04
			c0.21,0.26,0.42,0.51,0.62,0.78c0.21,0.29,0.39,0.6,0.58,0.9c-0.07,0.01-0.14,0.01-0.21,0.01c-0.26-0.15-0.53-0.3-0.93-0.54
			c0.09,0.46,0.14,0.75,0.2,1.05c-0.64,0.31-1.27,0.62-1.91,0.93c-0.73-0.01-1.45-0.02-2.18-0.02c-1.32-0.72-2.64-1.44-3.96-2.16
			c-0.62-0.34-1.24-0.68-1.86-1.02c0.92-0.62,1.81-1.27,2.76-1.83c0.47-0.27,0.88-0.42,0.42-1.01c0.31-0.91,0.63-0.9,1.22-0.14
			C460.17,198.58,460.79,198.85,461.29,199.21z"/>
		<path class="st27" d="M468.45,192.56c-0.1-0.26-0.2-0.53-0.3-0.79c0.72-0.87,1.43-1.74,2.16-2.6c0.99-1.17,0.81-2.29-0.48-3.15
			c-0.61-0.4-1.16-0.88-1.74-1.32c0.96,0.49,1.99,0.9,2.86,1.51c0.32,0.23,0.34,0.95,0.4,1.45c0.06,0.43-0.01,0.87-0.02,1.3
			c0,0,0-0.03,0-0.03c0.01,0.1,0.02,0.2,0.04,0.3C470.39,190.35,469.42,191.45,468.45,192.56z"/>
		<path class="st27" d="M472.5,187.96c0.36-0.84,0.9-0.39,1.33-0.14c1.96,1.15,3.9,2.33,5.84,3.51c0.29,1.49-0.45,2.56-1.46,3.5
			c-0.66,0.61-1.34,1.2-2,1.8c0.22-0.39,0.39-0.81,0.67-1.15c0.63-0.76,1.37-1.45,1.97-2.23c0.59-0.76,0.65-1.51-0.34-2.09
			c-1.7-1-3.38-2.06-5.09-3.05C473.18,187.96,472.81,188.01,472.5,187.96z"/>
		<path class="st24" d="M460.5,187.97c-0.17,0.02-0.34,0.03-0.51,0.05c0.07-2.09,1.75-2.98,3.06-4.15c0.22,0.02,0.44,0.05,0.66,0.07
			c-0.85,0.97-1.71,1.94-2.53,2.93C460.92,187.2,460.73,187.6,460.5,187.97z"/>
		<path class="st4" d="M465.76,183.46c0.58,0.38,1.15,0.76,1.73,1.14C466.91,184.21,466.34,183.84,465.76,183.46z"/>
		<path class="st4" d="M464.35,183.43c0.14-0.21,0.27-0.42,0.41-0.63c0.13,0.17,0.26,0.33,0.39,0.5
			C464.89,183.34,464.62,183.38,464.35,183.43z"/>
		<path class="st4" d="M463.89,183.92c0.15-0.16,0.31-0.33,0.46-0.49C464.2,183.59,464.04,183.76,463.89,183.92z"/>
		<path class="st13" d="M471.36,189.24c-0.01-0.1-0.02-0.2-0.04-0.3C471.33,189.04,471.35,189.14,471.36,189.24z"/>
		<path class="st13" d="M483.3,206.92"/>
		<path class="st6" d="M572.92,149.44c-0.09-0.15-0.18-0.3-0.27-0.45c0.26-0.02,0.52-0.04,0.78-0.07
			C573.27,149.1,573.1,149.27,572.92,149.44z"/>
		<path class="st17" d="M389.99,139.37c0.01,0.23,0.03,0.46,0.04,0.68c-0.11,0.03-0.32,0.08-0.32,0.09c0.24,1-0.42,1.56-1.02,2.17
			c-0.56,0.56-1.12,1.14-1.59,1.77c-0.22,0.3-0.21,0.75-0.31,1.14c0.18,0.09,0.37,0.17,0.55,0.26c1.31-1.56,2.62-3.12,3.93-4.69
			c0.57,0.06,1.22-0.04,1.7,0.2c1.6,0.83,3.13,1.78,4.68,2.68c0.68,1.34,0.56,1.86-0.5,3.02c-0.76,0.84-1.43,1.75-2.15,2.63
			c-0.1,0.65-0.32,1.31-0.29,1.95c0.14,2.97,0.34,5.93,0.52,8.9c-0.3-0.08-0.6-0.16-0.9-0.25c-0.23,0-0.46,0.01-0.69,0.01
			c-0.32-0.26-0.64-0.51-0.97-0.77c0.88,0.1,0.97-0.45,0.95-1.13c-0.09-2.58-0.12-5.17-0.28-7.74c-0.03-0.46-0.43-1.05-0.84-1.31
			c-1.43-0.92-2.92-1.75-4.41-2.56c-0.71-0.38-1.24-0.3-1.21,0.71c0.09,2.62,0.15,5.24,0.26,7.87c0.02,0.36,0.3,0.71,0.46,1.06
			c-0.93,0.31-0.73-0.54-0.97-0.94c-0.08-0.67-0.22-1.33-0.22-2c-0.03-2.27-0.01-4.54-0.02-6.81c0-0.29-0.08-0.59-0.12-0.88
			c-0.12,0.01-0.23,0.03-0.35,0.04c0,3.22,0,6.43,0,9.65c-0.68-0.01-1.49,0.17-1.44-0.95c0.58,0.29,0.98,0.32,0.97-0.53
			c-0.02-2.64,0-5.27-0.03-7.91c0-0.32-0.16-0.8-0.39-0.93c-1.95-1.11-3.93-2.15-5.9-3.22c0.15-0.36,0.21-0.82,0.47-1.07
			c0.82-0.8,1.73-1.52,2.57-2.3c0.07-0.07-0.05-0.35-0.07-0.53c0.01-0.16,0.02-0.32,0.04-0.48c0,0,0.01-0.02,0.01-0.02
			c0.53-0.39,1.06-0.79,1.58-1.17C385.83,137.15,387.91,138.26,389.99,139.37z"/>
		<path class="st22" d="M392.68,159.19c0.32,0.26,0.64,0.51,0.97,0.77c-1.59,0.88-3.19,1.77-4.78,2.65
			c-0.11-0.21-0.16-0.51-0.33-0.6c-2.07-1.19-4.15-2.36-6.23-3.53c0.63-0.53,1.26-1.06,1.89-1.59c-0.05-0.1-0.11-0.21-0.16-0.31
			c-0.75,0.38-1.47,0.86-2.26,1.11c-0.55,0.18-0.9,1.17-1.69,0.48c0.76-0.75,0.01-1.02-0.46-1.31c-1.64-1-3.31-1.95-4.96-2.93
			c1.43-0.88,2.87-1.76,4.3-2.63c0.18,0.07,0.37,0.15,0.55,0.22c0.14,0.01,0.28,0.02,0.42,0.04c1.38,0.87,2.75,1.73,4.13,2.6
			c0.14,0.01,0.28,0.02,0.43,0.04c-0.05,1.12,0.76,0.94,1.44,0.95c0.24,0,0.48,0,0.72,0c0.23,0.4,0.04,1.25,0.97,0.94
			c0.96,0.57,1.91,1.14,2.87,1.71c0.16,0.07,0.32,0.15,0.49,0.22c0.32,0.17,0.64,0.35,0.95,0.52c0.24,0.15,0.47,0.29,0.71,0.44
			C392.67,159.05,392.68,159.12,392.68,159.19z"/>
		<path class="st17" d="M384.09,154.16c-1.38-0.87-2.75-1.73-4.13-2.6C381.33,152.43,382.71,153.29,384.09,154.16z"/>
		<path class="st17" d="M379.53,151.52c-0.18-0.07-0.37-0.15-0.55-0.22c0.02-0.09,0.04-0.18,0.05-0.28
			C379.2,151.19,379.37,151.36,379.53,151.52z"/>
		<path class="st26" d="M382.15,137.23c-0.01,0.16-0.02,0.32-0.04,0.48c-0.18-0.16-0.36-0.31-0.54-0.47
			C381.77,137.23,381.96,137.23,382.15,137.23z"/>
		<path class="st3" d="M554.46,159.9c0.01,1.11-0.03,2.22,0.04,3.33c0.06,1.02-0.23,2.02,0.58,3.02c0.43,0.54,0.11,1.68,0.13,2.55
			c-0.24,0.08-0.47,0.17-0.71,0.25c0.01,0.23,0.02,0.46,0.03,0.7c-1.76,1.03-3.52,2.05-5.27,3.09c-0.21,0.13-0.36,0.35-0.54,0.53
			c-0.16-0.31-0.45-0.63-0.45-0.94c0.01-2.67,0.09-5.33,0.11-8c0-0.36-0.25-0.73-0.38-1.09c1.17-0.58,2.36-1.14,3.51-1.75
			C552.52,161.06,553.48,160.47,554.46,159.9z"/>
		<path class="st3" d="M499.1,191.85c1.67-0.93,3.34-1.88,5.02-2.79c0.37-0.2,0.79-0.32,1.19-0.47c0,0,0,0,0,0
			c0.09,0.68,0.18,1.35,0.27,2.03c0,0.48,0,0.96,0,1.44c0,0.32,0,0.64,0,0.96c0,0.32,0,0.64,0.01,0.96
			c0.16,1.05,0.31,2.09,0.47,3.14c-0.14,0.47-0.29,0.94-0.43,1.41c-0.47,0.18-0.97,0.29-1.4,0.54c-1.15,0.66-2.22,1.49-3.42,2.02
			c-0.78,0.34-0.65,0.72-0.48,1.27c-0.9-0.17-1.24-0.75-1.21-1.61c0.08-2.37,0.18-4.75,0.22-7.12
			C499.34,193.02,499.18,192.43,499.1,191.85z"/>
		<path class="st3" d="M491.2,196.59c1.9-1.05,3.81-2.11,5.71-3.16c0.02,1.93,0.03,3.86,0.05,5.78c0,1.11,0.02,2.21-0.02,3.32
			c-0.01,0.32-0.13,0.77-0.36,0.91c-0.95,0.6-2.01,1.03-2.93,1.68c-0.71,0.5-1.94,0.5-1.96,1.77c-0.16,0-0.33,0.01-0.49,0.01
			c0,0,0.01,0.01,0.01,0.01c-0.01-0.15-0.02-0.31-0.02-0.46C491.19,203.16,491.19,199.87,491.2,196.59z"/>
		<path class="st6" d="M491.69,206.89c0.03-1.27,1.25-1.27,1.96-1.77c0.91-0.65,1.98-1.08,2.93-1.68c0.23-0.14,0.35-0.6,0.36-0.91
			c0.04-1.1,0.02-2.21,0.02-3.32c0.24,0.26,0.63,0.5,0.68,0.79c0.12,0.72,0.08,1.46,0.1,2.2c0.06,0.34,0,0.85,0.2,0.99
			c1.16,0.8,2.37,1.52,3.57,2.27c-0.37,0.27-0.71,0.59-1.1,0.82c-1.54,0.87-3.1,1.71-4.66,2.56c-1.11-0.48-2.22-0.96-3.33-1.45
			C492.18,207.22,491.94,207.05,491.69,206.89z"/>
		<path class="st6" d="M500.32,202.34c-0.17-0.54-0.31-0.92,0.48-1.27c1.2-0.53,2.27-1.36,3.42-2.02c0.43-0.25,0.93-0.36,1.4-0.54
			c1.44,0.79,2.88,1.59,4.31,2.38c-1.05,0.72-2.1,1.45-3.15,2.17c-0.89,0.41-1.77,0.83-2.66,1.24c-0.15-0.01-0.3-0.02-0.46-0.03
			c-0.25-0.23-0.49-0.46-0.74-0.7C502.06,203.16,501.19,202.75,500.32,202.34z"/>
		<path class="st3" d="M502.93,203.58c0.25,0.23,0.49,0.46,0.74,0.7C503.42,204.04,503.17,203.81,502.93,203.58z"/>
		<path class="st3" d="M513.32,183.64c0.06,0.77,0.12,1.55,0.17,2.32c0.09,1.22,0.17,2.44,0.25,3.66c-0.71,0.82-0.71,2.82-0.02,4.1
			c-1.22,0.62-2.46,1.2-3.65,1.87c-0.74,0.42-1.41,0.98-2.11,1.48c-0.21-0.22-0.59-0.45-0.59-0.67c0-2.5,0.1-4.99,0.09-7.49
			c0-0.62-0.31-1.25-0.47-1.87c1.68-0.86,3.37-1.71,5.04-2.59C512.49,184.24,512.9,183.92,513.32,183.64z"/>
		<path class="st6" d="M507.98,197.09c0.7-0.5,1.36-1.06,2.11-1.48c1.19-0.67,2.43-1.25,3.65-1.87c0.09-0.01,0.18-0.03,0.27-0.04
			c1.36,0.79,2.71,1.58,4.07,2.37c-0.13,0.17-0.22,0.41-0.39,0.51c-1.42,0.8-2.88,1.55-4.28,2.38c-0.3,0.18-0.42,0.66-0.62,1
			C511.18,199,509.58,198.04,507.98,197.09z"/>
		<path class="st12" d="M512.78,199.95c0.2-0.34,0.32-0.82,0.62-1c1.4-0.84,2.86-1.58,4.28-2.38c0.17-0.1,0.26-0.34,0.39-0.51
			c0.98,0.57,0.26,1.18-0.14,1.43c-1.59,0.97-3.26,1.82-4.91,2.71C512.94,200.12,512.86,200.03,512.78,199.95z"/>
		<path class="st23" d="M505.59,193.97c0-0.32,0-0.64-0.01-0.96c0-0.32,0-0.64,0-0.96c0-0.48,0-0.96,0-1.44
			c0.24,0.1,0.69,0.19,0.69,0.31c0.06,0.91,0.06,1.82,0,2.73C506.26,193.77,505.83,193.86,505.59,193.97z"/>
		<polygon class="st0" points="505.31,188.58 505.3,188.58 505.31,188.6 		"/>
		<path class="st6" d="M571.42,159.3c-0.2-0.02-0.4-0.05-0.6-0.07c-0.39-0.98-0.3-1.88,0.47-2.66
			C571.33,157.48,571.38,158.39,571.42,159.3z"/>
		<path class="st3" d="M538.01,169.54c-0.01,1.47-0.03,2.94-0.02,4.41c0,0.35,0.03,0.79,0.24,1.02c0.93,1.06,0.67,2.29,0.63,3.5
			c-0.06-0.02-0.13-0.04-0.18-0.07c-0.06-0.13-0.13-0.25-0.19-0.38c-0.09,0.13-0.19,0.26-0.28,0.39c0,0.23,0.01,0.47,0.01,0.7
			c-1.25,0.8-2.51,1.59-3.75,2.41c-0.53,0.35-1.02,0.78-1.52,1.17c0.49,0.4,0.99,0.8,1.48,1.2c0.06,0.05,0.17,0.02,0.22,0.07
			c0.55,0.45,1.1,0.91,1.64,1.37c-1.27-0.68-2.6-1.27-3.78-2.08c-0.45-0.31-0.73-1.15-0.75-1.75c-0.08-2.86-0.05-5.72-0.06-8.58
			c1.64-0.91,3.28-1.82,4.93-2.72C537.08,169.95,537.55,169.76,538.01,169.54z"/>
		<path class="st22" d="M528.58,189.93c-1.11-0.54-2.22-1.07-3.32-1.61c-0.24-0.12-0.48-0.24-0.72-0.36
			c0.29-0.42,0.5-0.98,0.89-1.23c1.21-0.79,2.53-1.42,3.74-2.21c0.29-0.19,0.44-0.75,0.46-1.15c0.05-0.79-0.1-1.58-0.04-2.37
			c0.02-0.25,0.44-0.46,0.68-0.69c0.04,0.99,0.09,1.97,0.13,2.96c0.06,1.45,1.43,1.59,2.27,2.25c0.6,0.47,1.3,0.83,1.95,1.24
			c-1.32,0.64-2.65,1.25-3.95,1.92C529.96,189.05,529.28,189.51,528.58,189.93z"/>
		<path class="st6" d="M536.28,185.32c-0.55-0.46-1.09-0.92-1.64-1.37c-0.06-0.05-0.17-0.02-0.22-0.07c-0.5-0.39-0.99-0.8-1.48-1.2
			c0.51-0.39,0.99-0.81,1.52-1.17c1.24-0.82,2.5-1.61,3.75-2.41c1.32,0.82,2.65,1.63,3.95,2.46c0.24,0.15,0.41,0.42,0.61,0.64
			c-0.65,0.36-1.3,0.73-1.96,1.08c-1.35,0.7-2.72,1.38-4.07,2.07C536.59,185.34,536.44,185.33,536.28,185.32z"/>
		<path class="st3" d="M536.74,185.35c1.36-0.69,2.72-1.37,4.07-2.07c0.66-0.34,1.31-0.72,1.96-1.08c-0.25,0.42-0.39,1.01-0.76,1.24
			c-1.73,1.08-3.51,2.06-5.28,3.07C536.74,186.13,536.74,185.74,536.74,185.35z"/>
		<path class="st6" d="M560.94,170.99c-0.15-0.01-0.3-0.02-0.45-0.03c-1.12-0.71-2.25-1.42-3.37-2.14c0,0-0.01,0-0.01,0
			c0.63-0.51,1.22-1.08,1.89-1.53c0.65-0.43,1.38-0.74,2.07-1.12c0.92-0.52,1.54-1.07,1.17-2.37c-0.23-0.81,0.09-1.79,0.17-2.69
			c0.89,0.01,0.7,0.57,0.66,1.15c-0.05,0.68,0.06,1.37,0.11,2.06c0.07,0.34,0.02,0.83,0.23,0.99c0.83,0.65,1.73,1.19,2.61,1.77
			c0.04,0.35,0.09,0.7,0.15,1.14c-1.55,0.89-3.13,1.8-4.71,2.72C561.28,170.97,561.11,170.98,560.94,170.99z"/>
		<path class="st6" d="M570.82,159.93c0.81,0.76,1.58,1.59,2.85,1.44c0.18,0.26,0.35,0.53,0.55,0.77c0.32,0.37,0.67,0.72,1,1.07
			c-1.31,0.71-2.62,1.42-3.94,2.13c-0.65,0.35-1.29,0.7-1.93,1.06c-1.28-0.71-2.56-1.43-3.85-2.14c0.1-0.28,0.12-0.71,0.32-0.83
			c1.29-0.81,2.64-1.52,3.92-2.33C570.18,160.82,570.47,160.33,570.82,159.93z"/>
		<path class="st11" d="M491.2,196.59c0,3.28-0.01,6.57-0.01,9.86c-0.23-0.2-0.66-0.4-0.67-0.6c-0.03-2.98-0.01-5.97,0.01-8.95
			c0-0.1,0.13-0.19,0.19-0.29C490.88,196.6,491.04,196.59,491.2,196.59z"/>
		<path class="st0" d="M485.93,191.81c0.19,0.01,0.38,0.02,0.58,0.03c0.05,0.07,0.09,0.14,0.14,0.21c0,0.16-0.01,0.32-0.01,0.47
			c0,0.32,0.01,0.64,0.01,0.96C486.4,192.93,486.17,192.37,485.93,191.81z"/>
		<path class="st10" d="M489.8,195.6c0.23,0.26,0.45,0.51,0.68,0.77C490.25,196.11,490.02,195.85,489.8,195.6z"/>
		<path class="st10" d="M488.34,193.95c0.24,0.24,0.48,0.49,0.72,0.73C488.82,194.43,488.58,194.19,488.34,193.95z"/>
		<path class="st11" d="M489.76,204.27c-0.09-0.15-0.18-0.29-0.28-0.44C489.58,203.98,489.67,204.12,489.76,204.27z"/>
		<path class="st10" d="M486.63,192.53c0-0.16,0.01-0.32,0.01-0.47c0.16,0.16,0.32,0.32,0.47,0.48
			C486.95,192.53,486.79,192.53,486.63,192.53z"/>
		<path class="st6" d="M538.2,178.4c0.09-0.13,0.19-0.26,0.28-0.39c0.06,0.13,0.13,0.25,0.19,0.38
			C538.51,178.39,538.36,178.4,538.2,178.4z"/>
		<path class="st19" d="M514.01,193.69c-0.09,0.01-0.18,0.03-0.27,0.04c-0.7-1.28-0.69-3.28,0.02-4.1c0,0,0.01,0.01,0.01,0.01
			c0.07,0.16,0.14,0.33,0.22,0.49c0,0.78,0.01,1.56,0.01,2.35C513.99,192.88,514,193.28,514.01,193.69z"/>
		<path class="st12" d="M519.47,195.67c0.35,0.03,0.7,0.06,1.05,0.1c-0.17,0.11-0.35,0.21-0.52,0.32
			C519.82,195.95,519.64,195.81,519.47,195.67z"/>
		<path class="st22" d="M394.34,159.94c0.3,0.08,0.6,0.16,0.9,0.25c0.1,0.16,0.2,0.32,0.3,0.47c1.01,0.72,1.99,1.48,3.04,2.14
			c0.43,0.27,1.01,0.33,1.52,0.49c0.32,0.18,0.63,0.35,0.95,0.53c0.25,0.32,0.51,0.64,0.76,0.95c-0.24,0.07-0.48,0.15-0.71,0.22
			c-0.6-0.35-0.82-0.13-0.75,0.51c-1.21,0.7-2.41,1.4-3.62,2.1c0.11-0.77-0.19-1.12-0.94-1.5c-1.74-0.89-3.38-2-5.05-3.02
			c0.91-0.58,1.86-1.11,2.71-1.77C393.86,160.99,394.05,160.41,394.34,159.94z"/>
		<path class="st22" d="M382.24,158.63c0,0.24-0.01,0.47-0.01,0.71C382.23,159.1,382.23,158.86,382.24,158.63z"/>
		<path class="st6" d="M545.16,181.01c-1.33-0.75-2.67-1.5-3.99-2.27c-0.17-0.1-0.24-0.38-0.35-0.57c0.1-0.2,0.15-0.5,0.32-0.6
			c1.25-0.72,2.51-1.41,3.78-2.08c0.82-0.44,1.34-0.84,1.04-2.01c-0.24-0.93,0.08-2.01,0.16-3.02c0.16,0.38,0.42,0.75,0.46,1.15
			c0.08,0.65,0.01,1.32,0.01,1.98c-0.32,1.46,1.03,1.57,1.78,2.12c0.88,0.64,1.84,1.16,2.77,1.73c-1.6,0.88-3.19,1.76-4.79,2.64
			c-0.16,0-0.32,0-0.47,0c-0.16,0.24-0.33,0.47-0.49,0.71C545.31,180.86,545.23,180.94,545.16,181.01z"/>
		<path class="st22" d="M398.87,168.05c0.2-0.28,0.35-0.64,0.62-0.82c1.13-0.72,2.29-1.38,3.44-2.05c0.43,0.24,0.86,0.48,1.29,0.72
			c0.14,0.01,0.28,0.03,0.43,0.04c0.92,1.19,2.19,1.78,3.6,2.15c0.16,0.15,0.33,0.3,0.49,0.44c0,0.42,0,0.84,0,1.27
			c0.38-0.08,0.71-0.15,1.03-0.22c-0.49,0.35-0.96,0.75-1.49,1.04c-1.02,0.56-2.08,1.06-3.12,1.58c-0.19-0.32-0.31-0.77-0.59-0.93
			C402.69,170.16,400.78,169.12,398.87,168.05z"/>
		<path class="st22" d="M423.57,181.81c0.82-0.51,1.7-0.96,2.45-1.56c0.41-0.33,0.63-0.91,0.93-1.38c0.23,0.08,0.46,0.16,0.69,0.25
			c0.17,0.17,0.34,0.33,0.51,0.5c0.26,0.22,0.52,0.44,0.78,0.66c0.62,0.33,1.24,0.66,1.86,0.99c0.16,0.08,0.32,0.16,0.48,0.25
			c0.32,0.18,0.64,0.35,0.95,0.53c0.24,0.14,0.48,0.28,0.72,0.43c0.24,0.09,0.48,0.19,0.72,0.28c0.08,0.31,0.15,0.63,0.23,0.94
			l-0.08,0.01c0,0-0.08-0.02-0.08-0.02c-0.45,0.02-1.09-0.1-0.54,0.7c-0.72,0.34-1.44,0.68-2.16,1.02
			c-0.09-0.14-0.18-0.27-0.27-0.41c-0.06,0.2-0.12,0.41-0.18,0.61c0,0,0,0,0,0c-0.49-0.08-0.98-0.16-1.47-0.24
			c-1.15-0.58-2.3-1.14-3.44-1.74c-0.51-0.27-1.02-0.57-1.46-0.93C423.91,182.47,423.77,182.11,423.57,181.81z"/>
		<path class="st17" d="M429.08,185.35c0.49,0.08,0.98,0.16,1.47,0.24c-0.48,0.32-0.97,0.63-1.45,0.95
			C429.1,186.14,429.09,185.75,429.08,185.35z"/>
		<path class="st17" d="M409.77,169.58c-0.32,0.07-0.64,0.14-1.03,0.22c0-0.43,0-0.85,0-1.27c0.76,0.09,0.97-0.31,0.97-0.99
			c-0.02-2.59,0-5.18-0.02-7.77c0-0.32-0.14-0.79-0.37-0.93c-1.77-1.03-3.58-1.98-5.38-2.96c-0.06-0.03-0.12-0.04-0.18-0.05
			c-0.02-0.31-0.05-0.62-0.07-0.92c1.07-1.34,2.14-2.67,3.21-4.01c0.3-0.32,0.6-0.64,0.9-0.97c0.15-0.01,0.29-0.01,0.44-0.02
			c0.86,0.5,1.73,1.01,2.59,1.51c1.07,0.67,2.14,1.34,3.21,2.01c0,0,0.01,0.02,0.01,0.02c-0.05,0.77-0.1,1.54-0.14,2.31
			c-0.87,0.98-1.73,1.96-2.6,2.94c-0.13,0.29-0.4,0.59-0.38,0.87c0.18,3.33,0.4,6.65,0.61,9.97c-0.47,0.03-0.98-1-1.4,0.06
			C410.02,169.59,409.89,169.58,409.77,169.58z"/>
		<path class="st22" d="M410.14,169.59c0.42-1.06,0.93-0.03,1.4-0.06c0.26,0.31,0.52,0.63,0.78,0.94c0.24,0.16,0.47,0.33,0.71,0.49
			c0.64,0.39,1.28,0.78,1.92,1.18c0.24,0.09,0.48,0.17,0.72,0.26c0.32,0.18,0.63,0.35,0.95,0.53c0.33,0.47,0.67,0.94,1,1.41
			c-0.32,0.16-0.63,0.32-0.95,0.48c-0.6-0.34-0.82-0.13-0.75,0.51c-0.79,0.8-1.65,1.44-2.85,1.41c-1.17-0.81-2.3-1.68-3.52-2.41
			c-0.95-0.58-2.01-0.98-3.02-1.47c0.91-0.64,1.86-1.24,2.7-1.96C409.62,170.58,410.67,170.58,410.14,169.59z"/>
		<path class="st22" d="M450.47,193.03c-0.5,0.36-0.97,0.8-1.51,1.08c-1.12,0.58-2.29,1.07-3.43,1.6c-1.27-0.9-2.49-1.86-3.82-2.67
			c-0.83-0.5-1.8-0.77-2.71-1.14c0.51-0.45,0.98-0.93,1.53-1.33c0.72-0.53,1.49-0.99,2.08-1.7c-0.65,0.19-1.31,0.38-1.96,0.57
			c-0.1-0.14-0.21-0.27-0.31-0.41c-0.05,0.06-0.1,0.12-0.14,0.17c0.15,0.08,0.3,0.16,0.45,0.24c-0.3,0.16-0.59,0.32-0.89,0.48
			c-0.26-0.16-0.73-0.46-0.74-0.45c-0.55,0.81-1.37,0.25-2.03,0.43c-1.83-0.97-3.67-1.95-5.5-2.92c0.87-0.69,1.73-1.39,2.59-2.09
			c0.2-0.16,0.37-0.34,0.56-0.51c0.39-0.08,0.77-0.16,1.16-0.24l0.03-0.02c0.67,1.04,1.66,1.54,2.86,1.69
			c0.96,0.56,1.93,1.12,2.89,1.68c0.14,0.31,0.29,0.62,0.43,0.93c0.27-0.13,0.54-0.26,0.8-0.39c-0.16-0.26-0.33-0.52-0.49-0.78
			c0-3.04,0-6.08,0.01-9.12c0.31-0.24,0.62-0.47,0.93-0.71c0.08,0,0.17,0,0.25,0c0.02,0.31,0.04,0.62,0.05,0.93
			c-0.02,2.09-0.05,4.17-0.07,6.26c0.05,1.36,0.07,2.73,0.17,4.09c0.01,0.16,0.38,0.3,0.59,0.45c0.23,0.09,0.46,0.17,0.69,0.26
			c1.38,0.87,2.75,1.73,4.13,2.6c0.14,0.02,0.28,0.03,0.42,0.05C449.36,192.85,449.78,193.09,450.47,193.03z"/>
		<path class="st1" d="M436.99,189.91c0.66-0.17,1.48,0.38,2.03-0.43c0.01-0.01,0.48,0.29,0.74,0.45c-0.74,0.4-1.48,0.8-2.22,1.2
			C437.35,190.73,437.17,190.32,436.99,189.91z"/>
		<path class="st6" d="M516.84,192.78c-0.23-0.09-0.46-0.18-0.69-0.26c0.15-0.23,0.24-0.56,0.45-0.69c1.74-1.06,3.51-2.09,5.27-3.13
			c1.46,0.93,2.91,1.86,4.37,2.78c-1.62,0.94-3.23,1.92-4.89,2.81c-0.39,0.21-0.93,0.12-1.4,0.17c-0.15-0.01-0.3-0.02-0.45-0.03
			c-0.25-0.23-0.51-0.45-0.76-0.68c-0.15-0.01-0.29-0.02-0.44-0.03C517.81,193.41,517.32,193.09,516.84,192.78z"/>
		<path class="st10" d="M528.58,191.06c0-0.31,0-0.62,0-0.93c0.56,0.07,1.12,0.15,1.68,0.22c-0.41,0.29-0.82,0.59-1.23,0.88
			c-0.06,0.01-0.12,0-0.18-0.02C528.75,191.17,528.66,191.12,528.58,191.06z"/>
		<path class="st22" d="M447.54,196.31c1.26-0.89,2.52-1.79,3.87-2.74c-0.2-0.22-0.34-0.38-0.49-0.54c0-0.39,0.02-0.79,0-1.18
			c-0.04-0.7,0.26-1.04,0.97-1c0.01,0.32,0.01,0.63,0.02,0.95c0,0.16,0,0.33,0,0.49c0,0.38,0.01,0.75,0.01,1.13
			c0.16,0.17,0.32,0.34,0.49,0.51l0.1,0l0.1,0.02c0.29,0.56,1.4,1.2,2.15,1.23c0.32,0.17,0.64,0.34,0.95,0.51
			c0.8,0.55,1.6,1.09,2.41,1.64c0,0.31,0,0.63,0,0.94c-1.61,0.87-3.21,1.73-4.82,2.6c0.32-0.65,0.13-1.07-0.51-1.43
			C451.02,198.43,449.29,197.36,447.54,196.31z"/>
		<path class="st17" d="M417.63,174.34c-0.33-0.47-0.67-0.94-1-1.41c0.44,0.11,0.89,0.22,1.44,0.36c0-2.81-0.03-5.52,0.02-8.22
			c0.02-0.88-0.35-1.41-1.07-1.82c-1.58-0.89-3.18-1.78-4.71-2.75c-0.34-0.21-0.44-0.79-0.65-1.2c0.87-0.96,1.74-1.91,2.6-2.87
			c0.17-0.16,0.34-0.33,0.5-0.49c0.27-0.22,0.52-0.5,0.83-0.64c0.34-0.15,0.83-0.34,1.08-0.2c1.63,0.88,3.23,1.82,4.8,2.8
			c1.14,0.71,1.22,1.53,0.32,2.54c-0.68,0.77-1.37,1.55-2.08,2.29c-0.55,0.58-0.61,1.12,0.04,1.8c0.69-0.81,1.34-1.54,1.95-2.3
			c0.59-0.73,1.14-1.49,1.71-2.23c0.06-0.02,0.11-0.04,0.16-0.08c0.16-0.15,0.31-0.31,0.47-0.46c0,0,0.01-0.01,0.01-0.01
			c0.32,0.1,0.63,0.2,0.95,0.31c0.46,0.25,0.93,0.49,1.39,0.74c0.76,0.51,1.53,1.02,2.29,1.52c0.87,0.57,1.97,0.93,1.91,2.27
			c-0.02,0.15-0.03,0.31-0.05,0.46c-0.58,0.54-1.26,1.02-1.71,1.65c-0.58,0.83-1.78,1.35-1.48,2.67c-0.06,0.42-0.18,0.85-0.16,1.27
			c0.13,2.93,0.28,5.86,0.43,8.79c-0.23-0.08-0.46-0.16-0.69-0.25c-0.24,0-0.48,0.01-0.72,0.01c-0.88-0.64-1.76-1.27-2.64-1.91
			c0.73,0.32,1.46,0.65,2.17,0.96c0.12-0.18,0.2-0.25,0.2-0.31c0.01-1.79-0.12-3.6,0.06-5.38c0.24-2.52-0.13-4.56-2.95-5.32
			c-0.1-0.03-0.17-0.17-0.27-0.23c-1-0.55-2-1.1-3.29-1.8c0,2.32,0.02,4.23-0.01,6.13c-0.01,0.86-0.12,1.72-0.18,2.58
			c-0.1-0.4-0.27-0.81-0.27-1.21c-0.03-1.95-0.01-3.9-0.02-5.85c0-0.32-0.07-0.64-0.1-0.95c-0.12,0.01-0.25,0.02-0.37,0.03
			c0,2.83,0,5.66,0,8.49C418.25,174.18,417.94,174.26,417.63,174.34z"/>
		<path class="st22" d="M423.59,176.97c0.88,0.64,1.76,1.27,2.64,1.91c-0.39,0.16-0.78,0.32-1.17,0.48c-0.59-0.34-0.8-0.12-0.74,0.5
			c-0.17,0.14-0.33,0.29-0.5,0.43c-0.17-0.12-0.35-0.24-0.52-0.36c-0.06,0.21-0.12,0.42-0.18,0.64c-0.16,0.15-0.33,0.3-0.49,0.45
			c-0.05-0.2-0.09-0.4-0.2-0.9c-0.23,0.63-0.35,0.97-0.48,1.32c-0.09,0.02-0.19,0.04-0.28,0.06c-0.23-0.16-0.47-0.31-0.7-0.47
			c-0.98-0.69-1.95-1.41-2.96-2.06c-0.91-0.57-1.87-1.06-2.81-1.58c1.35-0.87,2.7-1.75,4.05-2.62c0.26,0.08,0.52,0.17,0.79,0.25
			c0.07,0,0.14,0.01,0.21,0.02c0.97,0.63,1.94,1.26,2.92,1.89C423.3,176.94,423.44,176.96,423.59,176.97z"/>
		<path class="st22" d="M418.56,174.11c0-2.83,0-5.66,0-8.49c0.12-0.01,0.25-0.02,0.37-0.03c0.04,0.32,0.1,0.64,0.1,0.95
			c0.01,1.95-0.01,3.9,0.02,5.85c0.01,0.41,0.18,0.81,0.27,1.21c0.01,0.22,0.03,0.44,0.04,0.66c-0.04,0.03-0.09,0.05-0.13,0.08
			C419,174.26,418.78,174.18,418.56,174.11z"/>
		<path class="st17" d="M415.94,175.32c-0.07-0.64,0.15-0.85,0.75-0.51C416.43,174.98,416.18,175.15,415.94,175.32z"/>
		<path class="st17" d="M420.03,175.02c-0.26-0.08-0.52-0.17-0.79-0.25c0-0.14-0.01-0.28-0.01-0.42c0.04-0.03,0.09-0.05,0.13-0.08
			C419.58,174.51,419.81,174.77,420.03,175.02z"/>
		<path class="st17" d="M463.41,204.29c-0.02,0.22-0.03,0.44-0.05,0.66c-0.61,0.2-1.22,0.4-1.83,0.6c-0.1-0.43-0.2-0.86-0.3-1.29
			C461.96,204.28,462.69,204.29,463.41,204.29z"/>
		<path class="st1" d="M458.12,198.27c0-0.31,0-0.63,0-0.94c0-0.07,0.01-0.15,0.01-0.22c0.16-0.35,0.44-0.69,0.46-1.05
			c0.06-1.26,0.03-2.52,0.03-3.77c0.08-1.24,0.12-2.49,0.24-3.73c0.12-1.16-0.37-1.79-1.49-1.99c-0.63-0.33-1.25-0.65-1.88-0.98
			c-0.18-0.15-0.36-0.29-0.55-0.44c-0.22-0.1-0.43-0.19-0.65-0.29c-0.32-0.16-0.64-0.31-0.96-0.47c-0.08-0.08-0.16-0.16-0.24-0.24
			c-0.1-0.36-0.21-0.72-0.31-1.07c1.22-1.41,2.43-2.82,3.65-4.23c0.49,0.09,0.98,0.18,1.47,0.26c0.08,0.07,0.16,0.15,0.23,0.22
			c0.16,0.08,0.32,0.16,0.48,0.25c1.21,0.61,2.41,1.23,3.62,1.84c0.97,0.58,1,1.49,0.84,2.46c-1.31,1.17-2.99,2.06-3.06,4.15
			c0.01,2.59,0.1,5.18-0.01,7.77c-0.05,1.39,0.19,2.54,1.3,3.42c-0.5-0.36-1.12-0.63-1.48-1.1c-0.58-0.76-0.91-0.77-1.22,0.14
			C458.43,198.26,458.28,198.26,458.12,198.27z"/>
		<path class="st17" d="M401.81,164.77c-0.25-0.32-0.51-0.64-0.76-0.95c0.24-0.28,0.68-0.56,0.69-0.85c0.05-2.63,0.05-5.26,0-7.89
			c-0.01-0.36-0.3-0.85-0.61-1.04c-1.74-1.09-3.53-2.09-5.27-3.16c-0.25-0.15-0.37-0.5-0.55-0.76c0.47-0.44,0.98-0.85,1.39-1.34
			c0.91-1.06,1.77-2.16,2.66-3.24c0,0,0.01-0.01,0.01-0.01c1.13,0.4,2.25,0.8,3.38,1.21c0.13,0.03,0.25,0.06,0.38,0.09
			c1.06,0.71,2.12,1.42,3.17,2.14c-0.06,0.55-0.11,1.1-0.17,1.65c-1.05,1.11-2.1,2.22-3.15,3.32c-0.84-0.06-0.71,0.54-0.71,1.05
			c0,2.75,0.01,5.49-0.01,8.24c0,0.5-0.15,1.01-0.23,1.51C401.95,164.75,401.88,164.76,401.81,164.77z"/>
		<path class="st22" d="M402.02,164.74c0.08-0.5,0.22-1.01,0.23-1.51c0.02-2.75,0.01-5.49,0.01-8.24c0-0.51-0.12-1.11,0.72-1.05
			c0.01,0.31,0.03,0.63,0.04,0.94c-0.02,0.17-0.03,0.33-0.04,0.5c0.07,0.16,0.14,0.32,0.21,0.48c-0.06,1.75-0.11,3.5-0.17,5.25
			c-0.34,1.07-0.63,2.13,0.16,3.14c0.02,0.24,0.04,0.48,0.06,0.71c-0.09,0-0.18-0.01-0.27-0.01
			C402.64,164.89,402.33,164.82,402.02,164.74z"/>
		<path class="st17" d="M402.95,164.96c0.09,0,0.18,0.01,0.27,0.01c0.33,0.31,0.67,0.62,1,0.93c-0.43-0.24-0.86-0.48-1.29-0.72
			C402.95,165.1,402.95,165.03,402.95,164.96z"/>
		<path class="st17" d="M400.35,165.5c-0.08-0.64,0.14-0.86,0.75-0.51C400.85,165.16,400.6,165.33,400.35,165.5z"/>
		<path class="st17" d="M433.89,183.69c-0.08-0.31-0.15-0.63-0.23-0.94c0.16-0.42,0.45-0.83,0.46-1.25
			c0.05-1.83-0.14-3.68,0.06-5.49c0.24-2.09-0.53-3.36-2.4-4.17c-1.01-0.44-1.97-1-2.88-1.61c-0.41-0.27-0.66-0.78-0.99-1.18
			c1.25-1.37,2.46-2.79,3.79-4.09c0.31-0.3,1.13-0.43,1.53-0.24c1.21,0.56,2.33,1.32,3.49,2c2.01,1.19,2.02,1.2,1.44,3.48
			c-0.82,0.96-1.64,1.92-2.46,2.87c-0.09,0.07-0.27,0.14-0.27,0.21c-0.01,2.06-0.05,4.12,0,6.18c0.03,1.33,0.18,2.65,0.28,3.97
			c-0.13-0.08-0.25-0.17-0.38-0.25c-0.16,0.08-0.32,0.15-0.48,0.23c-0.16,0.1-0.32,0.2-0.48,0.3
			C434.22,183.71,434.05,183.7,433.89,183.69z"/>
		<path class="st14" d="M434.38,183.71c0.16-0.1,0.32-0.2,0.48-0.3c0.16-0.08,0.32-0.15,0.48-0.23c0.13,0.08,0.25,0.17,0.38,0.25
			c0.03,0.24,0.06,0.47,0.08,0.71c-0.39,0.08-0.77,0.16-1.16,0.24C434.55,184.17,434.47,183.94,434.38,183.71z"/>
		<path class="st17" d="M433.18,184.38c-0.54-0.79,0.09-0.68,0.54-0.7C433.54,183.91,433.36,184.14,433.18,184.38z"/>
		<path class="st17" d="M430.56,185.59c0.06-0.2,0.12-0.41,0.18-0.61c0.09,0.14,0.18,0.27,0.27,0.41
			C430.86,185.46,430.71,185.53,430.56,185.59z"/>
		<path class="st3" d="M521.86,188.7c-1.76,1.04-3.52,2.06-5.27,3.13c-0.21,0.13-0.3,0.45-0.45,0.69c-0.17-0.41-0.46-0.81-0.47-1.22
			c-0.05-2.03,0-4.06-0.03-6.09c-0.02-0.98-0.16-1.97-0.24-2.95c1.58-0.83,3.15-1.66,4.74-2.48c0.49-0.25,0.99-0.48,1.48-0.72
			c0.01,1.11,0,2.22,0.05,3.32c0.05,0.94-0.15,1.84,0.57,2.78c0.45,0.58,0.14,1.75,0.17,2.66
			C522.23,188.12,522.05,188.41,521.86,188.7z"/>
		<path class="st6" d="M554.5,169.06c0.24-0.08,0.47-0.17,0.71-0.25c0.02,0.07,0.03,0.13,0.03,0.2
			C554.99,169.03,554.75,169.04,554.5,169.06z"/>
		<path class="st12" d="M452.77,183.07c0.1,0.36,0.21,0.72,0.31,1.07c-0.86-0.12-1.3,0.21-1.19,1.11c0.19,1.49-0.43,3.01,0.19,4.5
			c0.12,0.29-0.12,0.73-0.19,1.1c-0.71-0.05-1.01,0.3-0.97,1c0.02,0.39,0,0.79,0,1.18c-0.15,0-0.3,0-0.45,0
			c-0.7,0.06-1.11-0.18-0.99-0.97c0.83,0.04,0.97-0.45,0.97-1.15c-0.02-2.35,0.05-4.7-0.05-7.04c-0.02-0.56-0.46-1.29-0.93-1.6
			c-1.44-0.97-3.01-1.73-4.47-2.67c-0.37-0.24-0.54-0.8-0.8-1.22c0.97-1.16,1.93-2.31,2.9-3.47c0.25-0.26,0.49-0.53,0.74-0.79
			c0.57-0.41,1.05-0.46,1.69,0.02c0.78,0.57,1.72,0.92,2.59,1.36c0.37,0.19,0.73,0.38,1.1,0.57c0.2,0.12,0.4,0.24,0.59,0.36
			c0.2,0.12,0.41,0.23,0.61,0.35c0.59,1.11,0.49,2.1-0.46,3c-0.66,0.63-1.31,1.27-1.84,2C451.55,182.58,451.83,183.06,452.77,183.07
			z"/>
		<path class="st3" d="M545.16,181.01c0.08-0.08,0.15-0.15,0.23-0.23c0.16-0.24,0.33-0.47,0.49-0.71c0.16,0,0.32,0,0.47,0
			c0.01,0.26,0.02,0.52,0.03,0.78c-0.37,0.17-0.74,0.33-1.11,0.5C545.23,181.24,545.19,181.13,545.16,181.01z"/>
		<path class="st4" d="M491.69,206.89c0.25,0.16,0.49,0.32,0.74,0.49c-0.38,0.06-0.77,0.11-1.15,0.17
			c-0.02-0.22-0.05-0.43-0.08-0.65C491.36,206.9,491.53,206.89,491.69,206.89z"/>
		<path class="st17" d="M424.32,179.86c-0.06-0.62,0.15-0.84,0.74-0.5C424.81,179.53,424.57,179.69,424.32,179.86z"/>
		<path class="st17" d="M423.12,180.57c0.06-0.21,0.12-0.42,0.18-0.64c0.17,0.12,0.35,0.24,0.52,0.36
			C423.59,180.39,423.35,180.48,423.12,180.57z"/>
		<path class="st28" d="M438.16,170.21c0.58-2.29,0.57-2.3-1.44-3.48c-1.16-0.68-2.28-1.44-3.49-2c-0.4-0.19-1.22-0.06-1.53,0.24
			c-1.33,1.3-2.54,2.71-3.79,4.09c-0.18,0-0.37,0-0.55,0c-0.29-1.32,0.9-1.84,1.48-2.67c0.45-0.64,1.13-1.11,1.71-1.65
			c0.33-0.13,0.75-0.16,0.96-0.39c0.56-0.59,1.02-0.67,1.75-0.2c1.56,1,3.23,1.84,4.78,2.85c0.42,0.27,0.64,0.91,0.87,1.42
			c0.13,0.29,0.08,0.66,0.13,1.29c1.11-1.5,2.04-1.06,3.14-0.28c1.18,0.83,2.55,1.4,3.81,2.13c0.28,0.16,0.45,0.52,0.67,0.8
			c0,0-0.05,0.06-0.05,0.06c-1.39-0.79-2.82-1.54-4.18-2.39c-1.74-1.09-1.71-1.12-3.19,0.24c-0.14,0.13-0.33,0.19-0.5,0.28
			C438.55,170.42,438.36,170.31,438.16,170.21z"/>
		<path class="st27" d="M423.42,159.99c-0.57,0.75-1.12,1.5-1.71,2.23c-0.61,0.76-1.26,1.49-1.95,2.3c-0.65-0.67-0.59-1.21-0.04-1.8
			c0.71-0.75,1.39-1.52,2.08-2.29c0.9-1.01,0.82-1.83-0.32-2.54c-1.57-0.98-3.17-1.92-4.8-2.8c-0.26-0.14-0.75,0.05-1.08,0.2
			c-0.31,0.14-0.56,0.42-0.83,0.64c0.53-1.64,1.11-1.85,2.54-0.98c1.55,0.94,3.08,1.9,4.71,2.7c0.73,0.36,0.86,0.77,0.88,1.46
			C422.91,159.41,423.24,159.7,423.42,159.99z"/>
		<path class="st27" d="M452.77,183.07c-0.94-0.02-1.22-0.49-0.64-1.28c0.53-0.73,1.19-1.38,1.84-2c0.94-0.9,1.05-1.89,0.46-3
			c1.39-0.02,0.45,1.29,1.01,1.76c0.62,0.38,1.05-1.14,1.74-0.18c-0.25,0.16-0.5,0.32-0.75,0.48
			C455.21,180.25,453.99,181.66,452.77,183.07z"/>
		<path class="st27" d="M399.35,145.55c-0.88,1.08-1.75,2.18-2.66,3.24c-0.42,0.49-0.93,0.89-1.39,1.34c-0.1-0.26-0.2-0.52-0.3-0.78
			c0.71-0.88,1.39-1.8,2.15-2.63c1.05-1.16,1.17-1.69,0.5-3.02c1.06,0.37,1.09,0.43,0.91,2.06
			C398.84,145.67,399.1,145.61,399.35,145.55z"/>
		<path class="st0" d="M391.27,140.79c-1.31,1.56-2.62,3.12-3.93,4.69c-0.18-0.09-0.37-0.17-0.55-0.26c0.1-0.38,0.09-0.84,0.31-1.14
			c0.47-0.64,1.03-1.21,1.59-1.77c0.6-0.61,1.26-1.17,1.02-2.17c0,0,0.21-0.06,0.32-0.09c0.12,0.31,0.24,0.62,0.38,0.98
			C390.65,140.97,390.96,140.88,391.27,140.79z"/>
		<path class="st0" d="M403.01,154.89c-0.01-0.31-0.03-0.63-0.04-0.94c1.05-1.11,2.1-2.22,3.15-3.32c0.26,0.09,0.51,0.18,0.77,0.26
			c-1.07,1.34-2.14,2.67-3.21,4.01c-0.15,0-0.31,0-0.46,0C403.15,154.89,403.08,154.88,403.01,154.89z"/>
		<path class="st27" d="M447.1,174.92c-0.97,1.16-1.93,2.31-2.9,3.47c-0.21-0.01-0.43-0.01-0.64-0.02
			c-0.02-0.31-0.04-0.62-0.05-0.93c0.14-0.16,0.29-0.33,0.43-0.49c0.88-0.88,1.77-1.75,2.65-2.63c0.09,0,0.17,0,0.26,0.01
			C446.93,174.52,447.02,174.72,447.1,174.92z"/>
		<path class="st26" d="M389.99,139.37c-2.08-1.11-4.16-2.21-6.24-3.32c-0.52,0.38-1.05,0.78-1.58,1.17
			c0.62-1.71,1.42-1.99,2.88-1.08c1.5,0.94,3.05,1.81,4.56,2.73C389.78,138.96,389.86,139.19,389.99,139.37z"/>
		<path class="st0" d="M414.26,156.42c-0.87,0.96-1.74,1.91-2.6,2.87c-0.12-0.2-0.23-0.4-0.35-0.6c0.87-0.98,1.73-1.96,2.6-2.94
			c0.1,0.03,0.19,0.05,0.29,0.08C414.22,156.02,414.24,156.22,414.26,156.42z"/>
		<path class="st28" d="M430.6,164.27c0.06-1.34-1.04-1.71-1.91-2.27c-0.77-0.5-1.53-1.01-2.29-1.52c1.22,0.61,2.47,1.15,3.63,1.86
			c0.45,0.28,0.68,0.93,0.96,1.44C431.02,163.86,430.74,164.1,430.6,164.27z"/>
		<path class="st27" d="M452.13,175.51c-0.87-0.44-1.81-0.79-2.59-1.36c-0.65-0.47-1.12-0.42-1.69-0.02
			c0.32-0.26,0.79-0.8,0.92-0.72C449.92,174.05,451.01,174.79,452.13,175.51z"/>
		<path class="st27" d="M462.22,181.41c-1.21-0.61-2.41-1.23-3.62-1.84c-0.01-0.07-0.01-0.14-0.02-0.21l0.07-0.06
			C459.84,180,461.03,180.71,462.22,181.41z"/>
		<path class="st27" d="M402.74,146.74c-1.13-0.4-2.25-0.8-3.38-1.21c0.23-0.22,0.59-0.67,0.66-0.63
			C400.95,145.48,401.84,146.12,402.74,146.74z"/>
		<path class="st26" d="M414.04,153.42c-1.07-0.67-2.14-1.34-3.21-2.01C411.9,152.08,412.97,152.75,414.04,153.42z"/>
		<path class="st27" d="M406.29,148.97c-1.06-0.71-2.12-1.42-3.17-2.14C404.33,147.32,405.66,147.63,406.29,148.97z"/>
		<path class="st26" d="M414.2,155.82c-0.1-0.02-0.19-0.05-0.29-0.08c0.05-0.77,0.09-1.54,0.14-2.31
			C414.92,154.18,414.38,155.01,414.2,155.82z"/>
		<path class="st28" d="M446.85,174.32c-0.09,0-0.17,0-0.26-0.01c0.01-0.64,0.01-1.28,0.02-1.91c0,0,0.05-0.06,0.05-0.06
			C446.73,173,446.79,173.66,446.85,174.32z"/>
		<path class="st12" d="M456.42,178.84c0.25-0.16,0.5-0.32,0.75-0.48c0.08,0.08,0.17,0.17,0.25,0.25c0.16,0.16,0.31,0.33,0.47,0.49
			C457.4,179.02,456.91,178.93,456.42,178.84z"/>
		<path class="st27" d="M457.89,179.1c-0.16-0.16-0.31-0.33-0.47-0.49c0.41,0.23,0.82,0.46,1.23,0.68c0,0-0.07,0.06-0.07,0.06
			c-0.15-0.01-0.3-0.02-0.46-0.04C458.05,179.25,457.97,179.18,457.89,179.1z"/>
		<path class="st27" d="M425.01,159.74c-0.32-0.1-0.63-0.2-0.95-0.31c0.16-0.14,0.31-0.27,0.47-0.41
			C424.69,159.27,424.85,159.5,425.01,159.74z"/>
		<path class="st27" d="M424.05,159.44c-0.16,0.15-0.31,0.31-0.47,0.46C423.74,159.75,423.89,159.6,424.05,159.44z"/>
		<path class="st0" d="M408.23,149.9c-0.15,0.01-0.29,0.01-0.44,0.02c0.09-0.14,0.18-0.28,0.26-0.42
			C408.12,149.64,408.18,149.77,408.23,149.9z"/>
		<path class="st27" d="M453.82,176.44c-0.2-0.12-0.39-0.24-0.59-0.36C453.42,176.2,453.62,176.32,453.82,176.44z"/>
		<path class="st0" d="M550.65,131.18c0.3-0.72,0.76-0.92,1.44-0.48C551.62,130.86,551.13,131.02,550.65,131.18z"/>
		<path class="st9" d="M564.06,153.96c-0.15-0.18-0.29-0.35-0.44-0.53c0.16,0.09,0.31,0.18,0.47,0.27
			C564.08,153.79,564.07,153.87,564.06,153.96z"/>
		<path class="st3" d="M563.07,152.54c-0.14-0.16-0.29-0.33-0.43-0.49C562.78,152.22,562.92,152.38,563.07,152.54z"/>
		<path class="st12" d="M516.84,192.78c0.49,0.32,0.97,0.63,1.46,0.94C517.81,193.41,517.32,193.09,516.84,192.78z"/>
		<path class="st12" d="M518.74,193.75c0.25,0.23,0.51,0.45,0.76,0.68C519.24,194.2,518.99,193.98,518.74,193.75z"/>
		<path class="st3" d="M513.98,190.13c-0.07-0.16-0.14-0.33-0.22-0.49C513.83,189.8,513.91,189.97,513.98,190.13z"/>
		<path class="st3" d="M557.12,168.82c1.12,0.71,2.25,1.42,3.37,2.14C559.37,170.25,558.24,169.54,557.12,168.82z"/>
		<path class="st1" d="M464.64,201.13c-0.98-0.63-1.95-1.26-2.93-1.89C462.69,199.87,463.67,200.5,464.64,201.13z"/>
		<path class="st1" d="M466.06,202.85c-0.24,0.17-0.49,0.34-0.73,0.51c-0.06-0.29-0.11-0.59-0.2-1.05
			C465.53,202.55,465.8,202.7,466.06,202.85z"/>
		<path class="st26" d="M395.01,149.34c0.1,0.26,0.2,0.52,0.3,0.78c0.18,0.26,0.31,0.61,0.55,0.76c1.75,1.07,3.54,2.07,5.27,3.16
			c0.31,0.19,0.6,0.68,0.61,1.04c0.05,2.63,0.05,5.26,0,7.89c-0.01,0.29-0.45,0.56-0.69,0.85c-0.32-0.17-0.63-0.35-0.95-0.53
			c-1.52-0.88-3.04-1.75-4.56-2.63c-0.1-0.16-0.2-0.32-0.3-0.47c-0.18-2.97-0.39-5.93-0.52-8.9
			C394.69,150.64,394.9,149.99,395.01,149.34z"/>
		<path class="st4" d="M391.94,158.55c-0.32-0.17-0.64-0.35-0.95-0.52c-0.16-0.07-0.32-0.15-0.49-0.22
			c-0.96-0.57-1.91-1.14-2.87-1.71c-0.16-0.35-0.45-0.7-0.46-1.06c-0.12-2.62-0.17-5.24-0.26-7.87c-0.04-1.01,0.5-1.1,1.21-0.71
			c1.49,0.81,2.98,1.64,4.41,2.56c0.4,0.26,0.81,0.85,0.84,1.31c0.15,2.58,0.19,5.16,0.28,7.74c0.02,0.68-0.07,1.22-0.95,1.13
			c0-0.07-0.02-0.14-0.04-0.2C392.41,158.84,392.18,158.69,391.94,158.55z"/>
		<path class="st6" d="M386.67,155.15c-0.24,0-0.48,0-0.72,0c0-3.22,0-6.43,0-9.65c0.12-0.01,0.23-0.03,0.35-0.04
			c0.04,0.29,0.12,0.58,0.12,0.88c0.01,2.27-0.01,4.54,0.02,6.81C386.45,153.82,386.59,154.48,386.67,155.15z"/>
		<path class="st17" d="M391.94,158.55c0.24,0.15,0.47,0.29,0.71,0.44C392.41,158.84,392.18,158.69,391.94,158.55z"/>
		<path class="st17" d="M390.5,157.8c0.16,0.07,0.32,0.15,0.49,0.22C390.83,157.95,390.66,157.87,390.5,157.8z"/>
		<path class="st7" d="M505.58,192.05c0,0.32,0,0.64,0,0.96C505.58,192.69,505.58,192.37,505.58,192.05z"/>
		<path class="st17" d="M395.54,160.66c1.52,0.88,3.04,1.75,4.56,2.63c-0.51-0.16-1.08-0.21-1.52-0.49
			C397.54,162.14,396.55,161.38,395.54,160.66z"/>
		<path class="st18" d="M389.78,163.05c0.04-0.03,0.07-0.07,0.11-0.1C389.86,162.99,389.83,163.02,389.78,163.05
			C389.79,163.06,389.78,163.05,389.78,163.05z"/>
		<path class="st12" d="M545.87,180.08c-0.16,0.24-0.33,0.47-0.49,0.71C545.54,180.55,545.71,180.31,545.87,180.08z"/>
		<path class="st4" d="M404.23,165.9c-0.33-0.31-0.67-0.62-1-0.93c-0.02-0.24-0.04-0.48-0.06-0.71c0.02-1.04,0.04-2.08,0.06-3.13
			c0.71,0.06,0.71-0.41,0.71-0.91c-0.01-1.45,0-2.9,0-4.35c1.8,0.98,3.61,1.94,5.38,2.96c0.23,0.13,0.36,0.61,0.37,0.93
			c0.03,2.59,0.01,5.18,0.02,7.77c0,0.69-0.21,1.09-0.97,0.99c-0.16-0.15-0.33-0.3-0.49-0.44c-1.2-0.72-2.4-1.43-3.6-2.15
			C404.51,165.92,404.37,165.91,404.23,165.9z"/>
		<path class="st17" d="M404.65,165.94c1.2,0.72,2.4,1.43,3.6,2.15C406.84,167.72,405.57,167.13,404.65,165.94z"/>
		<path class="st26" d="M427.36,169.05c0.18,0,0.37,0,0.55,0c0.32,0.4,0.58,0.91,0.99,1.18c0.92,0.61,1.88,1.17,2.88,1.61
			c1.88,0.81,2.64,2.08,2.4,4.17c-0.21,1.81-0.01,3.66-0.06,5.49c-0.01,0.42-0.3,0.83-0.46,1.25c-0.24-0.09-0.48-0.19-0.72-0.28
			c-0.24-0.14-0.48-0.28-0.72-0.43c-0.32-0.18-0.64-0.35-0.95-0.53c-0.16-0.08-0.32-0.16-0.48-0.25c-0.62-0.33-1.24-0.66-1.87-0.99
			c-0.26-0.22-0.52-0.44-0.78-0.66c-0.17-0.17-0.34-0.33-0.51-0.5c-0.15-2.93-0.3-5.86-0.43-8.79
			C427.19,169.9,427.31,169.48,427.36,169.05z"/>
		<path class="st17" d="M428.14,179.61c0.26,0.22,0.52,0.44,0.78,0.66C428.66,180.06,428.4,179.84,428.14,179.61z"/>
		<path class="st17" d="M432.22,182.04c0.24,0.14,0.48,0.28,0.72,0.43C432.7,182.32,432.46,182.18,432.22,182.04z"/>
		<path class="st17" d="M430.79,181.27c0.16,0.08,0.32,0.16,0.48,0.25C431.1,181.43,430.94,181.35,430.79,181.27z"/>
		<path class="st26" d="M411.31,158.69c0.12,0.2,0.23,0.4,0.35,0.6c0.21,0.41,0.32,0.99,0.65,1.2c1.53,0.97,3.13,1.86,4.71,2.75
			c0.72,0.41,1.09,0.94,1.07,1.82c-0.05,2.71-0.02,5.41-0.02,8.22c-0.56-0.14-1-0.25-1.44-0.36c-0.32-0.18-0.63-0.35-0.95-0.53
			c-0.24-0.09-0.48-0.17-0.72-0.26c-0.64-0.39-1.28-0.78-1.92-1.18c-0.24-0.16-0.47-0.33-0.71-0.49c-0.26-0.31-0.52-0.63-0.78-0.94
			c-0.21-3.32-0.43-6.65-0.61-9.97C410.91,159.28,411.18,158.98,411.31,158.69z"/>
		<path class="st23" d="M403.93,155.87c0,1.45-0.01,2.9,0,4.35c0,0.51,0,0.98-0.71,0.91c-0.07-0.01-0.15-0.01-0.22-0.01
			c0.06-1.75,0.11-3.5,0.17-5.25c0.19-0.01,0.39-0.03,0.58-0.04C403.82,155.83,403.87,155.85,403.93,155.87z"/>
		<path class="st4" d="M403.75,155.82c-0.19,0.01-0.39,0.03-0.58,0.04c-0.07-0.16-0.14-0.32-0.21-0.48
			c0.08-0.16,0.17-0.32,0.25-0.48c0.15,0,0.31,0,0.46,0C403.71,155.21,403.73,155.52,403.75,155.82z"/>
		<path class="st17" d="M412.33,170.48c0.24,0.16,0.47,0.33,0.71,0.49C412.8,170.8,412.56,170.64,412.33,170.48z"/>
		<path class="st17" d="M414.96,172.14c0.24,0.09,0.48,0.17,0.72,0.26C415.44,172.32,415.2,172.23,414.96,172.14z"/>
		<path class="st4" d="M435.8,184.15c-0.03-0.24-0.06-0.47-0.08-0.71c-0.1-1.32-0.25-2.65-0.28-3.97c-0.05-2.06-0.02-4.12,0-6.18
			c0-0.07,0.18-0.14,0.27-0.21c0.04,0.18,0.08,0.37,0.12,0.55c0.36,0.41,0.66,0.93,1.1,1.22c1.77,1.14,3.59,2.2,5.4,3.3
			c0,3.04,0,6.08-0.01,9.12c-0.25,0.08-0.49,0.16-0.74,0.24c-0.96-0.56-1.93-1.12-2.89-1.68c-0.95-0.56-1.9-1.13-2.86-1.69
			L435.8,184.15z"/>
		<path class="st4" d="M443.56,178.36c0.21,0.01,0.43,0.01,0.64,0.02c0.26,0.42,0.43,0.98,0.8,1.22c1.46,0.93,3.03,1.7,4.47,2.67
			c0.47,0.32,0.9,1.04,0.93,1.6c0.1,2.34,0.03,4.69,0.05,7.04c0.01,0.7-0.14,1.19-0.97,1.15c-0.14-0.02-0.28-0.03-0.42-0.05
			c-1.38-0.87-2.75-1.73-4.13-2.6c-0.23-0.09-0.46-0.17-0.69-0.26c-0.09-1.1-0.14-2.21-0.29-3.3c-0.05-0.42-0.3-0.82-0.47-1.23
			C443.51,182.54,443.54,180.45,443.56,178.36z"/>
		<path class="st17" d="M442.32,178.14c-1.8-1.09-3.62-2.16-5.4-3.3c-0.44-0.29-0.74-0.8-1.1-1.22c0.97-1.03,1.95-2.06,2.92-3.1
			c0.17-0.09,0.36-0.16,0.5-0.28c1.48-1.36,1.45-1.33,3.19-0.24c1.36,0.85,2.78,1.6,4.18,2.39c-0.01,0.64-0.01,1.28-0.02,1.91
			c-0.88,0.88-1.77,1.75-2.65,2.63c-0.23,0.16-0.46,0.33-0.69,0.49C442.94,177.67,442.63,177.91,442.32,178.14z"/>
		<path class="st12" d="M443.49,184.62c0.16,0.41,0.41,0.81,0.47,1.23c0.14,1.1,0.2,2.2,0.29,3.3c-0.2-0.15-0.57-0.29-0.59-0.45
			C443.56,187.35,443.54,185.98,443.49,184.62z"/>
		<path class="st12" d="M444.93,189.42c1.38,0.87,2.75,1.73,4.13,2.6C447.68,191.15,446.31,190.28,444.93,189.42z"/>
		<path class="st17" d="M435.83,184.13c0.95,0.56,1.9,1.13,2.86,1.69C437.49,185.67,436.5,185.17,435.83,184.13z"/>
		<path class="st17" d="M441.57,187.5c0.25-0.08,0.49-0.16,0.74-0.24c0.16,0.26,0.33,0.52,0.49,0.78c-0.27,0.13-0.54,0.26-0.8,0.39
			C441.86,188.12,441.72,187.81,441.57,187.5z"/>
		<path class="st12" d="M443.25,177.43c0.23-0.16,0.46-0.33,0.69-0.49c-0.14,0.16-0.29,0.33-0.43,0.49
			C443.42,177.43,443.34,177.43,443.25,177.43z"/>
		<path class="st17" d="M440.65,189.45c-0.15-0.08-0.3-0.16-0.45-0.24c0.05-0.06,0.1-0.12,0.14-0.17
			C440.45,189.18,440.55,189.31,440.65,189.45C440.66,189.45,440.65,189.45,440.65,189.45z"/>
		<path class="st4" d="M451.89,190.85c0.07-0.37,0.31-0.81,0.19-1.1c-0.61-1.49,0.01-3.01-0.19-4.5c-0.12-0.89,0.33-1.23,1.19-1.11
			c0.08,0.08,0.16,0.16,0.24,0.24c0.32,0.16,0.64,0.31,0.96,0.47c0.22,0.1,0.43,0.19,0.65,0.28c0.18,0.15,0.36,0.29,0.55,0.44
			c0.63,0.33,1.25,0.65,1.88,0.98c1.08,0.87,1.06,2.06,1.03,3.3c-0.02,0.81,0.14,1.62,0.22,2.43c0,1.26,0.03,2.52-0.03,3.77
			c-0.02,0.36-0.3,0.7-0.46,1.05c-0.8-0.47-1.61-0.94-2.41-1.41c-0.32-0.17-0.64-0.34-0.95-0.51c-0.72-0.41-1.43-0.82-2.15-1.23
			l-0.1-0.02c0,0-0.1,0-0.1,0c-0.16-0.17-0.32-0.34-0.49-0.51c0-0.38-0.01-0.75-0.01-1.13c0-0.16,0-0.33,0-0.49
			C451.9,191.49,451.9,191.17,451.89,190.85z"/>
		<path class="st12" d="M455.71,195.69c0.8,0.47,1.61,0.94,2.41,1.41c0,0.07,0,0.15-0.01,0.22
			C457.31,196.78,456.51,196.24,455.71,195.69z"/>
		<path class="st12" d="M452.61,193.95c0.72,0.41,1.43,0.82,2.15,1.23C454.01,195.15,452.89,194.51,452.61,193.95z"/>
		<path class="st12" d="M451.93,193.43c0.16,0.17,0.32,0.34,0.49,0.51C452.25,193.77,452.09,193.6,451.93,193.43z"/>
		<path class="st12" d="M451.91,191.8c0,0.16,0,0.33,0,0.49C451.91,192.13,451.91,191.97,451.91,191.8z"/>
		<path class="st4" d="M420.03,175.02c-0.22-0.25-0.45-0.5-0.67-0.75c-0.01-0.22-0.03-0.44-0.04-0.66c0.06-0.86,0.17-1.72,0.18-2.58
			c0.03-1.9,0.01-3.81,0.01-6.13c1.28,0.7,2.29,1.25,3.29,1.8c0.1,0.06,0.17,0.2,0.27,0.23c2.82,0.76,3.19,2.8,2.95,5.32
			c-0.17,1.78-0.04,3.58-0.06,5.38c0,0.07-0.08,0.13-0.2,0.31c-0.71-0.31-1.44-0.64-2.17-0.96c-0.15-0.01-0.29-0.02-0.44-0.03
			c-0.97-0.63-1.94-1.26-2.92-1.89C420.17,175.02,420.1,175.02,420.03,175.02z"/>
		<path class="st17" d="M420.24,175.04c0.97,0.63,1.94,1.26,2.92,1.89C422.18,176.3,421.21,175.67,420.24,175.04z"/>
		<path class="st12" d="M458.61,192.28c-0.08-0.81-0.24-1.62-0.22-2.43c0.03-1.23,0.05-2.42-1.03-3.3c1.12,0.2,1.61,0.83,1.49,1.99
			C458.72,189.79,458.68,191.04,458.61,192.28z"/>
		<path class="st12" d="M454.28,184.85c-0.32-0.16-0.64-0.31-0.96-0.47C453.64,184.54,453.96,184.69,454.28,184.85z"/>
		<path class="st12" d="M455.48,185.58c-0.18-0.15-0.36-0.29-0.55-0.44C455.12,185.28,455.3,185.43,455.48,185.58z"/>
		<path class="st12" d="M458.12,179.33c0.15,0.01,0.3,0.02,0.46,0.04c0.01,0.07,0.02,0.14,0.02,0.21
			C458.44,179.49,458.28,179.41,458.12,179.33z"/>
		<path class="st17" d="M403,161.12c0.07,0,0.15,0,0.22,0.01c-0.02,1.04-0.04,2.08-0.06,3.13
			C402.37,163.25,402.67,162.19,403,161.12z"/>
		<path class="st17" d="M403.22,154.9c-0.08,0.16-0.17,0.32-0.25,0.48c0.01-0.17,0.03-0.33,0.04-0.5
			C403.08,154.88,403.15,154.89,403.22,154.9z"/>
		<path class="st24" d="M438.74,170.53c-0.97,1.03-1.95,2.06-2.92,3.1c-0.04-0.18-0.08-0.37-0.12-0.55
			c0.82-0.96,1.64-1.92,2.46-2.87C438.36,170.31,438.55,170.42,438.74,170.53z"/>
		<path class="st22" d="M435.34,183.19c-0.16,0.08-0.32,0.15-0.48,0.23C435.02,183.34,435.18,183.26,435.34,183.19z"/>
	</g>
</g>
<g>
	<path d="M54.57,177.55c-2,0-3.65-0.58-4.96-1.76c-1.31-1.17-1.96-3.41-1.96-6.71V116.4H24.2v10.54h10.74v41.22
		c0,6.68,1.34,11.76,4.03,15.24c2.69,3.48,6.95,5.22,12.81,5.22c2.13,0,4.05-0.14,5.73-0.41c1.69-0.28,3.11-0.6,4.29-0.98
		c1.03-0.33,1.89-0.65,2.57-0.96l0.01-11.08c-0.55,0.21-1.69,0.66-3.41,1.34C59.26,177.21,57.12,177.55,54.57,177.55z"/>
	<path d="M163.5,144.44c-2.03-2.24-4.44-3.96-7.23-5.16s-5.87-1.81-9.25-1.81c-3.31,0-6.37,0.6-9.19,1.81
		c-2.83,1.2-5.25,2.93-7.28,5.16c-2.03,2.24-3.61,4.93-4.75,8.06c-1.14,3.13-1.7,6.6-1.7,10.38c0,3.86,0.55,7.35,1.65,10.48
		c1.1,3.13,2.67,5.84,4.7,8.11c2.03,2.27,4.44,4.03,7.23,5.27s5.9,1.86,9.35,1.86c3.44,0,6.56-0.62,9.35-1.86s5.18-3,7.18-5.27
		c2-2.27,3.55-4.98,4.65-8.11c1.1-3.13,1.65-6.63,1.65-10.48c0-3.79-0.55-7.25-1.65-10.38C167.1,149.37,165.53,146.68,163.5,144.44z
		 M154.31,173.52c-1.69,2.69-4.18,4.03-7.49,4.03c-3.44,0-5.94-1.34-7.49-4.03c-1.55-2.69-2.32-6.2-2.32-10.54s0.84-7.83,2.53-10.48
		s4.18-3.98,7.49-3.98c3.44,0,5.94,1.33,7.49,3.98c1.55,2.65,2.32,6.15,2.32,10.48S155.99,170.83,154.31,173.52z"/>
	<path d="M212.88,163.24c-1.62-1.14-3.43-2.08-5.42-2.84c-2-0.76-3.93-1.45-5.78-2.07c-1.31-0.41-2.53-0.84-3.67-1.29
		c-1.14-0.45-2.14-0.91-3-1.39c-0.86-0.48-1.55-1.02-2.07-1.6c-0.52-0.58-0.77-1.25-0.77-2.01c0-0.89,0.57-1.74,1.7-2.53
		c1.14-0.79,3.32-1.19,6.56-1.19c3.1,0,5.89,0.4,8.37,1.19c2.48,0.79,4.3,1.36,5.47,1.7l1.96-10.74c-2-0.89-4.36-1.58-7.08-2.07
		c-2.72-0.48-5.66-0.72-8.83-0.72c-3.65,0-6.78,0.4-9.4,1.19c-2.62,0.79-4.77,1.89-6.46,3.31c-1.69,1.41-2.93,3.03-3.72,4.85
		c-0.79,1.83-1.19,3.77-1.19,5.84c0,2.55,0.52,4.67,1.55,6.35c1.03,1.69,2.34,3.08,3.93,4.18c1.58,1.1,3.34,2.01,5.27,2.74
		c1.93,0.72,3.82,1.36,5.68,1.91c1.31,0.41,2.56,0.83,3.77,1.24c1.2,0.41,2.27,0.84,3.2,1.29c0.93,0.45,1.65,0.98,2.17,1.6
		c0.52,0.62,0.77,1.38,0.77,2.27c0,1.38-0.83,2.29-2.48,2.74c-1.65,0.45-4.03,0.67-7.13,0.67c-2.82,0-5.6-0.41-8.32-1.24
		c-2.72-0.83-5.29-1.72-7.7-2.69l-1.96,10.64c1.79,0.76,4.17,1.62,7.13,2.58c2.96,0.96,6.54,1.45,10.74,1.45
		c4.13,0,7.61-0.38,10.43-1.14c2.82-0.76,5.11-1.79,6.87-3.1c1.76-1.31,3.01-2.86,3.77-4.65c0.76-1.79,1.14-3.68,1.14-5.68
		c0-2.55-0.52-4.7-1.55-6.46C215.82,165.83,214.5,164.38,212.88,163.24z"/>
	<path d="M89.51,174.3c-1.07-2.17-1.6-5.49-1.6-9.97v-25.41h-12.7v27.06c0,3.3,0.27,6.34,0.83,9.09c0.55,2.75,1.57,5.15,3.05,7.18
		c1.48,2.03,3.49,3.6,6.04,4.7c2.55,1.1,5.82,1.65,9.81,1.65c2.3,0,4.51-0.11,6.61-0.32v-10.12c0,0-3.86,0-5.79,0
		C92.66,178.16,90.58,176.47,89.51,174.3z"/>
	<polygon points="101.55,178.16 114.35,178.16 114.36,138.92 101.55,138.92 	"/>
	<rect x="229.19" y="188.6" class="st29" width="40.22" height="10.5"/>
</g>
<g>
	<g>
		<path d="M322.93,91.59c0.62-5.89,2.55-8.24,6.84-8.1c9.77,0.31,19.54,0.64,29.3,0.98c1.45,0.05,2.89,0.16,4.38-0.2
			c-40.33-24.78-82.38-35.69-128.11-15.47c-9.97,4.41-18.69,10.62-24.3,20.42c-0.72,1.26-2.19,2.09-3.31,3.12
			c-0.53-0.31-1.06-0.62-1.59-0.93c0.93-2.18,1.55-4.56,2.84-6.5c8.25-12.5,20.11-20.48,33.8-25.77
			c33.92-13.1,67.31-9.98,99.99,4.36c10.1,4.43,19.63,10.16,30.5,15.86c-3.42-5.33-6.32-10.13-9.51-14.72
			c-1.98-2.85-4.2-5.59-6.67-8.01c-2.54-2.49-2.05-4.8-0.04-6.9c2.76-2.88,4.39-0.03,5.92,1.72c9.15,10.44,16.39,22.06,20.72,35.27
			c0.76,2.31,0.36,5.57-0.81,7.67c-0.55,0.98-4.21,0.43-6.44,0.25c-15.83-1.31-31.65-2.76-47.48-4.02
			C327.21,90.47,325.39,91.17,322.93,91.59z"/>
	</g>
</g>
</svg>
