<svg version="1.1" xmlns="http://www.w3.org/2000/svg" viewBox="0 0 1055.999573052302 379.2890625" width="2111.999146104604" height="758.578125" filter="invert(93%) hue-rotate(180deg)">
  <!-- svg-source:excalidraw -->
  
  <defs>
    <style>
      @font-face {
        font-family: "Virgil";
        src: url("https://excalidraw.com/Virgil.woff2");
      }
      @font-face {
        font-family: "Cascadia";
        src: url("https://excalidraw.com/Cascadia.woff2");
      }
    </style>
  </defs>
  <g stroke-linecap="round" transform="translate(10 10) rotate(0 372.533203125 179.08984375)"><path d="M-0.53 -0.54 C248.63 -2.22, 497.34 -2.84, 745.3 -0.56 M-0.38 -0.29 C149.24 1.4, 298.16 1.3, 745.16 -0.33 M744.35 -0.74 C741.84 90.31, 744.21 181.87, 744.7 357.52 M744.92 -0.42 C745.9 125.77, 746.08 252.15, 745.23 358.22 M745.87 358.5 C476 358.34, 207.99 358.11, 0.28 357.49 M745.26 358.22 C487.58 356.41, 230.87 356.57, -0.35 358.09 M-0.29 358.97 C0.42 257.32, 0.29 158.89, -0.97 -0.67 M-0.12 358.24 C-0.19 231.47, -0.38 103.57, 0.51 -0.22" stroke="#000000" stroke-width="1" fill="none"></path></g><g transform="translate(369.44140625 16.6796875) rotate(0 24 12.5)"><text x="0" y="18" font-family="Virgil, Segoe UI Emoji" font-size="20px" fill="#000000" text-anchor="start" style="white-space: pre;" direction="ltr">Node</text></g><g stroke-linecap="round" transform="translate(52.399133575692645 278.165951694617) rotate(0 340.0771945956522 37.44648542602374)"><path d="M-0.63 -0.05 C177.8 1.85, 356.84 2.22, 680.22 0.29 M-0.33 -0.16 C257.02 1.03, 514.19 1.52, 680.24 0.18 M678.67 -0.57 C680.97 18.43, 679.19 42.76, 681.68 74.16 M679.18 -0.12 C679.27 24.79, 679.42 49.17, 680.98 74.77 M680.39 74.7 C447.43 73.84, 216.45 74.15, 0.44 74.17 M679.91 74.62 C459.19 75.15, 237.98 75.54, 0.34 74.64 M-1.94 75.73 C-1.96 57.84, -2.14 42.02, 0.28 0.6 M0.08 75.69 C0.5 54.16, 0.56 34.97, -0.27 -0.76" stroke="#d9480f" stroke-width="1" fill="none"></path></g><g transform="translate(366.0103779084377 292.46855063650764) rotate(0 35.042244867693455 11.231488739645329)"><text x="0" y="15.462977479290693" font-family="Virgil, Segoe UI Emoji" font-size="17.970381983432535px" fill="#d9480f" text-anchor="start" style="white-space: pre;" direction="ltr">Network</text></g><g stroke-linecap="round" transform="translate(581.830453721187 294.14976410722215) rotate(0 58.85300099574158 25.365615350442795)"><path d="M-1.75 -1.9 C40.53 1.53, 79.83 0.68, 119.2 0.16 M0.47 -0.1 C44.47 0.21, 89.93 1.43, 117.2 -0.59 M117.37 1.26 C119.16 10.56, 115.95 19.97, 117.17 50.14 M118.1 0.2 C118.54 17.72, 117.25 34.07, 117.37 50.07 M115.93 48.75 C94.17 48.56, 68.91 48.75, -0.79 49.56 M118.06 50.34 C81.12 51.24, 43.85 51.45, 0.32 51.16 M1.39 49.16 C0.9 38.69, -1.52 27.3, -1.4 -0.62 M0.31 50.18 C-1.06 37.57, 0.3 26.04, 0.35 0.65" stroke="#d9480f" stroke-width="1" fill="none"></path></g><g transform="translate(586.830453721187 308.01537945766495) rotate(0 53.85300099574158 11.5)"><text x="53.85300099574163" y="16" font-family="Virgil, Segoe UI Emoji" font-size="17.80264495726994px" fill="#d9480f" text-anchor="middle" style="white-space: pre;" direction="ltr">HAL</text></g><g stroke-linecap="round" transform="translate(31.96484375 193.515625) rotate(0 355.1589780688572 82.833984375)"><path d="M-0.12 0.32 C218.49 1.61, 438.84 1.46, 709.75 0.57 M0.25 -0.09 C229.98 2.18, 460.14 2.1, 710.11 0.18 M708.65 -1.08 C711.89 64.44, 711.53 128.02, 712.03 164.99 M710.69 -0.18 C710.64 39.54, 710.26 79.94, 710.83 165.63 M710.41 166.38 C480.72 167.23, 250.53 167.9, -0.58 165.39 M710.1 165.75 C427.01 163.57, 142.83 163.94, -0.33 165.33 M2 164.54 C-3.17 102.34, -1.21 40.6, 1.88 -1.11 M0.6 165.39 C0.88 124.42, 1.52 82.62, 0.23 0.45" stroke="#364fc7" stroke-width="1" fill="none"></path></g><g transform="translate(341.26600427890935 199.51745179524755) rotate(0 49.86781000402533 11.231488739645357)"><text x="0" y="15.462977479290693" font-family="Virgil, Segoe UI Emoji" font-size="17.97038198343257px" fill="#364fc7" text-anchor="start" style="white-space: pre;" direction="ltr">Luos engine</text></g><g stroke-linecap="round" transform="translate(581.7637667567953 208.3727786984124) rotate(0 58.85300099574158 25.365615350442795)"><path d="M1.8 -0.5 C42.46 -0.99, 89.35 1.89, 117.05 0.53 M-0.48 -0.06 C32.49 0.74, 63.22 1.13, 116.89 0.95 M117.08 0.27 C119.67 20.1, 116.34 39.11, 118.42 51.78 M118.64 -0.49 C116.48 11.2, 117.97 21.22, 118.63 50.72 M117.03 52.38 C89.53 51.22, 64.5 51.4, 0.91 50.85 M117.01 49.94 C71.3 50.59, 25.59 50.56, -0.38 50.06 M-1.24 49.19 C-0.69 34.57, -0.71 17.41, 1.17 0.79 M-0.92 50.65 C0.29 32.98, -0.41 15.3, 0.29 -0.67" stroke="#364fc7" stroke-width="1" fill="none"></path></g><g transform="translate(586.7637667567953 222.23839404885518) rotate(0 53.85300099574158 11.5)"><text x="53.85300099574163" y="16" font-family="Virgil, Segoe UI Emoji" font-size="17.80264495726994px" fill="#364fc7" text-anchor="middle" style="white-space: pre;" direction="ltr">HAL</text></g><g stroke-linecap="round" transform="translate(33.06640625 63.18359375) rotate(0 82.5 28)"><path d="M1.02 -1.11 C60.87 -1.08, 123.96 -2.4, 166.95 -0.22 M-0.01 -0.81 C54.12 1.08, 108.39 -0.14, 165.46 0.82 M163.92 -0.67 C163.92 21.57, 162.96 41.21, 166.54 57.51 M164.6 -0.79 C164.9 13.92, 164.09 28.61, 165.91 56.18 M165.14 54.21 C105.89 55.92, 45.33 55.23, 0.14 57.02 M165.3 56.2 C123.76 56.99, 83.9 56.96, -0.74 56.53 M1.94 57.84 C-0.84 36.63, 0.25 16.64, -0.63 0.6 M-0.61 55.34 C0.07 34.24, -0.89 11.14, -0.72 0.68" stroke="#2b8a3e" stroke-width="1" fill="none"></path></g><g transform="translate(38.06640625 79.68359375) rotate(0 77.5 11.5)"><text x="77.5" y="17" font-family="Virgil, Segoe UI Emoji" font-size="20px" fill="#2b8a3e" text-anchor="middle" style="white-space: pre;" direction="ltr">Service 1</text></g><g stroke-linecap="round" transform="translate(208.71484375 64.47265625) rotate(0 82.5 28)"><path d="M0.27 0.01 C47.5 -0.71, 94.33 -1.76, 165.68 1.37 M-0.45 0.44 C59.28 -2, 119.88 -2.04, 165.86 0.75 M165.19 -1.34 C165.13 16.38, 164.33 34.65, 163.72 55.62 M164.82 -0.65 C164.27 12.71, 164.57 28.34, 164.31 55.92 M165.16 54.5 C131.95 55.11, 96.1 53.93, 1.24 57.73 M165.28 55.63 C117.2 57.07, 69.02 57.52, -0.78 55.45 M-1.73 54.56 C-1.97 39.29, 0.26 24.95, 0.29 -0.9 M0.9 56.5 C-0.34 43.82, -1.13 29.46, -0.75 -0.97" stroke="#2b8a3e" stroke-width="1" fill="none"></path></g><g transform="translate(213.71484375 80.47265625) rotate(0 77.5 11.5)"><text x="77.5" y="17" font-family="Virgil, Segoe UI Emoji" font-size="20px" fill="#2b8a3e" text-anchor="middle" style="white-space: pre;" direction="ltr">Service 2</text></g><g stroke-linecap="round" transform="translate(388.6484375 62.59765625) rotate(0 82.5 28)"><path d="M-0.63 0.68 C55 0.95, 107.55 1.35, 164.09 0.88 M-0.71 0.86 C45.89 -1.31, 90.74 -2.29, 165.09 -0.67 M166.05 -1.28 C164.51 15.33, 164.67 30.99, 164.65 54.7 M165.96 -0.69 C164.37 12.16, 163.6 25.96, 165.08 55.25 M163.14 57.24 C101.41 56.69, 35.73 57.89, 0.56 55.25 M165.67 55.22 C109.73 56.2, 56.29 57.2, -0.87 55.28 M-0.15 56.29 C-0.54 42.17, 1.1 29.5, 1.8 1.01 M-0.52 55.25 C-1.43 40.77, -0.45 23.79, 0.55 1" stroke="#2b8a3e" stroke-width="1" fill="none"></path></g><g transform="translate(393.6484375 78.59765625) rotate(0 77.5 11.5)"><text x="77.5" y="17" font-family="Virgil, Segoe UI Emoji" font-size="20px" fill="#2b8a3e" text-anchor="middle" style="white-space: pre;" direction="ltr">Service 3</text></g><g stroke-linecap="round" transform="translate(576.140625 65.296875) rotate(0 82.5 28)"><path d="M1.62 -0.91 C61.71 -0.78, 120.33 1.34, 163.58 1.72 M-0.98 0.09 C61.28 -0.83, 123.68 -1.23, 165.52 -0.64 M163.12 -0.35 C163.39 14.41, 162.73 30.76, 166.92 54.61 M164.87 0.08 C163.76 17.28, 164.16 33.17, 164.07 56.62 M166.03 56.56 C100.47 57.77, 37.86 57.67, 1.34 54.45 M165.76 55.13 C123.81 56.46, 83.43 57.58, -0.07 56.15 M-1.56 57.8 C1.39 41.45, 2.03 25.58, -1.05 -1.5 M-0.08 56.55 C0.53 43.68, 0.4 33.06, -0.55 -0.31" stroke="#2b8a3e" stroke-width="1" fill="none"></path></g><g transform="translate(581.140625 81.296875) rotate(0 77.5 11.5)"><text x="77.5" y="17" font-family="Virgil, Segoe UI Emoji" font-size="20px" fill="#2b8a3e" text-anchor="middle" style="white-space: pre;" direction="ltr">Service N</text></g><g stroke-linecap="round"><g transform="translate(127.95703125 124.15625) rotate(0 3.093376905042703 32.20134894011542)"><path d="M1.13 0.99 C1.95 11.72, 5.26 53.62, 5.92 63.94 M0.26 0.46 C0.88 10.85, 4.57 51.42, 5.22 61.98" stroke="#2b8a3e" stroke-width="1" fill="none"></path></g><g transform="translate(127.95703125 124.15625) rotate(0 3.093376905042703 32.20134894011542)"><path d="M15.18 29.08 C9.42 17.36, 2.97 9.5, -0.18 2.66 M14.31 27.65 C10.36 21.03, 7.57 14.46, 0.87 1.66" stroke="#2b8a3e" stroke-width="1" fill="none"></path></g><g transform="translate(127.95703125 124.15625) rotate(0 3.093376905042703 32.20134894011542)"><path d="M-5.28 30.66 C-3.22 18.15, -1.83 9.68, -0.18 2.66 M-6.15 29.24 C-5.23 22.07, -3.13 15.13, 0.87 1.66" stroke="#2b8a3e" stroke-width="1" fill="none"></path></g><g transform="translate(127.95703125 124.15625) rotate(0 3.093376905042703 32.20134894011542)"><path d="M-5.54 35.44 C-2.02 44.38, 1.03 57.41, 3.91 63.66 M-6.41 34.02 C-4.39 40.22, -1.26 46.69, 4.96 62.65" stroke="#2b8a3e" stroke-width="1" fill="none"></path></g><g transform="translate(127.95703125 124.15625) rotate(0 3.093376905042703 32.20134894011542)"><path d="M14.92 33.86 C10.61 43.6, 5.84 57.23, 3.91 63.66 M14.05 32.43 C11.19 39.18, 9.45 46.02, 4.96 62.65" stroke="#2b8a3e" stroke-width="1" fill="none"></path></g></g><g stroke-linecap="round"><g transform="translate(295.90625 128.78515625) rotate(0 -6.671972601208836 31.1028454732988)"><path d="M-1.13 -1.14 C-3.37 9.01, -10.99 51.24, -12.94 61.94 M0.48 0.87 C-1.95 11.72, -11.5 53.3, -13.82 63.35" stroke="#2b8a3e" stroke-width="1" fill="none"></path></g><g transform="translate(295.90625 128.78515625) rotate(0 -6.671972601208836 31.1028454732988)"><path d="M1.81 28.66 C1.41 18.72, 1.63 6.71, -0.53 -3.14 M3.9 27.49 C2.71 20.1, 0.59 13.33, -1.52 -0.49" stroke="#2b8a3e" stroke-width="1" fill="none"></path></g><g transform="translate(295.90625 128.78515625) rotate(0 -6.671972601208836 31.1028454732988)"><path d="M-18.35 24.85 C-11.85 16.39, -4.75 5.68, -0.53 -3.14 M-16.27 23.68 C-12.22 17.43, -9.15 11.65, -1.52 -0.49" stroke="#2b8a3e" stroke-width="1" fill="none"></path></g><g transform="translate(295.90625 128.78515625) rotate(0 -6.671972601208836 31.1028454732988)"><path d="M-19.4 33.78 C-16.39 44.15, -13.26 52.38, -13.23 61.35 M-17.32 32.61 C-15.82 40.58, -15.75 49.1, -14.22 64" stroke="#2b8a3e" stroke-width="1" fill="none"></path></g><g transform="translate(295.90625 128.78515625) rotate(0 -6.671972601208836 31.1028454732988)"><path d="M0.59 38.38 C-3.25 47, -6.93 53.66, -13.23 61.35 M2.68 37.21 C-1.01 43.83, -6.09 51.17, -14.22 64" stroke="#2b8a3e" stroke-width="1" fill="none"></path></g></g><g stroke-linecap="round"><g transform="translate(470.05078125 128.26953125) rotate(0 -0.9471615161094746 28.4970388057921)"><path d="M1.01 -0.08 C0.68 9.61, -1.41 48.52, -2.07 58.16 M0.07 -1.17 C-0.38 8.18, -2.21 46.96, -2.9 56.43" stroke="#2b8a3e" stroke-width="1" fill="none"></path></g><g transform="translate(470.05078125 128.26953125) rotate(0 -0.9471615161094746 28.4970388057921)"><path d="M9.33 27.75 C8.21 18.35, 5.12 12.22, -0.82 -0.79 M10.31 27.33 C6.61 17.03, 2.76 7.11, 1.66 -0.45" stroke="#2b8a3e" stroke-width="1" fill="none"></path></g><g transform="translate(470.05078125 128.26953125) rotate(0 -0.9471615161094746 28.4970388057921)"><path d="M-10.31 26.76 C-5.69 17.49, -3.05 11.64, -0.82 -0.79 M-9.32 26.34 C-5.7 16.51, -2.23 6.96, 1.66 -0.45" stroke="#2b8a3e" stroke-width="1" fill="none"></path></g><g transform="translate(470.05078125 128.26953125) rotate(0 -0.9471615161094746 28.4970388057921)"><path d="M-11.29 29.26 C-7.53 35.79, -5.74 45.73, -4.73 55.72 M-10.31 28.84 C-7.59 39.12, -5.21 49.7, -2.24 56.06" stroke="#2b8a3e" stroke-width="1" fill="none"></path></g><g transform="translate(470.05078125 128.26953125) rotate(0 -0.9471615161094746 28.4970388057921)"><path d="M8.33 30.4 C6.37 36.76, 2.42 46.36, -4.73 55.72 M9.32 29.97 C4.72 39.73, -0.22 49.89, -2.24 56.06" stroke="#2b8a3e" stroke-width="1" fill="none"></path></g></g><g stroke-linecap="round"><g transform="translate(660.6015625 133.09765625) rotate(0 -22.416075524371138 24.100941614098844)"><path d="M0.98 1.02 C-6.69 8.68, -37.57 38.67, -45.36 46.32 M0.03 0.5 C-7.76 8.31, -38.09 39.72, -45.81 47.7" stroke="#2b8a3e" stroke-width="1" fill="none"></path></g><g transform="translate(660.6015625 133.09765625) rotate(0 -22.416075524371138 24.100941614098844)"><path d="M-10.31 29.66 C-8.03 19.34, -2.45 10.63, 0.43 -0.88 M-11.36 28.07 C-8.28 18.14, -4.06 9.62, 1.78 1.05" stroke="#2b8a3e" stroke-width="1" fill="none"></path></g><g transform="translate(660.6015625 133.09765625) rotate(0 -22.416075524371138 24.100941614098844)"><path d="M-24.66 14.99 C-17.28 9.72, -6.65 6.18, 0.43 -0.88 M-25.71 13.4 C-17.91 8.25, -8.95 4.58, 1.78 1.05" stroke="#2b8a3e" stroke-width="1" fill="none"></path></g><g transform="translate(660.6015625 133.09765625) rotate(0 -22.416075524371138 24.100941614098844)"><path d="M-31.9 21.89 C-38.33 30.95, -41.62 41.42, -46.36 45.8 M-32.96 20.3 C-38.29 28.51, -42.4 37.98, -45 47.73" stroke="#2b8a3e" stroke-width="1" fill="none"></path></g><g transform="translate(660.6015625 133.09765625) rotate(0 -22.416075524371138 24.100941614098844)"><path d="M-17.15 36.15 C-28.81 40.31, -37.3 45.76, -46.36 45.8 M-18.2 34.57 C-28.39 38.14, -37.38 42.9, -45 47.73" stroke="#2b8a3e" stroke-width="1" fill="none"></path></g></g><g stroke-linecap="round"><g transform="translate(756.73828125 338.52734375) rotate(0 144.42104621171018 -59.49386141194961)"><path d="M0.68 -1.08 C41.16 -2.94, 206.89 4.1, 242.91 -11.51 C278.93 -27.12, 209.08 -76.68, 216.81 -94.75 C224.53 -112.83, 276.95 -115.95, 289.26 -119.95 M-0.42 0.97 C39.89 -0.69, 205.85 5.64, 241.9 -10.15 C277.95 -25.94, 208.03 -75.6, 215.88 -93.79 C223.72 -111.99, 276.73 -115.24, 288.99 -119.32" stroke="#000000" stroke-width="1" fill="none"></path></g></g><g stroke-linecap="round"><g transform="translate(712.6328125 318.8828125) rotate(0 152.8244004722685 -58.79115251095968)"><path d="M-0.4 0.75 C41.77 -0.68, 217.6 5.17, 253.97 -9.43 C290.34 -24.03, 209.15 -68.63, 217.83 -86.84 C226.51 -105.05, 291.27 -113.51, 306.05 -118.68 M1.59 0.1 C43.58 -1.03, 217.46 6.53, 253.34 -7.8 C289.23 -22.13, 208.14 -67.55, 216.89 -85.88 C225.64 -104.21, 290.58 -112.54, 305.85 -117.77" stroke="#d9480f" stroke-width="1" fill="none"></path></g><g transform="translate(712.6328125 318.8828125) rotate(0 152.8244004722685 -58.79115251095968)"><path d="M28.95 -8.75 C17.3 -6.45, 5.27 -3.33, -1 0.11 M28.64 -10.74 C18.7 -6.85, 7.69 -2.23, 0.29 0.59" stroke="#d9480f" stroke-width="1" fill="none"></path></g><g transform="translate(712.6328125 318.8828125) rotate(0 152.8244004722685 -58.79115251095968)"><path d="M29.14 11.77 C17.57 6.31, 5.47 1.68, -1 0.11 M28.83 9.78 C18.91 6.75, 7.83 4.44, 0.29 0.59" stroke="#d9480f" stroke-width="1" fill="none"></path></g><g transform="translate(712.6328125 318.8828125) rotate(0 152.8244004722685 -58.79115251095968)"><path d="M282.02 -100.29 C290.66 -108.01, 298.73 -115.08, 305.25 -118.41 M281.72 -102.27 C289.83 -107.94, 296.77 -112.43, 306.54 -117.93" stroke="#d9480f" stroke-width="1" fill="none"></path></g><g transform="translate(712.6328125 318.8828125) rotate(0 152.8244004722685 -58.79115251095968)"><path d="M277.31 -120.26 C287.59 -120.42, 297.44 -119.94, 305.25 -118.41 M277.01 -122.25 C286.63 -121.21, 295.16 -118.96, 306.54 -117.93" stroke="#d9480f" stroke-width="1" fill="none"></path></g></g><g transform="translate(812.7421875 288.67578125) rotate(0 47 12.5)"><text x="0" y="18" font-family="Virgil, Segoe UI Emoji" font-size="20px" fill="#d9480f" text-anchor="start" style="white-space: pre;" direction="ltr">Messages</text></g><g transform="translate(867.71875 344.2890625) rotate(0 39 12.5)"><text x="0" y="18" font-family="Virgil, Segoe UI Emoji" font-size="20px" fill="#000000" text-anchor="start" style="white-space: pre;" direction="ltr">Network</text></g></svg>