<?xml version="1.0" encoding="UTF-8"?><svg id="e" xmlns="http://www.w3.org/2000/svg" viewBox="0 0 32 32"><defs><style>.g{fill:#f04923;}.h{fill:#fff;}</style></defs><g id="f"><path class="g" d="M28,31.82H4c-2.21,0-4-1.79-4-4V3.82C0,1.61,1.79-.18,4-.18H28c2.21,0,4,1.79,4,4V27.82c0,2.21-1.79,4-4,4Z"/><path class="h" d="M20.18,19.38c-.98,0-1.78-.8-1.78-1.78s.8-1.78,1.78-1.78,1.78,.8,1.78,1.78-.8,1.78-1.78,1.78Zm.31,2.92c-1.21,1.21-3.54,1.31-4.22,1.31s-3.01-.09-4.22-1.31c-.18-.18-.18-.47,0-.65,.18-.18,.47-.18,.65,0,.76,.76,2.4,1.04,3.57,1.04s2.8-.27,3.57-1.04c.18-.18,.47-.18,.65,0,.18,.18,.18,.47,0,.65Zm-9.91-4.7c0-.98,.8-1.78,1.78-1.78s1.78,.8,1.78,1.78-.8,1.78-1.78,1.78-1.78-.8-1.78-1.78Zm17.06-1.78c0-1.37-1.11-2.49-2.49-2.49-.67,0-1.28,.27-1.73,.7-1.7-1.23-4.05-2.02-6.66-2.11l1.13-5.33,3.7,.79c.05,.94,.82,1.69,1.77,1.69s1.78-.8,1.78-1.78-.8-1.78-1.78-1.78c-.7,0-1.3,.41-1.59,.99l-4.14-.88c-.11-.03-.24,0-.33,.06-.1,.06-.17,.17-.19,.28l-1.27,5.95c-2.65,.07-5.03,.87-6.75,2.11-.45-.43-1.05-.69-1.72-.69-1.37,0-2.49,1.11-2.49,2.49,0,1.01,.6,1.88,1.47,2.27-.04,.25-.06,.5-.06,.75,0,3.83,4.46,6.93,9.96,6.93s9.96-3.1,9.96-6.93c0-.25-.02-.5-.06-.75,.87-.39,1.48-1.26,1.48-2.27Z"/></g></svg>