<?xml version="1.0" encoding="UTF-8"?><svg id="a" xmlns="http://www.w3.org/2000/svg" viewBox="0 0 109.09 27.87"><path d="M83,11.6c-1.3,7.96,5.48,14.74,13.45,13.43,4.83-.79,8.71-4.67,9.5-9.5,1.3-7.96-5.48-14.74-13.45-13.43-4.83,.79-8.71,4.67-9.5,9.5Z" style="fill:#76dbc7; stroke:#000; stroke-miterlimit:10; stroke-width:2px;"/><path d="M43.07,11.6c-1.3,7.96,5.48,14.74,13.45,13.43,4.83-.79,8.71-4.67,9.5-9.5,1.3-7.96-5.48-14.74-13.45-13.43-4.83,.79-8.71,4.67-9.5,9.5Z" style="fill:#edf569; stroke:#000; stroke-miterlimit:10; stroke-width:2px;"/><path d="M3.14,11.6c-1.3,7.96,5.48,14.74,13.45,13.43,4.83-.79,8.71-4.67,9.5-9.5C27.39,7.57,20.61,.79,12.65,2.1,7.82,2.9,3.94,6.78,3.14,11.6Z" style="fill:#ff5101; stroke:#000; stroke-miterlimit:10; stroke-width:2px;"/></svg>