<svg width="57" height="15" viewBox="0 0 57 15" fill="none" xmlns="http://www.w3.org/2000/svg">
<path d="M43.1048 6.15235C42.4235 10.3154 45.9725 13.8625 50.1377 13.1751C52.6615 12.7601 54.6923 10.7304 55.1075 8.20796C55.7887 4.04487 52.2398 0.49782 48.0745 1.18518C45.5507 1.60019 43.52 3.62986 43.1048 6.15235Z" fill="#81C8BE" stroke="black" stroke-width="2" stroke-miterlimit="10"/>
<path d="M22.22 6.15235C21.5388 10.3154 25.0877 13.8625 29.2529 13.1751C31.7767 12.7601 33.8074 10.7304 34.2227 8.20796C34.9039 4.04487 31.355 0.49782 27.1898 1.18518C24.666 1.60019 22.6352 3.62986 22.22 6.15235Z" fill="#E7E66C" stroke="black" stroke-width="2" stroke-miterlimit="10"/>
<path d="M1.33549 6.15235C0.654261 10.3154 4.20316 13.8625 8.36841 13.1751C10.8922 12.7601 12.9229 10.7304 13.3382 8.20795C14.0194 4.04487 10.4705 0.497821 6.30524 1.18518C3.78144 1.60019 1.75072 3.62986 1.33549 6.15235Z" fill="#E9531E" stroke="black" stroke-width="2" stroke-miterlimit="10"/>
</svg>
