<svg width="23" height="19" viewBox="0 0 23 19" fill="none" xmlns="http://www.w3.org/2000/svg">
<path d="M6.98028 14.0486C6.52256 14.0486 6.13966 13.9166 5.84038 13.6437C5.54109 13.3752 5.39146 12.8603 5.39146 12.1033V0H0V2.42065H2.46907V11.892C2.46907 13.428 2.77715 14.5943 3.39332 15.391C4.00948 16.192 4.99095 16.5881 6.33771 16.5881C6.82624 16.5881 7.26636 16.5573 7.65367 16.4913C8.04097 16.4296 8.37106 16.3504 8.63953 16.2668C8.8772 16.192 9.07085 16.1172 9.22929 16.0467L9.23369 13.5028C9.10606 13.5513 8.84639 13.6525 8.45028 13.8109C8.05417 13.9694 7.56564 14.0486 6.98028 14.0486Z" fill="white"/>
<path d="M22.3889 16.5881H13.1508V19H22.3889V16.5881Z" fill="#BD99FF"/>
</svg>
