<svg width="612" height="302" viewBox="0 0 612 302" fill="none" xmlns="http://www.w3.org/2000/svg">
<path d="M1 300.7H611V29.8407H608.453H1V300.7Z" fill="#1E1E1E" stroke="black" stroke-width="2" stroke-miterlimit="10"/>
<path d="M41.9498 30.247H1.25098V294.402H41.9498V30.247Z" fill="#323334" stroke="black" stroke-width="2" stroke-miterlimit="10"/>
<path d="M151 29.8407H42V293.703H151V29.8407Z" fill="#252526" stroke="black" stroke-width="2" stroke-miterlimit="10"/>
<path d="M1 29.8407H611V8.70191C611 4.91924 608.93 1.85529 606.374 1.85529H5.62626C3.07001 1.85529 1 4.91924 1 8.70191V29.8407V29.8407Z" fill="#323334" stroke="black" stroke-width="2" stroke-miterlimit="10"/>
<path d="M58.1048 14.1524C57.4235 18.3154 60.9725 21.8625 65.1377 21.1751C67.6615 20.7601 69.6923 18.7304 70.1075 16.208C70.7887 12.0449 67.2398 8.49782 63.0745 9.18518C60.5507 9.60019 58.52 11.6299 58.1048 14.1524Z" fill="#81C8BE" stroke="black" stroke-width="2" stroke-miterlimit="10"/>
<path d="M37.22 14.1524C36.5388 18.3154 40.0877 21.8625 44.2529 21.1751C46.7767 20.7601 48.8074 18.7304 49.2227 16.208C49.9039 12.0449 46.355 8.49782 42.1898 9.18518C39.666 9.60019 37.6352 11.6299 37.22 14.1524V14.1524Z" fill="#E7E66C" stroke="black" stroke-width="2" stroke-miterlimit="10"/>
<path d="M16.3355 14.1523C15.6543 18.3154 19.2032 21.8625 23.3684 21.1751C25.8922 20.7601 27.9229 18.7304 28.3382 16.2079C29.0194 12.0449 25.4705 8.49782 21.3052 9.18518C18.7814 9.60019 16.7507 11.6299 16.3355 14.1523Z" fill="#E9531E" stroke="black" stroke-width="2" stroke-miterlimit="10"/>
<path d="M25.8727 48.9096V60.8801C25.8727 61.4831 25.3861 61.9695 24.7827 61.9695H14.6161C14.0127 61.9695 13.5261 61.4831 13.5261 60.8801V46.3741C13.5261 45.7711 14.0127 45.2847 14.6161 45.2847H22.2394L25.8727 48.9096V48.9096Z" fill="#323334" stroke="white" stroke-width="2" stroke-linecap="round" stroke-linejoin="round"/>
<path d="M22.2395 45.2782V47.8201C22.2395 48.4232 22.7261 48.9095 23.3295 48.9095H25.8727" fill="#323334"/>
<path d="M22.2395 45.2782V47.8201C22.2395 48.4232 22.7261 48.9095 23.3295 48.9095H25.8727" stroke="white" stroke-width="2" stroke-linecap="round" stroke-linejoin="round"/>
<path d="M29.4993 45.6156V57.586C29.4993 58.1891 29.0127 58.6754 28.4094 58.6754H18.2428C17.6394 58.6754 17.1528 58.1891 17.1528 57.586V43.0801C17.1528 42.477 17.6394 41.9907 18.2428 41.9907H25.8661L29.4993 45.6156V45.6156Z" fill="#323334" stroke="white" stroke-width="2" stroke-linecap="round" stroke-linejoin="round"/>
<path d="M25.8727 41.9841V44.526C25.8727 45.1291 26.3593 45.6154 26.9627 45.6154H29.506" fill="#323334"/>
<path d="M25.8727 41.9841V44.526C25.8727 45.1291 26.3593 45.6154 26.9627 45.6154H29.506" stroke="white" stroke-width="2" stroke-linecap="round" stroke-linejoin="round"/>
<path d="M612 287.706H0V301.699H612V287.706Z" fill="#82C9BE"/>
<path d="M17.1959 78.1362C16.9494 80.0621 17.5398 81.8519 18.6622 83.1942L12.5376 89.3156C11.9731 89.8798 12.8231 90.7228 13.381 90.1586L19.5056 84.0372C20.8486 85.159 22.6393 85.7556 24.5662 85.5027C27.3885 85.1396 29.7112 82.9218 30.1783 80.114C30.9244 75.6332 27.0771 71.7878 22.5939 72.5271C19.7846 72.9875 17.5593 75.3089 17.1894 78.1297L17.1959 78.1362ZM29.0624 78.5188C29.3543 81.8713 26.584 84.6467 23.2232 84.3484C20.667 84.128 18.5779 82.0399 18.3573 79.485C18.0653 76.1325 20.8357 73.3636 24.1964 73.6554C26.7527 73.8759 28.8418 75.9639 29.0624 78.5188Z" fill="white"/>
<path d="M43.5 50.3303H149.5V76.3163H43.5V50.3303Z" fill="#81C8BE" stroke="#D5FFF7"/>
<path d="M60.2998 42.9667H61.6963L63.8496 35.8573H62.3359L61.125 40.496L60.9932 40.9794L60.8711 40.5009L59.665 35.8573H58.1514L60.2998 42.9667ZM65.0557 37.6835V38.7919H66.5596V41.8632H65.0557V42.9667H69.3623V41.8632H67.9316V37.6835H65.0557ZM66.4619 36.3309C66.4619 36.4351 66.4798 36.5328 66.5156 36.6239C66.5547 36.7118 66.6084 36.7867 66.6768 36.8485C66.7451 36.9136 66.8265 36.9641 66.9209 36.9999C67.0186 37.0357 67.126 37.0536 67.2432 37.0536C67.484 37.0536 67.6745 36.9869 67.8145 36.8534C67.9577 36.7167 68.0293 36.5425 68.0293 36.3309C68.0293 36.1193 67.9577 35.9468 67.8145 35.8134C67.6745 35.6766 67.484 35.6083 67.2432 35.6083C67.126 35.6083 67.0186 35.6262 66.9209 35.662C66.8265 35.6978 66.7451 35.7466 66.6768 35.8085C66.6084 35.8736 66.5547 35.9517 66.5156 36.0428C66.4798 36.1307 66.4619 36.2268 66.4619 36.3309ZM70.5586 40.286V40.3885C70.5586 40.7727 70.6058 41.1291 70.7002 41.4579C70.7946 41.7834 70.9313 42.065 71.1104 42.3026C71.2861 42.5402 71.501 42.7274 71.7549 42.8641C72.012 42.9976 72.3018 43.0643 72.624 43.0643C72.9202 43.0643 73.1807 43.0074 73.4053 42.8934C73.6299 42.7795 73.8252 42.62 73.9912 42.4149L74.0596 42.9667H75.2852V35.4667H73.9229V38.1571C73.7601 37.9748 73.5729 37.8348 73.3613 37.7372C73.153 37.6363 72.9105 37.5858 72.6338 37.5858C72.305 37.5858 72.012 37.6509 71.7549 37.7811C71.501 37.9113 71.2845 38.0953 71.1055 38.3329C70.9264 38.5705 70.7897 38.8553 70.6953 39.1874C70.6042 39.5194 70.5586 39.8856 70.5586 40.286ZM71.916 40.3885V40.286C71.916 40.0647 71.9355 39.858 71.9746 39.6659C72.0137 39.4706 72.0755 39.2997 72.1602 39.1532C72.2448 39.01 72.3538 38.8977 72.4873 38.8163C72.624 38.7316 72.7884 38.6893 72.9805 38.6893C73.2116 38.6893 73.4036 38.7398 73.5566 38.8407C73.7096 38.9384 73.8317 39.0767 73.9229 39.2557V41.3944C73.8317 41.5702 73.708 41.7085 73.5518 41.8094C73.3988 41.9104 73.2051 41.9608 72.9707 41.9608C72.7786 41.9608 72.6159 41.9201 72.4824 41.8387C72.349 41.7574 72.2399 41.6451 72.1553 41.5018C72.0706 41.3619 72.0088 41.1975 71.9697 41.0087C71.9339 40.8166 71.916 40.6099 71.916 40.3885ZM79.2695 43.0643C79.7806 43.0643 80.2233 42.965 80.5977 42.7665C80.972 42.5679 81.2454 42.3466 81.418 42.1024L80.7393 41.37C80.583 41.5718 80.3796 41.7232 80.1289 41.8241C79.8783 41.925 79.6195 41.9755 79.3525 41.9755C79.1637 41.9755 78.9896 41.9462 78.8301 41.8876C78.6706 41.829 78.529 41.746 78.4053 41.6385C78.2848 41.5344 78.1888 41.4188 78.1172 41.2919C78.0456 41.1617 77.987 40.9908 77.9414 40.7792V40.7645H81.5254V40.1884C81.5254 39.801 81.4717 39.4478 81.3643 39.1288C81.2568 38.8065 81.1006 38.5315 80.8955 38.3036C80.6872 38.0757 80.4333 37.8999 80.1338 37.7762C79.8376 37.6493 79.499 37.5858 79.1182 37.5858C78.7503 37.5858 78.4102 37.6525 78.0977 37.786C77.7852 37.9195 77.515 38.1066 77.2871 38.3475C77.0592 38.5884 76.8818 38.8765 76.7549 39.2118C76.6279 39.5438 76.5645 39.9117 76.5645 40.3153V40.5106C76.5645 40.8654 76.6279 41.1991 76.7549 41.5116C76.8851 41.8208 77.069 42.0894 77.3066 42.3173C77.5443 42.5484 77.8291 42.7307 78.1611 42.8641C78.4932 42.9976 78.8626 43.0643 79.2695 43.0643ZM79.1084 38.6844C79.2809 38.6844 79.4323 38.7121 79.5625 38.7675C79.696 38.8195 79.8083 38.8912 79.8994 38.9823C79.9906 39.0767 80.0622 39.1874 80.1143 39.3143C80.1663 39.4413 80.1924 39.5764 80.1924 39.7196V39.827H77.9658C77.9984 39.6545 78.0472 39.4983 78.1123 39.3583C78.1774 39.2183 78.2588 39.0979 78.3564 38.9969C78.4508 38.896 78.5615 38.8195 78.6885 38.7675C78.8154 38.7121 78.9554 38.6844 79.1084 38.6844ZM82.5264 40.2762V40.3788C82.5264 40.7662 82.5817 41.1242 82.6924 41.453C82.8031 41.7785 82.9658 42.0617 83.1807 42.3026C83.3923 42.5435 83.6527 42.7323 83.9619 42.869C84.2744 43.0025 84.6292 43.0692 85.0264 43.0692C85.4202 43.0692 85.7718 43.0025 86.0811 42.869C86.3903 42.7323 86.6507 42.5435 86.8623 42.3026C87.0739 42.0617 87.235 41.7785 87.3457 41.453C87.4564 41.1242 87.5117 40.7662 87.5117 40.3788V40.2762C87.5117 39.8921 87.4564 39.5373 87.3457 39.2118C87.235 38.883 87.0739 38.5982 86.8623 38.3573C86.6475 38.1164 86.3854 37.9276 86.0762 37.7909C85.7669 37.6542 85.4137 37.5858 85.0166 37.5858C84.6195 37.5858 84.2663 37.6542 83.957 37.7909C83.651 37.9276 83.3923 38.1164 83.1807 38.3573C82.9658 38.5982 82.8031 38.883 82.6924 39.2118C82.5817 39.5373 82.5264 39.8921 82.5264 40.2762ZM83.8838 40.3788V40.2762C83.8838 40.0614 83.9049 39.858 83.9473 39.6659C83.9896 39.4738 84.0563 39.3046 84.1475 39.1581C84.2386 39.0116 84.3558 38.896 84.499 38.8114C84.6423 38.7268 84.8148 38.6844 85.0166 38.6844C85.2217 38.6844 85.3958 38.7268 85.5391 38.8114C85.6823 38.896 85.7995 39.0116 85.8906 39.1581C85.9785 39.3046 86.0436 39.4738 86.0859 39.6659C86.1283 39.858 86.1494 40.0614 86.1494 40.2762V40.3788C86.1494 40.6001 86.1283 40.8085 86.0859 41.0038C86.0436 41.1958 85.9785 41.3635 85.8906 41.5067C85.7995 41.6532 85.6823 41.7688 85.5391 41.8534C85.3958 41.938 85.2249 41.9803 85.0264 41.9803C84.8213 41.9803 84.6455 41.938 84.499 41.8534C84.3558 41.7688 84.2386 41.6532 84.1475 41.5067C84.0563 41.3635 83.9896 41.1958 83.9473 41.0038C83.9049 40.8085 83.8838 40.6001 83.8838 40.3788ZM92.126 41.5165C92.126 41.5979 92.1048 41.6727 92.0625 41.7411C92.0234 41.8094 91.9632 41.8697 91.8818 41.9218C91.7972 41.9738 91.6882 42.0162 91.5547 42.0487C91.4245 42.078 91.2715 42.0927 91.0957 42.0927C90.9492 42.0927 90.806 42.078 90.666 42.0487C90.5293 42.0194 90.4072 41.9722 90.2998 41.9071C90.1924 41.8453 90.1045 41.7639 90.0361 41.663C89.9678 41.5588 89.9287 41.4351 89.9189 41.2919H88.625C88.625 41.5067 88.6771 41.7216 88.7812 41.9364C88.8887 42.148 89.0449 42.3368 89.25 42.5028C89.4551 42.6721 89.709 42.8088 90.0117 42.913C90.3177 43.0171 90.6693 43.0692 91.0664 43.0692C91.4277 43.0692 91.7549 43.0302 92.0479 42.952C92.3408 42.8706 92.5915 42.7583 92.7998 42.6151C93.0049 42.4719 93.1628 42.3026 93.2734 42.1073C93.3874 41.9087 93.4443 41.6923 93.4443 41.4579C93.4443 41.204 93.3874 40.9859 93.2734 40.8036C93.1628 40.618 93.0081 40.4602 92.8096 40.33C92.611 40.203 92.375 40.0988 92.1016 40.0175C91.8281 39.9361 91.5319 39.8693 91.2129 39.8173C90.9915 39.7847 90.8092 39.7473 90.666 39.705C90.5228 39.6594 90.4105 39.6089 90.3291 39.5536C90.2445 39.5015 90.1859 39.4429 90.1533 39.3778C90.1208 39.3094 90.1045 39.2362 90.1045 39.1581C90.1045 39.08 90.1224 39.0067 90.1582 38.9384C90.1973 38.8667 90.2526 38.8049 90.3242 38.7528C90.4023 38.6942 90.5033 38.6486 90.627 38.6161C90.7507 38.5835 90.8955 38.5673 91.0615 38.5673C91.2568 38.5673 91.4229 38.5917 91.5596 38.6405C91.6995 38.6893 91.8102 38.7544 91.8916 38.8358C91.9502 38.8977 91.9941 38.9677 92.0234 39.0458C92.0527 39.1206 92.0674 39.202 92.0674 39.2899H93.4248C93.4248 39.0458 93.3711 38.8195 93.2637 38.6112C93.1562 38.4029 93.0016 38.2222 92.7998 38.0692C92.5947 37.9195 92.3457 37.8023 92.0527 37.7177C91.7598 37.6298 91.4294 37.5858 91.0615 37.5858C90.71 37.5858 90.3942 37.6298 90.1143 37.7177C89.8343 37.8055 89.5967 37.9244 89.4014 38.0741C89.2061 38.2238 89.0563 38.398 88.9521 38.5966C88.848 38.7951 88.7959 39.0035 88.7959 39.2216C88.7959 39.4462 88.8464 39.6447 88.9473 39.8173C89.0514 39.9898 89.1947 40.1412 89.377 40.2714C89.5592 40.4048 89.7773 40.5188 90.0312 40.6132C90.2884 40.7043 90.5716 40.7808 90.8809 40.8427C91.125 40.8882 91.3268 40.9338 91.4863 40.9794C91.6458 41.0249 91.7744 41.0738 91.8721 41.1259C91.9665 41.1812 92.0316 41.2398 92.0674 41.3016C92.1064 41.3635 92.126 41.4351 92.126 41.5165ZM59.2207 61.9667H60.1484L61.0176 56.913L61.0713 56.6102L61.1201 56.9081L61.9844 61.9667H62.9072L63.7715 54.8573H62.917L62.4043 59.7499L62.375 60.0428L62.3213 59.7548L61.457 54.8573H60.6709L59.8115 59.7499L59.7578 60.0428L59.7285 59.7596L59.2158 54.8573H58.3564L59.2207 61.9667ZM65.7588 57.4696V54.4667H64.8555V61.9667H65.7588V58.1288C65.8239 58.0246 65.8971 57.9302 65.9785 57.8456C66.0632 57.7577 66.1543 57.6812 66.252 57.6161C66.3757 57.5315 66.5107 57.4663 66.6572 57.4208C66.8037 57.3752 66.9583 57.3524 67.1211 57.3524C67.3197 57.3492 67.4954 57.3768 67.6484 57.4354C67.8014 57.4908 67.9284 57.5754 68.0293 57.6893C68.1237 57.7935 68.1953 57.9253 68.2441 58.0848C68.293 58.2411 68.3174 58.4234 68.3174 58.6317V61.9667H69.2207V58.6415C69.2207 58.2867 69.1768 57.9807 69.0889 57.7235C69.0042 57.4631 68.8822 57.2483 68.7227 57.079C68.5632 56.9097 68.3695 56.786 68.1416 56.7079C67.917 56.6265 67.6663 56.5858 67.3896 56.5858C67.1781 56.5891 66.9779 56.62 66.7891 56.6786C66.6035 56.7372 66.4326 56.8234 66.2764 56.9374C66.1787 57.0057 66.0859 57.0855 65.998 57.1766C65.9102 57.2645 65.8304 57.3622 65.7588 57.4696ZM74.333 61.9667H75.2754V61.8885C75.2168 61.7421 75.1712 61.5712 75.1387 61.3759C75.1061 61.1773 75.0898 60.9901 75.0898 60.8143V58.3583C75.0898 58.0621 75.0361 57.8033 74.9287 57.5819C74.8213 57.3606 74.6748 57.175 74.4893 57.0253C74.3005 56.8788 74.0775 56.7697 73.8203 56.6981C73.5632 56.6233 73.2848 56.5858 72.9854 56.5858C72.6566 56.5858 72.362 56.6314 72.1016 56.7225C71.8444 56.8137 71.6263 56.9325 71.4473 57.079C71.265 57.2287 71.125 57.3964 71.0273 57.5819C70.9329 57.7675 70.8841 57.9563 70.8809 58.1483H71.7891C71.7891 58.0376 71.8151 57.9318 71.8672 57.8309C71.9225 57.7268 71.999 57.6372 72.0967 57.5624C72.1943 57.4875 72.3132 57.4273 72.4531 57.3817C72.5964 57.3361 72.7575 57.3134 72.9365 57.3134C73.1286 57.3134 73.3011 57.3378 73.4541 57.3866C73.6104 57.4354 73.7422 57.5038 73.8496 57.5917C73.957 57.6828 74.04 57.7919 74.0986 57.9188C74.1572 58.0458 74.1865 58.189 74.1865 58.3485V58.7635H73.2002C72.8324 58.7635 72.4987 58.7994 72.1992 58.871C71.903 58.9426 71.6491 59.05 71.4375 59.1932C71.2259 59.3397 71.0615 59.522 70.9443 59.7401C70.8304 59.9582 70.7734 60.2121 70.7734 60.5018C70.7734 60.7232 70.8158 60.9299 70.9004 61.1219C70.9883 61.3108 71.112 61.4735 71.2715 61.6102C71.4277 61.7502 71.6182 61.8609 71.8428 61.9423C72.0706 62.0236 72.3245 62.0643 72.6045 62.0643C72.777 62.0643 72.9398 62.0464 73.0928 62.0106C73.2458 61.9748 73.3906 61.926 73.5273 61.8641C73.6608 61.8023 73.7829 61.7307 73.8936 61.6493C74.0075 61.5679 74.11 61.4816 74.2012 61.3905C74.2109 61.5012 74.2256 61.6086 74.2451 61.7128C74.2679 61.8137 74.2972 61.8983 74.333 61.9667ZM72.7363 61.2782C72.5605 61.2782 72.4059 61.2554 72.2725 61.2098C72.139 61.1643 72.0283 61.1008 71.9404 61.0194C71.8525 60.9413 71.7858 60.8469 71.7402 60.7362C71.6979 60.6255 71.6768 60.5051 71.6768 60.3749C71.6768 60.2382 71.7012 60.1161 71.75 60.0087C71.8021 59.9012 71.877 59.8085 71.9746 59.7303C72.1113 59.6197 72.2952 59.5383 72.5264 59.4862C72.7607 59.4309 73.0342 59.4032 73.3467 59.4032H74.1865V60.4725C74.1344 60.5767 74.0628 60.6776 73.9717 60.7753C73.8805 60.8697 73.7731 60.9543 73.6494 61.0292C73.5225 61.104 73.3825 61.1643 73.2295 61.2098C73.0765 61.2554 72.9121 61.2782 72.7363 61.2782ZM79.0059 55.4042H78.0977V56.6835H76.7109V57.3817H78.0977V60.2528C78.0977 60.5783 78.14 60.8566 78.2246 61.0878C78.3125 61.3156 78.4313 61.5012 78.5811 61.6444C78.7308 61.7909 78.9066 61.8983 79.1084 61.9667C79.3135 62.0318 79.5332 62.0643 79.7676 62.0643C79.9076 62.0643 80.0475 62.0578 80.1875 62.0448C80.3307 62.0318 80.4658 62.0122 80.5928 61.9862C80.7197 61.9634 80.8369 61.9358 80.9443 61.9032C81.0518 61.8674 81.1429 61.8267 81.2178 61.7811L81.0908 61.1415C81.0355 61.1545 80.9639 61.1708 80.876 61.1903C80.7913 61.2066 80.7002 61.2229 80.6025 61.2391C80.5016 61.2554 80.3991 61.2701 80.2949 61.2831C80.1908 61.2928 80.0898 61.2977 79.9922 61.2977C79.8587 61.2977 79.7318 61.2815 79.6113 61.2489C79.4941 61.2163 79.39 61.1594 79.2988 61.078C79.2077 60.9999 79.1361 60.8941 79.084 60.7606C79.0319 60.6272 79.0059 60.4579 79.0059 60.2528V57.3817H81.0176V56.6835H79.0059V55.4042ZM89.0205 56.6835V57.4696H90.8174V61.1854H89.0205V61.9667H93.4443V61.1854H91.7207V56.6835H89.0205ZM90.7002 55.2968C90.7002 55.4432 90.7441 55.5653 90.832 55.663C90.9232 55.7606 91.0599 55.8094 91.2422 55.8094C91.4212 55.8094 91.5563 55.7606 91.6475 55.663C91.7386 55.5653 91.7842 55.4432 91.7842 55.2968C91.7842 55.2154 91.7712 55.1405 91.7451 55.0721C91.7191 55.0038 91.68 54.9468 91.6279 54.9012C91.5856 54.8589 91.5319 54.8264 91.4668 54.8036C91.4017 54.7775 91.3268 54.7645 91.2422 54.7645C91.1576 54.7645 91.0811 54.7775 91.0127 54.8036C90.9476 54.8264 90.8939 54.8589 90.8516 54.9012C90.7995 54.9501 90.7604 55.0087 90.7344 55.077C90.7116 55.1454 90.7002 55.2186 90.7002 55.2968ZM98.3955 60.5653C98.3955 60.6499 98.3792 60.7297 98.3467 60.8046C98.3141 60.8794 98.2669 60.9478 98.2051 61.0096C98.1042 61.1106 97.9642 61.1903 97.7852 61.2489C97.6061 61.3042 97.3962 61.3319 97.1553 61.3319C97.0023 61.3319 96.8477 61.3156 96.6914 61.2831C96.5352 61.2505 96.3936 61.1952 96.2666 61.1171C96.1364 61.0389 96.0273 60.9364 95.9395 60.8094C95.8548 60.6825 95.806 60.5262 95.793 60.3407H94.8896C94.8896 60.5653 94.9401 60.7818 95.041 60.9901C95.1452 61.1984 95.2949 61.3807 95.4902 61.537C95.6823 61.6965 95.9183 61.8251 96.1982 61.9227C96.4782 62.0171 96.7972 62.0643 97.1553 62.0643C97.4678 62.0643 97.7559 62.0269 98.0195 61.952C98.2832 61.8772 98.5094 61.7714 98.6982 61.6346C98.887 61.4979 99.0335 61.3335 99.1377 61.1415C99.2451 60.9494 99.2988 60.7362 99.2988 60.5018C99.2988 60.2837 99.2516 60.0917 99.1572 59.9257C99.0661 59.7596 98.9326 59.6132 98.7568 59.4862C98.5811 59.3625 98.3646 59.2567 98.1074 59.1688C97.8503 59.0777 97.5589 58.9979 97.2334 58.9296C96.986 58.8807 96.7809 58.8303 96.6182 58.7782C96.4587 58.7261 96.3317 58.6675 96.2373 58.6024C96.1396 58.5373 96.0713 58.4641 96.0322 58.3827C95.9932 58.3013 95.9736 58.2085 95.9736 58.1044C95.9736 58.0035 95.998 57.9058 96.0469 57.8114C96.0957 57.717 96.1689 57.634 96.2666 57.5624C96.361 57.4908 96.4798 57.4338 96.623 57.3915C96.7695 57.3492 96.9388 57.328 97.1309 57.328C97.3164 57.328 97.4824 57.354 97.6289 57.4061C97.7786 57.4582 97.9056 57.5266 98.0098 57.6112C98.1139 57.6958 98.1953 57.7935 98.2539 57.9042C98.3125 58.0116 98.3418 58.1223 98.3418 58.2362H99.2451C99.2451 58.0051 99.1947 57.7902 99.0938 57.5917C98.9961 57.3899 98.8561 57.2141 98.6738 57.0643C98.4915 56.9146 98.2702 56.7974 98.0098 56.7128C97.7493 56.6281 97.4564 56.5858 97.1309 56.5858C96.8281 56.5858 96.5498 56.6265 96.2959 56.7079C96.0452 56.7893 95.8288 56.8999 95.6465 57.0399C95.4642 57.1799 95.3226 57.3443 95.2217 57.5331C95.1208 57.7186 95.0703 57.9188 95.0703 58.1337C95.0703 58.3518 95.1191 58.5438 95.2168 58.7098C95.3145 58.8726 95.4528 59.0142 95.6318 59.1346C95.8076 59.2583 96.0192 59.3641 96.2666 59.452C96.5173 59.5399 96.7939 59.6148 97.0967 59.6766C97.3441 59.7255 97.5508 59.7808 97.7168 59.8427C97.8828 59.9012 98.0163 59.9663 98.1172 60.038C98.2181 60.1096 98.2897 60.1893 98.332 60.2772C98.3743 60.3619 98.3955 60.4579 98.3955 60.5653ZM107.917 61.2001V54.8573H107.014V61.9667H111.394V61.2001H107.917ZM116.384 61.9667H117.204V56.6835H116.296V60.4725C116.247 60.5865 116.185 60.6923 116.11 60.7899C116.039 60.8843 115.954 60.9657 115.856 61.0341C115.739 61.1187 115.601 61.1854 115.441 61.2343C115.282 61.2798 115.101 61.3026 114.899 61.3026C114.727 61.3026 114.574 61.2798 114.44 61.2343C114.31 61.1887 114.2 61.1089 114.108 60.995C114.017 60.8843 113.949 60.7346 113.903 60.5458C113.858 60.357 113.835 60.1193 113.835 59.8329V56.6835H112.932V59.8231C112.932 60.217 112.974 60.5555 113.059 60.8387C113.146 61.1187 113.27 61.3498 113.43 61.5321C113.589 61.7144 113.781 61.8495 114.006 61.9374C114.23 62.022 114.481 62.0643 114.758 62.0643C115.103 62.0643 115.407 61.9927 115.671 61.8495C115.935 61.703 116.154 61.4996 116.33 61.2391L116.384 61.9667ZM118.654 59.2762V59.3837C118.654 59.7645 118.71 60.1177 118.82 60.4432C118.931 60.7688 119.09 61.052 119.299 61.2928C119.504 61.5337 119.755 61.7225 120.051 61.8593C120.35 61.996 120.687 62.0643 121.062 62.0643C121.433 62.0643 121.766 61.996 122.062 61.8593C122.359 61.7225 122.611 61.5337 122.819 61.2928C123.024 61.052 123.182 60.7688 123.293 60.4432C123.404 60.1177 123.459 59.7645 123.459 59.3837V59.2762C123.459 58.8954 123.404 58.5422 123.293 58.2167C123.182 57.8879 123.024 57.6031 122.819 57.3622C122.611 57.1213 122.357 56.9325 122.058 56.7958C121.761 56.6558 121.426 56.5858 121.052 56.5858C120.681 56.5858 120.347 56.6558 120.051 56.7958C119.755 56.9325 119.504 57.1213 119.299 57.3622C119.09 57.6031 118.931 57.8879 118.82 58.2167C118.71 58.5422 118.654 58.8954 118.654 59.2762ZM119.558 59.3837V59.2762C119.558 59.0191 119.589 58.7733 119.65 58.5389C119.712 58.3013 119.807 58.093 119.934 57.9139C120.057 57.7349 120.212 57.5933 120.397 57.4891C120.583 57.3817 120.801 57.328 121.052 57.328C121.302 57.328 121.521 57.3817 121.706 57.4891C121.895 57.5933 122.053 57.7349 122.18 57.9139C122.303 58.093 122.396 58.3013 122.458 58.5389C122.523 58.7733 122.556 59.0191 122.556 59.2762V59.3837C122.556 59.6441 122.525 59.8931 122.463 60.1307C122.401 60.3651 122.308 60.5718 122.185 60.7509C122.058 60.9299 121.9 61.0715 121.711 61.1757C121.525 61.2798 121.309 61.3319 121.062 61.3319C120.811 61.3319 120.591 61.2798 120.402 61.1757C120.214 61.0715 120.057 60.9299 119.934 60.7509C119.807 60.5718 119.712 60.3651 119.65 60.1307C119.589 59.8931 119.558 59.6441 119.558 59.3837ZM128.425 60.5653C128.425 60.6499 128.409 60.7297 128.376 60.8046C128.343 60.8794 128.296 60.9478 128.234 61.0096C128.133 61.1106 127.993 61.1903 127.814 61.2489C127.635 61.3042 127.425 61.3319 127.185 61.3319C127.032 61.3319 126.877 61.3156 126.721 61.2831C126.564 61.2505 126.423 61.1952 126.296 61.1171C126.166 61.0389 126.057 60.9364 125.969 60.8094C125.884 60.6825 125.835 60.5262 125.822 60.3407H124.919C124.919 60.5653 124.969 60.7818 125.07 60.9901C125.174 61.1984 125.324 61.3807 125.52 61.537C125.712 61.6965 125.948 61.8251 126.228 61.9227C126.507 62.0171 126.826 62.0643 127.185 62.0643C127.497 62.0643 127.785 62.0269 128.049 61.952C128.312 61.8772 128.539 61.7714 128.728 61.6346C128.916 61.4979 129.063 61.3335 129.167 61.1415C129.274 60.9494 129.328 60.7362 129.328 60.5018C129.328 60.2837 129.281 60.0917 129.187 59.9257C129.095 59.7596 128.962 59.6132 128.786 59.4862C128.61 59.3625 128.394 59.2567 128.137 59.1688C127.88 59.0777 127.588 58.9979 127.263 58.9296C127.015 58.8807 126.81 58.8303 126.647 58.7782C126.488 58.7261 126.361 58.6675 126.267 58.6024C126.169 58.5373 126.101 58.4641 126.062 58.3827C126.022 58.3013 126.003 58.2085 126.003 58.1044C126.003 58.0035 126.027 57.9058 126.076 57.8114C126.125 57.717 126.198 57.634 126.296 57.5624C126.39 57.4908 126.509 57.4338 126.652 57.3915C126.799 57.3492 126.968 57.328 127.16 57.328C127.346 57.328 127.512 57.354 127.658 57.4061C127.808 57.4582 127.935 57.5266 128.039 57.6112C128.143 57.6958 128.225 57.7935 128.283 57.9042C128.342 58.0116 128.371 58.1223 128.371 58.2362H129.274C129.274 58.0051 129.224 57.7902 129.123 57.5917C129.025 57.3899 128.885 57.2141 128.703 57.0643C128.521 56.9146 128.299 56.7974 128.039 56.7128C127.779 56.6281 127.486 56.5858 127.16 56.5858C126.857 56.5858 126.579 56.6265 126.325 56.7079C126.075 56.7893 125.858 56.8999 125.676 57.0399C125.493 57.1799 125.352 57.3443 125.251 57.5331C125.15 57.7186 125.1 57.9188 125.1 58.1337C125.1 58.3518 125.148 58.5438 125.246 58.7098C125.344 58.8726 125.482 59.0142 125.661 59.1346C125.837 59.2583 126.049 59.3641 126.296 59.452C126.547 59.5399 126.823 59.6148 127.126 59.6766C127.373 59.7255 127.58 59.7808 127.746 59.8427C127.912 59.9012 128.046 59.9663 128.146 60.038C128.247 60.1096 128.319 60.1893 128.361 60.2772C128.404 60.3619 128.425 60.4579 128.425 60.5653ZM62.7607 68.6805V67.9139H59.792V65.6288H63.21V64.8573H58.8887V71.9667H63.2539V71.2001H59.792V68.6805H62.7607ZM64.8555 71.9667H65.7588V68.1776C65.8206 68.0637 65.8923 67.9595 65.9736 67.8651C66.0583 67.7707 66.1494 67.6877 66.2471 67.6161C66.3675 67.5347 66.4993 67.4712 66.6426 67.4257C66.7858 67.3768 66.9404 67.3524 67.1064 67.3524C67.2985 67.3524 67.4678 67.3752 67.6143 67.4208C67.764 67.4663 67.891 67.5396 67.9951 67.6405C68.096 67.7414 68.1725 67.8733 68.2246 68.036C68.2767 68.1988 68.3027 68.3973 68.3027 68.6317V71.9667H69.2061V68.6122C69.2061 68.2606 69.1621 67.9579 69.0742 67.704C68.9896 67.4468 68.8675 67.2352 68.708 67.0692C68.5485 66.9032 68.3548 66.7811 68.127 66.703C67.9023 66.6249 67.6517 66.5858 67.375 66.5858C67.1699 66.5891 66.9746 66.62 66.7891 66.6786C66.6068 66.7339 66.4375 66.8137 66.2812 66.9178C66.1771 66.9862 66.0778 67.0676 65.9834 67.162C65.8923 67.2531 65.8076 67.354 65.7295 67.4647L65.666 66.6835H64.8555V71.9667ZM70.6953 69.2811V69.3837C70.6953 69.7613 70.7441 70.1145 70.8418 70.4432C70.9395 70.7688 71.0794 71.052 71.2617 71.2928C71.4408 71.5337 71.6605 71.7225 71.9209 71.8593C72.1813 71.996 72.4727 72.0643 72.7949 72.0643C72.987 72.0643 73.166 72.0432 73.332 72.0009C73.498 71.9618 73.6494 71.9048 73.7861 71.83C73.874 71.7811 73.9554 71.7242 74.0303 71.6591C74.1084 71.594 74.1816 71.5223 74.25 71.4442V71.8983C74.25 72.1262 74.2174 72.328 74.1523 72.5038C74.0872 72.6796 73.9945 72.826 73.874 72.9432C73.7503 73.0637 73.6022 73.1548 73.4297 73.2167C73.2572 73.2785 73.0635 73.3094 72.8486 73.3094C72.7282 73.3094 72.6077 73.2964 72.4873 73.2704C72.3669 73.2476 72.2464 73.2085 72.126 73.1532C72.0055 73.0979 71.8867 73.023 71.7695 72.9286C71.6523 72.8374 71.5384 72.7251 71.4277 72.5917L70.959 73.1337C71.0794 73.3062 71.2227 73.451 71.3887 73.5682C71.5579 73.6854 71.7337 73.7782 71.916 73.8466C72.0951 73.9182 72.2725 73.9686 72.4482 73.9979C72.624 74.0305 72.7803 74.0468 72.917 74.0468C73.249 74.0468 73.5518 73.9979 73.8252 73.9003C74.0986 73.8026 74.3346 73.6594 74.5332 73.4706C74.7285 73.2818 74.8799 73.0523 74.9873 72.7821C75.098 72.5119 75.1533 72.2027 75.1533 71.8544V66.6835H74.333L74.2891 67.2596C74.2272 67.1815 74.1605 67.1099 74.0889 67.0448C74.0205 66.9797 73.9473 66.9227 73.8691 66.8739C73.7259 66.7795 73.5648 66.7079 73.3857 66.6591C73.21 66.6102 73.0163 66.5858 72.8047 66.5858C72.4759 66.5858 72.1813 66.6525 71.9209 66.786C71.6605 66.9195 71.4391 67.105 71.2568 67.3427C71.0745 67.5803 70.9346 67.8651 70.8369 68.1971C70.7425 68.5259 70.6953 68.8872 70.6953 69.2811ZM71.5986 69.3837V69.2811C71.5986 69.024 71.6247 68.7798 71.6768 68.5487C71.7321 68.3143 71.8184 68.1076 71.9355 67.9286C72.0495 67.7528 72.196 67.6128 72.375 67.5087C72.5573 67.4045 72.7754 67.3524 73.0293 67.3524C73.179 67.3524 73.3158 67.3719 73.4395 67.411C73.5632 67.4468 73.6755 67.4973 73.7764 67.5624C73.8773 67.6307 73.9668 67.7105 74.0449 67.8016C74.123 67.8928 74.1914 67.9937 74.25 68.1044V70.5262C74.1914 70.6402 74.123 70.7443 74.0449 70.8387C73.9668 70.9331 73.8789 71.0145 73.7812 71.0829C73.6803 71.1512 73.5664 71.205 73.4395 71.244C73.3158 71.2798 73.1758 71.2977 73.0195 71.2977C72.7689 71.2977 72.554 71.2473 72.375 71.1464C72.196 71.0422 72.0495 70.9022 71.9355 70.7264C71.8184 70.5507 71.7321 70.3472 71.6768 70.1161C71.6247 69.885 71.5986 69.6408 71.5986 69.3837ZM77.0088 66.6835V67.4696H78.8057V71.1854H77.0088V71.9667H81.4326V71.1854H79.709V66.6835H77.0088ZM78.6885 65.2968C78.6885 65.4432 78.7324 65.5653 78.8203 65.663C78.9115 65.7606 79.0482 65.8094 79.2305 65.8094C79.4095 65.8094 79.5446 65.7606 79.6357 65.663C79.7269 65.5653 79.7725 65.4432 79.7725 65.2968C79.7725 65.2154 79.7594 65.1405 79.7334 65.0721C79.7074 65.0038 79.6683 64.9468 79.6162 64.9012C79.5739 64.8589 79.5202 64.8264 79.4551 64.8036C79.39 64.7775 79.3151 64.7645 79.2305 64.7645C79.1458 64.7645 79.0693 64.7775 79.001 64.8036C78.9359 64.8264 78.8822 64.8589 78.8398 64.9012C78.7878 64.9501 78.7487 65.0087 78.7227 65.077C78.6999 65.1454 78.6885 65.2186 78.6885 65.2968ZM82.873 71.9667H83.7764V68.1776C83.8382 68.0637 83.9098 67.9595 83.9912 67.8651C84.0758 67.7707 84.167 67.6877 84.2646 67.6161C84.3851 67.5347 84.5169 67.4712 84.6602 67.4257C84.8034 67.3768 84.958 67.3524 85.124 67.3524C85.3161 67.3524 85.4854 67.3752 85.6318 67.4208C85.7816 67.4663 85.9085 67.5396 86.0127 67.6405C86.1136 67.7414 86.1901 67.8733 86.2422 68.036C86.2943 68.1988 86.3203 68.3973 86.3203 68.6317V71.9667H87.2236V68.6122C87.2236 68.2606 87.1797 67.9579 87.0918 67.704C87.0072 67.4468 86.8851 67.2352 86.7256 67.0692C86.5661 66.9032 86.3724 66.7811 86.1445 66.703C85.9199 66.6249 85.6693 66.5858 85.3926 66.5858C85.1875 66.5891 84.9922 66.62 84.8066 66.6786C84.6243 66.7339 84.4551 66.8137 84.2988 66.9178C84.1947 66.9862 84.0954 67.0676 84.001 67.162C83.9098 67.2531 83.8252 67.354 83.7471 67.4647L83.6836 66.6835H82.873V71.9667ZM91.2129 72.0643C91.7272 72.0643 92.1585 71.9618 92.5068 71.7567C92.8584 71.5484 93.1221 71.3108 93.2979 71.0438L92.7461 70.6141C92.5801 70.829 92.3717 71.0015 92.1211 71.1317C91.8704 71.2619 91.584 71.327 91.2617 71.327C91.0176 71.327 90.7946 71.2815 90.5928 71.1903C90.391 71.0992 90.2184 70.9738 90.0752 70.8143C89.9352 70.6646 89.8245 70.4921 89.7432 70.2968C89.665 70.1014 89.6146 69.8752 89.5918 69.618V69.5839H93.3662V69.1786C93.3662 68.8108 93.319 68.469 93.2246 68.1532C93.1335 67.8374 92.9935 67.5624 92.8047 67.328C92.6159 67.0969 92.3783 66.9162 92.0918 66.786C91.8086 66.6525 91.4766 66.5858 91.0957 66.5858C90.793 66.5858 90.4967 66.6477 90.207 66.7714C89.9206 66.8951 89.665 67.0725 89.4404 67.3036C89.2126 67.538 89.0303 67.8244 88.8936 68.163C88.7568 68.4983 88.6885 68.8791 88.6885 69.3055V69.5106C88.6885 69.8785 88.7503 70.2186 88.874 70.5311C88.9977 70.8436 89.1702 71.1138 89.3916 71.3417C89.613 71.5695 89.8783 71.7469 90.1875 71.8739C90.5 72.0009 90.8418 72.0643 91.2129 72.0643ZM91.0957 67.328C91.3268 67.328 91.5254 67.3703 91.6914 67.455C91.8607 67.5396 92.0007 67.6503 92.1113 67.787C92.222 67.9237 92.3083 68.0865 92.3701 68.2753C92.432 68.4608 92.4629 68.635 92.4629 68.7977V68.8417H89.6211C89.6569 68.5975 89.7188 68.3827 89.8066 68.1971C89.8978 68.0083 90.0085 67.8488 90.1387 67.7186C90.2689 67.5917 90.4154 67.4956 90.5781 67.4305C90.7409 67.3622 90.9134 67.328 91.0957 67.328ZM96.5303 69.9647H97.4336C97.4336 69.8378 97.4368 69.7255 97.4434 69.6278C97.4499 69.5269 97.4661 69.4325 97.4922 69.3446C97.5182 69.2567 97.5573 69.1705 97.6094 69.0858C97.6647 69.0012 97.7412 68.9117 97.8389 68.8173C97.9919 68.6805 98.1465 68.5324 98.3027 68.3729C98.4622 68.2134 98.6055 68.0409 98.7324 67.8553C98.8594 67.6731 98.9635 67.4794 99.0449 67.2743C99.1263 67.066 99.167 66.8446 99.167 66.6102C99.167 66.3173 99.1198 66.0568 99.0254 65.829C98.931 65.6011 98.7943 65.4074 98.6152 65.2479C98.4362 65.0884 98.2165 64.968 97.9561 64.8866C97.6989 64.802 97.4059 64.7596 97.0771 64.7596C96.7809 64.7596 96.5042 64.8003 96.2471 64.8817C95.9932 64.9598 95.7734 65.0738 95.5879 65.2235C95.3991 65.3765 95.2493 65.5621 95.1387 65.7802C95.028 65.9983 94.971 66.244 94.9678 66.5175H95.8711C95.8711 66.3482 95.9053 66.2033 95.9736 66.0829C96.042 65.9592 96.1331 65.8566 96.2471 65.7753C96.3577 65.6971 96.4847 65.6402 96.6279 65.6044C96.7744 65.5653 96.9242 65.5458 97.0771 65.5458C97.2757 65.5458 97.4515 65.5718 97.6045 65.6239C97.7575 65.676 97.8844 65.7525 97.9854 65.8534C98.0765 65.9445 98.1449 66.0568 98.1904 66.1903C98.2393 66.3205 98.2637 66.4703 98.2637 66.6395C98.2637 66.8023 98.2327 66.9569 98.1709 67.1034C98.109 67.2499 98.0309 67.3882 97.9365 67.5184C97.8389 67.6519 97.7314 67.7788 97.6143 67.8993C97.5003 68.0197 97.388 68.1369 97.2773 68.2509C97.1146 68.4006 96.9844 68.5308 96.8867 68.6415C96.7891 68.7489 96.7142 68.8612 96.6621 68.9784C96.61 69.0988 96.5758 69.2356 96.5596 69.3885C96.5433 69.5383 96.5335 69.7303 96.5303 69.9647ZM96.4277 71.493C96.4277 71.6428 96.4733 71.7681 96.5645 71.869C96.6589 71.9699 96.7988 72.0204 96.9844 72.0204C97.1699 72.0204 97.3099 71.9699 97.4043 71.869C97.502 71.7681 97.5508 71.6428 97.5508 71.493C97.5508 71.3368 97.502 71.2066 97.4043 71.1024C97.3099 70.9983 97.1699 70.9462 96.9844 70.9462C96.7988 70.9462 96.6589 70.9983 96.5645 71.1024C96.4733 71.2066 96.4277 71.3368 96.4277 71.493Z" fill="white"/>
<path d="M46.4822 39.5841L49.6479 42.7482L52.8135 39.5841H46.4822Z" fill="white"/>
</svg>
