<svg width="19" height="19" viewBox="0 0 19 19" fill="none" xmlns="http://www.w3.org/2000/svg">
<path d="M5.19593 6.13622C4.94939 8.06214 5.53979 9.85187 6.6622 11.1942L0.537591 17.3156C-0.0268599 17.8798 0.823057 18.7228 1.38102 18.1586L7.50563 12.0372C8.84864 13.159 10.6393 13.7556 12.5662 13.5027C15.3885 13.1396 17.7112 10.9218 18.1783 8.11401C18.9244 3.63317 15.0771 -0.21217 10.5939 0.52707C7.78462 0.987474 5.55925 3.30895 5.18944 6.12973L5.19593 6.13622ZM17.0624 6.51881C17.3543 9.87133 14.584 12.6467 11.2232 12.3484C8.66697 12.128 6.57786 10.0399 6.35727 7.48501C6.06531 4.13249 8.83566 1.36358 12.1964 1.65539C14.7527 1.87586 16.8418 3.96389 17.0624 6.51881Z" fill="white"/>
</svg>
