<svg width="880" height="495" viewBox="0 0 880 495" fill="none" xmlns="http://www.w3.org/2000/svg">
<g clip-path="url(#clip0_11_12924)">
<path d="M880.458 0H0V495.458H880.458V0Z" fill="#EDF569"/>
<path d="M494.54 421.208C498.909 421.208 499.615 414.93 495.353 413.968C469.997 408.245 425.214 401.192 407.227 389.444C372.192 366.56 361.795 337.691 327.636 321.827C287.106 303.005 237.613 306.739 197.279 281.061C167 261.784 164.291 198.046 108.806 172.223C108.247 171.962 107.631 171.846 107.016 171.886C106.4 171.926 105.805 172.121 105.284 172.452C104.764 172.783 104.335 173.24 104.038 173.78C103.741 174.321 103.584 174.928 103.583 175.545V414.334C103.583 416.157 104.307 417.906 105.596 419.195C106.885 420.484 108.632 421.208 110.455 421.208H494.54Z" fill="#F3F6E7"/>
<path d="M244.93 421.208C245.341 421.205 245.739 421.064 246.06 420.808C246.382 420.552 246.608 420.195 246.703 419.795C246.798 419.395 246.756 418.975 246.584 418.601C246.412 418.228 246.12 417.923 245.754 417.735C217.449 401.879 201.489 409.117 184.995 400.853C163.379 390.024 165.048 382.988 144.118 366.253C131.696 356.32 116.631 357.97 107.047 338.89C106.86 338.524 106.556 338.232 106.183 338.06C105.81 337.888 105.39 337.846 104.991 337.942C104.592 338.037 104.236 338.263 103.98 338.585C103.725 338.907 103.585 339.305 103.583 339.716V418.719C103.583 419.046 103.648 419.37 103.773 419.672C103.898 419.974 104.081 420.248 104.312 420.479C104.543 420.71 104.817 420.894 105.119 421.019C105.421 421.144 105.744 421.208 106.071 421.208H244.93Z" fill="#BD99FF"/>
<path d="M767.255 74.25H402.87C399.076 74.25 396 77.3226 396 81.1128V272.721C396 276.511 399.076 279.583 402.87 279.583H767.255C771.049 279.583 774.125 276.511 774.125 272.721V81.1128C774.125 77.3226 771.049 74.25 767.255 74.25Z" fill="#BD99FF"/>
<path d="M573.905 74.25C595.279 74.25 597.722 97.7157 628.074 108.627C660.331 120.223 674.361 116.42 693.664 120.223C714.863 124.4 721.653 140.08 735.421 152.207C750.107 165.144 774.125 156.945 774.125 171.188V81.1128C774.125 79.2927 773.401 77.5471 772.113 76.2601C770.825 74.973 769.077 74.25 767.255 74.25H573.905Z" fill="#F3F6E7"/>
<path d="M561.229 289.669C559.371 289.669 557.554 289.118 556.009 288.086C554.464 287.054 553.259 285.586 552.548 283.87C551.837 282.153 551.65 280.264 552.013 278.441C552.375 276.618 553.27 274.944 554.584 273.63C555.897 272.316 557.571 271.421 559.394 271.058C561.217 270.695 563.106 270.881 564.823 271.591C566.54 272.302 568.007 273.506 569.04 275.051C570.073 276.596 570.625 278.412 570.625 280.271C570.623 282.762 569.632 285.151 567.871 286.913C566.109 288.675 563.721 289.666 561.229 289.669V289.669ZM561.229 275.541C560.293 275.541 559.378 275.818 558.599 276.338C557.821 276.859 557.214 277.598 556.856 278.463C556.498 279.328 556.404 280.279 556.587 281.197C556.77 282.116 557.221 282.959 557.883 283.621C558.545 284.283 559.389 284.733 560.307 284.915C561.225 285.098 562.177 285.004 563.042 284.645C563.906 284.286 564.645 283.679 565.165 282.901C565.685 282.122 565.962 281.207 565.961 280.271C565.96 279.016 565.461 277.813 564.574 276.926C563.687 276.039 562.484 275.54 561.229 275.539V275.541Z" fill="#F3F6E7"/>
<path d="M163.139 141.167H150.361C149.746 141.167 149.156 140.922 148.721 140.487C148.286 140.053 148.042 139.463 148.042 138.848V126.069C148.042 125.454 148.286 124.864 148.721 124.429C149.156 123.994 149.746 123.75 150.361 123.75H163.139C163.754 123.75 164.344 123.994 164.779 124.429C165.214 124.864 165.458 125.454 165.458 126.069V138.848C165.458 139.463 165.214 140.053 164.779 140.487C164.344 140.922 163.754 141.167 163.139 141.167ZM152.68 136.529H160.82V128.388H152.68V136.529Z" fill="#F3F6E7"/>
<path d="M462.379 318.77C461.531 318.97 460.578 318.722 459.892 318.044C458.913 317.015 459 315.369 460.044 314.441C464.629 310.215 480.41 294.752 498.702 276.757C509.908 265.779 522.602 253.298 534.198 241.967C535.231 240.989 536.809 240.985 537.838 242.002C538.817 243.03 538.818 244.603 537.797 245.631C526.201 256.962 513.495 269.394 502.339 280.359C483.998 298.366 468.178 313.891 463.544 318.129C463.203 318.471 462.778 318.676 462.379 318.77Z" fill="#383A48"/>
<path d="M771.019 420.292H761.19C760.609 420.292 760.052 420.061 759.641 419.65C759.231 419.24 759 418.683 759 418.102C759 417.521 759.231 416.964 759.641 416.554C760.052 416.143 760.609 415.912 761.19 415.912H768.829V408.273C768.829 407.692 769.06 407.135 769.47 406.725C769.881 406.314 770.438 406.083 771.019 406.083C771.599 406.083 772.156 406.314 772.567 406.725C772.978 407.135 773.208 407.692 773.208 408.273V418.102C773.208 418.389 773.152 418.674 773.042 418.94C772.932 419.206 772.77 419.447 772.567 419.65C772.364 419.854 772.122 420.015 771.857 420.125C771.591 420.235 771.306 420.292 771.019 420.292V420.292Z" fill="#383A47"/>
<path d="M108.168 134.75C107.56 134.75 106.977 134.508 106.547 134.078C106.117 133.648 105.875 133.065 105.875 132.457V77.0014C105.875 76.3933 106.117 75.81 106.547 75.3799C106.977 74.9499 107.56 74.7083 108.168 74.7083H163.623C164.232 74.7083 164.815 74.9499 165.245 75.3799C165.675 75.81 165.917 76.3933 165.917 77.0014C165.917 77.6096 165.675 78.1929 165.245 78.623C164.815 79.053 164.232 79.2946 163.623 79.2946H110.461V132.457C110.461 133.065 110.22 133.648 109.79 134.078C109.36 134.508 108.776 134.75 108.168 134.75V134.75Z" fill="#383A47"/>
<path d="M274.771 184.88C274.145 184.88 273.545 184.633 273.103 184.193C272.661 183.753 272.413 183.157 272.413 182.535V156.803C272.413 156.181 272.661 155.585 273.103 155.145C273.545 154.705 274.145 154.458 274.771 154.458C275.396 154.458 275.996 154.705 276.438 155.145C276.88 155.585 277.129 156.181 277.129 156.803V182.535C277.129 183.157 276.88 183.753 276.438 184.193C275.996 184.633 275.396 184.88 274.771 184.88V184.88Z" fill="#F6E258"/>
<path d="M258.215 189.292C257.801 189.292 257.394 189.184 257.035 188.978C256.676 188.772 256.378 188.476 256.171 188.119L243.233 165.834C243.076 165.568 242.973 165.273 242.931 164.966C242.889 164.66 242.908 164.348 242.988 164.049C243.067 163.75 243.205 163.47 243.394 163.224C243.583 162.979 243.819 162.772 244.088 162.618C244.358 162.463 244.655 162.363 244.963 162.323C245.272 162.283 245.585 162.305 245.885 162.386C246.185 162.467 246.466 162.606 246.712 162.795C246.958 162.985 247.163 163.221 247.317 163.49L260.255 185.774C260.462 186.13 260.571 186.534 260.571 186.946C260.571 187.357 260.462 187.761 260.256 188.118C260.049 188.474 259.752 188.77 259.394 188.976C259.035 189.182 258.629 189.291 258.215 189.291V189.292Z" fill="#F6E258"/>
<path d="M291.326 189.292C290.912 189.291 290.506 189.183 290.148 188.977C289.79 188.771 289.493 188.475 289.286 188.118C289.079 187.762 288.97 187.358 288.971 186.946C288.971 186.535 289.08 186.131 289.286 185.774L302.224 163.49C302.378 163.221 302.584 162.985 302.83 162.796C303.075 162.606 303.356 162.467 303.656 162.386C303.957 162.305 304.27 162.284 304.578 162.324C304.887 162.364 305.184 162.464 305.453 162.618C305.723 162.773 305.959 162.979 306.147 163.225C306.336 163.47 306.475 163.751 306.554 164.05C306.633 164.349 306.653 164.66 306.611 164.967C306.568 165.273 306.466 165.568 306.309 165.835L293.371 188.119C293.163 188.476 292.865 188.772 292.507 188.978C292.148 189.184 291.741 189.292 291.326 189.292V189.292Z" fill="#F6E258"/>
<path d="M339.726 133.833H324.399C324.015 133.833 323.637 133.731 323.304 133.536C322.971 133.342 322.694 133.062 322.502 132.724C322.31 132.387 322.208 132.005 322.208 131.615C322.208 131.226 322.31 130.843 322.502 130.506L330.166 117.067C330.358 116.73 330.634 116.45 330.967 116.256C331.3 116.061 331.678 115.958 332.063 115.958C332.447 115.958 332.825 116.061 333.158 116.256C333.491 116.45 333.768 116.73 333.96 117.067L341.623 130.506C341.815 130.843 341.917 131.226 341.917 131.615C341.917 132.005 341.815 132.387 341.623 132.724C341.431 133.062 341.154 133.342 340.821 133.536C340.488 133.731 340.11 133.833 339.726 133.833V133.833ZM328.193 129.397H335.932L332.063 122.613L328.193 129.397Z" fill="#F3F6E7"/>
<path d="M771.365 395.079H532.741L508.759 371.156L747.384 321.296L771.365 345.22V395.079Z" fill="#FF5100"/>
<path d="M771.365 397.375H532.741C532.131 397.375 531.546 397.133 531.114 396.703L507.132 372.779C506.839 372.487 506.63 372.121 506.528 371.719C506.426 371.318 506.435 370.897 506.554 370.501C506.672 370.104 506.896 369.747 507.201 369.467C507.506 369.186 507.882 368.994 508.288 368.909L746.912 319.049C747.286 318.971 747.674 318.987 748.04 319.096C748.407 319.205 748.74 319.403 749.01 319.673L772.992 343.596C773.206 343.809 773.376 344.062 773.491 344.341C773.607 344.619 773.667 344.918 773.667 345.22V395.079C773.667 395.688 773.424 396.272 772.993 396.703C772.561 397.133 771.976 397.375 771.365 397.375V397.375ZM533.695 392.784H769.064V346.17L746.637 323.797L513.394 372.533L533.695 392.784Z" fill="#383A47"/>
<path d="M747.383 321.296H508.759V371.156H747.383V321.296Z" fill="#F3F6E7"/>
<path d="M747.383 373.451H508.759C508.149 373.451 507.564 373.209 507.132 372.779C506.701 372.348 506.458 371.764 506.458 371.155V321.296C506.458 320.687 506.701 320.103 507.132 319.672C507.564 319.242 508.149 319 508.759 319H747.383C747.994 319 748.579 319.242 749.011 319.672C749.442 320.103 749.685 320.687 749.685 321.296V371.155C749.685 371.764 749.442 372.348 749.011 372.779C748.579 373.209 747.994 373.451 747.383 373.451ZM511.061 368.86H745.082V323.591H511.061V368.86Z" fill="#383A47"/>
<path d="M747.383 348.605H508.759V360.079H747.383V348.605Z" fill="#FF5100"/>
<path d="M747.383 362.375H508.759C508.149 362.375 507.564 362.133 507.132 361.703C506.701 361.272 506.458 360.688 506.458 360.079V348.605C506.458 347.996 506.701 347.412 507.132 346.982C507.564 346.551 508.149 346.31 508.759 346.31H747.383C747.994 346.31 748.579 346.551 749.011 346.982C749.442 347.412 749.685 347.996 749.685 348.605V360.079C749.685 360.688 749.442 361.272 749.011 361.703C748.579 362.133 747.994 362.375 747.383 362.375ZM511.061 357.784H745.082V350.901H511.061V357.784Z" fill="#383A47"/>
<path d="M522.331 339.813C525.226 339.813 527.572 337.472 527.572 334.585C527.572 331.697 525.226 329.356 522.331 329.356C519.437 329.356 517.09 331.697 517.09 334.585C517.09 337.472 519.437 339.813 522.331 339.813Z" fill="#4247F5"/>
<path d="M771.365 397.375C771.063 397.375 770.764 397.316 770.485 397.201C770.206 397.086 769.952 396.916 769.739 396.703L745.757 372.779C745.334 372.347 745.099 371.766 745.103 371.162C745.107 370.559 745.349 369.981 745.777 369.554C746.205 369.127 746.784 368.885 747.389 368.881C747.995 368.877 748.577 369.111 749.01 369.533L772.992 393.456C773.314 393.777 773.533 394.186 773.622 394.632C773.711 395.077 773.665 395.538 773.491 395.958C773.317 396.377 773.022 396.736 772.644 396.988C772.265 397.24 771.82 397.375 771.365 397.375V397.375Z" fill="#383A47"/>
<path d="M682.136 158.125H669.744V170.5H682.136V158.125Z" fill="#F3F6E7"/>
<path d="M669.744 195.25H657.352V207.625H669.744V195.25Z" fill="#F3F6E7"/>
<path d="M644.96 170.5H632.568V158.125H644.96H657.352H669.744V145.75H657.352H644.96H632.568H620.176V158.125V170.5V182.875V195.25V207.625H632.568V195.25V182.875H644.96V195.25H657.352V182.875H669.744V170.5H657.352H644.96Z" fill="#F3F6E7"/>
<path d="M601.588 158.125V170.5H589.196H576.804H564.412V158.125H552.02V170.5V182.875V195.25V207.625H564.412V195.25V182.875H576.804H589.196H601.588V195.25V207.625H613.98V195.25V182.875V170.5V158.125H601.588Z" fill="#F3F6E7"/>
<path d="M589.196 158.125H601.588V145.75H589.196H576.804H564.412V158.125H576.804H589.196Z" fill="#F3F6E7"/>
<path d="M533.432 145.75H521.04H508.648H496.256H483.864V158.125H496.256H508.648V170.5V182.875H521.04V170.5V158.125H533.432H545.824V145.75H533.432Z" fill="#F3F6E7"/>
<path d="M521.04 195.25H508.648V207.625H521.04V195.25Z" fill="#F3F6E7"/>
<path d="M737.899 145.75H725.508H713.116H700.724H688.332V158.125H700.724H713.116V170.5V182.875H725.508V170.5V158.125H737.899H750.292V145.75H737.899Z" fill="#F3F6E7"/>
<path d="M725.508 195.25H713.116V207.625H725.508V195.25Z" fill="#F3F6E7"/>
<path d="M477.668 182.875H465.276V195.25H477.668V182.875Z" fill="#F3F6E7"/>
<path d="M452.884 158.125H465.276H477.668V145.75H465.276H452.884H440.492H428.1V158.125H440.492H452.884Z" fill="#F3F6E7"/>
<path d="M440.492 195.25H428.1H415.708V207.625H428.1H440.492H452.884H465.276V195.25H452.884H440.492Z" fill="#F3F6E7"/>
<path d="M440.492 182.875H452.884H465.276V170.5H452.884H440.492H428.1V182.875H440.492Z" fill="#F3F6E7"/>
<path d="M428.1 158.125H415.708V170.5H428.1V158.125Z" fill="#F3F6E7"/>
<path d="M687.958 337.341C725.766 337.341 756.416 306.762 756.416 269.041C756.416 231.321 725.766 200.742 687.958 200.742C650.149 200.742 619.5 231.321 619.5 269.041C619.5 306.762 650.149 337.341 687.958 337.341Z" fill="#EDF569"/>
<path d="M688.058 339.625C674.291 339.632 660.821 335.638 649.293 328.13C637.765 320.622 628.679 309.926 623.146 297.349C607.501 261.696 623.846 219.991 659.583 204.382C695.319 188.773 737.121 205.08 752.765 240.734C757.476 251.468 759.434 263.204 758.463 274.882C757.491 286.561 753.62 297.814 747.2 307.626C740.779 317.439 732.011 325.502 721.686 331.088C711.36 336.675 699.804 339.609 688.058 339.625V339.625ZM687.863 203.029C678.76 203.031 669.756 204.917 661.421 208.569C627.999 223.167 612.713 262.171 627.344 295.516C634.418 311.5 647.554 324.034 663.874 330.371C680.194 336.709 698.367 336.333 714.41 329.326C730.453 322.319 743.057 309.252 749.461 292.99C755.864 276.727 755.544 258.596 748.571 242.568V242.568C743.395 230.806 734.898 220.804 724.117 213.782C713.336 206.76 700.738 203.024 687.863 203.029V203.029Z" fill="#383A47"/>
<path d="M707.258 315.309C706.732 315.31 706.221 315.129 705.813 314.799C705.404 314.468 705.122 314.007 705.014 313.493C704.906 312.979 704.979 312.443 705.22 311.977C705.461 311.51 705.856 311.14 706.338 310.93C713.517 307.797 719.771 302.88 724.504 296.65C724.685 296.409 724.911 296.206 725.171 296.052C725.431 295.899 725.718 295.798 726.017 295.756C726.316 295.714 726.62 295.731 726.912 295.806C727.204 295.881 727.479 296.014 727.72 296.195C727.96 296.377 728.163 296.604 728.315 296.864C728.468 297.124 728.567 297.411 728.608 297.71C728.649 298.008 728.63 298.311 728.553 298.602C728.476 298.894 728.342 299.167 728.159 299.406C722.953 306.26 716.073 311.669 708.175 315.117C707.886 315.244 707.574 315.309 707.258 315.309V315.309Z" fill="#383A47"/>
<path d="M665.284 286.956V277.999H656.306V286.956H665.284Z" fill="#383A47"/>
<path d="M656.306 286.956V277.999H647.328V286.956H656.306Z" fill="#383A47"/>
<path d="M647.329 286.956V277.999H638.351V286.956H647.329Z" fill="#383A47"/>
<path d="M638.35 286.956V277.999H629.372V286.956H638.35Z" fill="#383A47"/>
<path d="M674.263 277.999V269.042H665.284V277.999H674.263Z" fill="#383A47"/>
<path d="M665.284 277.999V269.041H656.306V277.999H665.284Z" fill="#383A47"/>
<path d="M656.307 277.999V269.041H647.329V277.999H656.307Z" fill="#383A47"/>
<path d="M647.329 277.999V269.042H638.351V277.999H647.329Z" fill="#383A47"/>
<path d="M638.351 277.999V269.041H629.372V277.999H638.351Z" fill="#383A47"/>
<path d="M683.24 269.041V260.084H674.262V269.041H683.24Z" fill="#383A47"/>
<path d="M674.262 269.042V260.084H665.284V269.042H674.262Z" fill="#383A47"/>
<path d="M665.284 269.042V260.084H656.306V269.042H665.284Z" fill="#383A47"/>
<path d="M656.306 269.041V260.084H647.328V269.041H656.306Z" fill="#383A47"/>
<path d="M647.328 269.042V260.084H638.35V269.042H647.328Z" fill="#383A47"/>
<path d="M638.351 269.042V260.084H629.372V269.042H638.351Z" fill="#383A47"/>
<path d="M683.24 260.084V251.127H674.262V260.084H683.24Z" fill="#383A47"/>
<path d="M692.218 260.084V251.127H683.24V260.084H692.218Z" fill="#383A47"/>
<path d="M674.263 260.084V251.127H665.284V260.084H674.263Z" fill="#383A47"/>
<path d="M629.373 277.999V269.042H620.395V277.999H629.373Z" fill="#383A47"/>
<path d="M620.394 269.042V260.084H611.416V269.042H620.394Z" fill="#383A47"/>
<path d="M629.372 269.042V260.084H620.394V269.042H629.372Z" fill="#383A47"/>
<path d="M620.395 260.084V251.127H611.417V260.084H620.395Z" fill="#383A47"/>
<path d="M629.372 260.085V251.128H620.394V260.085H629.372Z" fill="#383A47"/>
<path d="M665.284 260.084V251.127H656.306V260.084H665.284Z" fill="#383A47"/>
<path d="M656.306 260.084V251.127H647.328V260.084H656.306Z" fill="#383A47"/>
<path d="M647.329 260.084V251.127H638.351V260.084H647.329Z" fill="#383A47"/>
<path d="M638.351 260.084V251.127H629.372V260.084H638.351Z" fill="#383A47"/>
<path d="M719.152 286.956V277.999H710.174V286.956H719.152Z" fill="#383A47"/>
<path d="M728.13 286.956V277.999H719.152V286.956H728.13Z" fill="#383A47"/>
<path d="M737.108 286.956V277.999H728.13V286.956H737.108Z" fill="#383A47"/>
<path d="M746.085 286.956V277.999H737.107V286.956H746.085Z" fill="#383A47"/>
<path d="M710.174 277.999V269.041H701.196V277.999H710.174Z" fill="#383A47"/>
<path d="M719.152 277.999V269.042H710.174V277.999H719.152Z" fill="#383A47"/>
<path d="M728.13 277.999V269.041H719.152V277.999H728.13Z" fill="#383A47"/>
<path d="M737.108 277.999V269.041H728.13V277.999H737.108Z" fill="#383A47"/>
<path d="M746.086 277.999V269.042H737.108V277.999H746.086Z" fill="#383A47"/>
<path d="M701.196 269.042V260.084H692.218V269.042H701.196Z" fill="#383A47"/>
<path d="M710.174 269.042V260.084H701.196V269.042H710.174Z" fill="#383A47"/>
<path d="M719.152 269.042V260.084H710.174V269.042H719.152Z" fill="#383A47"/>
<path d="M728.13 269.041V260.084H719.152V269.041H728.13Z" fill="#383A47"/>
<path d="M737.108 269.042V260.084H728.13V269.042H737.108Z" fill="#383A47"/>
<path d="M746.085 269.042V260.084H737.107V269.042H746.085Z" fill="#383A47"/>
<path d="M701.196 260.085V251.128H692.218V260.085H701.196Z" fill="#383A47"/>
<path d="M710.174 260.084V251.127H701.196V260.084H710.174Z" fill="#383A47"/>
<path d="M755.064 277.999V269.041H746.085V277.999H755.064Z" fill="#383A47"/>
<path d="M764.041 269.042V260.084H755.063V269.042H764.041Z" fill="#383A47"/>
<path d="M755.064 269.041V260.084H746.085V269.041H755.064Z" fill="#383A47"/>
<path d="M764.042 260.084V251.127H755.064V260.084H764.042Z" fill="#383A47"/>
<path d="M755.064 260.084V251.127H746.085V260.084H755.064Z" fill="#383A47"/>
<path d="M719.152 260.084V251.127H710.174V260.084H719.152Z" fill="#383A47"/>
<path d="M728.13 260.084V251.127H719.152V260.084H728.13Z" fill="#383A47"/>
<path d="M737.108 260.084V251.127H728.13V260.084H737.108Z" fill="#383A47"/>
<path d="M746.086 260.084V251.127H737.108V260.084H746.086Z" fill="#383A47"/>
<path d="M188.443 173.706H173.179C171.349 173.706 169.558 174.228 168.015 175.21C166.472 176.193 165.242 177.595 164.47 179.252L154.245 201.19H207.376L197.152 179.252C196.38 177.595 195.15 176.193 193.607 175.21C192.064 174.228 190.272 173.706 188.443 173.706V173.706Z" fill="#BD99FF"/>
<path d="M207.376 203.479H154.245C153.86 203.479 153.481 203.382 153.144 203.197C152.806 203.012 152.521 202.745 152.314 202.42C152.107 202.096 151.985 201.725 151.959 201.341C151.934 200.957 152.006 200.573 152.168 200.224L162.393 178.286C163.354 176.237 164.878 174.503 166.788 173.286C168.698 172.07 170.914 171.422 173.179 171.417H188.443C190.708 171.422 192.925 172.07 194.835 173.287C196.744 174.503 198.269 176.237 199.229 178.286L209.453 200.224C209.616 200.573 209.688 200.957 209.662 201.341C209.637 201.725 209.515 202.096 209.308 202.42C209.101 202.745 208.816 203.012 208.478 203.197C208.14 203.382 207.761 203.479 207.376 203.479V203.479ZM157.839 198.901H203.782L195.076 180.218C194.486 178.958 193.548 177.892 192.374 177.144C191.199 176.396 189.836 175.997 188.443 175.994H173.179C171.787 175.997 170.424 176.396 169.249 177.144C168.075 177.892 167.137 178.958 166.547 180.218L157.839 198.901Z" fill="#383A47"/>
<path d="M375.995 173.706H360.731C358.902 173.706 357.11 174.228 355.567 175.21C354.024 176.193 352.794 177.595 352.022 179.252L341.798 201.19H394.929L384.704 179.252C383.932 177.595 382.702 176.193 381.159 175.21C379.616 174.227 377.824 173.705 375.995 173.706V173.706Z" fill="#BD99FF"/>
<path d="M394.929 203.479H341.798C341.413 203.479 341.034 203.382 340.696 203.197C340.359 203.012 340.073 202.745 339.866 202.42C339.659 202.096 339.537 201.725 339.512 201.341C339.486 200.957 339.558 200.573 339.721 200.224L349.945 178.286C350.906 176.237 352.43 174.503 354.34 173.286C356.25 172.07 358.467 171.422 360.732 171.417H375.995C378.26 171.422 380.476 172.07 382.386 173.286C384.296 174.503 385.821 176.237 386.781 178.286L397.006 200.224C397.169 200.573 397.241 200.957 397.215 201.341C397.19 201.725 397.068 202.096 396.861 202.42C396.654 202.745 396.368 203.012 396.03 203.197C395.693 203.382 395.314 203.479 394.929 203.479ZM345.392 198.901H391.335L382.629 180.218C382.038 178.958 381.1 177.891 379.926 177.144C378.751 176.396 377.388 175.997 375.995 175.994H360.731C359.339 175.997 357.976 176.396 356.801 177.144C355.627 177.892 354.69 178.958 354.099 180.218L345.392 198.901Z" fill="#383A47"/>
<path d="M438.703 382.107C437.769 391.8 433.257 400.799 426.044 407.351C418.831 413.902 409.435 417.536 399.687 417.544C383.479 417.544 370.008 407.514 364.011 392.472C360.325 383.222 355.911 372.213 350.349 361.174C349.27 359.033 348.15 356.889 346.983 354.76C342.126 345.899 336.47 337.236 329.787 329.669H219.294C202.724 348.443 192.442 373.969 185.07 392.473C182.245 399.749 177.383 406.059 171.065 410.649C164.748 415.166 157.166 417.579 149.398 417.545C139.649 417.537 130.253 413.903 123.04 407.352C115.828 400.8 111.315 391.8 110.382 382.107C103.369 310.32 113.741 238.401 132.065 202.784C132.37 202.148 132.698 201.526 133.048 200.918L133.083 200.849L133.086 200.853C135.556 196.583 139.107 193.038 143.383 190.573C147.659 188.108 152.508 186.809 157.445 186.809H212.322C215.198 186.808 217.997 187.739 220.298 189.462C222.6 191.185 224.281 193.607 225.088 196.364H225.092C225.9 199.122 227.581 201.543 229.882 203.265C232.184 204.987 234.983 205.918 237.858 205.918H311.223C314.099 205.918 316.898 204.987 319.2 203.265C321.502 201.543 323.184 199.122 323.993 196.364C324.802 193.607 326.484 191.186 328.786 189.463C331.088 187.741 333.887 186.81 336.763 186.81H391.64C396.576 186.812 401.424 188.11 405.699 190.574C409.974 193.039 413.526 196.582 415.997 200.85C416.008 200.873 416.024 200.896 416.035 200.919C416.382 201.528 416.714 202.149 417.018 202.785C435.344 238.401 445.713 310.32 438.703 382.107Z" fill="#F3F6E7"/>
<path d="M399.687 419.833C382.888 419.833 368.402 409.674 361.884 393.319C358.535 384.914 353.947 373.403 348.305 362.202C347.191 359.993 346.071 357.858 344.976 355.859C339.798 346.415 334.482 338.584 328.749 331.958H220.338C204.217 350.604 193.995 376.261 187.199 393.319C184.212 401.003 179.074 407.665 172.399 412.51C165.691 417.301 157.645 419.864 149.399 419.834C139.081 419.826 129.136 415.981 121.502 409.047C113.867 402.113 109.09 392.589 108.102 382.328C104.729 347.808 105.195 311.936 109.449 278.592C113.481 247.004 120.782 219.721 130.013 201.766C130.324 201.119 130.666 200.469 131.029 199.835C131.075 199.743 131.127 199.654 131.184 199.569C133.872 194.995 137.708 191.2 142.314 188.561C146.92 185.922 152.136 184.53 157.445 184.521H212.322C215.666 184.534 218.918 185.614 221.603 187.605C224.288 189.595 226.265 192.392 227.246 195.585C227.262 195.631 227.278 195.677 227.292 195.723C227.969 197.999 229.362 199.998 231.266 201.422C233.169 202.846 235.48 203.62 237.858 203.629H311.223C313.604 203.629 315.922 202.858 317.827 201.432C319.733 200.006 321.125 198.002 321.795 195.719C322.755 192.494 324.73 189.664 327.425 187.647C330.121 185.63 333.395 184.534 336.763 184.52H391.64C396.976 184.53 402.216 185.937 406.838 188.601C411.46 191.265 415.302 195.093 417.982 199.703C417.993 199.722 418.004 199.741 418.014 199.761C418.024 199.781 418.032 199.793 418.041 199.807C418.434 200.499 418.774 201.14 419.073 201.764C428.302 219.718 435.605 247.001 439.635 278.59C443.888 311.933 444.354 347.803 440.983 382.327C439.994 392.586 435.217 402.11 427.583 409.044C419.949 415.977 410.005 419.823 399.687 419.832V419.833ZM219.294 327.38H329.787C330.112 327.38 330.434 327.449 330.73 327.583C331.026 327.717 331.29 327.911 331.505 328.155C337.728 335.201 343.448 343.544 348.993 353.661C350.114 355.707 351.258 357.888 352.395 360.144C358.129 371.524 362.759 383.142 366.142 391.625C371.952 406.201 384.807 415.256 399.689 415.256C408.868 415.247 417.715 411.825 424.506 405.656C431.297 399.487 435.546 391.013 436.424 381.886V381.886C443.015 314.397 434.199 241.179 414.985 203.832C414.976 203.813 414.966 203.794 414.957 203.775C414.696 203.232 414.399 202.668 414.047 202.051L414.03 202.021C414.02 202.002 414.009 201.983 414 201.965C411.721 198.058 408.459 194.815 404.537 192.557C400.614 190.3 396.169 189.108 391.643 189.099H336.763C334.385 189.109 332.073 189.883 330.169 191.306C328.265 192.73 326.871 194.728 326.192 197.005C325.244 200.238 323.273 203.076 320.574 205.096C317.876 207.115 314.595 208.206 311.223 208.206H237.858C234.514 208.193 231.263 207.113 228.578 205.122C225.893 203.132 223.915 200.336 222.934 197.143C222.918 197.097 222.903 197.051 222.888 197.005C222.211 194.728 220.818 192.729 218.914 191.304C217.011 189.88 214.699 189.106 212.321 189.097H157.445C152.912 189.104 148.46 190.299 144.534 192.562C140.607 194.826 137.344 198.079 135.07 201.997C135.061 202.014 135.051 202.031 135.041 202.047L135.035 202.058C134.71 202.621 134.406 203.198 134.131 203.772C134.122 203.791 134.112 203.811 134.103 203.829C114.885 241.182 106.069 314.401 112.663 381.884C113.515 391.022 117.756 399.511 124.552 405.686C131.349 411.86 140.211 415.273 149.398 415.254C156.688 415.282 163.801 413.019 169.732 408.785C175.693 404.45 180.279 398.492 182.942 391.624C189.949 374.035 200.54 347.455 217.576 328.154C217.791 327.91 218.055 327.716 218.352 327.582C218.648 327.449 218.969 327.38 219.294 327.38V327.38Z" fill="#383A47"/>
<path d="M121.741 278.515C121.747 286.725 123.689 294.818 127.411 302.137C131.133 309.457 136.529 315.797 143.162 320.644C149.795 325.49 157.479 328.707 165.589 330.032C173.699 331.358 182.008 330.755 189.842 328.273C189.834 328.539 189.83 328.81 189.83 329.076C189.825 333.913 190.833 338.698 192.791 343.122C194.749 347.545 197.613 351.511 201.198 354.762C206.055 345.9 211.711 337.237 218.393 329.67H259.372C259.379 329.472 259.379 329.274 259.379 329.075C259.379 324.513 258.48 319.996 256.732 315.781C254.984 311.566 252.423 307.737 249.193 304.511C245.964 301.285 242.13 298.727 237.911 296.981C233.692 295.236 229.17 294.337 224.603 294.338C224.336 294.338 224.065 294.342 223.799 294.349C226.085 287.171 226.789 279.584 225.862 272.109C224.936 264.633 222.401 257.447 218.432 251.042C214.463 244.638 209.153 239.167 202.868 235.006C196.582 230.845 189.47 228.092 182.019 226.936C174.568 225.78 166.955 226.249 159.703 228.309C152.45 230.37 145.73 233.974 140.004 238.874C134.277 243.775 129.68 249.855 126.527 256.697C123.375 263.54 121.742 270.983 121.741 278.516V278.515Z" fill="#383A47"/>
<path d="M201.198 357.049C200.627 357.05 200.077 356.837 199.655 356.454C192.517 349.951 188.194 340.927 187.604 331.295C176.032 334.265 163.804 333.353 152.802 328.701C141.8 324.049 132.633 315.913 126.712 305.546C120.792 295.179 118.446 283.156 120.036 271.327C121.626 259.498 127.063 248.519 135.511 240.079C143.959 231.639 154.949 226.207 166.79 224.619C178.631 223.03 190.667 225.373 201.044 231.287C211.422 237.201 219.566 246.358 224.224 257.349C228.881 268.34 229.794 280.556 226.821 292.116C236.246 292.692 245.097 296.835 251.571 303.702C258.046 310.568 261.657 319.642 261.669 329.075C261.669 329.304 261.669 329.53 261.66 329.757C261.637 330.349 261.386 330.908 260.959 331.319C260.531 331.729 259.962 331.958 259.369 331.958H219.431C213.696 338.584 208.38 346.415 203.204 355.86C203.006 356.22 202.716 356.521 202.362 356.73C202.009 356.939 201.605 357.05 201.194 357.05L201.198 357.049ZM189.842 325.983C190.148 325.983 190.451 326.044 190.734 326.163C191.016 326.282 191.272 326.457 191.485 326.676C191.699 326.895 191.866 327.156 191.977 327.441C192.089 327.726 192.141 328.031 192.133 328.337C192.126 328.581 192.122 328.83 192.122 329.075C192.131 337.195 195.181 345.019 200.671 351.007C205.754 342.072 211.006 334.573 216.676 328.155C216.891 327.911 217.156 327.717 217.452 327.583C217.748 327.449 218.069 327.38 218.394 327.38H257.045C256.6 319.082 252.989 311.27 246.955 305.549C240.921 299.829 232.922 296.636 224.603 296.626C224.358 296.626 224.109 296.63 223.864 296.637C223.499 296.647 223.136 296.57 222.806 296.411C222.477 296.253 222.19 296.018 221.97 295.726C221.749 295.435 221.603 295.094 221.541 294.734C221.479 294.374 221.505 294.004 221.616 293.656C224.999 283.01 224.705 271.537 220.782 261.077C216.859 250.617 209.533 241.777 199.98 235.973C190.426 230.169 179.199 227.738 168.097 229.07C156.996 230.401 146.664 235.419 138.757 243.317C130.851 251.215 125.829 261.537 124.495 272.627C123.162 283.717 125.596 294.933 131.406 304.477C137.216 314.021 146.065 321.339 156.535 325.258C167.006 329.177 178.49 329.471 189.147 326.091C189.372 326.02 189.606 325.983 189.842 325.983V325.983Z" fill="#383A47"/>
<path d="M227.217 284.498C226.947 284.498 226.679 284.502 226.41 284.508C229.951 273.37 229.646 261.367 225.542 250.424C221.439 239.48 213.776 230.23 203.782 224.158C193.787 218.085 182.041 215.541 170.427 216.933C158.812 218.326 148.002 223.575 139.731 231.838C131.459 240.101 126.205 250.9 124.81 262.503C123.416 274.106 125.963 285.84 132.042 295.824C138.121 305.808 147.38 313.464 158.335 317.563C169.29 321.662 181.305 321.967 192.454 318.43C192.448 318.698 192.444 318.966 192.444 319.236C192.444 326.106 194.483 332.823 198.304 338.535C202.125 344.248 207.556 348.7 213.91 351.33C220.264 353.959 227.256 354.647 234.001 353.306C240.746 351.966 246.942 348.657 251.806 343.799C256.669 338.941 259.981 332.751 261.322 326.013C262.664 319.274 261.975 312.29 259.343 305.942C256.712 299.595 252.255 294.169 246.536 290.352C240.818 286.535 234.095 284.498 227.217 284.498V284.498Z" fill="#F3F6E7"/>
<path d="M227.217 356.263C217.774 356.252 208.691 352.645 201.817 346.177C194.943 339.71 190.795 330.868 190.219 321.452C178.645 324.424 166.414 323.514 155.409 318.861C144.403 314.209 135.234 306.072 129.312 295.703C123.389 285.334 121.042 273.308 122.632 261.476C124.222 249.644 129.661 238.662 138.111 230.221C146.561 221.779 157.554 216.346 169.398 214.758C181.242 213.169 193.28 215.513 203.659 221.43C214.039 227.346 222.184 236.506 226.842 247.5C231.499 258.494 232.41 270.713 229.435 282.275C239.056 282.851 248.074 287.148 254.576 294.255C261.078 301.362 264.554 310.72 264.265 320.344C263.977 329.968 259.947 339.101 253.031 345.807C246.114 352.512 236.855 356.263 227.217 356.263V356.263ZM192.454 316.141C192.759 316.141 193.062 316.202 193.343 316.32C193.625 316.439 193.88 316.612 194.093 316.83C194.307 317.049 194.474 317.307 194.586 317.591C194.698 317.875 194.752 318.178 194.745 318.483C194.74 318.734 194.735 318.984 194.735 319.236C194.735 325.654 196.64 331.928 200.21 337.264C203.779 342.6 208.852 346.759 214.787 349.215C220.723 351.671 227.254 352.314 233.555 351.062C239.855 349.81 245.643 346.719 250.186 342.181C254.729 337.643 257.822 331.861 259.076 325.566C260.329 319.272 259.686 312.748 257.227 306.818C254.769 300.889 250.605 295.821 245.264 292.255C239.922 288.69 233.642 286.787 227.218 286.787C226.965 286.787 226.714 286.79 226.462 286.796C226.097 286.805 225.736 286.726 225.408 286.566C225.08 286.407 224.795 286.172 224.577 285.88C224.358 285.588 224.212 285.249 224.152 284.89C224.091 284.53 224.117 284.162 224.227 283.815C227.612 273.166 227.32 261.69 223.396 251.227C219.473 240.764 212.146 231.92 202.59 226.114C193.034 220.308 181.804 217.876 170.699 219.208C159.595 220.54 149.259 225.558 141.351 233.459C133.442 241.359 128.419 251.684 127.086 262.778C125.753 273.871 128.188 285.09 134 294.636C139.813 304.182 148.665 311.501 159.139 315.42C169.613 319.34 181.101 319.632 191.76 316.25C191.984 316.178 192.219 316.141 192.454 316.141Z" fill="#383A47"/>
<path d="M206.833 268.678C206.827 276.273 203.955 283.586 198.789 289.158C193.623 294.73 186.544 298.151 178.964 298.738C171.384 299.325 163.862 297.036 157.898 292.326C151.933 287.616 147.967 280.833 146.788 273.33C145.61 265.827 147.308 258.156 151.542 251.848C155.777 245.541 162.236 241.06 169.632 239.301C177.028 237.542 184.816 238.633 191.441 242.358C198.067 246.082 203.043 252.166 205.376 259.394C206.345 262.393 206.837 265.526 206.833 268.678V268.678Z" fill="#BD99FF"/>
<path d="M176.605 301.161C168.425 301.156 160.548 298.069 154.547 292.517C148.545 286.965 144.86 279.356 144.227 271.209C143.594 263.062 146.059 254.977 151.131 248.566C156.203 242.155 163.509 237.891 171.59 236.624C179.67 235.358 187.932 237.182 194.726 241.733C201.52 246.283 206.346 253.226 208.241 261.175C210.136 269.124 208.96 277.495 204.949 284.617C200.938 291.738 194.386 297.086 186.601 299.594C183.372 300.636 179.998 301.165 176.605 301.161V301.161ZM176.605 240.769C169.578 240.774 162.812 243.426 157.657 248.196C152.502 252.966 149.336 259.502 148.793 266.5C148.25 273.499 150.368 280.445 154.725 285.951C159.083 291.458 165.358 295.121 172.3 296.209C179.242 297.297 186.339 295.729 192.175 291.82C198.01 287.911 202.156 281.946 203.784 275.118C205.412 268.29 204.402 261.099 200.956 254.981C197.511 248.864 191.883 244.269 185.195 242.115C182.42 241.219 179.521 240.765 176.605 240.769V240.769Z" fill="#383A47"/>
<path d="M426.44 278.515C426.434 286.725 424.492 294.818 420.77 302.137C417.048 309.457 411.652 315.797 405.019 320.644C398.385 325.49 390.702 328.707 382.592 330.032C374.481 331.358 366.173 330.755 358.339 328.273C358.347 328.539 358.351 328.81 358.351 329.076C358.356 333.913 357.347 338.698 355.39 343.122C353.432 347.545 350.568 351.511 346.983 354.762C342.126 345.901 336.47 337.237 329.787 329.67H288.809C288.801 329.472 288.801 329.275 288.801 329.075C288.801 324.513 289.701 319.996 291.449 315.781C293.197 311.566 295.759 307.736 298.988 304.51C302.218 301.285 306.052 298.726 310.271 296.981C314.491 295.235 319.013 294.337 323.58 294.338C323.847 294.338 324.117 294.342 324.384 294.349C322.099 287.171 321.395 279.584 322.321 272.109C323.248 264.634 325.783 257.447 329.752 251.043C333.721 244.639 339.031 239.168 345.316 235.007C351.601 230.846 358.713 228.093 366.164 226.937C373.615 225.782 381.228 226.25 388.48 228.311C395.733 230.371 402.453 233.975 408.179 238.875C413.906 243.775 418.503 249.855 421.656 256.698C424.808 263.54 426.441 270.983 426.442 278.516L426.44 278.515Z" fill="#383A47"/>
<path d="M346.983 357.049C346.572 357.049 346.169 356.938 345.815 356.729C345.462 356.52 345.171 356.219 344.974 355.859C339.796 346.414 334.481 338.583 328.747 331.957H288.809C288.216 331.957 287.647 331.728 287.219 331.318C286.792 330.907 286.541 330.348 286.518 329.756C286.509 329.527 286.508 329.301 286.508 329.074C286.521 319.641 290.131 310.567 296.606 303.7C303.08 296.834 311.93 292.69 321.355 292.114C318.384 280.556 319.298 268.343 323.955 257.355C328.613 246.367 336.756 237.212 347.131 231.3C357.507 225.388 369.54 223.046 381.378 224.634C393.217 226.223 404.205 231.654 412.651 240.092C421.097 248.53 426.533 259.506 428.123 271.333C429.713 283.159 427.368 295.18 421.449 305.545C415.531 315.91 406.366 324.044 395.367 328.696C384.367 333.349 372.142 334.261 360.573 331.293C359.983 340.925 355.661 349.949 348.524 356.452C348.103 356.836 347.553 357.048 346.983 357.049V357.049ZM291.136 327.38H329.787C330.112 327.38 330.434 327.449 330.73 327.583C331.026 327.716 331.29 327.911 331.505 328.155C337.175 334.575 342.428 342.07 347.511 351.007C353.001 345.018 356.05 337.195 356.059 329.075C356.059 328.83 356.056 328.581 356.049 328.336C356.038 327.971 356.116 327.609 356.274 327.279C356.433 326.95 356.668 326.663 356.961 326.443C357.253 326.223 357.593 326.076 357.954 326.015C358.315 325.954 358.685 325.979 359.034 326.09C369.691 329.47 381.175 329.176 391.645 325.257C402.115 321.337 410.964 314.019 416.773 304.476C422.583 294.932 425.016 283.716 423.683 272.626C422.35 261.537 417.327 251.215 409.421 243.317C401.515 235.419 391.183 230.402 380.082 229.071C368.981 227.739 357.753 230.171 348.2 235.974C338.647 241.778 331.322 250.619 327.399 261.078C323.476 271.537 323.182 283.01 326.565 293.656C326.676 294.004 326.702 294.374 326.64 294.734C326.579 295.094 326.432 295.434 326.211 295.726C325.991 296.018 325.704 296.253 325.375 296.411C325.045 296.57 324.682 296.647 324.317 296.637C324.072 296.63 323.823 296.626 323.578 296.626C315.259 296.636 307.26 299.829 301.226 305.549C295.192 311.27 291.581 319.082 291.136 327.38V327.38Z" fill="#383A47"/>
<path d="M227.217 340.106C238.755 340.106 248.109 330.762 248.109 319.236C248.109 307.71 238.755 298.366 227.217 298.366C215.679 298.366 206.326 307.71 206.326 319.236C206.326 330.762 215.679 340.106 227.217 340.106Z" fill="#383A47"/>
<path d="M227.217 342.395C222.632 342.395 218.15 341.037 214.337 338.492C210.525 335.947 207.553 332.33 205.798 328.098C204.044 323.867 203.585 319.21 204.479 314.717C205.374 310.225 207.582 306.098 210.824 302.859C214.066 299.62 218.197 297.415 222.694 296.521C227.191 295.627 231.852 296.086 236.089 297.839C240.325 299.592 243.946 302.56 246.493 306.369C249.04 310.178 250.4 314.655 250.4 319.236C250.393 325.376 247.948 331.262 243.602 335.604C239.256 339.946 233.363 342.388 227.217 342.395V342.395ZM227.217 300.654C223.538 300.654 219.942 301.744 216.883 303.785C213.824 305.827 211.44 308.729 210.032 312.125C208.624 315.52 208.255 319.256 208.973 322.861C209.691 326.465 211.462 329.776 214.064 332.375C216.665 334.974 219.979 336.744 223.588 337.461C227.196 338.178 230.936 337.81 234.335 336.404C237.734 334.997 240.639 332.615 242.683 329.56C244.727 326.504 245.818 322.911 245.818 319.236C245.812 314.309 243.851 309.586 240.363 306.103C236.876 302.619 232.149 300.66 227.217 300.654V300.654Z" fill="#383A47"/>
<path d="M372.478 216.476C364.26 216.481 356.158 218.421 348.831 222.139C341.504 225.857 335.157 231.248 330.306 237.875C325.454 244.502 322.235 252.178 320.909 260.28C319.583 268.382 320.188 276.683 322.674 284.508C322.405 284.502 322.137 284.498 321.867 284.498C314.989 284.498 308.266 286.535 302.548 290.352C296.829 294.169 292.372 299.595 289.74 305.942C287.108 312.29 286.42 319.274 287.762 326.013C289.103 332.751 292.415 338.941 297.278 343.799C302.141 348.658 308.337 351.966 315.083 353.306C321.828 354.647 328.82 353.959 335.174 351.33C341.528 348.7 346.959 344.248 350.78 338.535C354.601 332.823 356.64 326.106 356.64 319.236C356.64 318.966 356.636 318.698 356.63 318.43C363.815 320.714 371.411 321.417 378.894 320.492C386.377 319.566 393.572 317.034 399.983 313.069C406.394 309.103 411.87 303.799 416.036 297.52C420.201 291.241 422.957 284.136 424.114 276.692C425.271 269.248 424.802 261.643 422.739 254.397C420.676 247.152 417.067 240.439 412.162 234.718C407.256 228.997 401.169 224.405 394.319 221.256C387.469 218.107 380.018 216.476 372.478 216.476V216.476Z" fill="#F3F6E7"/>
<path d="M321.867 356.263C312.229 356.263 302.97 352.512 296.053 345.807C289.137 339.101 285.107 329.968 284.819 320.344C284.53 310.72 288.005 301.362 294.508 294.255C301.01 287.148 310.028 282.851 319.648 282.275C316.674 270.713 317.586 258.496 322.243 247.503C326.9 236.51 335.045 227.35 345.424 221.435C355.803 215.519 367.841 213.175 379.684 214.764C391.527 216.352 402.519 221.785 410.968 230.226C419.418 238.667 424.856 249.648 426.446 261.479C428.036 273.31 425.689 285.335 419.767 295.703C413.846 306.071 404.677 314.208 393.673 318.86C382.668 323.513 370.438 324.424 358.865 321.452C358.289 330.868 354.141 339.71 347.267 346.177C340.393 352.645 331.31 356.252 321.867 356.263V356.263ZM321.867 286.787C315.442 286.787 309.162 288.69 303.821 292.256C298.479 295.821 294.316 300.889 291.857 306.818C289.399 312.748 288.755 319.272 290.009 325.567C291.262 331.861 294.356 337.643 298.898 342.181C303.441 346.719 309.229 349.81 315.53 351.062C321.831 352.314 328.362 351.671 334.297 349.215C340.232 346.759 345.305 342.6 348.875 337.264C352.444 331.928 354.349 325.654 354.349 319.236C354.349 318.984 354.345 318.732 354.339 318.483C354.33 318.119 354.409 317.758 354.568 317.43C354.728 317.102 354.963 316.817 355.255 316.598C355.547 316.38 355.887 316.234 356.247 316.173C356.607 316.112 356.976 316.138 357.324 316.249C367.984 319.632 379.473 319.34 389.947 315.421C400.422 311.502 409.276 304.182 415.089 294.635C420.902 285.089 423.337 273.869 422.004 262.775C420.671 251.68 415.648 241.355 407.738 233.453C399.829 225.552 389.493 220.533 378.388 219.201C367.282 217.87 356.051 220.302 346.494 226.109C336.938 231.916 329.611 240.76 325.687 251.224C321.764 261.688 321.471 273.165 324.857 283.815C324.968 284.162 324.994 284.53 324.933 284.89C324.872 285.249 324.727 285.588 324.508 285.88C324.29 286.172 324.004 286.407 323.677 286.566C323.349 286.726 322.987 286.805 322.623 286.796C322.371 286.791 322.119 286.787 321.867 286.787Z" fill="#383A47"/>
<path d="M321.867 340.106C333.405 340.106 342.758 330.762 342.758 319.236C342.758 307.71 333.405 298.366 321.867 298.366C310.329 298.366 300.975 307.71 300.975 319.236C300.975 330.762 310.329 340.106 321.867 340.106Z" fill="#383A47"/>
<path d="M321.867 342.395C317.281 342.395 312.799 341.037 308.987 338.492C305.174 335.947 302.203 332.33 300.448 328.098C298.694 323.866 298.235 319.21 299.129 314.717C300.024 310.225 302.232 306.098 305.474 302.859C308.716 299.62 312.847 297.414 317.344 296.521C321.841 295.627 326.503 296.086 330.739 297.839C334.975 299.592 338.596 302.56 341.143 306.369C343.69 310.178 345.05 314.655 345.05 319.236C345.043 325.376 342.598 331.263 338.252 335.604C333.906 339.946 328.013 342.388 321.867 342.395V342.395ZM321.867 300.654C318.188 300.654 314.591 301.744 311.533 303.786C308.474 305.827 306.09 308.729 304.682 312.125C303.274 315.52 302.905 319.257 303.623 322.861C304.341 326.466 306.112 329.777 308.714 332.375C311.315 334.974 314.63 336.744 318.238 337.461C321.846 338.178 325.586 337.81 328.985 336.403C332.384 334.997 335.289 332.615 337.333 329.56C339.377 326.504 340.468 322.911 340.468 319.236C340.462 314.309 338.5 309.586 335.013 306.103C331.526 302.619 326.798 300.659 321.867 300.654Z" fill="#383A47"/>
<path d="M274.542 248.262C282.916 248.262 289.704 241.481 289.704 233.115C289.704 224.75 282.916 217.968 274.542 217.968C266.168 217.968 259.379 224.75 259.379 233.115C259.379 241.481 266.168 248.262 274.542 248.262Z" fill="#75DBC7"/>
<path d="M274.542 250.551C271.09 250.551 267.715 249.528 264.845 247.613C261.975 245.697 259.738 242.974 258.417 239.788C257.096 236.602 256.75 233.096 257.424 229.714C258.097 226.331 259.759 223.225 262.2 220.786C264.641 218.348 267.751 216.687 271.137 216.014C274.523 215.342 278.032 215.687 281.221 217.007C284.41 218.326 287.136 220.561 289.054 223.428C290.972 226.296 291.995 229.667 291.995 233.115C291.99 237.738 290.15 242.17 286.878 245.438C283.606 248.707 279.169 250.546 274.542 250.551ZM274.542 220.257C271.996 220.257 269.508 221.011 267.391 222.424C265.274 223.837 263.625 225.845 262.65 228.195C261.676 230.544 261.421 233.13 261.918 235.624C262.415 238.118 263.64 240.409 265.441 242.207C267.241 244.006 269.534 245.23 272.031 245.726C274.528 246.223 277.116 245.968 279.468 244.995C281.82 244.022 283.83 242.373 285.244 240.259C286.658 238.144 287.413 235.658 287.413 233.115C287.409 229.707 286.051 226.439 283.638 224.029C281.225 221.618 277.954 220.263 274.542 220.259V220.257Z" fill="#383A47"/>
<path d="M185.897 239.935V259.397H167.314V239.938C173.356 237.998 179.855 237.998 185.897 239.938V239.935Z" fill="#75DBC7"/>
<path d="M185.897 261.686H167.314C166.707 261.686 166.124 261.444 165.694 261.015C165.265 260.586 165.023 260.004 165.023 259.397V239.938C165.023 239.454 165.177 238.982 165.462 238.591C165.747 238.199 166.149 237.908 166.61 237.759C173.11 235.672 180.102 235.672 186.602 237.759C187.063 237.908 187.465 238.199 187.75 238.59C188.035 238.982 188.188 239.453 188.188 239.937V259.397C188.188 260.004 187.947 260.586 187.517 261.015C187.088 261.444 186.505 261.686 185.897 261.686ZM169.605 257.108H183.606V241.653C179.013 240.479 174.198 240.479 169.605 241.653V257.108Z" fill="#383A47"/>
<path d="M167.314 277.959H185.897V297.413C179.856 299.358 173.356 299.358 167.314 297.413V277.959Z" fill="#75DBC7"/>
<path d="M176.604 301.162C173.21 301.165 169.836 300.635 166.607 299.591C166.147 299.442 165.746 299.151 165.461 298.76C165.176 298.369 165.023 297.898 165.023 297.414V277.96C165.023 277.353 165.265 276.771 165.694 276.342C166.124 275.912 166.707 275.671 167.314 275.671H185.897C186.505 275.671 187.088 275.912 187.517 276.342C187.947 276.771 188.188 277.353 188.188 277.96V297.414C188.188 297.898 188.035 298.369 187.751 298.76C187.466 299.151 187.065 299.442 186.605 299.591C183.374 300.636 179.999 301.166 176.604 301.162V301.162ZM169.605 295.696C174.198 296.873 179.014 296.873 183.606 295.696V280.248H169.605V295.696Z" fill="#383A47"/>
<path d="M185.898 259.394H167.314V277.959H185.898V259.394Z" fill="#BD99FF"/>
<path d="M185.897 280.248H167.314C166.707 280.248 166.124 280.007 165.694 279.577C165.265 279.148 165.023 278.566 165.023 277.959V259.397C165.023 258.79 165.265 258.207 165.694 257.778C166.124 257.349 166.707 257.108 167.314 257.108H185.897C186.505 257.108 187.088 257.349 187.517 257.778C187.947 258.207 188.188 258.79 188.188 259.397V277.961C188.188 278.568 187.946 279.149 187.517 279.578C187.087 280.007 186.505 280.248 185.897 280.248V280.248ZM169.605 275.67H183.606V261.685H169.605V275.67Z" fill="#383A47"/>
<path d="M147.839 259.397H167.313V277.961H147.839C145.892 271.926 145.892 265.432 147.839 259.397V259.397Z" fill="#75DBC7"/>
<path d="M167.314 280.248H147.839C147.355 280.248 146.883 280.095 146.491 279.81C146.1 279.526 145.809 279.125 145.659 278.665C143.564 272.17 143.564 265.182 145.659 258.688C145.809 258.228 146.101 257.828 146.492 257.544C146.884 257.26 147.355 257.108 147.839 257.108H167.313C167.921 257.108 168.503 257.349 168.933 257.778C169.363 258.207 169.604 258.79 169.604 259.397V277.961C169.603 278.568 169.362 279.149 168.933 279.578C168.503 280.006 167.921 280.247 167.314 280.248V280.248ZM149.556 275.67H165.023V261.685H149.556C148.374 266.273 148.374 271.085 149.556 275.673L149.556 275.67Z" fill="#383A47"/>
<path d="M206.833 268.679C206.836 271.829 206.344 274.961 205.377 277.959H185.897V259.397H205.377C206.345 262.396 206.836 265.528 206.833 268.679V268.679Z" fill="#75DBC7"/>
<path d="M205.377 280.248H185.897C185.29 280.248 184.707 280.007 184.277 279.577C183.848 279.148 183.606 278.566 183.606 277.959V259.397C183.606 258.79 183.848 258.207 184.277 257.778C184.707 257.349 185.29 257.108 185.897 257.108H205.377C205.861 257.108 206.333 257.261 206.725 257.546C207.116 257.831 207.407 258.232 207.556 258.693C209.646 265.186 209.646 272.171 207.556 278.665C207.407 279.125 207.116 279.526 206.724 279.81C206.333 280.095 205.861 280.248 205.377 280.248V280.248ZM188.188 275.67H203.659C204.838 271.082 204.838 266.271 203.659 261.683H188.188V275.67Z" fill="#383A47"/>
<path d="M372.478 253.836C377.576 253.836 381.709 249.707 381.709 244.614C381.709 239.521 377.576 235.392 372.478 235.392C367.379 235.392 363.247 239.521 363.247 244.614C363.247 249.707 367.379 253.836 372.478 253.836Z" fill="#EDF569"/>
<path d="M372.477 256.124C370.198 256.124 367.971 255.449 366.076 254.184C364.181 252.92 362.704 251.122 361.832 249.019C360.96 246.915 360.732 244.601 361.176 242.368C361.621 240.135 362.718 238.084 364.33 236.474C365.941 234.865 367.994 233.768 370.229 233.324C372.465 232.88 374.781 233.108 376.887 233.979C378.992 234.85 380.792 236.326 382.058 238.219C383.324 240.112 384 242.337 384 244.614C383.996 247.665 382.781 250.591 380.621 252.749C378.461 254.907 375.532 256.121 372.477 256.124V256.124ZM372.477 237.681C371.105 237.681 369.763 238.088 368.622 238.849C367.48 239.611 366.591 240.694 366.065 241.961C365.54 243.228 365.403 244.622 365.671 245.967C365.938 247.312 366.599 248.547 367.57 249.517C368.541 250.486 369.777 251.147 371.124 251.414C372.47 251.682 373.865 251.544 375.133 251.019C376.402 250.495 377.486 249.606 378.248 248.466C379.011 247.325 379.418 245.985 379.417 244.614C379.415 242.776 378.684 241.013 377.382 239.714C376.081 238.414 374.317 237.683 372.477 237.681V237.681Z" fill="#383A47"/>
<path d="M348.391 277.898C353.489 277.898 357.622 273.769 357.622 268.676C357.622 263.583 353.489 259.454 348.391 259.454C343.292 259.454 339.159 263.583 339.159 268.676C339.159 273.769 343.292 277.898 348.391 277.898Z" fill="#75DBC7"/>
<path d="M348.391 280.187C346.112 280.187 343.884 279.512 341.989 278.248C340.094 276.983 338.616 275.186 337.744 273.082C336.872 270.979 336.643 268.665 337.088 266.432C337.532 264.199 338.629 262.148 340.241 260.538C341.852 258.928 343.905 257.831 346.14 257.387C348.375 256.943 350.692 257.17 352.798 258.042C354.903 258.913 356.703 260.388 357.969 262.281C359.235 264.174 359.911 266.4 359.911 268.676C359.908 271.728 358.693 274.653 356.533 276.811C354.373 278.969 351.445 280.183 348.391 280.187ZM348.391 261.744C347.018 261.743 345.676 262.149 344.534 262.911C343.393 263.673 342.503 264.755 341.977 266.022C341.452 267.289 341.314 268.683 341.582 270.028C341.849 271.373 342.51 272.609 343.481 273.579C344.451 274.548 345.688 275.209 347.034 275.476C348.381 275.744 349.776 275.607 351.045 275.082C352.313 274.557 353.397 273.669 354.159 272.528C354.922 271.388 355.329 270.048 355.329 268.676C355.327 266.838 354.595 265.076 353.295 263.777C351.994 262.477 350.23 261.746 348.391 261.744V261.744Z" fill="#383A47"/>
<path d="M396.564 277.898C401.663 277.898 405.796 273.769 405.796 268.676C405.796 263.583 401.663 259.454 396.564 259.454C391.466 259.454 387.333 263.583 387.333 268.676C387.333 273.769 391.466 277.898 396.564 277.898Z" fill="#FF5100"/>
<path d="M396.565 280.187C394.286 280.187 392.058 279.512 390.163 278.247C388.268 276.982 386.792 275.185 385.919 273.081C385.047 270.978 384.819 268.664 385.263 266.431C385.708 264.198 386.805 262.147 388.417 260.537C390.028 258.927 392.081 257.831 394.316 257.387C396.552 256.943 398.868 257.17 400.974 258.042C403.079 258.913 404.879 260.388 406.145 262.281C407.411 264.174 408.087 266.4 408.087 268.676C408.083 271.728 406.868 274.654 404.708 276.811C402.548 278.969 399.62 280.183 396.565 280.187V280.187ZM396.565 261.744C395.192 261.743 393.85 262.15 392.709 262.912C391.568 263.674 390.678 264.756 390.153 266.023C389.627 267.29 389.49 268.684 389.758 270.029C390.025 271.374 390.686 272.609 391.657 273.579C392.628 274.549 393.864 275.209 395.211 275.477C396.557 275.744 397.952 275.607 399.221 275.082C400.489 274.557 401.573 273.668 402.335 272.528C403.098 271.388 403.505 270.047 403.505 268.676C403.503 266.838 402.771 265.076 401.47 263.776C400.169 262.477 398.405 261.746 396.565 261.744V261.744Z" fill="#383A47"/>
<path d="M372.478 301.961C377.576 301.961 381.709 297.832 381.709 292.739C381.709 287.646 377.576 283.517 372.478 283.517C367.379 283.517 363.247 287.646 363.247 292.739C363.247 297.832 367.379 301.961 372.478 301.961Z" fill="#7FD7C3"/>
<path d="M372.477 304.25C370.198 304.25 367.971 303.574 366.076 302.31C364.181 301.045 362.704 299.247 361.832 297.144C360.96 295.041 360.732 292.726 361.176 290.493C361.621 288.26 362.718 286.209 364.33 284.6C365.941 282.99 367.994 281.894 370.229 281.449C372.465 281.005 374.781 281.233 376.887 282.104C378.992 282.976 380.792 284.451 382.058 286.344C383.324 288.237 384 290.462 384 292.739C383.996 295.791 382.781 298.716 380.621 300.874C378.461 303.032 375.532 304.246 372.477 304.25V304.25ZM372.477 285.806C371.105 285.806 369.763 286.213 368.622 286.975C367.48 287.737 366.591 288.819 366.065 290.086C365.54 291.353 365.403 292.747 365.671 294.092C365.938 295.437 366.599 296.672 367.57 297.642C368.541 298.612 369.777 299.272 371.124 299.539C372.47 299.807 373.865 299.669 375.133 299.145C376.402 298.62 377.486 297.731 378.248 296.591C379.011 295.451 379.418 294.11 379.417 292.739C379.415 290.901 378.684 289.139 377.382 287.839C376.081 286.539 374.317 285.808 372.477 285.806V285.806Z" fill="#383A47"/>
<path d="M256.485 263.411H246.029C242.989 263.411 240.524 265.873 240.524 268.911V270.213C240.524 273.25 242.989 275.712 246.029 275.712H256.485C259.525 275.712 261.99 273.25 261.99 270.213V268.911C261.99 265.873 259.525 263.411 256.485 263.411Z" fill="#383A47"/>
<path d="M256.484 278.001H246.029C243.962 277.999 241.98 277.178 240.519 275.717C239.057 274.257 238.235 272.278 238.233 270.213V268.911C238.235 266.846 239.057 264.866 240.519 263.406C241.98 261.946 243.962 261.124 246.029 261.122H256.484C258.552 261.124 260.533 261.946 261.995 263.406C263.457 264.866 264.279 266.846 264.281 268.911V270.213C264.279 272.278 263.457 274.257 261.995 275.717C260.533 277.178 258.552 277.999 256.484 278.001V278.001ZM246.029 265.7C245.177 265.701 244.36 266.039 243.757 266.641C243.155 267.243 242.816 268.059 242.815 268.911V270.213C242.816 271.064 243.155 271.88 243.757 272.482C244.36 273.084 245.177 273.423 246.029 273.424H256.484C257.337 273.423 258.154 273.084 258.756 272.482C259.359 271.88 259.698 271.064 259.699 270.213V268.911C259.698 268.059 259.359 267.243 258.756 266.641C258.154 266.039 257.337 265.701 256.484 265.7H246.029Z" fill="#383A47"/>
<path d="M303.055 263.411H292.599C289.558 263.411 287.093 265.873 287.093 268.911V270.213C287.093 273.25 289.558 275.712 292.599 275.712H303.055C306.095 275.712 308.56 273.25 308.56 270.213V268.911C308.56 265.873 306.095 263.411 303.055 263.411Z" fill="#383A47"/>
<path d="M303.055 278.001H292.599C290.532 277.999 288.55 277.178 287.088 275.717C285.627 274.257 284.805 272.278 284.802 270.213V268.911C284.805 266.846 285.627 264.866 287.088 263.406C288.55 261.946 290.532 261.124 292.599 261.122H303.054C305.121 261.124 307.103 261.946 308.565 263.406C310.026 264.866 310.848 266.846 310.851 268.911V270.213C310.848 272.278 310.026 274.257 308.565 275.717C307.103 277.177 305.122 277.999 303.055 278.001V278.001ZM292.599 265.7C291.747 265.701 290.93 266.039 290.327 266.641C289.724 267.243 289.385 268.059 289.384 268.911V270.213C289.385 271.064 289.724 271.88 290.327 272.482C290.93 273.084 291.747 273.423 292.599 273.424H303.054C303.906 273.423 304.723 273.084 305.326 272.482C305.929 271.88 306.267 271.064 306.268 270.213V268.911C306.267 268.059 305.929 267.243 305.326 266.641C304.723 266.039 303.906 265.701 303.054 265.7H292.599Z" fill="#383A47"/>
<path d="M210.286 113.208C209.974 113.209 209.664 113.147 209.375 113.028C209.087 112.908 208.824 112.733 208.603 112.512L195.489 99.3962C195.042 98.9498 194.791 98.3444 194.792 97.7131C194.792 97.0818 195.042 96.4764 195.489 96.03C195.935 95.5837 196.541 95.333 197.172 95.333C197.803 95.3331 198.409 95.5839 198.855 96.0303L211.969 109.145C212.302 109.478 212.529 109.902 212.621 110.364C212.713 110.826 212.666 111.304 212.485 111.739C212.305 112.174 212 112.546 211.609 112.807C211.217 113.069 210.757 113.208 210.286 113.208V113.208Z" fill="#F3F6E7"/>
<path d="M197.172 113.208C196.701 113.208 196.241 113.069 195.849 112.807C195.458 112.546 195.153 112.174 194.972 111.739C194.792 111.304 194.745 110.826 194.837 110.364C194.929 109.902 195.156 109.478 195.489 109.145L208.603 96.0302C208.824 95.8076 209.087 95.6308 209.376 95.5099C209.665 95.389 209.975 95.3264 210.289 95.3257C210.602 95.325 210.912 95.3862 211.202 95.5059C211.492 95.6255 211.755 95.8012 211.977 96.0228C212.198 96.2444 212.374 96.5077 212.494 96.7974C212.613 97.0871 212.674 97.3976 212.674 97.711C212.673 98.0244 212.611 98.3346 212.49 98.6238C212.369 98.913 212.192 99.1755 211.969 99.3961L198.855 112.511C198.634 112.733 198.372 112.908 198.083 113.028C197.794 113.147 197.484 113.209 197.172 113.208V113.208Z" fill="#F3F6E7"/>
<path d="M671.645 405.167C671.308 405.167 670.975 405.101 670.664 404.972C670.353 404.843 670.07 404.655 669.833 404.416L655.709 390.292C655.228 389.811 654.958 389.159 654.958 388.479C654.958 387.8 655.228 387.148 655.709 386.667C656.19 386.186 656.842 385.916 657.522 385.916C658.201 385.916 658.853 386.186 659.334 386.667L673.457 400.791C673.816 401.149 674.06 401.606 674.159 402.103C674.258 402.601 674.207 403.116 674.013 403.584C673.819 404.053 673.49 404.453 673.069 404.735C672.647 405.017 672.152 405.167 671.645 405.167V405.167Z" fill="#F3F6E7"/>
<path d="M657.521 405.167C657.014 405.167 656.519 405.016 656.097 404.735C655.676 404.453 655.347 404.053 655.153 403.584C654.959 403.116 654.908 402.601 655.007 402.103C655.106 401.606 655.35 401.149 655.709 400.791L669.833 386.667C670.07 386.427 670.353 386.237 670.664 386.107C670.976 385.977 671.31 385.909 671.647 385.908C671.985 385.908 672.319 385.974 672.631 386.102C672.943 386.231 673.227 386.421 673.465 386.659C673.704 386.898 673.893 387.181 674.022 387.493C674.151 387.805 674.217 388.14 674.216 388.477C674.215 388.815 674.148 389.149 674.018 389.46C673.887 389.772 673.697 390.054 673.457 390.292L659.334 404.416C659.096 404.654 658.814 404.843 658.503 404.972C658.192 405.101 657.858 405.167 657.521 405.167V405.167Z" fill="#F3F6E7"/>
</g>
<defs>
<clipPath id="clip0_11_12924">
<rect width="880" height="495" fill="white"/>
</clipPath>
</defs>
</svg>
