<svg width="880" height="495" viewBox="0 0 880 495" fill="none" xmlns="http://www.w3.org/2000/svg">
<g clip-path="url(#clip0_11_14897)">
<path d="M882.062 0H0V497.062H882.062V0Z" fill="#EDF569"/>
<path d="M449.361 406.496C448.949 407.229 448.172 407.688 447.348 407.688H162.957C129.564 407.688 102.438 380.471 102.438 347.068V108.166C102.438 106.883 103.444 105.875 104.725 105.875C119.363 105.875 132.537 108.899 143.973 114.901C154.22 120.308 163.369 128.281 171.099 138.544C183.359 154.764 192.37 176.758 199.552 207.64C206.734 238.522 221.921 260.974 244.702 274.445C255.177 280.63 265.881 284.113 275.122 286.174C282.395 287.824 288.708 288.603 293.328 289.153C295.249 289.382 296.896 289.565 298.222 289.794C317.343 292.864 334.452 297.309 349.685 303.128C368.44 310.275 384.359 319.577 397.762 331.123C418.712 349.222 429.965 369.657 439.846 387.664C443.048 393.529 446.113 399.073 449.27 404.114C449.727 404.847 449.727 405.717 449.361 406.496Z" fill="#F3F6E6"/>
<path d="M349.685 303.128V405.305C349.685 406.588 348.678 407.596 347.397 407.596H276.036C274.756 407.596 273.749 406.588 273.749 405.305V288.282C273.749 287.32 274.298 286.541 275.122 286.174C282.395 287.824 288.708 288.603 293.328 289.153C295.249 289.382 296.896 289.565 298.222 289.794C317.343 292.864 334.452 297.308 349.685 303.128Z" fill="#383A48"/>
<path d="M381.335 79.2854H268.352V157.902H381.335V79.2854Z" fill="#F3F6E6"/>
<path d="M381.335 160.187H268.352C267.07 160.187 266.062 159.182 266.062 157.902V79.2854C266.062 78.0056 267.07 77 268.352 77H381.335C382.617 77 383.625 78.0056 383.625 79.2854V157.902C383.625 159.182 382.617 160.187 381.335 160.187ZM270.642 155.617H379.045V81.5707H270.642V155.617Z" fill="#383A48"/>
<path d="M324.867 120.879C324.409 120.879 323.951 120.742 323.539 120.468L267.024 81.1594C265.971 80.4281 265.742 79.0112 266.475 77.9599C267.207 76.9086 268.627 76.6801 269.681 77.4114L324.867 115.806L380.007 77.4114C381.06 76.6801 382.48 76.9543 383.213 77.9599C383.946 79.0112 383.671 80.4281 382.663 81.1594L326.195 120.468C325.783 120.742 325.325 120.879 324.867 120.879Z" fill="#383A48"/>
<path d="M168.666 337.563C168.07 337.563 167.475 337.333 167.062 336.875C166.146 335.958 166.146 334.537 167.062 333.62C178.7 321.975 192.767 302.352 202.801 283.646C206.741 276.265 209.903 269.434 212.194 263.382C209.399 263.015 207.108 262.236 205.184 261.319C201.152 259.393 198.036 256.367 196.157 252.562C194.416 249.032 193.912 245.135 194.737 241.513C196.157 235.186 201.243 231.243 208.07 231.197C208.116 231.197 208.116 231.197 208.162 231.197C215.355 231.197 218.425 234.956 219.708 238.12C221.907 243.392 220.899 251.003 218.517 258.98C225.252 258.43 233.225 255.588 241.793 250.59C260.991 239.404 283.076 218.085 307.36 187.23C308.139 186.221 309.605 186.083 310.567 186.863C311.575 187.642 311.712 189.109 310.934 190.072C286.283 221.386 263.786 243.117 244.084 254.579C232.675 261.227 223.74 263.565 216.913 263.703C213.981 271.864 209.949 279.978 206.787 285.893C196.524 304.919 182.183 324.955 170.224 336.921C169.857 337.333 169.262 337.563 168.666 337.563ZM208.162 235.782C208.116 235.782 208.116 235.782 208.07 235.782C203.397 235.782 200.144 238.257 199.181 242.567C198.082 247.473 200.464 254.075 207.154 257.238C209.124 258.155 211.323 258.751 213.706 258.98C216.409 250.453 217.096 243.805 215.493 239.908C214.76 238.12 213.202 235.782 208.162 235.782Z" fill="#383A48"/>
<path d="M660.723 404.175L613.325 356.798C612.906 356.379 612.258 356.379 611.839 356.798C611.651 356.986 611.546 357.258 611.546 357.53V404.907C611.546 405.493 612.007 405.954 612.593 405.954H659.97C660.556 405.954 661.016 405.493 661.016 404.907C661.016 404.635 660.912 404.363 660.723 404.175Z" fill="#F3F6E6"/>
<path d="M659.97 407H612.593C611.442 407 610.5 406.058 610.5 404.907V357.53C610.5 356.965 610.709 356.442 611.107 356.044C611.923 355.228 613.262 355.228 614.078 356.044L661.456 403.422C661.853 403.819 662.063 404.342 662.063 404.907C662.063 406.058 661.121 407 659.97 407ZM612.593 357.53V404.907H659.97L660.702 404.175L659.97 404.907L612.593 357.53Z" fill="#F3F6E6"/>
<path d="M538.769 247.042H312.356V404.708H538.769V247.042Z" fill="#F3F6E6"/>
<path d="M538.769 407H312.356C311.072 407 310.062 405.992 310.062 404.708V247.042C310.062 245.758 311.072 244.75 312.356 244.75H538.769C540.053 244.75 541.063 245.758 541.063 247.042V404.708C541.063 405.992 540.053 407 538.769 407ZM314.65 402.417H536.475V249.333H314.65V402.417Z" fill="#383A48"/>
<path d="M425.54 328.167C425.081 328.167 424.622 328.029 424.209 327.754L311.026 248.921C309.971 248.188 309.741 246.767 310.475 245.713C311.209 244.658 312.632 244.429 313.687 245.163L425.54 323.079L537.438 245.163C538.493 244.429 539.916 244.704 540.65 245.713C541.384 246.767 541.108 248.188 540.099 248.921L426.87 327.754C426.457 328.029 425.998 328.167 425.54 328.167Z" fill="#383A48"/>
<path d="M425.54 348.792C438.209 348.792 448.479 338.532 448.479 325.875C448.479 313.219 438.209 302.958 425.54 302.958C412.87 302.958 402.6 313.219 402.6 325.875C402.6 338.532 412.87 348.792 425.54 348.792Z" fill="#7FD6C2"/>
<path d="M425.54 351.083C411.638 351.083 400.306 339.763 400.306 325.875C400.306 311.988 411.638 300.667 425.54 300.667C439.441 300.667 450.773 311.988 450.773 325.875C450.773 339.763 439.441 351.083 425.54 351.083ZM425.54 305.25C414.162 305.25 404.894 314.508 404.894 325.875C404.894 337.242 414.162 346.5 425.54 346.5C436.918 346.5 446.185 337.242 446.185 325.875C446.185 314.508 436.918 305.25 425.54 305.25Z" fill="#383A48"/>
<path d="M416.868 323.767L425.54 333.208L435.037 319.458" fill="#7FD6C2"/>
<path d="M425.54 335.5C424.897 335.5 424.301 335.225 423.842 334.767L415.171 325.325C414.299 324.408 414.391 322.942 415.309 322.071C416.226 321.2 417.694 321.292 418.566 322.208L425.31 329.542L433.155 318.175C433.889 317.121 435.312 316.892 436.367 317.579C437.422 318.313 437.652 319.733 436.963 320.788L427.466 334.538C427.054 335.133 426.411 335.454 425.723 335.5C425.631 335.5 425.585 335.5 425.54 335.5Z" fill="#F3F6E6"/>
<path d="M725.313 404.038C757.849 404.038 784.225 377.662 784.225 345.125C784.225 312.588 757.849 286.212 725.313 286.212C692.776 286.212 666.4 312.588 666.4 345.125C666.4 377.662 692.776 404.038 725.313 404.038Z" fill="#BD99FF"/>
<path d="M725.313 406.313C691.557 406.313 664.125 378.881 664.125 345.125C664.125 311.37 691.557 283.938 725.313 283.938C759.068 283.938 786.5 311.37 786.5 345.125C786.5 378.881 759.068 406.313 725.313 406.313ZM725.313 288.487C694.105 288.487 668.674 313.917 668.674 345.125C668.674 376.333 694.105 401.763 725.313 401.763C756.52 401.763 781.951 376.333 781.951 345.125C781.951 313.917 756.52 288.487 725.313 288.487Z" fill="#BD99FF"/>
<path d="M574.518 214.042H348.106V371.708H574.518V214.042Z" fill="#BD99FF" fill-opacity="0.25"/>
<path d="M574.519 374H348.106C346.822 374 345.812 372.992 345.812 371.708V214.042C345.812 212.758 346.822 211.75 348.106 211.75H574.519C575.803 211.75 576.813 212.758 576.813 214.042V371.708C576.813 372.992 575.803 374 574.519 374ZM350.4 369.417H572.225V216.333H350.4V369.417Z" fill="#383A48"/>
<path d="M461.29 295.167C460.831 295.167 460.372 295.029 459.959 294.754L346.776 215.921C345.721 215.188 345.491 213.767 346.225 212.713C346.959 211.658 348.382 211.429 349.437 212.163L461.29 290.079L573.188 212.163C574.243 211.429 575.665 211.704 576.4 212.713C577.134 213.767 576.858 215.188 575.849 215.921L462.62 294.754C462.207 295.029 461.748 295.167 461.29 295.167Z" fill="#383A48"/>
<path d="M461.29 315.792C473.959 315.792 484.229 305.531 484.229 292.875C484.229 280.218 473.959 269.958 461.29 269.958C448.62 269.958 438.35 280.218 438.35 292.875C438.35 305.531 448.62 315.792 461.29 315.792Z" fill="#7FD6C2"/>
<path d="M461.29 318.083C459.959 318.083 458.583 317.992 457.252 317.762C443.534 315.517 434.175 302.546 436.377 288.842L438.625 289.208L436.377 288.842C437.478 282.196 441.057 276.375 446.517 272.433C451.976 268.492 458.674 266.933 465.327 267.987C479.045 270.233 488.404 283.204 486.202 296.908C484.183 309.283 473.447 318.083 461.29 318.083ZM461.29 272.25C451.334 272.25 442.571 279.446 440.919 289.575C439.084 300.804 446.746 311.437 457.986 313.225C459.087 313.408 460.188 313.5 461.29 313.5C471.245 313.5 480.008 306.304 481.66 296.175C483.495 284.946 475.833 274.312 464.593 272.525C463.492 272.342 462.391 272.25 461.29 272.25Z" fill="#383A48"/>
<path d="M452.618 290.721L461.29 300.208L470.786 286.458" fill="#7FD6C2"/>
<path d="M461.29 302.5C460.647 302.5 460.051 302.225 459.592 301.767L450.921 292.279C450.049 291.363 450.141 289.896 451.059 289.025C451.976 288.154 453.444 288.246 454.316 289.163L461.06 296.542L468.905 285.175C469.639 284.121 471.062 283.892 472.117 284.579C473.172 285.313 473.402 286.733 472.713 287.788L463.216 301.538C462.804 302.133 462.161 302.454 461.473 302.5C461.381 302.5 461.335 302.5 461.29 302.5Z" fill="#F3F6E6"/>
<path d="M611.644 183.104H385.231V340.771H611.644V183.104Z" fill="#BD99FF" fill-opacity="0.5"/>
<path d="M611.644 343.062H385.231C383.947 343.062 382.938 342.054 382.938 340.771V183.104C382.938 181.821 383.947 180.812 385.231 180.812H611.644C612.928 180.812 613.938 181.821 613.938 183.104V340.771C613.938 342.054 612.928 343.062 611.644 343.062ZM387.525 338.479H609.35V185.396H387.525V338.479Z" fill="#383A48"/>
<path d="M498.415 264.229C497.956 264.229 497.497 264.092 497.084 263.817L383.901 184.983C382.846 184.25 382.616 182.829 383.35 181.775C384.084 180.721 385.507 180.492 386.562 181.225L498.415 259.142L610.313 181.225C611.368 180.492 612.791 180.767 613.525 181.775C614.259 182.829 613.983 184.25 612.974 184.983L499.745 263.817C499.332 264.092 498.873 264.229 498.415 264.229Z" fill="#383A48"/>
<path d="M498.415 284.854C511.084 284.854 521.354 274.594 521.354 261.937C521.354 249.281 511.084 239.021 498.415 239.021C485.745 239.021 475.475 249.281 475.475 261.937C475.475 274.594 485.745 284.854 498.415 284.854Z" fill="#7FD6C2"/>
<path d="M498.415 287.146C497.084 287.146 495.708 287.054 494.377 286.825C480.659 284.579 471.3 271.608 473.502 257.904L475.75 258.271L473.502 257.904C474.603 251.258 478.182 245.437 483.642 241.496C489.101 237.554 495.799 235.996 502.452 237.05C516.17 239.296 525.529 252.267 523.327 265.971C521.308 278.346 510.572 287.146 498.415 287.146ZM498.415 241.312C488.459 241.312 479.696 248.508 478.044 258.637C476.209 269.867 483.871 280.5 495.111 282.287C496.212 282.471 497.313 282.562 498.415 282.562C508.37 282.562 517.133 275.367 518.785 265.237C520.62 254.008 512.958 243.375 501.718 241.587C500.617 241.404 499.516 241.312 498.415 241.312Z" fill="#383A48"/>
<path d="M489.743 259.783L498.415 269.271L507.911 255.521" fill="#7FD6C2"/>
<path d="M498.415 271.563C497.772 271.563 497.176 271.288 496.717 270.829L488.046 261.342C487.174 260.425 487.266 258.958 488.184 258.088C489.101 257.217 490.569 257.308 491.441 258.225L498.185 265.604L506.03 254.238C506.765 253.183 508.187 252.954 509.242 253.642C510.297 254.375 510.527 255.796 509.838 256.85L500.342 270.6C499.929 271.196 499.286 271.517 498.598 271.563C498.506 271.563 498.46 271.563 498.415 271.563Z" fill="#D9E9F2"/>
<path d="M652.894 150.792H426.481V308.458H652.894V150.792Z" fill="#BD99FF"/>
<path d="M652.894 310.75H426.481C425.197 310.75 424.188 309.742 424.188 308.458V150.792C424.188 149.508 425.197 148.5 426.481 148.5H652.894C654.178 148.5 655.188 149.508 655.188 150.792V308.458C655.188 309.742 654.178 310.75 652.894 310.75ZM428.775 306.167H650.6V153.083H428.775V306.167Z" fill="#383A48"/>
<path d="M539.665 231.917C539.206 231.917 538.747 231.779 538.334 231.504L425.151 152.671C424.096 151.938 423.866 150.517 424.6 149.463C425.334 148.408 426.757 148.179 427.812 148.913L539.665 226.829L651.563 148.913C652.618 148.179 654.041 148.454 654.775 149.463C655.509 150.517 655.233 151.938 654.224 152.671L540.995 231.504C540.582 231.779 540.123 231.917 539.665 231.917Z" fill="#383A48"/>
<path d="M539.665 252.542C552.334 252.542 562.604 242.281 562.604 229.625C562.604 216.968 552.334 206.708 539.665 206.708C526.995 206.708 516.725 216.968 516.725 229.625C516.725 242.281 526.995 252.542 539.665 252.542Z" fill="#7FD6C2"/>
<path d="M539.665 254.833C538.334 254.833 536.958 254.742 535.627 254.512C521.909 252.267 512.55 239.296 514.752 225.592L517 225.958L514.752 225.592C515.853 218.946 519.432 213.125 524.892 209.183C530.351 205.242 537.049 203.683 543.702 204.737C557.42 206.983 566.779 219.954 564.577 233.658C562.558 246.033 551.822 254.833 539.665 254.833ZM539.665 209C529.709 209 520.946 216.196 519.294 226.325C517.459 237.554 525.121 248.187 536.361 249.975C537.462 250.158 538.563 250.25 539.665 250.25C549.62 250.25 558.383 243.054 560.035 232.925C561.87 221.696 554.208 211.062 542.968 209.275C541.867 209.092 540.766 209 539.665 209Z" fill="#383A48"/>
<path d="M530.993 227.471L539.665 236.958L549.161 223.208" fill="#7FD6C2"/>
<path d="M539.665 239.25C539.022 239.25 538.426 238.975 537.967 238.517L529.296 229.029C528.424 228.113 528.516 226.646 529.434 225.775C530.351 224.904 531.819 224.996 532.691 225.913L539.435 233.292L547.28 221.925C548.015 220.871 549.437 220.642 550.492 221.329C551.547 222.063 551.777 223.483 551.088 224.538L541.592 238.287C541.179 238.883 540.536 239.204 539.848 239.25C539.756 239.25 539.71 239.25 539.665 239.25Z" fill="#C2D6F5"/>
<path d="M696.206 114.354H469.794V272.021H696.206V114.354Z" fill="#F3F6E6"/>
<path d="M696.206 274.312H469.794C468.509 274.312 467.5 273.304 467.5 272.021V114.354C467.5 113.071 468.509 112.062 469.794 112.062H696.206C697.491 112.062 698.5 113.071 698.5 114.354V272.021C698.5 273.304 697.491 274.312 696.206 274.312ZM472.088 269.729H693.912V116.646H472.088V269.729Z" fill="#383A48"/>
<path d="M582.977 195.479C582.518 195.479 582.06 195.342 581.647 195.067L468.463 116.233C467.408 115.5 467.179 114.079 467.913 113.025C468.647 111.971 470.069 111.742 471.124 112.475L582.977 190.392L694.876 112.475C695.931 111.742 697.353 112.017 698.087 113.025C698.821 114.079 698.546 115.5 697.537 116.233L584.308 195.067C583.895 195.342 583.436 195.479 582.977 195.479Z" fill="#383A48"/>
<path d="M582.977 216.104C595.646 216.104 605.917 205.844 605.917 193.188C605.917 180.531 595.646 170.271 582.977 170.271C570.308 170.271 560.038 180.531 560.038 193.188C560.038 205.844 570.308 216.104 582.977 216.104Z" fill="#FF5100"/>
<path d="M582.977 218.396C569.076 218.396 557.744 207.075 557.744 193.188C557.744 179.3 569.076 167.979 582.977 167.979C596.878 167.979 608.21 179.3 608.21 193.188C608.21 207.075 596.878 218.396 582.977 218.396ZM582.977 172.563C571.599 172.563 562.332 181.821 562.332 193.188C562.332 204.554 571.599 213.813 582.977 213.813C594.355 213.813 603.623 204.554 603.623 193.188C603.623 181.821 594.355 172.563 582.977 172.563Z" fill="#383A48"/>
<path d="M574.306 191.079L582.977 200.521L592.474 186.771" fill="#FF5100"/>
<path d="M582.977 202.812C582.335 202.812 581.738 202.537 581.28 202.079L572.608 192.638C571.737 191.721 571.829 190.254 572.746 189.383C573.664 188.513 575.132 188.604 576.003 189.521L582.748 196.854L590.593 185.488C591.327 184.433 592.749 184.204 593.804 184.892C594.86 185.625 595.089 187.046 594.401 188.1L584.904 201.85C584.491 202.446 583.849 202.767 583.161 202.812C583.069 202.812 583.023 202.812 582.977 202.812Z" fill="#F3F6E6"/>
<path d="M644.642 282.85C645.91 282.85 646.938 281.823 646.938 280.556C646.938 279.289 645.91 278.261 644.642 278.261C643.374 278.261 642.347 279.289 642.347 280.556C642.347 281.823 643.374 282.85 644.642 282.85Z" fill="#383A48"/>
<path d="M644.642 294.137C645.91 294.137 646.938 293.11 646.938 291.843C646.938 290.576 645.91 289.549 644.642 289.549C643.374 289.549 642.347 290.576 642.347 291.843C642.347 293.11 643.374 294.137 644.642 294.137Z" fill="#383A48"/>
<path d="M644.642 305.47C645.91 305.47 646.938 304.443 646.938 303.176C646.938 301.909 645.91 300.882 644.642 300.882C643.374 300.882 642.347 301.909 642.347 303.176C642.347 304.443 643.374 305.47 644.642 305.47Z" fill="#383A48"/>
<path d="M633.348 282.85C634.616 282.85 635.644 281.823 635.644 280.556C635.644 279.289 634.616 278.261 633.348 278.261C632.081 278.261 631.053 279.289 631.053 280.556C631.053 281.823 632.081 282.85 633.348 282.85Z" fill="#383A48"/>
<path d="M633.348 294.137C634.616 294.137 635.644 293.11 635.644 291.843C635.644 290.576 634.616 289.549 633.348 289.549C632.081 289.549 631.053 290.576 631.053 291.843C631.053 293.11 632.081 294.137 633.348 294.137Z" fill="#383A48"/>
<path d="M633.348 305.47C634.616 305.47 635.644 304.443 635.644 303.176C635.644 301.909 634.616 300.882 633.348 300.882C632.081 300.882 631.053 301.909 631.053 303.176C631.053 304.443 632.081 305.47 633.348 305.47Z" fill="#383A48"/>
<path d="M622.009 282.85C623.277 282.85 624.304 281.823 624.304 280.556C624.304 279.289 623.277 278.261 622.009 278.261C620.741 278.261 619.713 279.289 619.713 280.556C619.713 281.823 620.741 282.85 622.009 282.85Z" fill="#383A48"/>
<path d="M622.009 294.137C623.277 294.137 624.304 293.11 624.304 291.843C624.304 290.576 623.277 289.549 622.009 289.549C620.741 289.549 619.713 290.576 619.713 291.843C619.713 293.11 620.741 294.137 622.009 294.137Z" fill="#383A48"/>
<path d="M622.009 305.47C623.277 305.47 624.304 304.443 624.304 303.176C624.304 301.909 623.277 300.882 622.009 300.882C620.741 300.882 619.713 301.909 619.713 303.176C619.713 304.443 620.741 305.47 622.009 305.47Z" fill="#383A48"/>
<path d="M610.669 282.85C611.937 282.85 612.965 281.823 612.965 280.556C612.965 279.289 611.937 278.261 610.669 278.261C609.402 278.261 608.374 279.289 608.374 280.556C608.374 281.823 609.402 282.85 610.669 282.85Z" fill="#383A48"/>
<path d="M610.669 294.137C611.937 294.137 612.965 293.11 612.965 291.843C612.965 290.576 611.937 289.549 610.669 289.549C609.402 289.549 608.374 290.576 608.374 291.843C608.374 293.11 609.402 294.137 610.669 294.137Z" fill="#383A48"/>
<path d="M610.669 305.47C611.937 305.47 612.965 304.443 612.965 303.176C612.965 301.909 611.937 300.882 610.669 300.882C609.402 300.882 608.374 301.909 608.374 303.176C608.374 304.443 609.402 305.47 610.669 305.47Z" fill="#383A48"/>
<path d="M607.915 316.804C609.183 316.804 610.21 315.777 610.21 314.509C610.21 313.242 609.183 312.215 607.915 312.215C606.647 312.215 605.619 313.242 605.619 314.509C605.619 315.777 606.647 316.804 607.915 316.804Z" fill="#383A48"/>
<path d="M607.915 328.091C609.183 328.091 610.21 327.064 610.21 325.797C610.21 324.53 609.183 323.502 607.915 323.502C606.647 323.502 605.619 324.53 605.619 325.797C605.619 327.064 606.647 328.091 607.915 328.091Z" fill="#383A48"/>
<path d="M607.915 339.424C609.183 339.424 610.21 338.397 610.21 337.13C610.21 335.863 609.183 334.836 607.915 334.836C606.647 334.836 605.619 335.863 605.619 337.13C605.619 338.397 606.647 339.424 607.915 339.424Z" fill="#383A48"/>
<path d="M599.376 282.85C600.643 282.85 601.671 281.823 601.671 280.556C601.671 279.289 600.643 278.261 599.376 278.261C598.108 278.261 597.08 279.289 597.08 280.556C597.08 281.823 598.108 282.85 599.376 282.85Z" fill="#383A48"/>
<path d="M599.376 294.137C600.643 294.137 601.671 293.11 601.671 291.843C601.671 290.576 600.643 289.549 599.376 289.549C598.108 289.549 597.08 290.576 597.08 291.843C597.08 293.11 598.108 294.137 599.376 294.137Z" fill="#383A48"/>
<path d="M599.376 305.47C600.643 305.47 601.671 304.443 601.671 303.176C601.671 301.909 600.643 300.882 599.376 300.882C598.108 300.882 597.08 301.909 597.08 303.176C597.08 304.443 598.108 305.47 599.376 305.47Z" fill="#383A48"/>
<path d="M596.621 316.804C597.889 316.804 598.917 315.777 598.917 314.509C598.917 313.242 597.889 312.215 596.621 312.215C595.353 312.215 594.326 313.242 594.326 314.509C594.326 315.777 595.353 316.804 596.621 316.804Z" fill="#383A48"/>
<path d="M596.621 328.091C597.889 328.091 598.917 327.064 598.917 325.797C598.917 324.53 597.889 323.502 596.621 323.502C595.353 323.502 594.326 324.53 594.326 325.797C594.326 327.064 595.353 328.091 596.621 328.091Z" fill="#383A48"/>
<path d="M596.621 339.424C597.889 339.424 598.917 338.397 598.917 337.13C598.917 335.863 597.889 334.836 596.621 334.836C595.353 334.836 594.326 335.863 594.326 337.13C594.326 338.397 595.353 339.424 596.621 339.424Z" fill="#383A48"/>
<path d="M588.036 282.85C589.304 282.85 590.332 281.823 590.332 280.556C590.332 279.289 589.304 278.261 588.036 278.261C586.768 278.261 585.741 279.289 585.741 280.556C585.741 281.823 586.768 282.85 588.036 282.85Z" fill="#383A48"/>
<path d="M588.036 294.137C589.304 294.137 590.332 293.11 590.332 291.843C590.332 290.576 589.304 289.549 588.036 289.549C586.768 289.549 585.741 290.576 585.741 291.843C585.741 293.11 586.768 294.137 588.036 294.137Z" fill="#383A48"/>
<path d="M588.036 305.47C589.304 305.47 590.332 304.443 590.332 303.176C590.332 301.909 589.304 300.882 588.036 300.882C586.768 300.882 585.741 301.909 585.741 303.176C585.741 304.443 586.768 305.47 588.036 305.47Z" fill="#383A48"/>
<path d="M585.282 316.804C586.549 316.804 587.577 315.777 587.577 314.509C587.577 313.242 586.549 312.215 585.282 312.215C584.014 312.215 582.986 313.242 582.986 314.509C582.986 315.777 584.014 316.804 585.282 316.804Z" fill="#383A48"/>
<path d="M585.282 328.091C586.549 328.091 587.577 327.064 587.577 325.797C587.577 324.53 586.549 323.502 585.282 323.502C584.014 323.502 582.986 324.53 582.986 325.797C582.986 327.064 584.014 328.091 585.282 328.091Z" fill="#383A48"/>
<path d="M585.282 339.424C586.549 339.424 587.577 338.397 587.577 337.13C587.577 335.863 586.549 334.836 585.282 334.836C584.014 334.836 582.986 335.863 582.986 337.13C582.986 338.397 584.014 339.424 585.282 339.424Z" fill="#383A48"/>
<path d="M576.697 282.85C577.964 282.85 578.992 281.823 578.992 280.556C578.992 279.289 577.964 278.261 576.697 278.261C575.429 278.261 574.401 279.289 574.401 280.556C574.401 281.823 575.429 282.85 576.697 282.85Z" fill="#383A48"/>
<path d="M576.697 294.137C577.964 294.137 578.992 293.11 578.992 291.843C578.992 290.576 577.964 289.549 576.697 289.549C575.429 289.549 574.401 290.576 574.401 291.843C574.401 293.11 575.429 294.137 576.697 294.137Z" fill="#383A48"/>
<path d="M576.697 305.47C577.964 305.47 578.992 304.443 578.992 303.176C578.992 301.909 577.964 300.882 576.697 300.882C575.429 300.882 574.401 301.909 574.401 303.176C574.401 304.443 575.429 305.47 576.697 305.47Z" fill="#383A48"/>
<path d="M573.942 316.804C575.21 316.804 576.238 315.777 576.238 314.509C576.238 313.242 575.21 312.215 573.942 312.215C572.674 312.215 571.647 313.242 571.647 314.509C571.647 315.777 572.674 316.804 573.942 316.804Z" fill="#383A48"/>
<path d="M573.942 328.091C575.21 328.091 576.238 327.064 576.238 325.797C576.238 324.53 575.21 323.502 573.942 323.502C572.674 323.502 571.647 324.53 571.647 325.797C571.647 327.064 572.674 328.091 573.942 328.091Z" fill="#383A48"/>
<path d="M573.942 339.424C575.21 339.424 576.238 338.397 576.238 337.13C576.238 335.863 575.21 334.836 573.942 334.836C572.674 334.836 571.647 335.863 571.647 337.13C571.647 338.397 572.674 339.424 573.942 339.424Z" fill="#383A48"/>
<path d="M565.403 282.85C566.671 282.85 567.698 281.823 567.698 280.556C567.698 279.289 566.671 278.261 565.403 278.261C564.135 278.261 563.108 279.289 563.108 280.556C563.108 281.823 564.135 282.85 565.403 282.85Z" fill="#383A48"/>
<path d="M565.403 294.137C566.671 294.137 567.698 293.11 567.698 291.843C567.698 290.576 566.671 289.549 565.403 289.549C564.135 289.549 563.108 290.576 563.108 291.843C563.108 293.11 564.135 294.137 565.403 294.137Z" fill="#383A48"/>
<path d="M565.403 305.47C566.671 305.47 567.698 304.443 567.698 303.176C567.698 301.909 566.671 300.882 565.403 300.882C564.135 300.882 563.108 301.909 563.108 303.176C563.108 304.443 564.135 305.47 565.403 305.47Z" fill="#383A48"/>
<path d="M562.648 316.804C563.916 316.804 564.944 315.777 564.944 314.509C564.944 313.242 563.916 312.215 562.648 312.215C561.381 312.215 560.353 313.242 560.353 314.509C560.353 315.777 561.381 316.804 562.648 316.804Z" fill="#383A48"/>
<path d="M562.648 328.091C563.916 328.091 564.944 327.064 564.944 325.797C564.944 324.53 563.916 323.502 562.648 323.502C561.381 323.502 560.353 324.53 560.353 325.797C560.353 327.064 561.381 328.091 562.648 328.091Z" fill="#383A48"/>
<path d="M562.648 339.424C563.916 339.424 564.944 338.397 564.944 337.13C564.944 335.863 563.916 334.836 562.648 334.836C561.381 334.836 560.353 335.863 560.353 337.13C560.353 338.397 561.381 339.424 562.648 339.424Z" fill="#383A48"/>
<path d="M563.108 352.134C564.375 352.134 565.403 351.107 565.403 349.84C565.403 348.573 564.375 347.545 563.108 347.545C561.84 347.545 560.812 348.573 560.812 349.84C560.812 351.107 561.84 352.134 563.108 352.134Z" fill="#383A48"/>
<path d="M563.108 363.421C564.375 363.421 565.403 362.394 565.403 361.127C565.403 359.86 564.375 358.833 563.108 358.833C561.84 358.833 560.812 359.86 560.812 361.127C560.812 362.394 561.84 363.421 563.108 363.421Z" fill="#383A48"/>
<path d="M554.063 282.85C555.331 282.85 556.359 281.823 556.359 280.556C556.359 279.289 555.331 278.261 554.063 278.261C552.796 278.261 551.768 279.289 551.768 280.556C551.768 281.823 552.796 282.85 554.063 282.85Z" fill="#383A48"/>
<path d="M554.063 294.137C555.331 294.137 556.359 293.11 556.359 291.843C556.359 290.576 555.331 289.549 554.063 289.549C552.796 289.549 551.768 290.576 551.768 291.843C551.768 293.11 552.796 294.137 554.063 294.137Z" fill="#383A48"/>
<path d="M554.063 305.47C555.331 305.47 556.359 304.443 556.359 303.176C556.359 301.909 555.331 300.882 554.063 300.882C552.796 300.882 551.768 301.909 551.768 303.176C551.768 304.443 552.796 305.47 554.063 305.47Z" fill="#383A48"/>
<path d="M551.309 316.804C552.577 316.804 553.604 315.777 553.604 314.509C553.604 313.242 552.577 312.215 551.309 312.215C550.041 312.215 549.013 313.242 549.013 314.509C549.013 315.777 550.041 316.804 551.309 316.804Z" fill="#383A48"/>
<path d="M551.309 328.091C552.577 328.091 553.604 327.064 553.604 325.797C553.604 324.53 552.577 323.502 551.309 323.502C550.041 323.502 549.013 324.53 549.013 325.797C549.013 327.064 550.041 328.091 551.309 328.091Z" fill="#383A48"/>
<path d="M551.309 339.424C552.577 339.424 553.604 338.397 553.604 337.13C553.604 335.863 552.577 334.836 551.309 334.836C550.041 334.836 549.013 335.863 549.013 337.13C549.013 338.397 550.041 339.424 551.309 339.424Z" fill="#383A48"/>
<path d="M551.768 352.134C553.036 352.134 554.063 351.107 554.063 349.84C554.063 348.573 553.036 347.545 551.768 347.545C550.5 347.545 549.473 348.573 549.473 349.84C549.473 351.107 550.5 352.134 551.768 352.134Z" fill="#383A48"/>
<path d="M551.768 363.421C553.036 363.421 554.063 362.394 554.063 361.127C554.063 359.86 553.036 358.833 551.768 358.833C550.5 358.833 549.473 359.86 549.473 361.127C549.473 362.394 550.5 363.421 551.768 363.421Z" fill="#383A48"/>
<path d="M542.724 282.85C543.992 282.85 545.019 281.823 545.019 280.556C545.019 279.289 543.992 278.261 542.724 278.261C541.456 278.261 540.428 279.289 540.428 280.556C540.428 281.823 541.456 282.85 542.724 282.85Z" fill="#383A48"/>
<path d="M542.724 294.137C543.992 294.137 545.019 293.11 545.019 291.843C545.019 290.576 543.992 289.549 542.724 289.549C541.456 289.549 540.428 290.576 540.428 291.843C540.428 293.11 541.456 294.137 542.724 294.137Z" fill="#383A48"/>
<path d="M542.724 305.47C543.992 305.47 545.019 304.443 545.019 303.176C545.019 301.909 543.992 300.882 542.724 300.882C541.456 300.882 540.428 301.909 540.428 303.176C540.428 304.443 541.456 305.47 542.724 305.47Z" fill="#383A48"/>
<path d="M539.969 316.804C541.237 316.804 542.265 315.777 542.265 314.509C542.265 313.242 541.237 312.215 539.969 312.215C538.702 312.215 537.674 313.242 537.674 314.509C537.674 315.777 538.702 316.804 539.969 316.804Z" fill="#383A48"/>
<path d="M539.969 328.091C541.237 328.091 542.265 327.064 542.265 325.797C542.265 324.53 541.237 323.502 539.969 323.502C538.702 323.502 537.674 324.53 537.674 325.797C537.674 327.064 538.702 328.091 539.969 328.091Z" fill="#383A48"/>
<path d="M539.969 339.424C541.237 339.424 542.265 338.397 542.265 337.13C542.265 335.863 541.237 334.836 539.969 334.836C538.702 334.836 537.674 335.863 537.674 337.13C537.674 338.397 538.702 339.424 539.969 339.424Z" fill="#383A48"/>
<path d="M540.428 352.134C541.696 352.134 542.724 351.107 542.724 349.84C542.724 348.573 541.696 347.545 540.428 347.545C539.161 347.545 538.133 348.573 538.133 349.84C538.133 351.107 539.161 352.134 540.428 352.134Z" fill="#383A48"/>
<path d="M540.428 363.421C541.696 363.421 542.724 362.394 542.724 361.127C542.724 359.86 541.696 358.833 540.428 358.833C539.161 358.833 538.133 359.86 538.133 361.127C538.133 362.394 539.161 363.421 540.428 363.421Z" fill="#383A48"/>
<path d="M531.43 282.85C532.698 282.85 533.726 281.823 533.726 280.556C533.726 279.289 532.698 278.261 531.43 278.261C530.163 278.261 529.135 279.289 529.135 280.556C529.135 281.823 530.163 282.85 531.43 282.85Z" fill="#383A48"/>
<path d="M531.43 294.137C532.698 294.137 533.726 293.11 533.726 291.843C533.726 290.576 532.698 289.549 531.43 289.549C530.163 289.549 529.135 290.576 529.135 291.843C529.135 293.11 530.163 294.137 531.43 294.137Z" fill="#383A48"/>
<path d="M531.43 305.47C532.698 305.47 533.726 304.443 533.726 303.176C533.726 301.909 532.698 300.882 531.43 300.882C530.163 300.882 529.135 301.909 529.135 303.176C529.135 304.443 530.163 305.47 531.43 305.47Z" fill="#383A48"/>
<path d="M528.676 316.804C529.944 316.804 530.971 315.777 530.971 314.509C530.971 313.242 529.944 312.215 528.676 312.215C527.408 312.215 526.38 313.242 526.38 314.509C526.38 315.777 527.408 316.804 528.676 316.804Z" fill="#383A48"/>
<path d="M528.676 328.091C529.944 328.091 530.971 327.064 530.971 325.797C530.971 324.53 529.944 323.502 528.676 323.502C527.408 323.502 526.38 324.53 526.38 325.797C526.38 327.064 527.408 328.091 528.676 328.091Z" fill="#383A48"/>
<path d="M528.676 339.424C529.944 339.424 530.971 338.397 530.971 337.13C530.971 335.863 529.944 334.836 528.676 334.836C527.408 334.836 526.38 335.863 526.38 337.13C526.38 338.397 527.408 339.424 528.676 339.424Z" fill="#383A48"/>
<path d="M529.135 352.134C530.403 352.134 531.43 351.107 531.43 349.84C531.43 348.573 530.403 347.545 529.135 347.545C527.867 347.545 526.839 348.573 526.839 349.84C526.839 351.107 527.867 352.134 529.135 352.134Z" fill="#383A48"/>
<path d="M529.135 363.421C530.403 363.421 531.43 362.394 531.43 361.127C531.43 359.86 530.403 358.833 529.135 358.833C527.867 358.833 526.839 359.86 526.839 361.127C526.839 362.394 527.867 363.421 529.135 363.421Z" fill="#383A48"/>
<path d="M529.135 374.754C530.403 374.754 531.43 373.727 531.43 372.46C531.43 371.193 530.403 370.166 529.135 370.166C527.867 370.166 526.839 371.193 526.839 372.46C526.839 373.727 527.867 374.754 529.135 374.754Z" fill="#383A48"/>
<path d="M530.512 386.088C531.78 386.088 532.808 385.06 532.808 383.793C532.808 382.526 531.78 381.499 530.512 381.499C529.244 381.499 528.217 382.526 528.217 383.793C528.217 385.06 529.244 386.088 530.512 386.088Z" fill="#383A48"/>
<path d="M530.512 397.375C531.78 397.375 532.808 396.348 532.808 395.081C532.808 393.814 531.78 392.787 530.512 392.787C529.244 392.787 528.217 393.814 528.217 395.081C528.217 396.348 529.244 397.375 530.512 397.375Z" fill="#383A48"/>
<path d="M520.091 282.85C521.359 282.85 522.386 281.823 522.386 280.556C522.386 279.289 521.359 278.261 520.091 278.261C518.823 278.261 517.795 279.289 517.795 280.556C517.795 281.823 518.823 282.85 520.091 282.85Z" fill="#383A48"/>
<path d="M520.091 294.137C521.359 294.137 522.386 293.11 522.386 291.843C522.386 290.576 521.359 289.549 520.091 289.549C518.823 289.549 517.795 290.576 517.795 291.843C517.795 293.11 518.823 294.137 520.091 294.137Z" fill="#383A48"/>
<path d="M520.091 305.47C521.359 305.47 522.386 304.443 522.386 303.176C522.386 301.909 521.359 300.882 520.091 300.882C518.823 300.882 517.795 301.909 517.795 303.176C517.795 304.443 518.823 305.47 520.091 305.47Z" fill="#383A48"/>
<path d="M517.336 316.804C518.604 316.804 519.632 315.777 519.632 314.509C519.632 313.242 518.604 312.215 517.336 312.215C516.068 312.215 515.041 313.242 515.041 314.509C515.041 315.777 516.068 316.804 517.336 316.804Z" fill="#383A48"/>
<path d="M517.336 328.091C518.604 328.091 519.632 327.064 519.632 325.797C519.632 324.53 518.604 323.502 517.336 323.502C516.068 323.502 515.041 324.53 515.041 325.797C515.041 327.064 516.068 328.091 517.336 328.091Z" fill="#383A48"/>
<path d="M517.336 339.424C518.604 339.424 519.632 338.397 519.632 337.13C519.632 335.863 518.604 334.836 517.336 334.836C516.068 334.836 515.041 335.863 515.041 337.13C515.041 338.397 516.068 339.424 517.336 339.424Z" fill="#383A48"/>
<path d="M517.795 352.134C519.063 352.134 520.091 351.107 520.091 349.84C520.091 348.573 519.063 347.545 517.795 347.545C516.528 347.545 515.5 348.573 515.5 349.84C515.5 351.107 516.528 352.134 517.795 352.134Z" fill="#383A48"/>
<path d="M517.795 363.421C519.063 363.421 520.091 362.394 520.091 361.127C520.091 359.86 519.063 358.833 517.795 358.833C516.528 358.833 515.5 359.86 515.5 361.127C515.5 362.394 516.528 363.421 517.795 363.421Z" fill="#383A48"/>
<path d="M517.795 374.754C519.063 374.754 520.091 373.727 520.091 372.46C520.091 371.193 519.063 370.166 517.795 370.166C516.528 370.166 515.5 371.193 515.5 372.46C515.5 373.727 516.528 374.754 517.795 374.754Z" fill="#383A48"/>
<path d="M519.173 386.088C520.44 386.088 521.468 385.06 521.468 383.793C521.468 382.526 520.44 381.499 519.173 381.499C517.905 381.499 516.877 382.526 516.877 383.793C516.877 385.06 517.905 386.088 519.173 386.088Z" fill="#383A48"/>
<path d="M519.173 397.375C520.44 397.375 521.468 396.348 521.468 395.081C521.468 393.814 520.44 392.787 519.173 392.787C517.905 392.787 516.877 393.814 516.877 395.081C516.877 396.348 517.905 397.375 519.173 397.375Z" fill="#383A48"/>
<path d="M508.751 282.85C510.019 282.85 511.047 281.823 511.047 280.556C511.047 279.289 510.019 278.261 508.751 278.261C507.483 278.261 506.456 279.289 506.456 280.556C506.456 281.823 507.483 282.85 508.751 282.85Z" fill="#383A48"/>
<path d="M508.751 294.137C510.019 294.137 511.047 293.11 511.047 291.843C511.047 290.576 510.019 289.549 508.751 289.549C507.483 289.549 506.456 290.576 506.456 291.843C506.456 293.11 507.483 294.137 508.751 294.137Z" fill="#383A48"/>
<path d="M508.751 305.47C510.019 305.47 511.047 304.443 511.047 303.176C511.047 301.909 510.019 300.882 508.751 300.882C507.483 300.882 506.456 301.909 506.456 303.176C506.456 304.443 507.483 305.47 508.751 305.47Z" fill="#383A48"/>
<path d="M505.997 316.804C507.264 316.804 508.292 315.777 508.292 314.509C508.292 313.242 507.264 312.215 505.997 312.215C504.729 312.215 503.701 313.242 503.701 314.509C503.701 315.777 504.729 316.804 505.997 316.804Z" fill="#383A48"/>
<path d="M505.997 328.091C507.264 328.091 508.292 327.064 508.292 325.797C508.292 324.53 507.264 323.502 505.997 323.502C504.729 323.502 503.701 324.53 503.701 325.797C503.701 327.064 504.729 328.091 505.997 328.091Z" fill="#383A48"/>
<path d="M505.997 339.424C507.264 339.424 508.292 338.397 508.292 337.13C508.292 335.863 507.264 334.836 505.997 334.836C504.729 334.836 503.701 335.863 503.701 337.13C503.701 338.397 504.729 339.424 505.997 339.424Z" fill="#383A48"/>
<path d="M506.456 352.134C507.724 352.134 508.751 351.107 508.751 349.84C508.751 348.573 507.724 347.545 506.456 347.545C505.188 347.545 504.16 348.573 504.16 349.84C504.16 351.107 505.188 352.134 506.456 352.134Z" fill="#383A48"/>
<path d="M506.456 363.421C507.724 363.421 508.751 362.394 508.751 361.127C508.751 359.86 507.724 358.833 506.456 358.833C505.188 358.833 504.16 359.86 504.16 361.127C504.16 362.394 505.188 363.421 506.456 363.421Z" fill="#383A48"/>
<path d="M506.456 374.754C507.724 374.754 508.751 373.727 508.751 372.46C508.751 371.193 507.724 370.166 506.456 370.166C505.188 370.166 504.16 371.193 504.16 372.46C504.16 373.727 505.188 374.754 506.456 374.754Z" fill="#383A48"/>
<path d="M507.833 386.088C509.101 386.088 510.128 385.06 510.128 383.793C510.128 382.526 509.101 381.499 507.833 381.499C506.565 381.499 505.538 382.526 505.538 383.793C505.538 385.06 506.565 386.088 507.833 386.088Z" fill="#383A48"/>
<path d="M507.833 397.375C509.101 397.375 510.128 396.348 510.128 395.081C510.128 393.814 509.101 392.787 507.833 392.787C506.565 392.787 505.538 393.814 505.538 395.081C505.538 396.348 506.565 397.375 507.833 397.375Z" fill="#383A48"/>
<path d="M497.458 282.85C498.725 282.85 499.753 281.823 499.753 280.556C499.753 279.289 498.725 278.261 497.458 278.261C496.19 278.261 495.162 279.289 495.162 280.556C495.162 281.823 496.19 282.85 497.458 282.85Z" fill="#383A48"/>
<path d="M497.458 294.137C498.725 294.137 499.753 293.11 499.753 291.843C499.753 290.576 498.725 289.549 497.458 289.549C496.19 289.549 495.162 290.576 495.162 291.843C495.162 293.11 496.19 294.137 497.458 294.137Z" fill="#383A48"/>
<path d="M497.458 305.47C498.725 305.47 499.753 304.443 499.753 303.176C499.753 301.909 498.725 300.882 497.458 300.882C496.19 300.882 495.162 301.909 495.162 303.176C495.162 304.443 496.19 305.47 497.458 305.47Z" fill="#383A48"/>
<path d="M494.703 316.804C495.971 316.804 496.998 315.777 496.998 314.509C496.998 313.242 495.971 312.215 494.703 312.215C493.435 312.215 492.408 313.242 492.408 314.509C492.408 315.777 493.435 316.804 494.703 316.804Z" fill="#383A48"/>
<path d="M494.703 328.091C495.971 328.091 496.998 327.064 496.998 325.797C496.998 324.53 495.971 323.502 494.703 323.502C493.435 323.502 492.408 324.53 492.408 325.797C492.408 327.064 493.435 328.091 494.703 328.091Z" fill="#383A48"/>
<path d="M494.703 339.424C495.971 339.424 496.998 338.397 496.998 337.13C496.998 335.863 495.971 334.836 494.703 334.836C493.435 334.836 492.408 335.863 492.408 337.13C492.408 338.397 493.435 339.424 494.703 339.424Z" fill="#383A48"/>
<path d="M495.162 352.134C496.43 352.134 497.458 351.107 497.458 349.84C497.458 348.573 496.43 347.545 495.162 347.545C493.894 347.545 492.867 348.573 492.867 349.84C492.867 351.107 493.894 352.134 495.162 352.134Z" fill="#383A48"/>
<path d="M495.162 363.421C496.43 363.421 497.458 362.394 497.458 361.127C497.458 359.86 496.43 358.833 495.162 358.833C493.894 358.833 492.867 359.86 492.867 361.127C492.867 362.394 493.894 363.421 495.162 363.421Z" fill="#383A48"/>
<path d="M495.162 374.754C496.43 374.754 497.458 373.727 497.458 372.46C497.458 371.193 496.43 370.166 495.162 370.166C493.894 370.166 492.867 371.193 492.867 372.46C492.867 373.727 493.894 374.754 495.162 374.754Z" fill="#383A48"/>
<path d="M496.539 386.088C497.807 386.088 498.835 385.06 498.835 383.793C498.835 382.526 497.807 381.499 496.539 381.499C495.272 381.499 494.244 382.526 494.244 383.793C494.244 385.06 495.272 386.088 496.539 386.088Z" fill="#383A48"/>
<path d="M496.539 397.375C497.807 397.375 498.835 396.348 498.835 395.081C498.835 393.814 497.807 392.787 496.539 392.787C495.272 392.787 494.244 393.814 494.244 395.081C494.244 396.348 495.272 397.375 496.539 397.375Z" fill="#383A48"/>
<path d="M486.118 282.85C487.386 282.85 488.414 281.823 488.414 280.556C488.414 279.289 487.386 278.261 486.118 278.261C484.85 278.261 483.823 279.289 483.823 280.556C483.823 281.823 484.85 282.85 486.118 282.85Z" fill="#383A48"/>
<path d="M486.118 294.137C487.386 294.137 488.414 293.11 488.414 291.843C488.414 290.576 487.386 289.549 486.118 289.549C484.85 289.549 483.823 290.576 483.823 291.843C483.823 293.11 484.85 294.137 486.118 294.137Z" fill="#383A48"/>
<path d="M486.118 305.47C487.386 305.47 488.414 304.443 488.414 303.176C488.414 301.909 487.386 300.882 486.118 300.882C484.85 300.882 483.823 301.909 483.823 303.176C483.823 304.443 484.85 305.47 486.118 305.47Z" fill="#383A48"/>
<path d="M483.364 316.804C484.631 316.804 485.659 315.777 485.659 314.509C485.659 313.242 484.631 312.215 483.364 312.215C482.096 312.215 481.068 313.242 481.068 314.509C481.068 315.777 482.096 316.804 483.364 316.804Z" fill="#383A48"/>
<path d="M483.364 328.091C484.631 328.091 485.659 327.064 485.659 325.797C485.659 324.53 484.631 323.502 483.364 323.502C482.096 323.502 481.068 324.53 481.068 325.797C481.068 327.064 482.096 328.091 483.364 328.091Z" fill="#383A48"/>
<path d="M483.364 339.424C484.631 339.424 485.659 338.397 485.659 337.13C485.659 335.863 484.631 334.836 483.364 334.836C482.096 334.836 481.068 335.863 481.068 337.13C481.068 338.397 482.096 339.424 483.364 339.424Z" fill="#383A48"/>
<path d="M483.823 352.134C485.09 352.134 486.118 351.107 486.118 349.84C486.118 348.573 485.09 347.545 483.823 347.545C482.555 347.545 481.527 348.573 481.527 349.84C481.527 351.107 482.555 352.134 483.823 352.134Z" fill="#383A48"/>
<path d="M483.823 363.421C485.09 363.421 486.118 362.394 486.118 361.127C486.118 359.86 485.09 358.833 483.823 358.833C482.555 358.833 481.527 359.86 481.527 361.127C481.527 362.394 482.555 363.421 483.823 363.421Z" fill="#383A48"/>
<path d="M483.823 374.754C485.09 374.754 486.118 373.727 486.118 372.46C486.118 371.193 485.09 370.166 483.823 370.166C482.555 370.166 481.527 371.193 481.527 372.46C481.527 373.727 482.555 374.754 483.823 374.754Z" fill="#383A48"/>
<path d="M485.2 386.088C486.468 386.088 487.495 385.06 487.495 383.793C487.495 382.526 486.468 381.499 485.2 381.499C483.932 381.499 482.904 382.526 482.904 383.793C482.904 385.06 483.932 386.088 485.2 386.088Z" fill="#383A48"/>
<path d="M485.2 397.375C486.468 397.375 487.495 396.348 487.495 395.081C487.495 393.814 486.468 392.787 485.2 392.787C483.932 392.787 482.904 393.814 482.904 395.081C482.904 396.348 483.932 397.375 485.2 397.375Z" fill="#383A48"/>
<path d="M474.779 282.85C476.046 282.85 477.074 281.823 477.074 280.556C477.074 279.289 476.046 278.261 474.779 278.261C473.511 278.261 472.483 279.289 472.483 280.556C472.483 281.823 473.511 282.85 474.779 282.85Z" fill="#383A48"/>
<path d="M474.779 294.137C476.046 294.137 477.074 293.11 477.074 291.843C477.074 290.576 476.046 289.549 474.779 289.549C473.511 289.549 472.483 290.576 472.483 291.843C472.483 293.11 473.511 294.137 474.779 294.137Z" fill="#383A48"/>
<path d="M474.779 305.47C476.046 305.47 477.074 304.443 477.074 303.176C477.074 301.909 476.046 300.882 474.779 300.882C473.511 300.882 472.483 301.909 472.483 303.176C472.483 304.443 473.511 305.47 474.779 305.47Z" fill="#383A48"/>
<path d="M472.024 316.804C473.292 316.804 474.319 315.777 474.319 314.509C474.319 313.242 473.292 312.215 472.024 312.215C470.756 312.215 469.729 313.242 469.729 314.509C469.729 315.777 470.756 316.804 472.024 316.804Z" fill="#383A48"/>
<path d="M472.024 328.091C473.292 328.091 474.319 327.064 474.319 325.797C474.319 324.53 473.292 323.502 472.024 323.502C470.756 323.502 469.729 324.53 469.729 325.797C469.729 327.064 470.756 328.091 472.024 328.091Z" fill="#383A48"/>
<path d="M472.024 339.424C473.292 339.424 474.319 338.397 474.319 337.13C474.319 335.863 473.292 334.836 472.024 334.836C470.756 334.836 469.729 335.863 469.729 337.13C469.729 338.397 470.756 339.424 472.024 339.424Z" fill="#383A48"/>
<path d="M472.483 352.134C473.751 352.134 474.779 351.107 474.779 349.84C474.779 348.573 473.751 347.545 472.483 347.545C471.215 347.545 470.188 348.573 470.188 349.84C470.188 351.107 471.215 352.134 472.483 352.134Z" fill="#383A48"/>
<path d="M472.483 363.421C473.751 363.421 474.779 362.394 474.779 361.127C474.779 359.86 473.751 358.833 472.483 358.833C471.215 358.833 470.188 359.86 470.188 361.127C470.188 362.394 471.215 363.421 472.483 363.421Z" fill="#383A48"/>
<path d="M472.483 374.754C473.751 374.754 474.779 373.727 474.779 372.46C474.779 371.193 473.751 370.166 472.483 370.166C471.215 370.166 470.188 371.193 470.188 372.46C470.188 373.727 471.215 374.754 472.483 374.754Z" fill="#383A48"/>
<path d="M473.86 386.088C475.128 386.088 476.156 385.06 476.156 383.793C476.156 382.526 475.128 381.499 473.86 381.499C472.593 381.499 471.565 382.526 471.565 383.793C471.565 385.06 472.593 386.088 473.86 386.088Z" fill="#383A48"/>
<path d="M473.86 397.375C475.128 397.375 476.156 396.348 476.156 395.081C476.156 393.814 475.128 392.787 473.86 392.787C472.593 392.787 471.565 393.814 471.565 395.081C471.565 396.348 472.593 397.375 473.86 397.375Z" fill="#383A48"/>
<path d="M463.485 192.276C464.753 192.276 465.78 191.249 465.78 189.982C465.78 188.715 464.753 187.688 463.485 187.688C462.217 187.688 461.189 188.715 461.189 189.982C461.189 191.249 462.217 192.276 463.485 192.276Z" fill="#383A48"/>
<path d="M463.485 203.609C464.753 203.609 465.78 202.582 465.78 201.315C465.78 200.048 464.753 199.021 463.485 199.021C462.217 199.021 461.189 200.048 461.189 201.315C461.189 202.582 462.217 203.609 463.485 203.609Z" fill="#383A48"/>
<path d="M463.485 214.942C464.753 214.942 465.78 213.915 465.78 212.648C465.78 211.381 464.753 210.354 463.485 210.354C462.217 210.354 461.189 211.381 461.189 212.648C461.189 213.915 462.217 214.942 463.485 214.942Z" fill="#383A48"/>
<path d="M463.485 226.23C464.753 226.23 465.78 225.203 465.78 223.936C465.78 222.668 464.753 221.641 463.485 221.641C462.217 221.641 461.189 222.668 461.189 223.936C461.189 225.203 462.217 226.23 463.485 226.23Z" fill="#383A48"/>
<path d="M463.485 237.563C464.753 237.563 465.78 236.536 465.78 235.269C465.78 234.002 464.753 232.975 463.485 232.975C462.217 232.975 461.189 234.002 461.189 235.269C461.189 236.536 462.217 237.563 463.485 237.563Z" fill="#383A48"/>
<path d="M463.485 248.896C464.753 248.896 465.78 247.869 465.78 246.602C465.78 245.335 464.753 244.308 463.485 244.308C462.217 244.308 461.189 245.335 461.189 246.602C461.189 247.869 462.217 248.896 463.485 248.896Z" fill="#383A48"/>
<path d="M463.485 260.183C464.753 260.183 465.78 259.156 465.78 257.889C465.78 256.622 464.753 255.595 463.485 255.595C462.217 255.595 461.189 256.622 461.189 257.889C461.189 259.156 462.217 260.183 463.485 260.183Z" fill="#383A48"/>
<path d="M463.485 271.517C464.753 271.517 465.78 270.489 465.78 269.222C465.78 267.955 464.753 266.928 463.485 266.928C462.217 266.928 461.189 267.955 461.189 269.222C461.189 270.489 462.217 271.517 463.485 271.517Z" fill="#383A48"/>
<path d="M463.485 282.85C464.753 282.85 465.78 281.823 465.78 280.556C465.78 279.289 464.753 278.261 463.485 278.261C462.217 278.261 461.189 279.289 461.189 280.556C461.189 281.823 462.217 282.85 463.485 282.85Z" fill="#383A48"/>
<path d="M463.485 294.137C464.753 294.137 465.78 293.11 465.78 291.843C465.78 290.576 464.753 289.549 463.485 289.549C462.217 289.549 461.189 290.576 461.189 291.843C461.189 293.11 462.217 294.137 463.485 294.137Z" fill="#383A48"/>
<path d="M463.485 305.47C464.753 305.47 465.78 304.443 465.78 303.176C465.78 301.909 464.753 300.882 463.485 300.882C462.217 300.882 461.189 301.909 461.189 303.176C461.189 304.443 462.217 305.47 463.485 305.47Z" fill="#383A48"/>
<path d="M460.73 316.804C461.998 316.804 463.026 315.777 463.026 314.509C463.026 313.242 461.998 312.215 460.73 312.215C459.463 312.215 458.435 313.242 458.435 314.509C458.435 315.777 459.463 316.804 460.73 316.804Z" fill="#383A48"/>
<path d="M460.73 328.091C461.998 328.091 463.026 327.064 463.026 325.797C463.026 324.53 461.998 323.502 460.73 323.502C459.463 323.502 458.435 324.53 458.435 325.797C458.435 327.064 459.463 328.091 460.73 328.091Z" fill="#383A48"/>
<path d="M460.73 339.424C461.998 339.424 463.026 338.397 463.026 337.13C463.026 335.863 461.998 334.836 460.73 334.836C459.463 334.836 458.435 335.863 458.435 337.13C458.435 338.397 459.463 339.424 460.73 339.424Z" fill="#383A48"/>
<path d="M461.189 352.134C462.457 352.134 463.485 351.107 463.485 349.84C463.485 348.573 462.457 347.545 461.189 347.545C459.922 347.545 458.894 348.573 458.894 349.84C458.894 351.107 459.922 352.134 461.189 352.134Z" fill="#383A48"/>
<path d="M461.189 363.421C462.457 363.421 463.485 362.394 463.485 361.127C463.485 359.86 462.457 358.833 461.189 358.833C459.922 358.833 458.894 359.86 458.894 361.127C458.894 362.394 459.922 363.421 461.189 363.421Z" fill="#383A48"/>
<path d="M461.189 374.754C462.457 374.754 463.485 373.727 463.485 372.46C463.485 371.193 462.457 370.166 461.189 370.166C459.922 370.166 458.894 371.193 458.894 372.46C458.894 373.727 459.922 374.754 461.189 374.754Z" fill="#383A48"/>
<path d="M462.567 386.088C463.834 386.088 464.862 385.06 464.862 383.793C464.862 382.526 463.834 381.499 462.567 381.499C461.299 381.499 460.271 382.526 460.271 383.793C460.271 385.06 461.299 386.088 462.567 386.088Z" fill="#383A48"/>
<path d="M462.567 397.375C463.834 397.375 464.862 396.348 464.862 395.081C464.862 393.814 463.834 392.787 462.567 392.787C461.299 392.787 460.271 393.814 460.271 395.081C460.271 396.348 461.299 397.375 462.567 397.375Z" fill="#383A48"/>
<path d="M452.145 192.276C453.413 192.276 454.441 191.249 454.441 189.982C454.441 188.715 453.413 187.688 452.145 187.688C450.878 187.688 449.85 188.715 449.85 189.982C449.85 191.249 450.878 192.276 452.145 192.276Z" fill="#383A48"/>
<path d="M452.145 203.609C453.413 203.609 454.441 202.582 454.441 201.315C454.441 200.048 453.413 199.021 452.145 199.021C450.878 199.021 449.85 200.048 449.85 201.315C449.85 202.582 450.878 203.609 452.145 203.609Z" fill="#383A48"/>
<path d="M452.145 214.942C453.413 214.942 454.441 213.915 454.441 212.648C454.441 211.381 453.413 210.354 452.145 210.354C450.878 210.354 449.85 211.381 449.85 212.648C449.85 213.915 450.878 214.942 452.145 214.942Z" fill="#383A48"/>
<path d="M452.145 226.23C453.413 226.23 454.441 225.203 454.441 223.936C454.441 222.668 453.413 221.641 452.145 221.641C450.878 221.641 449.85 222.668 449.85 223.936C449.85 225.203 450.878 226.23 452.145 226.23Z" fill="#383A48"/>
<path d="M452.145 237.563C453.413 237.563 454.441 236.536 454.441 235.269C454.441 234.002 453.413 232.975 452.145 232.975C450.878 232.975 449.85 234.002 449.85 235.269C449.85 236.536 450.878 237.563 452.145 237.563Z" fill="#383A48"/>
<path d="M452.145 248.896C453.413 248.896 454.441 247.869 454.441 246.602C454.441 245.335 453.413 244.308 452.145 244.308C450.878 244.308 449.85 245.335 449.85 246.602C449.85 247.869 450.878 248.896 452.145 248.896Z" fill="#383A48"/>
<path d="M452.145 260.183C453.413 260.183 454.441 259.156 454.441 257.889C454.441 256.622 453.413 255.595 452.145 255.595C450.878 255.595 449.85 256.622 449.85 257.889C449.85 259.156 450.878 260.183 452.145 260.183Z" fill="#383A48"/>
<path d="M452.145 271.517C453.413 271.517 454.441 270.489 454.441 269.222C454.441 267.955 453.413 266.928 452.145 266.928C450.878 266.928 449.85 267.955 449.85 269.222C449.85 270.489 450.878 271.517 452.145 271.517Z" fill="#383A48"/>
<path d="M452.145 282.85C453.413 282.85 454.441 281.823 454.441 280.556C454.441 279.289 453.413 278.261 452.145 278.261C450.878 278.261 449.85 279.289 449.85 280.556C449.85 281.823 450.878 282.85 452.145 282.85Z" fill="#383A48"/>
<path d="M452.145 294.137C453.413 294.137 454.441 293.11 454.441 291.843C454.441 290.576 453.413 289.549 452.145 289.549C450.878 289.549 449.85 290.576 449.85 291.843C449.85 293.11 450.878 294.137 452.145 294.137Z" fill="#383A48"/>
<path d="M452.145 305.47C453.413 305.47 454.441 304.443 454.441 303.176C454.441 301.909 453.413 300.882 452.145 300.882C450.878 300.882 449.85 301.909 449.85 303.176C449.85 304.443 450.878 305.47 452.145 305.47Z" fill="#383A48"/>
<path d="M449.391 316.804C450.659 316.804 451.686 315.777 451.686 314.509C451.686 313.242 450.659 312.215 449.391 312.215C448.123 312.215 447.095 313.242 447.095 314.509C447.095 315.777 448.123 316.804 449.391 316.804Z" fill="#383A48"/>
<path d="M449.391 328.091C450.659 328.091 451.686 327.064 451.686 325.797C451.686 324.53 450.659 323.502 449.391 323.502C448.123 323.502 447.095 324.53 447.095 325.797C447.095 327.064 448.123 328.091 449.391 328.091Z" fill="#383A48"/>
<path d="M449.391 339.424C450.659 339.424 451.686 338.397 451.686 337.13C451.686 335.863 450.659 334.836 449.391 334.836C448.123 334.836 447.095 335.863 447.095 337.13C447.095 338.397 448.123 339.424 449.391 339.424Z" fill="#383A48"/>
<path d="M449.85 352.134C451.118 352.134 452.145 351.107 452.145 349.84C452.145 348.573 451.118 347.545 449.85 347.545C448.582 347.545 447.555 348.573 447.555 349.84C447.555 351.107 448.582 352.134 449.85 352.134Z" fill="#383A48"/>
<path d="M449.85 363.421C451.118 363.421 452.145 362.394 452.145 361.127C452.145 359.86 451.118 358.833 449.85 358.833C448.582 358.833 447.555 359.86 447.555 361.127C447.555 362.394 448.582 363.421 449.85 363.421Z" fill="#383A48"/>
<path d="M449.85 374.754C451.118 374.754 452.145 373.727 452.145 372.46C452.145 371.193 451.118 370.166 449.85 370.166C448.582 370.166 447.555 371.193 447.555 372.46C447.555 373.727 448.582 374.754 449.85 374.754Z" fill="#383A48"/>
<path d="M451.227 386.088C452.495 386.088 453.523 385.06 453.523 383.793C453.523 382.526 452.495 381.499 451.227 381.499C449.959 381.499 448.932 382.526 448.932 383.793C448.932 385.06 449.959 386.088 451.227 386.088Z" fill="#383A48"/>
<path d="M451.227 397.375C452.495 397.375 453.523 396.348 453.523 395.081C453.523 393.814 452.495 392.787 451.227 392.787C449.959 392.787 448.932 393.814 448.932 395.081C448.932 396.348 449.959 397.375 451.227 397.375Z" fill="#383A48"/>
<path d="M440.806 192.276C442.074 192.276 443.101 191.249 443.101 189.982C443.101 188.715 442.074 187.688 440.806 187.688C439.538 187.688 438.51 188.715 438.51 189.982C438.51 191.249 439.538 192.276 440.806 192.276Z" fill="#383A48"/>
<path d="M440.806 203.609C442.074 203.609 443.101 202.582 443.101 201.315C443.101 200.048 442.074 199.021 440.806 199.021C439.538 199.021 438.51 200.048 438.51 201.315C438.51 202.582 439.538 203.609 440.806 203.609Z" fill="#383A48"/>
<path d="M440.806 214.942C442.074 214.942 443.101 213.915 443.101 212.648C443.101 211.381 442.074 210.354 440.806 210.354C439.538 210.354 438.51 211.381 438.51 212.648C438.51 213.915 439.538 214.942 440.806 214.942Z" fill="#383A48"/>
<path d="M440.806 226.23C442.074 226.23 443.101 225.203 443.101 223.936C443.101 222.668 442.074 221.641 440.806 221.641C439.538 221.641 438.51 222.668 438.51 223.936C438.51 225.203 439.538 226.23 440.806 226.23Z" fill="#383A48"/>
<path d="M440.806 237.563C442.074 237.563 443.101 236.536 443.101 235.269C443.101 234.002 442.074 232.975 440.806 232.975C439.538 232.975 438.51 234.002 438.51 235.269C438.51 236.536 439.538 237.563 440.806 237.563Z" fill="#383A48"/>
<path d="M440.806 248.896C442.074 248.896 443.101 247.869 443.101 246.602C443.101 245.335 442.074 244.308 440.806 244.308C439.538 244.308 438.51 245.335 438.51 246.602C438.51 247.869 439.538 248.896 440.806 248.896Z" fill="#383A48"/>
<path d="M440.806 260.183C442.074 260.183 443.101 259.156 443.101 257.889C443.101 256.622 442.074 255.595 440.806 255.595C439.538 255.595 438.51 256.622 438.51 257.889C438.51 259.156 439.538 260.183 440.806 260.183Z" fill="#383A48"/>
<path d="M440.806 271.517C442.074 271.517 443.101 270.489 443.101 269.222C443.101 267.955 442.074 266.928 440.806 266.928C439.538 266.928 438.51 267.955 438.51 269.222C438.51 270.489 439.538 271.517 440.806 271.517Z" fill="#383A48"/>
<path d="M440.806 282.85C442.074 282.85 443.101 281.823 443.101 280.556C443.101 279.289 442.074 278.261 440.806 278.261C439.538 278.261 438.51 279.289 438.51 280.556C438.51 281.823 439.538 282.85 440.806 282.85Z" fill="#383A48"/>
<path d="M440.806 294.137C442.074 294.137 443.101 293.11 443.101 291.843C443.101 290.576 442.074 289.549 440.806 289.549C439.538 289.549 438.51 290.576 438.51 291.843C438.51 293.11 439.538 294.137 440.806 294.137Z" fill="#383A48"/>
<path d="M440.806 305.47C442.074 305.47 443.101 304.443 443.101 303.176C443.101 301.909 442.074 300.882 440.806 300.882C439.538 300.882 438.51 301.909 438.51 303.176C438.51 304.443 439.538 305.47 440.806 305.47Z" fill="#383A48"/>
<path d="M438.051 316.804C439.319 316.804 440.347 315.777 440.347 314.509C440.347 313.242 439.319 312.215 438.051 312.215C436.784 312.215 435.756 313.242 435.756 314.509C435.756 315.777 436.784 316.804 438.051 316.804Z" fill="#383A48"/>
<path d="M438.051 328.091C439.319 328.091 440.347 327.064 440.347 325.797C440.347 324.53 439.319 323.502 438.051 323.502C436.784 323.502 435.756 324.53 435.756 325.797C435.756 327.064 436.784 328.091 438.051 328.091Z" fill="#383A48"/>
<path d="M438.051 339.424C439.319 339.424 440.347 338.397 440.347 337.13C440.347 335.863 439.319 334.836 438.051 334.836C436.784 334.836 435.756 335.863 435.756 337.13C435.756 338.397 436.784 339.424 438.051 339.424Z" fill="#383A48"/>
<path d="M438.51 352.134C439.778 352.134 440.806 351.107 440.806 349.84C440.806 348.573 439.778 347.545 438.51 347.545C437.243 347.545 436.215 348.573 436.215 349.84C436.215 351.107 437.243 352.134 438.51 352.134Z" fill="#383A48"/>
<path d="M438.51 363.421C439.778 363.421 440.806 362.394 440.806 361.127C440.806 359.86 439.778 358.833 438.51 358.833C437.243 358.833 436.215 359.86 436.215 361.127C436.215 362.394 437.243 363.421 438.51 363.421Z" fill="#383A48"/>
<path d="M438.51 374.754C439.778 374.754 440.806 373.727 440.806 372.46C440.806 371.193 439.778 370.166 438.51 370.166C437.243 370.166 436.215 371.193 436.215 372.46C436.215 373.727 437.243 374.754 438.51 374.754Z" fill="#383A48"/>
<path d="M439.888 386.088C441.155 386.088 442.183 385.06 442.183 383.793C442.183 382.526 441.155 381.499 439.888 381.499C438.62 381.499 437.592 382.526 437.592 383.793C437.592 385.06 438.62 386.088 439.888 386.088Z" fill="#383A48"/>
<path d="M439.888 397.375C441.155 397.375 442.183 396.348 442.183 395.081C442.183 393.814 441.155 392.787 439.888 392.787C438.62 392.787 437.592 393.814 437.592 395.081C437.592 396.348 438.62 397.375 439.888 397.375Z" fill="#383A48"/>
<path d="M429.512 192.276C430.78 192.276 431.808 191.249 431.808 189.982C431.808 188.715 430.78 187.688 429.512 187.688C428.244 187.688 427.217 188.715 427.217 189.982C427.217 191.249 428.244 192.276 429.512 192.276Z" fill="#383A48"/>
<path d="M429.512 203.609C430.78 203.609 431.808 202.582 431.808 201.315C431.808 200.048 430.78 199.021 429.512 199.021C428.244 199.021 427.217 200.048 427.217 201.315C427.217 202.582 428.244 203.609 429.512 203.609Z" fill="#383A48"/>
<path d="M429.512 214.942C430.78 214.942 431.808 213.915 431.808 212.648C431.808 211.381 430.78 210.354 429.512 210.354C428.244 210.354 427.217 211.381 427.217 212.648C427.217 213.915 428.244 214.942 429.512 214.942Z" fill="#383A48"/>
<path d="M429.512 226.23C430.78 226.23 431.808 225.203 431.808 223.936C431.808 222.668 430.78 221.641 429.512 221.641C428.244 221.641 427.217 222.668 427.217 223.936C427.217 225.203 428.244 226.23 429.512 226.23Z" fill="#383A48"/>
<path d="M429.512 237.563C430.78 237.563 431.808 236.536 431.808 235.269C431.808 234.002 430.78 232.975 429.512 232.975C428.244 232.975 427.217 234.002 427.217 235.269C427.217 236.536 428.244 237.563 429.512 237.563Z" fill="#383A48"/>
<path d="M429.512 248.896C430.78 248.896 431.808 247.869 431.808 246.602C431.808 245.335 430.78 244.308 429.512 244.308C428.244 244.308 427.217 245.335 427.217 246.602C427.217 247.869 428.244 248.896 429.512 248.896Z" fill="#383A48"/>
<path d="M429.512 260.183C430.78 260.183 431.808 259.156 431.808 257.889C431.808 256.622 430.78 255.595 429.512 255.595C428.244 255.595 427.217 256.622 427.217 257.889C427.217 259.156 428.244 260.183 429.512 260.183Z" fill="#383A48"/>
<path d="M429.512 271.517C430.78 271.517 431.808 270.489 431.808 269.222C431.808 267.955 430.78 266.928 429.512 266.928C428.244 266.928 427.217 267.955 427.217 269.222C427.217 270.489 428.244 271.517 429.512 271.517Z" fill="#383A48"/>
<path d="M429.512 282.85C430.78 282.85 431.808 281.823 431.808 280.556C431.808 279.289 430.78 278.261 429.512 278.261C428.244 278.261 427.217 279.289 427.217 280.556C427.217 281.823 428.244 282.85 429.512 282.85Z" fill="#383A48"/>
<path d="M429.512 294.137C430.78 294.137 431.808 293.11 431.808 291.843C431.808 290.576 430.78 289.549 429.512 289.549C428.244 289.549 427.217 290.576 427.217 291.843C427.217 293.11 428.244 294.137 429.512 294.137Z" fill="#383A48"/>
<path d="M429.512 305.47C430.78 305.47 431.808 304.443 431.808 303.176C431.808 301.909 430.78 300.882 429.512 300.882C428.244 300.882 427.217 301.909 427.217 303.176C427.217 304.443 428.244 305.47 429.512 305.47Z" fill="#383A48"/>
<path d="M426.758 316.804C428.025 316.804 429.053 315.777 429.053 314.509C429.053 313.242 428.025 312.215 426.758 312.215C425.49 312.215 424.462 313.242 424.462 314.509C424.462 315.777 425.49 316.804 426.758 316.804Z" fill="#383A48"/>
<path d="M426.758 328.091C428.025 328.091 429.053 327.064 429.053 325.797C429.053 324.53 428.025 323.502 426.758 323.502C425.49 323.502 424.462 324.53 424.462 325.797C424.462 327.064 425.49 328.091 426.758 328.091Z" fill="#383A48"/>
<path d="M426.758 339.424C428.025 339.424 429.053 338.397 429.053 337.13C429.053 335.863 428.025 334.836 426.758 334.836C425.49 334.836 424.462 335.863 424.462 337.13C424.462 338.397 425.49 339.424 426.758 339.424Z" fill="#383A48"/>
<path d="M427.217 352.134C428.484 352.134 429.512 351.107 429.512 349.84C429.512 348.573 428.484 347.545 427.217 347.545C425.949 347.545 424.921 348.573 424.921 349.84C424.921 351.107 425.949 352.134 427.217 352.134Z" fill="#383A48"/>
<path d="M427.217 363.421C428.484 363.421 429.512 362.394 429.512 361.127C429.512 359.86 428.484 358.833 427.217 358.833C425.949 358.833 424.921 359.86 424.921 361.127C424.921 362.394 425.949 363.421 427.217 363.421Z" fill="#383A48"/>
<path d="M427.217 374.754C428.484 374.754 429.512 373.727 429.512 372.46C429.512 371.193 428.484 370.166 427.217 370.166C425.949 370.166 424.921 371.193 424.921 372.46C424.921 373.727 425.949 374.754 427.217 374.754Z" fill="#383A48"/>
<path d="M428.594 386.088C429.862 386.088 430.889 385.06 430.889 383.793C430.889 382.526 429.862 381.499 428.594 381.499C427.326 381.499 426.299 382.526 426.299 383.793C426.299 385.06 427.326 386.088 428.594 386.088Z" fill="#383A48"/>
<path d="M428.594 397.375C429.862 397.375 430.889 396.348 430.889 395.081C430.889 393.814 429.862 392.787 428.594 392.787C427.326 392.787 426.299 393.814 426.299 395.081C426.299 396.348 427.326 397.375 428.594 397.375Z" fill="#383A48"/>
<path d="M415.418 248.896C416.686 248.896 417.714 247.869 417.714 246.602C417.714 245.335 416.686 244.308 415.418 244.308C414.15 244.308 413.123 245.335 413.123 246.602C413.123 247.869 414.15 248.896 415.418 248.896Z" fill="#383A48"/>
<path d="M415.418 260.183C416.686 260.183 417.714 259.156 417.714 257.889C417.714 256.622 416.686 255.595 415.418 255.595C414.15 255.595 413.123 256.622 413.123 257.889C413.123 259.156 414.15 260.183 415.418 260.183Z" fill="#383A48"/>
<path d="M415.418 271.517C416.686 271.517 417.714 270.489 417.714 269.222C417.714 267.955 416.686 266.928 415.418 266.928C414.15 266.928 413.123 267.955 413.123 269.222C413.123 270.489 414.15 271.517 415.418 271.517Z" fill="#383A48"/>
<path d="M415.418 282.85C416.686 282.85 417.714 281.823 417.714 280.556C417.714 279.289 416.686 278.261 415.418 278.261C414.15 278.261 413.123 279.289 413.123 280.556C413.123 281.823 414.15 282.85 415.418 282.85Z" fill="#383A48"/>
<path d="M415.418 294.137C416.686 294.137 417.714 293.11 417.714 291.843C417.714 290.576 416.686 289.549 415.418 289.549C414.15 289.549 413.123 290.576 413.123 291.843C413.123 293.11 414.15 294.137 415.418 294.137Z" fill="#383A48"/>
<path d="M415.418 305.47C416.686 305.47 417.714 304.443 417.714 303.176C417.714 301.909 416.686 300.882 415.418 300.882C414.15 300.882 413.123 301.909 413.123 303.176C413.123 304.443 414.15 305.47 415.418 305.47Z" fill="#383A48"/>
<path d="M415.418 316.804C416.686 316.804 417.714 315.777 417.714 314.509C417.714 313.242 416.686 312.215 415.418 312.215C414.15 312.215 413.123 313.242 413.123 314.509C413.123 315.777 414.15 316.804 415.418 316.804Z" fill="#383A48"/>
<path d="M415.418 328.091C416.686 328.091 417.714 327.064 417.714 325.797C417.714 324.53 416.686 323.502 415.418 323.502C414.15 323.502 413.123 324.53 413.123 325.797C413.123 327.064 414.15 328.091 415.418 328.091Z" fill="#383A48"/>
<path d="M415.418 339.424C416.686 339.424 417.714 338.397 417.714 337.13C417.714 335.863 416.686 334.836 415.418 334.836C414.15 334.836 413.123 335.863 413.123 337.13C413.123 338.397 414.15 339.424 415.418 339.424Z" fill="#383A48"/>
<path d="M415.877 352.134C417.145 352.134 418.173 351.107 418.173 349.84C418.173 348.573 417.145 347.545 415.877 347.545C414.609 347.545 413.582 348.573 413.582 349.84C413.582 351.107 414.609 352.134 415.877 352.134Z" fill="#383A48"/>
<path d="M415.877 363.421C417.145 363.421 418.173 362.394 418.173 361.127C418.173 359.86 417.145 358.833 415.877 358.833C414.609 358.833 413.582 359.86 413.582 361.127C413.582 362.394 414.609 363.421 415.877 363.421Z" fill="#383A48"/>
<path d="M415.877 374.754C417.145 374.754 418.173 373.727 418.173 372.46C418.173 371.193 417.145 370.166 415.877 370.166C414.609 370.166 413.582 371.193 413.582 372.46C413.582 373.727 414.609 374.754 415.877 374.754Z" fill="#383A48"/>
<path d="M417.254 386.088C418.522 386.088 419.55 385.06 419.55 383.793C419.55 382.526 418.522 381.499 417.254 381.499C415.987 381.499 414.959 382.526 414.959 383.793C414.959 385.06 415.987 386.088 417.254 386.088Z" fill="#383A48"/>
<path d="M417.254 397.375C418.522 397.375 419.55 396.348 419.55 395.081C419.55 393.814 418.522 392.787 417.254 392.787C415.987 392.787 414.959 393.814 414.959 395.081C414.959 396.348 415.987 397.375 417.254 397.375Z" fill="#383A48"/>
<path d="M404.079 248.896C405.346 248.896 406.374 247.869 406.374 246.602C406.374 245.335 405.346 244.308 404.079 244.308C402.811 244.308 401.783 245.335 401.783 246.602C401.783 247.869 402.811 248.896 404.079 248.896Z" fill="#383A48"/>
<path d="M404.079 260.183C405.346 260.183 406.374 259.156 406.374 257.889C406.374 256.622 405.346 255.595 404.079 255.595C402.811 255.595 401.783 256.622 401.783 257.889C401.783 259.156 402.811 260.183 404.079 260.183Z" fill="#383A48"/>
<path d="M404.079 271.517C405.346 271.517 406.374 270.489 406.374 269.222C406.374 267.955 405.346 266.928 404.079 266.928C402.811 266.928 401.783 267.955 401.783 269.222C401.783 270.489 402.811 271.517 404.079 271.517Z" fill="#383A48"/>
<path d="M404.079 282.85C405.346 282.85 406.374 281.823 406.374 280.556C406.374 279.289 405.346 278.261 404.079 278.261C402.811 278.261 401.783 279.289 401.783 280.556C401.783 281.823 402.811 282.85 404.079 282.85Z" fill="#383A48"/>
<path d="M404.079 294.137C405.346 294.137 406.374 293.11 406.374 291.843C406.374 290.576 405.346 289.549 404.079 289.549C402.811 289.549 401.783 290.576 401.783 291.843C401.783 293.11 402.811 294.137 404.079 294.137Z" fill="#383A48"/>
<path d="M404.079 305.47C405.346 305.47 406.374 304.443 406.374 303.176C406.374 301.909 405.346 300.882 404.079 300.882C402.811 300.882 401.783 301.909 401.783 303.176C401.783 304.443 402.811 305.47 404.079 305.47Z" fill="#383A48"/>
<path d="M404.079 316.804C405.346 316.804 406.374 315.777 406.374 314.509C406.374 313.242 405.346 312.215 404.079 312.215C402.811 312.215 401.783 313.242 401.783 314.509C401.783 315.777 402.811 316.804 404.079 316.804Z" fill="#383A48"/>
<path d="M404.079 328.091C405.346 328.091 406.374 327.064 406.374 325.797C406.374 324.53 405.346 323.502 404.079 323.502C402.811 323.502 401.783 324.53 401.783 325.797C401.783 327.064 402.811 328.091 404.079 328.091Z" fill="#383A48"/>
<path d="M404.079 339.424C405.346 339.424 406.374 338.397 406.374 337.13C406.374 335.863 405.346 334.836 404.079 334.836C402.811 334.836 401.783 335.863 401.783 337.13C401.783 338.397 402.811 339.424 404.079 339.424Z" fill="#383A48"/>
<path d="M404.538 352.134C405.805 352.134 406.833 351.107 406.833 349.84C406.833 348.573 405.805 347.545 404.538 347.545C403.27 347.545 402.242 348.573 402.242 349.84C402.242 351.107 403.27 352.134 404.538 352.134Z" fill="#383A48"/>
<path d="M404.538 363.421C405.805 363.421 406.833 362.394 406.833 361.127C406.833 359.86 405.805 358.833 404.538 358.833C403.27 358.833 402.242 359.86 402.242 361.127C402.242 362.394 403.27 363.421 404.538 363.421Z" fill="#383A48"/>
<path d="M404.538 374.754C405.805 374.754 406.833 373.727 406.833 372.46C406.833 371.193 405.805 370.166 404.538 370.166C403.27 370.166 402.242 371.193 402.242 372.46C402.242 373.727 403.27 374.754 404.538 374.754Z" fill="#383A48"/>
<path d="M405.915 386.088C407.183 386.088 408.21 385.06 408.21 383.793C408.21 382.526 407.183 381.499 405.915 381.499C404.647 381.499 403.62 382.526 403.62 383.793C403.62 385.06 404.647 386.088 405.915 386.088Z" fill="#383A48"/>
<path d="M405.915 397.375C407.183 397.375 408.21 396.348 408.21 395.081C408.21 393.814 407.183 392.787 405.915 392.787C404.647 392.787 403.62 393.814 403.62 395.081C403.62 396.348 404.647 397.375 405.915 397.375Z" fill="#383A48"/>
<path d="M392.785 248.896C394.053 248.896 395.08 247.869 395.08 246.602C395.08 245.335 394.053 244.308 392.785 244.308C391.517 244.308 390.489 245.335 390.489 246.602C390.489 247.869 391.517 248.896 392.785 248.896Z" fill="#383A48"/>
<path d="M392.785 260.183C394.053 260.183 395.08 259.156 395.08 257.889C395.08 256.622 394.053 255.595 392.785 255.595C391.517 255.595 390.489 256.622 390.489 257.889C390.489 259.156 391.517 260.183 392.785 260.183Z" fill="#383A48"/>
<path d="M392.785 271.517C394.053 271.517 395.08 270.489 395.08 269.222C395.08 267.955 394.053 266.928 392.785 266.928C391.517 266.928 390.489 267.955 390.489 269.222C390.489 270.489 391.517 271.517 392.785 271.517Z" fill="#383A48"/>
<path d="M392.785 282.85C394.053 282.85 395.08 281.823 395.08 280.556C395.08 279.289 394.053 278.261 392.785 278.261C391.517 278.261 390.489 279.289 390.489 280.556C390.489 281.823 391.517 282.85 392.785 282.85Z" fill="#383A48"/>
<path d="M392.785 294.137C394.053 294.137 395.08 293.11 395.08 291.843C395.08 290.576 394.053 289.549 392.785 289.549C391.517 289.549 390.489 290.576 390.489 291.843C390.489 293.11 391.517 294.137 392.785 294.137Z" fill="#383A48"/>
<path d="M392.785 305.47C394.053 305.47 395.08 304.443 395.08 303.176C395.08 301.909 394.053 300.882 392.785 300.882C391.517 300.882 390.489 301.909 390.489 303.176C390.489 304.443 391.517 305.47 392.785 305.47Z" fill="#383A48"/>
<path d="M392.785 316.804C394.053 316.804 395.08 315.777 395.08 314.509C395.08 313.242 394.053 312.215 392.785 312.215C391.517 312.215 390.489 313.242 390.489 314.509C390.489 315.777 391.517 316.804 392.785 316.804Z" fill="#383A48"/>
<path d="M392.785 328.091C394.053 328.091 395.08 327.064 395.08 325.797C395.08 324.53 394.053 323.502 392.785 323.502C391.517 323.502 390.489 324.53 390.489 325.797C390.489 327.064 391.517 328.091 392.785 328.091Z" fill="#383A48"/>
<path d="M392.785 339.424C394.053 339.424 395.08 338.397 395.08 337.13C395.08 335.863 394.053 334.836 392.785 334.836C391.517 334.836 390.489 335.863 390.489 337.13C390.489 338.397 391.517 339.424 392.785 339.424Z" fill="#383A48"/>
<path d="M393.244 352.134C394.512 352.134 395.54 351.107 395.54 349.84C395.54 348.573 394.512 347.545 393.244 347.545C391.976 347.545 390.949 348.573 390.949 349.84C390.949 351.107 391.976 352.134 393.244 352.134Z" fill="#383A48"/>
<path d="M393.244 363.421C394.512 363.421 395.54 362.394 395.54 361.127C395.54 359.86 394.512 358.833 393.244 358.833C391.976 358.833 390.949 359.86 390.949 361.127C390.949 362.394 391.976 363.421 393.244 363.421Z" fill="#383A48"/>
<path d="M393.244 374.754C394.512 374.754 395.54 373.727 395.54 372.46C395.54 371.193 394.512 370.166 393.244 370.166C391.976 370.166 390.949 371.193 390.949 372.46C390.949 373.727 391.976 374.754 393.244 374.754Z" fill="#383A48"/>
<path d="M394.621 386.088C395.889 386.088 396.917 385.06 396.917 383.793C396.917 382.526 395.889 381.499 394.621 381.499C393.354 381.499 392.326 382.526 392.326 383.793C392.326 385.06 393.354 386.088 394.621 386.088Z" fill="#383A48"/>
<path d="M394.621 397.375C395.889 397.375 396.917 396.348 396.917 395.081C396.917 393.814 395.889 392.787 394.621 392.787C393.354 392.787 392.326 393.814 392.326 395.081C392.326 396.348 393.354 397.375 394.621 397.375Z" fill="#383A48"/>
<path d="M381.904 284.226C383.172 284.226 384.2 283.199 384.2 281.932C384.2 280.665 383.172 279.638 381.904 279.638C380.637 279.638 379.609 280.665 379.609 281.932C379.609 283.199 380.637 284.226 381.904 284.226Z" fill="#383A48"/>
<path d="M381.904 295.514C383.172 295.514 384.2 294.486 384.2 293.219C384.2 291.952 383.172 290.925 381.904 290.925C380.637 290.925 379.609 291.952 379.609 293.219C379.609 294.486 380.637 295.514 381.904 295.514Z" fill="#383A48"/>
<path d="M381.904 306.847C383.172 306.847 384.2 305.82 384.2 304.553C384.2 303.286 383.172 302.259 381.904 302.259C380.637 302.259 379.609 303.286 379.609 304.553C379.609 305.82 380.637 306.847 381.904 306.847Z" fill="#383A48"/>
<path d="M381.904 318.18C383.172 318.18 384.2 317.153 384.2 315.886C384.2 314.619 383.172 313.592 381.904 313.592C380.637 313.592 379.609 314.619 379.609 315.886C379.609 317.153 380.637 318.18 381.904 318.18Z" fill="#383A48"/>
<path d="M381.904 329.467C383.172 329.467 384.2 328.44 384.2 327.173C384.2 325.906 383.172 324.879 381.904 324.879C380.637 324.879 379.609 325.906 379.609 327.173C379.609 328.44 380.637 329.467 381.904 329.467Z" fill="#383A48"/>
<path d="M381.904 340.801C383.172 340.801 384.2 339.774 384.2 338.507C384.2 337.24 383.172 336.212 381.904 336.212C380.637 336.212 379.609 337.24 379.609 338.507C379.609 339.774 380.637 340.801 381.904 340.801Z" fill="#383A48"/>
<path d="M381.904 352.134C383.172 352.134 384.2 351.107 384.2 349.84C384.2 348.573 383.172 347.545 381.904 347.545C380.637 347.545 379.609 348.573 379.609 349.84C379.609 351.107 380.637 352.134 381.904 352.134Z" fill="#383A48"/>
<path d="M381.904 363.421C383.172 363.421 384.2 362.394 384.2 361.127C384.2 359.86 383.172 358.833 381.904 358.833C380.637 358.833 379.609 359.86 379.609 361.127C379.609 362.394 380.637 363.421 381.904 363.421Z" fill="#383A48"/>
<path d="M381.904 374.754C383.172 374.754 384.2 373.727 384.2 372.46C384.2 371.193 383.172 370.166 381.904 370.166C380.637 370.166 379.609 371.193 379.609 372.46C379.609 373.727 380.637 374.754 381.904 374.754Z" fill="#383A48"/>
<path d="M383.282 386.088C384.55 386.088 385.577 385.06 385.577 383.793C385.577 382.526 384.55 381.499 383.282 381.499C382.014 381.499 380.986 382.526 380.986 383.793C380.986 385.06 382.014 386.088 383.282 386.088Z" fill="#383A48"/>
<path d="M383.282 397.375C384.55 397.375 385.577 396.348 385.577 395.081C385.577 393.814 384.55 392.787 383.282 392.787C382.014 392.787 380.986 393.814 380.986 395.081C380.986 396.348 382.014 397.375 383.282 397.375Z" fill="#383A48"/>
<path d="M370.565 284.226C371.833 284.226 372.86 283.199 372.86 281.932C372.86 280.665 371.833 279.638 370.565 279.638C369.297 279.638 368.27 280.665 368.27 281.932C368.27 283.199 369.297 284.226 370.565 284.226Z" fill="#383A48"/>
<path d="M370.565 295.514C371.833 295.514 372.86 294.486 372.86 293.219C372.86 291.952 371.833 290.925 370.565 290.925C369.297 290.925 368.27 291.952 368.27 293.219C368.27 294.486 369.297 295.514 370.565 295.514Z" fill="#383A48"/>
<path d="M370.565 306.847C371.833 306.847 372.86 305.82 372.86 304.553C372.86 303.286 371.833 302.259 370.565 302.259C369.297 302.259 368.27 303.286 368.27 304.553C368.27 305.82 369.297 306.847 370.565 306.847Z" fill="#383A48"/>
<path d="M370.565 318.18C371.833 318.18 372.86 317.153 372.86 315.886C372.86 314.619 371.833 313.592 370.565 313.592C369.297 313.592 368.27 314.619 368.27 315.886C368.27 317.153 369.297 318.18 370.565 318.18Z" fill="#383A48"/>
<path d="M370.565 329.467C371.833 329.467 372.86 328.44 372.86 327.173C372.86 325.906 371.833 324.879 370.565 324.879C369.297 324.879 368.27 325.906 368.27 327.173C368.27 328.44 369.297 329.467 370.565 329.467Z" fill="#383A48"/>
<path d="M370.565 340.801C371.833 340.801 372.86 339.774 372.86 338.507C372.86 337.24 371.833 336.212 370.565 336.212C369.297 336.212 368.27 337.24 368.27 338.507C368.27 339.774 369.297 340.801 370.565 340.801Z" fill="#383A48"/>
<path d="M370.565 352.134C371.833 352.134 372.86 351.107 372.86 349.84C372.86 348.573 371.833 347.545 370.565 347.545C369.297 347.545 368.27 348.573 368.27 349.84C368.27 351.107 369.297 352.134 370.565 352.134Z" fill="#383A48"/>
<path d="M370.565 363.421C371.833 363.421 372.86 362.394 372.86 361.127C372.86 359.86 371.833 358.833 370.565 358.833C369.297 358.833 368.27 359.86 368.27 361.127C368.27 362.394 369.297 363.421 370.565 363.421Z" fill="#383A48"/>
<path d="M370.565 374.754C371.833 374.754 372.86 373.727 372.86 372.46C372.86 371.193 371.833 370.166 370.565 370.166C369.297 370.166 368.27 371.193 368.27 372.46C368.27 373.727 369.297 374.754 370.565 374.754Z" fill="#383A48"/>
<path d="M371.942 386.088C373.21 386.088 374.238 385.06 374.238 383.793C374.238 382.526 373.21 381.499 371.942 381.499C370.674 381.499 369.647 382.526 369.647 383.793C369.647 385.06 370.674 386.088 371.942 386.088Z" fill="#383A48"/>
<path d="M371.942 397.375C373.21 397.375 374.238 396.348 374.238 395.081C374.238 393.814 373.21 392.787 371.942 392.787C370.674 392.787 369.647 393.814 369.647 395.081C369.647 396.348 370.674 397.375 371.942 397.375Z" fill="#383A48"/>
<path d="M359.271 284.226C360.539 284.226 361.567 283.199 361.567 281.932C361.567 280.665 360.539 279.638 359.271 279.638C358.004 279.638 356.976 280.665 356.976 281.932C356.976 283.199 358.004 284.226 359.271 284.226Z" fill="#383A48"/>
<path d="M359.271 295.514C360.539 295.514 361.567 294.486 361.567 293.219C361.567 291.952 360.539 290.925 359.271 290.925C358.004 290.925 356.976 291.952 356.976 293.219C356.976 294.486 358.004 295.514 359.271 295.514Z" fill="#383A48"/>
<path d="M359.271 306.847C360.539 306.847 361.567 305.82 361.567 304.553C361.567 303.286 360.539 302.259 359.271 302.259C358.004 302.259 356.976 303.286 356.976 304.553C356.976 305.82 358.004 306.847 359.271 306.847Z" fill="#383A48"/>
<path d="M359.271 318.18C360.539 318.18 361.567 317.153 361.567 315.886C361.567 314.619 360.539 313.592 359.271 313.592C358.004 313.592 356.976 314.619 356.976 315.886C356.976 317.153 358.004 318.18 359.271 318.18Z" fill="#383A48"/>
<path d="M359.271 329.467C360.539 329.467 361.567 328.44 361.567 327.173C361.567 325.906 360.539 324.879 359.271 324.879C358.004 324.879 356.976 325.906 356.976 327.173C356.976 328.44 358.004 329.467 359.271 329.467Z" fill="#383A48"/>
<path d="M359.271 340.801C360.539 340.801 361.567 339.774 361.567 338.507C361.567 337.24 360.539 336.212 359.271 336.212C358.004 336.212 356.976 337.24 356.976 338.507C356.976 339.774 358.004 340.801 359.271 340.801Z" fill="#383A48"/>
<path d="M359.271 352.134C360.539 352.134 361.567 351.107 361.567 349.84C361.567 348.573 360.539 347.545 359.271 347.545C358.004 347.545 356.976 348.573 356.976 349.84C356.976 351.107 358.004 352.134 359.271 352.134Z" fill="#383A48"/>
<path d="M359.271 363.421C360.539 363.421 361.567 362.394 361.567 361.127C361.567 359.86 360.539 358.833 359.271 358.833C358.004 358.833 356.976 359.86 356.976 361.127C356.976 362.394 358.004 363.421 359.271 363.421Z" fill="#383A48"/>
<path d="M359.271 374.754C360.539 374.754 361.567 373.727 361.567 372.46C361.567 371.193 360.539 370.166 359.271 370.166C358.004 370.166 356.976 371.193 356.976 372.46C356.976 373.727 358.004 374.754 359.271 374.754Z" fill="#383A48"/>
<path d="M360.649 386.088C361.916 386.088 362.944 385.06 362.944 383.793C362.944 382.526 361.916 381.499 360.649 381.499C359.381 381.499 358.353 382.526 358.353 383.793C358.353 385.06 359.381 386.088 360.649 386.088Z" fill="#383A48"/>
<path d="M360.649 397.375C361.916 397.375 362.944 396.348 362.944 395.081C362.944 393.814 361.916 392.787 360.649 392.787C359.381 392.787 358.353 393.814 358.353 395.081C358.353 396.348 359.381 397.375 360.649 397.375Z" fill="#383A48"/>
<path d="M347.932 284.226C349.2 284.226 350.227 283.199 350.227 281.932C350.227 280.665 349.2 279.638 347.932 279.638C346.664 279.638 345.636 280.665 345.636 281.932C345.636 283.199 346.664 284.226 347.932 284.226Z" fill="#383A48"/>
<path d="M347.932 295.514C349.2 295.514 350.227 294.486 350.227 293.219C350.227 291.952 349.2 290.925 347.932 290.925C346.664 290.925 345.636 291.952 345.636 293.219C345.636 294.486 346.664 295.514 347.932 295.514Z" fill="#383A48"/>
<path d="M347.932 306.847C349.2 306.847 350.227 305.82 350.227 304.553C350.227 303.286 349.2 302.259 347.932 302.259C346.664 302.259 345.636 303.286 345.636 304.553C345.636 305.82 346.664 306.847 347.932 306.847Z" fill="#383A48"/>
<path d="M347.932 318.18C349.2 318.18 350.227 317.153 350.227 315.886C350.227 314.619 349.2 313.592 347.932 313.592C346.664 313.592 345.636 314.619 345.636 315.886C345.636 317.153 346.664 318.18 347.932 318.18Z" fill="#383A48"/>
<path d="M347.932 329.467C349.2 329.467 350.227 328.44 350.227 327.173C350.227 325.906 349.2 324.879 347.932 324.879C346.664 324.879 345.636 325.906 345.636 327.173C345.636 328.44 346.664 329.467 347.932 329.467Z" fill="#383A48"/>
<path d="M347.932 340.801C349.2 340.801 350.227 339.774 350.227 338.507C350.227 337.24 349.2 336.212 347.932 336.212C346.664 336.212 345.636 337.24 345.636 338.507C345.636 339.774 346.664 340.801 347.932 340.801Z" fill="#383A48"/>
<path d="M347.932 352.134C349.2 352.134 350.227 351.107 350.227 349.84C350.227 348.573 349.2 347.545 347.932 347.545C346.664 347.545 345.636 348.573 345.636 349.84C345.636 351.107 346.664 352.134 347.932 352.134Z" fill="#383A48"/>
<path d="M347.932 363.421C349.2 363.421 350.227 362.394 350.227 361.127C350.227 359.86 349.2 358.833 347.932 358.833C346.664 358.833 345.636 359.86 345.636 361.127C345.636 362.394 346.664 363.421 347.932 363.421Z" fill="#383A48"/>
<path d="M347.932 374.754C349.2 374.754 350.227 373.727 350.227 372.46C350.227 371.193 349.2 370.166 347.932 370.166C346.664 370.166 345.636 371.193 345.636 372.46C345.636 373.727 346.664 374.754 347.932 374.754Z" fill="#383A48"/>
<path d="M349.309 386.088C350.577 386.088 351.605 385.06 351.605 383.793C351.605 382.526 350.577 381.499 349.309 381.499C348.041 381.499 347.014 382.526 347.014 383.793C347.014 385.06 348.041 386.088 349.309 386.088Z" fill="#383A48"/>
<path d="M349.309 397.375C350.577 397.375 351.605 396.348 351.605 395.081C351.605 393.814 350.577 392.787 349.309 392.787C348.041 392.787 347.014 393.814 347.014 395.081C347.014 396.348 348.041 397.375 349.309 397.375Z" fill="#383A48"/>
<path d="M338.429 318.18C339.696 318.18 340.724 317.153 340.724 315.886C340.724 314.619 339.696 313.592 338.429 313.592C337.161 313.592 336.133 314.619 336.133 315.886C336.133 317.153 337.161 318.18 338.429 318.18Z" fill="#383A48"/>
<path d="M338.429 329.467C339.696 329.467 340.724 328.44 340.724 327.173C340.724 325.906 339.696 324.879 338.429 324.879C337.161 324.879 336.133 325.906 336.133 327.173C336.133 328.44 337.161 329.467 338.429 329.467Z" fill="#383A48"/>
<path d="M338.429 340.801C339.696 340.801 340.724 339.774 340.724 338.507C340.724 337.24 339.696 336.212 338.429 336.212C337.161 336.212 336.133 337.24 336.133 338.507C336.133 339.774 337.161 340.801 338.429 340.801Z" fill="#383A48"/>
<path d="M338.429 352.134C339.696 352.134 340.724 351.107 340.724 349.84C340.724 348.573 339.696 347.545 338.429 347.545C337.161 347.545 336.133 348.573 336.133 349.84C336.133 351.107 337.161 352.134 338.429 352.134Z" fill="#383A48"/>
<path d="M338.429 363.421C339.696 363.421 340.724 362.394 340.724 361.127C340.724 359.86 339.696 358.833 338.429 358.833C337.161 358.833 336.133 359.86 336.133 361.127C336.133 362.394 337.161 363.421 338.429 363.421Z" fill="#383A48"/>
<path d="M338.429 374.754C339.696 374.754 340.724 373.727 340.724 372.46C340.724 371.193 339.696 370.166 338.429 370.166C337.161 370.166 336.133 371.193 336.133 372.46C336.133 373.727 337.161 374.754 338.429 374.754Z" fill="#383A48"/>
<path d="M338.429 386.088C339.696 386.088 340.724 385.06 340.724 383.793C340.724 382.526 339.696 381.499 338.429 381.499C337.161 381.499 336.133 382.526 336.133 383.793C336.133 385.06 337.161 386.088 338.429 386.088Z" fill="#383A48"/>
<path d="M338.429 397.375C339.696 397.375 340.724 396.348 340.724 395.081C340.724 393.814 339.696 392.787 338.429 392.787C337.161 392.787 336.133 393.814 336.133 395.081C336.133 396.348 337.161 397.375 338.429 397.375Z" fill="#383A48"/>
<path d="M327.135 318.18C328.403 318.18 329.43 317.153 329.43 315.886C329.43 314.619 328.403 313.592 327.135 313.592C325.867 313.592 324.84 314.619 324.84 315.886C324.84 317.153 325.867 318.18 327.135 318.18Z" fill="#383A48"/>
<path d="M327.135 329.467C328.403 329.467 329.43 328.44 329.43 327.173C329.43 325.906 328.403 324.879 327.135 324.879C325.867 324.879 324.84 325.906 324.84 327.173C324.84 328.44 325.867 329.467 327.135 329.467Z" fill="#383A48"/>
<path d="M327.135 340.801C328.403 340.801 329.43 339.774 329.43 338.507C329.43 337.24 328.403 336.212 327.135 336.212C325.867 336.212 324.84 337.24 324.84 338.507C324.84 339.774 325.867 340.801 327.135 340.801Z" fill="#383A48"/>
<path d="M327.135 352.134C328.403 352.134 329.43 351.107 329.43 349.84C329.43 348.573 328.403 347.545 327.135 347.545C325.867 347.545 324.84 348.573 324.84 349.84C324.84 351.107 325.867 352.134 327.135 352.134Z" fill="#383A48"/>
<path d="M327.135 363.421C328.403 363.421 329.43 362.394 329.43 361.127C329.43 359.86 328.403 358.833 327.135 358.833C325.867 358.833 324.84 359.86 324.84 361.127C324.84 362.394 325.867 363.421 327.135 363.421Z" fill="#383A48"/>
<path d="M327.135 374.754C328.403 374.754 329.43 373.727 329.43 372.46C329.43 371.193 328.403 370.166 327.135 370.166C325.867 370.166 324.84 371.193 324.84 372.46C324.84 373.727 325.867 374.754 327.135 374.754Z" fill="#383A48"/>
<path d="M327.135 386.088C328.403 386.088 329.43 385.06 329.43 383.793C329.43 382.526 328.403 381.499 327.135 381.499C325.867 381.499 324.84 382.526 324.84 383.793C324.84 385.06 325.867 386.088 327.135 386.088Z" fill="#383A48"/>
<path d="M327.135 397.375C328.403 397.375 329.43 396.348 329.43 395.081C329.43 393.814 328.403 392.787 327.135 392.787C325.867 392.787 324.84 393.814 324.84 395.081C324.84 396.348 325.867 397.375 327.135 397.375Z" fill="#383A48"/>
<path d="M315.795 318.18C317.063 318.18 318.091 317.153 318.091 315.886C318.091 314.619 317.063 313.592 315.795 313.592C314.528 313.592 313.5 314.619 313.5 315.886C313.5 317.153 314.528 318.18 315.795 318.18Z" fill="#383A48"/>
<path d="M315.795 329.467C317.063 329.467 318.091 328.44 318.091 327.173C318.091 325.906 317.063 324.879 315.795 324.879C314.528 324.879 313.5 325.906 313.5 327.173C313.5 328.44 314.528 329.467 315.795 329.467Z" fill="#383A48"/>
<path d="M315.795 340.801C317.063 340.801 318.091 339.774 318.091 338.507C318.091 337.24 317.063 336.212 315.795 336.212C314.528 336.212 313.5 337.24 313.5 338.507C313.5 339.774 314.528 340.801 315.795 340.801Z" fill="#383A48"/>
<path d="M315.795 352.134C317.063 352.134 318.091 351.107 318.091 349.84C318.091 348.573 317.063 347.545 315.795 347.545C314.528 347.545 313.5 348.573 313.5 349.84C313.5 351.107 314.528 352.134 315.795 352.134Z" fill="#383A48"/>
<path d="M315.795 363.421C317.063 363.421 318.091 362.394 318.091 361.127C318.091 359.86 317.063 358.833 315.795 358.833C314.528 358.833 313.5 359.86 313.5 361.127C313.5 362.394 314.528 363.421 315.795 363.421Z" fill="#383A48"/>
<path d="M315.795 374.754C317.063 374.754 318.091 373.727 318.091 372.46C318.091 371.193 317.063 370.166 315.795 370.166C314.528 370.166 313.5 371.193 313.5 372.46C313.5 373.727 314.528 374.754 315.795 374.754Z" fill="#383A48"/>
<path d="M315.795 386.088C317.063 386.088 318.091 385.06 318.091 383.793C318.091 382.526 317.063 381.499 315.795 381.499C314.528 381.499 313.5 382.526 313.5 383.793C313.5 385.06 314.528 386.088 315.795 386.088Z" fill="#383A48"/>
<path d="M315.795 397.375C317.063 397.375 318.091 396.348 318.091 395.081C318.091 393.814 317.063 392.787 315.795 392.787C314.528 392.787 313.5 393.814 313.5 395.081C313.5 396.348 314.528 397.375 315.795 397.375Z" fill="#383A48"/>
<path d="M769.792 79.2729V163.415C769.792 163.415 736.055 158.142 722.886 118.685C709.718 79.2729 681.52 79.2729 681.52 79.2729H769.792Z" fill="#F3F6E6"/>
<path d="M769.792 165.688C769.656 165.688 769.565 165.688 769.429 165.642C769.066 165.597 760.438 164.187 750.085 157.778C740.55 151.868 727.745 140.413 720.752 119.412C715.576 103.956 707.13 92.501 696.369 86.3188C688.286 81.6367 681.611 81.5457 681.52 81.5457C680.249 81.5457 679.25 80.5457 679.25 79.2729C679.25 78.0455 680.249 77 681.475 77H769.747C771.018 77 772.017 78.0001 772.017 79.2729V163.415C772.017 164.096 771.745 164.687 771.245 165.142C770.836 165.506 770.337 165.688 769.792 165.688ZM697.14 81.5457C697.549 81.773 697.958 82.0003 698.366 82.2276C713.351 90.7282 721.161 106.366 725.021 117.957C735.51 149.323 759.53 158.369 767.522 160.551V81.5457H697.14Z" fill="#F3F6E6"/>
<path d="M703.715 325.187C703.117 325.187 702.519 324.957 702.104 324.497L673.753 296.146C672.832 295.225 672.832 293.798 673.753 292.878C674.673 291.957 676.1 291.957 677.021 292.878L705.372 321.229C706.293 322.15 706.293 323.577 705.372 324.497C704.912 324.957 704.314 325.187 703.715 325.187Z" fill="#383A48"/>
<path d="M157.521 170.491L146.439 181.575L149.798 184.933L160.88 173.849L157.521 170.491Z" fill="#383A48"/>
<path d="M149.797 170.492L146.439 173.85L157.521 184.932L160.879 181.574L149.797 170.492Z" fill="#383A48"/>
<path d="M435.531 111.01C442.354 111.01 447.885 105.479 447.885 98.6562C447.885 91.8333 442.354 86.3022 435.531 86.3022C428.708 86.3022 423.177 91.8333 423.177 98.6562C423.177 105.479 428.708 111.01 435.531 111.01Z" fill="#383A48"/>
<path d="M435.531 112.063C428.144 112.063 422.125 106.043 422.125 98.6563C422.125 91.2691 428.144 85.25 435.531 85.25C442.918 85.25 448.938 91.2691 448.938 98.6563C448.938 106.043 442.918 112.063 435.531 112.063ZM435.531 87.3546C429.302 87.3546 424.23 92.4267 424.23 98.6563C424.23 104.886 429.302 109.958 435.531 109.958C441.761 109.958 446.833 104.886 446.833 98.6563C446.833 92.4267 441.761 87.3546 435.531 87.3546Z" fill="#383A48"/>
</g>
<defs>
<clipPath id="clip0_11_14897">
<rect width="880" height="495" fill="white"/>
</clipPath>
</defs>
</svg>
