<svg width="19" height="23" viewBox="0 0 19 23" fill="none" xmlns="http://www.w3.org/2000/svg">
<path d="M13.8727 8.9096V20.8801C13.8727 21.4831 13.3861 21.9695 12.7827 21.9695H2.6161C2.01272 21.9695 1.52612 21.4831 1.52612 20.8801V6.37413C1.52612 5.77107 2.01272 5.28473 2.6161 5.28473H10.2394L13.8727 8.9096Z" fill="#323334" stroke="white" stroke-width="2" stroke-linecap="round" stroke-linejoin="round"/>
<path d="M10.2395 5.2782V7.82012C10.2395 8.42318 10.7261 8.90952 11.3295 8.90952H13.8727" fill="#323334"/>
<path d="M10.2395 5.2782V7.82012C10.2395 8.42318 10.7261 8.90952 11.3295 8.90952H13.8727" stroke="white" stroke-width="2" stroke-linecap="round" stroke-linejoin="round"/>
<path d="M17.4993 5.61556V17.586C17.4993 18.1891 17.0127 18.6754 16.4094 18.6754H6.2428C5.63943 18.6754 5.15283 18.1891 5.15283 17.586V3.0801C5.15283 2.47703 5.63943 1.99069 6.2428 1.99069H13.8661L17.4993 5.61556Z" fill="#323334" stroke="white" stroke-width="2" stroke-linecap="round" stroke-linejoin="round"/>
<path d="M13.8727 1.98407V4.526C13.8727 5.12906 14.3593 5.6154 14.9627 5.6154H17.506" fill="#323334"/>
<path d="M13.8727 1.98407V4.526C13.8727 5.12906 14.3593 5.6154 14.9627 5.6154H17.506" stroke="white" stroke-width="2" stroke-linecap="round" stroke-linejoin="round"/>
</svg>
