<svg width="29" height="35" viewBox="0 0 29 35" fill="none" xmlns="http://www.w3.org/2000/svg">
<path d="M21.7134 12.4756V31.7751C21.7134 32.7474 20.9289 33.5316 19.9561 33.5316H3.56499C2.59219 33.5316 1.80768 32.7474 1.80768 31.7751V8.38781C1.80768 7.41552 2.59219 6.63141 3.56499 6.63141H15.8557L21.7134 12.4756Z" fill="#F6F8FA" stroke="black" stroke-width="2" stroke-linecap="round" stroke-linejoin="round"/>
<path d="M15.8557 6.62097V10.7193C15.8557 11.6916 16.6402 12.4757 17.613 12.4757H21.7134" fill="#F6F8FA"/>
<path d="M15.8557 6.62097V10.7193C15.8557 11.6916 16.6402 12.4757 17.613 12.4757H21.7134" stroke="black" stroke-width="2" stroke-linecap="round" stroke-linejoin="round"/>
<path d="M27.5606 7.16459V26.4641C27.5606 27.4364 26.7761 28.2205 25.8033 28.2205H9.41216C8.43936 28.2205 7.65485 27.4364 7.65485 26.4641V3.07678C7.65485 2.10448 8.43936 1.32037 9.41216 1.32037H21.7029L27.5606 7.16459Z" fill="#F6F8FA" stroke="black" stroke-width="2" stroke-linecap="round" stroke-linejoin="round"/>
<path d="M21.7134 1.31V5.40827C21.7134 6.38056 22.498 7.16467 23.4708 7.16467H27.5712" fill="#F6F8FA"/>
<path d="M21.7134 1.31V5.40827C21.7134 6.38056 22.498 7.16467 23.4708 7.16467H27.5712" stroke="black" stroke-width="2" stroke-linecap="round" stroke-linejoin="round"/>
</svg>
