<svg width="804" height="345" viewBox="0 0 804 345" fill="none" xmlns="http://www.w3.org/2000/svg">
<path d="M1 343.765H803V33.9266H799.651H1V343.765Z" fill="#1E1E1E" stroke="black" stroke-width="2" stroke-miterlimit="10"/>
<path d="M47.9827 34.4181H1.43091V336.562H47.9827V34.4181Z" fill="#323334" stroke="black" stroke-width="2" stroke-miterlimit="10"/>
<path d="M1 33.9266H803V9.76797C803 5.44492 800.278 1.94325 796.918 1.94325H7.0824C3.72155 1.94325 1 5.44492 1 9.76797V33.9266V33.9266Z" fill="#323334" stroke="black" stroke-width="2" stroke-miterlimit="10"/>
<path d="M66.461 16.0088C65.6818 20.7706 69.741 24.8277 74.5053 24.0415C77.3921 23.5668 79.7148 21.2453 80.1898 18.36C80.969 13.5982 76.9097 9.54106 72.1454 10.3273C69.2587 10.802 66.9359 13.1235 66.461 16.0088Z" fill="#81C8BE" stroke="black" stroke-width="2" stroke-miterlimit="10"/>
<path d="M42.5728 16.0088C41.7936 20.7706 45.8529 24.8277 50.6172 24.0415C53.5039 23.5668 55.8267 21.2453 56.3016 18.36C57.0808 13.5982 53.0216 9.54106 48.2573 10.3273C45.3705 10.802 43.0478 13.1235 42.5728 16.0088V16.0088Z" fill="#E7E66C" stroke="black" stroke-width="2" stroke-miterlimit="10"/>
<path d="M18.6847 16.0088C17.9055 20.7706 21.9648 24.8277 26.7291 24.0415C29.6158 23.5668 31.9386 21.2453 32.4135 18.36C33.1927 13.5982 29.1334 9.54106 24.3692 10.3273C21.4824 10.802 19.1597 13.1235 18.6847 16.0088Z" fill="#E9531E" stroke="black" stroke-width="2" stroke-miterlimit="10"/>
<path d="M29.5936 55.7646V69.4566C29.5936 70.1463 29.037 70.7026 28.3468 70.7026H16.7182C16.028 70.7026 15.4714 70.1463 15.4714 69.4566V52.8645C15.4714 52.1747 16.028 51.6184 16.7182 51.6184H25.4378L29.5936 55.7646V55.7646Z" fill="#323334" stroke="white" stroke-width="2" stroke-linecap="round" stroke-linejoin="round"/>
<path d="M25.4378 51.6109V54.5184C25.4378 55.2082 25.9944 55.7645 26.6845 55.7645H29.5936" fill="#323334"/>
<path d="M25.4378 51.6109V54.5184C25.4378 55.2082 25.9944 55.7645 26.6845 55.7645H29.5936" stroke="white" stroke-width="2" stroke-linecap="round" stroke-linejoin="round"/>
<path d="M33.7419 51.9967V65.6887C33.7419 66.3784 33.1853 66.9347 32.4952 66.9347H20.8665C20.1764 66.9347 19.6198 66.3784 19.6198 65.6887V49.0966C19.6198 48.4068 20.1764 47.8505 20.8665 47.8505H29.5862L33.7419 51.9967V51.9967Z" fill="#323334" stroke="white" stroke-width="2" stroke-linecap="round" stroke-linejoin="round"/>
<path d="M29.5936 47.843V50.7506C29.5936 51.4403 30.1501 51.9966 30.8403 51.9966H33.7493" fill="#323334"/>
<path d="M29.5936 47.843V50.7506C29.5936 51.4403 30.1501 51.9966 30.8403 51.9966H33.7493" stroke="white" stroke-width="2" stroke-linecap="round" stroke-linejoin="round"/>
<path d="M804 328.773H0V343.765H804V328.773Z" fill="#82C9BE"/>
<path d="M19.669 89.1944C19.387 91.3973 20.0623 93.4444 21.3461 94.9797L14.3407 101.981C13.6951 102.627 14.6673 103.591 15.3055 102.946L22.3109 95.944C23.847 97.2271 25.8952 97.9095 28.0992 97.6202C31.3274 97.2049 33.9841 94.6682 34.5184 91.4566C35.3718 86.3314 30.9711 81.933 25.8433 82.7786C22.63 83.3052 20.0846 85.9605 19.6616 89.187L19.669 89.1944ZM33.242 89.632C33.5759 93.4667 30.4071 96.6412 26.5631 96.3C23.6392 96.0478 21.2497 93.6595 20.9973 90.7372C20.6634 86.9025 23.8322 83.7354 27.6762 84.0692C30.6001 84.3213 32.9897 86.7097 33.242 89.632Z" fill="white"/>
</svg>
