<svg width="94" height="94" viewBox="0 0 94 94" fill="none" xmlns="http://www.w3.org/2000/svg">
<path d="M31.462 69.4096C31.462 72.9628 28.5762 75.8486 25.023 75.8486C24.6 75.8486 24.177 75.811 23.7634 75.7264C21.2066 75.2188 19.2138 73.2166 18.7062 70.6692C18.0106 67.1818 20.276 63.7884 23.7728 63.0928C25.8784 62.6698 28.0592 63.3372 29.582 64.8506C30.7946 66.0632 31.4714 67.6988 31.4714 69.4096H31.462ZM87.6646 62.7074C83.444 33.3794 60.4046 10.34 31.086 6.12885C27.6738 7.94305 24.5248 10.2084 21.7236 12.878V19.1008C50.9482 19.129 74.6456 42.7982 74.6926 72.0229H80.9154C83.5568 69.2216 85.8222 66.0914 87.6646 62.7074Z" fill="#E7372D"/>
<path d="M92.703 43.1648C92.703 26.1696 82.4288 10.857 66.7026 4.41804C61.5984 2.33124 56.1276 1.26904 50.6098 1.29724C49.134 1.29724 47.6958 1.29724 46.2576 1.51344L45.2988 4.29584C65.9412 11.5338 82.175 27.7488 89.4318 48.3818L92.2142 47.376C92.2142 45.9848 92.4774 44.5936 92.4774 43.0238L92.703 43.1648ZM51.0892 92.684C23.6788 92.684 1.41964 70.5282 1.29744 43.1084C1.25984 29.892 6.50504 17.2114 15.8768 7.89604L18.7062 10.5468C0.686442 28.435 0.554843 57.5374 18.4242 75.5666C18.5182 75.6606 18.6122 75.7546 18.7156 75.858C36.585 93.8872 65.6874 94.0188 83.7166 76.14C83.8106 76.046 83.9046 75.952 83.9986 75.858L86.6494 78.5088C77.1836 87.8242 64.3714 92.9378 51.0892 92.6934V92.684Z" fill="#E7372D"/>
<path d="M50.5346 74.8992C51.4464 64.9352 47.1506 55.2156 39.17 49.1714C34.9682 45.8626 29.911 43.8134 24.5906 43.2494C23.2088 43.0708 22.203 41.8582 22.2876 40.467C22.3722 39.4142 23.096 38.5212 24.1018 38.211C24.4308 38.1076 24.7786 38.0794 25.117 38.117C43.8136 40.0628 57.4342 56.7478 55.5824 75.4632C55.4038 77.456 55.0278 79.4206 54.4544 81.3382L62.0308 83.472C64.268 82.8234 66.4582 81.9962 68.5638 80.9904C69.1278 78.0482 69.4004 75.059 69.391 72.0698C69.3628 48.457 52.1232 28.388 28.783 24.7972C26.2638 24.3366 23.6882 24.3366 21.169 24.7972C17.9824 25.6432 15.1154 27.4104 12.944 29.892C7.06901 36.6976 7.82101 46.9718 14.6266 52.8562C16.2622 54.2662 18.161 55.3378 20.2196 56.0146C21.5732 56.3342 22.9362 56.588 24.3086 56.7572C31.65 58.0074 37.0174 64.3712 37.0174 71.816C37.0174 74.7394 36.1714 77.597 34.5828 80.041L39.8092 83.3968C42.366 84.1018 44.998 84.5342 47.6394 84.7034C49.1998 81.5732 50.1774 78.1798 50.5158 74.6924" fill="#E7372D"/>
</svg>
