<svg width="94" height="94" viewBox="0 0 94 94" fill="none" xmlns="http://www.w3.org/2000/svg">
<path d="M57.1147 77.8226C57.1993 72.944 56.4191 73.5832 61.4763 73.4798C63.4597 73.4328 64.1365 74.119 63.9767 76.046C63.8357 77.738 64.0049 79.4582 63.9109 81.169C63.7887 83.3028 62.3787 83.7446 60.4893 83.7446C58.5811 83.7446 57.2463 83.237 57.1241 81.1032C57.0677 80.0128 57.1147 78.9224 57.1147 77.8226Z" fill="#475673"/>
<path d="M33.2199 78.0294C33.2199 78.7156 33.2387 79.3924 33.2199 80.0786C33.1353 83.19 32.4679 83.7634 29.4223 83.7258C27.4577 83.707 26.4801 82.7388 26.3861 80.9058C26.2827 78.9976 26.3391 77.08 26.3579 75.1718C26.3579 74.119 26.8749 73.508 27.9935 73.555C28.1251 73.555 28.2661 73.555 28.4071 73.5456C31.5843 73.4015 33.1917 74.8992 33.2293 78.0388L33.2199 78.0294Z" fill="#475673"/>
<path d="M76.7701 49.9985C72.2205 49.9797 72.2863 49.9797 72.2111 45.4489C72.1829 43.8039 72.6905 43.0519 74.3825 43.1177C76.2155 43.1835 78.0485 43.1177 79.8815 43.1553C81.9871 43.2023 82.3819 44.6969 82.4571 46.3701C82.5605 48.5321 81.7333 49.7917 80.0225 49.9797C78.9509 50.1019 77.8511 49.9985 76.7701 49.9985Z" fill="#475673"/>
<path d="M41.9148 77.879C42.0464 73.0756 41.097 73.5174 46.4644 73.461C48.2692 73.4422 48.9178 74.213 48.8426 75.9144C48.7674 77.55 48.899 79.2044 48.7486 80.8306C48.5324 83.1712 47.6394 83.7822 44.951 83.7164C42.742 83.66 42.0934 83.0584 41.9242 80.7554C41.8584 79.806 41.9148 78.8472 41.9148 77.8884V77.879Z" fill="#475673"/>
<path d="M76.9863 65.2265C71.6282 64.9351 72.4554 66.2229 72.2298 60.5171C72.164 58.9285 72.7186 58.2423 74.3166 58.2987C76.0275 58.3551 77.7383 58.2517 79.4397 58.3363C81.6675 58.4491 82.5699 59.6053 82.4853 62.0493C82.4007 64.3053 81.5829 65.1607 79.3927 65.2265C78.5091 65.2547 77.6161 65.2265 76.9957 65.2265H76.9863Z" fill="#475673"/>
<path d="M76.3376 34.78C71.6846 34.6296 72.4178 35.5978 72.4084 30.785C72.4084 27.965 72.5306 27.871 75.2566 27.8334C76.6948 27.8146 78.1236 27.8804 79.5618 27.9274C81.423 27.9932 82.457 28.8486 82.4946 30.832C82.5322 33.182 81.7991 34.451 79.8157 34.7518C78.6783 34.921 77.5032 34.78 76.3376 34.78Z" fill="#475673"/>
<path d="M33.2293 15.0118C33.2763 19.3828 33.2763 19.2512 28.9335 19.3076C26.8279 19.3358 26.1417 18.6496 26.3297 16.6286C26.4707 15.1434 26.2545 13.6206 26.4049 12.1354C26.6399 9.84182 27.4765 9.45642 30.5315 9.45642C32.6183 9.45642 33.3139 10.4622 33.2293 12.3516C33.1917 13.2352 33.2293 14.1282 33.2293 15.0118Z" fill="#475673"/>
<path d="M13.7901 65.236C13.1039 65.236 12.4177 65.3018 11.7409 65.2266C10.5753 65.095 9.01486 65.6214 8.49786 64.155C7.92446 62.5288 8.02786 60.7616 8.87386 59.1824C9.25926 58.4586 10.0865 58.3364 10.8573 58.3364C12.7749 58.3364 14.6831 58.3928 16.6007 58.3834C17.5125 58.3834 18.0295 58.6842 17.9825 59.6806C17.9637 60.0848 18.0107 60.4984 18.0201 60.912C18.1078 63.8198 16.6978 65.2642 13.7901 65.2454V65.236Z" fill="#475673"/>
<path d="M48.8051 15.2374C48.7675 17.8819 47.4045 19.2292 44.7161 19.2794C42.8173 19.317 41.871 18.3519 41.8773 16.3842C41.8773 14.8144 41.9149 13.2446 41.9337 11.6748C41.9525 10.293 42.5823 9.60677 44.0299 9.47517C48.2411 9.09917 48.8897 9.84177 48.8051 15.2374Z" fill="#475673"/>
<path d="M13.8746 27.9744C18.1422 27.918 18.0106 27.9274 18.067 32.1574C18.0952 34.3194 17.3808 35.062 15.2846 34.8646C13.6584 34.7048 11.9946 34.9304 10.3872 34.7048C8.47903 34.4416 8.11243 33.3794 8.22523 30.3526C8.29103 28.5666 9.17463 27.9462 10.8008 27.9744C11.8254 27.9932 12.85 27.9744 13.8746 27.9744Z" fill="#475673"/>
<path d="M13.7901 50.0267C12.9723 50.0267 12.1545 50.0643 11.3461 50.0267C8.86449 49.8951 8.28169 49.2653 8.24409 46.7743C8.18769 43.5031 8.48849 43.1929 11.7879 43.1271C12.2673 43.1177 12.7373 43.1177 13.2167 43.1177C18.5653 43.0895 18.8849 43.4937 17.9919 48.8705C17.8697 49.6131 17.6065 49.9797 16.8545 49.9703C15.8393 49.9703 14.8147 49.9703 13.7995 49.9703V50.0361L13.7901 50.0267Z" fill="#475673"/>
<path d="M57.0771 15.2186C57.0771 14.4008 57.0489 13.583 57.0771 12.7652C57.1899 10.152 57.8573 9.50336 60.4141 9.47516C63.2435 9.44696 63.8733 10.058 63.9767 12.925C63.9861 13.2634 63.9767 13.6112 63.9767 13.9496C63.9767 19.3828 63.9767 19.3452 58.5059 19.3358C57.3591 19.3358 56.8985 19.0632 57.0207 17.8788C57.1053 17.0046 57.0395 16.1022 57.0395 15.2186H57.0677H57.0771Z" fill="#475673"/>
<path d="M70.0397 30.3244C70.0397 29.6476 69.8987 28.9708 69.7859 28.294C69.2689 25.2766 66.1293 22.2686 63.0837 22.043C57.0113 21.5918 50.9295 21.8738 45.9475 21.7704C39.2453 21.7704 33.6523 21.7704 28.0499 21.7704C24.7317 21.7704 20.3043 25.9158 20.3137 29.2246C20.3231 40.7678 20.1163 52.311 20.5205 63.8542C20.5581 65.048 20.9247 66.1008 21.4887 67.1442C23.3029 70.4436 26.2733 71.346 29.7701 71.3366C40.0161 71.3178 50.2621 71.3366 60.5081 71.3178C61.5985 71.3178 62.6889 71.1768 63.7605 70.9888C66.7403 70.4718 69.6355 67.3604 69.8141 64.3242C70.4627 52.9972 70.1619 41.6608 70.0397 30.3244ZM59.8125 57.575C59.7843 61.006 59.6245 61.1188 56.1653 61.194C52.6873 61.2692 37.7883 61.4102 33.8309 61.4102C31.8099 61.4102 30.6913 60.5736 30.6161 58.3834C30.3247 50.3276 30.2025 42.2718 30.7007 34.216C30.8041 32.6462 31.4997 31.913 33.1259 31.8566C40.9185 31.584 48.7017 31.5182 56.4943 31.7908C59.4365 31.8942 59.8125 32.3454 59.8313 35.2312C59.8783 42.676 59.8877 50.1302 59.8219 57.575H59.8125Z" fill="#465673"/>
<path d="M41.8679 53.7585C41.8679 54.8395 41.8397 55.5163 41.8679 56.1931C41.9149 57.1989 41.3791 57.4339 40.4767 57.4809C39.4709 57.5373 39.3957 57.0297 39.3957 56.2495C39.4145 50.7881 39.3957 45.3173 39.4145 39.8559C39.4145 39.3201 39.1231 38.5587 40.2041 38.6057C41.1441 38.6433 41.7457 38.8407 41.7739 39.9781C41.8397 42.9767 42.1029 45.9847 42.0747 48.9833C42.0371 51.8973 45.5997 53.2885 47.8181 52.1041C48.8991 51.5307 49.6135 50.7787 49.7827 49.4533C50.1587 46.4547 50.0459 43.4467 50.1493 40.4481C50.1869 39.3765 50.2997 38.5587 51.6721 38.6151C53.2231 38.6715 52.4805 39.8277 52.4899 40.4199C52.5181 44.8567 52.4523 49.3029 52.3959 53.7397C52.3959 54.3225 52.5745 55.0463 51.7755 55.3001C51.1457 55.4975 50.5159 55.4223 50.2151 54.7267C49.9519 54.1251 49.4913 54.0311 49.0683 54.3225C46.7089 55.9393 44.4435 55.2625 41.8679 53.7679V53.7585Z" fill="#475673"/>
</svg>
