<?xml version="1.0" encoding="UTF-8"?><svg id="a" xmlns="http://www.w3.org/2000/svg" viewBox="0 0 100 100"><path d="M65.76,91.9c.16-6.49-.95-5.7,5.86-5.86,2.69,0,3.64,.79,3.33,3.48-.16,2.22,0,4.59-.16,6.81-.16,2.85-2.06,3.48-4.59,3.48s-4.28-.63-4.59-3.48c0-1.43,.16-2.85,.16-4.43Z" style="fill:#fff;"/><path d="M33.61,92.22v2.69c-.16,4.12-.95,4.91-5.07,4.91-2.69,0-3.96-1.27-4.12-3.8-.16-2.53,0-5.07,0-7.76,0-1.43,.63-2.22,2.22-2.22h.63c4.28,0,6.33,1.9,6.33,6.18h0Z" style="fill:#fff;"/><path d="M92.05,54.69c-6.18,0-6.02,0-6.18-6.18,0-2.22,.63-3.17,2.85-3.17,2.53,.16,4.91,0,7.44,0,2.85,0,3.33,2.06,3.48,4.28,.16,2.85-.95,4.59-3.33,4.91-1.27,.16-2.85,.16-4.28,.16h0Z" style="fill:#fff;"/><path d="M45.33,92.06c.16-6.49-1.11-5.86,6.18-5.86,2.38,0,3.33,.95,3.17,3.33-.16,2.22,0,4.43-.16,6.65-.32,3.17-1.43,3.96-5.07,3.8-3.01,0-3.8-.95-4.12-3.96,0-1.43,0-2.69,0-3.96h0Z" style="fill:#fff;"/><path d="M92.36,75.12c-7.13-.32-6.02,1.27-6.33-6.33-.16-2.06,.63-3.01,2.85-3.01h6.81c3.01,.16,4.28,1.74,4.12,4.91-.16,3.01-1.27,4.12-4.12,4.28-1.27,.16-2.53,.16-3.33,.16h0Z" style="fill:#fff;"/><path d="M91.57,34.26c-6.18-.16-5.23,1.11-5.23-5.38,0-3.8,.16-3.96,3.8-3.96,1.9,0,3.8,0,5.7,.16,2.53,.16,3.96,1.27,3.96,3.96,0,3.17-.95,4.91-3.64,5.23-1.58,.16-3.01,0-4.59,0h0Z" style="fill:#fff;"/><path d="M33.61,7.66c0,5.86,0,5.7-5.7,5.7-2.85,0-3.8-.95-3.48-3.64,.16-2.06-.16-3.96,.16-6.02C24.9,.69,26.01,.06,30.13,.06c2.85,0,3.8,1.43,3.64,3.96-.16,1.27-.16,2.53-.16,3.64h0Z" style="fill:#fff;"/><path d="M7.64,75.12c-.95,0-1.9,.16-2.69,0-1.58-.16-3.64,.48-4.28-1.43-.79-2.22-.63-4.59,.48-6.65,.48-.95,1.58-1.11,2.69-1.11h7.76c1.27,0,1.9,.48,1.9,1.74v1.58c-.16,3.96-2.06,5.86-5.86,5.86h0Z" style="fill:#fff;"/><path d="M54.52,7.97c0,3.48-1.9,5.38-5.54,5.38-2.53,0-3.8-1.27-3.8-3.96V3.07c0-1.9,.79-2.85,2.85-3.01,5.86-.32,6.65,.63,6.49,7.92h0Z" style="fill:#fff;"/><path d="M7.8,25.08c5.7,0,5.54,0,5.7,5.54,0,2.85-.95,3.96-3.8,3.64-2.22-.16-4.43,.16-6.49-.16-2.53-.32-3.01-1.74-2.85-5.86,.16-2.38,1.27-3.17,3.48-3.17,1.11,0,2.53,0,3.96,0h0Z" style="fill:#fff;"/><path d="M7.64,54.69h-3.33c-3.33-.16-4.12-.95-4.12-4.43,0-4.43,.32-4.75,4.75-4.91h1.9c7.13,0,7.6,.48,6.33,7.76-.16,.95-.48,1.43-1.58,1.43-1.27,0-2.69,0-3.96,.16h0Z" style="fill:#fff;"/><path d="M65.6,7.97v-3.33c.16-3.48,1.11-4.43,4.43-4.43,3.8,0,4.59,.79,4.75,4.59v1.43q0,7.28-7.28,7.28c-1.58,0-2.22-.32-2.06-1.9,.32-1.27,.16-2.53,.16-3.64h0Z" style="fill:#fff;"/><path d="M83.02,28.24c0-.95-.16-1.74-.32-2.69-.63-4.12-4.91-8.08-9.03-8.39-8.08-.63-16.31-.16-22.96-.32H26.65c-4.43,0-10.45,5.54-10.45,9.98,0,15.52-.32,31.04,.32,46.4,0,1.58,.48,3.01,1.27,4.43,2.38,4.43,6.49,5.7,11.08,5.7h41.17c1.43,0,2.85-.16,4.43-.48,3.96-.63,7.92-4.91,8.08-8.87,1.11-15.36,.63-30.56,.48-45.76h0Zm-13.62,36.58c0,4.59-.32,4.75-4.91,4.91-4.59,.16-24.7,.32-29.93,.32-2.69,0-4.28-1.11-4.28-4.12-.32-10.77-.48-21.54,.16-32.46,.16-2.06,1.11-3.17,3.33-3.17,10.45-.32,20.9-.48,31.35-.16,3.96,.16,4.43,.79,4.43,4.59-.16,10.13-.16,20.11-.16,30.09h0Z" style="fill:#fff;"/><path d="M45.33,59.6v3.33c0,1.43-.63,1.74-1.9,1.74-1.43,0-1.43-.63-1.43-1.58v-22.01c0-.79-.32-1.74,1.11-1.74,1.27,0,2.06,.32,2.06,1.9,.16,3.96,.48,8.08,.48,12.03s4.75,5.7,7.76,4.12c1.43-.79,2.38-1.74,2.69-3.48,.48-3.96,.32-8.08,.48-12.03,0-1.43,.16-2.53,2.06-2.53,2.06,0,1.11,1.58,1.11,2.38,0,6.02,0,11.88-.16,17.89,0,.79,.32,1.74-.79,2.06-.79,.32-1.74,.16-2.06-.79-.32-.79-.95-.95-1.58-.48-3.33,2.22-6.49,1.27-9.82-.79h0Z" style="fill:#fff;"/></svg>