<?xml version="1.0" encoding="UTF-8"?><svg id="a" xmlns="http://www.w3.org/2000/svg" viewBox="0 0 100 100"><path d="M22.65,11.33c0,6.22-4.97,11.33-10.91,11.33S.69,17.54,.69,11.33,5.66,0,11.74,0c6.08-.14,10.91,4.97,10.91,11.33Z" style="fill:#fff;"/><path d="M22.65,50c0,6.22-4.97,11.33-10.91,11.33S.69,56.22,.69,50s4.97-11.33,11.05-11.33c6.08-.14,10.91,4.97,10.91,11.33Z" style="fill:#fff;"/><path d="M22.65,88.67c0,6.22-4.97,11.33-10.91,11.33S.69,94.89,.69,88.67s4.97-11.33,11.05-11.33c6.08-.14,10.91,4.97,10.91,11.33Z" style="fill:#fff;"/><path d="M61.05,50c0,6.22-4.97,11.33-10.91,11.33s-11.05-5.11-11.05-11.33,4.97-11.33,11.05-11.33c5.94-.14,10.91,4.97,10.91,11.33" style="fill:#fff;"/><path d="M61.05,11.33c0,6.22-4.97,11.33-10.91,11.33s-11.05-5.11-11.05-11.33S44.06,0,50.14,0c5.94-.14,10.91,4.97,10.91,11.33" style="fill:#fff;"/><path d="M99.31,50c0,6.22-4.97,11.33-11.05,11.33s-10.91-5.11-10.91-11.33,4.97-11.33,10.91-11.33c6.22-.14,11.05,4.97,11.05,11.33Z" style="fill:#fff;"/><path d="M99.31,11.33c0,6.22-4.97,11.33-11.05,11.33s-10.91-5.11-10.91-11.33S82.32,0,88.26,0c6.22-.14,11.05,4.97,11.05,11.33Z" style="fill:#fff;"/><path d="M99.31,88.67c0,6.22-4.97,11.33-11.05,11.33s-10.91-5.11-10.91-11.33,4.97-11.33,10.91-11.33c6.22-.14,11.05,4.97,11.05,11.33Z" style="fill:#fff;"/><path d="M61.05,88.67c0,6.22-4.97,11.33-10.91,11.33s-11.05-5.11-11.05-11.33,4.97-11.33,11.05-11.33c5.94-.14,10.91,4.97,10.91,11.33" style="fill:#fff;"/></svg>