<svg width="80" height="80" viewBox="0 0 80 80" fill="none" xmlns="http://www.w3.org/2000/svg">
<g clip-path="url(#clip0_8851_71923)">
<path d="M84.5049 -25H-23.4951V83H84.5049V-25Z" fill="#1976D2"/>
<path d="M40.975 23H1.18604V32.792H15.457V77H26.764V32.792H40.975V23Z" fill="white"/>
<path d="M76.0868 35.252C76.0868 35.252 70.7258 31.676 64.6658 31.676C58.6058 31.676 56.4248 34.556 56.4248 37.634C56.4248 45.578 78.5678 44.783 78.5678 60.77C78.5678 85.397 44.8058 74.474 44.8058 74.474V62.66C44.8058 62.66 51.2618 67.526 59.0048 67.526C66.7478 67.526 66.4538 62.462 66.4538 61.766C66.4538 54.419 44.5088 54.419 44.5088 38.132C44.5088 15.989 76.4828 24.725 76.4828 24.725L76.0868 35.252Z" fill="white"/>
</g>
<defs>
<clipPath id="clip0_8851_71923">
<rect width="79.6256" height="79.6256" fill="white"/>
</clipPath>
</defs>
</svg>
