<?xml version="1.0" encoding="UTF-8"?><svg id="b" xmlns="http://www.w3.org/2000/svg" viewBox="0 0 32 32"><defs><style>.i{fill:#fff;}.j{fill:#1da1f2;}</style></defs><g id="c"><path id="d" class="j" d="M28,32H4C1.79,32,0,30.21,0,28V4C0,1.79,1.79,0,4,0H28c2.21,0,4,1.79,4,4V28c0,2.21-1.79,4-4,4Z"/><path id="e" class="i" d="M12.29,24.13c7.54,0,11.67-6.26,11.67-11.67,0-.18,0-.35,0-.53,.8-.58,1.5-1.3,2.05-2.13-.74,.33-1.53,.54-2.36,.65,.85-.5,1.5-1.31,1.81-2.27-.79,.47-1.67,.81-2.61,.99-.75-.8-1.82-1.3-2.99-1.3-2.26,0-4.1,1.84-4.1,4.1,0,.32,.04,.63,.1,.94-3.41-.17-6.43-1.81-8.46-4.29-.35,.61-.55,1.31-.55,2.06,0,1.42,.73,2.68,1.82,3.42-.67-.02-1.3-.21-1.86-.51v.06c0,1.98,1.42,3.65,3.29,4.02-.34,.1-.7,.14-1.08,.14-.26,0-.52-.02-.77-.07,.52,1.63,2.04,2.82,3.83,2.85-1.41,1.1-3.18,1.76-5.1,1.76-.33,0-.66-.02-.98-.06,1.81,1.15,3.97,1.83,6.28,1.83"/></g></svg>