<?xml version="1.0" encoding="UTF-8"?><svg id="d" xmlns="http://www.w3.org/2000/svg" viewBox="0 0 32 32"><defs><style>.g{fill:#fff;}.h{fill:red;}</style></defs><g id="e"><g><path class="h" d="M31.23,8.32c-.37-1.38-1.45-2.47-2.82-2.84-2.49-.67-12.46-.67-12.46-.67,0,0-9.97,0-12.46,.67-1.37,.37-2.45,1.46-2.82,2.84C0,10.82,0,16.05,0,16.05,0,16.05,0,21.27,.67,23.77c.37,1.38,1.45,2.42,2.82,2.79,2.49,.67,12.46,.67,12.46,.67,0,0,9.97,0,12.46-.67,1.37-.37,2.45-1.41,2.82-2.79,.67-2.5,.67-7.73,.67-7.73,0,0,0-5.22-.67-7.73Z"/><polygon class="g" points="12.69 20.79 12.69 11.3 21.02 16.05 12.69 20.79"/></g></g></svg>