<svg width="668" height="207" viewBox="0 0 668 207" fill="none" xmlns="http://www.w3.org/2000/svg">
<path d="M599 0H673V12H599V0Z" fill="#DDDDDD"/>
<path d="M168 151H338V163H168V151Z" fill="#E9531E"/>
<path d="M175.999 107.001H673.999V119.001H175.999V107.001Z" fill="#E7E66C"/>
<path d="M0.648407 194.849H337.899V207.001H0.648407V194.849Z" fill="#AA97C8"/>
<path d="M549.291 47.5428H672.847V59.6949H549.291V47.5428Z" fill="#81C8BE"/>
<path d="M384.279 150.686H435.467V162.838H384.279V150.686Z" fill="#81C8BE"/>
<path d="M383.096 194.849H466.721V207.001H383.096V194.849Z" fill="#E7E66C"/>
<path d="M480.93 150.686H672.506V162.838H480.93V150.686Z" fill="#AA97C8"/>
<path d="M512.184 194.849H595.809V207.001H512.184V194.849Z" fill="#DDDDDD"/>
<path d="M641.273 194.849H672.506V207.001H641.273V194.849Z" fill="#81C8BE"/>
</svg>
