<svg width="1158" height="656" viewBox="0 0 1158 656" fill="none" xmlns="http://www.w3.org/2000/svg">
<path d="M1 642H1156V46H1151.18H1V642Z" fill="white" stroke="black" stroke-width="2" stroke-miterlimit="10"/>
<path d="M68 47H2V653H68V47Z" fill="#CACBCE" stroke="black" stroke-width="2" stroke-miterlimit="10"/>
<path d="M1 46H1157V12.0092C1157 5.92679 1153.08 1 1148.23 1H9.76715C4.92284 1 1 5.92679 1 12.0092V46Z" fill="#CACBCE" stroke="black" stroke-width="2" stroke-miterlimit="10"/>
<path d="M93.6796 20.8363C92.5813 27.5517 98.303 33.2735 105.018 32.1647C109.087 31.4952 112.362 28.2212 113.031 24.1522C114.129 17.4367 108.408 11.715 101.692 12.8238C97.6231 13.4932 94.3491 16.7673 93.6796 20.8363Z" fill="#81C8BE" stroke="black" stroke-width="2" stroke-miterlimit="10"/>
<path d="M60.0083 20.8363C58.91 27.5517 64.6317 33.2735 71.3472 32.1647C75.4162 31.4952 78.6902 28.2212 79.3597 24.1522C80.458 17.4367 74.7363 11.715 68.0208 12.8238C63.9518 13.4932 60.6778 16.7673 60.0083 20.8363Z" fill="#E7E66C" stroke="black" stroke-width="2" stroke-miterlimit="10"/>
<path d="M26.3369 20.8363C25.2386 27.5518 30.9604 33.2735 37.6758 32.1647C41.7448 31.4953 45.0189 28.2212 45.6883 24.1522C46.7866 17.4368 41.0649 11.7151 34.3495 12.8238C30.2804 13.4933 27.0064 16.7673 26.3369 20.8363Z" fill="#E9531E" stroke="black" stroke-width="2" stroke-miterlimit="10"/>
<path d="M41.7135 76.903V96.2125C41.7135 97.1853 40.929 97.9698 39.9562 97.9698H23.565C22.5922 97.9698 21.8077 97.1853 21.8077 96.2125V72.813C21.8077 71.8402 22.5922 71.0557 23.565 71.0557H35.8558L41.7135 76.903Z" fill="#CACBCE" stroke="black" stroke-width="2" stroke-linecap="round" stroke-linejoin="round"/>
<path d="M35.8557 71.0453V75.1457C35.8557 76.1185 36.6402 76.903 37.613 76.903H41.7134" fill="#CACBCE"/>
<path d="M35.8557 71.0453V75.1457C35.8557 76.1185 36.6402 76.903 37.613 76.903H41.7134" stroke="black" stroke-width="2" stroke-linecap="round" stroke-linejoin="round"/>
<path d="M47.5606 71.5891V90.8987C47.5606 91.8715 46.7761 92.656 45.8033 92.656H29.4122C28.4394 92.656 27.6549 91.8715 27.6549 90.8987V67.4992C27.6549 66.5264 28.4394 65.7419 29.4122 65.7419H41.7029L47.5606 71.5891Z" fill="#CACBCE" stroke="black" stroke-width="2" stroke-linecap="round" stroke-linejoin="round"/>
<path d="M41.7135 65.7315V69.8319C41.7135 70.8047 42.498 71.5892 43.4708 71.5892H47.5712" fill="#CACBCE"/>
<path d="M41.7135 65.7315V69.8319C41.7135 70.8047 42.498 71.5892 43.4708 71.5892H47.5712" stroke="black" stroke-width="2" stroke-linecap="round" stroke-linejoin="round"/>
<path d="M1158 634H0V656H1158V634Z" fill="#82C9BE"/>
<path d="M27.7243 124.048C27.3268 127.155 28.2787 130.042 30.0883 132.207L20.2139 142.082C19.3039 142.992 20.6741 144.352 21.5737 143.442L31.4481 133.567C33.6134 135.377 36.5004 136.339 39.6071 135.931C44.1573 135.345 47.902 131.768 48.6552 127.239C49.8581 120.011 43.6552 113.808 36.4272 115C31.8979 115.743 28.3101 119.488 27.7139 124.038L27.7243 124.048ZM46.856 124.666C47.3267 130.073 42.8602 134.55 37.4418 134.069C33.3205 133.714 29.9523 130.345 29.5967 126.224C29.126 120.816 33.5925 116.35 39.0109 116.82C43.1322 117.176 46.5004 120.544 46.856 124.666Z" fill="black"/>
</svg>
