<svg width="30" height="25" viewBox="0 0 30 25" fill="none" xmlns="http://www.w3.org/2000/svg">
<path d="M9.1846 18.485C8.58233 18.485 8.07851 18.3113 7.68472 17.9522C7.29093 17.599 7.09403 16.9214 7.09403 15.9254V0H0V3.18508H3.24878V15.6474C3.24878 17.6685 3.65415 19.2031 4.4649 20.2513C5.27564 21.3053 6.56705 21.8265 8.33911 21.8265C8.98191 21.8265 9.56102 21.7859 10.0706 21.6991C10.5802 21.618 11.0146 21.5137 11.3678 21.4037C11.6805 21.3053 11.9353 21.2068 12.1438 21.1142L12.1496 17.7669C11.9817 17.8306 11.64 17.9638 11.1188 18.1723C10.5976 18.3808 9.95481 18.485 9.1846 18.485Z" fill="black"/>
<path d="M29.4591 21.8265H17.3037V25H29.4591V21.8265Z" fill="#BD99FF"/>
</svg>
