<svg width="30" height="30" viewBox="0 0 30 30" fill="none" xmlns="http://www.w3.org/2000/svg">
<path d="M8.72432 9.59655C8.32683 12.7016 9.2787 15.5871 11.0883 17.7512L1.2139 27.6205C0.303862 28.5301 1.67414 29.8892 2.57372 28.9797L12.4481 19.1104C14.6134 20.919 17.5004 21.8809 20.6071 21.4732C25.1573 20.8877 28.902 17.3121 29.6552 12.7852C30.8581 5.561 24.6552 -0.638667 17.4272 0.553175C12.8979 1.29546 9.31009 5.03826 8.71386 9.58608L8.72432 9.59655ZM27.856 10.2134C28.3267 15.6185 23.8602 20.0931 18.4418 19.6122C14.3205 19.2567 10.9523 15.8903 10.5967 11.7711C10.126 6.36603 14.5925 1.90184 20.0109 2.37231C24.1322 2.72777 27.5004 6.0942 27.856 10.2134Z" fill="black"/>
</svg>
