<svg width="94" height="94" viewBox="0 0 94 94" fill="none" xmlns="http://www.w3.org/2000/svg">
<path d="M88.172 19.392V19.6928H88.8394V21.4506H89.1872V19.6928H89.864V19.392H88.1814H88.172ZM90.0896 19.392V21.4506H90.3998V19.6928L90.9544 21.4506H91.2646L91.8004 19.7304V21.4506H92.1106V19.392H91.6218L91.1142 21.037L90.5972 19.392H90.0896Z" fill="#06979C"/>
<path d="M69.5506 68.648C63.6192 68.648 58.5244 66.6176 54.0876 62.5568C51.3334 60.0282 49.0586 56.9356 46.9718 53.7208C44.885 56.9074 42.6102 60.0282 39.856 62.5568C35.062 66.956 29.563 68.93 23.03 68.6104C10.6408 68.5634 0.564026 58.7686 0.564026 46.7272C0.564026 34.6858 10.6878 24.8346 23.1804 24.8346C29.7134 24.7218 36.0208 27.2034 40.7302 31.7342C43.1272 33.9714 45.1482 36.547 47 39.2542C48.8424 36.547 50.8728 33.962 53.2698 31.7342C57.9792 27.2034 64.2866 24.7218 70.8196 24.8346C83.284 24.8346 93.4454 34.6482 93.4454 46.7178C93.4454 58.7874 83.3592 68.554 70.9512 68.601C70.5094 68.6198 70.0582 68.6292 69.607 68.6292H69.5506V68.648ZM51.5026 46.4358C53.9748 50.4496 56.3812 54.1814 59.3046 56.8604C62.604 59.8872 66.082 61.128 70.5846 60.9212H70.7914C78.9976 60.9212 85.6716 54.5292 85.6716 46.7554C85.6716 38.9816 78.9976 32.599 70.7914 32.599C66.2136 32.4956 61.7862 34.2346 58.5056 37.4306C55.8642 39.8934 53.674 43.0424 51.5214 46.4734V46.4358H51.5026ZM23.1804 32.5614C14.9742 32.5614 8.30022 38.944 8.30022 46.7178C8.30022 54.4916 14.9742 60.8742 23.1804 60.8742H23.3872C27.8804 61.1186 31.3678 59.8778 34.6672 56.8228C37.5906 54.1438 39.997 50.4402 42.4692 46.3982C40.3072 42.9766 38.1264 39.8182 35.485 37.3554C31.9412 34.0654 28.0402 32.5238 23.1898 32.5238V32.5614H23.1804ZM71.8066 43.9166V39.7242H67.445V43.9166H63.2526V48.2594H67.445V52.48H71.8066V48.2594H75.999V43.9166H71.8066ZM16.873 43.8414H30.644V48.3158H16.873V43.8414Z" fill="#06979C"/>
</svg>
