<svg width="94" height="94" viewBox="0 0 94 94" fill="none" xmlns="http://www.w3.org/2000/svg">
<path fill-rule="evenodd" clip-rule="evenodd" d="M45.2142 59.4925C45.562 58.8909 45.7782 58.2047 45.7782 57.5937V36.4061C45.7782 35.7951 45.562 35.1183 45.2142 34.5073L23.5754 46.9999L45.2142 59.4925Z" fill="#3D4C9B"/>
<path fill-rule="evenodd" clip-rule="evenodd" d="M25.5024 71.5246L43.8606 60.9308C44.387 60.63 44.8664 60.0942 45.2142 59.4926L23.5754 47L1.94604 59.4926C2.29384 60.0942 2.77324 60.6206 3.29964 60.9308L21.6578 71.5246C22.7106 72.1356 24.4402 72.1356 25.5024 71.5246Z" fill="#2A398D"/>
<path fill-rule="evenodd" clip-rule="evenodd" d="M45.2142 34.5073C44.8664 33.9057 44.387 33.3793 43.8606 33.0691L25.5024 22.4753C24.4496 21.8643 22.7106 21.8643 21.6578 22.4753L3.29962 33.0785C2.24682 33.6895 1.37262 35.1841 1.37262 36.4061V57.5937C1.37262 58.2047 1.58882 58.8815 1.93662 59.4925L23.5754 46.9999L45.2142 34.5073Z" fill="#5C6BB0"/>
<path fill-rule="evenodd" clip-rule="evenodd" d="M23.5754 61.7955C15.4162 61.7955 8.77985 55.1591 8.77985 46.9999C8.77985 38.8407 15.4162 32.2043 23.5754 32.2043C28.8394 32.2043 33.7556 35.0337 36.3876 39.6021L29.9862 43.3057C28.6608 41.0215 26.2074 39.6021 23.5754 39.6021C19.4958 39.6021 16.1776 42.9203 16.1776 46.9999C16.1776 51.0795 19.4958 54.3977 23.5754 54.3977C26.2074 54.3977 28.6702 52.9783 29.9862 50.6941L36.3876 54.3977C33.7462 58.9473 28.8394 61.7861 23.5754 61.7861V61.7955Z" fill="white"/>
<path d="M92.0545 59.4925C92.4023 58.8909 92.6185 58.2047 92.6185 57.6031V36.4155C92.6185 35.8045 92.4023 35.1277 92.0545 34.5261L70.425 47.0187L92.0545 59.5113V59.4925Z" fill="#065A9D"/>
<path d="M72.3426 71.5246L90.6914 60.9308C91.2178 60.63 91.6972 60.0942 92.045 59.4926L70.4156 47L48.7862 59.4926C49.134 60.0942 49.6134 60.6206 50.1398 60.9308L68.4886 71.5246C69.5414 72.1356 71.2804 72.1356 72.3332 71.5246H72.3426Z" fill="#0C4580"/>
<path d="M92.0544 34.5073C91.7066 33.9057 91.2272 33.3793 90.7008 33.0691L72.352 22.4753C71.2992 21.8643 69.5602 21.8643 68.5074 22.4753L50.1586 33.0691C49.1058 33.6801 48.2316 35.1747 48.2316 36.3967V57.5843C48.2316 58.1953 48.4478 58.8721 48.7956 59.4737L70.425 46.9811L92.0544 34.4885V34.5073Z" fill="#669AD2"/>
<path d="M70.425 61.7955C62.2658 61.7955 55.6294 55.1591 55.6294 46.9999C55.6294 38.8407 62.2658 32.2043 70.425 32.2043C75.689 32.2043 80.6052 35.0337 83.2372 39.6021L76.8358 43.3057C75.5104 41.0215 73.057 39.6021 70.425 39.6021C66.3454 39.6021 63.0272 42.9203 63.0272 46.9999C63.0272 51.0795 66.3454 54.3977 70.425 54.3977C73.057 54.3977 75.5198 52.9783 76.8358 50.6941L83.2372 54.3977C80.5958 58.9567 75.689 61.7955 70.425 61.7955Z" fill="white"/>
<path d="M85.2206 46.1821H83.5756V44.5371H81.9306V46.1821H80.2856V47.8177H81.9306V49.4627H83.5756V47.8177H85.2206V46.1821Z" fill="white"/>
<path d="M91.387 46.1821H89.742V44.5371H88.097V46.1821H86.452V47.8177H88.097V49.4627H89.742V47.8177H91.387V46.1821Z" fill="white"/>
</svg>
