<svg width="94" height="94" viewBox="0 0 94 94" fill="none" xmlns="http://www.w3.org/2000/svg">
<path d="M26.3766 58.8535H12.3048C14.166 65.2455 17.6252 70.9701 22.6824 76.0367C30.7476 84.1112 40.4578 88.1345 51.8036 88.1345C54.069 88.1345 56.2686 87.9652 58.4024 87.6456C66.947 86.3578 74.4294 82.4944 80.8402 76.0367C85.935 70.9795 89.413 65.2455 91.293 58.8535H26.3766Z" fill="#2C2455"/>
<path d="M18.6122 39.7433H11.2614C10.9888 41.3601 10.8102 43.0051 10.7256 44.6971H92.8722C92.7876 43.0051 92.609 41.3601 92.3364 39.7433" fill="#2C2455"/>
<path d="M10.7256 49.3031C10.8102 50.9951 10.9888 52.6401 11.2614 54.2569H92.3364C92.609 52.6401 92.7876 50.9951 92.8722 49.3031" fill="#2C2455"/>
<path d="M91.293 35.1467C89.413 28.7359 85.935 22.9831 80.8402 17.8883C74.4482 11.4963 66.9846 7.66106 58.4682 6.36386C56.3156 6.03486 54.0972 5.86566 51.8036 5.86566C40.4578 5.86566 30.757 9.87006 22.6824 17.8883C17.6158 22.9831 14.1566 28.7359 12.2954 35.1467" fill="#2C2455"/>
<path d="M8.29104 47.0001C8.29104 25.3049 24.5812 7.26625 45.7876 4.09845C45.2612 4.07965 44.7348 4.06085 44.199 4.06085C20.4076 4.06085 1.11884 23.2839 1.11884 47.0001C1.11884 70.7163 20.4076 89.9393 44.199 89.9393C44.7348 89.9393 45.2612 89.9204 45.7876 89.9016C24.5812 86.7338 8.28164 68.6953 8.28164 47.0001H8.29104Z" fill="#F49523"/>
<path d="M79.7592 44.6971C79.6182 42.9957 79.3362 41.3413 78.9132 39.7433H24.7034C24.2804 41.3413 23.989 42.9957 23.848 44.6971H79.7592Z" fill="url(#paint0_linear_8619_71680)"/>
<path d="M79.7592 49.3031H23.848C23.989 51.0045 24.271 52.6589 24.694 54.2569H78.9038C79.3268 52.6589 79.6182 51.0045 79.7498 49.3031H79.7592Z" fill="url(#paint1_linear_8619_71680)"/>
<path d="M51.8036 75.0591C63.0648 75.0591 72.7656 68.4227 77.2306 58.8535H26.3766C30.8416 68.4227 40.5518 75.0591 51.8036 75.0591Z" fill="url(#paint2_linear_8619_71680)"/>
<path d="M19.7027 49.3031H92.8158C92.8534 48.5699 92.8723 47.8367 92.8723 47.0941C92.8723 46.2951 92.844 45.4961 92.7971 44.7065H10.7257C10.6787 45.4961 10.6505 46.2951 10.6505 47.0941C10.6505 47.8367 10.6693 48.5699 10.7069 49.3031H19.6933H19.7027Z" fill="white"/>
<path d="M26.2075 35.1467H12.3049C11.8443 36.6413 11.5529 38.1829 11.2709 39.7527H92.0733C91.7913 38.1829 91.4247 36.6507 90.9641 35.1467" fill="white"/>
<path d="M86.7905 54.2568H11.2615C11.5341 55.8266 11.8537 57.3588 12.2955 58.8628H91.2367C91.6879 57.3682 92.0451 55.8266 92.3271 54.2568H86.7905Z" fill="white"/>
<defs>
<linearGradient id="paint0_linear_8619_71680" x1="51.8036" y1="93.718" x2="51.8036" y2="31.8379" gradientUnits="userSpaceOnUse">
<stop offset="0.3" stop-color="#473789"/>
<stop offset="0.87" stop-color="#2C2455"/>
</linearGradient>
<linearGradient id="paint1_linear_8619_71680" x1="51.8036" y1="93.7181" x2="51.8036" y2="31.8379" gradientUnits="userSpaceOnUse">
<stop offset="0.3" stop-color="#473789"/>
<stop offset="0.87" stop-color="#2C2455"/>
</linearGradient>
<linearGradient id="paint2_linear_8619_71680" x1="51.8036" y1="93.718" x2="51.8036" y2="31.8473" gradientUnits="userSpaceOnUse">
<stop offset="0.3" stop-color="#473789"/>
<stop offset="0.86" stop-color="#2C2455"/>
</linearGradient>
</defs>
</svg>
