<svg width="94" height="94" viewBox="0 0 94 94" fill="none" xmlns="http://www.w3.org/2000/svg">
<path fill-rule="evenodd" clip-rule="evenodd" d="M71.1206 40.0628H56.1746C54.0314 40.0628 52.377 38.117 52.8188 36.0208C54.7646 26.5268 56.7574 16.9952 58.7032 7.50117C58.9006 6.42957 59.333 5.40497 59.0886 4.28637C58.7502 2.77297 57.8196 1.80477 56.2686 1.46637C54.7082 1.17497 53.5426 1.80477 52.6214 3.02677C47.5642 10.0392 42.4506 17.0422 37.384 24.1016C35.927 26.0944 34.517 28.1436 33.0506 30.1364C31.3962 32.4206 29.6948 34.7142 28.0404 36.9984C25.2674 40.796 22.5414 44.5936 19.8154 48.4382C18.9882 49.6038 18.9882 50.8258 19.618 52.0854C20.2948 53.3544 21.4698 53.9372 22.8798 53.9372H37.431C40.063 53.9372 41.614 55.789 41.0782 58.3646C40.4484 61.476 39.8092 64.5968 39.1324 67.6612C37.7224 74.5232 36.2654 81.3852 34.846 88.2472C34.3102 90.9262 36.6508 93.1634 39.2734 92.4772C40.298 92.1858 40.9748 91.4526 41.5576 90.6254C45.6936 84.882 49.8296 79.1856 53.9656 73.4422C55.667 71.1016 57.3684 68.7704 59.0228 66.4298C60.0474 64.9728 61.0626 63.5064 62.1342 62.0494C63.8826 59.7088 65.5934 57.3306 67.2478 54.943C69.532 51.8316 71.8256 48.6638 74.0628 45.5524C74.796 44.7252 74.937 43.804 74.6926 42.7794C74.3072 41.125 72.9442 40.1004 71.0924 40.0534L71.1206 40.0628Z" fill="url(#paint0_linear_8619_71791)"/>
<defs>
<linearGradient id="paint0_linear_8619_71791" x1="54.5362" y1="87.7546" x2="21.6494" y2="21.3783" gradientUnits="userSpaceOnUse">
<stop stop-color="#5A539F"/>
<stop offset="0.46" stop-color="#5089C8"/>
<stop offset="1" stop-color="#49AFE4"/>
</linearGradient>
</defs>
</svg>
