<svg width="94" height="94" viewBox="0 0 94 94" fill="none" xmlns="http://www.w3.org/2000/svg">
<g clip-path="url(#clip0_8619_71787)">
<path d="M94.0002 0H0.000244141V94H94.0002V0Z" fill="#F6DF1C"/>
<path d="M63.14 73.4422C65.0294 76.5348 67.4922 78.8096 71.8538 78.8096C75.5104 78.8096 77.851 76.9766 77.851 74.4574C77.851 71.4306 75.4446 70.359 71.4214 68.5918L69.2124 67.6424C62.8392 64.9258 58.5998 61.523 58.5998 54.332C58.5998 47.705 63.6476 42.6666 71.5342 42.6666C77.146 42.6666 81.188 44.6218 84.102 49.7354L77.2212 54.1534C75.7078 51.4368 74.0722 50.3652 71.5342 50.3652C68.9962 50.3652 67.3042 52.0102 67.3042 54.1534C67.3042 56.8042 68.9492 57.8758 72.7374 59.5208L74.9464 60.4702C82.4476 63.685 86.687 66.9656 86.687 74.3446C86.687 82.297 80.436 86.6586 72.0512 86.6586C63.6664 86.6586 58.5434 82.7482 55.9584 77.6252L63.14 73.4516V73.4422ZM31.932 74.2036C33.3232 76.6664 34.5828 78.7438 37.619 78.7438C40.6552 78.7438 42.3472 77.6064 42.3472 73.1978V43.1648H51.1832V73.32C51.1832 82.4662 45.8252 86.6304 37.995 86.6304C30.9262 86.6304 26.8278 82.9738 24.741 78.5652L31.932 74.213V74.2036Z" fill="#010101"/>
</g>
<defs>
<clipPath id="clip0_8619_71787">
<rect width="94" height="94" fill="white" transform="translate(0.000244141)"/>
</clipPath>
</defs>
</svg>
