<svg width="484" height="154" viewBox="0 0 484 154" fill="none" xmlns="http://www.w3.org/2000/svg">
<path d="M381 97H333V109H381V97Z" fill="#81C8BE"/>
<path d="M484 97H421V109H484V97Z" fill="#AA97C8"/>
<path d="M286.227 97H235.039V109.152H286.227V97Z" fill="#DDDDDD"/>
<path d="M189.576 97H-2V109.152H189.576V97Z" fill="#E7E66C"/>
<path d="M129 141H75V153H129V141Z" fill="#E9531E"/>
<path d="M29.2328 141.163H-2V153.315H29.2328V141.163Z" fill="#DDDDDD"/>
<path d="M120.897 47.5421H-2.65887V59.6941H120.897V47.5421Z" fill="#81C8BE"/>
<path d="M166.03 0H-3V12.152H166.03V0Z" fill="#E7E66C"/>
<path d="M289.928 47.5421H166.371V59.6941H289.928V47.5421Z" fill="#AA97C8"/>
<path d="M415 48H346V60H415V48Z" fill="#E9531E"/>
</svg>
