<svg width="94" height="94" viewBox="0 0 94 94" fill="none" xmlns="http://www.w3.org/2000/svg">
<g clip-path="url(#clip0_8619_71724)">
<path d="M65.9787 7.67981C60.0661 4.88801 54.6047 3.50621 47.5735 3.38401C22.2123 2.94221 1.31608 22.1088 0.893084 46.201C0.817884 50.3746 1.36308 54.4166 2.45348 58.2612L15.5571 39.8842L24.4307 53.7774C24.4307 53.7774 27.1003 56.8042 25.0793 59.8592C24.9571 60.0472 13.0379 76.5066 13.0379 76.5066C21.2629 85.1264 32.8437 90.3904 46.0507 90.6254C58.8629 90.851 70.2933 86.1792 78.7627 78.2926L50.8823 34.2912C50.8823 34.2912 55.2815 28.1248 58.7125 23.2274C62.5007 17.8412 65.9035 21.6012 67.0409 23.3872C75.2189 36.1994 90.5503 60.5078 90.5503 60.5078V60.3668C92.1295 56.7572 92.9379 55.6574 93.1071 50.4498L65.9787 7.67981ZM59.3611 60.3762C59.3611 60.3762 51.9445 71.1956 51.1831 72.2296C46.6429 78.396 43.3059 71.2802 43.3059 71.2802L19.6931 34.1502C19.6931 34.1502 24.0923 27.9838 27.5327 23.0958C31.3209 17.7096 34.7237 21.4696 35.8611 23.2556C44.0391 36.0678 59.3705 60.3762 59.3705 60.3762" fill="#E62C29"/>
<path d="M73.2261 10.0016C73.2261 7.97122 74.8711 6.47662 76.8169 6.47662C78.7627 6.47662 80.3889 7.97122 80.3889 10.0016C80.3889 12.032 78.7439 13.5454 76.8169 13.5454C74.8899 13.5454 73.2261 12.0508 73.2261 10.0016ZM76.8169 12.9532C78.4149 12.9532 79.6839 11.6936 79.6839 10.0016C79.6839 8.30962 78.4243 7.05942 76.8169 7.05942C75.2095 7.05942 73.9311 8.31902 73.9311 10.0016C73.9311 11.6842 75.1907 12.9532 76.8169 12.9532ZM76.0743 12.0508H75.4539V7.97122H77.0049C77.9731 7.97122 78.4525 8.32842 78.4525 9.13682C78.4525 9.87002 77.9919 10.1896 77.3903 10.2648L78.5465 12.0602H77.8509L76.7793 10.293H76.0743V12.0602V12.0508ZM76.8169 9.76662C77.3433 9.76662 77.8039 9.72902 77.8039 9.09922C77.8039 8.60102 77.3433 8.49762 76.9109 8.49762H76.0743V9.76662H76.8169Z" fill="#231F20"/>
</g>
<defs>
<clipPath id="clip0_8619_71724">
<rect width="94" height="94" fill="white" transform="translate(0.00012207)"/>
</clipPath>
</defs>
</svg>
