<svg width="94" height="94" viewBox="0 0 94 94" fill="none" xmlns="http://www.w3.org/2000/svg">
<path d="M47.0003 1.66388C34.8931 1.66388 23.5003 6.38268 14.9369 14.9461C6.37346 23.5001 1.66406 34.8929 1.66406 47.0001C1.66406 59.1073 6.38286 70.5001 14.9463 79.0635C23.5097 87.6269 34.8931 92.3457 47.0097 92.3457C59.1263 92.3457 70.5097 87.6269 79.0731 79.0635C87.6365 70.5001 92.3553 59.1167 92.3553 47.0001C92.3553 34.8835 87.6365 23.5001 79.0731 14.9367C70.5003 6.37328 59.1075 1.66388 47.0003 1.66388Z" fill="#F07E1A"/>
<path d="M89.9958 47.0001C89.9958 70.7445 70.7446 89.9957 47.0002 89.9957C23.2558 89.9957 4.00464 70.7445 4.00464 47.0001C4.00464 23.2557 23.2558 4.00446 47.0002 4.00446C70.7446 4.00446 89.9958 23.2557 89.9958 47.0001Z" fill="white"/>
<path d="M58.6469 27.8993L60.4705 21.3287C62.3317 21.1595 63.7981 19.5991 63.7981 17.6909C63.7981 15.6699 62.1625 14.0343 60.1415 14.0343C58.1205 14.0343 56.4849 15.6699 56.4849 17.6909C56.4849 19.0163 57.1993 20.1819 58.2615 20.8211L56.4755 27.2695C51.3619 25.9723 47.0473 26.0663 47.0473 26.0663L46.2483 26.4235V76.3187L47.0473 76.5819C51.8695 76.5819 72.9631 62.0119 73.0195 46.3797C73.0195 35.1749 65.5747 30.1459 58.6563 27.8899L58.6469 27.8993ZM53.5709 60.0379C49.4537 53.4673 51.1927 38.1641 61.9463 35.9739C64.8979 35.5039 68.4981 37.4403 69.5697 41.7361C72.2581 50.8635 56.4567 63.6381 53.5803 60.0285L53.5709 60.0379ZM60.0193 45.9567C58.1769 45.9567 56.6917 47.4513 56.6917 49.2843C56.6917 51.1267 58.1863 52.6119 60.0193 52.6119C61.8617 52.6119 63.3469 51.1173 63.3469 49.2843C63.3469 47.4419 61.8523 45.9567 60.0193 45.9567ZM61.0157 49.0305C60.5551 49.0305 60.1791 48.6545 60.1791 48.1939C60.1791 47.7333 60.5551 47.3573 61.0157 47.3573C61.4763 47.3573 61.8523 47.7333 61.8523 48.1939C61.8523 48.6545 61.4763 49.0305 61.0157 49.0305Z" fill="#E5720A"/>
<path d="M37.5721 27.4199L35.7955 20.7271C36.8107 20.0785 37.4875 18.9411 37.4875 17.6439C37.4875 15.6229 35.8519 13.9873 33.8309 13.9873C31.8099 13.9873 30.1743 15.6229 30.1743 17.6439C30.1743 19.6649 31.8005 21.2911 33.8121 21.3005L35.5981 28.0121C28.6515 30.3151 21.1127 35.3629 21.1127 46.3891C21.2631 62.3315 42.2157 76.5913 47.0379 76.5913V26.0663C47.0379 26.0663 42.6951 26.0475 37.5721 27.4199ZM41.2569 60.0379C38.3711 63.6475 22.5791 50.8729 25.2675 41.7455C26.3297 37.4403 29.9393 35.5039 32.8909 35.9833C43.6445 38.1735 45.3835 53.4673 41.2663 60.0473L41.2569 60.0379ZM34.5923 46.0601C32.7499 46.0601 31.2647 47.5547 31.2647 49.3877C31.2647 51.2301 32.7593 52.7153 34.5923 52.7153C36.4347 52.7153 37.9199 51.2207 37.9199 49.3877C37.9199 47.5453 36.4253 46.0601 34.5923 46.0601ZM33.5959 49.1339C33.1353 49.1339 32.7593 48.7579 32.7593 48.2973C32.7593 47.8367 33.1353 47.4607 33.5959 47.4607C34.0565 47.4607 34.4325 47.8367 34.4325 48.2973C34.4325 48.7579 34.0565 49.1339 33.5959 49.1339Z" fill="#F07E1A"/>
</svg>
