<svg width="94" height="94" viewBox="0 0 94 94" fill="none" xmlns="http://www.w3.org/2000/svg">
<path d="M46.661 1.57458C23.537 1.57458 24.947 11.6326 24.947 11.6326V22.0666H47.037V25.1686H16.111C16.111 25.1686 1.25903 23.4766 1.25903 46.8826C1.25903 70.2886 14.231 69.4426 14.231 69.4426H21.939V58.5386C21.939 58.5386 21.563 45.5666 34.629 45.5666H56.531C56.531 45.5666 68.845 45.7546 68.845 33.6286V13.6066C69.033 13.7006 70.913 1.57458 46.661 1.57458ZM34.441 8.62459C36.603 8.62459 38.389 10.4106 38.389 12.5726C38.389 14.7346 36.603 16.5206 34.441 16.5206C32.279 16.5206 30.493 14.7346 30.493 12.5726C30.493 10.4106 32.279 8.62459 34.441 8.62459Z" fill="url(#paint0_linear_8619_71769)"/>
<path d="M47.319 92.3786C70.443 92.3786 69.033 82.3206 69.033 82.3206V71.8866H46.943V68.7846H77.869C77.869 68.7846 92.721 70.4766 92.721 47.0706C92.721 23.6646 79.749 24.5106 79.749 24.5106H72.041V35.3206C72.041 35.3206 72.417 48.2926 59.351 48.2926H37.261C37.261 48.2926 24.947 48.1046 24.947 60.2306V80.2526C24.947 80.2526 23.067 92.3786 47.319 92.3786ZM59.539 85.4226C57.377 85.4226 55.591 83.6366 55.591 81.4746C55.591 79.3126 57.377 77.5266 59.539 77.5266C61.701 77.5266 63.487 79.3126 63.487 81.4746C63.487 83.6366 61.701 85.4226 59.539 85.4226Z" fill="url(#paint1_linear_8619_71769)"/>
<defs>
<linearGradient id="paint0_linear_8619_71769" x1="9.92226" y1="9.7382" x2="55.0516" y2="55.0274" gradientUnits="userSpaceOnUse">
<stop stop-color="#3A7FBA"/>
<stop offset="1" stop-color="#396A95"/>
</linearGradient>
<linearGradient id="paint1_linear_8619_71769" x1="37.6686" y1="38.58" x2="86.135" y2="85.016" gradientUnits="userSpaceOnUse">
<stop stop-color="#FFE054"/>
<stop offset="1" stop-color="#FCC234"/>
</linearGradient>
</defs>
</svg>
