<svg width="94" height="94" viewBox="0 0 94 94" fill="none" xmlns="http://www.w3.org/2000/svg">
<path d="M30.4187 0.836548C29.9487 0.855348 29.4505 1.02455 28.8771 1.47575C27.4765 0.939948 26.1229 0.751948 24.9103 1.84235C23.0397 1.59795 22.4287 2.09615 21.9681 2.68835C21.5545 2.68835 18.8943 2.26535 17.6723 4.08895C14.6079 3.72235 13.6303 5.89375 14.7301 7.91475C14.1003 8.88295 13.4517 9.84175 14.9181 11.6935C14.4011 12.7275 14.7207 13.8367 15.9427 15.1903C15.6231 16.6379 16.2529 17.6625 17.3903 18.4521C17.1741 20.4355 19.2045 21.5823 19.8155 21.9959C20.0505 23.1521 20.5299 24.2425 22.8517 24.8441C23.2371 26.5643 24.6283 26.8651 25.9725 27.2223C21.5169 29.8167 17.6911 33.2195 17.7193 41.5949L17.0707 42.7606C11.9571 45.8719 7.36047 55.8641 14.5515 63.9857C15.0215 66.5238 15.8111 68.3568 16.5067 70.3778C17.5595 78.5182 24.4027 82.3345 26.2075 82.7858C28.8583 84.7973 31.6689 86.715 35.4853 88.0592C39.0855 91.7721 42.9771 93.1821 46.8969 93.1821C46.9533 93.1821 47.0097 93.1821 47.0661 93.1821C50.9859 93.1821 54.8775 91.7721 58.4777 88.0592C62.2941 86.715 65.1141 84.8067 67.7555 82.7858C69.5603 82.3345 76.4129 78.5182 77.4563 70.3778C78.1613 68.3568 78.9415 66.5331 79.4115 63.9857C86.6025 55.8641 82.0059 45.8719 76.8923 42.7606L76.2343 41.5949C76.2625 33.229 72.4367 29.8167 67.9811 27.2223C69.3347 26.8651 70.7259 26.5643 71.1019 24.8441C73.4237 24.2425 73.9031 23.1521 74.1381 21.9959C74.7397 21.5823 76.7701 20.4355 76.5633 18.4521C77.7007 17.6531 78.3305 16.6379 78.0109 15.1903C79.2329 13.8367 79.5525 12.7181 79.0355 11.6935C80.5019 9.84175 79.8533 8.88295 79.2235 7.91475C80.3233 5.89375 79.3551 3.72235 76.2813 4.08895C75.0593 2.26535 72.3991 2.67895 71.9855 2.68835C71.5249 2.10555 70.9139 1.60735 69.0433 1.84235C67.8307 0.742548 66.4771 0.930548 65.0765 1.47575C63.4221 0.169148 62.3223 1.21255 61.0627 1.61675C59.0511 0.958748 58.5905 1.86115 57.6035 2.22775C55.4133 1.76715 54.7459 2.77295 53.6931 3.83515L52.4711 3.80695C49.1717 5.75275 47.5267 9.71955 46.9439 11.7593C46.3611 9.71955 44.7255 5.75275 41.4167 3.80695L40.1947 3.83515C39.1419 2.77295 38.4745 1.76715 36.2843 2.22775C35.2973 1.86115 34.8367 0.958748 32.8251 1.61675C31.9979 1.35355 31.2459 0.817748 30.3529 0.845948L30.4187 0.836548Z" fill="#010101"/>
<path d="M23.8387 9.39993C32.6089 13.9213 37.7037 17.5779 40.4955 20.6893C39.0667 26.4233 31.6031 26.6771 28.8771 26.5173C29.4317 26.2541 29.9017 25.9439 30.0709 25.4645C29.3847 24.9757 26.9595 25.4175 25.2675 24.4587C25.9161 24.3271 26.2263 24.1955 26.5271 23.7161C24.9291 23.2085 23.1995 22.7667 22.1843 21.9207C22.7295 21.9207 23.2465 22.0429 23.9609 21.5447C22.5227 20.7739 20.9999 20.1629 19.8061 18.9785C20.5487 18.9597 21.3477 18.9785 21.5827 18.6965C20.2667 17.8881 19.1669 16.9763 18.2457 15.9893C19.2797 16.1115 19.7215 16.0081 19.9753 15.8295C18.9789 14.8143 17.7287 13.9589 17.1271 12.7087C17.8979 12.9719 18.6029 13.0753 19.1105 12.6899C18.7721 11.9285 17.3339 11.4773 16.4973 9.70073C17.3057 9.77593 18.1705 9.87933 18.3397 9.70073C17.9637 8.16853 17.3151 7.30373 16.6853 6.41073C18.4243 6.38253 21.0469 6.41073 20.9341 6.26973L19.8625 5.16993C21.5545 4.70933 23.2935 5.24513 24.5531 5.63993C25.1171 5.19813 24.5437 4.63413 23.8575 4.05133C25.2957 4.23933 26.6023 4.57773 27.7773 5.02893C28.4071 4.46493 27.3731 3.89153 26.8655 3.32753C29.0933 3.75053 30.0333 4.34273 30.9733 4.93493C31.6501 4.28633 31.0109 3.73173 30.5503 3.15833C32.2235 3.77873 33.0883 4.57773 34.0001 5.37673C34.3103 4.96313 34.7803 4.65293 34.2069 3.64713C35.4007 4.33333 36.2937 5.14173 36.9611 6.05353C37.6943 5.58353 37.4029 4.94433 37.4029 4.35213C38.6437 5.35793 39.4239 6.42953 40.3921 7.47293C40.5895 7.33193 40.7587 6.85253 40.9091 6.10053C43.8607 8.96753 48.0343 16.1867 41.9807 19.0443C36.8295 14.7955 30.6725 11.7029 23.8575 9.39053L23.8387 9.39993Z" fill="#75A92D"/>
<path d="M70.3499 9.39993C61.5891 13.9213 56.4849 17.5779 53.6931 20.6893C55.1219 26.4233 62.5855 26.6771 65.3115 26.5173C64.7569 26.2541 64.2869 25.9439 64.1177 25.4645C64.8039 24.9757 67.2291 25.4175 68.9211 24.4587C68.2725 24.3271 67.9623 24.1955 67.6615 23.7161C69.2595 23.2085 70.9891 22.7667 72.0043 21.9207C71.4591 21.9207 70.9421 22.0429 70.2277 21.5447C71.6659 20.7739 73.1887 20.1629 74.3825 18.9785C73.6399 18.9597 72.8409 18.9785 72.6059 18.6965C73.9219 17.8881 75.0217 16.9763 75.9429 15.9893C74.9089 16.1115 74.4671 16.0081 74.2133 15.8295C75.2097 14.8143 76.4599 13.9589 77.0615 12.7087C76.2907 12.9719 75.5857 13.0753 75.0781 12.6899C75.4165 11.9285 76.8547 11.4773 77.6913 9.70073C76.8829 9.77593 76.0181 9.87933 75.8489 9.70073C76.2249 8.16853 76.8735 7.30373 77.5033 6.41073C75.7643 6.38253 73.1417 6.41073 73.2545 6.26973L74.3261 5.16993C72.6341 4.70933 70.8951 5.24513 69.6355 5.63993C69.0715 5.19813 69.6449 4.63413 70.3311 4.05133C68.8929 4.23933 67.5863 4.57773 66.4113 5.02893C65.7815 4.46493 66.8155 3.89153 67.3231 3.32753C65.0953 3.75053 64.1553 4.34273 63.2153 4.93493C62.5385 4.28633 63.1777 3.73173 63.6383 3.15833C61.9651 3.77873 61.1003 4.57773 60.1885 5.37673C59.8783 4.96313 59.4083 4.65293 59.9817 3.64713C58.7879 4.33333 57.8949 5.14173 57.2275 6.05353C56.4943 5.58353 56.7857 4.94433 56.7857 4.35213C55.5449 5.35793 54.7647 6.42953 53.7965 7.47293C53.5991 7.33193 53.4299 6.85253 53.2795 6.10053C50.3279 8.96753 46.1543 16.1867 52.2079 19.0443C57.3591 14.7955 63.5067 11.7029 70.3311 9.39053L70.3499 9.39993Z" fill="#75A92D"/>
<path d="M57.7163 67.7551C57.7445 73.1037 53.0727 77.4559 47.2729 77.4841C41.4731 77.5123 36.7449 73.1977 36.7167 67.8491C36.7167 67.8115 36.7167 67.7833 36.7167 67.7457C36.6885 62.3971 41.3603 58.0449 47.1601 58.0167C52.9599 57.9885 57.6881 62.3031 57.7163 67.6517C57.7163 67.6893 57.7163 67.7175 57.7163 67.7551Z" fill="#BC1543"/>
<path d="M41.1347 40.0909C45.4869 42.9391 46.2671 49.4063 42.8831 54.5199C39.4991 59.6335 33.2293 61.4759 28.8771 58.6277C24.5249 55.7795 23.7447 49.3123 27.1287 44.1987C30.5127 39.0851 36.7825 37.2427 41.1347 40.0909Z" fill="#BC1543"/>
<path d="M52.8847 39.574C48.5325 42.4222 47.7523 48.8894 51.1363 54.003C54.5203 59.1166 60.7901 60.959 65.1423 58.1108C69.4945 55.2626 70.2747 48.7954 66.8907 43.6818C63.5067 38.5682 57.2369 36.7258 52.8847 39.574Z" fill="#BC1543"/>
<path d="M19.3925 44.7533C24.0925 43.4937 20.9811 64.1831 17.1553 62.4911C12.9535 59.1071 11.5999 49.2089 19.3925 44.7533Z" fill="#BC1543"/>
<path d="M73.6775 44.4995C68.9775 43.2399 72.0889 63.9293 75.9147 62.2373C80.1165 58.8533 81.4701 48.9551 73.6775 44.4995Z" fill="#BC1543"/>
<path d="M57.7163 29.0836C65.8191 27.7112 72.5683 32.5334 72.2957 41.3224C72.0325 44.6876 54.7271 29.5912 57.7163 29.0836Z" fill="#BC1543"/>
<path d="M35.3161 28.8298C27.2133 27.4574 20.4641 32.2796 20.7367 41.0686C20.9999 44.4338 38.3053 29.3374 35.3161 28.8298Z" fill="#BC1543"/>
<path d="M46.9626 26.7805C42.1216 26.6583 37.478 30.3713 37.4686 32.5239C37.4592 35.1465 41.2944 37.8255 46.9908 37.8913C52.8094 37.9289 56.5224 35.7481 56.5412 33.0409C56.56 29.9765 51.249 26.7241 46.9532 26.7711L46.9626 26.7805Z" fill="#BC1543"/>
<path d="M47.2635 80.4921C51.4841 80.3041 57.1429 81.8551 57.1523 83.8949C57.2181 85.8783 52.0199 90.3715 46.9815 90.2869C41.7645 90.5125 36.6509 86.0193 36.7167 84.4589C36.6415 82.1747 43.0711 80.3887 47.2635 80.4921Z" fill="#BC1543"/>
<path d="M31.6783 68.3662C34.6769 71.9852 36.0493 78.3396 33.5489 80.2102C31.1801 81.639 25.4179 81.0562 21.3289 75.1718C18.5653 70.2368 18.9225 65.2172 20.8589 63.7414C23.7541 61.9742 28.2379 64.3618 31.6783 68.3568V68.3662Z" fill="#BC1543"/>
<path d="M62.2377 67.2193C58.9853 71.0263 57.1805 77.9635 59.5493 80.2007C61.8147 81.9397 67.8965 81.6953 72.3897 75.4631C75.6515 71.2707 74.5611 64.2771 72.6999 62.4253C69.9269 60.2821 65.9601 63.0269 62.2377 67.2193Z" fill="#BC1543"/>
</svg>
