<svg width="94" height="94" viewBox="0 0 94 94" fill="none" xmlns="http://www.w3.org/2000/svg">
<path d="M23.5485 13.0618C23.5485 18.4198 19.3467 22.7626 14.1673 22.7626C8.98793 22.7626 4.77673 18.4104 4.77673 13.0618C4.77673 7.71316 8.97853 3.36096 14.1673 3.36096C19.3561 3.36096 23.5485 7.70376 23.5485 13.0618Z" fill="#222F4B"/>
<path d="M23.5485 46.1122C23.5485 51.4702 19.3467 55.813 14.1673 55.813C8.98793 55.813 4.77673 51.4702 4.77673 46.1122C4.77673 40.7542 8.97853 36.4114 14.1673 36.4114C19.3561 36.4114 23.5485 40.7542 23.5485 46.1122Z" fill="#222F4B"/>
<path d="M23.5485 79.172C23.5485 84.53 19.3467 88.8728 14.1673 88.8728C8.98793 88.8728 4.77673 84.53 4.77673 79.172C4.77673 73.814 8.97853 69.4712 14.1673 69.4712C19.3561 69.4712 23.5485 73.814 23.5485 79.172Z" fill="#222F4B"/>
<path d="M56.3076 46.1122C56.3076 51.4702 52.1058 55.813 46.9264 55.813C41.747 55.813 37.5358 51.4702 37.5358 46.1122C37.5358 40.7542 41.7376 36.4114 46.9264 36.4114C52.1152 36.4114 56.3076 40.7542 56.3076 46.1122Z" fill="#222F4B"/>
<path d="M56.3076 13.0618C56.3076 18.4198 52.1058 22.7626 46.9264 22.7626C41.747 22.7626 37.5358 18.4198 37.5358 13.0618C37.5358 7.70376 41.7376 3.36096 46.9264 3.36096C52.1152 3.36096 56.3076 7.70376 56.3076 13.0618Z" fill="#222F4B"/>
<path d="M89.0665 46.1122C89.0665 51.4702 84.8647 55.813 79.6759 55.813C74.4871 55.813 70.2947 51.4702 70.2947 46.1122C70.2947 40.7542 74.4965 36.4114 79.6759 36.4114C84.8553 36.4114 89.0665 40.7542 89.0665 46.1122Z" fill="#222F4B"/>
<path d="M89.0665 13.0618C89.0665 18.4198 84.8647 22.7626 79.6759 22.7626C74.4871 22.7626 70.2947 18.4198 70.2947 13.0618C70.2947 7.70376 74.4965 3.36096 79.6759 3.36096C84.8553 3.36096 89.0665 7.70376 89.0665 13.0618Z" fill="#222F4B"/>
<path d="M89.0665 79.172C89.0665 84.53 84.8647 88.8728 79.6759 88.8728C74.4871 88.8728 70.2947 84.53 70.2947 79.172C70.2947 73.814 74.4965 69.4712 79.6759 69.4712C84.8553 69.4712 89.0665 73.814 89.0665 79.172Z" fill="#222F4B"/>
<path d="M56.3076 79.172C56.3076 84.53 52.1058 88.8728 46.9264 88.8728C41.747 88.8728 37.5358 84.53 37.5358 79.172C37.5358 73.814 41.7376 69.4712 46.9264 69.4712C52.1152 69.4712 56.3076 73.814 56.3076 79.172Z" fill="#222F4B"/>
</svg>
