<svg width="94" height="94" viewBox="0 0 94 94" fill="none" xmlns="http://www.w3.org/2000/svg">
<path d="M86.7151 24.2238C85.1171 21.3944 83.3781 18.6308 80.7367 16.1586C79.6745 20.2288 78.2927 23.7256 75.8299 26.6678C75.1061 27.5232 75.5291 27.871 76.2623 28.3034C78.0013 29.328 79.6933 30.4278 81.1315 31.8848C84.9667 35.7576 85.2393 40.0628 81.8741 44.4714C78.0483 49.4816 73.5363 50.572 68.6859 47.752C66.1009 46.2574 64.0893 44.1048 61.8991 42.159C60.6301 41.2096 60.6301 41.3318 60.6301 41.3318C60.6301 41.3318 60.6301 41.3318 61.0531 42.7136C61.0719 42.9016 61.1471 43.1272 61.2505 43.3622C61.3257 45.5524 62.3785 47.705 61.5325 50.2054C59.6149 47.564 59.1825 44.5372 57.8665 41.454C57.0863 44.0954 56.4753 46.2762 55.7985 48.4288C53.1947 56.8324 45.2517 57.2836 39.7433 54.9524C36.8387 53.721 35.4851 51.3804 35.2219 48.269C34.8929 44.3586 35.9645 40.8336 37.9949 37.5342C37.6377 37.3086 37.4309 37.1206 37.1771 37.036C29.5349 34.4228 26.1791 28.2658 24.3461 21.0654C23.5941 18.1138 25.0229 16.4688 28.0403 16.2432C30.6911 16.0458 33.3325 16.0646 35.9833 16.6756C41.8301 18.001 47.1505 20.5108 52.4051 23.7914C52.4333 22.2028 52.1889 20.351 53.3639 19.975C55.0465 19.4392 55.4977 21.7516 56.7573 22.5976C60.0661 17.39 63.1775 12.1636 67.5955 7.92418C68.9867 6.58938 68.0279 6.15698 66.9187 5.64938C61.7863 3.29938 56.4659 1.68258 50.8071 1.26898C48.2127 1.26898 45.6277 1.26898 43.0333 1.27838C17.7943 3.42158 -1.24071 26.179 1.54169 51.7C4.30529 77.0048 27.2883 95.5322 52.4333 92.3738C84.9573 88.2942 102.827 52.7904 86.7151 24.2238ZM24.8913 72.3894C24.8913 75.2188 23.5565 76.5536 20.6049 76.8544C18.0199 77.1176 16.2715 76.0272 15.7827 73.8464C15.6323 73.1696 15.1623 72.2766 16.3279 72.1262C17.1363 72.0228 18.3113 71.5528 18.6121 72.8688C18.8659 73.9874 19.2419 74.8522 20.5485 74.6078C21.3005 74.4668 21.8927 73.9216 21.9491 73.1038C22.0431 71.7314 21.0373 71.158 19.9657 70.8196C17.1927 69.9642 15.4255 68.4696 15.9801 65.2548C16.3185 63.309 17.7097 62.4724 19.4393 62.2562C21.2159 62.0306 22.9831 62.2844 24.0359 63.9858C24.4589 64.6626 24.7597 65.6966 23.9889 66.2418C23.2181 66.787 22.1935 66.74 21.6859 65.6684C21.3005 64.8506 20.8305 64.2114 19.8341 64.4464C19.1385 64.6156 18.8095 65.1608 18.7813 65.8752C18.7437 66.8528 19.3171 67.3792 20.1255 67.7364C20.9621 68.103 21.8175 68.432 22.6447 68.8268C24.1863 69.5694 25.0887 70.7256 24.8913 72.3706V72.3894ZM33.3137 64.8506C31.5277 64.6532 31.4525 65.7342 31.4807 67.0596C31.5371 69.6258 31.4807 72.192 31.4995 74.7582C31.5089 75.7922 31.3585 76.5254 30.0331 76.5066C28.6701 76.4972 28.6325 75.67 28.6419 74.683C28.6607 73.3106 28.6419 71.9288 28.6419 70.5564C28.6419 69.4566 28.6043 68.3568 28.6419 67.257C28.6889 65.894 28.7453 64.5968 26.7431 64.8318C26.0287 64.9164 25.5023 64.6438 25.4835 63.779C25.4647 62.7356 26.1415 62.604 26.9311 62.604C29.0367 62.604 31.1517 62.604 33.2573 62.604C33.9341 62.604 34.5451 62.6886 34.6203 63.5722C34.7049 64.578 34.1503 64.9258 33.2949 64.8224L33.3137 64.8506ZM46.8403 76.4596C45.3833 76.3938 45.7217 75.2564 45.7123 74.4198C45.6747 72.2202 45.7029 70.0112 45.7029 67.8116L45.1953 67.6706C44.6689 69.9454 44.1331 72.2202 43.6255 74.495C43.4281 75.388 43.4093 76.3562 42.1591 76.4878C40.5987 76.6382 40.6927 75.341 40.4577 74.4762C39.9031 72.3894 39.4895 70.265 38.5589 68.2064C38.5589 70.2838 38.5589 72.3612 38.5589 74.4386C38.5589 75.435 38.7469 76.5348 37.1395 76.5066C35.7013 76.4878 35.8517 75.5196 35.8517 74.6078C35.8517 71.205 35.8517 67.8116 35.8517 64.4088C35.8517 63.403 35.9363 62.463 37.2711 62.6416C38.3803 62.792 39.9595 61.852 40.3543 63.9106C40.8149 66.2982 41.3789 68.667 42.3189 70.9888C42.7607 68.7798 43.3153 66.5896 43.6161 64.3712C43.8699 62.4912 45.0919 62.6604 46.4079 62.5946C47.9965 62.51 48.1845 63.3748 48.1751 64.6438C48.1281 67.9526 48.1751 71.2614 48.1563 74.5608C48.1563 75.4538 48.3349 76.5348 46.8779 76.4596H46.8403ZM56.2497 76.187C54.4261 77.3808 51.6531 76.892 50.6567 75.1718C50.2431 74.4574 49.6979 73.5174 50.5345 72.9534C51.6813 72.1732 51.7659 73.414 52.1137 74.0908C52.5743 74.9838 53.2887 75.4726 54.3415 75.3316C55.3097 75.2 55.6857 74.4856 55.9771 73.6772C56.3907 72.521 56.2027 71.44 55.2627 70.6786C54.6047 70.1428 53.7399 69.8702 52.7059 69.3438C53.8621 68.4602 55.4601 68.432 55.6575 66.8904C55.7891 65.8376 55.7327 64.813 54.6893 64.2396C53.5331 63.6098 52.7811 64.2584 52.2641 65.2454C51.8881 65.9598 51.6155 67.0784 50.5815 66.3264C49.7355 65.706 50.4499 64.7472 50.8635 64.1174C52.1137 62.275 53.9561 62.181 55.7233 63.0646C57.7161 64.0704 58.0545 66.1384 57.0863 67.7834C56.3061 69.0994 56.5787 69.5412 57.3589 70.547C58.6091 72.1732 57.9135 75.106 56.2591 76.187H56.2497ZM65.3113 74.9086C66.0257 74.9556 67.2383 74.4762 67.2007 75.7922C67.1725 76.8638 66.0915 76.4596 65.4335 76.4972C64.3337 76.563 63.2245 76.5254 62.1247 76.516C59.3611 76.4972 58.9663 75.7922 60.2917 73.2824C60.9967 71.9476 62.0307 70.9042 63.2339 70.0488C64.2679 69.3156 65.0105 68.4132 65.2549 67.2006C65.4805 66.082 65.3395 64.8976 64.1175 64.4088C62.8955 63.92 61.9743 64.5122 61.4667 65.6872C61.1941 66.317 61.2035 67.3886 60.1507 66.9562C59.0885 66.5144 59.5867 65.5368 59.8875 64.8224C60.8181 62.5852 62.7263 62.275 64.7097 62.8202C67.0033 63.4406 67.5015 65.3206 67.0973 67.4168C66.6931 69.5506 65.0199 70.8196 63.4877 72.1356C62.7357 72.7842 61.7769 73.2636 61.6547 74.8898C62.9425 74.8898 64.1363 74.8334 65.3113 74.9086Z" fill="#3CB4E6"/>
</svg>
