<svg width="94" height="94" viewBox="0 0 94 94" fill="none" xmlns="http://www.w3.org/2000/svg">
<g clip-path="url(#clip0_8619_71696)">
<path d="M89.8643 10.8571L70.8669 1.71086C68.6673 0.648664 66.0446 1.09986 64.3151 2.82006L2.12465 59.5209C0.451451 61.0437 0.451451 63.6757 2.12465 65.1985L7.20065 69.8139C8.57305 71.0547 10.6317 71.1487 12.1075 70.0301L87.0067 13.2259C89.5164 11.3177 93.1261 13.1131 93.1261 16.2621V16.0459C93.1261 13.8369 91.8571 11.8159 89.8643 10.8571Z" fill="#0866AA"/>
<path d="M89.8643 83.1431L70.8669 92.2893C68.6673 93.3515 66.0446 92.9003 64.3151 91.1801L2.12465 34.4793C0.451451 32.9565 0.451451 30.3245 2.12465 28.8017L7.20065 24.1863C8.57305 22.9455 10.6317 22.8515 12.1075 23.9701L86.9973 80.7837C89.5071 82.6919 93.1167 80.8965 93.1167 77.7475V77.9637C93.1167 80.1727 91.8476 82.1937 89.8549 83.1525L89.8643 83.1431Z" fill="#2178BD"/>
<path d="M70.8669 92.2892C68.6673 93.3514 66.0353 92.9002 64.3151 91.1706C66.4395 93.295 70.0773 91.791 70.0773 88.783V5.20764C70.0773 2.19964 66.4395 0.695643 64.3151 2.82004C66.0447 1.09044 68.6673 0.648643 70.8669 1.70144L89.8643 10.8382C91.8571 11.797 93.1261 13.818 93.1261 16.027V77.9637C93.1261 80.1821 91.8571 82.1936 89.8643 83.1525L70.8669 92.2892Z" fill="#4096D2"/>
<g opacity="0.25">
<path opacity="0.25" fill-rule="evenodd" clip-rule="evenodd" d="M66.2515 92.4678C67.6991 93.0318 69.3629 92.9942 70.8293 92.2892L89.8079 83.1524C91.8007 82.1936 93.0697 80.1726 93.0697 77.9636V16.0364C93.0697 13.818 91.8007 11.8064 89.8079 10.8476L70.8293 1.71083C68.9023 0.789627 66.6557 1.01523 64.9637 2.23723C64.7193 2.41583 64.4936 2.60383 64.2775 2.82003L27.9371 35.9738L12.1075 23.9606C10.6317 22.842 8.57305 22.936 7.20065 24.1768L2.12465 28.7922C0.451451 30.315 0.451451 32.947 2.12465 34.4698L15.8487 46.9906L2.12465 59.5208C0.451451 61.0436 0.451451 63.6756 2.12465 65.1984L7.20065 69.8138C8.57305 71.0546 10.6317 71.1486 12.1075 70.03L27.9371 58.0168L64.2775 91.1706C64.8508 91.744 65.5277 92.1764 66.2515 92.4584V92.4678ZM70.0303 26.0662L42.4601 47L70.0303 67.9338V26.0662Z" fill="url(#paint0_linear_8619_71696)"/>
</g>
</g>
<defs>
<linearGradient id="paint0_linear_8619_71696" x1="46.9721" y1="1.13743" x2="46.9721" y2="92.8626" gradientUnits="userSpaceOnUse">
<stop stop-color="white"/>
<stop offset="1" stop-color="white" stop-opacity="0"/>
</linearGradient>
<clipPath id="clip0_8619_71696">
<rect width="94" height="94" fill="white" transform="translate(0.000244141)"/>
</clipPath>
</defs>
</svg>
