<?xml version="1.0" encoding="UTF-8"?><svg id="a" xmlns="http://www.w3.org/2000/svg" viewBox="0 0 822 342"><polygon points=".62 340.18 821.36 340.18 821.36 0 821.36 0 .62 0 .62 340.18" style="fill:#1e1e1e; stroke:#000; stroke-miterlimit:10; stroke-width:.75px;"/><rect x="1.16" y="22.75" width="35.49" height="317.43" transform="translate(37.81 362.93) rotate(180)" style="fill:#323334; stroke:#000; stroke-miterlimit:10;"/><rect x=".62" y="0" width="820.73" height="23.1" transform="translate(821.98 23.1) rotate(180)" style="fill:#323334; stroke:#000; stroke-miterlimit:10;"/><g><path d="M49.17,11.62c0,2.84,2.31,5.15,5.15,5.15s5.15-2.3,5.15-5.15-2.31-5.15-5.15-5.15-5.15,2.3-5.15,5.15Z" style="fill:#81c8be; stroke:#000; stroke-miterlimit:10;"/><path d="M31.5,11.62c0,2.84,2.31,5.15,5.15,5.15s5.15-2.3,5.15-5.15-2.31-5.15-5.15-5.15-5.15,2.3-5.15,5.15Z" style="fill:#e7e66c; stroke:#000; stroke-miterlimit:10;"/><path d="M13.83,11.62c0,2.84,2.31,5.15,5.15,5.15s5.15-2.3,5.15-5.15-2.31-5.15-5.15-5.15-5.15,2.3-5.15,5.15Z" style="fill:#e9531e; stroke:#000; stroke-miterlimit:10;"/></g><g id="b"><g id="c"><g id="d"><g id="e"><path id="f" d="M23.25,38.43v10.13c0,.51-.41,.92-.92,.92H13.72c-.51,0-.92-.41-.92-.92v-12.28c0-.51,.41-.92,.92-.92h6.45l3.07,3.07Z" style="fill:#323334; stroke:#fff; stroke-linecap:round; stroke-linejoin:round;"/><path id="g" d="M20.17,35.36v2.15c0,.51,.41,.92,.92,.92h2.15" style="fill:#323334; stroke:#fff; stroke-linecap:round; stroke-linejoin:round;"/></g></g><g id="h"><path id="i" d="M26.32,35.64v10.13c0,.51-.41,.92-.92,.92h-8.6c-.51,0-.92-.41-.92-.92v-12.28c0-.51,.41-.92,.92-.92h6.45l3.07,3.07Z" style="fill:#323334; stroke:#fff; stroke-linecap:round; stroke-linejoin:round;"/><path id="j" d="M23.25,32.57v2.15c0,.51,.41,.92,.92,.92h2.15" style="fill:#323334; stroke:#fff; stroke-linecap:round; stroke-linejoin:round;"/></g></g></g><g id="k" transform="translate(0,-288.53332)"><path id="l" d="M16.1,67.03c0,1.35,.48,2.59,1.29,3.55l-5.18,5.18c-.48,.48,.24,1.19,.72,.72l5.18-5.18c.96,.8,2.2,1.29,3.55,1.29,3.06,0,5.56-2.49,5.56-5.55,0-3.06-2.49-5.55-5.56-5.55s-5.56,2.49-5.56,5.55Zm10.1,0c0,2.52-2.03,4.54-4.55,4.54-2.52,0-4.55-2.03-4.55-4.54,0-2.52,2.03-4.54,4.55-4.54,2.52,0,4.55,2.03,4.55,4.54Z" style="fill:#fff;"/></g><rect x="0" y="331.43" width="822" height="10.57" style="fill:#82c9be;"/></svg>