<svg version="1.1" xmlns="http://www.w3.org/2000/svg" viewBox="0 0 448.81296875 246.26171875" width="1346.43890625" height="738.78515625">
  <!-- svg-source:excalidraw -->
  
  <defs>
    <style>
      @font-face {
        font-family: "Virgil";
        src: url("https://excalidraw.com/Virgil.woff2");
      }
      @font-face {
        font-family: "Cascadia";
        src: url("https://excalidraw.com/Cascadia.woff2");
      }
    </style>
  </defs>
  <g stroke-linecap="round" transform="translate(176.99265624999998 56.390625) rotate(0 62.11328125 89.935546875)"><path d="M-1.55 0.71 C31.08 0.27, 58.33 2.11, 125.4 0.72 M-0.14 0.43 C30.88 1.69, 62.29 1.45, 123.33 0.4 M125.66 -1.48 C124.04 38.61, 121.31 78.56, 122.83 181.78 M125.06 0.42 C123.92 40.78, 124.86 81.43, 123.93 179.73 M123.17 178.25 C95.47 181.76, 68.31 182.45, 1.09 181.54 M125.11 180.5 C81.66 179.62, 41.55 181.29, -0.02 180.46 M1.18 178.93 C0.69 143.01, 1.1 103.8, 1.76 -1.84 M0.51 178.88 C-0.82 120.14, -0.45 62.52, -0.97 -0.26" stroke="#76dbc7" stroke-width="1" fill="none"></path></g><g transform="translate(186.37046875 15.953125) rotate(0 55.5 8)"><text x="0" y="13" font-family="Virgil, Segoe UI Emoji" font-size="13.907790491183594px" fill="#bd99ff" text-anchor="start" style="white-space: pre;" direction="ltr">FLASH MEMORY</text></g><g stroke-linecap="round"><g transform="translate(176.03562499999998 100.8515625) rotate(0 62.47041007131335 0.6434780520004608)"><path d="M-0.47 1.13 C20.48 1.23, 104.67 -0.06, 125.41 -0.08 M1.49 0.68 C22.38 1.01, 104.69 1.57, 124.93 1.3" stroke="#76dbc7" stroke-width="1" fill="none"></path></g></g><g transform="translate(196.06687499999998 65.59765625) rotate(0 36.5 9.5)"><text x="0" y="15" font-family="Virgil, Segoe UI Emoji" font-size="16.540624999999974px" fill="#76dbc7" text-anchor="start" style="white-space: pre;" direction="ltr">bootloader</text></g><g stroke-linecap="round"><g transform="translate(175.73874999999998 79.09965892912362) rotate(0 -36.114661092560624 20.620424243314773)"><path d="M0.74 -0.74 C-2.73 -0.87, -13.28 -1.58, -21.99 -1.46 C-30.71 -1.34, -43.53 -1.59, -51.55 -0.01 C-59.56 1.56, -66.58 3.31, -70.08 7.98 C-73.58 12.65, -75.52 22.95, -72.55 27.99 C-69.57 33.02, -59.42 36.11, -52.25 38.19 C-45.08 40.26, -38.51 39.71, -29.5 40.42 C-20.5 41.14, -3.62 42.16, 1.78 42.49 M-0.33 1.49 C-3.34 1.57, -11.72 -0.16, -19.88 -0.21 C-28.04 -0.26, -41 -0.25, -49.26 1.2 C-57.52 2.66, -65.88 4.52, -69.43 8.53 C-72.98 12.53, -73.65 20.4, -70.54 25.22 C-67.43 30.05, -57.73 34.58, -50.74 37.47 C-43.76 40.36, -37.17 41.85, -28.62 42.55 C-20.07 43.26, -4.47 41.43, 0.56 41.69" stroke="#ff5101" stroke-width="1" fill="none"></path></g><g transform="translate(175.73874999999998 79.09965892912362) rotate(0 -36.114661092560624 20.620424243314773)"><path d="M-15.4 46.11 C-12.08 44.79, -8.57 46.18, -0.86 41.22 M-14.1 47.41 C-8.97 44.71, -2.54 42.37, -0.05 41.76" stroke="#ff5101" stroke-width="1" fill="none"></path></g><g transform="translate(175.73874999999998 79.09965892912362) rotate(0 -36.114661092560624 20.620424243314773)"><path d="M-15.72 35.1 C-12.39 36, -8.82 39.63, -0.86 41.22 M-14.42 36.39 C-9.15 37.89, -2.6 39.73, -0.05 41.76" stroke="#ff5101" stroke-width="1" fill="none"></path></g></g><g transform="translate(10 76.6376953125) rotate(0 38 19)"><text x="0" y="15" font-family="Virgil, Segoe UI Emoji" font-size="16.691796874999994px" fill="#ff5101" text-anchor="start" style="white-space: pre;" direction="ltr">jump to</text><text x="0" y="34" font-family="Virgil, Segoe UI Emoji" font-size="16.691796874999994px" fill="#ff5101" text-anchor="start" style="white-space: pre;" direction="ltr">application</text></g><g transform="translate(215.65671874999998 109.30078125) rotate(0 15.5 11.5)"><text x="0" y="18" font-family="Virgil, Segoe UI Emoji" font-size="20px" fill="#76dbc7" text-anchor="start" style="white-space: pre;" direction="ltr">app</text></g><g stroke-linecap="round"><g transform="translate(302.21921875 159.77748221404352) rotate(0 31.17672598738727 -45.59625979337591)"><path d="M1.07 -0.13 C8.81 -2.54, 35.26 -6.42, 45.74 -15.11 C56.21 -23.79, 64.16 -40.92, 63.91 -52.24 C63.67 -63.57, 55.16 -76.59, 44.24 -83.06 C33.33 -89.52, 6.18 -89.84, -1.57 -91.06 M0.17 -1.25 C7.77 -3.45, 33.98 -5.51, 44.5 -13.84 C55.03 -22.18, 63.32 -39.82, 63.34 -51.25 C63.35 -62.68, 55.05 -75.8, 44.57 -82.43 C34.1 -89.06, 8.12 -89.53, 0.48 -91.03" stroke="#ff5101" stroke-width="1" fill="none"></path></g><g transform="translate(302.21921875 159.77748221404352) rotate(0 31.17672598738727 -45.59625979337591)"><path d="M22.68 -97.27 C16.63 -94.3, 11.09 -93.34, -1.05 -91.49 M22.36 -95.73 C17.47 -95.91, 12.71 -93.92, -0.49 -91.13" stroke="#ff5101" stroke-width="1" fill="none"></path></g><g transform="translate(302.21921875 159.77748221404352) rotate(0 31.17672598738727 -45.59625979337591)"><path d="M20.86 -81.61 C15.33 -82.4, 10.23 -85.2, -1.05 -91.49 M20.55 -80.07 C16.22 -84.04, 11.9 -85.84, -0.49 -91.13" stroke="#ff5101" stroke-width="1" fill="none"></path></g></g><g transform="translate(373.81296875 87.0234375) rotate(0 32.5 16.5)"><text x="0" y="13.5" font-family="Virgil, Segoe UI Emoji" font-size="14.755601415094334px" fill="#ff5101" text-anchor="start" style="white-space: pre;" direction="ltr">jump to</text><text x="0" y="30" font-family="Virgil, Segoe UI Emoji" font-size="14.755601415094334px" fill="#ff5101" text-anchor="start" style="white-space: pre;" direction="ltr">bootloader</text></g><g stroke-linecap="round" transform="translate(178.00046874999998 10) rotate(0 61.3359375 15.87109375)"><path d="M-1.91 0.49 C45.72 0.52, 89.75 1.28, 123.63 1.9 M-0.14 -0.47 C39.24 -0.55, 76.83 0.14, 122.88 -0.27 M122.34 -0.99 C122.09 6.4, 121.13 16.28, 124.67 30.26 M122.16 0.09 C121.83 10.75, 122.19 19.76, 123.62 31.03 M122.52 30.86 C93.16 30.2, 63.68 30.01, -0.58 30.17 M123.14 32.43 C77.08 31.15, 30.92 31.33, 0.76 32.32 M0.82 31.77 C-0.27 25.86, -1.14 16.72, -0.58 -0.71 M0.05 32.01 C0.02 23.91, -0.59 16.79, 0.96 0.25" stroke="#bd99ff" stroke-width="1" fill="none"></path></g></svg>