<svg xmlns="http://www.w3.org/2000/svg" xmlns:xlink="http://www.w3.org/1999/xlink" width="1280" zoomAndPan="magnify" viewBox="0 0 960 540.000001" height="720" preserveAspectRatio="xMidYMid meet" version="1.0"><defs><g/><clipPath id="bb0b4de979"><path d="M 121.675781 323.402344 L 283.378906 323.402344 L 283.378906 485.101562 L 121.675781 485.101562 Z M 121.675781 323.402344 " clip-rule="nonzero"/></clipPath><clipPath id="9d8bf97148"><path d="M 147.128906 323.402344 L 257.925781 323.402344 C 264.675781 323.402344 271.148438 326.082031 275.921875 330.855469 C 280.695312 335.628906 283.378906 342.101562 283.378906 348.855469 L 283.378906 459.648438 C 283.378906 466.398438 280.695312 472.875 275.921875 477.648438 C 271.148438 482.421875 264.675781 485.101562 257.925781 485.101562 L 147.128906 485.101562 C 140.378906 485.101562 133.90625 482.421875 129.132812 477.648438 C 124.359375 472.875 121.675781 466.398438 121.675781 459.648438 L 121.675781 348.855469 C 121.675781 342.101562 124.359375 335.628906 129.132812 330.855469 C 133.90625 326.082031 140.378906 323.402344 147.128906 323.402344 " clip-rule="nonzero"/></clipPath><clipPath id="a6eb109455"><path d="M 306.808594 323.402344 L 468.507812 323.402344 L 468.507812 485.101562 L 306.808594 485.101562 Z M 306.808594 323.402344 " clip-rule="nonzero"/></clipPath><clipPath id="6104fad076"><path d="M 332.257812 323.402344 L 443.054688 323.402344 C 449.804688 323.402344 456.277344 326.082031 461.050781 330.855469 C 465.824219 335.628906 468.507812 342.101562 468.507812 348.855469 L 468.507812 459.648438 C 468.507812 466.398438 465.824219 472.875 461.050781 477.648438 C 456.277344 482.421875 449.804688 485.101562 443.054688 485.101562 L 332.257812 485.101562 C 325.507812 485.101562 319.035156 482.421875 314.261719 477.648438 C 309.488281 472.875 306.808594 466.398438 306.808594 459.648438 L 306.808594 348.855469 C 306.808594 342.101562 309.488281 335.628906 314.261719 330.855469 C 319.035156 326.082031 325.507812 323.402344 332.257812 323.402344 " clip-rule="nonzero"/></clipPath><clipPath id="58315887c0"><path d="M 491.714844 323.402344 L 653.414062 323.402344 L 653.414062 485.101562 L 491.714844 485.101562 Z M 491.714844 323.402344 " clip-rule="nonzero"/></clipPath><clipPath id="f872bfb45b"><path d="M 517.167969 323.402344 L 627.960938 323.402344 C 634.710938 323.402344 641.1875 326.082031 645.960938 330.855469 C 650.734375 335.628906 653.414062 342.101562 653.414062 348.855469 L 653.414062 459.648438 C 653.414062 466.398438 650.734375 472.875 645.960938 477.648438 C 641.1875 482.421875 634.710938 485.101562 627.960938 485.101562 L 517.167969 485.101562 C 510.417969 485.101562 503.941406 482.421875 499.167969 477.648438 C 494.394531 472.875 491.714844 466.398438 491.714844 459.648438 L 491.714844 348.855469 C 491.714844 342.101562 494.394531 335.628906 499.167969 330.855469 C 503.941406 326.082031 510.417969 323.402344 517.167969 323.402344 " clip-rule="nonzero"/></clipPath><clipPath id="c079b7ae90"><path d="M 676.621094 323.402344 L 838.324219 323.402344 L 838.324219 485.101562 L 676.621094 485.101562 Z M 676.621094 323.402344 " clip-rule="nonzero"/></clipPath><clipPath id="a4fbaccfad"><path d="M 702.074219 323.402344 L 812.871094 323.402344 C 819.621094 323.402344 826.09375 326.082031 830.867188 330.855469 C 835.640625 335.628906 838.324219 342.101562 838.324219 348.855469 L 838.324219 459.648438 C 838.324219 466.398438 835.640625 472.875 830.867188 477.648438 C 826.09375 482.421875 819.621094 485.101562 812.871094 485.101562 L 702.074219 485.101562 C 695.324219 485.101562 688.851562 482.421875 684.078125 477.648438 C 679.304688 472.875 676.621094 466.398438 676.621094 459.648438 L 676.621094 348.855469 C 676.621094 342.101562 679.304688 335.628906 684.078125 330.855469 C 688.851562 326.082031 695.324219 323.402344 702.074219 323.402344 " clip-rule="nonzero"/></clipPath><clipPath id="d4b1dd8d99"><path d="M 399.148438 67.722656 L 559 67.722656 L 559 230 L 399.148438 230 Z M 399.148438 67.722656 " clip-rule="nonzero"/></clipPath><clipPath id="8d0e94d5da"><path d="M 424.601562 67.722656 L 532.953125 67.722656 C 539.703125 67.722656 546.179688 70.402344 550.953125 75.175781 C 555.726562 79.949219 558.40625 86.425781 558.40625 93.175781 L 558.40625 204.703125 C 558.40625 211.457031 555.726562 217.929688 550.953125 222.703125 C 546.179688 227.476562 539.703125 230.15625 532.953125 230.15625 L 424.601562 230.15625 C 417.851562 230.15625 411.378906 227.476562 406.605469 222.703125 C 401.832031 217.929688 399.148438 211.457031 399.148438 204.703125 L 399.148438 93.175781 C 399.148438 86.425781 401.832031 79.949219 406.605469 75.175781 C 411.378906 70.402344 417.851562 67.722656 424.601562 67.722656 " clip-rule="nonzero"/></clipPath><clipPath id="752f29d0ef"><path d="M 399.152344 67.722656 L 558.605469 67.722656 L 558.605469 230.171875 L 399.152344 230.171875 Z M 399.152344 67.722656 " clip-rule="nonzero"/></clipPath><clipPath id="06a5fdd3a6"><path d="M 424.636719 67.722656 L 533.117188 67.722656 C 539.875 67.722656 546.359375 70.402344 551.136719 75.175781 C 555.914062 79.949219 558.601562 86.425781 558.601562 93.175781 L 558.601562 204.714844 C 558.601562 211.46875 555.914062 217.941406 551.136719 222.714844 C 546.359375 227.488281 539.875 230.171875 533.117188 230.171875 L 424.636719 230.171875 C 417.878906 230.171875 411.398438 227.488281 406.617188 222.714844 C 401.839844 217.941406 399.152344 211.46875 399.152344 204.714844 L 399.152344 93.175781 C 399.152344 86.425781 401.839844 79.949219 406.617188 75.175781 C 411.398438 70.402344 417.878906 67.722656 424.636719 67.722656 " clip-rule="nonzero"/></clipPath></defs><path stroke-linecap="butt" transform="matrix(0.688102, -0.296875, 0.296559, 0.687368, 195.777887, 325.503698)" fill="none" stroke-linejoin="miter" d="M -0.000140548 2.000626 L 336.654398 1.999421 " stroke="#000000" stroke-width="4" stroke-opacity="1" stroke-miterlimit="4"/><g clip-path="url(#bb0b4de979)"><g clip-path="url(#9d8bf97148)"><path fill="#323233" d="M 121.675781 323.402344 L 283.378906 323.402344 L 283.378906 485.101562 L 121.675781 485.101562 Z M 121.675781 323.402344 " fill-opacity="1" fill-rule="nonzero"/><path stroke-linecap="butt" transform="matrix(0.748614, 0, 0, 0.748614, 121.677365, 323.401116)" fill="none" stroke-linejoin="miter" d="M 33.998233 0.00163984 L 182.000978 0.00163984 C 191.017645 0.00163984 199.663835 3.581173 206.040205 9.957543 C 212.416575 16.333913 216.001326 24.980103 216.001326 34.001988 L 216.001326 181.999516 C 216.001326 191.016183 212.416575 199.667591 206.040205 206.043961 C 199.663835 212.420331 191.017645 215.999864 182.000978 215.999864 L 33.998233 215.999864 C 24.981566 215.999864 16.335375 212.420331 9.959005 206.043961 C 3.582636 199.667591 -0.00211575 191.016183 -0.00211575 181.999516 L -0.00211575 34.001988 C -0.00211575 24.980103 3.582636 16.333913 9.959005 9.957543 C 16.335375 3.581173 24.981566 0.00163984 33.998233 0.00163984 " stroke="#bd99ff" stroke-width="8" stroke-opacity="1" stroke-miterlimit="4"/></g></g><g fill="#ffffff" fill-opacity="1"><g transform="translate(155.821166, 413.234754)"><g><path d="M 13.765625 0 L 11.375 0 L 4.21875 -13.78125 L 4.1875 0 L 1.8125 0 L 1.8125 -18.453125 L 4.1875 -18.453125 L 11.359375 -4.6875 L 11.390625 -18.453125 L 13.765625 -18.453125 Z M 13.765625 0 "/></g></g></g><g fill="#ffffff" fill-opacity="1"><g transform="translate(171.390184, 413.234754)"><g><path d="M 1.546875 -6.984375 C 1.546875 -7.972656 1.6875 -8.890625 1.96875 -9.734375 C 2.257812 -10.585938 2.671875 -11.328125 3.203125 -11.953125 C 3.742188 -12.578125 4.398438 -13.066406 5.171875 -13.421875 C 5.941406 -13.785156 6.804688 -13.96875 7.765625 -13.96875 C 8.734375 -13.96875 9.601562 -13.785156 10.375 -13.421875 C 11.15625 -13.066406 11.8125 -12.578125 12.34375 -11.953125 C 12.882812 -11.328125 13.296875 -10.585938 13.578125 -9.734375 C 13.867188 -8.890625 14.015625 -7.972656 14.015625 -6.984375 L 14.015625 -6.703125 C 14.015625 -5.710938 13.867188 -4.796875 13.578125 -3.953125 C 13.296875 -3.109375 12.882812 -2.375 12.34375 -1.75 C 11.8125 -1.125 11.160156 -0.632812 10.390625 -0.28125 C 9.617188 0.0703125 8.753906 0.25 7.796875 0.25 C 6.828125 0.25 5.953125 0.0703125 5.171875 -0.28125 C 4.398438 -0.632812 3.742188 -1.125 3.203125 -1.75 C 2.671875 -2.375 2.257812 -3.109375 1.96875 -3.953125 C 1.6875 -4.796875 1.546875 -5.710938 1.546875 -6.703125 Z M 3.890625 -6.703125 C 3.890625 -6.023438 3.96875 -5.378906 4.125 -4.765625 C 4.289062 -4.160156 4.535156 -3.625 4.859375 -3.15625 C 5.179688 -2.6875 5.585938 -2.316406 6.078125 -2.046875 C 6.566406 -1.773438 7.140625 -1.640625 7.796875 -1.640625 C 8.429688 -1.640625 8.992188 -1.773438 9.484375 -2.046875 C 9.972656 -2.316406 10.378906 -2.6875 10.703125 -3.15625 C 11.023438 -3.625 11.265625 -4.160156 11.421875 -4.765625 C 11.585938 -5.378906 11.671875 -6.023438 11.671875 -6.703125 L 11.671875 -6.984375 C 11.671875 -7.648438 11.585938 -8.289062 11.421875 -8.90625 C 11.253906 -9.519531 11.007812 -10.054688 10.6875 -10.515625 C 10.363281 -10.984375 9.957031 -11.351562 9.46875 -11.625 C 8.988281 -11.894531 8.421875 -12.03125 7.765625 -12.03125 C 7.117188 -12.03125 6.550781 -11.894531 6.0625 -11.625 C 5.582031 -11.351562 5.179688 -10.984375 4.859375 -10.515625 C 4.535156 -10.054688 4.289062 -9.519531 4.125 -8.90625 C 3.96875 -8.289062 3.890625 -7.648438 3.890625 -6.984375 Z M 3.890625 -6.703125 "/></g></g></g><g fill="#ffffff" fill-opacity="1"><g transform="translate(186.959202, 413.234754)"><g><path d="M 1.765625 -6.96875 C 1.765625 -7.988281 1.890625 -8.925781 2.140625 -9.78125 C 2.398438 -10.644531 2.769531 -11.382812 3.25 -12 C 3.726562 -12.613281 4.304688 -13.09375 4.984375 -13.4375 C 5.660156 -13.789062 6.414062 -13.96875 7.25 -13.96875 C 8.070312 -13.96875 8.785156 -13.828125 9.390625 -13.546875 C 10.003906 -13.273438 10.535156 -12.878906 10.984375 -12.359375 L 10.984375 -19.46875 L 13.328125 -19.46875 L 13.328125 0 L 11.171875 0 L 11.078125 -1.4375 C 10.617188 -0.882812 10.070312 -0.460938 9.4375 -0.171875 C 8.800781 0.109375 8.0625 0.25 7.21875 0.25 C 6.394531 0.25 5.644531 0.0703125 4.96875 -0.28125 C 4.300781 -0.632812 3.726562 -1.125 3.25 -1.75 C 2.78125 -2.375 2.414062 -3.109375 2.15625 -3.953125 C 1.894531 -4.804688 1.765625 -5.722656 1.765625 -6.703125 Z M 4.109375 -6.703125 C 4.109375 -6.035156 4.175781 -5.398438 4.3125 -4.796875 C 4.457031 -4.203125 4.679688 -3.675781 4.984375 -3.21875 C 5.285156 -2.757812 5.664062 -2.394531 6.125 -2.125 C 6.59375 -1.863281 7.15625 -1.734375 7.8125 -1.734375 C 8.207031 -1.734375 8.5625 -1.78125 8.875 -1.875 C 9.195312 -1.96875 9.488281 -2.097656 9.75 -2.265625 C 10.019531 -2.441406 10.253906 -2.648438 10.453125 -2.890625 C 10.660156 -3.128906 10.835938 -3.398438 10.984375 -3.703125 L 10.984375 -10.0625 C 10.679688 -10.613281 10.269531 -11.066406 9.75 -11.421875 C 9.238281 -11.785156 8.597656 -11.96875 7.828125 -11.96875 C 7.171875 -11.96875 6.609375 -11.832031 6.140625 -11.5625 C 5.671875 -11.300781 5.285156 -10.9375 4.984375 -10.46875 C 4.679688 -10.007812 4.457031 -9.476562 4.3125 -8.875 C 4.175781 -8.269531 4.109375 -7.632812 4.109375 -6.96875 Z M 4.109375 -6.703125 "/></g></g></g><g fill="#ffffff" fill-opacity="1"><g transform="translate(202.528221, 413.234754)"><g><path d="M 8.265625 0.25 C 7.296875 0.25 6.40625 0.0859375 5.59375 -0.234375 C 4.789062 -0.566406 4.101562 -1.03125 3.53125 -1.625 C 2.957031 -2.21875 2.507812 -2.914062 2.1875 -3.71875 C 1.863281 -4.53125 1.703125 -5.414062 1.703125 -6.375 L 1.703125 -6.90625 C 1.703125 -8.007812 1.878906 -9 2.234375 -9.875 C 2.597656 -10.75 3.070312 -11.488281 3.65625 -12.09375 C 4.238281 -12.695312 4.90625 -13.160156 5.65625 -13.484375 C 6.40625 -13.804688 7.171875 -13.96875 7.953125 -13.96875 C 8.941406 -13.96875 9.804688 -13.796875 10.546875 -13.453125 C 11.285156 -13.109375 11.898438 -12.632812 12.390625 -12.03125 C 12.878906 -11.425781 13.242188 -10.710938 13.484375 -9.890625 C 13.722656 -9.078125 13.84375 -8.191406 13.84375 -7.234375 L 13.84375 -6.1875 L 4.0625 -6.1875 C 4.082031 -5.5625 4.195312 -4.972656 4.40625 -4.421875 C 4.625 -3.867188 4.921875 -3.390625 5.296875 -2.984375 C 5.679688 -2.578125 6.132812 -2.253906 6.65625 -2.015625 C 7.175781 -1.773438 7.753906 -1.65625 8.390625 -1.65625 C 9.222656 -1.65625 9.960938 -1.820312 10.609375 -2.15625 C 11.265625 -2.5 11.804688 -2.953125 12.234375 -3.515625 L 13.671875 -2.390625 C 13.441406 -2.046875 13.15625 -1.710938 12.8125 -1.390625 C 12.476562 -1.078125 12.085938 -0.796875 11.640625 -0.546875 C 11.191406 -0.304688 10.679688 -0.113281 10.109375 0.03125 C 9.546875 0.175781 8.929688 0.25 8.265625 0.25 Z M 7.953125 -12.03125 C 7.484375 -12.03125 7.035156 -11.941406 6.609375 -11.765625 C 6.191406 -11.597656 5.8125 -11.347656 5.46875 -11.015625 C 5.132812 -10.679688 4.847656 -10.269531 4.609375 -9.78125 C 4.378906 -9.300781 4.21875 -8.742188 4.125 -8.109375 L 11.5 -8.109375 L 11.5 -8.28125 C 11.476562 -8.738281 11.394531 -9.191406 11.25 -9.640625 C 11.101562 -10.085938 10.882812 -10.488281 10.59375 -10.84375 C 10.300781 -11.195312 9.9375 -11.484375 9.5 -11.703125 C 9.070312 -11.921875 8.554688 -12.03125 7.953125 -12.03125 Z M 7.953125 -12.03125 "/></g></g></g><g fill="#ffffff" fill-opacity="1"><g transform="translate(218.097239, 413.234754)"><g><path d="M 13.578125 1.90625 L 1.96875 1.90625 L 1.96875 0 L 13.578125 0 Z M 13.578125 1.90625 "/></g></g></g><g fill="#ffffff" fill-opacity="1"><g transform="translate(233.666258, 413.234754)"><g><path d="M 9.8125 0 L 7.46875 0 L 7.46875 -15.453125 L 2.640625 -13.625 L 2.640625 -15.765625 L 9.625 -18.453125 L 9.8125 -18.453125 Z M 9.8125 0 "/></g></g></g><path stroke-linecap="butt" transform="matrix(0.476901, -0.576288, 0.576741, 0.477276, 381.238599, 327.297357)" fill="none" stroke-linejoin="miter" d="M 0.000723912 1.996877 L 179.154764 2.001526 " stroke="#000000" stroke-width="4" stroke-opacity="1" stroke-miterlimit="4"/><g clip-path="url(#a6eb109455)"><g clip-path="url(#6104fad076)"><path fill="#323233" d="M 306.808594 323.402344 L 468.507812 323.402344 L 468.507812 485.101562 L 306.808594 485.101562 Z M 306.808594 323.402344 " fill-opacity="1" fill-rule="nonzero"/><path stroke-linecap="butt" transform="matrix(0.748614, 0, 0, 0.748614, 306.806897, 323.401116)" fill="none" stroke-linejoin="miter" d="M 33.997397 0.00163984 L 182.000142 0.00163984 C 191.016809 0.00163984 199.662999 3.581173 206.039369 9.957543 C 212.415739 16.333913 216.00049 24.980103 216.00049 34.001988 L 216.00049 181.999516 C 216.00049 191.016183 212.415739 199.667591 206.039369 206.043961 C 199.662999 212.420331 191.016809 215.999864 182.000142 215.999864 L 33.997397 215.999864 C 24.98073 215.999864 16.334539 212.420331 9.958169 206.043961 C 3.581799 199.667591 0.00226615 191.016183 0.00226615 181.999516 L 0.00226615 34.001988 C 0.00226615 24.980103 3.581799 16.333913 9.958169 9.957543 C 16.334539 3.581173 24.98073 0.00163984 33.997397 0.00163984 " stroke="#bd99ff" stroke-width="8" stroke-opacity="1" stroke-miterlimit="4"/></g></g><g fill="#ffffff" fill-opacity="1"><g transform="translate(340.950698, 413.234754)"><g><path d="M 13.765625 0 L 11.375 0 L 4.21875 -13.78125 L 4.1875 0 L 1.8125 0 L 1.8125 -18.453125 L 4.1875 -18.453125 L 11.359375 -4.6875 L 11.390625 -18.453125 L 13.765625 -18.453125 Z M 13.765625 0 "/></g></g></g><g fill="#ffffff" fill-opacity="1"><g transform="translate(356.519716, 413.234754)"><g><path d="M 1.546875 -6.984375 C 1.546875 -7.972656 1.6875 -8.890625 1.96875 -9.734375 C 2.257812 -10.585938 2.671875 -11.328125 3.203125 -11.953125 C 3.742188 -12.578125 4.398438 -13.066406 5.171875 -13.421875 C 5.941406 -13.785156 6.804688 -13.96875 7.765625 -13.96875 C 8.734375 -13.96875 9.601562 -13.785156 10.375 -13.421875 C 11.15625 -13.066406 11.8125 -12.578125 12.34375 -11.953125 C 12.882812 -11.328125 13.296875 -10.585938 13.578125 -9.734375 C 13.867188 -8.890625 14.015625 -7.972656 14.015625 -6.984375 L 14.015625 -6.703125 C 14.015625 -5.710938 13.867188 -4.796875 13.578125 -3.953125 C 13.296875 -3.109375 12.882812 -2.375 12.34375 -1.75 C 11.8125 -1.125 11.160156 -0.632812 10.390625 -0.28125 C 9.617188 0.0703125 8.753906 0.25 7.796875 0.25 C 6.828125 0.25 5.953125 0.0703125 5.171875 -0.28125 C 4.398438 -0.632812 3.742188 -1.125 3.203125 -1.75 C 2.671875 -2.375 2.257812 -3.109375 1.96875 -3.953125 C 1.6875 -4.796875 1.546875 -5.710938 1.546875 -6.703125 Z M 3.890625 -6.703125 C 3.890625 -6.023438 3.96875 -5.378906 4.125 -4.765625 C 4.289062 -4.160156 4.535156 -3.625 4.859375 -3.15625 C 5.179688 -2.6875 5.585938 -2.316406 6.078125 -2.046875 C 6.566406 -1.773438 7.140625 -1.640625 7.796875 -1.640625 C 8.429688 -1.640625 8.992188 -1.773438 9.484375 -2.046875 C 9.972656 -2.316406 10.378906 -2.6875 10.703125 -3.15625 C 11.023438 -3.625 11.265625 -4.160156 11.421875 -4.765625 C 11.585938 -5.378906 11.671875 -6.023438 11.671875 -6.703125 L 11.671875 -6.984375 C 11.671875 -7.648438 11.585938 -8.289062 11.421875 -8.90625 C 11.253906 -9.519531 11.007812 -10.054688 10.6875 -10.515625 C 10.363281 -10.984375 9.957031 -11.351562 9.46875 -11.625 C 8.988281 -11.894531 8.421875 -12.03125 7.765625 -12.03125 C 7.117188 -12.03125 6.550781 -11.894531 6.0625 -11.625 C 5.582031 -11.351562 5.179688 -10.984375 4.859375 -10.515625 C 4.535156 -10.054688 4.289062 -9.519531 4.125 -8.90625 C 3.96875 -8.289062 3.890625 -7.648438 3.890625 -6.984375 Z M 3.890625 -6.703125 "/></g></g></g><g fill="#ffffff" fill-opacity="1"><g transform="translate(372.088735, 413.234754)"><g><path d="M 1.765625 -6.96875 C 1.765625 -7.988281 1.890625 -8.925781 2.140625 -9.78125 C 2.398438 -10.644531 2.769531 -11.382812 3.25 -12 C 3.726562 -12.613281 4.304688 -13.09375 4.984375 -13.4375 C 5.660156 -13.789062 6.414062 -13.96875 7.25 -13.96875 C 8.070312 -13.96875 8.785156 -13.828125 9.390625 -13.546875 C 10.003906 -13.273438 10.535156 -12.878906 10.984375 -12.359375 L 10.984375 -19.46875 L 13.328125 -19.46875 L 13.328125 0 L 11.171875 0 L 11.078125 -1.4375 C 10.617188 -0.882812 10.070312 -0.460938 9.4375 -0.171875 C 8.800781 0.109375 8.0625 0.25 7.21875 0.25 C 6.394531 0.25 5.644531 0.0703125 4.96875 -0.28125 C 4.300781 -0.632812 3.726562 -1.125 3.25 -1.75 C 2.78125 -2.375 2.414062 -3.109375 2.15625 -3.953125 C 1.894531 -4.804688 1.765625 -5.722656 1.765625 -6.703125 Z M 4.109375 -6.703125 C 4.109375 -6.035156 4.175781 -5.398438 4.3125 -4.796875 C 4.457031 -4.203125 4.679688 -3.675781 4.984375 -3.21875 C 5.285156 -2.757812 5.664062 -2.394531 6.125 -2.125 C 6.59375 -1.863281 7.15625 -1.734375 7.8125 -1.734375 C 8.207031 -1.734375 8.5625 -1.78125 8.875 -1.875 C 9.195312 -1.96875 9.488281 -2.097656 9.75 -2.265625 C 10.019531 -2.441406 10.253906 -2.648438 10.453125 -2.890625 C 10.660156 -3.128906 10.835938 -3.398438 10.984375 -3.703125 L 10.984375 -10.0625 C 10.679688 -10.613281 10.269531 -11.066406 9.75 -11.421875 C 9.238281 -11.785156 8.597656 -11.96875 7.828125 -11.96875 C 7.171875 -11.96875 6.609375 -11.832031 6.140625 -11.5625 C 5.671875 -11.300781 5.285156 -10.9375 4.984375 -10.46875 C 4.679688 -10.007812 4.457031 -9.476562 4.3125 -8.875 C 4.175781 -8.269531 4.109375 -7.632812 4.109375 -6.96875 Z M 4.109375 -6.703125 "/></g></g></g><g fill="#ffffff" fill-opacity="1"><g transform="translate(387.657753, 413.234754)"><g><path d="M 8.265625 0.25 C 7.296875 0.25 6.40625 0.0859375 5.59375 -0.234375 C 4.789062 -0.566406 4.101562 -1.03125 3.53125 -1.625 C 2.957031 -2.21875 2.507812 -2.914062 2.1875 -3.71875 C 1.863281 -4.53125 1.703125 -5.414062 1.703125 -6.375 L 1.703125 -6.90625 C 1.703125 -8.007812 1.878906 -9 2.234375 -9.875 C 2.597656 -10.75 3.070312 -11.488281 3.65625 -12.09375 C 4.238281 -12.695312 4.90625 -13.160156 5.65625 -13.484375 C 6.40625 -13.804688 7.171875 -13.96875 7.953125 -13.96875 C 8.941406 -13.96875 9.804688 -13.796875 10.546875 -13.453125 C 11.285156 -13.109375 11.898438 -12.632812 12.390625 -12.03125 C 12.878906 -11.425781 13.242188 -10.710938 13.484375 -9.890625 C 13.722656 -9.078125 13.84375 -8.191406 13.84375 -7.234375 L 13.84375 -6.1875 L 4.0625 -6.1875 C 4.082031 -5.5625 4.195312 -4.972656 4.40625 -4.421875 C 4.625 -3.867188 4.921875 -3.390625 5.296875 -2.984375 C 5.679688 -2.578125 6.132812 -2.253906 6.65625 -2.015625 C 7.175781 -1.773438 7.753906 -1.65625 8.390625 -1.65625 C 9.222656 -1.65625 9.960938 -1.820312 10.609375 -2.15625 C 11.265625 -2.5 11.804688 -2.953125 12.234375 -3.515625 L 13.671875 -2.390625 C 13.441406 -2.046875 13.15625 -1.710938 12.8125 -1.390625 C 12.476562 -1.078125 12.085938 -0.796875 11.640625 -0.546875 C 11.191406 -0.304688 10.679688 -0.113281 10.109375 0.03125 C 9.546875 0.175781 8.929688 0.25 8.265625 0.25 Z M 7.953125 -12.03125 C 7.484375 -12.03125 7.035156 -11.941406 6.609375 -11.765625 C 6.191406 -11.597656 5.8125 -11.347656 5.46875 -11.015625 C 5.132812 -10.679688 4.847656 -10.269531 4.609375 -9.78125 C 4.378906 -9.300781 4.21875 -8.742188 4.125 -8.109375 L 11.5 -8.109375 L 11.5 -8.28125 C 11.476562 -8.738281 11.394531 -9.191406 11.25 -9.640625 C 11.101562 -10.085938 10.882812 -10.488281 10.59375 -10.84375 C 10.300781 -11.195312 9.9375 -11.484375 9.5 -11.703125 C 9.070312 -11.921875 8.554688 -12.03125 7.953125 -12.03125 Z M 7.953125 -12.03125 "/></g></g></g><g fill="#ffffff" fill-opacity="1"><g transform="translate(403.226771, 413.234754)"><g><path d="M 13.578125 1.90625 L 1.96875 1.90625 L 1.96875 0 L 13.578125 0 Z M 13.578125 1.90625 "/></g></g></g><g fill="#ffffff" fill-opacity="1"><g transform="translate(418.79579, 413.234754)"><g><path d="M 13.515625 0 L 1.4375 0 L 1.4375 -1.6875 L 7.484375 -8.40625 C 8.015625 -9 8.460938 -9.53125 8.828125 -10 C 9.191406 -10.46875 9.484375 -10.894531 9.703125 -11.28125 C 9.921875 -11.675781 10.078125 -12.046875 10.171875 -12.390625 C 10.265625 -12.742188 10.3125 -13.109375 10.3125 -13.484375 C 10.3125 -13.941406 10.238281 -14.367188 10.09375 -14.765625 C 9.945312 -15.171875 9.726562 -15.519531 9.4375 -15.8125 C 9.15625 -16.113281 8.8125 -16.347656 8.40625 -16.515625 C 8.007812 -16.691406 7.5625 -16.78125 7.0625 -16.78125 C 6.445312 -16.78125 5.910156 -16.691406 5.453125 -16.515625 C 5.003906 -16.335938 4.628906 -16.082031 4.328125 -15.75 C 4.023438 -15.425781 3.800781 -15.03125 3.65625 -14.5625 C 3.507812 -14.101562 3.4375 -13.585938 3.4375 -13.015625 L 1.078125 -13.015625 C 1.078125 -13.796875 1.210938 -14.53125 1.484375 -15.21875 C 1.753906 -15.90625 2.144531 -16.503906 2.65625 -17.015625 C 3.164062 -17.535156 3.789062 -17.945312 4.53125 -18.25 C 5.269531 -18.550781 6.113281 -18.703125 7.0625 -18.703125 C 7.925781 -18.703125 8.707031 -18.570312 9.40625 -18.3125 C 10.101562 -18.0625 10.691406 -17.707031 11.171875 -17.25 C 11.660156 -16.789062 12.03125 -16.25 12.28125 -15.625 C 12.539062 -15 12.671875 -14.316406 12.671875 -13.578125 C 12.671875 -13.035156 12.578125 -12.492188 12.390625 -11.953125 C 12.203125 -11.421875 11.953125 -10.890625 11.640625 -10.359375 C 11.328125 -9.835938 10.957031 -9.320312 10.53125 -8.8125 C 10.113281 -8.300781 9.675781 -7.789062 9.21875 -7.28125 L 4.265625 -1.90625 L 13.515625 -1.90625 Z M 13.515625 0 "/></g></g></g><path stroke-linecap="butt" transform="matrix(-0.476094, -0.578052, 0.577853, -0.475929, 577.618553, 329.20337)" fill="none" stroke-linejoin="miter" d="M 0.00225544 2.000437 L 180.950709 2.000375 " stroke="#000000" stroke-width="4" stroke-opacity="1" stroke-miterlimit="4"/><g clip-path="url(#58315887c0)"><g clip-path="url(#f872bfb45b)"><path fill="#323233" d="M 491.714844 323.402344 L 653.414062 323.402344 L 653.414062 485.101562 L 491.714844 485.101562 Z M 491.714844 323.402344 " fill-opacity="1" fill-rule="nonzero"/><path stroke-linecap="butt" transform="matrix(0.748614, 0, 0, 0.748614, 491.714502, 323.401116)" fill="none" stroke-linejoin="miter" d="M 34.000805 0.00163984 L 181.998332 0.00163984 C 191.014999 0.00163984 199.666408 3.581173 206.042778 9.957543 C 212.419147 16.333913 215.998681 24.980103 215.998681 34.001988 L 215.998681 181.999516 C 215.998681 191.016183 212.419147 199.667591 206.042778 206.043961 C 199.666408 212.420331 191.014999 215.999864 181.998332 215.999864 L 34.000805 215.999864 C 24.984138 215.999864 16.33273 212.420331 9.95636 206.043961 C 3.57999 199.667591 0.000456497 191.016183 0.000456497 181.999516 L 0.000456497 34.001988 C 0.000456497 24.980103 3.57999 16.333913 9.95636 9.957543 C 16.33273 3.581173 24.984138 0.00163984 34.000805 0.00163984 " stroke="#bd99ff" stroke-width="8" stroke-opacity="1" stroke-miterlimit="4"/></g></g><g fill="#ffffff" fill-opacity="1"><g transform="translate(525.858303, 413.234754)"><g><path d="M 13.765625 0 L 11.375 0 L 4.21875 -13.78125 L 4.1875 0 L 1.8125 0 L 1.8125 -18.453125 L 4.1875 -18.453125 L 11.359375 -4.6875 L 11.390625 -18.453125 L 13.765625 -18.453125 Z M 13.765625 0 "/></g></g></g><g fill="#ffffff" fill-opacity="1"><g transform="translate(541.427321, 413.234754)"><g><path d="M 1.546875 -6.984375 C 1.546875 -7.972656 1.6875 -8.890625 1.96875 -9.734375 C 2.257812 -10.585938 2.671875 -11.328125 3.203125 -11.953125 C 3.742188 -12.578125 4.398438 -13.066406 5.171875 -13.421875 C 5.941406 -13.785156 6.804688 -13.96875 7.765625 -13.96875 C 8.734375 -13.96875 9.601562 -13.785156 10.375 -13.421875 C 11.15625 -13.066406 11.8125 -12.578125 12.34375 -11.953125 C 12.882812 -11.328125 13.296875 -10.585938 13.578125 -9.734375 C 13.867188 -8.890625 14.015625 -7.972656 14.015625 -6.984375 L 14.015625 -6.703125 C 14.015625 -5.710938 13.867188 -4.796875 13.578125 -3.953125 C 13.296875 -3.109375 12.882812 -2.375 12.34375 -1.75 C 11.8125 -1.125 11.160156 -0.632812 10.390625 -0.28125 C 9.617188 0.0703125 8.753906 0.25 7.796875 0.25 C 6.828125 0.25 5.953125 0.0703125 5.171875 -0.28125 C 4.398438 -0.632812 3.742188 -1.125 3.203125 -1.75 C 2.671875 -2.375 2.257812 -3.109375 1.96875 -3.953125 C 1.6875 -4.796875 1.546875 -5.710938 1.546875 -6.703125 Z M 3.890625 -6.703125 C 3.890625 -6.023438 3.96875 -5.378906 4.125 -4.765625 C 4.289062 -4.160156 4.535156 -3.625 4.859375 -3.15625 C 5.179688 -2.6875 5.585938 -2.316406 6.078125 -2.046875 C 6.566406 -1.773438 7.140625 -1.640625 7.796875 -1.640625 C 8.429688 -1.640625 8.992188 -1.773438 9.484375 -2.046875 C 9.972656 -2.316406 10.378906 -2.6875 10.703125 -3.15625 C 11.023438 -3.625 11.265625 -4.160156 11.421875 -4.765625 C 11.585938 -5.378906 11.671875 -6.023438 11.671875 -6.703125 L 11.671875 -6.984375 C 11.671875 -7.648438 11.585938 -8.289062 11.421875 -8.90625 C 11.253906 -9.519531 11.007812 -10.054688 10.6875 -10.515625 C 10.363281 -10.984375 9.957031 -11.351562 9.46875 -11.625 C 8.988281 -11.894531 8.421875 -12.03125 7.765625 -12.03125 C 7.117188 -12.03125 6.550781 -11.894531 6.0625 -11.625 C 5.582031 -11.351562 5.179688 -10.984375 4.859375 -10.515625 C 4.535156 -10.054688 4.289062 -9.519531 4.125 -8.90625 C 3.96875 -8.289062 3.890625 -7.648438 3.890625 -6.984375 Z M 3.890625 -6.703125 "/></g></g></g><g fill="#ffffff" fill-opacity="1"><g transform="translate(556.996339, 413.234754)"><g><path d="M 1.765625 -6.96875 C 1.765625 -7.988281 1.890625 -8.925781 2.140625 -9.78125 C 2.398438 -10.644531 2.769531 -11.382812 3.25 -12 C 3.726562 -12.613281 4.304688 -13.09375 4.984375 -13.4375 C 5.660156 -13.789062 6.414062 -13.96875 7.25 -13.96875 C 8.070312 -13.96875 8.785156 -13.828125 9.390625 -13.546875 C 10.003906 -13.273438 10.535156 -12.878906 10.984375 -12.359375 L 10.984375 -19.46875 L 13.328125 -19.46875 L 13.328125 0 L 11.171875 0 L 11.078125 -1.4375 C 10.617188 -0.882812 10.070312 -0.460938 9.4375 -0.171875 C 8.800781 0.109375 8.0625 0.25 7.21875 0.25 C 6.394531 0.25 5.644531 0.0703125 4.96875 -0.28125 C 4.300781 -0.632812 3.726562 -1.125 3.25 -1.75 C 2.78125 -2.375 2.414062 -3.109375 2.15625 -3.953125 C 1.894531 -4.804688 1.765625 -5.722656 1.765625 -6.703125 Z M 4.109375 -6.703125 C 4.109375 -6.035156 4.175781 -5.398438 4.3125 -4.796875 C 4.457031 -4.203125 4.679688 -3.675781 4.984375 -3.21875 C 5.285156 -2.757812 5.664062 -2.394531 6.125 -2.125 C 6.59375 -1.863281 7.15625 -1.734375 7.8125 -1.734375 C 8.207031 -1.734375 8.5625 -1.78125 8.875 -1.875 C 9.195312 -1.96875 9.488281 -2.097656 9.75 -2.265625 C 10.019531 -2.441406 10.253906 -2.648438 10.453125 -2.890625 C 10.660156 -3.128906 10.835938 -3.398438 10.984375 -3.703125 L 10.984375 -10.0625 C 10.679688 -10.613281 10.269531 -11.066406 9.75 -11.421875 C 9.238281 -11.785156 8.597656 -11.96875 7.828125 -11.96875 C 7.171875 -11.96875 6.609375 -11.832031 6.140625 -11.5625 C 5.671875 -11.300781 5.285156 -10.9375 4.984375 -10.46875 C 4.679688 -10.007812 4.457031 -9.476562 4.3125 -8.875 C 4.175781 -8.269531 4.109375 -7.632812 4.109375 -6.96875 Z M 4.109375 -6.703125 "/></g></g></g><g fill="#ffffff" fill-opacity="1"><g transform="translate(572.565358, 413.234754)"><g><path d="M 8.265625 0.25 C 7.296875 0.25 6.40625 0.0859375 5.59375 -0.234375 C 4.789062 -0.566406 4.101562 -1.03125 3.53125 -1.625 C 2.957031 -2.21875 2.507812 -2.914062 2.1875 -3.71875 C 1.863281 -4.53125 1.703125 -5.414062 1.703125 -6.375 L 1.703125 -6.90625 C 1.703125 -8.007812 1.878906 -9 2.234375 -9.875 C 2.597656 -10.75 3.070312 -11.488281 3.65625 -12.09375 C 4.238281 -12.695312 4.90625 -13.160156 5.65625 -13.484375 C 6.40625 -13.804688 7.171875 -13.96875 7.953125 -13.96875 C 8.941406 -13.96875 9.804688 -13.796875 10.546875 -13.453125 C 11.285156 -13.109375 11.898438 -12.632812 12.390625 -12.03125 C 12.878906 -11.425781 13.242188 -10.710938 13.484375 -9.890625 C 13.722656 -9.078125 13.84375 -8.191406 13.84375 -7.234375 L 13.84375 -6.1875 L 4.0625 -6.1875 C 4.082031 -5.5625 4.195312 -4.972656 4.40625 -4.421875 C 4.625 -3.867188 4.921875 -3.390625 5.296875 -2.984375 C 5.679688 -2.578125 6.132812 -2.253906 6.65625 -2.015625 C 7.175781 -1.773438 7.753906 -1.65625 8.390625 -1.65625 C 9.222656 -1.65625 9.960938 -1.820312 10.609375 -2.15625 C 11.265625 -2.5 11.804688 -2.953125 12.234375 -3.515625 L 13.671875 -2.390625 C 13.441406 -2.046875 13.15625 -1.710938 12.8125 -1.390625 C 12.476562 -1.078125 12.085938 -0.796875 11.640625 -0.546875 C 11.191406 -0.304688 10.679688 -0.113281 10.109375 0.03125 C 9.546875 0.175781 8.929688 0.25 8.265625 0.25 Z M 7.953125 -12.03125 C 7.484375 -12.03125 7.035156 -11.941406 6.609375 -11.765625 C 6.191406 -11.597656 5.8125 -11.347656 5.46875 -11.015625 C 5.132812 -10.679688 4.847656 -10.269531 4.609375 -9.78125 C 4.378906 -9.300781 4.21875 -8.742188 4.125 -8.109375 L 11.5 -8.109375 L 11.5 -8.28125 C 11.476562 -8.738281 11.394531 -9.191406 11.25 -9.640625 C 11.101562 -10.085938 10.882812 -10.488281 10.59375 -10.84375 C 10.300781 -11.195312 9.9375 -11.484375 9.5 -11.703125 C 9.070312 -11.921875 8.554688 -12.03125 7.953125 -12.03125 Z M 7.953125 -12.03125 "/></g></g></g><g fill="#ffffff" fill-opacity="1"><g transform="translate(588.134376, 413.234754)"><g><path d="M 13.578125 1.90625 L 1.96875 1.90625 L 1.96875 0 L 13.578125 0 Z M 13.578125 1.90625 "/></g></g></g><g fill="#ffffff" fill-opacity="1"><g transform="translate(603.703394, 413.234754)"><g><path d="M 4.9375 -10.359375 L 6.609375 -10.359375 C 7.203125 -10.359375 7.722656 -10.4375 8.171875 -10.59375 C 8.628906 -10.75 9.007812 -10.96875 9.3125 -11.25 C 9.625 -11.53125 9.859375 -11.863281 10.015625 -12.25 C 10.179688 -12.644531 10.265625 -13.070312 10.265625 -13.53125 C 10.265625 -14.601562 9.988281 -15.410156 9.4375 -15.953125 C 8.894531 -16.503906 8.09375 -16.78125 7.03125 -16.78125 C 6.53125 -16.78125 6.078125 -16.703125 5.671875 -16.546875 C 5.265625 -16.398438 4.914062 -16.1875 4.625 -15.90625 C 4.332031 -15.632812 4.101562 -15.300781 3.9375 -14.90625 C 3.78125 -14.519531 3.703125 -14.085938 3.703125 -13.609375 L 1.34375 -13.609375 C 1.34375 -14.304688 1.476562 -14.96875 1.75 -15.59375 C 2.03125 -16.21875 2.414062 -16.757812 2.90625 -17.21875 C 3.40625 -17.675781 4.003906 -18.035156 4.703125 -18.296875 C 5.398438 -18.566406 6.175781 -18.703125 7.03125 -18.703125 C 7.863281 -18.703125 8.617188 -18.585938 9.296875 -18.359375 C 9.984375 -18.140625 10.570312 -17.8125 11.0625 -17.375 C 11.550781 -16.9375 11.929688 -16.390625 12.203125 -15.734375 C 12.472656 -15.085938 12.609375 -14.335938 12.609375 -13.484375 C 12.609375 -13.128906 12.550781 -12.757812 12.4375 -12.375 C 12.332031 -12 12.164062 -11.628906 11.9375 -11.265625 C 11.707031 -10.910156 11.410156 -10.570312 11.046875 -10.25 C 10.691406 -9.9375 10.265625 -9.675781 9.765625 -9.46875 C 10.367188 -9.269531 10.867188 -9.015625 11.265625 -8.703125 C 11.671875 -8.390625 11.992188 -8.039062 12.234375 -7.65625 C 12.472656 -7.269531 12.640625 -6.859375 12.734375 -6.421875 C 12.835938 -5.992188 12.890625 -5.566406 12.890625 -5.140625 C 12.890625 -4.285156 12.738281 -3.519531 12.4375 -2.84375 C 12.144531 -2.175781 11.734375 -1.613281 11.203125 -1.15625 C 10.679688 -0.695312 10.0625 -0.347656 9.34375 -0.109375 C 8.632812 0.128906 7.867188 0.25 7.046875 0.25 C 6.234375 0.25 5.46875 0.132812 4.75 -0.09375 C 4.039062 -0.320312 3.421875 -0.65625 2.890625 -1.09375 C 2.367188 -1.53125 1.953125 -2.066406 1.640625 -2.703125 C 1.335938 -3.335938 1.1875 -4.054688 1.1875 -4.859375 L 3.53125 -4.859375 C 3.53125 -4.378906 3.613281 -3.941406 3.78125 -3.546875 C 3.945312 -3.148438 4.179688 -2.8125 4.484375 -2.53125 C 4.785156 -2.25 5.15625 -2.03125 5.59375 -1.875 C 6.03125 -1.726562 6.515625 -1.65625 7.046875 -1.65625 C 7.578125 -1.65625 8.054688 -1.722656 8.484375 -1.859375 C 8.921875 -2.003906 9.289062 -2.21875 9.59375 -2.5 C 9.894531 -2.789062 10.128906 -3.148438 10.296875 -3.578125 C 10.460938 -4.003906 10.546875 -4.507812 10.546875 -5.09375 C 10.546875 -5.664062 10.445312 -6.160156 10.25 -6.578125 C 10.0625 -6.992188 9.796875 -7.34375 9.453125 -7.625 C 9.117188 -7.90625 8.707031 -8.113281 8.21875 -8.25 C 7.726562 -8.382812 7.191406 -8.453125 6.609375 -8.453125 L 4.9375 -8.453125 Z M 4.9375 -10.359375 "/></g></g></g><path stroke-linecap="butt" transform="matrix(-0.685586, -0.29937, 0.299576, -0.686059, 765.434842, 329.625605)" fill="none" stroke-linejoin="miter" d="M -0.00164689 2.000109 L 340.24633 1.999096 " stroke="#000000" stroke-width="4" stroke-opacity="1" stroke-miterlimit="4"/><g clip-path="url(#c079b7ae90)"><g clip-path="url(#a4fbaccfad)"><path fill="#323233" d="M 676.621094 323.402344 L 838.324219 323.402344 L 838.324219 485.101562 L 676.621094 485.101562 Z M 676.621094 323.402344 " fill-opacity="1" fill-rule="nonzero"/><path stroke-linecap="butt" transform="matrix(0.748614, 0, 0, 0.748614, 676.622073, 323.401116)" fill="none" stroke-linejoin="miter" d="M 33.99904 0.00163984 L 182.001785 0.00163984 C 191.018452 0.00163984 199.664643 3.581173 206.041013 9.957543 C 212.417383 16.333913 216.002134 24.980103 216.002134 34.001988 L 216.002134 181.999516 C 216.002134 191.016183 212.417383 199.667591 206.041013 206.043961 C 199.664643 212.420331 191.018452 215.999864 182.001785 215.999864 L 33.99904 215.999864 C 24.982373 215.999864 16.336183 212.420331 9.959813 206.043961 C 3.583443 199.667591 -0.00130836 191.016183 -0.00130836 181.999516 L -0.00130836 34.001988 C -0.00130836 24.980103 3.583443 16.333913 9.959813 9.957543 C 16.336183 3.581173 24.982373 0.00163984 33.99904 0.00163984 " stroke="#bd99ff" stroke-width="8" stroke-opacity="1" stroke-miterlimit="4"/></g></g><g fill="#ffffff" fill-opacity="1"><g transform="translate(710.765874, 413.234754)"><g><path d="M 13.765625 0 L 11.375 0 L 4.21875 -13.78125 L 4.1875 0 L 1.8125 0 L 1.8125 -18.453125 L 4.1875 -18.453125 L 11.359375 -4.6875 L 11.390625 -18.453125 L 13.765625 -18.453125 Z M 13.765625 0 "/></g></g></g><g fill="#ffffff" fill-opacity="1"><g transform="translate(726.334892, 413.234754)"><g><path d="M 1.546875 -6.984375 C 1.546875 -7.972656 1.6875 -8.890625 1.96875 -9.734375 C 2.257812 -10.585938 2.671875 -11.328125 3.203125 -11.953125 C 3.742188 -12.578125 4.398438 -13.066406 5.171875 -13.421875 C 5.941406 -13.785156 6.804688 -13.96875 7.765625 -13.96875 C 8.734375 -13.96875 9.601562 -13.785156 10.375 -13.421875 C 11.15625 -13.066406 11.8125 -12.578125 12.34375 -11.953125 C 12.882812 -11.328125 13.296875 -10.585938 13.578125 -9.734375 C 13.867188 -8.890625 14.015625 -7.972656 14.015625 -6.984375 L 14.015625 -6.703125 C 14.015625 -5.710938 13.867188 -4.796875 13.578125 -3.953125 C 13.296875 -3.109375 12.882812 -2.375 12.34375 -1.75 C 11.8125 -1.125 11.160156 -0.632812 10.390625 -0.28125 C 9.617188 0.0703125 8.753906 0.25 7.796875 0.25 C 6.828125 0.25 5.953125 0.0703125 5.171875 -0.28125 C 4.398438 -0.632812 3.742188 -1.125 3.203125 -1.75 C 2.671875 -2.375 2.257812 -3.109375 1.96875 -3.953125 C 1.6875 -4.796875 1.546875 -5.710938 1.546875 -6.703125 Z M 3.890625 -6.703125 C 3.890625 -6.023438 3.96875 -5.378906 4.125 -4.765625 C 4.289062 -4.160156 4.535156 -3.625 4.859375 -3.15625 C 5.179688 -2.6875 5.585938 -2.316406 6.078125 -2.046875 C 6.566406 -1.773438 7.140625 -1.640625 7.796875 -1.640625 C 8.429688 -1.640625 8.992188 -1.773438 9.484375 -2.046875 C 9.972656 -2.316406 10.378906 -2.6875 10.703125 -3.15625 C 11.023438 -3.625 11.265625 -4.160156 11.421875 -4.765625 C 11.585938 -5.378906 11.671875 -6.023438 11.671875 -6.703125 L 11.671875 -6.984375 C 11.671875 -7.648438 11.585938 -8.289062 11.421875 -8.90625 C 11.253906 -9.519531 11.007812 -10.054688 10.6875 -10.515625 C 10.363281 -10.984375 9.957031 -11.351562 9.46875 -11.625 C 8.988281 -11.894531 8.421875 -12.03125 7.765625 -12.03125 C 7.117188 -12.03125 6.550781 -11.894531 6.0625 -11.625 C 5.582031 -11.351562 5.179688 -10.984375 4.859375 -10.515625 C 4.535156 -10.054688 4.289062 -9.519531 4.125 -8.90625 C 3.96875 -8.289062 3.890625 -7.648438 3.890625 -6.984375 Z M 3.890625 -6.703125 "/></g></g></g><g fill="#ffffff" fill-opacity="1"><g transform="translate(741.903911, 413.234754)"><g><path d="M 1.765625 -6.96875 C 1.765625 -7.988281 1.890625 -8.925781 2.140625 -9.78125 C 2.398438 -10.644531 2.769531 -11.382812 3.25 -12 C 3.726562 -12.613281 4.304688 -13.09375 4.984375 -13.4375 C 5.660156 -13.789062 6.414062 -13.96875 7.25 -13.96875 C 8.070312 -13.96875 8.785156 -13.828125 9.390625 -13.546875 C 10.003906 -13.273438 10.535156 -12.878906 10.984375 -12.359375 L 10.984375 -19.46875 L 13.328125 -19.46875 L 13.328125 0 L 11.171875 0 L 11.078125 -1.4375 C 10.617188 -0.882812 10.070312 -0.460938 9.4375 -0.171875 C 8.800781 0.109375 8.0625 0.25 7.21875 0.25 C 6.394531 0.25 5.644531 0.0703125 4.96875 -0.28125 C 4.300781 -0.632812 3.726562 -1.125 3.25 -1.75 C 2.78125 -2.375 2.414062 -3.109375 2.15625 -3.953125 C 1.894531 -4.804688 1.765625 -5.722656 1.765625 -6.703125 Z M 4.109375 -6.703125 C 4.109375 -6.035156 4.175781 -5.398438 4.3125 -4.796875 C 4.457031 -4.203125 4.679688 -3.675781 4.984375 -3.21875 C 5.285156 -2.757812 5.664062 -2.394531 6.125 -2.125 C 6.59375 -1.863281 7.15625 -1.734375 7.8125 -1.734375 C 8.207031 -1.734375 8.5625 -1.78125 8.875 -1.875 C 9.195312 -1.96875 9.488281 -2.097656 9.75 -2.265625 C 10.019531 -2.441406 10.253906 -2.648438 10.453125 -2.890625 C 10.660156 -3.128906 10.835938 -3.398438 10.984375 -3.703125 L 10.984375 -10.0625 C 10.679688 -10.613281 10.269531 -11.066406 9.75 -11.421875 C 9.238281 -11.785156 8.597656 -11.96875 7.828125 -11.96875 C 7.171875 -11.96875 6.609375 -11.832031 6.140625 -11.5625 C 5.671875 -11.300781 5.285156 -10.9375 4.984375 -10.46875 C 4.679688 -10.007812 4.457031 -9.476562 4.3125 -8.875 C 4.175781 -8.269531 4.109375 -7.632812 4.109375 -6.96875 Z M 4.109375 -6.703125 "/></g></g></g><g fill="#ffffff" fill-opacity="1"><g transform="translate(757.472929, 413.234754)"><g><path d="M 8.265625 0.25 C 7.296875 0.25 6.40625 0.0859375 5.59375 -0.234375 C 4.789062 -0.566406 4.101562 -1.03125 3.53125 -1.625 C 2.957031 -2.21875 2.507812 -2.914062 2.1875 -3.71875 C 1.863281 -4.53125 1.703125 -5.414062 1.703125 -6.375 L 1.703125 -6.90625 C 1.703125 -8.007812 1.878906 -9 2.234375 -9.875 C 2.597656 -10.75 3.070312 -11.488281 3.65625 -12.09375 C 4.238281 -12.695312 4.90625 -13.160156 5.65625 -13.484375 C 6.40625 -13.804688 7.171875 -13.96875 7.953125 -13.96875 C 8.941406 -13.96875 9.804688 -13.796875 10.546875 -13.453125 C 11.285156 -13.109375 11.898438 -12.632812 12.390625 -12.03125 C 12.878906 -11.425781 13.242188 -10.710938 13.484375 -9.890625 C 13.722656 -9.078125 13.84375 -8.191406 13.84375 -7.234375 L 13.84375 -6.1875 L 4.0625 -6.1875 C 4.082031 -5.5625 4.195312 -4.972656 4.40625 -4.421875 C 4.625 -3.867188 4.921875 -3.390625 5.296875 -2.984375 C 5.679688 -2.578125 6.132812 -2.253906 6.65625 -2.015625 C 7.175781 -1.773438 7.753906 -1.65625 8.390625 -1.65625 C 9.222656 -1.65625 9.960938 -1.820312 10.609375 -2.15625 C 11.265625 -2.5 11.804688 -2.953125 12.234375 -3.515625 L 13.671875 -2.390625 C 13.441406 -2.046875 13.15625 -1.710938 12.8125 -1.390625 C 12.476562 -1.078125 12.085938 -0.796875 11.640625 -0.546875 C 11.191406 -0.304688 10.679688 -0.113281 10.109375 0.03125 C 9.546875 0.175781 8.929688 0.25 8.265625 0.25 Z M 7.953125 -12.03125 C 7.484375 -12.03125 7.035156 -11.941406 6.609375 -11.765625 C 6.191406 -11.597656 5.8125 -11.347656 5.46875 -11.015625 C 5.132812 -10.679688 4.847656 -10.269531 4.609375 -9.78125 C 4.378906 -9.300781 4.21875 -8.742188 4.125 -8.109375 L 11.5 -8.109375 L 11.5 -8.28125 C 11.476562 -8.738281 11.394531 -9.191406 11.25 -9.640625 C 11.101562 -10.085938 10.882812 -10.488281 10.59375 -10.84375 C 10.300781 -11.195312 9.9375 -11.484375 9.5 -11.703125 C 9.070312 -11.921875 8.554688 -12.03125 7.953125 -12.03125 Z M 7.953125 -12.03125 "/></g></g></g><g fill="#ffffff" fill-opacity="1"><g transform="translate(773.041947, 413.234754)"><g><path d="M 13.578125 1.90625 L 1.96875 1.90625 L 1.96875 0 L 13.578125 0 Z M 13.578125 1.90625 "/></g></g></g><g fill="#ffffff" fill-opacity="1"><g transform="translate(788.610966, 413.234754)"><g><path d="M 11.703125 -6.203125 L 14.28125 -6.203125 L 14.28125 -4.28125 L 11.703125 -4.28125 L 11.703125 0 L 9.359375 0 L 9.359375 -4.28125 L 0.953125 -4.28125 L 0.953125 -5.671875 L 9.21875 -18.453125 L 11.703125 -18.453125 Z M 3.546875 -6.203125 L 9.359375 -6.203125 L 9.359375 -15.328125 L 8.984375 -14.625 Z M 3.546875 -6.203125 "/></g></g></g><g clip-path="url(#d4b1dd8d99)"><g clip-path="url(#8d0e94d5da)"><path fill="#bd99ff" d="M 399.148438 67.722656 L 558.324219 67.722656 L 558.324219 229.421875 L 399.148438 229.421875 Z M 399.148438 67.722656 " fill-opacity="1" fill-rule="nonzero"/></g></g><g clip-path="url(#752f29d0ef)"><g clip-path="url(#06a5fdd3a6)"><path stroke-linecap="butt" transform="matrix(0.749548, 0, 0, 0.748721, 399.153743, 67.721774)" fill="none" stroke-linejoin="miter" d="M 33.997778 0.0011786 L 178.725572 0.0011786 C 187.741419 0.0011786 196.392463 3.580197 202.766094 9.955649 C 209.139724 16.331102 212.725217 24.981265 212.725217 33.996635 L 212.725217 182.969358 C 212.725217 191.989945 209.139724 200.634892 202.766094 207.010344 C 196.392463 213.385797 187.741419 216.970032 178.725572 216.970032 L 33.997778 216.970032 C 24.981932 216.970032 16.336099 213.385797 9.957257 207.010344 C 3.583627 200.634892 -0.00186615 191.989945 -0.00186615 182.969358 L -0.00186615 33.996635 C -0.00186615 24.981265 3.583627 16.331102 9.957257 9.955649 C 16.336099 3.580197 24.981932 0.0011786 33.997778 0.0011786 " stroke="#545454" stroke-width="8" stroke-opacity="1" stroke-miterlimit="4"/></g></g><g fill="#ffffff" fill-opacity="1"><g transform="translate(408.717924, 157.555412)"><g><path d="M 13.828125 -6.703125 C 13.828125 -5.722656 13.707031 -4.804688 13.46875 -3.953125 C 13.226562 -3.109375 12.878906 -2.375 12.421875 -1.75 C 11.972656 -1.125 11.410156 -0.632812 10.734375 -0.28125 C 10.066406 0.0703125 9.296875 0.25 8.421875 0.25 C 7.546875 0.25 6.785156 0.09375 6.140625 -0.21875 C 5.492188 -0.53125 4.941406 -0.976562 4.484375 -1.5625 L 4.375 0 L 2.21875 0 L 2.21875 -19.46875 L 4.5625 -19.46875 L 4.5625 -12.234375 C 5.007812 -12.796875 5.550781 -13.222656 6.1875 -13.515625 C 6.820312 -13.816406 7.5625 -13.96875 8.40625 -13.96875 C 9.28125 -13.96875 10.054688 -13.789062 10.734375 -13.4375 C 11.410156 -13.09375 11.972656 -12.613281 12.421875 -12 C 12.878906 -11.382812 13.226562 -10.644531 13.46875 -9.78125 C 13.707031 -8.925781 13.828125 -7.988281 13.828125 -6.96875 Z M 11.484375 -6.96875 C 11.484375 -7.632812 11.414062 -8.269531 11.28125 -8.875 C 11.15625 -9.476562 10.945312 -10.007812 10.65625 -10.46875 C 10.375 -10.9375 10 -11.300781 9.53125 -11.5625 C 9.0625 -11.832031 8.488281 -11.96875 7.8125 -11.96875 C 7.40625 -11.96875 7.035156 -11.914062 6.703125 -11.8125 C 6.367188 -11.707031 6.066406 -11.5625 5.796875 -11.375 C 5.535156 -11.1875 5.300781 -10.960938 5.09375 -10.703125 C 4.882812 -10.441406 4.707031 -10.160156 4.5625 -9.859375 L 4.5625 -3.859375 C 4.71875 -3.554688 4.894531 -3.273438 5.09375 -3.015625 C 5.300781 -2.765625 5.539062 -2.539062 5.8125 -2.34375 C 6.082031 -2.144531 6.382812 -1.992188 6.71875 -1.890625 C 7.0625 -1.785156 7.4375 -1.734375 7.84375 -1.734375 C 8.488281 -1.734375 9.039062 -1.863281 9.5 -2.125 C 9.957031 -2.394531 10.332031 -2.757812 10.625 -3.21875 C 10.914062 -3.675781 11.128906 -4.203125 11.265625 -4.796875 C 11.410156 -5.398438 11.484375 -6.035156 11.484375 -6.703125 Z M 11.484375 -6.96875 "/></g></g></g><g fill="#ffffff" fill-opacity="1"><g transform="translate(424.286943, 157.555412)"><g><path d="M 11.1875 -13.96875 C 11.40625 -13.96875 11.632812 -13.957031 11.875 -13.9375 C 12.113281 -13.925781 12.335938 -13.90625 12.546875 -13.875 C 12.765625 -13.851562 12.960938 -13.820312 13.140625 -13.78125 C 13.328125 -13.738281 13.476562 -13.691406 13.59375 -13.640625 L 13.28125 -11.34375 C 12.820312 -11.445312 12.382812 -11.519531 11.96875 -11.5625 C 11.5625 -11.613281 11.140625 -11.640625 10.703125 -11.640625 C 9.597656 -11.640625 8.707031 -11.390625 8.03125 -10.890625 C 7.351562 -10.390625 6.851562 -9.691406 6.53125 -8.796875 L 6.53125 0 L 4.171875 0 L 4.171875 -13.71875 L 6.40625 -13.71875 L 6.515625 -11.53125 C 7.066406 -12.28125 7.734375 -12.875 8.515625 -13.3125 C 9.296875 -13.75 10.1875 -13.96875 11.1875 -13.96875 Z M 11.1875 -13.96875 "/></g></g></g><g fill="#ffffff" fill-opacity="1"><g transform="translate(439.855961, 157.555412)"><g><path d="M 1.546875 -6.984375 C 1.546875 -7.972656 1.6875 -8.890625 1.96875 -9.734375 C 2.257812 -10.585938 2.671875 -11.328125 3.203125 -11.953125 C 3.742188 -12.578125 4.398438 -13.066406 5.171875 -13.421875 C 5.941406 -13.785156 6.804688 -13.96875 7.765625 -13.96875 C 8.734375 -13.96875 9.601562 -13.785156 10.375 -13.421875 C 11.15625 -13.066406 11.8125 -12.578125 12.34375 -11.953125 C 12.882812 -11.328125 13.296875 -10.585938 13.578125 -9.734375 C 13.867188 -8.890625 14.015625 -7.972656 14.015625 -6.984375 L 14.015625 -6.703125 C 14.015625 -5.710938 13.867188 -4.796875 13.578125 -3.953125 C 13.296875 -3.109375 12.882812 -2.375 12.34375 -1.75 C 11.8125 -1.125 11.160156 -0.632812 10.390625 -0.28125 C 9.617188 0.0703125 8.753906 0.25 7.796875 0.25 C 6.828125 0.25 5.953125 0.0703125 5.171875 -0.28125 C 4.398438 -0.632812 3.742188 -1.125 3.203125 -1.75 C 2.671875 -2.375 2.257812 -3.109375 1.96875 -3.953125 C 1.6875 -4.796875 1.546875 -5.710938 1.546875 -6.703125 Z M 3.890625 -6.703125 C 3.890625 -6.023438 3.96875 -5.378906 4.125 -4.765625 C 4.289062 -4.160156 4.535156 -3.625 4.859375 -3.15625 C 5.179688 -2.6875 5.585938 -2.316406 6.078125 -2.046875 C 6.566406 -1.773438 7.140625 -1.640625 7.796875 -1.640625 C 8.429688 -1.640625 8.992188 -1.773438 9.484375 -2.046875 C 9.972656 -2.316406 10.378906 -2.6875 10.703125 -3.15625 C 11.023438 -3.625 11.265625 -4.160156 11.421875 -4.765625 C 11.585938 -5.378906 11.671875 -6.023438 11.671875 -6.703125 L 11.671875 -6.984375 C 11.671875 -7.648438 11.585938 -8.289062 11.421875 -8.90625 C 11.253906 -9.519531 11.007812 -10.054688 10.6875 -10.515625 C 10.363281 -10.984375 9.957031 -11.351562 9.46875 -11.625 C 8.988281 -11.894531 8.421875 -12.03125 7.765625 -12.03125 C 7.117188 -12.03125 6.550781 -11.894531 6.0625 -11.625 C 5.582031 -11.351562 5.179688 -10.984375 4.859375 -10.515625 C 4.535156 -10.054688 4.289062 -9.519531 4.125 -8.90625 C 3.96875 -8.289062 3.890625 -7.648438 3.890625 -6.984375 Z M 3.890625 -6.703125 "/></g></g></g><g fill="#ffffff" fill-opacity="1"><g transform="translate(455.424979, 157.555412)"><g><path d="M 6.3125 -6.40625 L 4.59375 -4.734375 L 4.59375 0 L 2.234375 0 L 2.234375 -19.46875 L 4.59375 -19.46875 L 4.59375 -7.546875 L 6.125 -9.203125 L 10.625 -13.71875 L 13.46875 -13.71875 L 7.921875 -8 L 14.3125 0 L 11.34375 0 Z M 6.3125 -6.40625 "/></g></g></g><g fill="#ffffff" fill-opacity="1"><g transform="translate(470.993998, 157.555412)"><g><path d="M 8.265625 0.25 C 7.296875 0.25 6.40625 0.0859375 5.59375 -0.234375 C 4.789062 -0.566406 4.101562 -1.03125 3.53125 -1.625 C 2.957031 -2.21875 2.507812 -2.914062 2.1875 -3.71875 C 1.863281 -4.53125 1.703125 -5.414062 1.703125 -6.375 L 1.703125 -6.90625 C 1.703125 -8.007812 1.878906 -9 2.234375 -9.875 C 2.597656 -10.75 3.070312 -11.488281 3.65625 -12.09375 C 4.238281 -12.695312 4.90625 -13.160156 5.65625 -13.484375 C 6.40625 -13.804688 7.171875 -13.96875 7.953125 -13.96875 C 8.941406 -13.96875 9.804688 -13.796875 10.546875 -13.453125 C 11.285156 -13.109375 11.898438 -12.632812 12.390625 -12.03125 C 12.878906 -11.425781 13.242188 -10.710938 13.484375 -9.890625 C 13.722656 -9.078125 13.84375 -8.191406 13.84375 -7.234375 L 13.84375 -6.1875 L 4.0625 -6.1875 C 4.082031 -5.5625 4.195312 -4.972656 4.40625 -4.421875 C 4.625 -3.867188 4.921875 -3.390625 5.296875 -2.984375 C 5.679688 -2.578125 6.132812 -2.253906 6.65625 -2.015625 C 7.175781 -1.773438 7.753906 -1.65625 8.390625 -1.65625 C 9.222656 -1.65625 9.960938 -1.820312 10.609375 -2.15625 C 11.265625 -2.5 11.804688 -2.953125 12.234375 -3.515625 L 13.671875 -2.390625 C 13.441406 -2.046875 13.15625 -1.710938 12.8125 -1.390625 C 12.476562 -1.078125 12.085938 -0.796875 11.640625 -0.546875 C 11.191406 -0.304688 10.679688 -0.113281 10.109375 0.03125 C 9.546875 0.175781 8.929688 0.25 8.265625 0.25 Z M 7.953125 -12.03125 C 7.484375 -12.03125 7.035156 -11.941406 6.609375 -11.765625 C 6.191406 -11.597656 5.8125 -11.347656 5.46875 -11.015625 C 5.132812 -10.679688 4.847656 -10.269531 4.609375 -9.78125 C 4.378906 -9.300781 4.21875 -8.742188 4.125 -8.109375 L 11.5 -8.109375 L 11.5 -8.28125 C 11.476562 -8.738281 11.394531 -9.191406 11.25 -9.640625 C 11.101562 -10.085938 10.882812 -10.488281 10.59375 -10.84375 C 10.300781 -11.195312 9.9375 -11.484375 9.5 -11.703125 C 9.070312 -11.921875 8.554688 -12.03125 7.953125 -12.03125 Z M 7.953125 -12.03125 "/></g></g></g><g fill="#ffffff" fill-opacity="1"><g transform="translate(486.563016, 157.555412)"><g><path d="M 11.1875 -13.96875 C 11.40625 -13.96875 11.632812 -13.957031 11.875 -13.9375 C 12.113281 -13.925781 12.335938 -13.90625 12.546875 -13.875 C 12.765625 -13.851562 12.960938 -13.820312 13.140625 -13.78125 C 13.328125 -13.738281 13.476562 -13.691406 13.59375 -13.640625 L 13.28125 -11.34375 C 12.820312 -11.445312 12.382812 -11.519531 11.96875 -11.5625 C 11.5625 -11.613281 11.140625 -11.640625 10.703125 -11.640625 C 9.597656 -11.640625 8.707031 -11.390625 8.03125 -10.890625 C 7.351562 -10.390625 6.851562 -9.691406 6.53125 -8.796875 L 6.53125 0 L 4.171875 0 L 4.171875 -13.71875 L 6.40625 -13.71875 L 6.515625 -11.53125 C 7.066406 -12.28125 7.734375 -12.875 8.515625 -13.3125 C 9.296875 -13.75 10.1875 -13.96875 11.1875 -13.96875 Z M 11.1875 -13.96875 "/></g></g></g><g fill="#ffffff" fill-opacity="1"><g transform="translate(502.132034, 157.555412)"><g><path d="M 13.578125 1.90625 L 1.96875 1.90625 L 1.96875 0 L 13.578125 0 Z M 13.578125 1.90625 "/></g></g></g><g fill="#ffffff" fill-opacity="1"><g transform="translate(517.701053, 157.555412)"><g><path d="M 13.78125 -6.703125 C 13.78125 -5.722656 13.660156 -4.804688 13.421875 -3.953125 C 13.179688 -3.109375 12.832031 -2.375 12.375 -1.75 C 11.925781 -1.125 11.363281 -0.632812 10.6875 -0.28125 C 10.019531 0.0703125 9.253906 0.25 8.390625 0.25 C 7.554688 0.25 6.816406 0.113281 6.171875 -0.15625 C 5.535156 -0.425781 4.988281 -0.8125 4.53125 -1.3125 L 4.53125 5.265625 L 2.1875 5.265625 L 2.1875 -13.71875 L 4.328125 -13.71875 L 4.453125 -12.21875 C 4.898438 -12.78125 5.445312 -13.210938 6.09375 -13.515625 C 6.75 -13.816406 7.5 -13.96875 8.34375 -13.96875 C 9.226562 -13.96875 10.007812 -13.789062 10.6875 -13.4375 C 11.363281 -13.09375 11.925781 -12.613281 12.375 -12 C 12.832031 -11.382812 13.179688 -10.644531 13.421875 -9.78125 C 13.660156 -8.925781 13.78125 -7.988281 13.78125 -6.96875 Z M 11.4375 -6.96875 C 11.4375 -7.632812 11.359375 -8.269531 11.203125 -8.875 C 11.054688 -9.476562 10.828125 -10.007812 10.515625 -10.46875 C 10.210938 -10.9375 9.820312 -11.300781 9.34375 -11.5625 C 8.875 -11.832031 8.3125 -11.96875 7.65625 -11.96875 C 6.90625 -11.96875 6.273438 -11.789062 5.765625 -11.4375 C 5.253906 -11.09375 4.84375 -10.644531 4.53125 -10.09375 L 4.53125 -3.5 C 4.84375 -2.957031 5.25 -2.515625 5.75 -2.171875 C 6.257812 -1.828125 6.898438 -1.65625 7.671875 -1.65625 C 8.328125 -1.65625 8.890625 -1.789062 9.359375 -2.0625 C 9.835938 -2.34375 10.226562 -2.710938 10.53125 -3.171875 C 10.832031 -3.640625 11.054688 -4.175781 11.203125 -4.78125 C 11.359375 -5.394531 11.4375 -6.035156 11.4375 -6.703125 Z M 11.4375 -6.96875 "/></g></g></g><g fill="#ffffff" fill-opacity="1"><g transform="translate(533.270071, 157.555412)"><g><path d="M 7.25 -4.859375 L 7.859375 -3.203125 L 12.03125 -13.71875 L 14.65625 -13.71875 L 7.703125 2.109375 C 7.546875 2.472656 7.34375 2.851562 7.09375 3.25 C 6.84375 3.644531 6.539062 4.007812 6.1875 4.34375 C 5.832031 4.6875 5.414062 4.96875 4.9375 5.1875 C 4.46875 5.414062 3.925781 5.53125 3.3125 5.53125 C 3.195312 5.53125 3.070312 5.523438 2.9375 5.515625 C 2.800781 5.503906 2.664062 5.488281 2.53125 5.46875 C 2.394531 5.445312 2.269531 5.421875 2.15625 5.390625 C 2.039062 5.367188 1.941406 5.347656 1.859375 5.328125 L 2.25 3.421875 C 2.300781 3.421875 2.378906 3.425781 2.484375 3.4375 C 2.585938 3.445312 2.691406 3.453125 2.796875 3.453125 C 2.910156 3.460938 3.015625 3.46875 3.109375 3.46875 C 3.210938 3.476562 3.296875 3.484375 3.359375 3.484375 C 3.679688 3.484375 3.972656 3.394531 4.234375 3.21875 C 4.503906 3.039062 4.742188 2.828125 4.953125 2.578125 C 5.160156 2.335938 5.335938 2.085938 5.484375 1.828125 C 5.628906 1.566406 5.742188 1.347656 5.828125 1.171875 L 6.765625 -0.640625 L 0.859375 -13.71875 L 3.484375 -13.71875 Z M 7.25 -4.859375 "/></g></g></g><g fill="#000000" fill-opacity="1"><g transform="translate(176.524742, 193.224718)"><g><path d="M 9.609375 -4.21875 L 10.796875 -15.609375 L 12.671875 -15.609375 L 10.765625 0 L 8.75 0 L 6.75 -11.765625 L 4.71875 0 L 2.6875 0 L 0.78125 -15.609375 L 2.671875 -15.609375 L 3.859375 -4.21875 L 5.859375 -15.609375 L 7.59375 -15.609375 Z M 9.609375 -4.21875 "/></g></g></g><g fill="#000000" fill-opacity="1"><g transform="translate(189.700153, 193.224718)"><g><path d="M 6.984375 0.21875 C 6.171875 0.21875 5.421875 0.078125 4.734375 -0.203125 C 4.054688 -0.484375 3.472656 -0.875 2.984375 -1.375 C 2.503906 -1.875 2.128906 -2.46875 1.859375 -3.15625 C 1.585938 -3.84375 1.453125 -4.585938 1.453125 -5.390625 L 1.453125 -5.84375 C 1.453125 -6.78125 1.597656 -7.617188 1.890625 -8.359375 C 2.191406 -9.097656 2.59375 -9.722656 3.09375 -10.234375 C 3.59375 -10.742188 4.15625 -11.132812 4.78125 -11.40625 C 5.414062 -11.675781 6.066406 -11.8125 6.734375 -11.8125 C 7.566406 -11.8125 8.296875 -11.664062 8.921875 -11.375 C 9.546875 -11.082031 10.066406 -10.679688 10.484375 -10.171875 C 10.898438 -9.660156 11.207031 -9.054688 11.40625 -8.359375 C 11.613281 -7.671875 11.71875 -6.925781 11.71875 -6.125 L 11.71875 -5.234375 L 3.4375 -5.234375 C 3.457031 -4.703125 3.554688 -4.203125 3.734375 -3.734375 C 3.921875 -3.273438 4.171875 -2.867188 4.484375 -2.515625 C 4.804688 -2.171875 5.1875 -1.898438 5.625 -1.703125 C 6.070312 -1.503906 6.5625 -1.40625 7.09375 -1.40625 C 7.800781 -1.40625 8.429688 -1.546875 8.984375 -1.828125 C 9.535156 -2.117188 9.992188 -2.5 10.359375 -2.96875 L 11.5625 -2.03125 C 11.375 -1.738281 11.132812 -1.457031 10.84375 -1.1875 C 10.550781 -0.914062 10.210938 -0.675781 9.828125 -0.46875 C 9.453125 -0.257812 9.023438 -0.09375 8.546875 0.03125 C 8.066406 0.15625 7.546875 0.21875 6.984375 0.21875 Z M 6.734375 -10.1875 C 6.328125 -10.1875 5.945312 -10.113281 5.59375 -9.96875 C 5.238281 -9.820312 4.914062 -9.601562 4.625 -9.3125 C 4.34375 -9.03125 4.101562 -8.6875 3.90625 -8.28125 C 3.707031 -7.875 3.570312 -7.398438 3.5 -6.859375 L 9.734375 -6.859375 L 9.734375 -7.015625 C 9.710938 -7.398438 9.640625 -7.78125 9.515625 -8.15625 C 9.390625 -8.53125 9.203125 -8.867188 8.953125 -9.171875 C 8.710938 -9.472656 8.410156 -9.71875 8.046875 -9.90625 C 7.679688 -10.09375 7.242188 -10.1875 6.734375 -10.1875 Z M 6.734375 -10.1875 "/></g></g></g><g fill="#000000" fill-opacity="1"><g transform="translate(202.875563, 193.224718)"><g><path d="M 11.6875 -5.671875 C 11.6875 -4.835938 11.585938 -4.0625 11.390625 -3.34375 C 11.191406 -2.625 10.898438 -2 10.515625 -1.46875 C 10.128906 -0.945312 9.648438 -0.535156 9.078125 -0.234375 C 8.515625 0.0664062 7.863281 0.21875 7.125 0.21875 C 6.382812 0.21875 5.738281 0.0859375 5.1875 -0.171875 C 4.644531 -0.441406 4.179688 -0.820312 3.796875 -1.3125 L 3.703125 0 L 1.875 0 L 1.875 -16.46875 L 3.859375 -16.46875 L 3.859375 -10.359375 C 4.234375 -10.828125 4.6875 -11.1875 5.21875 -11.4375 C 5.757812 -11.6875 6.390625 -11.8125 7.109375 -11.8125 C 7.847656 -11.8125 8.503906 -11.664062 9.078125 -11.375 C 9.648438 -11.082031 10.128906 -10.675781 10.515625 -10.15625 C 10.898438 -9.632812 11.191406 -9.007812 11.390625 -8.28125 C 11.585938 -7.550781 11.6875 -6.753906 11.6875 -5.890625 Z M 9.71875 -5.890625 C 9.71875 -6.460938 9.660156 -7.003906 9.546875 -7.515625 C 9.429688 -8.023438 9.253906 -8.472656 9.015625 -8.859375 C 8.773438 -9.242188 8.457031 -9.550781 8.0625 -9.78125 C 7.664062 -10.007812 7.179688 -10.125 6.609375 -10.125 C 6.265625 -10.125 5.945312 -10.078125 5.65625 -9.984375 C 5.375 -9.898438 5.117188 -9.773438 4.890625 -9.609375 C 4.671875 -9.453125 4.472656 -9.265625 4.296875 -9.046875 C 4.128906 -8.828125 3.984375 -8.59375 3.859375 -8.34375 L 3.859375 -3.265625 C 3.984375 -3.015625 4.132812 -2.78125 4.3125 -2.5625 C 4.488281 -2.34375 4.691406 -2.148438 4.921875 -1.984375 C 5.148438 -1.816406 5.40625 -1.6875 5.6875 -1.59375 C 5.976562 -1.507812 6.296875 -1.46875 6.640625 -1.46875 C 7.179688 -1.46875 7.644531 -1.578125 8.03125 -1.796875 C 8.425781 -2.023438 8.742188 -2.332031 8.984375 -2.71875 C 9.234375 -3.101562 9.414062 -3.550781 9.53125 -4.0625 C 9.65625 -4.570312 9.71875 -5.109375 9.71875 -5.671875 Z M 9.71875 -5.890625 "/></g></g></g><g fill="#000000" fill-opacity="1"><g transform="translate(216.050974, 193.224718)"><g/></g></g><g fill="#000000" fill-opacity="1"><g transform="translate(229.226385, 193.224718)"><g><path d="M 10.03125 -3.9375 C 10.03125 -4.414062 9.921875 -4.820312 9.703125 -5.15625 C 9.484375 -5.488281 9.203125 -5.765625 8.859375 -5.984375 C 8.515625 -6.210938 8.140625 -6.398438 7.734375 -6.546875 C 7.328125 -6.703125 6.929688 -6.835938 6.546875 -6.953125 C 5.992188 -7.128906 5.429688 -7.34375 4.859375 -7.59375 C 4.296875 -7.84375 3.78125 -8.148438 3.3125 -8.515625 C 2.84375 -8.878906 2.457031 -9.3125 2.15625 -9.8125 C 1.863281 -10.3125 1.71875 -10.894531 1.71875 -11.5625 C 1.71875 -12.238281 1.863281 -12.835938 2.15625 -13.359375 C 2.457031 -13.890625 2.847656 -14.335938 3.328125 -14.703125 C 3.804688 -15.066406 4.347656 -15.34375 4.953125 -15.53125 C 5.566406 -15.726562 6.179688 -15.828125 6.796875 -15.828125 C 7.472656 -15.828125 8.125 -15.710938 8.75 -15.484375 C 9.382812 -15.253906 9.941406 -14.9375 10.421875 -14.53125 C 10.910156 -14.125 11.300781 -13.628906 11.59375 -13.046875 C 11.882812 -12.472656 12.039062 -11.828125 12.0625 -11.109375 L 10.015625 -11.109375 C 9.960938 -11.566406 9.851562 -11.976562 9.6875 -12.34375 C 9.519531 -12.707031 9.300781 -13.019531 9.03125 -13.28125 C 8.757812 -13.550781 8.4375 -13.757812 8.0625 -13.90625 C 7.6875 -14.050781 7.265625 -14.125 6.796875 -14.125 C 6.421875 -14.125 6.050781 -14.070312 5.6875 -13.96875 C 5.320312 -13.863281 5 -13.703125 4.71875 -13.484375 C 4.4375 -13.265625 4.210938 -13 4.046875 -12.6875 C 3.878906 -12.375 3.796875 -12.007812 3.796875 -11.59375 C 3.804688 -11.144531 3.921875 -10.765625 4.140625 -10.453125 C 4.359375 -10.140625 4.632812 -9.875 4.96875 -9.65625 C 5.3125 -9.445312 5.679688 -9.269531 6.078125 -9.125 C 6.472656 -8.988281 6.847656 -8.863281 7.203125 -8.75 C 7.585938 -8.632812 7.976562 -8.5 8.375 -8.34375 C 8.769531 -8.1875 9.148438 -8.007812 9.515625 -7.8125 C 9.878906 -7.613281 10.21875 -7.390625 10.53125 -7.140625 C 10.84375 -6.890625 11.113281 -6.601562 11.34375 -6.28125 C 11.582031 -5.96875 11.769531 -5.617188 11.90625 -5.234375 C 12.039062 -4.847656 12.109375 -4.425781 12.109375 -3.96875 C 12.109375 -3.269531 11.953125 -2.65625 11.640625 -2.125 C 11.328125 -1.601562 10.921875 -1.171875 10.421875 -0.828125 C 9.929688 -0.484375 9.375 -0.222656 8.75 -0.046875 C 8.132812 0.128906 7.515625 0.21875 6.890625 0.21875 C 6.203125 0.21875 5.523438 0.113281 4.859375 -0.09375 C 4.191406 -0.3125 3.59375 -0.625 3.0625 -1.03125 C 2.539062 -1.4375 2.113281 -1.929688 1.78125 -2.515625 C 1.457031 -3.097656 1.285156 -3.757812 1.265625 -4.5 L 3.296875 -4.5 C 3.359375 -4.007812 3.488281 -3.578125 3.6875 -3.203125 C 3.882812 -2.828125 4.140625 -2.507812 4.453125 -2.25 C 4.773438 -1.988281 5.140625 -1.789062 5.546875 -1.65625 C 5.953125 -1.53125 6.398438 -1.46875 6.890625 -1.46875 C 7.273438 -1.46875 7.65625 -1.515625 8.03125 -1.609375 C 8.40625 -1.710938 8.738281 -1.863281 9.03125 -2.0625 C 9.320312 -2.269531 9.5625 -2.523438 9.75 -2.828125 C 9.9375 -3.140625 10.03125 -3.507812 10.03125 -3.9375 Z M 10.03125 -3.9375 "/></g></g></g><g fill="#000000" fill-opacity="1"><g transform="translate(242.401796, 193.224718)"><g><path d="M 1.3125 -5.90625 C 1.3125 -6.738281 1.429688 -7.515625 1.671875 -8.234375 C 1.910156 -8.953125 2.253906 -9.578125 2.703125 -10.109375 C 3.160156 -10.640625 3.710938 -11.054688 4.359375 -11.359375 C 5.015625 -11.660156 5.753906 -11.8125 6.578125 -11.8125 C 7.390625 -11.8125 8.125 -11.660156 8.78125 -11.359375 C 9.4375 -11.054688 9.988281 -10.640625 10.4375 -10.109375 C 10.894531 -9.578125 11.242188 -8.953125 11.484375 -8.234375 C 11.734375 -7.515625 11.859375 -6.738281 11.859375 -5.90625 L 11.859375 -5.671875 C 11.859375 -4.835938 11.734375 -4.0625 11.484375 -3.34375 C 11.242188 -2.625 10.894531 -2 10.4375 -1.46875 C 9.988281 -0.945312 9.4375 -0.535156 8.78125 -0.234375 C 8.132812 0.0664062 7.40625 0.21875 6.59375 0.21875 C 5.769531 0.21875 5.03125 0.0664062 4.375 -0.234375 C 3.71875 -0.535156 3.160156 -0.945312 2.703125 -1.46875 C 2.253906 -2 1.910156 -2.625 1.671875 -3.34375 C 1.429688 -4.0625 1.3125 -4.835938 1.3125 -5.671875 Z M 3.296875 -5.671875 C 3.296875 -5.097656 3.363281 -4.550781 3.5 -4.03125 C 3.632812 -3.519531 3.835938 -3.066406 4.109375 -2.671875 C 4.390625 -2.273438 4.734375 -1.960938 5.140625 -1.734375 C 5.554688 -1.503906 6.039062 -1.390625 6.59375 -1.390625 C 7.132812 -1.390625 7.609375 -1.503906 8.015625 -1.734375 C 8.429688 -1.960938 8.773438 -2.273438 9.046875 -2.671875 C 9.328125 -3.066406 9.535156 -3.519531 9.671875 -4.03125 C 9.804688 -4.550781 9.875 -5.097656 9.875 -5.671875 L 9.875 -5.90625 C 9.875 -6.46875 9.800781 -7.007812 9.65625 -7.53125 C 9.519531 -8.050781 9.3125 -8.503906 9.03125 -8.890625 C 8.757812 -9.285156 8.414062 -9.597656 8 -9.828125 C 7.59375 -10.066406 7.117188 -10.1875 6.578125 -10.1875 C 6.023438 -10.1875 5.546875 -10.066406 5.140625 -9.828125 C 4.734375 -9.597656 4.390625 -9.285156 4.109375 -8.890625 C 3.835938 -8.503906 3.632812 -8.050781 3.5 -7.53125 C 3.363281 -7.007812 3.296875 -6.46875 3.296875 -5.90625 Z M 3.296875 -5.671875 "/></g></g></g><g fill="#000000" fill-opacity="1"><g transform="translate(255.577207, 193.224718)"><g><path d="M 6.8125 -1.390625 C 7.164062 -1.390625 7.507812 -1.445312 7.84375 -1.5625 C 8.1875 -1.675781 8.488281 -1.832031 8.75 -2.03125 C 9.019531 -2.238281 9.234375 -2.476562 9.390625 -2.75 C 9.554688 -3.03125 9.640625 -3.332031 9.640625 -3.65625 L 11.515625 -3.65625 C 11.515625 -3.144531 11.382812 -2.65625 11.125 -2.1875 C 10.863281 -1.71875 10.515625 -1.304688 10.078125 -0.953125 C 9.640625 -0.597656 9.140625 -0.3125 8.578125 -0.09375 C 8.015625 0.113281 7.425781 0.21875 6.8125 0.21875 C 5.925781 0.21875 5.15625 0.0625 4.5 -0.25 C 3.84375 -0.570312 3.296875 -1 2.859375 -1.53125 C 2.421875 -2.0625 2.085938 -2.675781 1.859375 -3.375 C 1.640625 -4.070312 1.53125 -4.804688 1.53125 -5.578125 L 1.53125 -6.03125 C 1.53125 -6.789062 1.640625 -7.519531 1.859375 -8.21875 C 2.085938 -8.914062 2.421875 -9.53125 2.859375 -10.0625 C 3.296875 -10.601562 3.84375 -11.03125 4.5 -11.34375 C 5.15625 -11.65625 5.925781 -11.8125 6.8125 -11.8125 C 7.488281 -11.8125 8.113281 -11.703125 8.6875 -11.484375 C 9.269531 -11.265625 9.769531 -10.96875 10.1875 -10.59375 C 10.601562 -10.21875 10.925781 -9.769531 11.15625 -9.25 C 11.394531 -8.738281 11.515625 -8.191406 11.515625 -7.609375 L 9.640625 -7.609375 C 9.640625 -7.960938 9.566406 -8.289062 9.421875 -8.59375 C 9.273438 -8.90625 9.078125 -9.179688 8.828125 -9.421875 C 8.578125 -9.660156 8.273438 -9.847656 7.921875 -9.984375 C 7.578125 -10.117188 7.207031 -10.1875 6.8125 -10.1875 C 6.195312 -10.1875 5.675781 -10.0625 5.25 -9.8125 C 4.832031 -9.5625 4.492188 -9.238281 4.234375 -8.84375 C 3.984375 -8.445312 3.800781 -8.003906 3.6875 -7.515625 C 3.582031 -7.023438 3.53125 -6.53125 3.53125 -6.03125 L 3.53125 -5.578125 C 3.53125 -5.066406 3.582031 -4.5625 3.6875 -4.0625 C 3.800781 -3.570312 3.984375 -3.128906 4.234375 -2.734375 C 4.492188 -2.335938 4.832031 -2.015625 5.25 -1.765625 C 5.664062 -1.515625 6.1875 -1.390625 6.8125 -1.390625 Z M 6.8125 -1.390625 "/></g></g></g><g fill="#000000" fill-opacity="1"><g transform="translate(268.752617, 193.224718)"><g><path d="M 5.34375 -5.40625 L 3.875 -4.015625 L 3.875 0 L 1.890625 0 L 1.890625 -16.46875 L 3.875 -16.46875 L 3.875 -6.390625 L 5.171875 -7.78125 L 8.984375 -11.59375 L 11.390625 -11.59375 L 6.703125 -6.765625 L 12.109375 0 L 9.59375 0 Z M 5.34375 -5.40625 "/></g></g></g><g fill="#000000" fill-opacity="1"><g transform="translate(281.928028, 193.224718)"><g><path d="M 6.984375 0.21875 C 6.171875 0.21875 5.421875 0.078125 4.734375 -0.203125 C 4.054688 -0.484375 3.472656 -0.875 2.984375 -1.375 C 2.503906 -1.875 2.128906 -2.46875 1.859375 -3.15625 C 1.585938 -3.84375 1.453125 -4.585938 1.453125 -5.390625 L 1.453125 -5.84375 C 1.453125 -6.78125 1.597656 -7.617188 1.890625 -8.359375 C 2.191406 -9.097656 2.59375 -9.722656 3.09375 -10.234375 C 3.59375 -10.742188 4.15625 -11.132812 4.78125 -11.40625 C 5.414062 -11.675781 6.066406 -11.8125 6.734375 -11.8125 C 7.566406 -11.8125 8.296875 -11.664062 8.921875 -11.375 C 9.546875 -11.082031 10.066406 -10.679688 10.484375 -10.171875 C 10.898438 -9.660156 11.207031 -9.054688 11.40625 -8.359375 C 11.613281 -7.671875 11.71875 -6.925781 11.71875 -6.125 L 11.71875 -5.234375 L 3.4375 -5.234375 C 3.457031 -4.703125 3.554688 -4.203125 3.734375 -3.734375 C 3.921875 -3.273438 4.171875 -2.867188 4.484375 -2.515625 C 4.804688 -2.171875 5.1875 -1.898438 5.625 -1.703125 C 6.070312 -1.503906 6.5625 -1.40625 7.09375 -1.40625 C 7.800781 -1.40625 8.429688 -1.546875 8.984375 -1.828125 C 9.535156 -2.117188 9.992188 -2.5 10.359375 -2.96875 L 11.5625 -2.03125 C 11.375 -1.738281 11.132812 -1.457031 10.84375 -1.1875 C 10.550781 -0.914062 10.210938 -0.675781 9.828125 -0.46875 C 9.453125 -0.257812 9.023438 -0.09375 8.546875 0.03125 C 8.066406 0.15625 7.546875 0.21875 6.984375 0.21875 Z M 6.734375 -10.1875 C 6.328125 -10.1875 5.945312 -10.113281 5.59375 -9.96875 C 5.238281 -9.820312 4.914062 -9.601562 4.625 -9.3125 C 4.34375 -9.03125 4.101562 -8.6875 3.90625 -8.28125 C 3.707031 -7.875 3.570312 -7.398438 3.5 -6.859375 L 9.734375 -6.859375 L 9.734375 -7.015625 C 9.710938 -7.398438 9.640625 -7.78125 9.515625 -8.15625 C 9.390625 -8.53125 9.203125 -8.867188 8.953125 -9.171875 C 8.710938 -9.472656 8.410156 -9.71875 8.046875 -9.90625 C 7.679688 -10.09375 7.242188 -10.1875 6.734375 -10.1875 Z M 6.734375 -10.1875 "/></g></g></g><g fill="#000000" fill-opacity="1"><g transform="translate(295.103439, 193.224718)"><g><path d="M 6.5625 -14.40625 L 6.5625 -11.59375 L 10.984375 -11.59375 L 10.984375 -10.0625 L 6.5625 -10.0625 L 6.5625 -3.765625 C 6.5625 -3.316406 6.617188 -2.941406 6.734375 -2.640625 C 6.847656 -2.347656 7.003906 -2.113281 7.203125 -1.9375 C 7.398438 -1.769531 7.628906 -1.648438 7.890625 -1.578125 C 8.148438 -1.503906 8.425781 -1.46875 8.71875 -1.46875 C 8.9375 -1.46875 9.160156 -1.476562 9.390625 -1.5 C 9.617188 -1.53125 9.84375 -1.5625 10.0625 -1.59375 C 10.28125 -1.632812 10.484375 -1.671875 10.671875 -1.703125 C 10.859375 -1.742188 11.015625 -1.78125 11.140625 -1.8125 L 11.421875 -0.40625 C 11.253906 -0.300781 11.050781 -0.210938 10.8125 -0.140625 C 10.582031 -0.0664062 10.328125 -0.00390625 10.046875 0.046875 C 9.765625 0.0976562 9.46875 0.140625 9.15625 0.171875 C 8.84375 0.203125 8.535156 0.21875 8.234375 0.21875 C 7.710938 0.21875 7.226562 0.144531 6.78125 0 C 6.34375 -0.144531 5.957031 -0.375 5.625 -0.6875 C 5.300781 -1.007812 5.039062 -1.421875 4.84375 -1.921875 C 4.65625 -2.429688 4.5625 -3.046875 4.5625 -3.765625 L 4.5625 -10.0625 L 1.515625 -10.0625 L 1.515625 -11.59375 L 4.5625 -11.59375 L 4.5625 -14.40625 Z M 6.5625 -14.40625 "/></g></g></g><path stroke-linecap="butt" transform="matrix(0.599376, 0.444482, -0.445919, 0.601314, 245.170831, 203.007972)" fill="none" stroke-linejoin="miter" d="M -0.00150626 2.001674 L 114.38054 2.000142 " stroke="#000000" stroke-width="4" stroke-opacity="1" stroke-miterlimit="4"/><path stroke-linecap="round" transform="matrix(2.397506, 1.777928, -1.783676, 2.405257, 314.035053, 255.939885)" fill="none" stroke-linejoin="round" d="M -2.499568 -1.500511 L -0.500125 0.0000347609 L -2.499896 1.499347 " stroke="#000000" stroke-width="1" stroke-opacity="1" stroke-miterlimit="4"/></svg>