<svg xmlns="http://www.w3.org/2000/svg" xmlns:xlink="http://www.w3.org/1999/xlink" width="1280" zoomAndPan="magnify" viewBox="0 0 960 540.000001" height="720" preserveAspectRatio="xMidYMid meet" version="1.0"><defs><g/><clipPath id="8e8efe84ba"><path d="M 121.675781 323.402344 L 283.378906 323.402344 L 283.378906 485.101562 L 121.675781 485.101562 Z M 121.675781 323.402344 " clip-rule="nonzero"/></clipPath><clipPath id="a009d32c56"><path d="M 147.128906 323.402344 L 257.925781 323.402344 C 264.675781 323.402344 271.148438 326.082031 275.921875 330.855469 C 280.695312 335.628906 283.378906 342.101562 283.378906 348.855469 L 283.378906 459.648438 C 283.378906 466.398438 280.695312 472.875 275.921875 477.648438 C 271.148438 482.421875 264.675781 485.101562 257.925781 485.101562 L 147.128906 485.101562 C 140.378906 485.101562 133.90625 482.421875 129.132812 477.648438 C 124.359375 472.875 121.675781 466.398438 121.675781 459.648438 L 121.675781 348.855469 C 121.675781 342.101562 124.359375 335.628906 129.132812 330.855469 C 133.90625 326.082031 140.378906 323.402344 147.128906 323.402344 " clip-rule="nonzero"/></clipPath><clipPath id="1b2ed34b59"><path d="M 306.808594 323.402344 L 468.507812 323.402344 L 468.507812 485.101562 L 306.808594 485.101562 Z M 306.808594 323.402344 " clip-rule="nonzero"/></clipPath><clipPath id="5a6e5875e3"><path d="M 332.257812 323.402344 L 443.054688 323.402344 C 449.804688 323.402344 456.277344 326.082031 461.050781 330.855469 C 465.824219 335.628906 468.507812 342.101562 468.507812 348.855469 L 468.507812 459.648438 C 468.507812 466.398438 465.824219 472.875 461.050781 477.648438 C 456.277344 482.421875 449.804688 485.101562 443.054688 485.101562 L 332.257812 485.101562 C 325.507812 485.101562 319.035156 482.421875 314.261719 477.648438 C 309.488281 472.875 306.808594 466.398438 306.808594 459.648438 L 306.808594 348.855469 C 306.808594 342.101562 309.488281 335.628906 314.261719 330.855469 C 319.035156 326.082031 325.507812 323.402344 332.257812 323.402344 " clip-rule="nonzero"/></clipPath><clipPath id="af1b892ae8"><path d="M 491.714844 323.402344 L 653.414062 323.402344 L 653.414062 485.101562 L 491.714844 485.101562 Z M 491.714844 323.402344 " clip-rule="nonzero"/></clipPath><clipPath id="2b71c2e55c"><path d="M 517.167969 323.402344 L 627.960938 323.402344 C 634.710938 323.402344 641.1875 326.082031 645.960938 330.855469 C 650.734375 335.628906 653.414062 342.101562 653.414062 348.855469 L 653.414062 459.648438 C 653.414062 466.398438 650.734375 472.875 645.960938 477.648438 C 641.1875 482.421875 634.710938 485.101562 627.960938 485.101562 L 517.167969 485.101562 C 510.417969 485.101562 503.941406 482.421875 499.167969 477.648438 C 494.394531 472.875 491.714844 466.398438 491.714844 459.648438 L 491.714844 348.855469 C 491.714844 342.101562 494.394531 335.628906 499.167969 330.855469 C 503.941406 326.082031 510.417969 323.402344 517.167969 323.402344 " clip-rule="nonzero"/></clipPath><clipPath id="6df4001ea5"><path d="M 676.621094 323.402344 L 838.324219 323.402344 L 838.324219 485.101562 L 676.621094 485.101562 Z M 676.621094 323.402344 " clip-rule="nonzero"/></clipPath><clipPath id="17f342c63a"><path d="M 702.074219 323.402344 L 812.871094 323.402344 C 819.621094 323.402344 826.09375 326.082031 830.867188 330.855469 C 835.640625 335.628906 838.324219 342.101562 838.324219 348.855469 L 838.324219 459.648438 C 838.324219 466.398438 835.640625 472.875 830.867188 477.648438 C 826.09375 482.421875 819.621094 485.101562 812.871094 485.101562 L 702.074219 485.101562 C 695.324219 485.101562 688.851562 482.421875 684.078125 477.648438 C 679.304688 472.875 676.621094 466.398438 676.621094 459.648438 L 676.621094 348.855469 C 676.621094 342.101562 679.304688 335.628906 684.078125 330.855469 C 688.851562 326.082031 695.324219 323.402344 702.074219 323.402344 " clip-rule="nonzero"/></clipPath><clipPath id="30ceed8261"><path d="M 399.148438 67.722656 L 559 67.722656 L 559 230 L 399.148438 230 Z M 399.148438 67.722656 " clip-rule="nonzero"/></clipPath><clipPath id="e60ae7c2fc"><path d="M 424.601562 67.722656 L 532.953125 67.722656 C 539.703125 67.722656 546.179688 70.402344 550.953125 75.175781 C 555.726562 79.949219 558.40625 86.425781 558.40625 93.175781 L 558.40625 204.703125 C 558.40625 211.457031 555.726562 217.929688 550.953125 222.703125 C 546.179688 227.476562 539.703125 230.15625 532.953125 230.15625 L 424.601562 230.15625 C 417.851562 230.15625 411.378906 227.476562 406.605469 222.703125 C 401.832031 217.929688 399.148438 211.457031 399.148438 204.703125 L 399.148438 93.175781 C 399.148438 86.425781 401.832031 79.949219 406.605469 75.175781 C 411.378906 70.402344 417.851562 67.722656 424.601562 67.722656 " clip-rule="nonzero"/></clipPath><clipPath id="635970869d"><path d="M 399.152344 67.722656 L 558.605469 67.722656 L 558.605469 230.171875 L 399.152344 230.171875 Z M 399.152344 67.722656 " clip-rule="nonzero"/></clipPath><clipPath id="0538dc3337"><path d="M 424.636719 67.722656 L 533.117188 67.722656 C 539.875 67.722656 546.359375 70.402344 551.136719 75.175781 C 555.914062 79.949219 558.601562 86.425781 558.601562 93.175781 L 558.601562 204.714844 C 558.601562 211.46875 555.914062 217.941406 551.136719 222.714844 C 546.359375 227.488281 539.875 230.171875 533.117188 230.171875 L 424.636719 230.171875 C 417.878906 230.171875 411.398438 227.488281 406.617188 222.714844 C 401.839844 217.941406 399.152344 211.46875 399.152344 204.714844 L 399.152344 93.175781 C 399.152344 86.425781 401.839844 79.949219 406.617188 75.175781 C 411.398438 70.402344 417.878906 67.722656 424.636719 67.722656 " clip-rule="nonzero"/></clipPath><clipPath id="1c037e3cbf"><path d="M 138.824219 423.800781 L 266 423.800781 L 266 451 L 138.824219 451 Z M 138.824219 423.800781 " clip-rule="nonzero"/></clipPath><clipPath id="25d5ef6d95"><path d="M 152.308594 423.800781 L 252.746094 423.800781 C 260.191406 423.800781 266.230469 429.835938 266.230469 437.285156 C 266.230469 444.730469 260.191406 450.765625 252.746094 450.765625 L 152.308594 450.765625 C 144.863281 450.765625 138.824219 444.730469 138.824219 437.285156 C 138.824219 429.835938 144.863281 423.800781 152.308594 423.800781 " clip-rule="nonzero"/></clipPath><clipPath id="cf48e17b5d"><path d="M 138.238281 452.265625 L 265 452.265625 L 265 480 L 138.238281 480 Z M 138.238281 452.265625 " clip-rule="nonzero"/></clipPath><clipPath id="f93616f589"><path d="M 151.71875 452.265625 L 252.15625 452.265625 C 259.605469 452.265625 265.640625 458.300781 265.640625 465.75 C 265.640625 473.195312 259.605469 479.230469 252.15625 479.230469 L 151.71875 479.230469 C 144.273438 479.230469 138.238281 473.195312 138.238281 465.75 C 138.238281 458.300781 144.273438 452.265625 151.71875 452.265625 " clip-rule="nonzero"/></clipPath><clipPath id="46d2e798e9"><path d="M 40.238281 104.453125 L 217 104.453125 L 217 236 L 40.238281 236 Z M 40.238281 104.453125 " clip-rule="nonzero"/></clipPath><clipPath id="5bd69a5872"><path d="M 65.691406 104.453125 L 191.292969 104.453125 C 198.042969 104.453125 204.515625 107.136719 209.289062 111.910156 C 214.0625 116.683594 216.746094 123.15625 216.746094 129.90625 L 216.746094 210.597656 C 216.746094 217.347656 214.0625 223.820312 209.289062 228.59375 C 204.515625 233.367188 198.042969 236.050781 191.292969 236.050781 L 65.691406 236.050781 C 58.941406 236.050781 52.464844 233.367188 47.691406 228.59375 C 42.917969 223.820312 40.238281 217.347656 40.238281 210.597656 L 40.238281 129.90625 C 40.238281 123.15625 42.917969 116.683594 47.691406 111.910156 C 52.464844 107.136719 58.941406 104.453125 65.691406 104.453125 " clip-rule="nonzero"/></clipPath><clipPath id="152a9d463c"><path d="M 40.238281 104.457031 L 216.910156 104.457031 L 216.910156 236.210938 L 40.238281 236.210938 Z M 40.238281 104.457031 " clip-rule="nonzero"/></clipPath><clipPath id="20f21dd46b"><path d="M 65.714844 104.457031 L 191.433594 104.457031 C 198.191406 104.457031 204.671875 107.140625 209.449219 111.921875 C 214.226562 116.699219 216.910156 123.179688 216.910156 129.9375 L 216.910156 210.726562 C 216.910156 217.484375 214.226562 223.964844 209.449219 228.746094 C 204.671875 233.523438 198.191406 236.207031 191.433594 236.207031 L 65.714844 236.207031 C 58.957031 236.207031 52.476562 233.523438 47.699219 228.746094 C 42.921875 223.964844 40.238281 217.484375 40.238281 210.726562 L 40.238281 129.9375 C 40.238281 123.179688 42.921875 116.699219 47.699219 111.921875 C 52.476562 107.140625 58.957031 104.457031 65.714844 104.457031 " clip-rule="nonzero"/></clipPath></defs><path stroke-linecap="butt" transform="matrix(0.688867, -0.291657, 0.291871, 0.689372, 191.94453, 325.265047)" fill="none" stroke-linejoin="miter" d="M -0.00152948 2.000428 L 341.252961 1.997776 " stroke="#000000" stroke-width="4" stroke-opacity="1" stroke-miterlimit="4"/><g clip-path="url(#8e8efe84ba)"><g clip-path="url(#a009d32c56)"><path fill="#323233" d="M 121.675781 323.402344 L 283.378906 323.402344 L 283.378906 485.101562 L 121.675781 485.101562 Z M 121.675781 323.402344 " fill-opacity="1" fill-rule="nonzero"/><path stroke-linecap="butt" transform="matrix(0.748614, 0, 0, 0.748614, 121.677365, 323.401116)" fill="none" stroke-linejoin="miter" d="M 33.998233 0.00163984 L 182.000978 0.00163984 C 191.017645 0.00163984 199.663835 3.581173 206.040205 9.957543 C 212.416575 16.333913 216.001326 24.980103 216.001326 34.001988 L 216.001326 181.999516 C 216.001326 191.016183 212.416575 199.667591 206.040205 206.043961 C 199.663835 212.420331 191.017645 215.999864 182.000978 215.999864 L 33.998233 215.999864 C 24.981566 215.999864 16.335375 212.420331 9.959005 206.043961 C 3.582636 199.667591 -0.00211575 191.016183 -0.00211575 181.999516 L -0.00211575 34.001988 C -0.00211575 24.980103 3.582636 16.333913 9.959005 9.957543 C 16.335375 3.581173 24.981566 0.00163984 33.998233 0.00163984 " stroke="#bd99ff" stroke-width="8" stroke-opacity="1" stroke-miterlimit="4"/></g></g><g fill="#ffffff" fill-opacity="1"><g transform="translate(164.816227, 412.48614)"><g><path d="M 11.109375 0 L 9.1875 0 L 3.40625 -11.125 L 3.375 0 L 1.46875 0 L 1.46875 -14.890625 L 3.390625 -14.890625 L 9.171875 -3.78125 L 9.203125 -14.890625 L 11.109375 -14.890625 Z M 11.109375 0 "/></g></g></g><g fill="#ffffff" fill-opacity="1"><g transform="translate(177.387969, 412.48614)"><g><path d="M 1.25 -5.640625 C 1.25 -6.429688 1.363281 -7.171875 1.59375 -7.859375 C 1.820312 -8.546875 2.15625 -9.140625 2.59375 -9.640625 C 3.03125 -10.148438 3.554688 -10.550781 4.171875 -10.84375 C 4.796875 -11.132812 5.492188 -11.28125 6.265625 -11.28125 C 7.054688 -11.28125 7.765625 -11.132812 8.390625 -10.84375 C 9.015625 -10.550781 9.539062 -10.148438 9.96875 -9.640625 C 10.40625 -9.140625 10.738281 -8.546875 10.96875 -7.859375 C 11.195312 -7.171875 11.3125 -6.429688 11.3125 -5.640625 L 11.3125 -5.40625 C 11.3125 -4.613281 11.195312 -3.875 10.96875 -3.1875 C 10.738281 -2.507812 10.40625 -1.914062 9.96875 -1.40625 C 9.539062 -0.90625 9.015625 -0.507812 8.390625 -0.21875 C 7.765625 0.0625 7.066406 0.203125 6.296875 0.203125 C 5.503906 0.203125 4.796875 0.0625 4.171875 -0.21875 C 3.554688 -0.507812 3.03125 -0.90625 2.59375 -1.40625 C 2.15625 -1.914062 1.820312 -2.507812 1.59375 -3.1875 C 1.363281 -3.875 1.25 -4.613281 1.25 -5.40625 Z M 3.140625 -5.40625 C 3.140625 -4.863281 3.203125 -4.34375 3.328125 -3.84375 C 3.460938 -3.351562 3.660156 -2.921875 3.921875 -2.546875 C 4.179688 -2.171875 4.507812 -1.875 4.90625 -1.65625 C 5.300781 -1.4375 5.765625 -1.328125 6.296875 -1.328125 C 6.804688 -1.328125 7.257812 -1.4375 7.65625 -1.65625 C 8.050781 -1.875 8.378906 -2.171875 8.640625 -2.546875 C 8.898438 -2.921875 9.09375 -3.351562 9.21875 -3.84375 C 9.351562 -4.34375 9.421875 -4.863281 9.421875 -5.40625 L 9.421875 -5.640625 C 9.421875 -6.179688 9.351562 -6.695312 9.21875 -7.1875 C 9.09375 -7.675781 8.894531 -8.109375 8.625 -8.484375 C 8.363281 -8.859375 8.035156 -9.15625 7.640625 -9.375 C 7.253906 -9.601562 6.796875 -9.71875 6.265625 -9.71875 C 5.742188 -9.71875 5.285156 -9.601562 4.890625 -9.375 C 4.503906 -9.15625 4.179688 -8.859375 3.921875 -8.484375 C 3.660156 -8.109375 3.460938 -7.675781 3.328125 -7.1875 C 3.203125 -6.695312 3.140625 -6.179688 3.140625 -5.640625 Z M 3.140625 -5.40625 "/></g></g></g><g fill="#ffffff" fill-opacity="1"><g transform="translate(189.959711, 412.48614)"><g><path d="M 1.421875 -5.625 C 1.421875 -6.445312 1.523438 -7.203125 1.734375 -7.890625 C 1.941406 -8.585938 2.238281 -9.1875 2.625 -9.6875 C 3.007812 -10.1875 3.472656 -10.578125 4.015625 -10.859375 C 4.566406 -11.140625 5.179688 -11.28125 5.859375 -11.28125 C 6.515625 -11.28125 7.085938 -11.164062 7.578125 -10.9375 C 8.078125 -10.71875 8.507812 -10.394531 8.875 -9.96875 L 8.875 -15.71875 L 10.765625 -15.71875 L 10.765625 0 L 9.03125 0 L 8.9375 -1.171875 C 8.570312 -0.710938 8.132812 -0.367188 7.625 -0.140625 C 7.113281 0.0859375 6.515625 0.203125 5.828125 0.203125 C 5.160156 0.203125 4.554688 0.0625 4.015625 -0.21875 C 3.472656 -0.507812 3.007812 -0.90625 2.625 -1.40625 C 2.25 -1.914062 1.953125 -2.507812 1.734375 -3.1875 C 1.523438 -3.875 1.421875 -4.613281 1.421875 -5.40625 Z M 3.3125 -5.40625 C 3.3125 -4.875 3.367188 -4.363281 3.484375 -3.875 C 3.597656 -3.394531 3.773438 -2.96875 4.015625 -2.59375 C 4.265625 -2.226562 4.578125 -1.9375 4.953125 -1.71875 C 5.328125 -1.507812 5.773438 -1.40625 6.296875 -1.40625 C 6.617188 -1.40625 6.910156 -1.441406 7.171875 -1.515625 C 7.429688 -1.585938 7.664062 -1.691406 7.875 -1.828125 C 8.082031 -1.972656 8.269531 -2.140625 8.4375 -2.328125 C 8.601562 -2.523438 8.75 -2.742188 8.875 -2.984375 L 8.875 -8.125 C 8.625 -8.570312 8.289062 -8.941406 7.875 -9.234375 C 7.457031 -9.523438 6.941406 -9.671875 6.328125 -9.671875 C 5.796875 -9.671875 5.335938 -9.5625 4.953125 -9.34375 C 4.578125 -9.125 4.265625 -8.828125 4.015625 -8.453125 C 3.773438 -8.078125 3.597656 -7.644531 3.484375 -7.15625 C 3.367188 -6.675781 3.3125 -6.164062 3.3125 -5.625 Z M 3.3125 -5.40625 "/></g></g></g><g fill="#ffffff" fill-opacity="1"><g transform="translate(202.531453, 412.48614)"><g><path d="M 6.671875 0.203125 C 5.890625 0.203125 5.171875 0.0703125 4.515625 -0.1875 C 3.867188 -0.457031 3.3125 -0.832031 2.84375 -1.3125 C 2.382812 -1.789062 2.023438 -2.351562 1.765625 -3 C 1.503906 -3.65625 1.375 -4.367188 1.375 -5.140625 L 1.375 -5.578125 C 1.375 -6.472656 1.515625 -7.269531 1.796875 -7.96875 C 2.085938 -8.675781 2.46875 -9.273438 2.9375 -9.765625 C 3.414062 -10.253906 3.957031 -10.628906 4.5625 -10.890625 C 5.164062 -11.148438 5.785156 -11.28125 6.421875 -11.28125 C 7.222656 -11.28125 7.921875 -11.140625 8.515625 -10.859375 C 9.109375 -10.585938 9.601562 -10.207031 10 -9.71875 C 10.394531 -9.226562 10.691406 -8.648438 10.890625 -7.984375 C 11.085938 -7.328125 11.1875 -6.613281 11.1875 -5.84375 L 11.1875 -5 L 3.28125 -5 C 3.289062 -4.488281 3.382812 -4.007812 3.5625 -3.5625 C 3.738281 -3.125 3.976562 -2.738281 4.28125 -2.40625 C 4.582031 -2.070312 4.941406 -1.8125 5.359375 -1.625 C 5.785156 -1.4375 6.253906 -1.34375 6.765625 -1.34375 C 7.441406 -1.34375 8.039062 -1.476562 8.5625 -1.75 C 9.09375 -2.019531 9.535156 -2.378906 9.890625 -2.828125 L 11.046875 -1.9375 C 10.859375 -1.65625 10.625 -1.382812 10.34375 -1.125 C 10.070312 -0.875 9.753906 -0.648438 9.390625 -0.453125 C 9.023438 -0.253906 8.613281 -0.0976562 8.15625 0.015625 C 7.707031 0.140625 7.210938 0.203125 6.671875 0.203125 Z M 6.421875 -9.71875 C 6.046875 -9.71875 5.6875 -9.644531 5.34375 -9.5 C 5 -9.363281 4.691406 -9.160156 4.421875 -8.890625 C 4.148438 -8.617188 3.921875 -8.285156 3.734375 -7.890625 C 3.546875 -7.503906 3.410156 -7.054688 3.328125 -6.546875 L 9.296875 -6.546875 L 9.296875 -6.6875 C 9.273438 -7.0625 9.203125 -7.425781 9.078125 -7.78125 C 8.960938 -8.144531 8.785156 -8.46875 8.546875 -8.75 C 8.316406 -9.039062 8.023438 -9.273438 7.671875 -9.453125 C 7.328125 -9.628906 6.910156 -9.71875 6.421875 -9.71875 Z M 6.421875 -9.71875 "/></g></g></g><g fill="#ffffff" fill-opacity="1"><g transform="translate(215.103196, 412.48614)"><g><path d="M 10.96875 1.546875 L 1.578125 1.546875 L 1.578125 0 L 10.96875 0 Z M 10.96875 1.546875 "/></g></g></g><g fill="#ffffff" fill-opacity="1"><g transform="translate(227.674938, 412.48614)"><g><path d="M 7.921875 0 L 6.03125 0 L 6.03125 -12.484375 L 2.125 -11 L 2.125 -12.734375 L 7.765625 -14.890625 L 7.921875 -14.890625 Z M 7.921875 0 "/></g></g></g><path stroke-linecap="butt" transform="matrix(0.473954, -0.581004, 0.580086, 0.473205, 382.641254, 327.0764)" fill="none" stroke-linejoin="miter" d="M -0.00119206 1.999864 L 177.720183 1.997692 " stroke="#000000" stroke-width="4" stroke-opacity="1" stroke-miterlimit="4"/><g clip-path="url(#1b2ed34b59)"><g clip-path="url(#5a6e5875e3)"><path fill="#323233" d="M 306.808594 323.402344 L 468.507812 323.402344 L 468.507812 485.101562 L 306.808594 485.101562 Z M 306.808594 323.402344 " fill-opacity="1" fill-rule="nonzero"/><path stroke-linecap="butt" transform="matrix(0.748614, 0, 0, 0.748614, 306.806897, 323.401116)" fill="none" stroke-linejoin="miter" d="M 33.997397 0.00163984 L 182.000142 0.00163984 C 191.016809 0.00163984 199.662999 3.581173 206.039369 9.957543 C 212.415739 16.333913 216.00049 24.980103 216.00049 34.001988 L 216.00049 181.999516 C 216.00049 191.016183 212.415739 199.667591 206.039369 206.043961 C 199.662999 212.420331 191.016809 215.999864 182.000142 215.999864 L 33.997397 215.999864 C 24.98073 215.999864 16.334539 212.420331 9.958169 206.043961 C 3.581799 199.667591 0.00226615 191.016183 0.00226615 181.999516 L 0.00226615 34.001988 C 0.00226615 24.980103 3.581799 16.333913 9.958169 9.957543 C 16.334539 3.581173 24.98073 0.00163984 33.997397 0.00163984 " stroke="#bd99ff" stroke-width="8" stroke-opacity="1" stroke-miterlimit="4"/></g></g><g fill="#ffffff" fill-opacity="1"><g transform="translate(349.945759, 412.48614)"><g><path d="M 11.109375 0 L 9.1875 0 L 3.40625 -11.125 L 3.375 0 L 1.46875 0 L 1.46875 -14.890625 L 3.390625 -14.890625 L 9.171875 -3.78125 L 9.203125 -14.890625 L 11.109375 -14.890625 Z M 11.109375 0 "/></g></g></g><g fill="#ffffff" fill-opacity="1"><g transform="translate(362.517501, 412.48614)"><g><path d="M 1.25 -5.640625 C 1.25 -6.429688 1.363281 -7.171875 1.59375 -7.859375 C 1.820312 -8.546875 2.15625 -9.140625 2.59375 -9.640625 C 3.03125 -10.148438 3.554688 -10.550781 4.171875 -10.84375 C 4.796875 -11.132812 5.492188 -11.28125 6.265625 -11.28125 C 7.054688 -11.28125 7.765625 -11.132812 8.390625 -10.84375 C 9.015625 -10.550781 9.539062 -10.148438 9.96875 -9.640625 C 10.40625 -9.140625 10.738281 -8.546875 10.96875 -7.859375 C 11.195312 -7.171875 11.3125 -6.429688 11.3125 -5.640625 L 11.3125 -5.40625 C 11.3125 -4.613281 11.195312 -3.875 10.96875 -3.1875 C 10.738281 -2.507812 10.40625 -1.914062 9.96875 -1.40625 C 9.539062 -0.90625 9.015625 -0.507812 8.390625 -0.21875 C 7.765625 0.0625 7.066406 0.203125 6.296875 0.203125 C 5.503906 0.203125 4.796875 0.0625 4.171875 -0.21875 C 3.554688 -0.507812 3.03125 -0.90625 2.59375 -1.40625 C 2.15625 -1.914062 1.820312 -2.507812 1.59375 -3.1875 C 1.363281 -3.875 1.25 -4.613281 1.25 -5.40625 Z M 3.140625 -5.40625 C 3.140625 -4.863281 3.203125 -4.34375 3.328125 -3.84375 C 3.460938 -3.351562 3.660156 -2.921875 3.921875 -2.546875 C 4.179688 -2.171875 4.507812 -1.875 4.90625 -1.65625 C 5.300781 -1.4375 5.765625 -1.328125 6.296875 -1.328125 C 6.804688 -1.328125 7.257812 -1.4375 7.65625 -1.65625 C 8.050781 -1.875 8.378906 -2.171875 8.640625 -2.546875 C 8.898438 -2.921875 9.09375 -3.351562 9.21875 -3.84375 C 9.351562 -4.34375 9.421875 -4.863281 9.421875 -5.40625 L 9.421875 -5.640625 C 9.421875 -6.179688 9.351562 -6.695312 9.21875 -7.1875 C 9.09375 -7.675781 8.894531 -8.109375 8.625 -8.484375 C 8.363281 -8.859375 8.035156 -9.15625 7.640625 -9.375 C 7.253906 -9.601562 6.796875 -9.71875 6.265625 -9.71875 C 5.742188 -9.71875 5.285156 -9.601562 4.890625 -9.375 C 4.503906 -9.15625 4.179688 -8.859375 3.921875 -8.484375 C 3.660156 -8.109375 3.460938 -7.675781 3.328125 -7.1875 C 3.203125 -6.695312 3.140625 -6.179688 3.140625 -5.640625 Z M 3.140625 -5.40625 "/></g></g></g><g fill="#ffffff" fill-opacity="1"><g transform="translate(375.089243, 412.48614)"><g><path d="M 1.421875 -5.625 C 1.421875 -6.445312 1.523438 -7.203125 1.734375 -7.890625 C 1.941406 -8.585938 2.238281 -9.1875 2.625 -9.6875 C 3.007812 -10.1875 3.472656 -10.578125 4.015625 -10.859375 C 4.566406 -11.140625 5.179688 -11.28125 5.859375 -11.28125 C 6.515625 -11.28125 7.085938 -11.164062 7.578125 -10.9375 C 8.078125 -10.71875 8.507812 -10.394531 8.875 -9.96875 L 8.875 -15.71875 L 10.765625 -15.71875 L 10.765625 0 L 9.03125 0 L 8.9375 -1.171875 C 8.570312 -0.710938 8.132812 -0.367188 7.625 -0.140625 C 7.113281 0.0859375 6.515625 0.203125 5.828125 0.203125 C 5.160156 0.203125 4.554688 0.0625 4.015625 -0.21875 C 3.472656 -0.507812 3.007812 -0.90625 2.625 -1.40625 C 2.25 -1.914062 1.953125 -2.507812 1.734375 -3.1875 C 1.523438 -3.875 1.421875 -4.613281 1.421875 -5.40625 Z M 3.3125 -5.40625 C 3.3125 -4.875 3.367188 -4.363281 3.484375 -3.875 C 3.597656 -3.394531 3.773438 -2.96875 4.015625 -2.59375 C 4.265625 -2.226562 4.578125 -1.9375 4.953125 -1.71875 C 5.328125 -1.507812 5.773438 -1.40625 6.296875 -1.40625 C 6.617188 -1.40625 6.910156 -1.441406 7.171875 -1.515625 C 7.429688 -1.585938 7.664062 -1.691406 7.875 -1.828125 C 8.082031 -1.972656 8.269531 -2.140625 8.4375 -2.328125 C 8.601562 -2.523438 8.75 -2.742188 8.875 -2.984375 L 8.875 -8.125 C 8.625 -8.570312 8.289062 -8.941406 7.875 -9.234375 C 7.457031 -9.523438 6.941406 -9.671875 6.328125 -9.671875 C 5.796875 -9.671875 5.335938 -9.5625 4.953125 -9.34375 C 4.578125 -9.125 4.265625 -8.828125 4.015625 -8.453125 C 3.773438 -8.078125 3.597656 -7.644531 3.484375 -7.15625 C 3.367188 -6.675781 3.3125 -6.164062 3.3125 -5.625 Z M 3.3125 -5.40625 "/></g></g></g><g fill="#ffffff" fill-opacity="1"><g transform="translate(387.660986, 412.48614)"><g><path d="M 6.671875 0.203125 C 5.890625 0.203125 5.171875 0.0703125 4.515625 -0.1875 C 3.867188 -0.457031 3.3125 -0.832031 2.84375 -1.3125 C 2.382812 -1.789062 2.023438 -2.351562 1.765625 -3 C 1.503906 -3.65625 1.375 -4.367188 1.375 -5.140625 L 1.375 -5.578125 C 1.375 -6.472656 1.515625 -7.269531 1.796875 -7.96875 C 2.085938 -8.675781 2.46875 -9.273438 2.9375 -9.765625 C 3.414062 -10.253906 3.957031 -10.628906 4.5625 -10.890625 C 5.164062 -11.148438 5.785156 -11.28125 6.421875 -11.28125 C 7.222656 -11.28125 7.921875 -11.140625 8.515625 -10.859375 C 9.109375 -10.585938 9.601562 -10.207031 10 -9.71875 C 10.394531 -9.226562 10.691406 -8.648438 10.890625 -7.984375 C 11.085938 -7.328125 11.1875 -6.613281 11.1875 -5.84375 L 11.1875 -5 L 3.28125 -5 C 3.289062 -4.488281 3.382812 -4.007812 3.5625 -3.5625 C 3.738281 -3.125 3.976562 -2.738281 4.28125 -2.40625 C 4.582031 -2.070312 4.941406 -1.8125 5.359375 -1.625 C 5.785156 -1.4375 6.253906 -1.34375 6.765625 -1.34375 C 7.441406 -1.34375 8.039062 -1.476562 8.5625 -1.75 C 9.09375 -2.019531 9.535156 -2.378906 9.890625 -2.828125 L 11.046875 -1.9375 C 10.859375 -1.65625 10.625 -1.382812 10.34375 -1.125 C 10.070312 -0.875 9.753906 -0.648438 9.390625 -0.453125 C 9.023438 -0.253906 8.613281 -0.0976562 8.15625 0.015625 C 7.707031 0.140625 7.210938 0.203125 6.671875 0.203125 Z M 6.421875 -9.71875 C 6.046875 -9.71875 5.6875 -9.644531 5.34375 -9.5 C 5 -9.363281 4.691406 -9.160156 4.421875 -8.890625 C 4.148438 -8.617188 3.921875 -8.285156 3.734375 -7.890625 C 3.546875 -7.503906 3.410156 -7.054688 3.328125 -6.546875 L 9.296875 -6.546875 L 9.296875 -6.6875 C 9.273438 -7.0625 9.203125 -7.425781 9.078125 -7.78125 C 8.960938 -8.144531 8.785156 -8.46875 8.546875 -8.75 C 8.316406 -9.039062 8.023438 -9.273438 7.671875 -9.453125 C 7.328125 -9.628906 6.910156 -9.71875 6.421875 -9.71875 Z M 6.421875 -9.71875 "/></g></g></g><g fill="#ffffff" fill-opacity="1"><g transform="translate(400.232728, 412.48614)"><g><path d="M 10.96875 1.546875 L 1.578125 1.546875 L 1.578125 0 L 10.96875 0 Z M 10.96875 1.546875 "/></g></g></g><g fill="#ffffff" fill-opacity="1"><g transform="translate(412.80447, 412.48614)"><g><path d="M 10.921875 0 L 1.15625 0 L 1.15625 -1.359375 L 6.03125 -6.78125 C 6.46875 -7.269531 6.832031 -7.703125 7.125 -8.078125 C 7.425781 -8.453125 7.664062 -8.796875 7.84375 -9.109375 C 8.019531 -9.429688 8.144531 -9.734375 8.21875 -10.015625 C 8.289062 -10.296875 8.328125 -10.585938 8.328125 -10.890625 C 8.328125 -11.253906 8.265625 -11.597656 8.140625 -11.921875 C 8.023438 -12.242188 7.851562 -12.523438 7.625 -12.765625 C 7.394531 -13.003906 7.117188 -13.191406 6.796875 -13.328125 C 6.472656 -13.472656 6.109375 -13.546875 5.703125 -13.546875 C 5.203125 -13.546875 4.769531 -13.472656 4.40625 -13.328125 C 4.039062 -13.179688 3.734375 -12.976562 3.484375 -12.71875 C 3.242188 -12.457031 3.0625 -12.140625 2.9375 -11.765625 C 2.820312 -11.390625 2.765625 -10.96875 2.765625 -10.5 L 0.875 -10.5 C 0.875 -11.132812 0.984375 -11.726562 1.203125 -12.28125 C 1.421875 -12.832031 1.734375 -13.316406 2.140625 -13.734375 C 2.554688 -14.148438 3.0625 -14.476562 3.65625 -14.71875 C 4.25 -14.96875 4.929688 -15.09375 5.703125 -15.09375 C 6.398438 -15.09375 7.03125 -14.988281 7.59375 -14.78125 C 8.15625 -14.582031 8.628906 -14.296875 9.015625 -13.921875 C 9.410156 -13.554688 9.710938 -13.117188 9.921875 -12.609375 C 10.128906 -12.109375 10.234375 -11.5625 10.234375 -10.96875 C 10.234375 -10.519531 10.15625 -10.078125 10 -9.640625 C 9.851562 -9.210938 9.648438 -8.785156 9.390625 -8.359375 C 9.140625 -7.941406 8.84375 -7.523438 8.5 -7.109375 C 8.164062 -6.703125 7.8125 -6.296875 7.4375 -5.890625 L 3.4375 -1.546875 L 10.921875 -1.546875 Z M 10.921875 0 "/></g></g></g><path stroke-linecap="butt" transform="matrix(-0.471459, -0.580923, 0.581274, -0.471744, 576.9368, 329.911482)" fill="none" stroke-linejoin="miter" d="M 0.000639714 1.997608 L 181.115224 2.000107 " stroke="#000000" stroke-width="4" stroke-opacity="1" stroke-miterlimit="4"/><g clip-path="url(#af1b892ae8)"><g clip-path="url(#2b71c2e55c)"><path fill="#323233" d="M 491.714844 323.402344 L 653.414062 323.402344 L 653.414062 485.101562 L 491.714844 485.101562 Z M 491.714844 323.402344 " fill-opacity="1" fill-rule="nonzero"/><path stroke-linecap="butt" transform="matrix(0.748614, 0, 0, 0.748614, 491.714502, 323.401116)" fill="none" stroke-linejoin="miter" d="M 34.000805 0.00163984 L 181.998332 0.00163984 C 191.014999 0.00163984 199.666408 3.581173 206.042778 9.957543 C 212.419147 16.333913 215.998681 24.980103 215.998681 34.001988 L 215.998681 181.999516 C 215.998681 191.016183 212.419147 199.667591 206.042778 206.043961 C 199.666408 212.420331 191.014999 215.999864 181.998332 215.999864 L 34.000805 215.999864 C 24.984138 215.999864 16.33273 212.420331 9.95636 206.043961 C 3.57999 199.667591 0.000456497 191.016183 0.000456497 181.999516 L 0.000456497 34.001988 C 0.000456497 24.980103 3.57999 16.333913 9.95636 9.957543 C 16.33273 3.581173 24.984138 0.00163984 34.000805 0.00163984 " stroke="#bd99ff" stroke-width="8" stroke-opacity="1" stroke-miterlimit="4"/></g></g><g fill="#ffffff" fill-opacity="1"><g transform="translate(534.853364, 412.48614)"><g><path d="M 11.109375 0 L 9.1875 0 L 3.40625 -11.125 L 3.375 0 L 1.46875 0 L 1.46875 -14.890625 L 3.390625 -14.890625 L 9.171875 -3.78125 L 9.203125 -14.890625 L 11.109375 -14.890625 Z M 11.109375 0 "/></g></g></g><g fill="#ffffff" fill-opacity="1"><g transform="translate(547.425106, 412.48614)"><g><path d="M 1.25 -5.640625 C 1.25 -6.429688 1.363281 -7.171875 1.59375 -7.859375 C 1.820312 -8.546875 2.15625 -9.140625 2.59375 -9.640625 C 3.03125 -10.148438 3.554688 -10.550781 4.171875 -10.84375 C 4.796875 -11.132812 5.492188 -11.28125 6.265625 -11.28125 C 7.054688 -11.28125 7.765625 -11.132812 8.390625 -10.84375 C 9.015625 -10.550781 9.539062 -10.148438 9.96875 -9.640625 C 10.40625 -9.140625 10.738281 -8.546875 10.96875 -7.859375 C 11.195312 -7.171875 11.3125 -6.429688 11.3125 -5.640625 L 11.3125 -5.40625 C 11.3125 -4.613281 11.195312 -3.875 10.96875 -3.1875 C 10.738281 -2.507812 10.40625 -1.914062 9.96875 -1.40625 C 9.539062 -0.90625 9.015625 -0.507812 8.390625 -0.21875 C 7.765625 0.0625 7.066406 0.203125 6.296875 0.203125 C 5.503906 0.203125 4.796875 0.0625 4.171875 -0.21875 C 3.554688 -0.507812 3.03125 -0.90625 2.59375 -1.40625 C 2.15625 -1.914062 1.820312 -2.507812 1.59375 -3.1875 C 1.363281 -3.875 1.25 -4.613281 1.25 -5.40625 Z M 3.140625 -5.40625 C 3.140625 -4.863281 3.203125 -4.34375 3.328125 -3.84375 C 3.460938 -3.351562 3.660156 -2.921875 3.921875 -2.546875 C 4.179688 -2.171875 4.507812 -1.875 4.90625 -1.65625 C 5.300781 -1.4375 5.765625 -1.328125 6.296875 -1.328125 C 6.804688 -1.328125 7.257812 -1.4375 7.65625 -1.65625 C 8.050781 -1.875 8.378906 -2.171875 8.640625 -2.546875 C 8.898438 -2.921875 9.09375 -3.351562 9.21875 -3.84375 C 9.351562 -4.34375 9.421875 -4.863281 9.421875 -5.40625 L 9.421875 -5.640625 C 9.421875 -6.179688 9.351562 -6.695312 9.21875 -7.1875 C 9.09375 -7.675781 8.894531 -8.109375 8.625 -8.484375 C 8.363281 -8.859375 8.035156 -9.15625 7.640625 -9.375 C 7.253906 -9.601562 6.796875 -9.71875 6.265625 -9.71875 C 5.742188 -9.71875 5.285156 -9.601562 4.890625 -9.375 C 4.503906 -9.15625 4.179688 -8.859375 3.921875 -8.484375 C 3.660156 -8.109375 3.460938 -7.675781 3.328125 -7.1875 C 3.203125 -6.695312 3.140625 -6.179688 3.140625 -5.640625 Z M 3.140625 -5.40625 "/></g></g></g><g fill="#ffffff" fill-opacity="1"><g transform="translate(559.996848, 412.48614)"><g><path d="M 1.421875 -5.625 C 1.421875 -6.445312 1.523438 -7.203125 1.734375 -7.890625 C 1.941406 -8.585938 2.238281 -9.1875 2.625 -9.6875 C 3.007812 -10.1875 3.472656 -10.578125 4.015625 -10.859375 C 4.566406 -11.140625 5.179688 -11.28125 5.859375 -11.28125 C 6.515625 -11.28125 7.085938 -11.164062 7.578125 -10.9375 C 8.078125 -10.71875 8.507812 -10.394531 8.875 -9.96875 L 8.875 -15.71875 L 10.765625 -15.71875 L 10.765625 0 L 9.03125 0 L 8.9375 -1.171875 C 8.570312 -0.710938 8.132812 -0.367188 7.625 -0.140625 C 7.113281 0.0859375 6.515625 0.203125 5.828125 0.203125 C 5.160156 0.203125 4.554688 0.0625 4.015625 -0.21875 C 3.472656 -0.507812 3.007812 -0.90625 2.625 -1.40625 C 2.25 -1.914062 1.953125 -2.507812 1.734375 -3.1875 C 1.523438 -3.875 1.421875 -4.613281 1.421875 -5.40625 Z M 3.3125 -5.40625 C 3.3125 -4.875 3.367188 -4.363281 3.484375 -3.875 C 3.597656 -3.394531 3.773438 -2.96875 4.015625 -2.59375 C 4.265625 -2.226562 4.578125 -1.9375 4.953125 -1.71875 C 5.328125 -1.507812 5.773438 -1.40625 6.296875 -1.40625 C 6.617188 -1.40625 6.910156 -1.441406 7.171875 -1.515625 C 7.429688 -1.585938 7.664062 -1.691406 7.875 -1.828125 C 8.082031 -1.972656 8.269531 -2.140625 8.4375 -2.328125 C 8.601562 -2.523438 8.75 -2.742188 8.875 -2.984375 L 8.875 -8.125 C 8.625 -8.570312 8.289062 -8.941406 7.875 -9.234375 C 7.457031 -9.523438 6.941406 -9.671875 6.328125 -9.671875 C 5.796875 -9.671875 5.335938 -9.5625 4.953125 -9.34375 C 4.578125 -9.125 4.265625 -8.828125 4.015625 -8.453125 C 3.773438 -8.078125 3.597656 -7.644531 3.484375 -7.15625 C 3.367188 -6.675781 3.3125 -6.164062 3.3125 -5.625 Z M 3.3125 -5.40625 "/></g></g></g><g fill="#ffffff" fill-opacity="1"><g transform="translate(572.56859, 412.48614)"><g><path d="M 6.671875 0.203125 C 5.890625 0.203125 5.171875 0.0703125 4.515625 -0.1875 C 3.867188 -0.457031 3.3125 -0.832031 2.84375 -1.3125 C 2.382812 -1.789062 2.023438 -2.351562 1.765625 -3 C 1.503906 -3.65625 1.375 -4.367188 1.375 -5.140625 L 1.375 -5.578125 C 1.375 -6.472656 1.515625 -7.269531 1.796875 -7.96875 C 2.085938 -8.675781 2.46875 -9.273438 2.9375 -9.765625 C 3.414062 -10.253906 3.957031 -10.628906 4.5625 -10.890625 C 5.164062 -11.148438 5.785156 -11.28125 6.421875 -11.28125 C 7.222656 -11.28125 7.921875 -11.140625 8.515625 -10.859375 C 9.109375 -10.585938 9.601562 -10.207031 10 -9.71875 C 10.394531 -9.226562 10.691406 -8.648438 10.890625 -7.984375 C 11.085938 -7.328125 11.1875 -6.613281 11.1875 -5.84375 L 11.1875 -5 L 3.28125 -5 C 3.289062 -4.488281 3.382812 -4.007812 3.5625 -3.5625 C 3.738281 -3.125 3.976562 -2.738281 4.28125 -2.40625 C 4.582031 -2.070312 4.941406 -1.8125 5.359375 -1.625 C 5.785156 -1.4375 6.253906 -1.34375 6.765625 -1.34375 C 7.441406 -1.34375 8.039062 -1.476562 8.5625 -1.75 C 9.09375 -2.019531 9.535156 -2.378906 9.890625 -2.828125 L 11.046875 -1.9375 C 10.859375 -1.65625 10.625 -1.382812 10.34375 -1.125 C 10.070312 -0.875 9.753906 -0.648438 9.390625 -0.453125 C 9.023438 -0.253906 8.613281 -0.0976562 8.15625 0.015625 C 7.707031 0.140625 7.210938 0.203125 6.671875 0.203125 Z M 6.421875 -9.71875 C 6.046875 -9.71875 5.6875 -9.644531 5.34375 -9.5 C 5 -9.363281 4.691406 -9.160156 4.421875 -8.890625 C 4.148438 -8.617188 3.921875 -8.285156 3.734375 -7.890625 C 3.546875 -7.503906 3.410156 -7.054688 3.328125 -6.546875 L 9.296875 -6.546875 L 9.296875 -6.6875 C 9.273438 -7.0625 9.203125 -7.425781 9.078125 -7.78125 C 8.960938 -8.144531 8.785156 -8.46875 8.546875 -8.75 C 8.316406 -9.039062 8.023438 -9.273438 7.671875 -9.453125 C 7.328125 -9.628906 6.910156 -9.71875 6.421875 -9.71875 Z M 6.421875 -9.71875 "/></g></g></g><g fill="#ffffff" fill-opacity="1"><g transform="translate(585.140332, 412.48614)"><g><path d="M 10.96875 1.546875 L 1.578125 1.546875 L 1.578125 0 L 10.96875 0 Z M 10.96875 1.546875 "/></g></g></g><g fill="#ffffff" fill-opacity="1"><g transform="translate(597.712075, 412.48614)"><g><path d="M 3.984375 -8.359375 L 5.34375 -8.359375 C 5.820312 -8.359375 6.242188 -8.421875 6.609375 -8.546875 C 6.972656 -8.679688 7.273438 -8.859375 7.515625 -9.078125 C 7.765625 -9.304688 7.953125 -9.578125 8.078125 -9.890625 C 8.210938 -10.203125 8.28125 -10.546875 8.28125 -10.921875 C 8.28125 -11.785156 8.054688 -12.4375 7.609375 -12.875 C 7.171875 -13.320312 6.523438 -13.546875 5.671875 -13.546875 C 5.273438 -13.546875 4.910156 -13.484375 4.578125 -13.359375 C 4.242188 -13.242188 3.957031 -13.070312 3.71875 -12.84375 C 3.488281 -12.625 3.304688 -12.359375 3.171875 -12.046875 C 3.046875 -11.734375 2.984375 -11.378906 2.984375 -10.984375 L 1.078125 -10.984375 C 1.078125 -11.554688 1.1875 -12.09375 1.40625 -12.59375 C 1.632812 -13.09375 1.945312 -13.523438 2.34375 -13.890625 C 2.75 -14.265625 3.234375 -14.554688 3.796875 -14.765625 C 4.359375 -14.984375 4.984375 -15.09375 5.671875 -15.09375 C 6.347656 -15.09375 6.960938 -15.003906 7.515625 -14.828125 C 8.066406 -14.648438 8.539062 -14.382812 8.9375 -14.03125 C 9.332031 -13.675781 9.640625 -13.234375 9.859375 -12.703125 C 10.078125 -12.179688 10.1875 -11.578125 10.1875 -10.890625 C 10.1875 -10.597656 10.140625 -10.296875 10.046875 -9.984375 C 9.953125 -9.679688 9.8125 -9.382812 9.625 -9.09375 C 9.445312 -8.8125 9.210938 -8.539062 8.921875 -8.28125 C 8.628906 -8.019531 8.285156 -7.804688 7.890625 -7.640625 C 8.367188 -7.484375 8.769531 -7.28125 9.09375 -7.03125 C 9.425781 -6.78125 9.6875 -6.492188 9.875 -6.171875 C 10.070312 -5.859375 10.207031 -5.53125 10.28125 -5.1875 C 10.363281 -4.84375 10.40625 -4.5 10.40625 -4.15625 C 10.40625 -3.457031 10.285156 -2.835938 10.046875 -2.296875 C 9.804688 -1.765625 9.472656 -1.3125 9.046875 -0.9375 C 8.628906 -0.5625 8.128906 -0.273438 7.546875 -0.078125 C 6.972656 0.109375 6.351562 0.203125 5.6875 0.203125 C 5.03125 0.203125 4.414062 0.113281 3.84375 -0.0625 C 3.269531 -0.25 2.769531 -0.519531 2.34375 -0.875 C 1.914062 -1.226562 1.578125 -1.660156 1.328125 -2.171875 C 1.085938 -2.691406 0.96875 -3.273438 0.96875 -3.921875 L 2.859375 -3.921875 C 2.859375 -3.535156 2.921875 -3.179688 3.046875 -2.859375 C 3.179688 -2.546875 3.367188 -2.273438 3.609375 -2.046875 C 3.859375 -1.816406 4.160156 -1.640625 4.515625 -1.515625 C 4.867188 -1.398438 5.257812 -1.34375 5.6875 -1.34375 C 6.113281 -1.34375 6.5 -1.394531 6.84375 -1.5 C 7.195312 -1.613281 7.492188 -1.785156 7.734375 -2.015625 C 7.984375 -2.253906 8.175781 -2.546875 8.3125 -2.890625 C 8.445312 -3.234375 8.515625 -3.640625 8.515625 -4.109375 C 8.515625 -4.578125 8.4375 -4.976562 8.28125 -5.3125 C 8.125 -5.65625 7.90625 -5.9375 7.625 -6.15625 C 7.351562 -6.382812 7.019531 -6.550781 6.625 -6.65625 C 6.238281 -6.769531 5.8125 -6.828125 5.34375 -6.828125 L 3.984375 -6.828125 Z M 3.984375 -8.359375 "/></g></g></g><path stroke-linecap="butt" transform="matrix(-0.686096, -0.301715, 0.301355, -0.685279, 765.412323, 330.337782)" fill="none" stroke-linejoin="miter" d="M -0.00154119 1.998452 L 340.609884 2.001363 " stroke="#000000" stroke-width="4" stroke-opacity="1" stroke-miterlimit="4"/><g clip-path="url(#6df4001ea5)"><g clip-path="url(#17f342c63a)"><path fill="#323233" d="M 676.621094 323.402344 L 838.324219 323.402344 L 838.324219 485.101562 L 676.621094 485.101562 Z M 676.621094 323.402344 " fill-opacity="1" fill-rule="nonzero"/><path stroke-linecap="butt" transform="matrix(0.748614, 0, 0, 0.748614, 676.622073, 323.401116)" fill="none" stroke-linejoin="miter" d="M 33.99904 0.00163984 L 182.001785 0.00163984 C 191.018452 0.00163984 199.664643 3.581173 206.041013 9.957543 C 212.417383 16.333913 216.002134 24.980103 216.002134 34.001988 L 216.002134 181.999516 C 216.002134 191.016183 212.417383 199.667591 206.041013 206.043961 C 199.664643 212.420331 191.018452 215.999864 182.001785 215.999864 L 33.99904 215.999864 C 24.982373 215.999864 16.336183 212.420331 9.959813 206.043961 C 3.583443 199.667591 -0.00130836 191.016183 -0.00130836 181.999516 L -0.00130836 34.001988 C -0.00130836 24.980103 3.583443 16.333913 9.959813 9.957543 C 16.336183 3.581173 24.982373 0.00163984 33.99904 0.00163984 " stroke="#bd99ff" stroke-width="8" stroke-opacity="1" stroke-miterlimit="4"/></g></g><g fill="#ffffff" fill-opacity="1"><g transform="translate(719.760935, 412.48614)"><g><path d="M 11.109375 0 L 9.1875 0 L 3.40625 -11.125 L 3.375 0 L 1.46875 0 L 1.46875 -14.890625 L 3.390625 -14.890625 L 9.171875 -3.78125 L 9.203125 -14.890625 L 11.109375 -14.890625 Z M 11.109375 0 "/></g></g></g><g fill="#ffffff" fill-opacity="1"><g transform="translate(732.332677, 412.48614)"><g><path d="M 1.25 -5.640625 C 1.25 -6.429688 1.363281 -7.171875 1.59375 -7.859375 C 1.820312 -8.546875 2.15625 -9.140625 2.59375 -9.640625 C 3.03125 -10.148438 3.554688 -10.550781 4.171875 -10.84375 C 4.796875 -11.132812 5.492188 -11.28125 6.265625 -11.28125 C 7.054688 -11.28125 7.765625 -11.132812 8.390625 -10.84375 C 9.015625 -10.550781 9.539062 -10.148438 9.96875 -9.640625 C 10.40625 -9.140625 10.738281 -8.546875 10.96875 -7.859375 C 11.195312 -7.171875 11.3125 -6.429688 11.3125 -5.640625 L 11.3125 -5.40625 C 11.3125 -4.613281 11.195312 -3.875 10.96875 -3.1875 C 10.738281 -2.507812 10.40625 -1.914062 9.96875 -1.40625 C 9.539062 -0.90625 9.015625 -0.507812 8.390625 -0.21875 C 7.765625 0.0625 7.066406 0.203125 6.296875 0.203125 C 5.503906 0.203125 4.796875 0.0625 4.171875 -0.21875 C 3.554688 -0.507812 3.03125 -0.90625 2.59375 -1.40625 C 2.15625 -1.914062 1.820312 -2.507812 1.59375 -3.1875 C 1.363281 -3.875 1.25 -4.613281 1.25 -5.40625 Z M 3.140625 -5.40625 C 3.140625 -4.863281 3.203125 -4.34375 3.328125 -3.84375 C 3.460938 -3.351562 3.660156 -2.921875 3.921875 -2.546875 C 4.179688 -2.171875 4.507812 -1.875 4.90625 -1.65625 C 5.300781 -1.4375 5.765625 -1.328125 6.296875 -1.328125 C 6.804688 -1.328125 7.257812 -1.4375 7.65625 -1.65625 C 8.050781 -1.875 8.378906 -2.171875 8.640625 -2.546875 C 8.898438 -2.921875 9.09375 -3.351562 9.21875 -3.84375 C 9.351562 -4.34375 9.421875 -4.863281 9.421875 -5.40625 L 9.421875 -5.640625 C 9.421875 -6.179688 9.351562 -6.695312 9.21875 -7.1875 C 9.09375 -7.675781 8.894531 -8.109375 8.625 -8.484375 C 8.363281 -8.859375 8.035156 -9.15625 7.640625 -9.375 C 7.253906 -9.601562 6.796875 -9.71875 6.265625 -9.71875 C 5.742188 -9.71875 5.285156 -9.601562 4.890625 -9.375 C 4.503906 -9.15625 4.179688 -8.859375 3.921875 -8.484375 C 3.660156 -8.109375 3.460938 -7.675781 3.328125 -7.1875 C 3.203125 -6.695312 3.140625 -6.179688 3.140625 -5.640625 Z M 3.140625 -5.40625 "/></g></g></g><g fill="#ffffff" fill-opacity="1"><g transform="translate(744.904419, 412.48614)"><g><path d="M 1.421875 -5.625 C 1.421875 -6.445312 1.523438 -7.203125 1.734375 -7.890625 C 1.941406 -8.585938 2.238281 -9.1875 2.625 -9.6875 C 3.007812 -10.1875 3.472656 -10.578125 4.015625 -10.859375 C 4.566406 -11.140625 5.179688 -11.28125 5.859375 -11.28125 C 6.515625 -11.28125 7.085938 -11.164062 7.578125 -10.9375 C 8.078125 -10.71875 8.507812 -10.394531 8.875 -9.96875 L 8.875 -15.71875 L 10.765625 -15.71875 L 10.765625 0 L 9.03125 0 L 8.9375 -1.171875 C 8.570312 -0.710938 8.132812 -0.367188 7.625 -0.140625 C 7.113281 0.0859375 6.515625 0.203125 5.828125 0.203125 C 5.160156 0.203125 4.554688 0.0625 4.015625 -0.21875 C 3.472656 -0.507812 3.007812 -0.90625 2.625 -1.40625 C 2.25 -1.914062 1.953125 -2.507812 1.734375 -3.1875 C 1.523438 -3.875 1.421875 -4.613281 1.421875 -5.40625 Z M 3.3125 -5.40625 C 3.3125 -4.875 3.367188 -4.363281 3.484375 -3.875 C 3.597656 -3.394531 3.773438 -2.96875 4.015625 -2.59375 C 4.265625 -2.226562 4.578125 -1.9375 4.953125 -1.71875 C 5.328125 -1.507812 5.773438 -1.40625 6.296875 -1.40625 C 6.617188 -1.40625 6.910156 -1.441406 7.171875 -1.515625 C 7.429688 -1.585938 7.664062 -1.691406 7.875 -1.828125 C 8.082031 -1.972656 8.269531 -2.140625 8.4375 -2.328125 C 8.601562 -2.523438 8.75 -2.742188 8.875 -2.984375 L 8.875 -8.125 C 8.625 -8.570312 8.289062 -8.941406 7.875 -9.234375 C 7.457031 -9.523438 6.941406 -9.671875 6.328125 -9.671875 C 5.796875 -9.671875 5.335938 -9.5625 4.953125 -9.34375 C 4.578125 -9.125 4.265625 -8.828125 4.015625 -8.453125 C 3.773438 -8.078125 3.597656 -7.644531 3.484375 -7.15625 C 3.367188 -6.675781 3.3125 -6.164062 3.3125 -5.625 Z M 3.3125 -5.40625 "/></g></g></g><g fill="#ffffff" fill-opacity="1"><g transform="translate(757.476161, 412.48614)"><g><path d="M 6.671875 0.203125 C 5.890625 0.203125 5.171875 0.0703125 4.515625 -0.1875 C 3.867188 -0.457031 3.3125 -0.832031 2.84375 -1.3125 C 2.382812 -1.789062 2.023438 -2.351562 1.765625 -3 C 1.503906 -3.65625 1.375 -4.367188 1.375 -5.140625 L 1.375 -5.578125 C 1.375 -6.472656 1.515625 -7.269531 1.796875 -7.96875 C 2.085938 -8.675781 2.46875 -9.273438 2.9375 -9.765625 C 3.414062 -10.253906 3.957031 -10.628906 4.5625 -10.890625 C 5.164062 -11.148438 5.785156 -11.28125 6.421875 -11.28125 C 7.222656 -11.28125 7.921875 -11.140625 8.515625 -10.859375 C 9.109375 -10.585938 9.601562 -10.207031 10 -9.71875 C 10.394531 -9.226562 10.691406 -8.648438 10.890625 -7.984375 C 11.085938 -7.328125 11.1875 -6.613281 11.1875 -5.84375 L 11.1875 -5 L 3.28125 -5 C 3.289062 -4.488281 3.382812 -4.007812 3.5625 -3.5625 C 3.738281 -3.125 3.976562 -2.738281 4.28125 -2.40625 C 4.582031 -2.070312 4.941406 -1.8125 5.359375 -1.625 C 5.785156 -1.4375 6.253906 -1.34375 6.765625 -1.34375 C 7.441406 -1.34375 8.039062 -1.476562 8.5625 -1.75 C 9.09375 -2.019531 9.535156 -2.378906 9.890625 -2.828125 L 11.046875 -1.9375 C 10.859375 -1.65625 10.625 -1.382812 10.34375 -1.125 C 10.070312 -0.875 9.753906 -0.648438 9.390625 -0.453125 C 9.023438 -0.253906 8.613281 -0.0976562 8.15625 0.015625 C 7.707031 0.140625 7.210938 0.203125 6.671875 0.203125 Z M 6.421875 -9.71875 C 6.046875 -9.71875 5.6875 -9.644531 5.34375 -9.5 C 5 -9.363281 4.691406 -9.160156 4.421875 -8.890625 C 4.148438 -8.617188 3.921875 -8.285156 3.734375 -7.890625 C 3.546875 -7.503906 3.410156 -7.054688 3.328125 -6.546875 L 9.296875 -6.546875 L 9.296875 -6.6875 C 9.273438 -7.0625 9.203125 -7.425781 9.078125 -7.78125 C 8.960938 -8.144531 8.785156 -8.46875 8.546875 -8.75 C 8.316406 -9.039062 8.023438 -9.273438 7.671875 -9.453125 C 7.328125 -9.628906 6.910156 -9.71875 6.421875 -9.71875 Z M 6.421875 -9.71875 "/></g></g></g><g fill="#ffffff" fill-opacity="1"><g transform="translate(770.047904, 412.48614)"><g><path d="M 10.96875 1.546875 L 1.578125 1.546875 L 1.578125 0 L 10.96875 0 Z M 10.96875 1.546875 "/></g></g></g><g fill="#ffffff" fill-opacity="1"><g transform="translate(782.619646, 412.48614)"><g><path d="M 9.453125 -5 L 11.53125 -5 L 11.53125 -3.453125 L 9.453125 -3.453125 L 9.453125 0 L 7.5625 0 L 7.5625 -3.453125 L 0.765625 -3.453125 L 0.765625 -4.578125 L 7.4375 -14.890625 L 9.453125 -14.890625 Z M 2.859375 -5 L 7.5625 -5 L 7.5625 -12.375 L 7.25 -11.8125 Z M 2.859375 -5 "/></g></g></g><g clip-path="url(#30ceed8261)"><g clip-path="url(#e60ae7c2fc)"><path fill="#bd99ff" d="M 399.148438 67.722656 L 558.324219 67.722656 L 558.324219 229.421875 L 399.148438 229.421875 Z M 399.148438 67.722656 " fill-opacity="1" fill-rule="nonzero"/></g></g><g clip-path="url(#635970869d)"><g clip-path="url(#0538dc3337)"><path stroke-linecap="butt" transform="matrix(0.749548, 0, 0, 0.748721, 399.153743, 67.721774)" fill="none" stroke-linejoin="miter" d="M 33.997778 0.0011786 L 178.725572 0.0011786 C 187.741419 0.0011786 196.392463 3.580197 202.766094 9.955649 C 209.139724 16.331102 212.725217 24.981265 212.725217 33.996635 L 212.725217 182.969358 C 212.725217 191.989945 209.139724 200.634892 202.766094 207.010344 C 196.392463 213.385797 187.741419 216.970032 178.725572 216.970032 L 33.997778 216.970032 C 24.981932 216.970032 16.336099 213.385797 9.957257 207.010344 C 3.583627 200.634892 -0.00186615 191.989945 -0.00186615 182.969358 L -0.00186615 33.996635 C -0.00186615 24.981265 3.583627 16.331102 9.957257 9.955649 C 16.336099 3.580197 24.981932 0.0011786 33.997778 0.0011786 " stroke="#545454" stroke-width="8" stroke-opacity="1" stroke-miterlimit="4"/></g></g><g fill="#ffffff" fill-opacity="1"><g transform="translate(408.717924, 157.555412)"><g><path d="M 13.828125 -6.703125 C 13.828125 -5.722656 13.707031 -4.804688 13.46875 -3.953125 C 13.226562 -3.109375 12.878906 -2.375 12.421875 -1.75 C 11.972656 -1.125 11.410156 -0.632812 10.734375 -0.28125 C 10.066406 0.0703125 9.296875 0.25 8.421875 0.25 C 7.546875 0.25 6.785156 0.09375 6.140625 -0.21875 C 5.492188 -0.53125 4.941406 -0.976562 4.484375 -1.5625 L 4.375 0 L 2.21875 0 L 2.21875 -19.46875 L 4.5625 -19.46875 L 4.5625 -12.234375 C 5.007812 -12.796875 5.550781 -13.222656 6.1875 -13.515625 C 6.820312 -13.816406 7.5625 -13.96875 8.40625 -13.96875 C 9.28125 -13.96875 10.054688 -13.789062 10.734375 -13.4375 C 11.410156 -13.09375 11.972656 -12.613281 12.421875 -12 C 12.878906 -11.382812 13.226562 -10.644531 13.46875 -9.78125 C 13.707031 -8.925781 13.828125 -7.988281 13.828125 -6.96875 Z M 11.484375 -6.96875 C 11.484375 -7.632812 11.414062 -8.269531 11.28125 -8.875 C 11.15625 -9.476562 10.945312 -10.007812 10.65625 -10.46875 C 10.375 -10.9375 10 -11.300781 9.53125 -11.5625 C 9.0625 -11.832031 8.488281 -11.96875 7.8125 -11.96875 C 7.40625 -11.96875 7.035156 -11.914062 6.703125 -11.8125 C 6.367188 -11.707031 6.066406 -11.5625 5.796875 -11.375 C 5.535156 -11.1875 5.300781 -10.960938 5.09375 -10.703125 C 4.882812 -10.441406 4.707031 -10.160156 4.5625 -9.859375 L 4.5625 -3.859375 C 4.71875 -3.554688 4.894531 -3.273438 5.09375 -3.015625 C 5.300781 -2.765625 5.539062 -2.539062 5.8125 -2.34375 C 6.082031 -2.144531 6.382812 -1.992188 6.71875 -1.890625 C 7.0625 -1.785156 7.4375 -1.734375 7.84375 -1.734375 C 8.488281 -1.734375 9.039062 -1.863281 9.5 -2.125 C 9.957031 -2.394531 10.332031 -2.757812 10.625 -3.21875 C 10.914062 -3.675781 11.128906 -4.203125 11.265625 -4.796875 C 11.410156 -5.398438 11.484375 -6.035156 11.484375 -6.703125 Z M 11.484375 -6.96875 "/></g></g></g><g fill="#ffffff" fill-opacity="1"><g transform="translate(424.286943, 157.555412)"><g><path d="M 11.1875 -13.96875 C 11.40625 -13.96875 11.632812 -13.957031 11.875 -13.9375 C 12.113281 -13.925781 12.335938 -13.90625 12.546875 -13.875 C 12.765625 -13.851562 12.960938 -13.820312 13.140625 -13.78125 C 13.328125 -13.738281 13.476562 -13.691406 13.59375 -13.640625 L 13.28125 -11.34375 C 12.820312 -11.445312 12.382812 -11.519531 11.96875 -11.5625 C 11.5625 -11.613281 11.140625 -11.640625 10.703125 -11.640625 C 9.597656 -11.640625 8.707031 -11.390625 8.03125 -10.890625 C 7.351562 -10.390625 6.851562 -9.691406 6.53125 -8.796875 L 6.53125 0 L 4.171875 0 L 4.171875 -13.71875 L 6.40625 -13.71875 L 6.515625 -11.53125 C 7.066406 -12.28125 7.734375 -12.875 8.515625 -13.3125 C 9.296875 -13.75 10.1875 -13.96875 11.1875 -13.96875 Z M 11.1875 -13.96875 "/></g></g></g><g fill="#ffffff" fill-opacity="1"><g transform="translate(439.855961, 157.555412)"><g><path d="M 1.546875 -6.984375 C 1.546875 -7.972656 1.6875 -8.890625 1.96875 -9.734375 C 2.257812 -10.585938 2.671875 -11.328125 3.203125 -11.953125 C 3.742188 -12.578125 4.398438 -13.066406 5.171875 -13.421875 C 5.941406 -13.785156 6.804688 -13.96875 7.765625 -13.96875 C 8.734375 -13.96875 9.601562 -13.785156 10.375 -13.421875 C 11.15625 -13.066406 11.8125 -12.578125 12.34375 -11.953125 C 12.882812 -11.328125 13.296875 -10.585938 13.578125 -9.734375 C 13.867188 -8.890625 14.015625 -7.972656 14.015625 -6.984375 L 14.015625 -6.703125 C 14.015625 -5.710938 13.867188 -4.796875 13.578125 -3.953125 C 13.296875 -3.109375 12.882812 -2.375 12.34375 -1.75 C 11.8125 -1.125 11.160156 -0.632812 10.390625 -0.28125 C 9.617188 0.0703125 8.753906 0.25 7.796875 0.25 C 6.828125 0.25 5.953125 0.0703125 5.171875 -0.28125 C 4.398438 -0.632812 3.742188 -1.125 3.203125 -1.75 C 2.671875 -2.375 2.257812 -3.109375 1.96875 -3.953125 C 1.6875 -4.796875 1.546875 -5.710938 1.546875 -6.703125 Z M 3.890625 -6.703125 C 3.890625 -6.023438 3.96875 -5.378906 4.125 -4.765625 C 4.289062 -4.160156 4.535156 -3.625 4.859375 -3.15625 C 5.179688 -2.6875 5.585938 -2.316406 6.078125 -2.046875 C 6.566406 -1.773438 7.140625 -1.640625 7.796875 -1.640625 C 8.429688 -1.640625 8.992188 -1.773438 9.484375 -2.046875 C 9.972656 -2.316406 10.378906 -2.6875 10.703125 -3.15625 C 11.023438 -3.625 11.265625 -4.160156 11.421875 -4.765625 C 11.585938 -5.378906 11.671875 -6.023438 11.671875 -6.703125 L 11.671875 -6.984375 C 11.671875 -7.648438 11.585938 -8.289062 11.421875 -8.90625 C 11.253906 -9.519531 11.007812 -10.054688 10.6875 -10.515625 C 10.363281 -10.984375 9.957031 -11.351562 9.46875 -11.625 C 8.988281 -11.894531 8.421875 -12.03125 7.765625 -12.03125 C 7.117188 -12.03125 6.550781 -11.894531 6.0625 -11.625 C 5.582031 -11.351562 5.179688 -10.984375 4.859375 -10.515625 C 4.535156 -10.054688 4.289062 -9.519531 4.125 -8.90625 C 3.96875 -8.289062 3.890625 -7.648438 3.890625 -6.984375 Z M 3.890625 -6.703125 "/></g></g></g><g fill="#ffffff" fill-opacity="1"><g transform="translate(455.424979, 157.555412)"><g><path d="M 6.3125 -6.40625 L 4.59375 -4.734375 L 4.59375 0 L 2.234375 0 L 2.234375 -19.46875 L 4.59375 -19.46875 L 4.59375 -7.546875 L 6.125 -9.203125 L 10.625 -13.71875 L 13.46875 -13.71875 L 7.921875 -8 L 14.3125 0 L 11.34375 0 Z M 6.3125 -6.40625 "/></g></g></g><g fill="#ffffff" fill-opacity="1"><g transform="translate(470.993998, 157.555412)"><g><path d="M 8.265625 0.25 C 7.296875 0.25 6.40625 0.0859375 5.59375 -0.234375 C 4.789062 -0.566406 4.101562 -1.03125 3.53125 -1.625 C 2.957031 -2.21875 2.507812 -2.914062 2.1875 -3.71875 C 1.863281 -4.53125 1.703125 -5.414062 1.703125 -6.375 L 1.703125 -6.90625 C 1.703125 -8.007812 1.878906 -9 2.234375 -9.875 C 2.597656 -10.75 3.070312 -11.488281 3.65625 -12.09375 C 4.238281 -12.695312 4.90625 -13.160156 5.65625 -13.484375 C 6.40625 -13.804688 7.171875 -13.96875 7.953125 -13.96875 C 8.941406 -13.96875 9.804688 -13.796875 10.546875 -13.453125 C 11.285156 -13.109375 11.898438 -12.632812 12.390625 -12.03125 C 12.878906 -11.425781 13.242188 -10.710938 13.484375 -9.890625 C 13.722656 -9.078125 13.84375 -8.191406 13.84375 -7.234375 L 13.84375 -6.1875 L 4.0625 -6.1875 C 4.082031 -5.5625 4.195312 -4.972656 4.40625 -4.421875 C 4.625 -3.867188 4.921875 -3.390625 5.296875 -2.984375 C 5.679688 -2.578125 6.132812 -2.253906 6.65625 -2.015625 C 7.175781 -1.773438 7.753906 -1.65625 8.390625 -1.65625 C 9.222656 -1.65625 9.960938 -1.820312 10.609375 -2.15625 C 11.265625 -2.5 11.804688 -2.953125 12.234375 -3.515625 L 13.671875 -2.390625 C 13.441406 -2.046875 13.15625 -1.710938 12.8125 -1.390625 C 12.476562 -1.078125 12.085938 -0.796875 11.640625 -0.546875 C 11.191406 -0.304688 10.679688 -0.113281 10.109375 0.03125 C 9.546875 0.175781 8.929688 0.25 8.265625 0.25 Z M 7.953125 -12.03125 C 7.484375 -12.03125 7.035156 -11.941406 6.609375 -11.765625 C 6.191406 -11.597656 5.8125 -11.347656 5.46875 -11.015625 C 5.132812 -10.679688 4.847656 -10.269531 4.609375 -9.78125 C 4.378906 -9.300781 4.21875 -8.742188 4.125 -8.109375 L 11.5 -8.109375 L 11.5 -8.28125 C 11.476562 -8.738281 11.394531 -9.191406 11.25 -9.640625 C 11.101562 -10.085938 10.882812 -10.488281 10.59375 -10.84375 C 10.300781 -11.195312 9.9375 -11.484375 9.5 -11.703125 C 9.070312 -11.921875 8.554688 -12.03125 7.953125 -12.03125 Z M 7.953125 -12.03125 "/></g></g></g><g fill="#ffffff" fill-opacity="1"><g transform="translate(486.563016, 157.555412)"><g><path d="M 11.1875 -13.96875 C 11.40625 -13.96875 11.632812 -13.957031 11.875 -13.9375 C 12.113281 -13.925781 12.335938 -13.90625 12.546875 -13.875 C 12.765625 -13.851562 12.960938 -13.820312 13.140625 -13.78125 C 13.328125 -13.738281 13.476562 -13.691406 13.59375 -13.640625 L 13.28125 -11.34375 C 12.820312 -11.445312 12.382812 -11.519531 11.96875 -11.5625 C 11.5625 -11.613281 11.140625 -11.640625 10.703125 -11.640625 C 9.597656 -11.640625 8.707031 -11.390625 8.03125 -10.890625 C 7.351562 -10.390625 6.851562 -9.691406 6.53125 -8.796875 L 6.53125 0 L 4.171875 0 L 4.171875 -13.71875 L 6.40625 -13.71875 L 6.515625 -11.53125 C 7.066406 -12.28125 7.734375 -12.875 8.515625 -13.3125 C 9.296875 -13.75 10.1875 -13.96875 11.1875 -13.96875 Z M 11.1875 -13.96875 "/></g></g></g><g fill="#ffffff" fill-opacity="1"><g transform="translate(502.132034, 157.555412)"><g><path d="M 13.578125 1.90625 L 1.96875 1.90625 L 1.96875 0 L 13.578125 0 Z M 13.578125 1.90625 "/></g></g></g><g fill="#ffffff" fill-opacity="1"><g transform="translate(517.701053, 157.555412)"><g><path d="M 13.78125 -6.703125 C 13.78125 -5.722656 13.660156 -4.804688 13.421875 -3.953125 C 13.179688 -3.109375 12.832031 -2.375 12.375 -1.75 C 11.925781 -1.125 11.363281 -0.632812 10.6875 -0.28125 C 10.019531 0.0703125 9.253906 0.25 8.390625 0.25 C 7.554688 0.25 6.816406 0.113281 6.171875 -0.15625 C 5.535156 -0.425781 4.988281 -0.8125 4.53125 -1.3125 L 4.53125 5.265625 L 2.1875 5.265625 L 2.1875 -13.71875 L 4.328125 -13.71875 L 4.453125 -12.21875 C 4.898438 -12.78125 5.445312 -13.210938 6.09375 -13.515625 C 6.75 -13.816406 7.5 -13.96875 8.34375 -13.96875 C 9.226562 -13.96875 10.007812 -13.789062 10.6875 -13.4375 C 11.363281 -13.09375 11.925781 -12.613281 12.375 -12 C 12.832031 -11.382812 13.179688 -10.644531 13.421875 -9.78125 C 13.660156 -8.925781 13.78125 -7.988281 13.78125 -6.96875 Z M 11.4375 -6.96875 C 11.4375 -7.632812 11.359375 -8.269531 11.203125 -8.875 C 11.054688 -9.476562 10.828125 -10.007812 10.515625 -10.46875 C 10.210938 -10.9375 9.820312 -11.300781 9.34375 -11.5625 C 8.875 -11.832031 8.3125 -11.96875 7.65625 -11.96875 C 6.90625 -11.96875 6.273438 -11.789062 5.765625 -11.4375 C 5.253906 -11.09375 4.84375 -10.644531 4.53125 -10.09375 L 4.53125 -3.5 C 4.84375 -2.957031 5.25 -2.515625 5.75 -2.171875 C 6.257812 -1.828125 6.898438 -1.65625 7.671875 -1.65625 C 8.328125 -1.65625 8.890625 -1.789062 9.359375 -2.0625 C 9.835938 -2.34375 10.226562 -2.710938 10.53125 -3.171875 C 10.832031 -3.640625 11.054688 -4.175781 11.203125 -4.78125 C 11.359375 -5.394531 11.4375 -6.035156 11.4375 -6.703125 Z M 11.4375 -6.96875 "/></g></g></g><g fill="#ffffff" fill-opacity="1"><g transform="translate(533.270071, 157.555412)"><g><path d="M 7.25 -4.859375 L 7.859375 -3.203125 L 12.03125 -13.71875 L 14.65625 -13.71875 L 7.703125 2.109375 C 7.546875 2.472656 7.34375 2.851562 7.09375 3.25 C 6.84375 3.644531 6.539062 4.007812 6.1875 4.34375 C 5.832031 4.6875 5.414062 4.96875 4.9375 5.1875 C 4.46875 5.414062 3.925781 5.53125 3.3125 5.53125 C 3.195312 5.53125 3.070312 5.523438 2.9375 5.515625 C 2.800781 5.503906 2.664062 5.488281 2.53125 5.46875 C 2.394531 5.445312 2.269531 5.421875 2.15625 5.390625 C 2.039062 5.367188 1.941406 5.347656 1.859375 5.328125 L 2.25 3.421875 C 2.300781 3.421875 2.378906 3.425781 2.484375 3.4375 C 2.585938 3.445312 2.691406 3.453125 2.796875 3.453125 C 2.910156 3.460938 3.015625 3.46875 3.109375 3.46875 C 3.210938 3.476562 3.296875 3.484375 3.359375 3.484375 C 3.679688 3.484375 3.972656 3.394531 4.234375 3.21875 C 4.503906 3.039062 4.742188 2.828125 4.953125 2.578125 C 5.160156 2.335938 5.335938 2.085938 5.484375 1.828125 C 5.628906 1.566406 5.742188 1.347656 5.828125 1.171875 L 6.765625 -0.640625 L 0.859375 -13.71875 L 3.484375 -13.71875 Z M 7.25 -4.859375 "/></g></g></g><g clip-path="url(#1c037e3cbf)"><g clip-path="url(#25d5ef6d95)"><path fill="#bd99ff" d="M 138.824219 423.800781 L 265.152344 423.800781 L 265.152344 451.59375 L 138.824219 451.59375 Z M 138.824219 423.800781 " fill-opacity="1" fill-rule="nonzero"/></g></g><g fill="#000000" fill-opacity="1"><g transform="translate(187.719046, 441.76642)"><g><path d="M 4.875 0.140625 C 4.09375 0.140625 3.40625 -0.0351562 2.8125 -0.390625 C 2.21875 -0.753906 1.753906 -1.289062 1.421875 -2 C 1.085938 -2.71875 0.921875 -3.59375 0.921875 -4.625 C 0.921875 -5.664062 1.097656 -6.539062 1.453125 -7.25 C 1.816406 -7.96875 2.3125 -8.503906 2.9375 -8.859375 C 3.570312 -9.210938 4.304688 -9.390625 5.140625 -9.390625 C 6.023438 -9.390625 6.75 -9.226562 7.3125 -8.90625 C 7.882812 -8.59375 8.289062 -8.117188 8.53125 -7.484375 L 7.828125 -7.0625 L 7.65625 -7.0625 C 7.414062 -7.539062 7.09375 -7.882812 6.6875 -8.09375 C 6.28125 -8.3125 5.765625 -8.421875 5.140625 -8.421875 C 3.109375 -8.421875 2.09375 -7.15625 2.09375 -4.625 C 2.09375 -3.3125 2.347656 -2.351562 2.859375 -1.75 C 3.367188 -1.144531 4.082031 -0.84375 5 -0.84375 C 5.84375 -0.84375 6.472656 -1.035156 6.890625 -1.421875 C 7.316406 -1.804688 7.53125 -2.414062 7.53125 -3.25 L 7.53125 -4.0625 L 4.890625 -4.0625 L 4.890625 -4.9375 L 8.59375 -4.9375 L 8.59375 0 L 7.578125 0 L 7.578125 -1.234375 L 7.453125 -1.265625 C 7.203125 -0.796875 6.859375 -0.441406 6.421875 -0.203125 C 5.984375 0.0234375 5.46875 0.140625 4.875 0.140625 Z M 4.875 0.140625 "/></g></g></g><g fill="#000000" fill-opacity="1"><g transform="translate(197.346755, 441.76642)"><g><path d="M 2.875 0.140625 C 2.1875 0.140625 1.648438 -0.0351562 1.265625 -0.390625 C 0.878906 -0.753906 0.6875 -1.269531 0.6875 -1.9375 C 0.6875 -2.351562 0.769531 -2.703125 0.9375 -2.984375 C 1.113281 -3.273438 1.378906 -3.507812 1.734375 -3.6875 C 2.097656 -3.863281 2.566406 -4.003906 3.140625 -4.109375 C 3.648438 -4.191406 4.035156 -4.285156 4.296875 -4.390625 C 4.566406 -4.492188 4.742188 -4.609375 4.828125 -4.734375 C 4.921875 -4.867188 4.96875 -5.035156 4.96875 -5.234375 C 4.96875 -5.554688 4.859375 -5.800781 4.640625 -5.96875 C 4.421875 -6.132812 4.070312 -6.21875 3.59375 -6.21875 C 3.144531 -6.21875 2.757812 -6.128906 2.4375 -5.953125 C 2.113281 -5.773438 1.816406 -5.515625 1.546875 -5.171875 L 1.421875 -5.171875 L 0.90625 -5.890625 C 1.207031 -6.265625 1.582031 -6.5625 2.03125 -6.78125 C 2.488281 -7.007812 3.007812 -7.125 3.59375 -7.125 C 4.414062 -7.125 5.019531 -6.941406 5.40625 -6.578125 C 5.800781 -6.210938 6 -5.710938 6 -5.078125 L 6 -1.375 C 6 -0.988281 6.164062 -0.796875 6.5 -0.796875 C 6.601562 -0.796875 6.707031 -0.8125 6.8125 -0.84375 L 6.90625 -0.828125 L 7.015625 -0.109375 C 6.941406 -0.0546875 6.84375 -0.0195312 6.71875 0 C 6.59375 0.03125 6.46875 0.046875 6.34375 0.046875 C 5.957031 0.046875 5.664062 -0.0351562 5.46875 -0.203125 C 5.269531 -0.367188 5.144531 -0.617188 5.09375 -0.953125 L 4.953125 -0.96875 C 4.753906 -0.59375 4.484375 -0.3125 4.140625 -0.125 C 3.804688 0.0507812 3.382812 0.140625 2.875 0.140625 Z M 3.109375 -0.6875 C 3.492188 -0.6875 3.828125 -0.773438 4.109375 -0.953125 C 4.398438 -1.140625 4.617188 -1.394531 4.765625 -1.71875 C 4.921875 -2.039062 5 -2.414062 5 -2.84375 L 5 -3.734375 L 4.875 -3.75 C 4.71875 -3.644531 4.53125 -3.554688 4.3125 -3.484375 C 4.09375 -3.410156 3.78125 -3.34375 3.375 -3.28125 C 2.96875 -3.226562 2.644531 -3.144531 2.40625 -3.03125 C 2.164062 -2.914062 1.992188 -2.769531 1.890625 -2.59375 C 1.796875 -2.414062 1.75 -2.195312 1.75 -1.9375 C 1.75 -1.53125 1.867188 -1.21875 2.109375 -1 C 2.347656 -0.789062 2.679688 -0.6875 3.109375 -0.6875 Z M 3.109375 -0.6875 "/></g></g></g><g fill="#000000" fill-opacity="1"><g transform="translate(204.573876, 441.76642)"><g><path d="M 4.71875 -1.109375 L 5.046875 -0.375 C 4.890625 -0.207031 4.675781 -0.0820312 4.40625 0 C 4.132812 0.09375 3.84375 0.140625 3.53125 0.140625 C 2.195312 0.140625 1.53125 -0.535156 1.53125 -1.890625 L 1.53125 -6.140625 L 0.3125 -6.140625 L 0.3125 -6.984375 L 1.53125 -6.984375 L 1.53125 -8.46875 L 2.5625 -8.640625 L 2.5625 -6.984375 L 4.8125 -6.984375 L 4.8125 -6.140625 L 2.5625 -6.140625 L 2.5625 -2 C 2.5625 -1.195312 2.910156 -0.796875 3.609375 -0.796875 C 3.984375 -0.796875 4.3125 -0.898438 4.59375 -1.109375 Z M 4.71875 -1.109375 "/></g></g></g><g fill="#000000" fill-opacity="1"><g transform="translate(209.894452, 441.76642)"><g><path d="M 6.65625 -3.25 L 1.859375 -3.25 C 1.890625 -2.40625 2.09375 -1.785156 2.46875 -1.390625 C 2.84375 -0.992188 3.359375 -0.796875 4.015625 -0.796875 C 4.515625 -0.796875 4.914062 -0.882812 5.21875 -1.0625 C 5.53125 -1.238281 5.769531 -1.515625 5.9375 -1.890625 L 6.078125 -1.890625 L 6.75 -1.5 C 6.539062 -0.988281 6.210938 -0.585938 5.765625 -0.296875 C 5.328125 -0.00390625 4.742188 0.140625 4.015625 0.140625 C 3.347656 0.140625 2.769531 0.00390625 2.28125 -0.265625 C 1.789062 -0.535156 1.414062 -0.9375 1.15625 -1.46875 C 0.894531 -2.007812 0.765625 -2.679688 0.765625 -3.484375 C 0.765625 -4.273438 0.898438 -4.941406 1.171875 -5.484375 C 1.453125 -6.035156 1.832031 -6.445312 2.3125 -6.71875 C 2.789062 -6.988281 3.335938 -7.125 3.953125 -7.125 C 4.847656 -7.125 5.546875 -6.867188 6.046875 -6.359375 C 6.554688 -5.859375 6.8125 -5.109375 6.8125 -4.109375 C 6.8125 -3.722656 6.800781 -3.460938 6.78125 -3.328125 Z M 5.796875 -4.109375 C 5.773438 -4.859375 5.609375 -5.398438 5.296875 -5.734375 C 4.984375 -6.078125 4.535156 -6.25 3.953125 -6.25 C 3.347656 -6.25 2.867188 -6.078125 2.515625 -5.734375 C 2.171875 -5.390625 1.957031 -4.847656 1.875 -4.109375 Z M 5.796875 -4.109375 "/></g></g></g><g clip-path="url(#cf48e17b5d)"><g clip-path="url(#f93616f589)"><path fill="#bd99ff" d="M 138.238281 452.265625 L 264.566406 452.265625 L 264.566406 480.054688 L 138.238281 480.054688 Z M 138.238281 452.265625 " fill-opacity="1" fill-rule="nonzero"/></g></g><g fill="#000000" fill-opacity="1"><g transform="translate(176.485821, 470.231035)"><g><path d="M 4.71875 -9.265625 C 5.351562 -9.265625 5.894531 -9.148438 6.34375 -8.921875 C 6.800781 -8.691406 7.148438 -8.363281 7.390625 -7.9375 C 7.628906 -7.507812 7.75 -7.007812 7.75 -6.4375 C 7.75 -5.863281 7.628906 -5.363281 7.390625 -4.9375 C 7.148438 -4.519531 6.800781 -4.195312 6.34375 -3.96875 C 5.894531 -3.738281 5.351562 -3.625 4.71875 -3.625 L 2.484375 -3.625 L 2.484375 0 L 1.40625 0 L 1.40625 -9.265625 Z M 4.671875 -4.546875 C 5.960938 -4.546875 6.609375 -5.175781 6.609375 -6.4375 C 6.609375 -7.695312 5.960938 -8.328125 4.671875 -8.328125 L 2.484375 -8.328125 L 2.484375 -4.546875 Z M 4.671875 -4.546875 "/></g></g></g><g fill="#000000" fill-opacity="1"><g transform="translate(184.929074, 470.231035)"><g><path d="M 1.734375 -8.328125 C 1.515625 -8.328125 1.335938 -8.394531 1.203125 -8.53125 C 1.066406 -8.675781 1 -8.851562 1 -9.0625 C 1 -9.269531 1.066406 -9.441406 1.203125 -9.578125 C 1.335938 -9.722656 1.515625 -9.796875 1.734375 -9.796875 C 1.953125 -9.796875 2.128906 -9.722656 2.265625 -9.578125 C 2.398438 -9.441406 2.46875 -9.269531 2.46875 -9.0625 C 2.46875 -8.851562 2.398438 -8.675781 2.265625 -8.53125 C 2.128906 -8.394531 1.953125 -8.328125 1.734375 -8.328125 Z M 1.21875 0 L 1.21875 -6.984375 L 2.25 -6.984375 L 2.25 0 Z M 1.21875 0 "/></g></g></g><g fill="#000000" fill-opacity="1"><g transform="translate(188.393788, 470.231035)"><g><path d="M 1.21875 2.828125 L 1.21875 -6.984375 L 2.25 -6.984375 L 2.25 -5.9375 L 2.375 -5.921875 C 2.894531 -6.722656 3.660156 -7.125 4.671875 -7.125 C 5.253906 -7.125 5.757812 -6.988281 6.1875 -6.71875 C 6.625 -6.445312 6.960938 -6.039062 7.203125 -5.5 C 7.441406 -4.957031 7.5625 -4.285156 7.5625 -3.484375 C 7.5625 -2.691406 7.4375 -2.023438 7.1875 -1.484375 C 6.9375 -0.941406 6.585938 -0.535156 6.140625 -0.265625 C 5.691406 0.00390625 5.175781 0.140625 4.59375 0.140625 C 4.113281 0.140625 3.691406 0.0546875 3.328125 -0.109375 C 2.960938 -0.273438 2.644531 -0.546875 2.375 -0.921875 L 2.25 -0.90625 L 2.25 2.828125 Z M 4.359375 -0.796875 C 5.773438 -0.796875 6.484375 -1.691406 6.484375 -3.484375 C 6.484375 -5.285156 5.773438 -6.1875 4.359375 -6.1875 C 3.953125 -6.1875 3.585938 -6.09375 3.265625 -5.90625 C 2.953125 -5.71875 2.703125 -5.421875 2.515625 -5.015625 C 2.335938 -4.609375 2.25 -4.097656 2.25 -3.484375 C 2.25 -2.878906 2.335938 -2.375 2.515625 -1.96875 C 2.703125 -1.5625 2.953125 -1.265625 3.265625 -1.078125 C 3.585938 -0.890625 3.953125 -0.796875 4.359375 -0.796875 Z M 4.359375 -0.796875 "/></g></g></g><g fill="#000000" fill-opacity="1"><g transform="translate(196.729357, 470.231035)"><g><path d="M 6.65625 -3.25 L 1.859375 -3.25 C 1.890625 -2.40625 2.09375 -1.785156 2.46875 -1.390625 C 2.84375 -0.992188 3.359375 -0.796875 4.015625 -0.796875 C 4.515625 -0.796875 4.914062 -0.882812 5.21875 -1.0625 C 5.53125 -1.238281 5.769531 -1.515625 5.9375 -1.890625 L 6.078125 -1.890625 L 6.75 -1.5 C 6.539062 -0.988281 6.210938 -0.585938 5.765625 -0.296875 C 5.328125 -0.00390625 4.742188 0.140625 4.015625 0.140625 C 3.347656 0.140625 2.769531 0.00390625 2.28125 -0.265625 C 1.789062 -0.535156 1.414062 -0.9375 1.15625 -1.46875 C 0.894531 -2.007812 0.765625 -2.679688 0.765625 -3.484375 C 0.765625 -4.273438 0.898438 -4.941406 1.171875 -5.484375 C 1.453125 -6.035156 1.832031 -6.445312 2.3125 -6.71875 C 2.789062 -6.988281 3.335938 -7.125 3.953125 -7.125 C 4.847656 -7.125 5.546875 -6.867188 6.046875 -6.359375 C 6.554688 -5.859375 6.8125 -5.109375 6.8125 -4.109375 C 6.8125 -3.722656 6.800781 -3.460938 6.78125 -3.328125 Z M 5.796875 -4.109375 C 5.773438 -4.859375 5.609375 -5.398438 5.296875 -5.734375 C 4.984375 -6.078125 4.535156 -6.25 3.953125 -6.25 C 3.347656 -6.25 2.867188 -6.078125 2.515625 -5.734375 C 2.171875 -5.390625 1.957031 -4.847656 1.875 -4.109375 Z M 5.796875 -4.109375 "/></g></g></g><g fill="#000000" fill-opacity="1"><g transform="translate(204.178163, 470.231035)"><g/></g></g><g fill="#000000" fill-opacity="1"><g transform="translate(207.357841, 470.231035)"><g><path d="M 4.046875 0 L 2.625 0 L 0.5 -9.265625 L 1.578125 -9.265625 L 3.3125 -1.609375 L 3.46875 -1.609375 L 5.546875 -9.265625 L 6.5625 -9.265625 L 8.640625 -1.609375 L 8.796875 -1.609375 L 10.546875 -9.265625 L 11.59375 -9.265625 L 9.46875 0 L 8.046875 0 L 6.109375 -7.015625 L 5.984375 -7.015625 Z M 4.046875 0 "/></g></g></g><g fill="#000000" fill-opacity="1"><g transform="translate(219.449489, 470.231035)"><g><path d="M 4.046875 0.140625 C 3.460938 0.140625 2.9375 0.0625 2.46875 -0.09375 C 2.007812 -0.257812 1.625 -0.46875 1.3125 -0.71875 C 1.007812 -0.976562 0.785156 -1.265625 0.640625 -1.578125 L 1.234375 -2.296875 L 1.390625 -2.296875 C 1.960938 -1.328125 2.847656 -0.84375 4.046875 -0.84375 C 4.742188 -0.84375 5.257812 -0.988281 5.59375 -1.28125 C 5.9375 -1.570312 6.109375 -1.976562 6.109375 -2.5 C 6.109375 -2.800781 6.050781 -3.054688 5.9375 -3.265625 C 5.832031 -3.484375 5.648438 -3.664062 5.390625 -3.8125 C 5.128906 -3.96875 4.78125 -4.097656 4.34375 -4.203125 L 3.25 -4.46875 C 2.445312 -4.664062 1.851562 -4.972656 1.46875 -5.390625 C 1.09375 -5.816406 0.90625 -6.359375 0.90625 -7.015625 C 0.90625 -7.472656 1.019531 -7.878906 1.25 -8.234375 C 1.488281 -8.597656 1.832031 -8.878906 2.28125 -9.078125 C 2.738281 -9.285156 3.285156 -9.390625 3.921875 -9.390625 C 4.617188 -9.390625 5.207031 -9.289062 5.6875 -9.09375 C 6.164062 -8.894531 6.550781 -8.601562 6.84375 -8.21875 L 6.3125 -7.5 L 6.15625 -7.5 C 5.882812 -7.820312 5.566406 -8.054688 5.203125 -8.203125 C 4.835938 -8.359375 4.410156 -8.4375 3.921875 -8.4375 C 3.285156 -8.4375 2.800781 -8.3125 2.46875 -8.0625 C 2.144531 -7.8125 1.984375 -7.46875 1.984375 -7.03125 C 1.984375 -6.613281 2.101562 -6.28125 2.34375 -6.03125 C 2.582031 -5.789062 2.988281 -5.601562 3.5625 -5.46875 L 4.671875 -5.203125 C 5.566406 -4.984375 6.210938 -4.65625 6.609375 -4.21875 C 7.015625 -3.789062 7.21875 -3.234375 7.21875 -2.546875 C 7.21875 -2.023438 7.097656 -1.5625 6.859375 -1.15625 C 6.628906 -0.757812 6.273438 -0.441406 5.796875 -0.203125 C 5.328125 0.0234375 4.742188 0.140625 4.046875 0.140625 Z M 4.046875 0.140625 "/></g></g></g><g clip-path="url(#46d2e798e9)"><g clip-path="url(#5bd69a5872)"><path fill="#545454" d="M 40.238281 104.453125 L 217.097656 104.453125 L 217.097656 235.835938 L 40.238281 235.835938 Z M 40.238281 104.453125 " fill-opacity="1" fill-rule="nonzero"/></g></g><g clip-path="url(#152a9d463c)"><g clip-path="url(#20f21dd46b)"><path stroke-linecap="butt" transform="matrix(0.749358, 0, 0, 0.749545, 40.238216, 104.456298)" fill="none" stroke-linejoin="miter" d="M 33.997947 0.000977934 L 201.766601 0.000977934 C 210.784739 0.000977934 219.432769 3.581274 225.80802 9.960142 C 232.18327 16.333798 235.764462 24.979665 235.764462 33.995549 L 235.764462 141.779654 C 235.764462 150.795538 232.18327 159.441405 225.80802 165.820273 C 219.432769 172.193929 210.784739 175.774225 201.766601 175.774225 L 33.997947 175.774225 C 24.979809 175.774225 16.331779 172.193929 9.956528 165.820273 C 3.581278 159.441405 0.0000864145 150.795538 0.0000864145 141.779654 L 0.0000864145 33.995549 C 0.0000864145 24.979665 3.581278 16.333798 9.956528 9.960142 C 16.331779 3.581274 24.979809 0.000977934 33.997947 0.000977934 " stroke="#bd99ff" stroke-width="8" stroke-opacity="1" stroke-miterlimit="4"/></g></g><g fill="#ffffff" fill-opacity="1"><g transform="translate(86.465109, 179.315857)"><g><path d="M 9.421875 -18.53125 C 10.703125 -18.53125 11.796875 -18.300781 12.703125 -17.84375 C 13.617188 -17.382812 14.316406 -16.726562 14.796875 -15.875 C 15.273438 -15.03125 15.515625 -14.035156 15.515625 -12.890625 C 15.515625 -11.742188 15.273438 -10.742188 14.796875 -9.890625 C 14.316406 -9.046875 13.617188 -8.394531 12.703125 -7.9375 C 11.796875 -7.476562 10.703125 -7.25 9.421875 -7.25 L 4.984375 -7.25 L 4.984375 0 L 2.796875 0 L 2.796875 -18.53125 Z M 9.359375 -9.109375 C 11.941406 -9.109375 13.234375 -10.367188 13.234375 -12.890625 C 13.234375 -15.410156 11.941406 -16.671875 9.359375 -16.671875 L 4.984375 -16.671875 L 4.984375 -9.109375 Z M 9.359375 -9.109375 "/></g></g></g><g fill="#ffffff" fill-opacity="1"><g transform="translate(103.351604, 179.315857)"><g><path d="M 2.796875 5.9375 C 2.328125 5.9375 1.882812 5.894531 1.46875 5.8125 C 1.0625 5.726562 0.710938 5.613281 0.421875 5.46875 L 0.796875 3.84375 L 1.03125 3.765625 C 1.226562 3.867188 1.476562 3.953125 1.78125 4.015625 C 2.09375 4.085938 2.40625 4.125 2.71875 4.125 C 3.289062 4.125 3.757812 4.046875 4.125 3.890625 C 4.5 3.742188 4.816406 3.492188 5.078125 3.140625 C 5.347656 2.796875 5.597656 2.316406 5.828125 1.703125 L 6.328125 0.328125 L 0.703125 -13.984375 L 2.9375 -13.984375 L 7.34375 -2.578125 L 7.578125 -2.578125 L 11.84375 -13.984375 L 13.953125 -13.984375 L 7.703125 2.1875 C 7.347656 3.082031 6.953125 3.800781 6.515625 4.34375 C 6.078125 4.894531 5.554688 5.296875 4.953125 5.546875 C 4.359375 5.804688 3.640625 5.9375 2.796875 5.9375 Z M 2.796875 5.9375 "/></g></g></g><g fill="#ffffff" fill-opacity="1"><g transform="translate(118.084532, 179.315857)"><g><path d="M 5.5625 0.265625 C 4.570312 0.265625 3.789062 -0.015625 3.21875 -0.578125 C 2.65625 -1.140625 2.375 -1.976562 2.375 -3.09375 L 2.375 -19.59375 L 4.453125 -19.59375 L 4.453125 -3.234375 C 4.453125 -2.648438 4.5625 -2.226562 4.78125 -1.96875 C 5.007812 -1.707031 5.359375 -1.578125 5.828125 -1.578125 C 6.117188 -1.578125 6.410156 -1.625 6.703125 -1.71875 L 6.875 -1.671875 L 7.125 -0.046875 C 6.96875 0.046875 6.75 0.117188 6.46875 0.171875 C 6.1875 0.234375 5.882812 0.265625 5.5625 0.265625 Z M 5.5625 0.265625 "/></g></g></g><g fill="#ffffff" fill-opacity="1"><g transform="translate(125.685355, 179.315857)"><g><path d="M 6.90625 0.265625 C 5.320312 0.265625 4.144531 -0.148438 3.375 -0.984375 C 2.601562 -1.828125 2.21875 -3.050781 2.21875 -4.65625 L 2.21875 -13.984375 L 4.28125 -13.984375 L 4.28125 -4.71875 C 4.28125 -2.59375 5.28125 -1.53125 7.28125 -1.53125 C 8.539062 -1.53125 9.535156 -1.941406 10.265625 -2.765625 C 11.003906 -3.597656 11.375 -4.945312 11.375 -6.8125 L 11.375 -13.984375 L 13.453125 -13.984375 L 13.453125 0 L 11.5 0 L 11.5 -2.1875 L 11.234375 -2.25 C 10.742188 -1.394531 10.160156 -0.757812 9.484375 -0.34375 C 8.816406 0.0625 7.957031 0.265625 6.90625 0.265625 Z M 6.90625 0.265625 "/></g></g></g><g fill="#ffffff" fill-opacity="1"><g transform="translate(141.558406, 179.315857)"><g><path d="M 8.015625 0.265625 C 6.703125 0.265625 5.554688 -0.0078125 4.578125 -0.5625 C 3.609375 -1.125 2.859375 -1.945312 2.328125 -3.03125 C 1.796875 -4.113281 1.53125 -5.429688 1.53125 -6.984375 C 1.53125 -8.523438 1.796875 -9.84375 2.328125 -10.9375 C 2.859375 -12.03125 3.609375 -12.851562 4.578125 -13.40625 C 5.554688 -13.96875 6.703125 -14.25 8.015625 -14.25 C 9.335938 -14.25 10.484375 -13.96875 11.453125 -13.40625 C 12.429688 -12.851562 13.1875 -12.03125 13.71875 -10.9375 C 14.25 -9.84375 14.515625 -8.523438 14.515625 -6.984375 C 14.515625 -5.429688 14.25 -4.113281 13.71875 -3.03125 C 13.1875 -1.945312 12.429688 -1.125 11.453125 -0.5625 C 10.484375 -0.0078125 9.335938 0.265625 8.015625 0.265625 Z M 8.015625 -1.578125 C 9.410156 -1.578125 10.476562 -2.015625 11.21875 -2.890625 C 11.957031 -3.773438 12.328125 -5.140625 12.328125 -6.984375 C 12.328125 -8.828125 11.957031 -10.1875 11.21875 -11.0625 C 10.476562 -11.945312 9.410156 -12.390625 8.015625 -12.390625 C 6.628906 -12.390625 5.5625 -11.945312 4.8125 -11.0625 C 4.070312 -10.1875 3.703125 -8.828125 3.703125 -6.984375 C 3.703125 -5.140625 4.070312 -3.773438 4.8125 -2.890625 C 5.5625 -2.015625 6.628906 -1.578125 8.015625 -1.578125 Z M 8.015625 -1.578125 "/></g></g></g><g fill="#ffffff" fill-opacity="1"><g transform="translate(157.596142, 179.315857)"><g><path d="M 6.375 0.265625 C 5.5 0.265625 4.6875 0.148438 3.9375 -0.078125 C 3.1875 -0.316406 2.550781 -0.632812 2.03125 -1.03125 C 1.519531 -1.4375 1.160156 -1.894531 0.953125 -2.40625 L 2.171875 -3.671875 L 2.4375 -3.671875 C 2.894531 -2.984375 3.441406 -2.460938 4.078125 -2.109375 C 4.722656 -1.753906 5.488281 -1.578125 6.375 -1.578125 C 7.40625 -1.578125 8.1875 -1.773438 8.71875 -2.171875 C 9.257812 -2.578125 9.53125 -3.140625 9.53125 -3.859375 C 9.53125 -4.410156 9.363281 -4.863281 9.03125 -5.21875 C 8.707031 -5.582031 8.1875 -5.851562 7.46875 -6.03125 L 5.109375 -6.609375 C 3.847656 -6.921875 2.925781 -7.40625 2.34375 -8.0625 C 1.769531 -8.71875 1.484375 -9.53125 1.484375 -10.5 C 1.484375 -11.257812 1.675781 -11.921875 2.0625 -12.484375 C 2.457031 -13.046875 3.019531 -13.476562 3.75 -13.78125 C 4.476562 -14.09375 5.34375 -14.25 6.34375 -14.25 C 7.632812 -14.25 8.648438 -14.066406 9.390625 -13.703125 C 10.128906 -13.347656 10.703125 -12.847656 11.109375 -12.203125 L 9.953125 -11.0625 L 9.6875 -11.0625 C 9.238281 -11.582031 8.75 -11.953125 8.21875 -12.171875 C 7.695312 -12.398438 7.070312 -12.515625 6.34375 -12.515625 C 5.425781 -12.515625 4.722656 -12.347656 4.234375 -12.015625 C 3.742188 -11.691406 3.5 -11.21875 3.5 -10.59375 C 3.5 -10.03125 3.671875 -9.570312 4.015625 -9.21875 C 4.359375 -8.875 4.960938 -8.597656 5.828125 -8.390625 L 8.140625 -7.828125 C 9.359375 -7.546875 10.238281 -7.070312 10.78125 -6.40625 C 11.320312 -5.738281 11.59375 -4.898438 11.59375 -3.890625 C 11.59375 -3.066406 11.394531 -2.34375 11 -1.71875 C 10.613281 -1.09375 10.03125 -0.601562 9.25 -0.25 C 8.46875 0.09375 7.507812 0.265625 6.375 0.265625 Z M 6.375 0.265625 "/></g></g></g><path stroke-linecap="butt" transform="matrix(0.000000000000000046, 0.748985, -0.748614, 0.000000000000000046, 72.207792, 236.802366)" fill="none" stroke-linejoin="miter" d="M -0.00211594 1.999502 L 346.837249 1.999502 " stroke="#000000" stroke-width="4" stroke-opacity="1" stroke-miterlimit="4"/><path stroke-linecap="butt" transform="matrix(-0.748351, -0.000000000000000092, 0.000000000000000092, -0.748614, 202.516622, 498.691697)" fill="none" stroke-linejoin="miter" d="M 0.00133223 1.998874 L 178.075183 1.998874 " stroke="#000000" stroke-width="4" stroke-opacity="1" stroke-miterlimit="4"/><path stroke-linecap="butt" transform="matrix(0.000000000000000046, -0.749064, 0.748614, 0.000000000000000046, 200.437699, 498.68784)" fill="none" stroke-linejoin="miter" d="M 0.000454044 1.99822 L 25.996447 1.99822 " stroke="#000000" stroke-width="4" stroke-opacity="1" stroke-miterlimit="4"/></svg>