<svg version="1.1" xmlns="http://www.w3.org/2000/svg" viewBox="0 0 336.734375 670.1874999999998" width="1010.203125" height="2010.5624999999993">
  <!-- svg-source:excalidraw -->
  
  <defs>
    <style>
      @font-face {
        font-family: "Virgil";
        src: url("https://excalidraw.com/Virgil.woff2");
      }
      @font-face {
        font-family: "Cascadia";
        src: url("https://excalidraw.com/Cascadia.woff2");
      }
    </style>
  </defs>
  <g stroke-linecap="round" transform="translate(218.25408402118046 311.2699813454631) rotate(0 44 27.923828125)"><path d="M1.46 -1.53 C22.01 0.31, 41.94 -0.56, 87.67 1.87 M0.59 0.62 C26.44 0.15, 51.32 0.65, 87.21 -0.09 M86.73 1.43 C86.84 14.7, 88.12 30.18, 87.47 57.32 M88.21 0.11 C88.42 16.91, 87.6 33.52, 87 56.84 M88.84 57.4 C53.88 56.25, 21.9 54.15, 0.94 55.98 M87.58 55.31 C60.41 55.58, 32.43 54.79, -0.54 56.74 M1.41 57.17 C1.05 43.62, -1.48 31.44, -1 0.6 M-0.42 55.44 C-0.61 39.63, -0.72 22.89, -0.09 0.8" stroke="#5c940d" stroke-width="1" fill="none"></path></g><g transform="translate(223.25408402118046 329.1938094704631) rotate(0 39 10)"><text x="39" y="14" font-family="Virgil, Segoe UI Emoji" font-size="16px" fill="#5c940d" text-anchor="middle" style="white-space: pre;" direction="ltr">micro-ROS</text></g><g stroke-linecap="round" transform="translate(86.740234375 106.189453125) rotate(0 79.515625 73.34765625)"><path d="M96.25 2.61 C107.3 3.69, 119.26 9.15, 128.4 15.62 C137.53 22.09, 145.86 31.85, 151.07 41.44 C156.28 51.03, 159.51 62.72, 159.65 73.16 C159.79 83.59, 156.73 94.68, 151.88 104.06 C147.04 113.43, 139.6 122.71, 130.61 129.43 C121.61 136.16, 109.23 141.73, 97.91 144.42 C86.59 147.1, 74.03 147.64, 62.7 145.54 C51.38 143.45, 39.12 138.53, 29.94 131.87 C20.76 125.21, 12.61 115.22, 7.63 105.57 C2.64 95.91, 0.1 84.36, 0.04 73.92 C-0.02 63.49, 2.38 52.49, 7.26 42.93 C12.14 33.38, 20.38 23.38, 29.31 16.59 C38.24 9.81, 48.75 4.44, 60.85 2.22 C72.95 0.01, 94.27 2.75, 101.91 3.29 C109.55 3.83, 107.06 4.51, 106.67 5.46 M117.92 9.55 C128.09 13.27, 138.55 21.33, 145.22 29.9 C151.89 38.47, 156.38 50.31, 157.94 60.97 C159.51 71.64, 157.73 83.71, 154.62 93.89 C151.5 104.07, 146.67 114.36, 139.26 122.07 C131.85 129.78, 120.85 136.2, 110.14 140.15 C99.42 144.11, 86.38 146.14, 74.96 145.79 C63.54 145.44, 51.67 143.14, 41.59 138.05 C31.52 132.97, 21.4 123.72, 14.53 115.29 C7.67 106.85, 2.53 97.51, 0.41 87.45 C-1.71 77.38, -1.55 65.16, 1.8 54.9 C5.16 44.64, 12.57 33.89, 20.54 25.89 C28.5 17.9, 39.08 11.37, 49.59 6.95 C60.1 2.53, 72.23 -0.84, 83.61 -0.63 C94.99 -0.43, 112.27 6.36, 117.87 8.17 C123.47 9.98, 117.92 9.16, 117.21 10.2" stroke="#5c940d" stroke-width="1" fill="none"></path></g><g transform="translate(91.740234375 169.537109375) rotate(0 74.5 10)"><text x="74.5" y="14" font-family="Virgil, Segoe UI Emoji" font-size="16px" fill="#5c940d" text-anchor="middle" style="white-space: pre;" direction="ltr">ROS2</text></g><g stroke-linecap="round" transform="translate(22.154296875 11.1484375) rotate(0 44 27.923828125)"><path d="M-1.51 -0.02 C19.32 1.49, 39.19 -0.22, 88.53 1.18 M-0.44 0.88 C31.1 -0.43, 63.51 -0.24, 88.52 -0.64 M88.07 -0.34 C87.13 22.21, 87.66 41.72, 87.64 56.28 M87.54 0.01 C87.2 18.38, 88.98 34.86, 88.27 56.27 M88.52 53.91 C55.72 56.05, 21.84 55.53, -1.03 55.01 M87.71 55.25 C65.83 56.9, 43.96 56.93, 0.44 56.55 M-0.96 56.32 C-1.43 36, -0.44 14.77, -1.23 -0.84 M-0.77 56.38 C0.28 42.17, -0.4 26.72, 0.75 -0.16" stroke="#5c940d" stroke-width="1" fill="none"></path></g><g transform="translate(27.154296875 29.072265625) rotate(0 39 10)"><text x="39" y="14" font-family="Virgil, Segoe UI Emoji" font-size="16px" fill="#5c940d" text-anchor="middle" style="white-space: pre;" direction="ltr">micro-ROS</text></g><g stroke-linecap="round" transform="translate(226.474609375 10) rotate(0 44 27.923828125)"><path d="M-0.33 1.87 C30.05 0.17, 60.87 1.19, 89.25 1.12 M-0.79 -0.09 C29.47 -0.69, 60.01 -1.41, 88.71 -0.6 M87.47 1.47 C88.02 15.44, 87.66 30.83, 88.22 56.55 M87 1 C88.53 17.69, 88.01 35.6, 88.78 55.44 M88.94 55.98 C61.15 54.6, 32.72 54.16, -1.08 55.95 M87.46 56.74 C59.21 56.24, 32.41 56.02, 0.66 56.63 M-1 56.45 C0.27 38.31, -0.96 20.3, -0.82 -1.33 M-0.09 56.64 C-0.34 35.97, 1.18 16.28, 0.31 -0.73" stroke="#5c940d" stroke-width="1" fill="none"></path></g><g transform="translate(231.474609375 27.923828125) rotate(0 39 10)"><text x="39" y="14" font-family="Virgil, Segoe UI Emoji" font-size="16px" fill="#5c940d" text-anchor="middle" style="white-space: pre;" direction="ltr">micro-ROS</text></g><g stroke-linecap="round" transform="translate(11.072265625 449.04882812500006) rotate(0 49 25)"><path d="M-0.12 0.16 C29.83 0.26, 59.85 0.2, 98.76 -0.88 M-0.27 0.09 C38.58 -0.55, 76.83 -0.51, 97.72 0.04 M98 0.24 C97.51 14.57, 98.09 28.99, 98.3 49.07 M98.79 0.1 C97.77 15.46, 98.28 29.67, 98.08 50.26 M98.28 49.6 C77.06 49.23, 57.09 50.17, 0.37 49.41 M97.23 50.92 C74.94 51.57, 51.65 51.65, 0.11 49.52 M0 49.81 C-0.98 32.98, -0.57 16.3, 1.06 -1.55 M-0.77 49.82 C0.79 32.19, 0.36 13.96, 0.66 -0.9" stroke="#5c940d" stroke-width="1" fill="none"></path></g><g transform="translate(16.072265625 454.04882812500006) rotate(0 44 20)"><text x="44" y="14" font-family="Virgil, Segoe UI Emoji" font-size="16px" fill="#5c940d" text-anchor="middle" style="white-space: pre;" direction="ltr">motor</text><text x="44" y="34" font-family="Virgil, Segoe UI Emoji" font-size="16px" fill="#5c940d" text-anchor="middle" style="white-space: pre;" direction="ltr">micro-ROS</text></g><g stroke-linecap="round" transform="translate(10 509.05859375000006) rotate(0 50.5 24.99999999999997)"><path d="M0.53 1.18 C41 1.04, 80.26 -0.96, 102.77 -1.58 M0.52 -0.64 C30.09 -0.69, 58.48 -0.06, 100.83 -0.26 M100.64 0.43 C101.22 19.37, 101.3 36.41, 101.01 48.01 M101.27 0.42 C102.17 19.58, 101.48 40.23, 100.03 50.47 M99.97 49.17 C68.94 49.9, 39.41 49.21, -1.2 48.93 M101.44 50.7 C62.39 51.72, 22.57 50.45, 0.24 49.5 M-1.23 49.16 C-0.81 32.17, 1.06 15.44, 1.06 -0.17 M0.75 49.84 C0.7 30.28, 1.04 11.13, -0.09 -0.57" stroke="#5c940d" stroke-width="1" fill="none"></path></g><g transform="translate(15 514.05859375) rotate(0 45.5 19.99999999999997)"><text x="45.5" y="14" font-family="Virgil, Segoe UI Emoji" font-size="16px" fill="#5c940d" text-anchor="middle" style="white-space: pre;" direction="ltr">motor</text><text x="45.5" y="34" font-family="Virgil, Segoe UI Emoji" font-size="16px" fill="#5c940d" text-anchor="middle" style="white-space: pre;" direction="ltr">micro-ROS</text></g><g stroke-linecap="round" transform="translate(228.27734375 480.06640624999994) rotate(0 46.5 25)"><path d="M1.25 1.12 C29.39 -1.43, 59.03 -2.13, 92.82 -0.54 M0.71 -0.6 C28.46 0.63, 57.31 0.33, 93.73 0 M93.22 0.7 C93.21 14.67, 92.92 29.21, 94.99 51.57 M93.78 -0.4 C93.22 15.77, 92.17 31.5, 93.07 50.14 M91.92 50.1 C67.31 49.02, 39.67 48.54, 1.78 48.45 M93.66 50.78 C56.6 50.17, 20.23 50.16, 0.3 50 M-0.82 48.67 C1.36 33.92, 1.37 20.77, 1.59 -1.54 M0.31 49.27 C0.28 34.98, -0.46 21.19, 0.19 -0.21" stroke="#5c940d" stroke-width="1" fill="none"></path></g><g transform="translate(233.27734375 485.06640624999994) rotate(0 41.5 20)"><text x="41.5" y="14" font-family="Virgil, Segoe UI Emoji" font-size="16px" fill="#5c940d" text-anchor="middle" style="white-space: pre;" direction="ltr">motor</text><text x="41.5" y="34" font-family="Virgil, Segoe UI Emoji" font-size="16px" fill="#5c940d" text-anchor="middle" style="white-space: pre;" direction="ltr">micro-ROS</text></g><g stroke-linecap="round" transform="translate(11.37109375 572.796875) rotate(0 50.5 25)"><path d="M0.76 -0.88 C38.02 -2.15, 72.33 -1.1, 101.18 1.05 M-0.28 0.04 C23.7 0.34, 48.47 0.61, 101.12 -0.18 M101.3 -0.93 C101.07 14.08, 103.05 33.72, 101.2 50.55 M101.08 0.26 C100.42 17.58, 101.45 34.35, 100.8 49.49 M101.37 49.41 C73.71 48.98, 50.59 48.51, 1.85 50.88 M101.11 49.52 C63.82 50.29, 26.47 50.79, -0.09 49.39 M1.06 48.45 C1.26 36.92, 1.8 22.65, -0.35 1.49 M0.66 49.1 C-0.25 35.2, 0.03 21.34, 0.16 -0.33" stroke="#5c940d" stroke-width="1" fill="none"></path></g><g transform="translate(16.37109375 577.796875) rotate(0 45.5 20)"><text x="45.5" y="14" font-family="Virgil, Segoe UI Emoji" font-size="16px" fill="#5c940d" text-anchor="middle" style="white-space: pre;" direction="ltr">motor</text><text x="45.5" y="34" font-family="Virgil, Segoe UI Emoji" font-size="16px" fill="#5c940d" text-anchor="middle" style="white-space: pre;" direction="ltr">micro-ROS</text></g><g stroke-linecap="round" transform="translate(233.734375 610.1874999999998) rotate(0 44 25)"><path d="M1.77 -1.58 C31.14 -0.15, 62.82 1.44, 86.73 1.43 M-0.17 -0.26 C21.83 -0.03, 42.31 -0.21, 88.21 0.11 M88.01 -1.99 C90.07 18.33, 88.28 34.06, 88.84 51.55 M87.03 0.47 C88.11 13.13, 87.84 25.46, 87.58 49.46 M86.8 48.93 C62.92 48.2, 36.14 50.62, 1.41 51.32 M88.24 49.5 C55 49.58, 21.31 48.96, -0.42 49.59 M1.06 49.83 C1.33 36.79, -0.62 28.13, -0.31 0.63 M-0.09 49.43 C-0.14 38.46, -0.16 27.01, -0.39 0.9" stroke="#5c940d" stroke-width="1" fill="none"></path></g><g transform="translate(238.734375 615.1874999999998) rotate(0 39 20)"><text x="39" y="14" font-family="Virgil, Segoe UI Emoji" font-size="16px" fill="#5c940d" text-anchor="middle" style="white-space: pre;" direction="ltr">sensor</text><text x="39" y="34" font-family="Virgil, Segoe UI Emoji" font-size="16px" fill="#5c940d" text-anchor="middle" style="white-space: pre;" direction="ltr">micro-ROS</text></g><g stroke-linecap="round" transform="translate(231.734375 542.1875) rotate(0 47.5 25)"><path d="M-0.18 -0.54 C24.5 1.8, 47.36 2.18, 93.79 -0.56 M0.73 0 C28.96 0.07, 57.9 0.36, 95.35 0.15 M96.99 1.57 C95.21 13.22, 95.85 26.9, 94.19 50.17 M95.07 0.14 C94.32 15.8, 94.1 32.08, 95.05 50.18 M96.78 48.45 C71.15 50.37, 45 50.81, 1.57 50.21 M95.3 50 C70.98 48.91, 46.72 49.12, -0.66 50.53 M1.59 48.46 C-0.62 40.36, -0.58 28.37, -1.47 1.31 M0.19 49.79 C0.21 39.15, -0.35 29.85, -0.04 0.12" stroke="#5c940d" stroke-width="1" fill="none"></path></g><g transform="translate(236.734375 547.1875) rotate(0 42.5 20)"><text x="42.5" y="14" font-family="Virgil, Segoe UI Emoji" font-size="16px" fill="#5c940d" text-anchor="middle" style="white-space: pre;" direction="ltr">sensor</text><text x="42.5" y="34" font-family="Virgil, Segoe UI Emoji" font-size="16px" fill="#5c940d" text-anchor="middle" style="white-space: pre;" direction="ltr">micro-ROS</text></g><g stroke-linecap="round" transform="translate(220.734375 419.18750000000006) rotate(0 44 25)"><path d="M0.18 1.05 C18.17 1.66, 37.67 -0.32, 88.07 -0.34 M0.12 -0.18 C24.29 0.11, 48.5 0.15, 87.54 0.01 M88.2 0.55 C89.34 11.56, 87.69 20.19, 88.52 48.06 M87.8 -0.51 C87.62 16.81, 88.09 34.9, 87.71 49.4 M89.85 50.88 C67.73 50.64, 46.2 49.53, -0.96 50.47 M87.91 49.39 C65.57 49.59, 43.31 50.53, -0.77 50.53 M-0.35 51.49 C-0.71 36.06, -1.87 22.18, -1.79 -0.18 M0.16 49.67 C-0.49 38.76, -0.14 25.83, 0.89 -0.79" stroke="#5c940d" stroke-width="1" fill="none"></path></g><g transform="translate(225.734375 424.18750000000006) rotate(0 39 20)"><text x="39" y="14" font-family="Virgil, Segoe UI Emoji" font-size="16px" fill="#5c940d" text-anchor="middle" style="white-space: pre;" direction="ltr">sensor</text><text x="39" y="34" font-family="Virgil, Segoe UI Emoji" font-size="16px" fill="#5c940d" text-anchor="middle" style="white-space: pre;" direction="ltr">micro-ROS</text></g><g stroke-linecap="round"><g transform="translate(71.623046875 73.779296875) rotate(0 21.54795114522335 20.959766647242937)"><path d="M0.63 -0.76 C7.95 6.14, 36.63 34.35, 43.59 41.53 M-0.5 1.45 C6.77 8.48, 36.1 35.65, 43.1 42.68" stroke="#087f5b" stroke-width="1" fill="none"></path></g><g transform="translate(71.623046875 73.779296875) rotate(0 21.54795114522335 20.959766647242937)"><path d="M26.68 13.04 C19.27 7.82, 13.08 4.65, 0.1 0.7 M28.17 11.72 C20.09 8, 11.08 4.14, -0.37 0.23" stroke="#087f5b" stroke-width="1" fill="none"></path></g><g transform="translate(71.623046875 73.779296875) rotate(0 21.54795114522335 20.959766647242937)"><path d="M12.34 27.71 C8.83 18.4, 6.56 11.23, 0.1 0.7 M13.82 26.4 C10.03 18.29, 5.32 10.04, -0.37 0.23" stroke="#087f5b" stroke-width="1" fill="none"></path></g><g transform="translate(71.623046875 73.779296875) rotate(0 21.54795114522335 20.959766647242937)"><path d="M14.38 32 C21.95 33.18, 30.73 36.7, 42.57 44.15 M15.87 30.68 C24.25 34.4, 31.67 37.9, 42.1 43.68" stroke="#087f5b" stroke-width="1" fill="none"></path></g><g transform="translate(71.623046875 73.779296875) rotate(0 21.54795114522335 20.959766647242937)"><path d="M28.59 17.19 C32.29 22.49, 37.19 30.06, 42.57 44.15 M30.07 15.87 C34.22 24.01, 37.37 31.95, 42.1 43.68" stroke="#087f5b" stroke-width="1" fill="none"></path></g></g><g stroke-linecap="round"><g transform="translate(273.224609375 73.439453125) rotate(0 -24.197661316064114 23.783091799104582)"><path d="M-0.76 0.86 C-9.02 8.41, -41.45 38.41, -49.43 45.94 M1.04 0.26 C-6.84 7.93, -38.69 39.47, -47.1 47.31" stroke="#087f5b" stroke-width="1" fill="none"></path></g><g transform="translate(273.224609375 73.439453125) rotate(0 -24.197661316064114 23.783091799104582)"><path d="M-13.08 26.32 C-10.95 19.44, -6.49 10.6, 0.7 0.86 M-14.39 27.88 C-10.02 18.71, -5.87 9.85, 0.23 1.64" stroke="#087f5b" stroke-width="1" fill="none"></path></g><g transform="translate(273.224609375 73.439453125) rotate(0 -24.197661316064114 23.783091799104582)"><path d="M-27 11.25 C-20.5 9.12, -11.73 4.93, 0.7 0.86 M-28.32 12.81 C-19.63 8.31, -11.14 4.16, 0.23 1.64" stroke="#087f5b" stroke-width="1" fill="none"></path></g><g transform="translate(273.224609375 73.439453125) rotate(0 -24.197661316064114 23.783091799104582)"><path d="M-32.5 19.14 C-38.42 28.67, -42.27 36.4, -45.63 47.31 M-33.82 20.7 C-37.94 28.33, -42.19 36.2, -46.1 48.09" stroke="#087f5b" stroke-width="1" fill="none"></path></g><g transform="translate(273.224609375 73.439453125) rotate(0 -24.197661316064114 23.783091799104582)"><path d="M-18.26 33.91 C-28.65 38.78, -36.91 41.95, -45.63 47.31 M-19.57 35.47 C-28.11 38.52, -36.81 41.79, -46.1 48.09" stroke="#087f5b" stroke-width="1" fill="none"></path></g></g><g stroke-linecap="round"><g transform="translate(170.6288349795052 444.3319801625567) rotate(0 24.34054592387338 0.30158754674295096)"><path d="M-0.44 0.09 C7.63 0.06, 40.99 -0.23, 49.12 -0.11 M1.54 -0.91 C9.38 -0.72, 39.96 1.54, 48.18 1.51" stroke="#bd99ff" stroke-width="1" fill="none"></path></g><g transform="translate(170.6288349795052 444.3319801625567) rotate(0 24.34054592387338 0.30158754674295096)"><path d="M24.94 9.02 C33.5 5.08, 43.37 3.07, 49.97 1.65 M24.1 8.38 C30.64 6.67, 36.33 5.71, 48.16 1.51" stroke="#bd99ff" stroke-width="1" fill="none"></path></g><g transform="translate(170.6288349795052 444.3319801625567) rotate(0 24.34054592387338 0.30158754674295096)"><path d="M25.6 -7.76 C33.93 -5.66, 43.56 -1.62, 49.97 1.65 M24.76 -8.4 C30.98 -6.11, 36.51 -3.06, 48.16 1.51" stroke="#bd99ff" stroke-width="1" fill="none"></path></g></g><g stroke-linecap="round"><g transform="translate(169.2387813827204 474.5215948983634) rotate(0 -28.257982193305793 0.726445863115373)"><path d="M-0.27 -0.74 C-10.09 -0.53, -48.18 0.77, -57.98 0.95 M1.79 1.48 C-8.17 1.88, -48.04 2.26, -58.31 2.19" stroke="#bd99ff" stroke-width="1" fill="none"></path></g><g transform="translate(169.2387813827204 474.5215948983634) rotate(0 -28.257982193305793 0.726445863115373)"><path d="M-31.77 -6.04 C-42.04 -4.05, -53.53 -1.45, -58.05 3.48 M-31.24 -7.89 C-41.5 -5.02, -51.26 -0.36, -58.19 2.27" stroke="#bd99ff" stroke-width="1" fill="none"></path></g><g transform="translate(169.2387813827204 474.5215948983634) rotate(0 -28.257982193305793 0.726445863115373)"><path d="M-31.71 14.2 C-41.94 8.53, -53.46 3.45, -58.05 3.48 M-31.18 12.36 C-41.63 7.42, -51.42 4.27, -58.19 2.27" stroke="#bd99ff" stroke-width="1" fill="none"></path></g></g><g stroke-linecap="round"><g transform="translate(169.48350912863316 509.6644992114456) rotate(0 27.351541705127033 0.7027209685532512)"><path d="M-0.99 -0.78 C8.19 -0.46, 46.24 1.96, 55.7 2.19 M0.68 1.42 C9.63 1.36, 45.58 0.34, 54.61 0.32" stroke="#bd99ff" stroke-width="1" fill="none"></path></g><g transform="translate(169.48350912863316 509.6644992114456) rotate(0 27.351541705127033 0.7027209685532512)"><path d="M27.17 9.9 C38.4 6.71, 44.87 4.17, 53.74 0.6 M28.2 10.64 C35.12 9.34, 39.09 6.62, 53.86 0.49" stroke="#bd99ff" stroke-width="1" fill="none"></path></g><g transform="translate(169.48350912863316 509.6644992114456) rotate(0 27.351541705127033 0.7027209685532512)"><path d="M26.85 -9.25 C38.23 -5.74, 44.82 -1.58, 53.74 0.6 M27.88 -8.5 C34.98 -5.53, 39.02 -3.98, 53.86 0.49" stroke="#bd99ff" stroke-width="1" fill="none"></path></g></g><g stroke-linecap="round"><g transform="translate(169.92891362619434 536.051044775767) rotate(0 -27.66923379540924 0.2626516648145696)"><path d="M1.17 -0.92 C-8.17 -0.6, -46.36 1.43, -55.75 1.45 M0.33 1.21 C-9.17 1.26, -47.22 0.16, -56.51 -0.06" stroke="#bd99ff" stroke-width="1" fill="none"></path></g><g transform="translate(169.92891362619434 536.051044775767) rotate(0 -27.66923379540924 0.2626516648145696)"><path d="M-31.45 -8.38 C-36.72 -4.22, -49.25 -1.25, -54.55 1.83 M-30.14 -8.56 C-36.95 -6.01, -46.19 -4.09, -56.61 0.89" stroke="#bd99ff" stroke-width="1" fill="none"></path></g><g transform="translate(169.92891362619434 536.051044775767) rotate(0 -27.66923379540924 0.2626516648145696)"><path d="M-31.95 10.8 C-36.98 8.67, -49.35 5.33, -54.55 1.83 M-30.64 10.63 C-37.39 7.52, -46.49 3.78, -56.61 0.89" stroke="#bd99ff" stroke-width="1" fill="none"></path></g></g><g stroke-linecap="round"><g transform="translate(168.60112017604115 572.8005628055422) rotate(0 31.08450341033017 0.46839615315639094)"><path d="M0.91 -0.78 C11.25 -0.58, 51.87 -0.2, 62.25 0.2 M-0.08 1.43 C10.1 1.87, 50.86 1.74, 61.36 1.46" stroke="#bd99ff" stroke-width="1" fill="none"></path></g><g transform="translate(168.60112017604115 572.8005628055422) rotate(0 31.08450341033017 0.46839615315639094)"><path d="M32 12.26 C41.35 10.22, 52.59 3.85, 61.96 1.24 M32.76 12.7 C42.6 7.71, 53.07 5.64, 61.79 0.74" stroke="#bd99ff" stroke-width="1" fill="none"></path></g><g transform="translate(168.60112017604115 572.8005628055422) rotate(0 31.08450341033017 0.46839615315639094)"><path d="M31.74 -8.26 C41.01 -3.83, 52.33 -3.74, 61.96 1.24 M32.51 -7.82 C42.3 -5.59, 52.86 -0.45, 61.79 0.74" stroke="#bd99ff" stroke-width="1" fill="none"></path></g></g><g stroke-linecap="round"><g transform="translate(168.82274421466855 605.4803062912365) rotate(0 -25.453214172211688 0.012184272333854551)"><path d="M0.66 0.24 C-7.88 0.33, -41.92 -0.29, -50.61 -0.22 M-0.45 -0.68 C-9.21 -0.43, -43.47 0.29, -51.57 0.71" stroke="#bd99ff" stroke-width="1" fill="none"></path></g><g transform="translate(168.82274421466855 605.4803062912365) rotate(0 -25.453214172211688 0.012184272333854551)"><path d="M-27.7 -8.77 C-38.42 -6.74, -45.28 -2.77, -50.56 -0.6 M-28.22 -9.57 C-35.83 -6.14, -43.17 -3.2, -52.32 1.07" stroke="#bd99ff" stroke-width="1" fill="none"></path></g><g transform="translate(168.82274421466855 605.4803062912365) rotate(0 -25.453214172211688 0.012184272333854551)"><path d="M-27.12 8.53 C-37.93 4.42, -45.01 2.25, -50.56 -0.6 M-27.64 7.73 C-35.55 5.71, -43.07 3.19, -52.32 1.07" stroke="#bd99ff" stroke-width="1" fill="none"></path></g></g><g stroke-linecap="round"><g transform="translate(168.871689763851 640.2120679911852) rotate(0 31.12352302396232 0.6084420839665086)"><path d="M-0.19 1.06 C10.36 1.45, 53.17 1.59, 64 1.34 M-1.75 0.57 C8.6 0.74, 52.08 -0.23, 63.12 -0.25" stroke="#bd99ff" stroke-width="1" fill="none"></path></g><g transform="translate(168.871689763851 640.2120679911852) rotate(0 31.12352302396232 0.6084420839665086)"><path d="M36.83 10.59 C46.83 8.16, 53.84 3.1, 64.77 -0.49 M35.77 11.21 C44.51 7.03, 54.67 3.36, 62.89 -0.75" stroke="#bd99ff" stroke-width="1" fill="none"></path></g><g transform="translate(168.871689763851 640.2120679911852) rotate(0 31.12352302396232 0.6084420839665086)"><path d="M36.56 -9.93 C46.49 -5.05, 53.59 -2.79, 64.77 -0.49 M35.51 -9.31 C44.23 -6.55, 54.48 -3.28, 62.89 -0.75" stroke="#bd99ff" stroke-width="1" fill="none"></path></g></g><g stroke-linecap="round"><g transform="translate(168.51920316789983 641.4253490843606) rotate(0 21.68003808198671 -149.81857032065923)"><path d="M-1.06 -0.69 C-0.05 -78.43, -1.94 -157.83, -0.12 -299.78 M-0.69 0.15 C0.62 -65.53, -0.22 -132.73, -0.82 -298.34 M-1.77 -297.56 C13.1 -295.19, 27.53 -297.07, 44.69 -292.83 M-2.06 -299.06 C10.53 -296.95, 23.38 -295.32, 45.42 -293.14" stroke="#bd99ff" stroke-width="1" fill="none"></path></g><g transform="translate(168.51920316789983 641.4253490843606) rotate(0 21.68003808198671 -149.81857032065923)"><path d="M20.84 -288.31 C29.59 -288.56, 33.66 -290.83, 47.25 -294.75 M21.35 -287.17 C27.15 -287.76, 31.57 -290.54, 46.3 -292.79" stroke="#bd99ff" stroke-width="1" fill="none"></path></g><g transform="translate(168.51920316789983 641.4253490843606) rotate(0 21.68003808198671 -149.81857032065923)"><path d="M22.55 -304.53 C30.89 -300.48, 34.5 -298.46, 47.25 -294.75 M23.06 -303.39 C28.39 -300.4, 32.44 -299.59, 46.3 -292.79" stroke="#bd99ff" stroke-width="1" fill="none"></path></g></g><g stroke-linecap="round"><g transform="translate(214.97350253890977 320.87172690445254) rotate(0 -24.41631317763006 -30.510533554557696)"><path d="M-1.6 1.24 C-12.9 1.42, -24.85 0.15, -49.59 0.71 M0.75 0.49 C-13.28 0.96, -27.48 0.05, -47.81 0.84 M-47.4 0.62 C-46.81 -18.56, -46.12 -36.01, -46.98 -62.28 M-46.96 0.66 C-46.72 -11.72, -46.3 -25.23, -45.15 -60.73" stroke="#087f5b" stroke-width="1" fill="none"></path></g><g transform="translate(214.97350253890977 320.87172690445254) rotate(0 -24.41631317763006 -30.510533554557696)"><path d="M-31.61 12.13 C-23.84 10.29, -16.68 6.5, -3.57 1.55 M-29.26 11.38 C-21.58 8.57, -14.04 4.78, -1.8 1.68" stroke="#087f5b" stroke-width="1" fill="none"></path></g><g transform="translate(214.97350253890977 320.87172690445254) rotate(0 -24.41631317763006 -30.510533554557696)"><path d="M-31.16 -8.39 C-23.42 -5.07, -16.38 -3.7, -3.57 1.55 M-28.81 -9.14 C-21.18 -6.08, -13.77 -4, -1.8 1.68" stroke="#087f5b" stroke-width="1" fill="none"></path></g><g transform="translate(214.97350253890977 320.87172690445254) rotate(0 -24.41631317763006 -30.510533554557696)"><path d="M-37.4 -30.98 C-39.19 -37.81, -41.53 -46.34, -47.12 -60.42 M-35.04 -31.73 C-38.24 -39.73, -41.49 -48.91, -45.34 -60.29" stroke="#087f5b" stroke-width="1" fill="none"></path></g><g transform="translate(214.97350253890977 320.87172690445254) rotate(0 -24.41631317763006 -30.510533554557696)"><path d="M-57.91 -31.64 C-54.54 -38.17, -51.73 -46.53, -47.12 -60.42 M-55.55 -32.39 C-52.88 -40.31, -50.27 -49.31, -45.34 -60.29" stroke="#087f5b" stroke-width="1" fill="none"></path></g></g><g transform="translate(122.29241991111644 368.8890512228146) rotate(270.54356108839244 32 17.5)"><text x="0" y="25" font-family="Virgil, Segoe UI Emoji" font-size="28px" fill="#bd99ff" text-anchor="start" style="white-space: pre;" direction="ltr">Luos</text></g></svg>