<svg version="1.1" xmlns="http://www.w3.org/2000/svg" viewBox="0 0 312.3203125 674.1667391943786" width="936.9609375" height="2022.5002175831357">
  <!-- svg-source:excalidraw -->
  
  <defs>
    <style>
      @font-face {
        font-family: "Virgil";
        src: url("https://excalidraw.com/Virgil.woff2");
      }
      @font-face {
        font-family: "Cascadia";
        src: url("https://excalidraw.com/Cascadia.woff2");
      }
    </style>
  </defs>
  <g stroke-linecap="round" transform="translate(110.3671875 311.896484375) rotate(0 44 27.923828125)"><path d="M0.44 0.8 C18.88 1.71, 39.08 -0.81, 86.97 -0.09 M-0.88 0.73 C33.04 -0.29, 66.44 0.62, 87.22 -0.11 M88.18 -1.53 C88.73 16.19, 89.8 36.74, 86.71 55.84 M88.05 0.86 C88.28 18.29, 87.37 36.34, 87.88 55.9 M89.29 56.61 C56.36 53.86, 25.12 56.66, -1.63 56.79 M88.67 55.99 C55.34 55.57, 22.16 56.36, -0.86 55.65 M-0.81 57.74 C-1.01 35.75, -1.08 18.32, 0.31 1.6 M0.06 55.9 C-0.12 34.93, 0.39 14.87, 0.69 -0.31" stroke="#5c940d" stroke-width="1" fill="none"></path></g><g transform="translate(115.3671875 329.8203125) rotate(0 39 10)"><text x="39" y="14" font-family="Virgil, Segoe UI Emoji" font-size="16px" fill="#5c940d" text-anchor="middle" style="white-space: pre;" direction="ltr">micro-ROS</text></g><g stroke-linecap="round" transform="translate(74.5859375 106.189453125) rotate(0 79.515625 73.34765625)"><path d="M59.42 3.09 C69.59 -0.94, 82.12 -1.61, 93.2 0.31 C104.28 2.22, 116.55 8.22, 125.92 14.57 C135.29 20.93, 143.82 29.19, 149.43 38.42 C155.03 47.65, 158.88 59.29, 159.53 69.95 C160.19 80.62, 157.92 92.75, 153.35 102.43 C148.77 112.1, 140.77 121.14, 132.08 128 C123.4 134.86, 112.54 140.52, 101.23 143.59 C89.92 146.66, 75.49 148.15, 64.2 146.44 C52.92 144.72, 42.58 139.86, 33.53 133.3 C24.48 126.74, 15.6 116.48, 9.91 107.06 C4.22 97.64, -0.1 87.08, -0.61 76.79 C-1.12 66.5, 2.07 55.02, 6.86 45.32 C11.66 35.62, 18.53 25.87, 28.16 18.6 C37.8 11.34, 57.76 4.57, 64.69 1.72 C71.62 -1.13, 69.65 0.37, 69.73 1.51 M93.17 1.16 C104.46 1.98, 117.63 8.96, 127.11 15.19 C136.59 21.42, 144.58 29.21, 150.05 38.53 C155.52 47.85, 159.7 60.33, 159.96 71.11 C160.22 81.88, 156.14 93.5, 151.63 103.16 C147.12 112.83, 141.29 122.39, 132.88 129.1 C124.47 135.81, 112.54 140.71, 101.15 143.43 C89.75 146.16, 75.98 147.44, 64.5 145.45 C53.02 143.46, 41.61 137.78, 32.27 131.47 C22.93 125.16, 13.79 117.04, 8.48 107.59 C3.18 98.13, 0.75 85.43, 0.46 74.75 C0.17 64.06, 2.39 52.89, 6.74 43.5 C11.08 34.1, 18.01 25.07, 26.54 18.38 C35.07 11.68, 46.78 6.17, 57.91 3.32 C69.04 0.47, 87.14 1.38, 93.35 1.28 C99.55 1.17, 95.31 1.66, 95.14 2.7" stroke="#5c940d" stroke-width="1" fill="none"></path></g><g transform="translate(79.5859375 169.537109375) rotate(0 74.5 10)"><text x="74.5" y="14" font-family="Virgil, Segoe UI Emoji" font-size="16px" fill="#5c940d" text-anchor="middle" style="white-space: pre;" direction="ltr">ROS2</text></g><g stroke-linecap="round" transform="translate(10 11.1484375) rotate(0 44 27.923828125)"><path d="M0.32 -1.96 C23.84 0.4, 52.25 1.07, 88.9 1.46 M-0.05 -0.66 C30.66 -0.05, 59.08 -1.15, 88.27 0.34 M88.1 -1.03 C86.81 17.24, 86.65 32.11, 89.73 54.09 M87.81 0.21 C87.14 18.83, 87.52 38.78, 88.88 56.44 M88.53 56.2 C62.42 55.64, 41.3 55.23, -0.66 55.48 M87.71 56.81 C66.73 57.24, 46.55 55.84, -0.11 56.81 M-1.15 55.93 C2.05 35.71, -0.64 18.62, 0.92 1.14 M0.04 56.83 C0.49 37.49, -0.41 18.87, 0.81 -0.58" stroke="#5c940d" stroke-width="1" fill="none"></path></g><g transform="translate(15 29.072265625) rotate(0 39 10)"><text x="39" y="14" font-family="Virgil, Segoe UI Emoji" font-size="16px" fill="#5c940d" text-anchor="middle" style="white-space: pre;" direction="ltr">micro-ROS</text></g><g stroke-linecap="round" transform="translate(214.3203125 10) rotate(0 44 27.923828125)"><path d="M1.88 0.9 C21.89 -0.07, 42.18 0.58, 87.9 -1.31 M-0.53 0.27 C35.03 0.2, 68.56 1.16, 88.05 -0.52 M87.96 1.73 C86.56 15.69, 87.56 28.68, 87.63 56.27 M87.94 0.88 C88.26 12.84, 88.31 26.9, 88.26 56.02 M86.86 55.18 C69.73 54.89, 50.99 57.81, -0.58 57.77 M87.25 55.74 C64.7 56.84, 38.75 57.27, -0.57 55.89 M1.5 56.77 C1.36 35.17, 1.71 12.29, 0.08 1.96 M0.2 56.66 C-0.71 34.21, 0.43 13.04, 0.81 -0.09" stroke="#5c940d" stroke-width="1" fill="none"></path></g><g transform="translate(219.3203125 27.923828125) rotate(0 39 10)"><text x="39" y="14" font-family="Virgil, Segoe UI Emoji" font-size="16px" fill="#5c940d" text-anchor="middle" style="white-space: pre;" direction="ltr">micro-ROS</text></g><g stroke-linecap="round" transform="translate(20.4375 449.048828125) rotate(0 38.240234375 25)"><path d="M1.61 1.61 C29.57 -1.23, 55.94 -1.63, 77.75 1.94 M-0.99 0.24 C28.71 -0.66, 57.07 -0.42, 77.42 0.93 M76.36 -0.96 C78.04 21.21, 75.38 39.92, 78.37 49.66 M76.16 0.62 C76.36 16.95, 76.21 32.61, 76.73 50.69 M77.29 49.73 C53.13 50.11, 24.39 49.75, 0.86 48.2 M77.38 49.76 C51.85 49.79, 27.18 49.77, 0.52 50.19 M-1.74 48.97 C1.62 33.2, 1.22 16.77, -0.08 -1.61 M0.5 50.64 C-0.16 30.72, 0.67 10.75, -0.97 0.76" stroke="#c92a2a" stroke-width="1" fill="none"></path></g><g transform="translate(25.4375 454.048828125) rotate(0 33 20)"><text x="33" y="14" font-family="Virgil, Segoe UI Emoji" font-size="16px" fill="#c92a2a" text-anchor="middle" style="white-space: pre;" direction="ltr">motor</text><text x="33" y="34" font-family="Virgil, Segoe UI Emoji" font-size="16px" fill="#c92a2a" text-anchor="middle" style="white-space: pre;" direction="ltr">board</text></g><g stroke-linecap="round" transform="translate(22.365234375 509.05859375) rotate(0 38.240234375 25)"><path d="M0.71 -1.07 C28.38 0.18, 56.7 -0.4, 78.23 1.12 M-0.67 0.37 C21.72 0.56, 41.73 0.84, 76.98 -0.67 M74.77 -0.55 C75.97 18.58, 75.38 36.05, 74.9 48.26 M76.33 -0.44 C76.49 14.8, 76.84 27.96, 76.64 49.16 M77.29 49.95 C56.72 50.38, 37.27 48.56, 0.27 49.7 M77.07 50.76 C52.79 49.72, 29.03 50.92, 0.9 49.39 M1.66 49 C-1.93 35.25, 1.24 23.53, -1.32 1.43 M-0.39 50.84 C-0.18 39.74, -1.29 27.29, 0.15 0.28" stroke="#c92a2a" stroke-width="1" fill="none"></path></g><g transform="translate(27.365234375 514.05859375) rotate(0 33 20)"><text x="33" y="14" font-family="Virgil, Segoe UI Emoji" font-size="16px" fill="#c92a2a" text-anchor="middle" style="white-space: pre;" direction="ltr">motor</text><text x="33" y="34" font-family="Virgil, Segoe UI Emoji" font-size="16px" fill="#c92a2a" text-anchor="middle" style="white-space: pre;" direction="ltr">board</text></g><g stroke-linecap="round" transform="translate(216.123046875 480.06640625) rotate(0 38.240234375 25)"><path d="M-1.12 1.75 C21.44 0.06, 40.34 -0.5, 75.14 0.74 M0.44 0.5 C27.22 0.99, 55.76 1.2, 75.63 -0.28 M75.72 -1.58 C74.79 13.41, 74.62 28.6, 76.17 49.13 M76.15 0.16 C75.97 16.9, 77.69 34.93, 76.89 49.97 M74.95 50.27 C55.92 49.72, 33.97 50.04, 1.19 51.53 M77.22 50.9 C54.5 49.24, 33.68 50.02, 0.83 49.5 M-0.52 48.68 C1.87 38.32, 1.63 27.8, -0.77 1.69 M-0.58 50.15 C-0.12 35.28, 0.18 19.14, -0.32 -0.03" stroke="#c92a2a" stroke-width="1" fill="none"></path></g><g transform="translate(221.123046875 485.06640625) rotate(0 33 20)"><text x="33" y="14" font-family="Virgil, Segoe UI Emoji" font-size="16px" fill="#c92a2a" text-anchor="middle" style="white-space: pre;" direction="ltr">motor</text><text x="33" y="34" font-family="Virgil, Segoe UI Emoji" font-size="16px" fill="#c92a2a" text-anchor="middle" style="white-space: pre;" direction="ltr">board</text></g><g stroke-linecap="round" transform="translate(23.736328125 572.796875) rotate(0 38.240234375 25)"><path d="M-1.05 -1.34 C27.99 1.4, 54.79 -0.71, 77.36 0.99 M0.89 -0.85 C17.55 -0.24, 35.75 -0.53, 76.1 -0.79 M77.57 -0.31 C75.52 11.62, 77.7 22.99, 75.83 50.32 M76.59 0.41 C76.2 10.45, 76.37 21.05, 75.72 50.14 M76.94 51.19 C56.22 48.83, 32 48.3, 1.49 51.79 M76.86 50.83 C57.67 48.98, 38.97 50.56, -0.26 49.34 M-2 49.23 C2.08 31.67, 2 10.87, -1.16 0.31 M0.32 49.68 C-0.47 33.27, -0.42 17.15, -0.16 -0.22" stroke="#c92a2a" stroke-width="1" fill="none"></path></g><g transform="translate(28.736328125 577.796875) rotate(0 33 20)"><text x="33" y="14" font-family="Virgil, Segoe UI Emoji" font-size="16px" fill="#c92a2a" text-anchor="middle" style="white-space: pre;" direction="ltr">motor</text><text x="33" y="34" font-family="Virgil, Segoe UI Emoji" font-size="16px" fill="#c92a2a" text-anchor="middle" style="white-space: pre;" direction="ltr">board</text></g><g stroke-linecap="round" transform="translate(221.580078125 610.1875) rotate(0 38.240234375 25)"><path d="M-0.82 0.88 C26.78 -1.45, 52.93 -0.15, 78.26 -1.71 M-0.55 -0.38 C20.04 -0.93, 41.48 -1.02, 77.02 -0.15 M78.16 -0.66 C77.04 11.14, 75.71 27.41, 76.7 50.81 M75.93 -0.76 C76.44 14.72, 76.38 28.76, 76.71 50.59 M75.54 51.49 C49.49 48.44, 18.1 49.54, 0.76 51.66 M77.09 49.74 C56.71 50.03, 37.46 49.91, -1 49.61 M-1.99 48.84 C0.25 31.34, 1.68 12.71, 0.64 -0.64 M-0.04 49.84 C-0.05 35.59, 0.97 21.14, -0.3 0.53" stroke="#c92a2a" stroke-width="1" fill="none"></path></g><g transform="translate(226.580078125 615.1875) rotate(0 33 20)"><text x="33" y="14" font-family="Virgil, Segoe UI Emoji" font-size="16px" fill="#c92a2a" text-anchor="middle" style="white-space: pre;" direction="ltr">sensor</text><text x="33" y="34" font-family="Virgil, Segoe UI Emoji" font-size="16px" fill="#c92a2a" text-anchor="middle" style="white-space: pre;" direction="ltr">board</text></g><g stroke-linecap="round" transform="translate(219.580078125 542.1875) rotate(0 38.240234375 25)"><path d="M-0.34 -1.9 C21.11 0.36, 39.18 1.63, 77.79 1.68 M-0.51 0.88 C20.55 1.05, 40.85 0.29, 76.63 -0.55 M76.62 -1.99 C77.01 12.37, 78.08 21.95, 75.57 49.06 M76.08 -0.06 C77.31 19.54, 76.43 36.45, 75.59 50.61 M74.91 51.19 C53.53 49.77, 36.26 50.78, 1.61 48.01 M77.35 50.58 C58.28 49.89, 39.42 49.89, 0.02 49.96 M1.62 51.64 C-0.5 36.84, 1.38 21.56, -0.14 -1.9 M0.52 50.4 C-0.33 32.23, -0.38 15.23, -0.45 -0.56" stroke="#c92a2a" stroke-width="1" fill="none"></path></g><g transform="translate(224.580078125 547.1875) rotate(0 33 20)"><text x="33" y="14" font-family="Virgil, Segoe UI Emoji" font-size="16px" fill="#c92a2a" text-anchor="middle" style="white-space: pre;" direction="ltr">sensor</text><text x="33" y="34" font-family="Virgil, Segoe UI Emoji" font-size="16px" fill="#c92a2a" text-anchor="middle" style="white-space: pre;" direction="ltr">board</text></g><g stroke-linecap="round" transform="translate(208.580078125 419.1875) rotate(0 38.240234375 25)"><path d="M0.96 1.3 C28.77 -0.32, 54.51 -1.35, 75.46 1.77 M-0.35 0.15 C23.25 -0.74, 47.74 -0.13, 76.55 -0.99 M76.07 -0.91 C75.84 17.65, 78.57 31.11, 75.67 49.89 M75.5 -0.89 C77.5 16.65, 76.24 34.54, 75.69 50.59 M76.72 51.61 C59.19 49.49, 46.19 51.21, 1.74 51.16 M76.15 50.02 C51.05 49.82, 25.49 50.41, 0.81 50.82 M0.01 49.86 C-2.16 37.62, -1.71 24.45, 1.05 0.8 M0.75 49.55 C-0.56 37.8, 0.87 27.13, 0.44 0.65" stroke="#c92a2a" stroke-width="1" fill="none"></path></g><g transform="translate(213.580078125 424.1875) rotate(0 33 20)"><text x="33" y="14" font-family="Virgil, Segoe UI Emoji" font-size="16px" fill="#c92a2a" text-anchor="middle" style="white-space: pre;" direction="ltr">sensor</text><text x="33" y="34" font-family="Virgil, Segoe UI Emoji" font-size="16px" fill="#c92a2a" text-anchor="middle" style="white-space: pre;" direction="ltr">board</text></g><g stroke-linecap="round"><g transform="translate(59.46875 73.779296875) rotate(0 20.304741882733055 21.69166300271638)"><path d="M-0.12 0.5 C6.92 7.72, 35.16 35.39, 42.26 42.17 M-1.65 -0.29 C5.19 7.24, 33.86 36.62, 41.05 43.67" stroke="#087f5b" stroke-width="1" fill="none"></path></g><g transform="translate(59.46875 73.779296875) rotate(0 20.304741882733055 21.69166300271638)"><path d="M27.97 12.21 C18.91 8.71, 9.1 7.4, -1.94 1.42 M28.03 12.41 C16.79 8.05, 7.21 3.45, -0.89 1.36" stroke="#087f5b" stroke-width="1" fill="none"></path></g><g transform="translate(59.46875 73.779296875) rotate(0 20.304741882733055 21.69166300271638)"><path d="M13.55 26.8 C8.98 18.92, 3.52 13.21, -1.94 1.42 M13.61 27.01 C7.73 17.24, 3.57 7.14, -0.89 1.36" stroke="#087f5b" stroke-width="1" fill="none"></path></g><g transform="translate(59.46875 73.779296875) rotate(0 20.304741882733055 21.69166300271638)"><path d="M14.74 30.09 C21.85 34.29, 28.45 40.61, 39.24 44.59 M14.8 30.3 C24.14 35.73, 35.02 40.63, 40.28 44.53" stroke="#087f5b" stroke-width="1" fill="none"></path></g><g transform="translate(59.46875 73.779296875) rotate(0 20.304741882733055 21.69166300271638)"><path d="M29.3 15.63 C31.87 24.18, 34.08 34.86, 39.24 44.59 M29.36 15.84 C33.29 26.63, 38.69 36.98, 40.28 44.53" stroke="#087f5b" stroke-width="1" fill="none"></path></g></g><g stroke-linecap="round"><g transform="translate(261.0703125 73.439453125) rotate(0 -24.62832861956673 22.63647494145669)"><path d="M-1.13 0.06 C-9.58 7.45, -41.87 37.38, -49.74 45.24 M0.48 -0.96 C-7.69 6.47, -39.33 38.52, -47.57 46.23" stroke="#087f5b" stroke-width="1" fill="none"></path></g><g transform="translate(261.0703125 73.439453125) rotate(0 -24.62832861956673 22.63647494145669)"><path d="M-14.82 24.98 C-11.62 17.33, -3.14 4.81, -2.28 -0.32 M-15.4 27.19 C-11.4 19.59, -7.94 11.22, -1.78 -0.49" stroke="#087f5b" stroke-width="1" fill="none"></path></g><g transform="translate(261.0703125 73.439453125) rotate(0 -24.62832861956673 22.63647494145669)"><path d="M-28.72 9.89 C-20.14 8.08, -6.39 1.29, -2.28 -0.32 M-29.29 12.09 C-21.09 8.92, -13.56 4.96, -1.78 -0.49" stroke="#087f5b" stroke-width="1" fill="none"></path></g><g transform="translate(261.0703125 73.439453125) rotate(0 -24.62832861956673 22.63647494145669)"><path d="M-34.49 17.47 C-41.04 29.91, -42.71 37.75, -48.72 45.85 M-35.06 19.67 C-38.4 27.77, -42.77 35.1, -48.21 45.68" stroke="#087f5b" stroke-width="1" fill="none"></path></g><g transform="translate(261.0703125 73.439453125) rotate(0 -24.62832861956673 22.63647494145669)"><path d="M-20.14 32.14 C-32.24 38.89, -39.35 41.16, -48.72 45.85 M-20.71 34.34 C-28.39 38.13, -36.96 41.17, -48.21 45.68" stroke="#087f5b" stroke-width="1" fill="none"></path></g></g><g stroke-linecap="round"><g transform="translate(155.46875 304.787109375) rotate(0 0.732522324058209 -21.91747165198902)"><path d="M0.7 -0.36 C1.07 -7.47, 1.84 -34.72, 1.85 -41.62 M-0.39 -1.6 C-0.1 -8.54, 1.13 -36.42, 1.15 -43.47" stroke="#087f5b" stroke-width="1" fill="none"></path></g><g transform="translate(155.46875 304.787109375) rotate(0 0.732522324058209 -21.91747165198902)"><path d="M-6.49 -19.62 C-3.08 -16.03, -1.55 -7.97, 1.02 0.04 M-6.31 -19.66 C-3.38 -13.32, -1.3 -4.03, -0.2 -1.34" stroke="#087f5b" stroke-width="1" fill="none"></path></g><g transform="translate(155.46875 304.787109375) rotate(0 0.732522324058209 -21.91747165198902)"><path d="M7.92 -19.16 C7.44 -15.61, 5.09 -7.68, 1.02 0.04 M8.1 -19.2 C5.4 -13.02, 1.85 -3.91, -0.2 -1.34" stroke="#087f5b" stroke-width="1" fill="none"></path></g><g transform="translate(155.46875 304.787109375) rotate(0 0.732522324058209 -21.91747165198902)"><path d="M7.22 -22.71 C6.72 -29.82, 4.68 -32.54, 1.46 -43.07 M7.4 -22.75 C4.84 -32.03, 1.73 -38.37, 0.24 -44.45" stroke="#087f5b" stroke-width="1" fill="none"></path></g><g transform="translate(155.46875 304.787109375) rotate(0 0.732522324058209 -21.91747165198902)"><path d="M-7.19 -23.09 C-3.81 -30.18, -1.97 -32.8, 1.46 -43.07 M-7.01 -23.13 C-3.94 -32.28, -1.42 -38.48, 0.24 -44.45" stroke="#087f5b" stroke-width="1" fill="none"></path></g></g><g stroke-linecap="round"><g transform="translate(155.25659049361263 371.693359375) rotate(0 -0.006125088202736606 146.20063013488164)"><path d="M-0.88 0.64 C-0.73 49.24, 0.19 242.61, 0.26 291.1 M0.86 -0.07 C0.92 48.75, -0.18 243.63, -0.58 292.47" stroke="#bd99ff" stroke-width="1" fill="none"></path></g></g><g stroke-linecap="round"><g transform="translate(101.8203125 476.197265625) rotate(0 27.94129137620331 1.5228437708268814)"><path d="M-1.08 1.11 C8.31 1.72, 47.45 2.16, 56.96 2.44 M0.55 0.65 C9.72 1, 46.35 0.55, 55.97 0.61" stroke="#bd99ff" stroke-width="1" fill="none"></path></g><g transform="translate(101.8203125 476.197265625) rotate(0 27.94129137620331 1.5228437708268814)"><path d="M58.24 -6.3 C59.7 -6.06, 61.37 -5.34, 62.41 -4.03 C63.45 -2.71, 64.61 -0.22, 64.5 1.59 C64.4 3.41, 63.04 5.63, 61.79 6.87 C60.54 8.11, 58.9 8.9, 57 9.05 C55.1 9.2, 52.03 8.94, 50.38 7.77 C48.73 6.6, 47.39 3.61, 47.12 2.02 C46.85 0.44, 47.77 -0.39, 48.75 -1.74 C49.73 -3.09, 51.27 -5.19, 52.99 -6.07 C54.72 -6.96, 58.18 -7.06, 59.1 -7.04 C60.03 -7.02, 58.63 -6.09, 58.53 -5.97 M55.88 -7.39 C57.67 -7.39, 60.17 -6.88, 61.32 -5.56 C62.46 -4.24, 62.33 -1.47, 62.76 0.54 C63.19 2.54, 64.53 5.38, 63.9 6.45 C63.27 7.52, 61.11 6.87, 58.96 6.95 C56.81 7.04, 52.73 7.29, 50.99 6.98 C49.25 6.66, 49.18 6.71, 48.5 5.07 C47.81 3.43, 46.26 -1.1, 46.88 -2.88 C47.51 -4.67, 50.4 -4.97, 52.26 -5.64 C54.12 -6.31, 57.37 -6.75, 58.02 -6.89 C58.68 -7.04, 56.35 -6.43, 56.21 -6.53" stroke="none" stroke-width="0" fill="#bd99ff"></path></g></g><g stroke-linecap="round"><g transform="translate(103.06640625 537.990234375) rotate(0 25.074005743316405 0.29924885843880134)"><path d="M0.62 0.24 C9.02 0.08, 42.55 -0.04, 50.66 0.06 M-0.51 -0.69 C7.74 -0.17, 41.24 0.79, 49.92 1.29" stroke="#bd99ff" stroke-width="1" fill="none"></path></g><g transform="translate(103.06640625 537.990234375) rotate(0 25.074005743316405 0.29924885843880134)"><path d="M49.04 -7.82 C50.59 -8.2, 52.46 -7.41, 53.82 -6.44 C55.18 -5.47, 56.51 -3.65, 57.22 -2.01 C57.92 -0.37, 58.55 1.63, 58.04 3.4 C57.54 5.18, 55.68 7.66, 54.18 8.63 C52.68 9.61, 50.86 9.51, 49.05 9.25 C47.24 8.99, 44.47 8.44, 43.34 7.07 C42.2 5.7, 42.32 2.68, 42.23 1.03 C42.14 -0.63, 41.72 -1.65, 42.79 -2.85 C43.86 -4.05, 47.6 -5.49, 48.66 -6.17 C49.72 -6.84, 48.98 -7.05, 49.16 -6.89 M51.13 -7 C52.84 -6.5, 56.31 -4.67, 57.58 -3.27 C58.84 -1.87, 59.15 -0.47, 58.7 1.39 C58.24 3.25, 56.38 6.36, 54.84 7.89 C53.31 9.43, 50.87 10.55, 49.5 10.6 C48.13 10.65, 47.97 9.16, 46.62 8.18 C45.27 7.2, 41.85 6.4, 41.4 4.73 C40.94 3.07, 43.09 -0.18, 43.89 -1.84 C44.69 -3.5, 44.61 -4.49, 46.2 -5.23 C47.79 -5.98, 52.67 -5.94, 53.44 -6.31 C54.21 -6.69, 50.99 -7.28, 50.84 -7.46" stroke="none" stroke-width="0" fill="#bd99ff"></path></g></g><g stroke-linecap="round"><g transform="translate(204.0859375 446.833984375) rotate(0 -24.195089655416098 -0.5892971420666981)"><path d="M-1.13 -0.02 C-9.21 0.23, -40.56 0.49, -48.47 0.31 M0.48 -1.08 C-7.67 -1.08, -40.63 -1.67, -48.87 -1.53" stroke="#bd99ff" stroke-width="1" fill="none"></path></g><g transform="translate(204.0859375 446.833984375) rotate(0 -24.195089655416098 -0.5892971420666981)"><path d="M-45.86 -7.88 C-44.57 -7.17, -43.12 -6.24, -42.49 -4.75 C-41.86 -3.25, -41.61 -0.52, -42.08 1.1 C-42.54 2.72, -44.09 4.2, -45.27 4.97 C-46.44 5.74, -47.44 6.01, -49.13 5.73 C-50.81 5.46, -54.04 4.36, -55.38 3.34 C-56.72 2.32, -57.13 1.12, -57.17 -0.38 C-57.22 -1.89, -56.85 -4.19, -55.68 -5.67 C-54.51 -7.16, -52.12 -8.86, -50.14 -9.3 C-48.16 -9.75, -45.09 -8.89, -43.8 -8.35 C-42.51 -7.81, -42.44 -6.2, -42.41 -6.04 M-50.77 -8.26 C-49.42 -8.27, -47.13 -7.88, -45.38 -7.04 C-43.63 -6.19, -41.14 -4.66, -40.27 -3.19 C-39.39 -1.71, -39.43 0.29, -40.11 1.82 C-40.8 3.35, -42.83 5.36, -44.36 5.99 C-45.89 6.61, -47.69 6.12, -49.3 5.56 C-50.9 5, -52.61 3.56, -54 2.62 C-55.39 1.68, -57.69 1.18, -57.64 -0.09 C-57.59 -1.36, -54.88 -3.66, -53.71 -5.01 C-52.53 -6.36, -50.92 -7.47, -50.59 -8.2 C-50.26 -8.93, -51.7 -9.15, -51.72 -9.39" stroke="none" stroke-width="0" fill="#bd99ff"></path></g></g><g stroke-linecap="round"><g transform="translate(104.64399151623502 602.177734375) rotate(0 25.159188086423114 0.7122899713909874)"><path d="M0.83 1.14 C9.36 1.42, 42.44 1.77, 50.51 1.67 M-0.19 0.7 C8.29 0.61, 41.84 -0.38, 49.89 -0.25" stroke="#bd99ff" stroke-width="1" fill="none"></path></g><g transform="translate(104.64399151623502 602.177734375) rotate(0 25.159188086423114 0.7122899713909874)"><path d="M52.93 -7.03 C54.4 -6.69, 56.36 -5.69, 57.23 -4.4 C58.1 -3.11, 58.62 -1.17, 58.12 0.7 C57.63 2.57, 55.51 5.5, 54.27 6.81 C53.03 8.13, 52.28 8.68, 50.68 8.6 C49.08 8.51, 46.23 7.63, 44.67 6.3 C43.11 4.98, 41.61 2.56, 41.32 0.63 C41.03 -1.31, 41.97 -3.78, 42.93 -5.32 C43.89 -6.86, 45.01 -8.48, 47.07 -8.6 C49.13 -8.72, 53.77 -6.65, 55.27 -6.05 C56.77 -5.44, 56.26 -5.13, 56.08 -4.98 M48.91 -7.88 C50.61 -8.22, 54.61 -7.38, 56.1 -6.3 C57.59 -5.22, 57.75 -3.13, 57.84 -1.4 C57.93 0.34, 57.46 2.55, 56.63 4.1 C55.8 5.66, 54.25 7.4, 52.87 7.91 C51.5 8.43, 50 7.98, 48.38 7.21 C46.76 6.44, 44.39 4.58, 43.14 3.29 C41.88 2, 40.43 0.82, 40.84 -0.53 C41.25 -1.87, 44.01 -3.5, 45.59 -4.79 C47.17 -6.07, 49.43 -7.44, 50.3 -8.23 C51.17 -9.01, 50.85 -9.56, 50.83 -9.48" stroke="none" stroke-width="0" fill="#bd99ff"></path></g></g><g stroke-linecap="round"><g transform="translate(210.30078125 571.279296875) rotate(0 -27.152334973313828 -1.0877042657460834)"><path d="M0.84 -0.48 C-8.16 -0.43, -45.08 -0.07, -54.44 -0.09 M-0.18 -1.77 C-9.26 -2.03, -45.78 -2.29, -55.14 -1.85" stroke="#bd99ff" stroke-width="1" fill="none"></path></g><g transform="translate(210.30078125 571.279296875) rotate(0 -27.152334973313828 -1.0877042657460834)"><path d="M-53.26 -9.97 C-51.92 -9.55, -50.7 -7.49, -49.6 -5.88 C-48.51 -4.26, -46.76 -1.88, -46.67 -0.28 C-46.58 1.31, -47.92 2.81, -49.07 3.7 C-50.22 4.59, -51.89 4.93, -53.58 5.05 C-55.28 5.17, -57.85 5.05, -59.23 4.41 C-60.61 3.77, -61.26 2.96, -61.88 1.21 C-62.51 -0.55, -63.67 -4.5, -62.98 -6.12 C-62.29 -7.74, -59.66 -8.13, -57.74 -8.52 C-55.83 -8.91, -52.69 -8.5, -51.48 -8.48 C-50.26 -8.46, -50.31 -8.57, -50.45 -8.39 M-55.84 -9.91 C-54.36 -10.47, -52.09 -9.91, -50.95 -8.99 C-49.81 -8.06, -49.43 -6.06, -49 -4.37 C-48.57 -2.68, -48.21 -0.34, -48.38 1.14 C-48.54 2.62, -48.65 3.49, -50 4.51 C-51.35 5.54, -54.81 7.68, -56.48 7.3 C-58.15 6.92, -58.81 3.76, -60.02 2.21 C-61.23 0.66, -63.6 -0.39, -63.74 -2.01 C-63.88 -3.64, -62.27 -6.24, -60.85 -7.56 C-59.43 -8.88, -55.95 -9.83, -55.2 -9.95 C-54.45 -10.07, -56.06 -8.5, -56.35 -8.28" stroke="none" stroke-width="0" fill="#bd99ff"></path></g></g><g stroke-linecap="round"><g transform="translate(216.34765625 508.388671875) rotate(0 -31.33279966723643 0.3306630206946295)"><path d="M-0.2 -0.04 C-10.65 0.01, -51.66 0.04, -62.03 0.29 M-1.77 -1.11 C-12.34 -0.86, -52.28 1.64, -62.46 1.77" stroke="#bd99ff" stroke-width="1" fill="none"></path></g><g transform="translate(216.34765625 508.388671875) rotate(0 -31.33279966723643 0.3306630206946295)"><path d="M-64.98 -6.21 C-63.21 -6.86, -60.33 -6.75, -58.7 -5.94 C-57.07 -5.14, -55.87 -2.94, -55.21 -1.39 C-54.55 0.16, -54.23 1.95, -54.74 3.36 C-55.24 4.77, -56.93 6.14, -58.23 7.08 C-59.53 8.03, -60.82 8.81, -62.54 9.04 C-64.26 9.27, -67.35 9.4, -68.55 8.45 C-69.74 7.5, -69.69 5, -69.72 3.35 C-69.74 1.7, -69.82 0.01, -68.69 -1.43 C-67.55 -2.87, -64.22 -4.46, -62.9 -5.29 C-61.58 -6.12, -60.68 -6.37, -60.74 -6.4 M-57.57 -4.98 C-55.87 -4.64, -54.85 -3.82, -54.53 -2.24 C-54.2 -0.67, -55.12 2.69, -55.62 4.47 C-56.13 6.25, -56.46 7.7, -57.56 8.43 C-58.65 9.17, -60.5 9.15, -62.17 8.86 C-63.85 8.57, -66 7.72, -67.59 6.71 C-69.19 5.7, -71.38 4.23, -71.74 2.78 C-72.1 1.32, -71.25 -0.41, -69.77 -2.03 C-68.3 -3.66, -64.98 -6.36, -62.9 -6.99 C-60.82 -7.62, -58.23 -6.07, -57.3 -5.8 C-56.36 -5.53, -57.23 -5.52, -57.28 -5.36" stroke="none" stroke-width="0" fill="#bd99ff"></path></g></g><g stroke-linecap="round"><g transform="translate(216.50390625 634.740234375) rotate(0 -31.57747598066925 1.5387944395188242)"><path d="M1.01 1.2 C-9.76 1.47, -53.59 1.06, -64.17 1.37 M0.09 0.78 C-10.35 1.17, -51.43 2.26, -61.9 2.3" stroke="#bd99ff" stroke-width="1" fill="none"></path></g><g transform="translate(216.50390625 634.740234375) rotate(0 -31.57747598066925 1.5387944395188242)"><path d="M-59.94 -5.83 C-58.34 -5.37, -55.77 -3.11, -54.77 -1.38 C-53.77 0.34, -53.54 2.8, -53.93 4.53 C-54.32 6.25, -55.75 8.12, -57.1 8.95 C-58.45 9.78, -60.45 9.68, -62.02 9.5 C-63.6 9.32, -65.35 8.68, -66.54 7.87 C-67.72 7.05, -68.63 6.05, -69.15 4.62 C-69.67 3.19, -70.32 0.76, -69.66 -0.7 C-68.99 -2.17, -67.08 -3.68, -65.17 -4.19 C-63.26 -4.7, -59.5 -3.76, -58.18 -3.76 C-56.85 -3.76, -57.08 -4.04, -57.22 -4.18 M-65.02 -6.53 C-63.61 -6.85, -61.32 -5.24, -59.79 -4.24 C-58.27 -3.24, -57.03 -1.83, -55.88 -0.55 C-54.74 0.73, -52.58 1.87, -52.94 3.44 C-53.3 5.02, -56.73 7.93, -58.07 8.89 C-59.41 9.85, -59.51 9.03, -60.99 9.17 C-62.48 9.32, -65.42 10.88, -67.01 9.77 C-68.59 8.66, -69.92 4.31, -70.48 2.5 C-71.04 0.69, -71.43 0.31, -70.37 -1.07 C-69.31 -2.46, -65.12 -4.95, -64.11 -5.82 C-63.1 -6.69, -64.33 -6.46, -64.3 -6.31" stroke="none" stroke-width="0" fill="#bd99ff"></path></g></g></svg>