<svg version="1.1" xmlns="http://www.w3.org/2000/svg" viewBox="0 0 501.1061705047782 429.69748365703833" width="1503.3185115143347" height="1289.0924509711149">
  <!-- svg-source:excalidraw -->
  
  <defs>
    <style>
      @font-face {
        font-family: "Virgil";
        src: url("https://excalidraw.com/Virgil.woff2");
      }
      @font-face {
        font-family: "Cascadia";
        src: url("https://excalidraw.com/Cascadia.woff2");
      }
    </style>
  </defs>
  <g stroke-linecap="round" transform="translate(278.0963342021804 9.999999999999972) rotate(0 33.114655784399474 38.54513990703835)"><path d="M66.23 38.55 C66.23 40.56, 66.09 42.59, 65.82 44.57 C65.55 46.56, 65.14 48.54, 64.61 50.46 C64.07 52.37, 63.4 54.25, 62.62 56.04 C61.84 57.84, 60.92 59.58, 59.9 61.2 C58.89 62.83, 57.75 64.38, 56.53 65.8 C55.31 67.22, 53.98 68.55, 52.58 69.73 C51.18 70.91, 49.69 71.98, 48.15 72.89 C46.61 73.8, 44.99 74.58, 43.35 75.2 C41.71 75.82, 40 76.3, 38.29 76.62 C36.59 76.93, 34.84 77.09, 33.11 77.09 C31.39 77.09, 29.64 76.93, 27.93 76.62 C26.23 76.3, 24.52 75.82, 22.88 75.2 C21.24 74.58, 19.62 73.8, 18.08 72.89 C16.54 71.98, 15.05 70.91, 13.65 69.73 C12.25 68.55, 10.92 67.22, 9.7 65.8 C8.48 64.38, 7.34 62.83, 6.32 61.2 C5.31 59.58, 4.39 57.84, 3.61 56.04 C2.83 54.25, 2.15 52.37, 1.62 50.46 C1.09 48.54, 0.68 46.56, 0.41 44.57 C0.14 42.59, 0 40.56, 0 38.55 C0 36.54, 0.14 34.5, 0.41 32.52 C0.68 30.53, 1.09 28.55, 1.62 26.63 C2.15 24.72, 2.83 22.84, 3.61 21.05 C4.39 19.26, 5.31 17.51, 6.32 15.89 C7.34 14.26, 8.48 12.71, 9.7 11.29 C10.92 9.87, 12.25 8.54, 13.65 7.36 C15.05 6.18, 16.54 5.11, 18.08 4.2 C19.62 3.29, 21.24 2.51, 22.88 1.89 C24.52 1.27, 26.23 0.79, 27.93 0.47 C29.64 0.16, 31.39 0, 33.11 0 C34.84 0, 36.59 0.16, 38.29 0.47 C40 0.79, 41.71 1.27, 43.35 1.89 C44.99 2.51, 46.61 3.29, 48.15 4.2 C49.69 5.11, 51.18 6.18, 52.58 7.36 C53.98 8.54, 55.31 9.87, 56.53 11.29 C57.75 12.71, 58.89 14.26, 59.9 15.89 C60.92 17.51, 61.84 19.26, 62.62 21.05 C63.4 22.84, 64.07 24.72, 64.61 26.63 C65.14 28.55, 65.55 30.53, 65.82 32.52 C66.09 34.5, 66.16 37.54, 66.23 38.55 C66.3 39.55, 66.3 37.54, 66.23 38.55" stroke="transparent" stroke-width="1" fill="none"></path></g><g stroke-linecap="round"><g transform="translate(304.9239585423725 49.32590266341737) rotate(0 11.99323243680476 4.469560685247842)" fill-rule="evenodd"><path d="M0 0 L0.11 9.02 L12.27 15.25 L23.51 7.3 L23.99 -1.42 L13 -6.31 L0 0" stroke="none" stroke-width="0" fill="#ced4da" fill-rule="evenodd"></path><path d="M0 0 C0.03 2.89, 0.07 5.77, 0.11 9.02 M0 0 C0.03 2.79, 0.07 5.57, 0.11 9.02 M0.11 9.02 C2.88 10.44, 5.65 11.86, 12.27 15.25 M0.11 9.02 C3.89 10.96, 7.67 12.9, 12.27 15.25 M12.27 15.25 C15.81 12.75, 19.35 10.24, 23.51 7.3 M12.27 15.25 C16.07 12.56, 19.87 9.87, 23.51 7.3 M23.51 7.3 C23.65 4.64, 23.8 1.97, 23.99 -1.42 M23.51 7.3 C23.68 4.17, 23.85 1.04, 23.99 -1.42 M23.99 -1.42 C21.7 -2.44, 19.42 -3.46, 13 -6.31 M23.99 -1.42 C21.22 -2.65, 18.46 -3.88, 13 -6.31 M13 -6.31 C9.75 -4.74, 6.5 -3.16, 0 0 M13 -6.31 C10.04 -4.88, 7.08 -3.44, 0 0 M0 0 C0 0, 0 0, 0 0 M0 0 C0 0, 0 0, 0 0" stroke="#495057" stroke-width="2" fill="none"></path></g></g><g stroke-linecap="round"><g transform="translate(301.1464608929193 10.978375916213821) rotate(0 19.204053445777163 24.882442640171988)" fill-rule="evenodd"><path d="M0 0 L6.33 0.08 L15.14 1.5 L25.81 6 L35 12.23 L38.01 19.81 L38.18 33.92 L36.71 39.58 L33.39 45.47 L29.35 49.33 L26.36 49.43 L21.94 45.1 L12.18 33 L3.24 19.43 L1.74 14.4 L2.37 3.55" stroke="none" stroke-width="0" fill="#ced4da" fill-rule="evenodd"></path><path d="M0 0 C2.52 0.25, 9.3 -0.54, 15.14 1.5 C20.97 3.54, 31.14 7.89, 35 12.23 C38.87 16.57, 38.04 22.99, 38.32 27.55 C38.61 32.11, 38.21 35.95, 36.71 39.58 C35.21 43.21, 31.81 48.41, 29.35 49.33 C26.89 50.25, 26.3 50.09, 21.94 45.1 C17.59 40.12, 6.5 26.36, 3.24 19.43 C-0.03 12.51, 2.51 6.2, 2.37 3.55 M0 0 C2.52 0.25, 9.3 -0.54, 15.14 1.5 C20.97 3.54, 31.14 7.89, 35 12.23 C38.87 16.57, 38.04 22.99, 38.32 27.55 C38.61 32.11, 38.21 35.95, 36.71 39.58 C35.21 43.21, 31.81 48.41, 29.35 49.33 C26.89 50.25, 26.3 50.09, 21.94 45.1 C17.59 40.12, 6.5 26.36, 3.24 19.43 C-0.03 12.51, 2.51 6.2, 2.37 3.55" stroke="#495057" stroke-width="2" fill="none"></path></g></g><g stroke-linecap="round"><g transform="translate(290.4518975820731 36.04115292717563) rotate(0 22.910379925297093 1.0373466729795808)" fill-rule="evenodd"><path d="M0 0 L0.13 5.72 L1.11 9.52 L4.13 13.17 L10.49 17.12 L28.25 25.15 L35.1 27.08 L39.18 26.96 L41.71 25.38 L44.5 18.67 L45.81 5.58 L44.86 -7.52 L43.67 -10.88 L41.99 -12.85 L31.05 -18.54 L18.09 -23.68 L12.77 -24.96 L5.89 -24.43 L1.73 -20.25 L0.6 -15.8 L0 0" stroke="none" stroke-width="0" fill="#ced4da" fill-rule="evenodd"></path><path d="M0 0 C0.69 2.2, -1.72 8.66, 4.13 13.17 C9.98 17.69, 28.37 26.16, 35.1 27.08 C41.83 28, 42.87 24.44, 44.5 18.67 C46.13 12.91, 46.25 -1.74, 44.86 -7.52 C43.47 -13.3, 41.5 -13.11, 36.15 -16.02 C30.8 -18.93, 18.51 -24.26, 12.77 -24.96 C7.03 -25.67, 3.85 -24.41, 1.73 -20.25 C-0.4 -16.09, 0.29 -3.37, 0 0 M0 0 C0.69 2.2, -1.72 8.66, 4.13 13.17 C9.98 17.69, 28.37 26.16, 35.1 27.08 C41.83 28, 42.87 24.44, 44.5 18.67 C46.13 12.91, 46.25 -1.74, 44.86 -7.52 C43.47 -13.3, 41.5 -13.11, 36.15 -16.02 C30.8 -18.93, 18.51 -24.26, 12.77 -24.96 C7.03 -25.67, 3.85 -24.41, 1.73 -20.25 C-0.4 -16.09, 0.29 -3.37, 0 0" stroke="#495057" stroke-width="2" fill="none"></path></g></g><g stroke-linecap="round"><g transform="translate(293.497479279921 35.61484480989259) rotate(0 19.555024296265742 0.9168958920308228)" fill-rule="evenodd"><path d="M0 0 L1.04 8.01 L3.47 11.07 L15.35 17.81 L28.04 22.58 L34.52 22.37 L37.95 17.89 L39.11 6.76 L38.07 -4.86 L35.46 -10.11 L30.38 -13.46 L15.2 -19.93 L10.73 -20.98 L4.95 -20.53 L1.45 -17.02 L0.5 -13.28 L0 0" stroke="none" stroke-width="0" fill="#343a40" fill-rule="evenodd"></path><path d="M0 0 C0.58 1.85, -1.2 7.31, 3.47 11.07 C8.14 14.83, 22.29 21.44, 28.04 22.58 C33.79 23.71, 36.28 22.46, 37.95 17.89 C39.62 13.31, 39.33 0.37, 38.07 -4.86 C36.81 -10.08, 34.94 -10.78, 30.38 -13.46 C25.83 -16.15, 15.55 -20.39, 10.73 -20.98 C5.91 -21.57, 3.24 -20.51, 1.45 -17.02 C-0.34 -13.52, 0.24 -2.84, 0 0 M0 0 C0.58 1.85, -1.2 7.31, 3.47 11.07 C8.14 14.83, 22.29 21.44, 28.04 22.58 C33.79 23.71, 36.28 22.46, 37.95 17.89 C39.62 13.31, 39.33 0.37, 38.07 -4.86 C36.81 -10.08, 34.94 -10.78, 30.38 -13.46 C25.83 -16.15, 15.55 -20.39, 10.73 -20.98 C5.91 -21.57, 3.24 -20.51, 1.45 -17.02 C-0.34 -13.52, 0.24 -2.84, 0 0" stroke="#495057" stroke-width="2" fill="none"></path></g></g><g stroke-linecap="round"><g transform="translate(273.6132577385772 62.01879599941009) rotate(0 25.58152946640388 6.879357786799247)" fill-rule="evenodd"><path d="M0 0 L0.11 2.82 L37.46 24.56 L50.68 15.05 L51.16 10.76 L14.11 -10.8 L0 0" stroke="none" stroke-width="0" fill="#ced4da" fill-rule="evenodd"></path><path d="M0 0 C0.04 1.09, 0.08 2.17, 0.11 2.82 M0 0 C0.03 0.71, 0.06 1.43, 0.11 2.82 M0.11 2.82 C9.41 8.23, 18.71 13.65, 37.46 24.56 M0.11 2.82 C9.41 8.23, 18.7 13.64, 37.46 24.56 M37.46 24.56 C40.22 22.58, 42.99 20.59, 50.68 15.05 M37.46 24.56 C42.7 20.8, 47.94 17.03, 50.68 15.05 M50.68 15.05 C50.8 14.01, 50.92 12.96, 51.16 10.76 M50.68 15.05 C50.85 13.56, 51.02 12.06, 51.16 10.76 M51.16 10.76 C40.5 4.56, 29.84 -1.65, 14.11 -10.8 M51.16 10.76 C40.06 4.3, 28.97 -2.16, 14.11 -10.8 M14.11 -10.8 C9 -6.89, 3.89 -2.98, 0 0 M14.11 -10.8 C11.16 -8.55, 8.22 -6.3, 0 0 M0 0 C0 0, 0 0, 0 0 M0 0 C0 0, 0 0, 0 0" stroke="#495057" stroke-width="2" fill="none"></path></g></g><g stroke-linecap="round"><g transform="translate(274.1647235870862 62.54241317660268) rotate(0 25.23632033222009 10.738357111318777)"><path d="M0 0 C9.48 5.53, 18.96 11.06, 36.8 21.48 M0 0 C8.37 4.89, 16.74 9.77, 36.8 21.48 M36.8 21.48 C39.71 19.03, 42.62 16.59, 50.47 10 M36.8 21.48 C40.58 18.3, 44.36 15.13, 50.47 10" stroke="#495057" stroke-width="1" fill="none"></path></g></g><g stroke-linecap="round"><g transform="translate(311.0882366611852 87.02835410921438) rotate(0 -0.014992274975554665 -1.4335557698418882)"><path d="M0 0 C-0.01 -0.61, -0.01 -1.22, -0.03 -2.87 M0 0 C-0.01 -0.78, -0.02 -1.56, -0.03 -2.87" stroke="#495057" stroke-width="1" fill="none"></path></g></g><g stroke-linecap="round"><g transform="translate(287.97657586254263 54.39359400457653) rotate(0 4.70818168527245 9.64215555626555)" fill-rule="evenodd"><path d="M0 0 L-10.01 7.82 L10.12 19.28 L19.43 10.94 L0 0" stroke="none" stroke-width="0" fill="#495057" fill-rule="evenodd"></path><path d="M0 0 C-3.84 3, -7.68 5.99, -10.01 7.82 M0 0 C-3.55 2.77, -7.11 5.55, -10.01 7.82 M-10.01 7.82 C-5.87 10.17, -1.73 12.53, 10.12 19.28 M-10.01 7.82 C-5.52 10.38, -1.02 12.94, 10.12 19.28 M10.12 19.28 C13.28 16.45, 16.45 13.61, 19.43 10.94 M10.12 19.28 C13.51 16.25, 16.9 13.21, 19.43 10.94 M19.43 10.94 C14.43 8.13, 9.43 5.31, 0 0 M19.43 10.94 C14.06 7.92, 8.7 4.9, 0 0 M0 0 C0 0, 0 0, 0 0 M0 0 C0 0, 0 0, 0 0" stroke="#495057" stroke-width="1" fill="none"></path></g></g><g stroke-linecap="round"><g transform="translate(309.01079698646936 66.58030218210348) rotate(0 0.38953396580109256 2.4680779642737036)" fill-rule="evenodd"><path d="M0 0 L-3.14 2.88 L1 4.94 L3.92 2.21 L0 0" stroke="none" stroke-width="0" fill="#495057" fill-rule="evenodd"></path><path d="M0 0 C-1 0.92, -2 1.84, -3.14 2.88 M0 0 C-1.06 0.97, -2.12 1.94, -3.14 2.88 M-3.14 2.88 C-2.09 3.41, -1.03 3.93, 1 4.94 M-3.14 2.88 C-2.28 3.31, -1.41 3.74, 1 4.94 M1 4.94 C1.6 4.37, 2.21 3.81, 3.92 2.21 M1 4.94 C1.87 4.13, 2.74 3.31, 3.92 2.21 M3.92 2.21 C3.04 1.72, 2.15 1.22, 0 0 M3.92 2.21 C2.63 1.49, 1.34 0.76, 0 0 M0 0 C0 0, 0 0, 0 0 M0 0 C0 0, 0 0, 0 0" stroke="#495057" stroke-width="1" fill="none"></path></g></g><g stroke-linecap="round"><g transform="translate(315.0245327337682 69.77989142877124) rotate(0 -1.8267618239081571 5.8728222209284695)" fill-rule="evenodd"><path d="M0 0 L-9.11 8.21 L-3.56 11.75 L5.46 3.56 L0 0" stroke="none" stroke-width="0" fill="#495057" fill-rule="evenodd"></path><path d="M0 0 C-3.52 3.17, -7.04 6.34, -9.11 8.21 M0 0 C-2.29 2.07, -4.59 4.14, -9.11 8.21 M-9.11 8.21 C-7.14 9.47, -5.16 10.73, -3.56 11.75 M-9.11 8.21 C-7.01 9.55, -4.91 10.89, -3.56 11.75 M-3.56 11.75 C-0.85 9.29, 1.86 6.83, 5.46 3.56 M-3.56 11.75 C-1.15 9.56, 1.26 7.37, 5.46 3.56 M5.46 3.56 C3.6 2.35, 1.74 1.13, 0 0 M5.46 3.56 C4.12 2.69, 2.78 1.81, 0 0 M0 0 C0 0, 0 0, 0 0 M0 0 C0 0, 0 0, 0 0" stroke="#495057" stroke-width="1" fill="none"></path></g></g><g stroke-linecap="round"><g transform="translate(290.6686705047782 89.12326490703833) rotate(0 -70.05078125 56.095703125)"><path d="M0 0 C-23.35 18.7, -116.75 93.49, -140.1 112.19 M0 0 C-23.35 18.7, -116.75 93.49, -140.1 112.19" stroke="#ff5101" stroke-width="2" fill="none"></path></g><g transform="translate(290.6686705047782 89.12326490703833) rotate(0 -70.05078125 56.095703125)"><path d="M-124.51 86.56 C-130.19 95.9, -135.87 105.24, -140.1 112.19 M-124.51 86.56 C-128.68 93.42, -132.86 100.28, -140.1 112.19" stroke="#ff5101" stroke-width="2" fill="none"></path></g><g transform="translate(290.6686705047782 89.12326490703833) rotate(0 -70.05078125 56.095703125)"><path d="M-111.68 102.58 C-122.04 106.08, -132.39 109.58, -140.1 112.19 M-111.68 102.58 C-119.29 105.15, -126.9 107.73, -140.1 112.19" stroke="#ff5101" stroke-width="2" fill="none"></path></g></g><g stroke-linecap="round"><g transform="translate(291.6647642547782 88.99435865703833) rotate(0 23.890625 61.103515625)"><path d="M0 0 C7.96 20.37, 39.82 101.84, 47.78 122.21 M0 0 C7.96 20.37, 39.82 101.84, 47.78 122.21" stroke="#ff5101" stroke-width="2" fill="none"></path></g><g transform="translate(291.6647642547782 88.99435865703833) rotate(0 23.890625 61.103515625)"><path d="M27.96 99.69 C32.14 104.44, 36.32 109.19, 47.78 122.21 M27.96 99.69 C33.09 105.51, 38.22 111.34, 47.78 122.21" stroke="#ff5101" stroke-width="2" fill="none"></path></g><g transform="translate(291.6647642547782 88.99435865703833) rotate(0 23.890625 61.103515625)"><path d="M47.07 92.22 C47.22 98.54, 47.37 104.87, 47.78 122.21 M47.07 92.22 C47.26 99.97, 47.44 107.73, 47.78 122.21" stroke="#ff5101" stroke-width="2" fill="none"></path></g></g><g stroke-linecap="round"><g transform="translate(294.5046080047782 89.77951490703833) rotate(0 98.30078125 57.04296875)"><path d="M0 0 C32.77 19.01, 163.83 95.07, 196.6 114.09 M0 0 C32.77 19.01, 163.83 95.07, 196.6 114.09" stroke="#ff5101" stroke-width="2" fill="none"></path></g><g transform="translate(294.5046080047782 89.77951490703833) rotate(0 98.30078125 57.04296875)"><path d="M167.07 108.81 C177.79 110.73, 188.5 112.64, 196.6 114.09 M167.07 108.81 C174.06 110.06, 181.06 111.31, 196.6 114.09" stroke="#ff5101" stroke-width="2" fill="none"></path></g><g transform="translate(294.5046080047782 89.77951490703833) rotate(0 98.30078125 57.04296875)"><path d="M177.37 91.06 C184.35 99.42, 191.33 107.77, 196.6 114.09 M177.37 91.06 C181.92 96.52, 186.48 101.97, 196.6 114.09" stroke="#ff5101" stroke-width="2" fill="none"></path></g></g><g transform="translate(338.0592955047782 142.45138990703833) rotate(0 19 12.5)"><text x="0" y="18" font-family="Virgil, Segoe UI Emoji" font-size="20px" fill="#ff5101" text-anchor="start" style="white-space: pre;" direction="ltr">. . .</text></g><g stroke-linecap="round" transform="translate(91.54757675477822 208.94357740703833) rotate(0 62.841796875 88.0234375)"><path d="M0 0 C46.89 0, 93.79 0, 125.68 0 M0 0 C26.65 0, 53.3 0, 125.68 0 M125.68 0 C125.68 69.18, 125.68 138.37, 125.68 176.05 M125.68 0 C125.68 52.8, 125.68 105.61, 125.68 176.05 M125.68 176.05 C92.76 176.05, 59.83 176.05, 0 176.05 M125.68 176.05 C89.02 176.05, 52.35 176.05, 0 176.05 M0 176.05 C0 116.95, 0 57.85, 0 0 M0 176.05 C0 110.64, 0 45.23, 0 0" stroke="#ff5101" stroke-width="2" fill="none"></path></g><g stroke-linecap="round"><g transform="translate(91.13351425477822 242.81857740703833) rotate(0 62.552734375 0.076171875)"><path d="M0 0 C20.85 0.03, 104.25 0.13, 125.11 0.15 M0 0 C20.85 0.03, 104.25 0.13, 125.11 0.15" stroke="#ff5101" stroke-width="2" fill="none"></path></g></g><g stroke-linecap="round"><g transform="translate(79.87960800477822 226.46701490703833) rotate(0 16.431640625 0.171875)"><path d="M0 0 C5.48 0.06, 27.39 0.29, 32.86 0.34 M0 0 C5.48 0.06, 27.39 0.29, 32.86 0.34" stroke="#ff5101" stroke-width="2" fill="none"></path></g><g transform="translate(79.87960800477822 226.46701490703833) rotate(0 16.431640625 0.171875)"><path d="M17.36 5.8 C22.69 3.92, 28.02 2.05, 32.86 0.34 M17.36 5.8 C23.37 3.69, 29.38 1.57, 32.86 0.34" stroke="#ff5101" stroke-width="2" fill="none"></path></g><g transform="translate(79.87960800477822 226.46701490703833) rotate(0 16.431640625 0.171875)"><path d="M17.48 -5.44 C22.77 -3.45, 28.06 -1.46, 32.86 0.34 M17.48 -5.44 C23.44 -3.2, 29.4 -0.96, 32.86 0.34" stroke="#ff5101" stroke-width="2" fill="none"></path></g></g><g transform="translate(129.78195175477822 219.65842115703833) rotate(0 39 9.5)"><text x="0" y="13" font-family="Virgil, Segoe UI Emoji" font-size="14.581249999999997px" fill="#ff5101" text-anchor="start" style="white-space: pre;" direction="ltr">Boot mode</text></g><g stroke-linecap="round"><g transform="translate(218.83663925477822 229.62717115703833) rotate(0 37.401432204462196 32.44921875)"><path d="M0 0 C10.3 2.46, 50.15 5.47, 61.82 14.78 C73.5 24.09, 79.69 47.5, 70.06 55.85 C60.44 64.21, 15.07 63.39, 4.07 64.9 M0 0 C10.3 2.46, 50.15 5.47, 61.82 14.78 C73.5 24.09, 79.69 47.5, 70.06 55.85 C60.44 64.21, 15.07 63.39, 4.07 64.9" stroke="#ff5101" stroke-width="2" fill="none"></path></g><g transform="translate(218.83663925477822 229.62717115703833) rotate(0 37.401432204462196 32.44921875)"><path d="M31.59 52.96 C21.3 57.43, 11.01 61.89, 4.07 64.9 M31.59 52.96 C22.98 56.7, 14.37 60.43, 4.07 64.9" stroke="#ff5101" stroke-width="2" fill="none"></path></g><g transform="translate(218.83663925477822 229.62717115703833) rotate(0 37.401432204462196 32.44921875)"><path d="M32.83 73.45 C22.07 70.25, 11.32 67.05, 4.07 64.9 M32.83 73.45 C23.83 70.77, 14.83 68.1, 4.07 64.9" stroke="#ff5101" stroke-width="2" fill="none"></path></g></g><g stroke-linecap="round"><g transform="translate(93.48117050477822 278.12717115703833) rotate(0 62.20703125 0.083984375)"><path d="M0 0 C20.74 0.03, 103.68 0.14, 124.41 0.17 M0 0 C20.74 0.03, 103.68 0.14, 124.41 0.17" stroke="#ff5101" stroke-width="2" fill="none"></path></g></g><g transform="translate(116.51632675477822 286.22092115703833) rotate(0 37.5 10.5)"><text x="0" y="15" font-family="Virgil, Segoe UI Emoji" font-size="16.434375px" fill="#ff5101" text-anchor="start" style="white-space: pre;" direction="ltr">App mode</text></g><g stroke-linecap="round"><g transform="translate(84.43038925477822 300.74045240703833) rotate(0 -22.93589775238908 -38.19588432173322)"><path d="M0 0 C-11.15 -3.54, -55.44 -11.06, -66.88 -21.22 C-78.31 -31.37, -74.98 -51.83, -68.61 -60.93 C-62.24 -70.04, -44.85 -73.78, -28.65 -75.83 C-12.46 -77.88, 19.02 -73.67, 28.56 -73.24 M0 0 C-11.15 -3.54, -55.44 -11.06, -66.88 -21.22 C-78.31 -31.37, -74.98 -51.83, -68.61 -60.93 C-62.24 -70.04, -44.85 -73.78, -28.65 -75.83 C-12.46 -77.88, 19.02 -73.67, 28.56 -73.24" stroke="#ff5101" stroke-width="2" fill="none"></path></g><g transform="translate(84.43038925477822 300.74045240703833) rotate(0 -22.93589775238908 -38.19588432173322)"><path d="M0.92 -65.74 C11.3 -68.56, 21.68 -71.37, 28.56 -73.24 M0.92 -65.74 C8.61 -67.83, 16.29 -69.91, 28.56 -73.24" stroke="#ff5101" stroke-width="2" fill="none"></path></g><g transform="translate(84.43038925477822 300.74045240703833) rotate(0 -22.93589775238908 -38.19588432173322)"><path d="M2.57 -85.26 C12.33 -80.74, 22.09 -76.23, 28.56 -73.24 M2.57 -85.26 C9.8 -81.92, 17.02 -78.57, 28.56 -73.24" stroke="#ff5101" stroke-width="2" fill="none"></path></g></g><g transform="translate(90.68820175477822 394.69748365703833) rotate(0 64 12.5)"><text x="0" y="18" font-family="Virgil, Segoe UI Emoji" font-size="20px" fill="#ff5101" text-anchor="start" style="white-space: pre;" direction="ltr">Flash memory</text></g></svg>