<svg version="1.1" xmlns="http://www.w3.org/2000/svg" viewBox="0 0 559.4692994969079 306.63550662882153" width="1118.9385989938157" height="613.2710132576431">
  <!-- svg-source:excalidraw -->
  
  <defs>
    <style>
      @font-face {
        font-family: "Virgil";
        src: url("https://excalidraw.com/Virgil.woff2");
      }
      @font-face {
        font-family: "Cascadia";
        src: url("https://excalidraw.com/Cascadia.woff2");
      }
    </style>
  </defs>
  <g stroke-linecap="round" transform="translate(42.98451080595275 12.955475203218612) rotate(0 36 35.5)"><path d="M1.55 0.23 C28.49 -1.32, 55.84 -0.74, 71.19 1.05 M-0.77 0.95 C19.26 -0.64, 37.67 -0.42, 72.34 0.34 M72.07 1.06 C72.87 17.61, 71.43 37, 70.54 69.06 M71.04 0.71 C72.07 18.95, 72.49 37.84, 72.12 70.65 M70.52 69.78 C52.2 70.33, 37.26 71.91, 1.7 72.7 M71.04 70.1 C47 71.08, 22.02 70.55, 0.26 70.71 M0.56 69.86 C-0.76 51.28, -0.58 31.66, 1.73 -1.56 M0.86 71.2 C-1.24 49.74, 0.02 30.94, 0.99 0" stroke="#000000" stroke-width="1" fill="none"></path></g><g transform="translate(47.984510805952766 38.45547520321861) rotate(0 31 10)"><text x="31" y="14" font-family="Virgil, Segoe UI Emoji" font-size="16px" fill="#000000" text-anchor="middle" style="white-space: pre;" direction="ltr">Node 1</text></g><g stroke-linecap="round"><g transform="translate(78.25989943950788 110.24335264290539) rotate(0 115.1678192060415 -0.8234778114756409)"><path d="M0.75 -0.08 C39.39 -0.08, 192.51 0.2, 230.65 0.08 M-0.31 -1.17 C38.26 -1.52, 190.98 -1.94, 229.68 -1.68" stroke="#c92a2a" stroke-width="1" fill="none"></path></g><g transform="translate(78.25989943950788 110.24335264290539) rotate(0 115.1678192060415 -0.8234778114756409)"><path d="M201.33 8.48 C208.36 4.45, 212.62 4.91, 229.41 -2.75 M200.82 9.21 C209.75 6.5, 216.72 3.48, 229.42 -1.89" stroke="#c92a2a" stroke-width="1" fill="none"></path></g><g transform="translate(78.25989943950788 110.24335264290539) rotate(0 115.1678192060415 -0.8234778114756409)"><path d="M201.36 -12.04 C208.39 -11.89, 212.65 -7.26, 229.41 -2.75 M200.84 -11.31 C209.64 -8.61, 216.61 -6.22, 229.42 -1.89" stroke="#c92a2a" stroke-width="1" fill="none"></path></g></g><g transform="translate(166.43085475885516 89.60637522194975) rotate(0 18.5 10)"><text x="18.5" y="14" font-family="Virgil, Segoe UI Emoji" font-size="16px" fill="#c92a2a" text-anchor="middle" style="white-space: pre;" direction="ltr">Poke</text></g><g stroke-linecap="round"><g transform="translate(76.34920129559595 140.00317248565398) rotate(0 115.93601627206174 -1.2428591090711052)"><path d="M0.76 0.53 C39.13 0.21, 191.49 -0.79, 229.89 -1.04 M-0.3 -0.24 C38.48 -1.01, 193.69 -2.54, 232.18 -3.01" stroke="#364fc7" stroke-width="1" fill="none"></path></g><g transform="translate(76.34920129559595 140.00317248565398) rotate(0 115.93601627206174 -1.2428591090711052)"><path d="M204.98 6.22 C212.05 5.3, 219.79 -0.3, 234.03 -3.94 M203.68 8.12 C213.42 3.76, 221.56 0.84, 231.74 -2.29" stroke="#364fc7" stroke-width="1" fill="none"></path></g><g transform="translate(76.34920129559595 140.00317248565398) rotate(0 115.93601627206174 -1.2428591090711052)"><path d="M204.76 -14.3 C212.03 -9.69, 219.83 -9.76, 234.03 -3.94 M203.46 -12.4 C213.47 -10.07, 221.69 -6.3, 231.74 -2.29" stroke="#364fc7" stroke-width="1" fill="none"></path></g></g><g transform="translate(155.66858284911905 121.51559049132311) rotate(0 33.5 10)"><text x="33.5" y="14" font-family="Virgil, Segoe UI Emoji" font-size="16px" fill="#364fc7" text-anchor="middle" style="white-space: pre;" direction="ltr">Node ID</text></g><g stroke-linecap="round"><g transform="translate(296.8188751752562 154.84661155893536) rotate(0 114.64398142140098 0.3540720248713569)"><path d="M-0.88 -1.19 C37.66 -0.82, 191.44 1.44, 230.17 1.9 M0.86 0.8 C39.3 0.88, 190.57 0.54, 228.95 0.35" stroke="#c92a2a" stroke-width="1" fill="none"></path></g><g transform="translate(296.8188751752562 154.84661155893536) rotate(0 114.64398142140098 0.3540720248713569)"><path d="M198.8 9.84 C208.52 10.05, 213.86 4.77, 227.23 1.03 M201.06 11.15 C208.89 7.19, 214.55 4.41, 229.92 -0.09" stroke="#c92a2a" stroke-width="1" fill="none"></path></g><g transform="translate(296.8188751752562 154.84661155893536) rotate(0 114.64398142140098 0.3540720248713569)"><path d="M198.74 -10.69 C208.41 -6.2, 213.77 -7.2, 227.23 1.03 M201 -9.37 C208.99 -8.08, 214.66 -5.6, 229.92 -0.09" stroke="#c92a2a" stroke-width="1" fill="none"></path></g></g><g transform="translate(392.25808996636033 137.5077080954079) rotate(0 18.5 10)"><text x="18.5" y="14" font-family="Virgil, Segoe UI Emoji" font-size="16px" fill="#c92a2a" text-anchor="middle" style="white-space: pre;" direction="ltr">Poke</text></g><g stroke-linecap="round"><g transform="translate(307.3153612989766 167.50963739146846) rotate(0 -115.09377608094356 -0.6312165052192995)"><path d="M0.26 -0.47 C-37.87 -0.39, -191.36 0.48, -229.67 0.63 M-1.07 -1.77 C-39.24 -2.06, -192.27 -1.83, -230.44 -1.21" stroke="#364fc7" stroke-width="1" fill="none"></path></g><g transform="translate(307.3153612989766 167.50963739146846) rotate(0 -115.09377608094356 -0.6312165052192995)"><path d="M-203.12 -11.15 C-207.7 -8.56, -214.32 -7.2, -230.52 -2.13 M-202.27 -12.13 C-211.23 -8.51, -220.83 -4.79, -229.53 -1.94" stroke="#364fc7" stroke-width="1" fill="none"></path></g><g transform="translate(307.3153612989766 167.50963739146846) rotate(0 -115.09377608094356 -0.6312165052192995)"><path d="M-202.97 9.37 C-207.61 7.38, -214.26 4.16, -230.52 -2.13 M-202.12 8.4 C-211.01 5.56, -220.66 2.83, -229.53 -1.94" stroke="#364fc7" stroke-width="1" fill="none"></path></g></g><g transform="translate(123.78314937815401 148.76373105765924) rotate(0 71 10)"><text x="71" y="14" font-family="Virgil, Segoe UI Emoji" font-size="16px" fill="#364fc7" text-anchor="middle" style="white-space: pre;" direction="ltr">Ask next node ID</text></g><g stroke-linecap="round"><g transform="translate(84.3614417627536 193.18743977410486) rotate(0 114.74138467199843 -0.18993767855613441)"><path d="M0.4 1.2 C38.67 0.86, 191.79 -1.27, 230.33 -1.58 M-0.85 0.78 C37.17 0.58, 190.49 0.39, 229.2 -0.18" stroke="#364fc7" stroke-width="1" fill="none"></path></g><g transform="translate(84.3614417627536 193.18743977410486) rotate(0 114.74138467199843 -0.18993767855613441)"><path d="M203.07 9.68 C210.68 8.06, 222.34 1.14, 229.02 -0.35 M200.88 10.68 C210.84 6.53, 221.4 2.83, 228.97 0.27" stroke="#364fc7" stroke-width="1" fill="none"></path></g><g transform="translate(84.3614417627536 193.18743977410486) rotate(0 114.74138467199843 -0.18993767855613441)"><path d="M202.93 -10.84 C210.67 -5.1, 222.38 -4.66, 229.02 -0.35 M200.74 -9.85 C210.79 -6.63, 221.4 -2.98, 228.97 0.27" stroke="#364fc7" stroke-width="1" fill="none"></path></g></g><g transform="translate(138.87614650787248 174.79328415786586) rotate(0 54.5 10)"><text x="54.5" y="14" font-family="Virgil, Segoe UI Emoji" font-size="16px" fill="#364fc7" text-anchor="middle" style="white-space: pre;" direction="ltr">Next node ID</text></g><g stroke-linecap="round"><g transform="translate(296.8188751752561 207.9609699120606) rotate(0 114.14033535358305 0.020933108805138545)"><path d="M-0.48 0.74 C37.75 0.43, 190.65 -0.62, 228.76 -0.77 M1.47 0.08 C39.67 0.48, 190.59 1.07, 228.28 0.69" stroke="#364fc7" stroke-width="1" fill="none"></path></g><g transform="translate(296.8188751752561 207.9609699120606) rotate(0 114.14033535358305 0.020933108805138545)"><path d="M201.34 12.47 C206.75 9.08, 214.83 4.33, 227.3 0.78 M200.93 11.78 C206.73 8.08, 215.16 6.67, 228.4 0.49" stroke="#364fc7" stroke-width="1" fill="none"></path></g><g transform="translate(296.8188751752561 207.9609699120606) rotate(0 114.14033535358305 0.020933108805138545)"><path d="M201.3 -8.05 C206.91 -6.34, 215 -5.99, 227.3 0.78 M200.89 -8.74 C206.71 -7.32, 215.15 -3.61, 228.4 0.49" stroke="#364fc7" stroke-width="1" fill="none"></path></g></g><g transform="translate(373.0370813555161 188.86331286068025) rotate(0 33.5 10)"><text x="33.5" y="14" font-family="Virgil, Segoe UI Emoji" font-size="16px" fill="#364fc7" text-anchor="middle" style="white-space: pre;" direction="ltr">Node ID</text></g><g stroke-linecap="round" transform="translate(263.6048632141239 10) rotate(0 36 35.5)"><path d="M-1.71 0.81 C17.86 -2, 30.92 -2.46, 73.79 1.49 M0.92 -0.89 C25.33 0.44, 47.81 -0.74, 72.52 0.78 M71.77 -0.98 C71.86 27.22, 70.08 51.66, 70.21 70.31 M72.1 -0.06 C72.53 26.64, 71.69 55.02, 72.87 70.21 M71.54 72.3 C50.07 69.85, 31.09 70.32, -0.23 70.89 M72.55 70.58 C55.18 70.1, 37.57 70.7, -0.85 71.07 M0.23 69.08 C-0.52 45.04, 2.38 23.37, -1.45 -1.25 M0.39 70.6 C-0.03 55.78, -0.07 39.66, 0.11 0.32" stroke="#000000" stroke-width="1" fill="none"></path></g><g transform="translate(268.6048632141239 35.5) rotate(0 31 10)"><text x="31" y="14" font-family="Virgil, Segoe UI Emoji" font-size="16px" fill="#000000" text-anchor="middle" style="white-space: pre;" direction="ltr">Node 2</text></g><g stroke-linecap="round" transform="translate(477.46929949690787 10.703501435141334) rotate(0 36 35.5)"><path d="M-0.34 -1 C24.66 2.05, 50.31 0.99, 73.75 1.39 M-0.53 0.04 C21.11 -1.03, 44.28 -0.37, 71.69 -0.84 M70.39 0.92 C73.9 23.47, 72.38 45.52, 73.82 71.31 M72.23 0.6 C70.42 29.02, 71.29 56.83, 71.61 70.77 M70.91 71.09 C51.52 70.78, 32.42 72.81, 1.91 72.83 M72.16 70.61 C52.38 72.21, 33.52 72.32, -0.69 70.49 M1.94 72 C1.3 49.12, -1.74 26.88, 0.81 1.41 M0.47 71.14 C1.14 47.7, -0.33 25.36, 0.89 0.73" stroke="#000000" stroke-width="1" fill="none"></path></g><g transform="translate(482.46929949690787 36.203501435141334) rotate(0 31 10)"><text x="31" y="14" font-family="Virgil, Segoe UI Emoji" font-size="16px" fill="#000000" text-anchor="middle" style="white-space: pre;" direction="ltr">Node 3</text></g><g stroke-linecap="round"><g transform="translate(31.57081642550287 106.00112342210377) rotate(0 1.8251907739177575 94.7484164049365)"><path d="M0.33 -1.14 C0.92 30.7, 1.84 158.65, 2.47 190.63 M-0.95 0.88 C0.08 32.39, 3.84 157.47, 4.6 188.78" stroke="#000000" stroke-width="1" fill="none"></path></g><g transform="translate(31.57081642550287 106.00112342210377) rotate(0 1.8251907739177575 94.7484164049365)"><path d="M-8.33 159.06 C-3.32 167.71, -0.77 172.57, 5.79 187.91 M-6.71 160.77 C-4.3 168.11, -0.65 177.96, 5.23 189.26" stroke="#000000" stroke-width="1" fill="none"></path></g><g transform="translate(31.57081642550287 106.00112342210377) rotate(0 1.8251907739177575 94.7484164049365)"><path d="M12.18 158.49 C12.81 167.32, 11 172.3, 5.79 187.91 M13.81 160.21 C10.22 167.78, 7.88 177.8, 5.23 189.26" stroke="#000000" stroke-width="1" fill="none"></path></g></g><g transform="translate(-12.685206536748908 196.78782290666595) rotate(269.4526437472874 33 10)"><text x="33" y="14" font-family="Virgil, Segoe UI Emoji" font-size="16px" fill="#000000" text-anchor="middle" style="white-space: pre;" direction="ltr">TimeLine</text></g><g stroke-linecap="round"><g transform="translate(518.8106385759299 243.85427212030982) rotate(0 -111.25727425391547 0.9174032821811124)"><path d="M-1.06 -0.59 C-38.25 -0.2, -185.24 2.08, -222.15 2.42 M0.59 1.71 C-36.85 1.74, -185.77 0.44, -223.1 0.59" stroke="#c92a2a" stroke-width="1" fill="none"></path></g><g transform="translate(518.8106385759299 243.85427212030982) rotate(0 -111.25727425391547 0.9174032821811124)"><path d="M-195.86 -9.6 C-204.77 -6.52, -217.14 -0.59, -225.05 -0.17 M-195.25 -10.56 C-204.9 -5.8, -214.23 -1.91, -223.5 1.29" stroke="#c92a2a" stroke-width="1" fill="none"></path></g><g transform="translate(518.8106385759299 243.85427212030982) rotate(0 -111.25727425391547 0.9174032821811124)"><path d="M-195.93 10.92 C-204.83 6.14, -217.17 4.2, -225.05 -0.17 M-195.32 9.96 C-204.74 7.52, -214.05 4.22, -223.5 1.29" stroke="#c92a2a" stroke-width="1" fill="none"></path></g></g><g transform="translate(378.3939617633267 225.27346214658064) rotate(0 28 10)"><text x="28" y="14" font-family="Virgil, Segoe UI Emoji" font-size="16px" fill="#c92a2a" text-anchor="middle" style="white-space: pre;" direction="ltr">UnPoke</text></g><g stroke-linecap="round"><g transform="translate(309.0559530735045 263.8452744849819) rotate(0 -111.26134729595616 0.8316597807834114)"><path d="M0.54 -0.94 C-36.46 -0.82, -185.98 0.73, -223.06 1.34 M-0.64 1.19 C-37.18 1.4, -183.84 2.66, -220.84 2.6" stroke="#c92a2a" stroke-width="1" fill="none"></path></g><g transform="translate(309.0559530735045 263.8452744849819) rotate(0 -111.26134729595616 0.8316597807834114)"><path d="M-194.25 -9.32 C-199.54 -5.15, -203.27 -1.24, -219 3.88 M-191.95 -7.15 C-203.44 -3.57, -213.38 -0.94, -221.12 2.99" stroke="#c92a2a" stroke-width="1" fill="none"></path></g><g transform="translate(309.0559530735045 263.8452744849819) rotate(0 -111.26134729595616 0.8316597807834114)"><path d="M-194.16 11.2 C-199.58 10.99, -203.34 10.52, -219 3.88 M-191.87 13.37 C-203.58 9.28, -213.56 4.24, -221.12 2.99" stroke="#c92a2a" stroke-width="1" fill="none"></path></g></g><g transform="translate(168.63927626090123 245.19196805674073) rotate(0 28 10)"><text x="28" y="14" font-family="Virgil, Segoe UI Emoji" font-size="16px" fill="#c92a2a" text-anchor="middle" style="white-space: pre;" direction="ltr">UnPoke</text></g></svg>