<svg width="150" height="151" viewBox="0 0 150 151" fill="none" xmlns="http://www.w3.org/2000/svg">
<path d="M91.305 115.597C88.14 115.597 85.515 114.682 83.445 112.867C81.375 111.052 80.325 107.572 80.325 102.412V20.4668H43.155V36.8468H60.18V100.972C60.18 111.367 62.31 119.272 66.57 124.672C70.83 130.087 77.595 132.787 86.865 132.787C90.24 132.787 93.27 132.562 95.955 132.142C98.64 131.707 100.89 131.197 102.75 130.612C104.385 130.102 105.735 129.607 106.815 129.112V111.877C105.96 112.192 104.16 112.897 101.43 113.962C98.715 115.042 95.31 115.567 91.29 115.567L91.305 115.597Z" fill="#1E1E1E"/>
<path d="M43.815 19.8518V17.6318C43.815 16.5368 42.93 15.6668 41.85 15.6668H39.63V12.1118H38.73V15.6668H36.78V12.1118H35.88V15.6668H33.93V12.1118H33.03V15.6668H31.08V12.1118H30.18V15.6668H28.23V12.1118H27.33V15.6668H25.38V12.1118H24.48V15.6668H22.53V12.1118H21.63V15.6668H19.41C18.315 15.6668 17.445 16.5518 17.445 17.6318V19.8518H13.89V20.7518H17.445V22.7018H13.89V23.6018H17.445V25.5518H13.89V26.4518H17.445V28.4018H13.89V29.3018H17.445V31.2518H13.89V32.1518H17.445V34.1018H13.89V35.0018H17.445V36.9518H13.89V37.8518H17.445V40.0718C17.445 41.1668 18.33 42.0368 19.41 42.0368H21.63V45.5918H22.53V42.0368H24.48V45.5918H25.38V42.0368H27.33V45.5918H28.23V42.0368H30.18V45.5918H31.08V42.0368H33.03V45.5918H33.93V42.0368H35.88V45.5918H36.78V42.0368H38.73V45.5918H39.63V42.0368H41.85C42.945 42.0368 43.815 41.1518 43.815 40.0718V35.0018H47.37V34.1018H43.815V32.1518H47.37V31.2518H43.815V29.3018H47.37V28.4018H43.815V26.4518H47.37V25.5518H43.815V23.6018H47.37V22.7018H43.815V19.8518Z" fill="#1E1E1E"/>
<path d="M24.495 22.0269H24.09V28.5069H24.495V22.0269Z" fill="white"/>
<path d="M21.78 22.0269H21.375V28.5069H21.78V22.0269Z" fill="white"/>
<path d="M21.045 17.2869H24.825C25.275 17.2869 25.635 17.6469 25.635 18.0969V24.5769C25.635 25.0269 25.275 25.3869 24.825 25.3869H21.045C20.595 25.3869 20.235 25.0269 20.235 24.5769V18.0969C20.235 17.6469 20.595 17.2869 21.045 17.2869V17.2869Z" fill="white"/>
<path d="M25.635 23.377H20.235V25.537H25.635V23.377Z" fill="#BD99FF"/>
<path d="M26.175 24.4568H19.695V25.5368H26.175V24.4568Z" fill="#BD99FF"/>
<path d="M30.075 35.9917H29.145V38.9617H30.075V35.9917Z" fill="#A6A29F"/>
<path d="M33.42 34.8518C33.42 36.2918 32.25 35.9618 30.825 35.9618C29.4 35.9618 28.23 36.2768 28.23 34.8518V31.1468C28.23 29.7068 29.385 28.5518 30.825 28.5518C32.265 28.5518 33.42 29.7068 33.42 31.1468V34.8518Z" fill="#7EBFB7"/>
<path d="M34.155 34.5068H27.48V35.9918H34.155V34.5068Z" fill="#7EBFB7"/>
<path d="M32.4901 35.9917H31.5601V38.9617H32.4901V35.9917Z" fill="#A6A29F"/>
<g style="mix-blend-mode:multiply" opacity="0.4">
<path d="M30.075 32.2869H29.145V34.5069H30.075V32.2869Z" fill="#A6A29F"/>
</g>
<g style="mix-blend-mode:multiply" opacity="0.4">
<path d="M32.4901 32.2869H31.5601V34.5069H32.4901V32.2869Z" fill="#A6A29F"/>
</g>
<path d="M29.7 35.9917H29.145V41.9917H29.7V35.9917Z" fill="#A6A29F"/>
<path d="M32.4901 35.9917H31.9351V41.9917H32.4901V35.9917Z" fill="#A6A29F"/>
<path d="M39.165 36.0068H38.235V38.9768H39.165V36.0068Z" fill="#A6A29F"/>
<path d="M42.495 34.8669C42.495 36.3069 41.325 35.9769 39.9 35.9769C38.475 35.9769 37.305 36.2919 37.305 34.8669V31.1619C37.305 29.7219 38.46 28.5669 39.9 28.5669C41.34 28.5669 42.495 29.7219 42.495 31.1619V34.8669Z" fill="#BD99FF"/>
<path d="M43.23 34.5369H36.555V36.0219H43.23V34.5369Z" fill="#BD99FF"/>
<path d="M41.565 36.0068H40.635V38.9768H41.565V36.0068Z" fill="#A6A29F"/>
<g style="mix-blend-mode:multiply" opacity="0.4">
<path d="M39.165 32.302H38.235V34.522H39.165V32.302Z" fill="#A6A29F"/>
</g>
<g style="mix-blend-mode:multiply" opacity="0.4">
<path d="M41.565 32.302H40.635V34.522H41.565V32.302Z" fill="#A6A29F"/>
</g>
<path d="M38.79 36.0068H38.235V42.0068H38.79V36.0068Z" fill="#A6A29F"/>
<path d="M41.565 36.0068H41.01V42.0068H41.565V36.0068Z" fill="#A6A29F"/>
<path d="M30.63 54.1267C44.7795 54.1267 56.25 42.6563 56.25 28.5067C56.25 14.3572 44.7795 2.88672 30.63 2.88672C16.4805 2.88672 5.01001 14.3572 5.01001 28.5067C5.01001 42.6563 16.4805 54.1267 30.63 54.1267Z" stroke="#BD99FF" stroke-width="2" stroke-miterlimit="10"/>
<path d="M136.635 112.012V111.112H133.08V108.892C133.08 107.797 132.195 106.927 131.115 106.927H128.895V103.372H127.995V106.927H126.045V103.372H125.145V106.927H123.195V103.372H122.295V106.927H120.345V103.372H119.445V106.927H117.495V103.372H116.595V106.927H114.645V103.372H113.745V106.927H111.795V103.372H110.895V106.927H108.675C107.58 106.927 106.71 107.812 106.71 108.892V113.962H103.155V114.862H106.71V116.812H103.155V117.712H106.71V119.662H103.155V120.562H106.71V122.512H103.155V123.412H106.71V125.362H103.155V126.262H106.71V128.212H103.155V129.112H106.71V131.332C106.71 132.427 107.595 133.297 108.675 133.297H110.895V136.852H111.795V133.297H113.745V136.852H114.645V133.297H116.595V136.852H117.495V133.297H119.445V136.852H120.345V133.297H122.295V136.852H123.195V133.297H125.145V136.852H126.045V133.297H127.995V136.852H128.895V133.297H131.115C132.21 133.297 133.08 132.412 133.08 131.332V129.112H136.635V128.212H133.08V126.262H136.635V125.362H133.08V123.412H136.635V122.512H133.08V120.562H136.635V119.662H133.08V117.712H136.635V116.812H133.08V114.862H136.635V113.962H133.08V112.012H136.635Z" fill="#1E1E1E"/>
<path fill-rule="evenodd" clip-rule="evenodd" d="M124.925 114.052C123.62 114.052 122.45 114.667 121.7 115.627H120.995C119.9 115.627 119 116.527 119 117.622V118.822C119 119.917 119.9 120.817 120.995 120.817H121.82C122.57 121.687 123.68 122.227 124.91 122.227C126.14 122.227 127.25 121.672 128 120.817H128.795C129.89 120.817 130.79 119.917 130.79 118.822V117.622C130.79 116.527 129.89 115.627 128.795 115.627H128.12C127.37 114.667 126.2 114.052 124.895 114.052H124.925Z" fill="#010101"/>
<path d="M125.18 118.822V117.622C125.18 116.737 125.9 116.017 126.785 116.017H128.81C129.695 116.017 130.415 116.737 130.415 117.622V118.822C130.415 119.707 129.695 120.427 128.81 120.427H124.355C124.85 120.067 125.18 119.482 125.18 118.822V118.822Z" fill="white"/>
<path d="M122.555 119.437H121.895L121.775 118.867C121.685 118.462 121.61 117.982 121.595 117.787C121.58 117.982 121.505 118.462 121.415 118.867L121.295 119.437H120.635L120.02 116.842H120.755L120.83 117.277C120.89 117.637 120.965 118.102 120.98 118.402C121.01 118.102 121.085 117.652 121.175 117.277L121.265 116.842H121.925L122.015 117.277C122.09 117.652 122.18 118.102 122.21 118.402C122.24 118.087 122.3 117.637 122.36 117.277L122.435 116.842H123.17L122.555 119.437V119.437Z" fill="white"/>
<path d="M123.83 117.352C123.605 117.352 123.455 117.232 123.455 117.022C123.455 116.827 123.62 116.692 123.83 116.692C124.04 116.692 124.22 116.827 124.22 117.022C124.22 117.232 124.055 117.352 123.83 117.352ZM123.5 119.437V117.547H124.175V119.437H123.5Z" fill="white"/>
<path d="M126.8 117.457V118.042H128.18V118.657H126.8V119.452H126.08V116.857H128.33V117.472H126.8V117.457Z" fill="#010101"/>
<path d="M129.08 117.352C128.855 117.352 128.705 117.232 128.705 117.022C128.705 116.827 128.87 116.692 129.08 116.692C129.305 116.692 129.47 116.827 129.47 117.022C129.47 117.232 129.305 117.352 129.08 117.352ZM128.75 119.437V117.547H129.41V119.437H128.75Z" fill="#010101"/>
<path d="M107.79 131.257C107.79 128.797 107.79 126.337 107.79 123.877C107.79 123.787 107.805 123.772 107.895 123.772C112.77 123.772 117.645 123.772 122.52 123.772C122.61 123.772 122.625 123.787 122.625 123.877C122.625 126.307 122.625 128.737 122.625 131.152C122.625 131.242 122.61 131.257 122.52 131.257C117.615 131.257 112.71 131.257 107.79 131.257V131.257Z" fill="#1E1E1E"/>
<path d="M110.82 127.087V126.742C110.82 126.547 110.88 126.502 111.06 126.397C111.18 126.322 111.27 126.307 111.39 126.307C111.465 126.307 111.45 126.247 111.45 126.202C111.45 125.857 111.45 125.497 111.45 125.152C111.45 124.972 111.525 124.837 111.63 124.762C111.72 124.702 111.84 124.612 111.99 124.612C114.165 124.612 116.325 124.612 118.5 124.612C118.965 124.612 119.445 124.612 119.91 124.612C120 124.612 120.075 124.627 120.12 124.717C120.12 124.747 120.09 124.762 120.06 124.762C120.03 124.762 119.985 124.762 119.955 124.732C119.49 124.732 119.025 124.717 118.56 124.732C118.545 124.732 118.53 124.732 118.515 124.732C117.81 124.732 117.12 124.732 116.415 124.732C114.945 124.732 113.46 124.732 111.99 124.732C111.705 124.732 111.51 124.927 111.51 125.212C111.51 125.542 111.51 125.857 111.51 126.187C111.51 126.397 111.48 126.427 111.27 126.427C111.12 126.427 111.015 126.487 110.91 126.592C110.88 126.637 110.88 126.682 110.88 126.727C110.88 126.832 110.895 126.937 110.865 127.042C110.865 127.042 110.835 127.057 110.82 127.057V127.087Z" fill="#FDFAF3"/>
<path d="M110.97 128.737L110.94 128.707C110.85 128.662 110.82 128.602 110.82 128.512C110.82 128.377 110.82 128.227 110.82 128.092C110.82 128.062 110.82 128.047 110.85 128.032C110.94 128.122 110.88 128.242 110.895 128.347C110.895 128.437 110.895 128.512 110.97 128.587C111.06 128.692 111.165 128.767 111.315 128.752C111.51 128.752 111.555 128.782 111.555 128.992C111.555 129.292 111.555 129.607 111.555 129.907C111.555 130.027 111.585 130.147 111.645 130.252C111.72 130.387 111.84 130.462 112.005 130.462C112.41 130.462 112.8 130.462 113.205 130.462C114.9 130.462 116.61 130.462 118.305 130.462C118.38 130.462 118.44 130.447 118.515 130.492C118.515 130.492 118.515 130.522 118.515 130.537C118.485 130.582 118.44 130.552 118.395 130.552C116.25 130.552 114.09 130.552 111.945 130.552C111.915 130.552 111.87 130.552 111.84 130.552C111.705 130.507 111.6 130.432 111.57 130.282C111.495 130.237 111.48 130.177 111.48 130.102C111.465 129.742 111.48 129.382 111.48 129.022C111.48 128.977 111.48 128.917 111.45 128.872C111.345 128.872 111.225 128.872 111.12 128.872C111.075 128.857 111.045 128.812 111 128.782L110.97 128.752V128.737Z" fill="#FAEBCB"/>
<path d="M110.82 128.092C110.715 128.092 110.61 128.092 110.505 128.092C110.445 128.092 110.415 128.107 110.415 128.182C110.415 128.272 110.415 128.362 110.415 128.437C110.415 128.527 110.385 128.572 110.28 128.602C110.13 128.632 109.98 128.602 109.815 128.617C109.545 128.617 109.26 128.617 108.99 128.617C108.975 128.617 108.96 128.617 108.945 128.617C108.615 128.617 108.54 128.527 108.57 128.212C108.57 128.122 108.57 128.092 108.465 128.092C108.3 128.092 108.21 127.972 108.21 127.807C108.21 127.687 108.21 127.552 108.21 127.432C108.21 127.267 108.285 127.177 108.435 127.162C108.54 127.162 108.555 127.117 108.555 127.027C108.555 126.967 108.555 126.892 108.555 126.832C108.555 126.742 108.6 126.682 108.705 126.697C108.63 126.802 108.645 126.922 108.645 127.042C108.645 127.192 108.6 127.237 108.45 127.252C108.39 127.252 108.345 127.282 108.33 127.342C108.285 127.537 108.27 127.717 108.33 127.912C108.345 127.987 108.39 128.017 108.465 128.017C108.54 128.017 108.63 128.017 108.66 128.137C108.66 128.182 108.66 128.227 108.66 128.272C108.66 128.332 108.66 128.407 108.69 128.467C108.705 128.512 108.75 128.527 108.795 128.542C109.26 128.542 109.74 128.542 110.205 128.542C110.325 128.542 110.355 128.497 110.37 128.377C110.37 128.302 110.37 128.227 110.37 128.152C110.37 128.062 110.415 128.017 110.505 128.017C110.58 128.017 110.67 128.017 110.745 128.017C110.79 128.017 110.835 128.017 110.835 128.077L110.82 128.092Z" fill="#E2E1E1"/>
<path d="M111.84 130.537C114.015 130.537 116.19 130.537 118.365 130.537C118.41 130.537 118.47 130.552 118.515 130.522C118.56 130.507 118.59 130.522 118.635 130.522C118.98 130.522 119.325 130.522 119.67 130.522C119.835 130.522 120.015 130.522 120.165 130.447H120.18C120.165 130.567 120.09 130.582 120 130.582C119.46 130.582 118.92 130.582 118.38 130.582C116.25 130.582 114.12 130.582 111.99 130.582C111.945 130.582 111.885 130.597 111.84 130.567V130.537Z" fill="#E5E3E0"/>
<path d="M108.315 127.912C108.225 127.762 108.255 127.582 108.27 127.432C108.285 127.237 108.3 127.237 108.495 127.222C108.57 127.222 108.6 127.162 108.6 127.102C108.6 127.042 108.6 126.982 108.6 126.922C108.6 126.832 108.615 126.757 108.705 126.697C108.705 126.697 108.855 126.667 108.93 126.667C109.335 126.667 109.755 126.667 110.16 126.667C110.22 126.667 110.28 126.667 110.34 126.697C110.37 126.697 110.385 126.727 110.385 126.742C110.415 126.877 110.385 127.012 110.415 127.132L110.445 127.162C110.565 127.207 110.67 127.192 110.79 127.162C110.79 127.162 110.82 127.162 110.835 127.162C110.865 127.177 110.865 127.207 110.85 127.237C110.85 127.237 110.835 127.267 110.82 127.267C110.7 127.297 110.58 127.267 110.46 127.267C110.37 127.267 110.325 127.207 110.31 127.117C110.31 127.057 110.31 126.997 110.31 126.937C110.31 126.787 110.28 126.757 110.13 126.757C110.04 126.757 109.95 126.757 109.875 126.757C109.575 126.757 109.26 126.757 108.96 126.757C108.915 126.757 108.855 126.757 108.81 126.757C108.765 126.772 108.75 126.817 108.75 126.862C108.75 126.922 108.75 126.982 108.75 127.042C108.75 127.222 108.705 127.252 108.54 127.267C108.495 127.267 108.45 127.267 108.42 127.312C108.36 127.402 108.39 127.507 108.375 127.597C108.375 127.687 108.375 127.762 108.375 127.852C108.375 127.867 108.375 127.897 108.345 127.912H108.315Z" fill="#D1D1D1"/>
<path d="M121.215 127.117C121.47 127.072 121.74 127.102 121.995 127.087C122.145 127.087 122.28 127.132 122.385 127.222C122.43 127.252 122.43 127.297 122.43 127.342C122.43 127.507 122.43 127.657 122.43 127.822C122.43 127.912 122.415 127.957 122.325 127.987C122.28 127.927 122.325 127.882 122.325 127.822C122.325 127.672 122.325 127.522 122.325 127.372C122.325 127.267 122.25 127.222 122.13 127.222C121.89 127.222 121.635 127.222 121.395 127.222C121.335 127.222 121.275 127.222 121.215 127.222C121.215 127.222 121.185 127.222 121.17 127.207C121.155 127.177 121.155 127.147 121.17 127.132L121.215 127.117Z" fill="#F1F1F1"/>
<path d="M120.45 125.212C120.45 125.437 120.45 125.677 120.45 125.902C120.45 125.977 120.48 126.007 120.555 126.007C120.735 126.007 120.9 125.992 121.08 126.022C121.17 126.052 121.2 126.112 121.2 126.202C121.2 126.412 121.2 126.637 121.2 126.847C121.2 126.952 121.2 127.072 121.245 127.177V127.207C121.14 127.207 121.155 127.117 121.155 127.042C121.155 126.862 121.155 126.682 121.155 126.502C121.155 126.442 121.155 126.382 121.155 126.322C121.125 126.097 121.11 126.067 120.9 126.067C120.84 126.067 120.765 126.067 120.705 126.067C120.435 126.067 120.42 126.052 120.42 125.767C120.42 125.602 120.42 125.452 120.42 125.287C120.42 125.137 120.39 125.017 120.285 124.897C120.27 124.867 120.24 124.852 120.24 124.807C120.285 124.747 120.315 124.792 120.345 124.807C120.42 124.912 120.495 125.017 120.495 125.152L120.45 125.212Z" fill="#DBD7D4"/>
<path d="M108.765 126.667C108.765 126.667 108.84 126.592 108.915 126.592C109.35 126.592 109.77 126.592 110.205 126.592C110.265 126.592 110.325 126.607 110.34 126.667C110.295 126.682 110.235 126.667 110.19 126.667C109.755 126.667 109.32 126.667 108.885 126.667C108.84 126.667 108.795 126.667 108.765 126.667Z" fill="#F5F4F5"/>
<path d="M121.215 127.207V127.177C121.53 127.177 121.845 127.177 122.145 127.177C122.325 127.177 122.385 127.237 122.385 127.417C122.385 127.477 122.385 127.552 122.385 127.612C122.385 127.732 122.385 127.852 122.34 127.972L122.295 128.047C122.1 128.077 121.905 128.047 121.71 128.047C121.545 128.047 121.395 128.047 121.23 128.047C121.23 127.957 121.29 127.987 121.335 127.972C121.56 127.972 121.77 127.972 121.995 127.972C122.295 127.972 122.31 127.972 122.31 127.657C122.31 127.567 122.31 127.477 122.31 127.387C122.31 127.342 122.31 127.297 122.265 127.267C122.22 127.222 122.16 127.222 122.1 127.222C121.86 127.222 121.62 127.222 121.365 127.222C121.32 127.222 121.26 127.222 121.215 127.192V127.207Z" fill="#E4E4E3"/>
<path d="M121.2 128.092C121.2 128.377 121.2 128.662 121.2 128.947C121.2 129.187 121.095 129.292 120.855 129.277C120.72 129.277 120.585 129.292 120.45 129.277C120.45 129.277 120.495 129.202 120.525 129.202C120.63 129.202 120.735 129.172 120.84 129.202C121.005 129.232 121.14 129.112 121.14 128.947C121.14 128.722 121.14 128.497 121.14 128.257C121.14 128.212 121.14 128.152 121.155 128.107C121.155 128.107 121.185 128.062 121.2 128.107V128.092Z" fill="#E5E3E0"/>
<path d="M111.45 128.842C111.45 128.842 111.495 128.932 111.495 128.977C111.495 129.322 111.495 129.682 111.495 130.027C111.495 130.117 111.495 130.192 111.57 130.267C111.495 130.267 111.48 130.207 111.465 130.132C111.435 129.877 111.45 129.607 111.45 129.352C111.45 129.187 111.45 129.022 111.45 128.872C111.45 128.872 111.45 128.872 111.45 128.857V128.842Z" fill="#FAF0D8"/>
<path d="M121.2 128.092H121.185V128.047C121.215 127.972 121.275 127.987 121.335 127.987C121.59 127.987 121.83 127.987 122.085 127.987C122.235 127.987 122.28 127.942 122.295 127.792C122.295 127.642 122.295 127.507 122.295 127.357C122.295 127.327 122.295 127.297 122.295 127.267C122.325 127.267 122.34 127.297 122.34 127.327C122.34 127.522 122.37 127.717 122.34 127.912C122.325 128.017 122.265 128.062 122.16 128.047C121.875 128.047 121.605 128.047 121.32 128.047C121.29 128.047 121.26 128.047 121.23 128.077C121.245 128.077 121.23 128.092 121.23 128.092H121.215H121.2Z" fill="#C8C3BE"/>
<path d="M108.765 126.667H110.34V126.697H108.72C108.72 126.697 108.75 126.667 108.765 126.667Z" fill="#E2E1E1"/>
<path d="M120.45 129.262C120.45 129.547 120.45 129.832 120.45 130.102C120.45 130.222 120.315 130.402 120.195 130.432C120.195 130.357 120.255 130.297 120.3 130.252C120.375 130.132 120.39 130.012 120.39 129.892C120.39 129.727 120.39 129.562 120.39 129.397C120.39 129.352 120.375 129.292 120.45 129.262Z" fill="#E5E3E0"/>
<path d="M121.215 127.192C121.215 127.192 121.17 127.042 121.17 126.967C121.17 126.727 121.17 126.502 121.17 126.262C121.17 126.172 121.155 126.097 121.065 126.037C121.17 126.037 121.185 126.097 121.185 126.187C121.185 126.427 121.185 126.682 121.185 126.922C121.185 126.982 121.185 127.057 121.215 127.117V127.192V127.192Z" fill="#E4E4E3"/>
<path d="M110.415 127.192V127.162C110.415 127.162 110.415 127.132 110.415 127.117C110.55 127.117 110.685 127.147 110.82 127.087H110.85C110.85 127.087 110.85 127.147 110.82 127.162V127.192C110.685 127.207 110.55 127.207 110.415 127.192Z" fill="#EAE9E9"/>
<path d="M110.835 128.092C110.835 128.197 110.835 128.302 110.835 128.422C110.835 128.542 110.835 128.647 110.94 128.722C110.835 128.722 110.82 128.647 110.82 128.572C110.82 128.407 110.82 128.257 110.82 128.092H110.835V128.092Z" fill="#FDF7EB"/>
<path d="M111.45 128.842V128.872C111.345 128.872 111.24 128.872 111.135 128.872C111.06 128.872 110.97 128.872 110.97 128.752H111C111 128.752 111.06 128.812 111.105 128.827C111.225 128.872 111.345 128.827 111.45 128.857V128.842Z" fill="#FDF7EB"/>
<path d="M120.3 124.852L120.195 124.822C120.195 124.822 120.165 124.792 120.15 124.777C120.12 124.747 120.09 124.747 120.075 124.717H120.135C120.225 124.717 120.315 124.717 120.315 124.852H120.3Z" fill="#E7E6E4"/>
<path d="M120.45 125.212C120.45 125.077 120.33 124.987 120.3 124.867C120.435 124.957 120.465 125.077 120.45 125.212Z" fill="#E7E6E4"/>
<path d="M110.415 127.117V127.162C110.355 127.027 110.415 126.877 110.385 126.742C110.445 126.862 110.385 126.997 110.415 127.117Z" fill="#E2E1E1"/>
<path d="M110.835 127.087C110.835 126.997 110.835 126.922 110.835 126.832C110.835 126.532 110.955 126.412 111.255 126.412C111.45 126.412 111.45 126.412 111.45 126.202C111.45 125.857 111.45 125.512 111.45 125.167C111.45 124.927 111.675 124.702 111.9 124.702C114.09 124.702 116.295 124.702 118.485 124.702C118.485 124.717 118.485 124.732 118.485 124.747C118.425 124.777 118.35 124.762 118.29 124.762C116.19 124.762 114.09 124.762 112.005 124.762C111.825 124.762 111.705 124.822 111.615 124.972C111.615 125.002 111.615 125.017 111.585 125.032C111.525 125.107 111.51 125.182 111.51 125.272C111.51 125.587 111.51 125.902 111.51 126.217C111.51 126.427 111.495 126.442 111.285 126.442C111.255 126.442 111.21 126.442 111.18 126.442C111.15 126.442 111.135 126.457 111.105 126.472H111.075C110.955 126.562 110.88 126.667 110.895 126.817C110.895 126.892 110.91 126.967 110.88 127.042C110.88 127.042 110.865 127.042 110.85 127.042L110.835 127.087Z" fill="#FAECCF"/>
<path d="M118.515 124.732V124.702H118.545C118.545 124.702 118.665 124.702 118.71 124.702C119.1 124.702 119.475 124.702 119.865 124.702C119.91 124.702 119.955 124.702 119.985 124.702H120.06C120.06 124.702 120.15 124.732 120.165 124.777C120.15 124.792 120.12 124.807 120.105 124.807C119.97 124.777 119.835 124.807 119.7 124.807C119.37 124.807 119.04 124.807 118.695 124.807C118.635 124.807 118.59 124.807 118.53 124.792C118.53 124.792 118.515 124.762 118.515 124.747V124.732Z" fill="#D2CFCB"/>
<path d="M120 124.702H118.545C118.545 124.702 118.605 124.672 118.635 124.672C119.055 124.672 119.475 124.672 119.895 124.672C119.925 124.672 119.955 124.672 119.985 124.702H120Z" fill="#DEDCDA"/>
<path d="M118.515 130.492C118.515 130.492 118.38 130.492 118.32 130.492C116.22 130.492 114.135 130.492 112.035 130.492C111.75 130.492 111.525 130.267 111.525 129.982C111.525 129.637 111.525 129.307 111.525 128.962C111.525 128.797 111.51 128.782 111.345 128.782C111.045 128.782 110.865 128.617 110.865 128.317C110.865 128.227 110.895 128.122 110.85 128.032V128.002C110.88 127.972 110.895 127.972 110.925 128.002C111 128.122 110.955 128.257 110.97 128.392C110.97 128.497 111.045 128.557 111.105 128.632C111.18 128.662 111.27 128.692 111.36 128.692C111.57 128.692 111.675 128.797 111.675 129.022C111.675 129.322 111.675 129.622 111.675 129.922C111.675 130.012 111.675 130.117 111.72 130.207C111.72 130.207 111.72 130.237 111.72 130.252C111.78 130.387 111.915 130.402 112.035 130.432C112.08 130.432 112.14 130.432 112.185 130.432C114.225 130.432 116.25 130.432 118.29 130.432C118.35 130.432 118.41 130.432 118.47 130.432C118.5 130.432 118.53 130.462 118.53 130.492H118.515Z" fill="#F6D38F"/>
<path d="M120.45 129.262C120.45 129.262 120.435 129.352 120.42 129.397C120.42 129.592 120.42 129.787 120.42 129.982C120.42 130.177 120.315 130.312 120.195 130.447C120.06 130.552 119.895 130.552 119.73 130.552C119.385 130.552 119.04 130.552 118.68 130.552C118.62 130.552 118.575 130.552 118.515 130.537V130.507C118.515 130.507 118.56 130.477 118.575 130.477C119.01 130.477 119.445 130.477 119.88 130.477C120.03 130.477 120.165 130.417 120.225 130.267C120.225 130.267 120.225 130.237 120.24 130.222C120.3 130.162 120.315 130.087 120.315 129.997C120.315 129.817 120.315 129.622 120.315 129.442C120.315 129.232 120.36 129.187 120.555 129.157C120.645 129.142 120.72 129.142 120.81 129.157C120.96 129.187 121.05 129.097 121.05 128.947C121.05 128.737 121.05 128.512 121.05 128.302C121.05 128.242 121.05 128.197 121.05 128.137C121.05 128.107 121.08 128.092 121.125 128.092V128.947C121.125 129.157 120.96 129.292 120.765 129.232C120.645 129.202 120.54 129.247 120.42 129.247C120.42 129.247 120.405 129.277 120.39 129.292L120.45 129.262Z" fill="#C8C3BE"/>
<path d="M110.85 128.017V128.092H110.82C110.79 128.002 110.715 128.047 110.67 128.047C110.355 128.047 110.4 128.002 110.4 128.317C110.4 128.542 110.37 128.572 110.145 128.572C109.725 128.572 109.29 128.572 108.87 128.572C108.825 128.572 108.78 128.587 108.735 128.542C108.705 128.527 108.675 128.497 108.66 128.467C108.6 128.407 108.615 128.332 108.615 128.272C108.645 128.227 108.615 128.182 108.645 128.152C108.615 128.047 108.54 128.062 108.465 128.062C108.375 128.062 108.33 128.032 108.33 127.942V127.897C108.33 127.897 108.375 127.927 108.405 127.942C108.42 127.972 108.45 128.002 108.495 128.002C108.735 128.017 108.75 128.047 108.75 128.287C108.75 128.482 108.78 128.512 108.975 128.512C109.38 128.512 109.785 128.512 110.19 128.512C110.325 128.512 110.37 128.467 110.355 128.332C110.355 128.287 110.355 128.257 110.355 128.212C110.355 128.077 110.415 128.017 110.55 128.017C110.67 128.017 110.775 127.987 110.895 128.047L110.85 128.017Z" fill="#C7C7C9"/>
<path d="M111.09 128.812C111.09 128.812 111.015 128.782 110.985 128.737C111.03 128.737 111.06 128.767 111.09 128.812Z" fill="#FAF0D8"/>
<path d="M108.675 128.467C108.675 128.467 108.735 128.512 108.75 128.542C108.705 128.542 108.675 128.512 108.675 128.467Z" fill="#D3D3D4"/>
<path d="M108.645 128.137C108.645 128.137 108.66 128.227 108.615 128.257C108.615 128.212 108.6 128.167 108.645 128.137Z" fill="#D3D3D4"/>
<path d="M108.765 126.727C108.765 126.727 108.84 126.712 108.87 126.712C109.29 126.712 109.695 126.712 110.115 126.712C110.325 126.712 110.34 126.712 110.34 126.937C110.34 127.252 110.34 127.237 110.64 127.237C110.7 127.237 110.775 127.237 110.835 127.237H110.865C110.865 127.267 110.865 127.282 110.85 127.297C110.835 127.297 110.805 127.312 110.79 127.312C110.655 127.312 110.535 127.312 110.4 127.312C110.295 127.282 110.25 127.207 110.25 127.117C110.25 127.042 110.25 126.967 110.25 126.892C110.25 126.817 110.25 126.802 110.175 126.802C109.74 126.802 109.29 126.802 108.855 126.802C108.825 126.802 108.795 126.802 108.765 126.787C108.765 126.787 108.75 126.757 108.765 126.742V126.727Z" fill="#8C8C8C"/>
<path d="M108.765 126.727V126.757V126.802C108.765 126.802 108.765 126.907 108.765 126.952C108.765 127.012 108.765 127.057 108.765 127.117C108.765 127.207 108.72 127.282 108.615 127.282C108.555 127.282 108.51 127.282 108.45 127.282H108.42C108.42 127.282 108.39 127.372 108.345 127.342C108.345 127.312 108.345 127.297 108.345 127.267C108.375 127.207 108.45 127.222 108.495 127.222C108.63 127.222 108.66 127.192 108.66 127.057C108.66 126.982 108.66 126.907 108.66 126.832C108.66 126.772 108.66 126.727 108.735 126.727H108.765Z" fill="#939393"/>
<path d="M110.865 127.237H110.835V127.207C110.835 127.207 110.835 127.117 110.865 127.087C110.865 126.967 110.865 126.862 110.865 126.742C110.865 126.652 111 126.502 111.09 126.487C111.09 126.487 111.09 126.517 111.09 126.532C110.925 126.697 110.895 126.907 110.91 127.132C110.91 127.177 110.91 127.222 110.85 127.237H110.865Z" fill="#F7DCA2"/>
<path d="M108.375 127.282V127.357C108.435 127.462 108.405 127.567 108.405 127.672C108.405 127.747 108.405 127.807 108.405 127.882C108.405 127.882 108.39 127.912 108.375 127.912L108.33 127.852C108.33 127.702 108.33 127.567 108.33 127.417C108.33 127.372 108.33 127.312 108.375 127.282V127.282Z" fill="#A1A1A1"/>
<path d="M110.415 127.192H110.82C110.685 127.237 110.55 127.237 110.415 127.192Z" fill="#E2E1E1"/>
<path d="M110.865 127.087C110.865 127.087 110.88 127.177 110.85 127.207L110.82 127.162L110.85 127.087H110.88H110.865Z" fill="#F9E1B4"/>
<path d="M121.17 128.062L121.125 128.092C121.125 128.092 121.11 128.047 121.125 128.032C121.185 127.942 121.26 127.942 121.35 127.942C121.59 127.942 121.845 127.942 122.085 127.942C122.13 127.942 122.19 127.942 122.22 127.897C122.265 127.732 122.235 127.552 122.235 127.387C122.235 127.312 122.16 127.312 122.1 127.312C121.86 127.312 121.605 127.312 121.365 127.312C121.32 127.312 121.275 127.312 121.245 127.312C121.11 127.312 121.05 127.237 121.05 127.102C121.05 126.877 121.05 126.652 121.05 126.427C121.05 126.337 121.05 126.247 121.005 126.172C121.005 126.172 120.99 126.157 120.975 126.142C120.84 126.112 120.69 126.142 120.555 126.142C120.405 126.142 120.375 126.112 120.345 125.962C120.3 125.752 120.33 125.527 120.33 125.317C120.33 125.212 120.33 125.107 120.255 125.017C120.255 125.002 120.24 124.987 120.225 124.972C120.195 124.912 120.105 124.897 120.135 124.807H120.18L120.21 124.852C120.375 125.017 120.435 125.212 120.42 125.437C120.405 125.602 120.42 125.767 120.42 125.932C120.42 126.037 120.465 126.082 120.555 126.082C120.69 126.082 120.81 126.082 120.945 126.082C121.05 126.082 121.125 126.112 121.155 126.247C121.185 126.517 121.155 126.802 121.17 127.072C121.17 127.132 121.17 127.207 121.245 127.237C121.545 127.237 121.86 127.237 122.16 127.237C122.22 127.237 122.28 127.237 122.325 127.282C122.355 127.492 122.37 127.702 122.325 127.927C122.31 128.002 122.265 128.047 122.175 128.032C121.905 128.032 121.62 128.032 121.35 128.032C121.29 128.032 121.245 128.032 121.2 128.077L121.17 128.062Z" fill="#B0A99F"/>
<path d="M118.515 124.732V124.762C118.515 124.762 118.38 124.807 118.32 124.807C116.25 124.807 114.18 124.807 112.11 124.807C112.05 124.807 111.975 124.807 111.915 124.807C111.825 124.807 111.78 124.867 111.735 124.927C111.705 124.957 111.675 125.002 111.615 125.002C111.69 124.807 111.78 124.747 111.975 124.747C114.165 124.747 116.34 124.747 118.53 124.747L118.515 124.732Z" fill="#F9E3B6"/>
<path d="M111.6 124.987L111.705 124.912C111.705 124.912 111.705 124.957 111.705 124.972C111.645 125.152 111.645 125.332 111.645 125.527C111.645 125.767 111.645 126.007 111.645 126.247C111.645 126.367 111.615 126.472 111.48 126.532C111.375 126.562 111.27 126.532 111.165 126.532C111.135 126.532 111.105 126.532 111.075 126.502V126.472C111.195 126.427 111.315 126.472 111.435 126.442C111.525 126.397 111.51 126.307 111.51 126.232C111.51 125.902 111.51 125.572 111.51 125.242C111.51 125.167 111.51 125.077 111.585 125.017V124.972L111.6 124.987Z" fill="#F6D38D"/>
<path d="M111.6 125.032C111.6 125.032 111.555 125.137 111.555 125.212C111.555 125.557 111.555 125.902 111.555 126.232C111.555 126.322 111.57 126.427 111.465 126.457C111.36 126.472 111.27 126.472 111.165 126.457C111.24 126.412 111.315 126.427 111.375 126.442C111.48 126.442 111.51 126.397 111.51 126.307C111.51 125.962 111.51 125.617 111.51 125.272C111.51 125.182 111.495 125.092 111.6 125.047V125.032Z" fill="#F9E1B4"/>
<path d="M111.15 126.457H111.45C111.33 126.502 111.21 126.457 111.105 126.487C111.105 126.472 111.135 126.457 111.15 126.457Z" fill="#F7DCA2"/>
<path d="M120.12 124.777C120.12 124.777 120.195 124.867 120.225 124.927C120.12 124.987 120.105 124.867 120.045 124.837C120 124.807 119.94 124.822 119.88 124.822C119.445 124.822 119.01 124.822 118.575 124.822C118.56 124.822 118.545 124.822 118.53 124.822C118.515 124.822 118.515 124.792 118.53 124.777C118.995 124.777 119.475 124.777 119.94 124.777C120 124.777 120.06 124.777 120.12 124.807V124.777Z" fill="#9A9186"/>
<path d="M111.495 126.517C111.6 126.457 111.615 126.367 111.615 126.247C111.615 125.932 111.615 125.617 111.615 125.317C111.615 125.182 111.645 125.062 111.69 124.942C111.72 124.912 111.765 124.882 111.78 124.837C111.795 124.822 111.825 124.807 111.855 124.822C111.885 124.822 111.9 124.822 111.915 124.852C111.945 124.897 111.99 124.897 112.02 124.897C112.065 124.897 112.11 124.897 112.14 124.897C114.15 124.897 116.175 124.897 118.185 124.897C118.275 124.897 118.365 124.867 118.455 124.897C118.485 124.927 118.485 124.972 118.485 125.017C118.485 125.707 118.485 126.397 118.485 127.087C118.485 127.102 118.485 127.132 118.485 127.147C118.455 127.222 118.395 127.207 118.335 127.222H118.305C118.245 127.222 118.185 127.237 118.155 127.297C118.14 127.327 118.11 127.357 118.08 127.372C117.96 127.402 117.945 127.477 117.945 127.582C117.945 127.672 117.99 127.732 118.035 127.807C118.08 127.897 118.17 127.852 118.245 127.897C118.305 127.927 118.38 127.897 118.44 127.927C118.47 127.927 118.485 127.942 118.485 127.972C118.485 128.002 118.485 128.047 118.485 128.077C118.485 128.797 118.485 129.517 118.485 130.237C118.485 130.267 118.485 130.282 118.47 130.312C118.44 130.372 118.395 130.387 118.335 130.387C118.305 130.387 118.26 130.387 118.23 130.387C116.175 130.387 114.12 130.387 112.065 130.387C111.99 130.387 111.915 130.387 111.84 130.357C111.81 130.357 111.795 130.327 111.795 130.297C111.87 130.237 111.96 130.252 112.035 130.252C113.955 130.252 115.875 130.252 117.81 130.252C117.96 130.252 118.11 130.252 118.26 130.252C118.2 130.222 118.14 130.222 118.08 130.222C117.165 130.222 116.25 130.222 115.35 130.222C114.195 130.222 113.055 130.222 111.9 130.222C111.78 130.222 111.735 130.177 111.735 130.042C111.735 129.727 111.735 129.412 111.735 129.097C111.735 129.037 111.735 128.977 111.705 128.902C111.675 128.947 111.69 128.992 111.69 129.022C111.69 129.352 111.69 129.682 111.69 130.012C111.69 130.072 111.69 130.132 111.645 130.192C111.6 130.117 111.6 130.042 111.6 129.967C111.6 129.637 111.6 129.307 111.6 128.977C111.6 128.812 111.51 128.707 111.345 128.722C111.225 128.722 111.12 128.707 111.03 128.647H111.045C111.045 128.647 111.135 128.617 111.195 128.617C111.285 128.617 111.36 128.617 111.45 128.617C111.525 128.587 111.495 128.527 111.495 128.482C111.495 127.957 111.495 127.417 111.495 126.892C111.495 126.802 111.495 126.727 111.51 126.652C111.51 126.607 111.51 126.577 111.48 126.547L111.495 126.517Z" fill="#F4C76E"/>
<path d="M111.465 128.632H111.195C111.195 128.632 111.12 128.527 111.045 128.542C110.985 128.527 110.955 128.467 110.925 128.407C110.925 128.272 110.955 128.122 110.895 127.987C110.865 127.972 110.85 127.942 110.85 127.897C110.85 127.897 110.85 127.867 110.85 127.852C110.865 127.672 110.85 127.477 110.865 127.297C110.925 127.192 110.91 127.072 110.895 126.967C110.895 126.817 110.925 126.712 111.03 126.622C111.075 126.607 111.105 126.577 111.12 126.532C111.12 126.532 111.135 126.532 111.15 126.532C111.15 126.532 111.165 126.532 111.18 126.547C111.24 126.592 111.315 126.562 111.39 126.577C111.435 126.577 111.48 126.562 111.495 126.622C111.495 127.237 111.495 127.852 111.495 128.467C111.495 128.527 111.495 128.587 111.465 128.647V128.632Z" fill="#F2C268"/>
<path d="M111.675 130.192C111.675 129.757 111.675 129.337 111.675 128.902C111.675 128.872 111.66 128.812 111.705 128.797C111.75 128.797 111.765 128.842 111.795 128.872C111.81 128.902 111.81 128.947 111.81 128.977C111.81 129.337 111.81 129.697 111.81 130.057C111.81 130.132 111.81 130.207 111.93 130.177C111.96 130.177 112.005 130.177 112.035 130.177C114.075 130.177 116.115 130.177 118.155 130.177C118.215 130.177 118.275 130.177 118.32 130.192C118.35 130.192 118.395 130.207 118.395 130.267C118.395 130.312 118.35 130.297 118.32 130.297C118.29 130.297 118.26 130.297 118.23 130.297H111.825C111.735 130.327 111.72 130.252 111.675 130.192C111.675 130.192 111.675 130.177 111.675 130.162V130.192Z" fill="#F3C66B"/>
<path d="M111.675 130.207C111.675 130.207 111.75 130.312 111.825 130.312C111.84 130.387 111.915 130.357 111.96 130.357C112.59 130.357 113.22 130.357 113.85 130.357C115.335 130.357 116.82 130.357 118.305 130.357C118.365 130.357 118.425 130.357 118.47 130.312C118.5 130.327 118.5 130.357 118.515 130.387C118.515 130.402 118.515 130.417 118.5 130.432C116.355 130.432 114.21 130.432 112.065 130.432C111.93 130.432 111.825 130.387 111.72 130.312C111.69 130.282 111.66 130.252 111.675 130.207V130.207Z" fill="#F5CB79"/>
<path d="M110.865 127.912L110.895 127.987L110.85 128.017C110.745 128.017 110.625 128.017 110.52 128.017C110.4 128.017 110.355 128.077 110.355 128.182C110.355 128.272 110.4 128.347 110.355 128.437C110.325 128.482 110.31 128.512 110.25 128.512C109.785 128.512 109.32 128.512 108.87 128.512C108.765 128.512 108.72 128.437 108.72 128.347C108.72 128.287 108.72 128.242 108.72 128.182C108.72 128.032 108.69 128.017 108.555 128.002C108.525 128.002 108.48 128.002 108.45 127.972C108.6 127.897 108.705 127.927 108.795 128.062C108.81 128.122 108.81 128.182 108.795 128.227C108.795 128.287 108.78 128.347 108.84 128.392C108.885 128.422 108.93 128.422 108.975 128.422C109.35 128.422 109.74 128.422 110.115 128.422C110.31 128.422 110.325 128.407 110.325 128.212C110.325 128.182 110.325 128.152 110.325 128.107C110.325 127.972 110.385 127.927 110.52 127.912C110.655 127.912 110.775 127.912 110.91 127.912H110.865Z" fill="#A1A1A1"/>
<path d="M110.925 128.407C110.925 128.407 110.985 128.512 111.045 128.527C111.075 128.557 111.075 128.587 111.045 128.632C111.015 128.557 110.91 128.512 110.925 128.407V128.407Z" fill="#F4C76E"/>
<path d="M118.5 130.432V130.387C118.5 130.387 118.5 130.342 118.5 130.312C118.56 130.297 118.56 130.342 118.575 130.372C118.575 130.402 118.605 130.447 118.575 130.477H118.53L118.5 130.432Z" fill="#C3AB80"/>
<path d="M122.25 127.912C122.25 127.912 122.175 127.957 122.145 127.957C121.875 127.957 121.605 127.957 121.35 127.957C121.26 127.957 121.2 127.972 121.14 128.032C121.11 128.077 121.11 128.122 121.11 128.182C121.11 128.422 121.11 128.677 121.11 128.917C121.11 129.082 121.02 129.157 120.87 129.127C120.75 129.097 120.645 129.127 120.525 129.127C120.435 129.127 120.375 129.217 120.375 129.322C120.375 129.532 120.375 129.742 120.375 129.952C120.375 130.042 120.345 130.132 120.285 130.207C120.285 130.207 120.285 130.207 120.285 130.222C120.255 130.252 120.27 130.327 120.195 130.312C120.165 130.267 120.21 130.237 120.225 130.192V130.147C120.27 130.057 120.255 129.982 120.255 129.892C120.255 129.712 120.255 129.547 120.255 129.367C120.255 129.142 120.39 129.022 120.615 129.007C120.72 129.007 120.81 129.007 120.915 129.007C120.945 129.007 120.96 129.007 120.99 128.977C121.035 128.932 121.005 128.887 121.02 128.842C121.02 128.572 121.005 128.317 121.02 128.047C121.11 127.912 121.215 127.852 121.38 127.852C121.62 127.852 121.875 127.852 122.115 127.852C122.175 127.852 122.22 127.852 122.265 127.882L122.25 127.912Z" fill="#92897D"/>
<path d="M120.27 130.222C120.36 130.072 120.345 129.907 120.345 129.742C120.345 129.607 120.345 129.472 120.345 129.337C120.345 129.202 120.42 129.142 120.555 129.127C120.675 129.127 120.78 129.127 120.9 129.127C121.02 129.127 121.08 129.082 121.08 128.962C121.08 128.707 121.08 128.452 121.08 128.182C121.08 128.137 121.08 128.077 121.125 128.047V128.092C121.125 128.377 121.125 128.647 121.125 128.932C121.125 129.097 121.005 129.202 120.855 129.172C120.735 129.142 120.615 129.172 120.495 129.172C120.405 129.172 120.375 129.277 120.375 129.367C120.375 129.577 120.375 129.802 120.375 130.012C120.375 130.102 120.375 130.177 120.27 130.222V130.222Z" fill="#A69F96"/>
<path d="M120.165 130.312C120.165 130.312 120.225 130.267 120.27 130.237C120.255 130.357 120.075 130.492 119.94 130.492C119.475 130.492 119.025 130.492 118.56 130.492L118.53 130.402H118.545C118.545 130.402 118.65 130.402 118.71 130.402C119.07 130.402 119.445 130.402 119.805 130.402C119.895 130.402 119.97 130.402 120.045 130.357C120.075 130.357 120.105 130.312 120.15 130.312H120.165Z" fill="#9F968B"/>
<path d="M108.75 128.092C108.675 127.957 108.54 128.002 108.42 127.987C108.39 127.987 108.375 127.942 108.36 127.912C108.465 127.882 108.57 127.912 108.675 127.942C108.735 127.972 108.78 128.017 108.735 128.092H108.75Z" fill="#939393"/>
<path d="M110.4 127.282H110.82V127.312C110.79 127.327 110.76 127.327 110.715 127.327C110.625 127.327 110.55 127.327 110.46 127.327C110.445 127.327 110.415 127.327 110.4 127.327C110.34 127.372 110.265 127.387 110.175 127.387C109.77 127.387 109.365 127.387 108.96 127.387C108.855 127.387 108.765 127.342 108.675 127.312C108.645 127.312 108.615 127.312 108.585 127.312C108.54 127.312 108.48 127.312 108.435 127.282C108.435 127.282 108.42 127.267 108.435 127.252C108.435 127.252 108.555 127.252 108.615 127.252C108.765 127.252 108.765 127.237 108.78 127.087C108.78 126.997 108.75 126.907 108.78 126.817C108.885 126.862 108.825 126.952 108.84 127.027C108.84 127.057 108.84 127.087 108.84 127.132C108.84 127.147 108.84 127.162 108.84 127.177C108.93 127.117 109.035 127.102 109.14 127.102C109.44 127.102 109.74 127.102 110.04 127.102C110.085 127.102 110.13 127.102 110.16 127.102H110.19H110.22C110.25 127.192 110.28 127.267 110.385 127.267L110.4 127.282Z" fill="#6B6B6D"/>
<path d="M110.82 127.312V127.282H110.88C110.88 127.492 110.895 127.687 110.88 127.882V127.912C110.88 127.912 110.805 127.957 110.76 127.957C110.685 127.957 110.61 127.957 110.535 127.957C110.37 127.957 110.34 127.987 110.34 128.167C110.34 128.197 110.34 128.227 110.34 128.272C110.34 128.437 110.31 128.467 110.145 128.467C109.785 128.467 109.425 128.467 109.065 128.467H108.885C108.885 128.467 108.81 128.467 108.795 128.422H108.81C108.885 128.392 108.96 128.392 109.05 128.392C109.44 128.392 109.815 128.392 110.205 128.392C110.205 128.392 110.235 128.392 110.235 128.377C110.28 128.332 110.25 128.287 110.235 128.242C110.205 127.987 110.295 127.882 110.55 127.882C110.625 127.882 110.715 127.882 110.79 127.882C110.79 127.882 110.805 127.867 110.82 127.852C110.85 127.687 110.82 127.522 110.835 127.372L110.82 127.312Z" fill="#7E7D7E"/>
<path d="M110.22 127.117H110.19C110.19 127.117 110.16 127.087 110.16 127.057C110.16 127.012 110.16 126.982 110.16 126.937C110.16 126.847 110.13 126.802 110.04 126.832C109.695 126.832 109.35 126.832 109.005 126.832C108.945 126.817 108.87 126.847 108.84 126.772H110.22C110.295 126.847 110.295 127.042 110.22 127.117V127.117Z" fill="#646465"/>
<path d="M111.09 126.637C110.985 126.727 110.895 126.802 110.91 126.952C110.91 127.057 110.94 127.177 110.895 127.282C110.895 127.282 110.895 127.282 110.865 127.282V127.222C110.925 127.132 110.91 127.042 110.895 126.952C110.88 126.757 110.955 126.607 111.105 126.487H111.18C111.18 126.487 111.18 126.487 111.18 126.502H111.15C111.15 126.502 111.12 126.577 111.105 126.607L111.09 126.637Z" fill="#F3C771"/>
<path d="M110.22 127.117C110.265 126.997 110.265 126.877 110.22 126.772C110.295 126.772 110.325 126.787 110.31 126.877C110.28 126.967 110.31 127.072 110.31 127.162C110.31 127.237 110.355 127.267 110.415 127.297C110.25 127.297 110.25 127.282 110.235 127.117H110.22Z" fill="#767677"/>
<path d="M108.84 126.757C108.84 126.757 108.945 126.772 108.99 126.787C108.915 126.862 108.87 126.982 108.795 127.057C108.795 126.982 108.825 126.907 108.765 126.832C108.75 126.802 108.75 126.787 108.765 126.757H108.84Z" fill="#585858"/>
<path d="M108.42 127.282C108.42 127.282 108.42 127.297 108.42 127.312C108.465 127.357 108.45 127.432 108.45 127.492C108.45 127.597 108.45 127.717 108.45 127.822C108.495 127.867 108.555 127.852 108.6 127.852C108.72 127.852 108.78 127.912 108.78 128.047C108.78 128.167 108.81 128.302 108.75 128.407C108.75 128.407 108.69 128.317 108.705 128.257C108.705 128.197 108.72 128.137 108.72 128.092C108.72 127.942 108.6 127.957 108.525 127.942C108.465 127.942 108.405 127.942 108.36 127.912V127.357L108.405 127.282H108.42Z" fill="#7B7B7B"/>
<path d="M108.765 126.757V126.832C108.765 126.922 108.765 127.012 108.765 127.102C108.765 127.222 108.705 127.282 108.585 127.282C108.585 127.282 108.585 127.282 108.585 127.267C108.69 127.267 108.735 127.207 108.735 127.102C108.735 127.042 108.735 126.982 108.735 126.922C108.72 126.877 108.72 126.817 108.735 126.772L108.765 126.742V126.757Z" fill="#7B7B7B"/>
<path d="M108.6 127.267V127.297H108.42C108.42 127.297 108.54 127.282 108.6 127.267Z" fill="#8C8C8C"/>
<path d="M108.75 126.787V126.937C108.75 126.937 108.72 126.832 108.75 126.787Z" fill="#8C8C8C"/>
<path d="M122.25 127.912C121.98 127.912 121.71 127.912 121.44 127.912C121.275 127.912 121.14 127.942 121.035 128.062C121.035 127.957 121.065 127.897 121.2 127.837C121.2 127.837 121.23 127.837 121.245 127.837C121.515 127.837 121.785 127.837 122.055 127.837C122.22 127.837 122.22 127.837 122.22 127.657C122.22 127.327 122.25 127.372 121.92 127.357C121.68 127.357 121.455 127.357 121.215 127.357C121.2 127.357 121.185 127.357 121.17 127.357C121.17 127.357 121.14 127.357 121.125 127.342C121.02 127.282 120.975 127.192 120.975 127.072C120.975 126.772 120.975 126.487 120.975 126.187C120.975 126.157 120.975 126.142 120.975 126.127C121.065 126.187 121.05 126.292 121.05 126.382C121.05 126.607 121.05 126.832 121.05 127.072C121.05 127.252 121.095 127.282 121.275 127.282C121.56 127.282 121.83 127.282 122.115 127.282C122.22 127.282 122.265 127.312 122.265 127.432C122.25 127.597 122.295 127.777 122.235 127.942L122.25 127.912Z" fill="#707071"/>
<path d="M120.99 126.112V126.157H120.975C120.975 126.157 120.93 126.157 120.915 126.157C120.885 126.157 120.855 126.157 120.84 126.157C120.645 126.157 120.45 126.202 120.255 126.112C120.195 126.067 120.21 125.992 120.21 125.932C120.21 125.692 120.21 125.452 120.21 125.212C120.18 125.137 120.24 125.017 120.105 124.972C120.045 124.942 120.015 124.897 120.015 124.822C120.03 124.822 120.045 124.822 120.075 124.822C120.135 124.852 120.135 124.942 120.225 124.927L120.255 124.957C120.36 125.167 120.33 125.407 120.33 125.632C120.33 125.737 120.33 125.842 120.33 125.947C120.36 126.067 120.39 126.097 120.51 126.097C120.675 126.097 120.825 126.097 120.99 126.097V126.112Z" fill="#796E5F"/>
<path d="M120.99 126.112C120.825 126.112 120.645 126.112 120.48 126.112C120.36 126.112 120.3 126.037 120.285 125.932C120.285 125.602 120.3 125.287 120.24 124.972C120.315 125.062 120.345 125.167 120.345 125.287C120.345 125.512 120.33 125.737 120.36 125.977C120.375 126.082 120.435 126.112 120.525 126.112C120.645 126.112 120.75 126.112 120.87 126.112C120.915 126.112 120.96 126.112 120.99 126.142V126.112Z" fill="#988E82"/>
<path d="M111.9 124.837H111.855C111.855 124.837 111.855 124.807 111.855 124.792C111.9 124.777 111.93 124.762 111.975 124.762C114.165 124.762 116.34 124.762 118.53 124.762V124.792C118.53 124.792 118.485 124.852 118.44 124.867C118.38 124.882 118.305 124.867 118.245 124.867C116.205 124.867 114.165 124.867 112.125 124.867C112.05 124.867 111.96 124.882 111.9 124.822V124.837Z" fill="#F6D28A"/>
<path d="M111.84 124.777V124.822C111.84 124.822 111.795 124.822 111.795 124.852C111.765 124.882 111.75 124.927 111.69 124.897C111.69 124.897 111.75 124.762 111.84 124.777Z" fill="#F6D38D"/>
<path d="M111.165 126.532V126.502H111.495C111.495 126.502 111.63 126.502 111.57 126.607C111.54 126.652 111.555 126.697 111.555 126.742C111.555 127.327 111.555 127.912 111.555 128.497C111.555 128.557 111.57 128.632 111.48 128.647C111.48 128.032 111.48 127.417 111.48 126.802C111.48 126.727 111.48 126.667 111.51 126.592C111.45 126.547 111.39 126.592 111.33 126.592C111.285 126.592 111.225 126.592 111.18 126.562L111.165 126.532Z" fill="#F3C56A"/>
<path d="M111.69 124.912C111.69 124.912 111.75 124.882 111.795 124.867C111.795 124.927 111.75 124.942 111.69 124.942V124.912Z" fill="#F6D28A"/>
<path d="M118.47 124.837C118.47 124.837 118.485 124.792 118.515 124.792H118.545C118.545 124.792 118.575 124.837 118.575 124.852C118.575 124.882 118.575 124.912 118.575 124.942C118.575 125.647 118.575 126.352 118.575 127.072C118.575 127.117 118.575 127.177 118.575 127.222C118.575 127.312 118.53 127.387 118.425 127.402C118.35 127.402 118.32 127.447 118.335 127.522C118.335 127.627 118.32 127.732 118.35 127.837C118.425 127.882 118.545 127.852 118.575 127.972C118.59 128.137 118.575 128.287 118.575 128.452C118.575 129.037 118.575 129.637 118.575 130.222C118.575 130.282 118.575 130.342 118.545 130.402L118.5 130.327C118.5 130.327 118.5 130.282 118.5 130.252C118.5 129.532 118.5 128.812 118.5 128.092C118.5 128.047 118.515 128.002 118.5 127.972H118.455C118.26 127.942 118.245 127.927 118.23 127.732C118.23 127.627 118.23 127.537 118.23 127.432C118.245 127.327 118.305 127.252 118.425 127.237C118.5 127.237 118.515 127.192 118.515 127.132C118.515 126.412 118.515 125.692 118.515 124.972C118.515 124.942 118.515 124.912 118.5 124.867V124.837H118.47Z" fill="#BB9B5F"/>
<path d="M118.545 124.837V124.792C119.01 124.792 119.49 124.792 119.955 124.792C120 124.792 120.045 124.777 120.06 124.837H120.015C120.015 124.837 119.985 124.852 119.97 124.867C119.805 124.897 119.64 124.867 119.475 124.867C119.175 124.867 118.875 124.882 118.575 124.867C118.56 124.867 118.545 124.867 118.53 124.837H118.545Z" fill="#908677"/>
<path d="M111.9 124.837H118.47C118.47 124.837 118.485 124.882 118.47 124.912C118.35 124.942 118.23 124.942 118.095 124.942C116.085 124.942 114.075 124.942 112.05 124.942C111.975 124.942 111.9 124.942 111.885 124.837H111.9Z" fill="#F3C467"/>
<path d="M113.415 127.612C113.415 127.792 113.415 127.972 113.415 128.167C113.415 128.272 113.385 128.332 113.295 128.362C113.205 128.392 113.13 128.437 113.025 128.452C112.875 128.452 112.77 128.377 112.635 128.332C112.575 128.302 112.575 128.242 112.59 128.182C112.635 127.852 112.62 127.522 112.59 127.207C112.59 127.132 112.59 127.042 112.59 126.952C112.59 126.862 112.665 126.817 112.755 126.817C112.905 126.817 113.055 126.817 113.205 126.817C113.37 126.817 113.415 126.862 113.415 127.027C113.415 127.222 113.415 127.417 113.415 127.612V127.612Z" fill="#F3C56A"/>
<path d="M118.47 124.912V124.837C118.47 124.837 118.5 124.912 118.5 124.957C118.5 125.677 118.5 126.397 118.5 127.117C118.5 127.207 118.5 127.267 118.38 127.267C118.305 127.267 118.275 127.312 118.26 127.387C118.215 127.537 118.23 127.702 118.26 127.852C118.275 127.957 118.38 127.912 118.44 127.957C118.38 127.957 118.305 127.987 118.245 127.927C118.215 127.882 118.155 127.867 118.14 127.807C118.125 127.672 118.14 127.537 118.14 127.417C118.14 127.417 118.14 127.387 118.14 127.372C118.17 127.282 118.23 127.237 118.305 127.207H118.335C118.335 127.207 118.44 127.207 118.485 127.177V124.897L118.47 124.912Z" fill="#EABC66"/>
<path d="M118.14 127.357V127.387C118.035 127.507 118.08 127.642 118.08 127.777C118.08 127.822 118.11 127.837 118.14 127.837C118.185 127.852 118.215 127.882 118.215 127.942C118.155 127.912 118.065 127.972 118.005 127.867C117.945 127.747 117.9 127.642 117.915 127.507C117.915 127.432 117.96 127.372 118.035 127.372C118.095 127.372 118.11 127.327 118.14 127.297C118.155 127.327 118.155 127.342 118.14 127.372V127.357Z" fill="#F2C46A"/>
<path d="M118.47 127.957C118.47 127.957 118.5 128.002 118.5 128.017C118.5 128.767 118.5 129.502 118.5 130.252C118.5 130.252 118.485 130.252 118.47 130.252V127.957Z" fill="#EABC66"/>
<path d="M111.045 128.632V128.527C111.06 128.437 111.105 128.497 111.12 128.527C111.15 128.557 111.195 128.572 111.195 128.632H111.045Z" fill="#F2C163"/>
<path d="M118.14 127.357V127.282C118.14 127.282 118.23 127.207 118.29 127.207C118.23 127.252 118.185 127.297 118.14 127.357Z" fill="#EFC66D"/>
<path d="M118.47 127.192C118.47 127.192 118.365 127.207 118.32 127.222C118.365 127.177 118.425 127.207 118.47 127.192Z" fill="#EFC66D"/>
<path d="M118.47 130.267C118.47 130.267 118.485 130.267 118.5 130.267V130.387C118.5 130.387 118.47 130.342 118.47 130.312V130.267Z" fill="#EEC66D"/>
<path d="M111.165 126.532C111.24 126.532 111.315 126.532 111.39 126.532C111.435 126.532 111.48 126.532 111.48 126.577C111.39 126.607 111.315 126.607 111.225 126.607C111.165 126.607 111.15 126.577 111.15 126.532H111.165Z" fill="#F2C060"/>
<path d="M110.865 127.297H110.895C110.895 127.447 110.895 127.612 110.895 127.762C110.895 127.807 110.91 127.852 110.88 127.882V127.297H110.865Z" fill="#8C8C8C"/>
<path d="M111.09 126.637C111.09 126.637 111.105 126.562 111.135 126.532C111.135 126.577 111.135 126.607 111.09 126.637Z" fill="#F3C56A"/>
<path d="M120.165 130.312C120.165 130.312 120.135 130.372 120.09 130.357C120 130.387 119.895 130.402 119.79 130.402C119.43 130.402 119.07 130.402 118.71 130.402C118.56 130.402 118.56 130.402 118.56 130.252C118.56 129.562 118.56 128.857 118.56 128.167C118.56 128.152 118.56 128.137 118.56 128.122H118.59C118.59 128.122 118.62 128.122 118.62 128.152C118.65 128.212 118.695 128.197 118.74 128.197C119.205 128.197 119.67 128.197 120.12 128.197C120.15 128.197 120.195 128.197 120.225 128.197C120.345 128.152 120.36 128.167 120.36 128.287C120.36 128.527 120.405 128.767 120.315 129.007C120.3 129.052 120.315 129.052 120.36 129.052C120.36 129.052 120.39 129.052 120.405 129.052C120.525 129.052 120.66 129.052 120.78 129.052C120.825 129.052 120.87 129.052 120.9 129.097C120.795 129.142 120.675 129.112 120.555 129.112C120.36 129.112 120.24 129.232 120.24 129.427C120.24 129.637 120.24 129.862 120.24 130.072C120.24 130.132 120.24 130.207 120.195 130.252C120.15 130.192 120.15 130.132 120.15 130.072C120.15 129.847 120.15 129.622 120.15 129.412C120.15 129.622 120.165 129.847 120.135 130.057C120.105 130.237 120.06 130.282 119.88 130.282C119.52 130.282 119.175 130.282 118.815 130.282C118.77 130.282 118.71 130.282 118.65 130.282C118.71 130.297 118.74 130.297 118.785 130.297C119.145 130.297 119.505 130.297 119.85 130.297C119.925 130.297 120.015 130.297 120.075 130.237C120.105 130.207 120.15 130.207 120.18 130.237C120.18 130.282 120.15 130.297 120.135 130.342L120.165 130.312Z" fill="#796C5B"/>
<path d="M120.93 129.037H120.405C120.375 128.932 120.45 128.902 120.525 128.887C120.585 128.872 120.645 128.887 120.705 128.887C120.855 128.887 120.87 128.872 120.87 128.737C120.87 128.572 120.87 128.392 120.87 128.227C120.87 128.182 120.87 128.137 120.87 128.107C120.87 128.062 120.9 128.032 120.93 128.032C120.975 128.032 120.99 128.062 121.005 128.092C121.005 128.362 121.005 128.632 121.005 128.902C121.005 128.962 121.005 129.007 121.005 129.067H120.93V129.037Z" fill="#6D604F"/>
<path d="M120.99 128.887V128.062C120.99 128.062 120.96 127.942 121.005 127.897C121.11 127.807 121.11 127.702 121.095 127.582C121.095 127.492 121.065 127.417 121.095 127.327C121.095 127.327 121.125 127.312 121.125 127.327H121.155C121.215 127.507 121.29 127.687 121.155 127.882C121.08 127.927 121.02 127.987 121.005 128.077V128.902C121.005 128.902 120.99 128.902 120.975 128.902L120.99 128.887Z" fill="#6D665D"/>
<path d="M120.99 128.887C120.99 128.887 121.005 128.887 121.02 128.887C121.02 128.932 121.05 128.992 120.99 129.037V128.887Z" fill="#726657"/>
<path d="M118.575 128.107C118.575 128.812 118.575 129.517 118.575 130.222C118.575 130.327 118.605 130.357 118.71 130.357C119.175 130.357 119.64 130.357 120.105 130.357C120.03 130.417 119.925 130.432 119.82 130.432C119.445 130.432 119.07 130.432 118.695 130.432C118.635 130.432 118.59 130.432 118.545 130.387C118.545 129.562 118.545 128.752 118.545 127.927C118.56 127.927 118.575 127.927 118.575 127.927C118.605 127.987 118.605 128.047 118.575 128.092V128.107Z" fill="#85796B"/>
<path d="M108.645 127.312C109.125 127.462 109.62 127.357 110.115 127.387C110.22 127.387 110.325 127.387 110.4 127.312C110.46 127.357 110.535 127.387 110.625 127.372C110.715 127.372 110.76 127.417 110.76 127.507C110.76 127.522 110.76 127.537 110.76 127.552C110.76 127.642 110.76 127.747 110.685 127.777C110.58 127.807 110.46 127.837 110.355 127.732C110.31 127.687 110.265 127.672 110.22 127.672C109.785 127.672 109.35 127.672 108.915 127.672C108.9 127.672 108.885 127.672 108.855 127.702C108.915 127.732 108.96 127.717 109.005 127.717C109.365 127.717 109.74 127.717 110.1 127.717C110.295 127.717 110.49 127.822 110.685 127.792C110.715 127.792 110.73 127.807 110.73 127.837C110.1 127.897 109.455 127.867 108.825 127.867C108.75 127.867 108.675 127.837 108.585 127.837C108.435 127.702 108.465 127.402 108.645 127.267V127.312Z" fill="#666666"/>
<path d="M110.715 127.867C110.715 127.867 110.685 127.852 110.655 127.837C110.205 127.777 109.755 127.792 109.29 127.792C109.14 127.792 109.005 127.792 108.855 127.792C108.795 127.792 108.75 127.777 108.75 127.717C108.75 127.657 108.81 127.672 108.855 127.672C109.32 127.672 109.785 127.672 110.235 127.672C110.295 127.672 110.325 127.672 110.355 127.747C110.415 127.852 110.52 127.792 110.61 127.792C110.685 127.792 110.67 127.717 110.685 127.672C110.685 127.642 110.685 127.612 110.685 127.582C110.7 127.462 110.67 127.387 110.52 127.417C110.445 127.417 110.385 127.402 110.355 127.312H110.4C110.49 127.342 110.58 127.387 110.67 127.312H110.775C110.79 127.492 110.79 127.672 110.775 127.867C110.775 127.867 110.715 127.882 110.67 127.867H110.715Z" fill="#626264"/>
<path d="M108.795 127.057C108.825 126.937 108.87 126.832 108.99 126.787H110.07C110.07 126.787 110.16 126.877 110.175 126.952C110.175 126.997 110.175 127.042 110.205 127.072V127.117C110.205 127.117 110.16 127.162 110.13 127.132H110.115C110.04 126.967 109.89 126.982 109.755 126.982C109.545 126.982 109.335 126.982 109.125 126.982C109.05 126.982 108.975 126.982 108.945 127.087C108.93 127.132 108.885 127.192 108.81 127.177V127.072L108.795 127.057Z" fill="#605F61"/>
<path d="M108.795 127.162C108.795 127.162 108.915 127.072 108.915 126.982C108.915 126.922 108.96 126.937 108.99 126.937C109.32 126.937 109.65 126.937 109.98 126.937C110.025 126.937 110.07 126.937 110.055 126.997C110.055 127.057 110.13 127.072 110.13 127.132C109.785 127.102 109.425 127.132 109.08 127.132C108.99 127.132 108.9 127.132 108.84 127.207C108.84 127.222 108.81 127.222 108.78 127.207V127.162H108.795Z" fill="#616163"/>
<path d="M108.795 127.207C108.885 127.087 109.02 127.072 109.155 127.087C109.38 127.087 109.62 127.087 109.845 127.087C109.95 127.087 110.04 127.087 110.13 127.132L110.175 127.102C110.16 127.177 110.1 127.147 110.055 127.147C109.725 127.147 109.38 127.147 109.05 127.147C108.975 127.147 108.9 127.147 108.855 127.222C108.84 127.267 108.78 127.282 108.78 127.192L108.795 127.207Z" fill="#666667"/>
<path d="M108.645 127.312C108.6 127.402 108.48 127.477 108.51 127.612C108.51 127.672 108.51 127.732 108.555 127.777C108.6 127.822 108.555 127.837 108.54 127.867C108.51 127.882 108.48 127.867 108.435 127.867C108.45 127.747 108.435 127.627 108.435 127.507C108.435 127.402 108.465 127.342 108.555 127.312H108.63H108.645Z" fill="#636362"/>
<path d="M108.57 127.312C108.42 127.417 108.465 127.582 108.48 127.717C108.48 127.777 108.48 127.822 108.45 127.852C108.45 127.852 108.435 127.852 108.42 127.852V127.297H108.57V127.312Z" fill="#5F5F5E"/>
<path d="M110.715 127.312C110.685 127.417 110.55 127.417 110.445 127.312H110.715Z" fill="#626261"/>
<path d="M108.42 127.867C108.42 127.867 108.435 127.867 108.45 127.867H110.82C110.73 127.927 110.625 127.882 110.535 127.897C110.28 127.897 110.205 128.002 110.265 128.242C110.265 128.302 110.325 128.362 110.235 128.392C110.19 128.347 110.22 128.272 110.19 128.212V128.182C110.19 128.182 110.175 128.122 110.175 128.092C110.175 128.092 110.175 128.077 110.16 128.062C109.86 128.077 109.56 128.062 109.275 128.062C109.14 128.062 109.005 128.062 108.87 128.047C108.87 128.047 108.87 128.077 108.855 128.092C108.855 128.152 108.855 128.197 108.855 128.257C108.855 128.287 108.855 128.332 108.9 128.347C108.93 128.347 108.96 128.347 108.975 128.347C109.335 128.347 109.71 128.347 110.07 128.347C110.13 128.347 110.19 128.347 110.235 128.377C110.205 128.422 110.145 128.407 110.1 128.407C109.725 128.407 109.35 128.407 108.99 128.407C108.915 128.407 108.855 128.452 108.78 128.407C108.78 128.287 108.78 128.152 108.78 128.032C108.78 127.927 108.72 127.882 108.63 127.882C108.555 127.882 108.495 127.912 108.42 127.852V127.867Z" fill="#6A696B"/>
<path d="M110.82 127.867V127.312C110.865 127.492 110.865 127.672 110.82 127.867Z" fill="#676666"/>
<path d="M110.19 127.057C110.19 127.057 110.145 127.027 110.145 126.982C110.145 126.907 110.115 126.832 110.07 126.772C110.16 126.772 110.205 126.772 110.19 126.892C110.19 126.937 110.19 126.997 110.19 127.057Z" fill="#585858"/>
<path d="M121.2 127.312C121.515 127.312 121.815 127.312 122.13 127.312C122.22 127.312 122.25 127.342 122.25 127.432C122.25 127.507 122.25 127.582 122.25 127.672C122.25 127.897 122.28 127.867 122.055 127.867C121.845 127.837 121.62 127.867 121.41 127.867C121.365 127.867 121.32 127.882 121.275 127.852C121.275 127.807 121.29 127.777 121.335 127.762C121.545 127.762 121.755 127.762 121.95 127.762C122.07 127.762 122.085 127.732 122.085 127.612C122.085 127.477 122.085 127.462 121.95 127.462C121.77 127.462 121.605 127.462 121.425 127.462C121.35 127.462 121.29 127.462 121.215 127.417C121.185 127.387 121.17 127.357 121.2 127.312Z" fill="#636363"/>
<path d="M121.2 127.312C121.2 127.312 121.2 127.372 121.23 127.387C121.32 127.492 121.425 127.597 121.335 127.762C121.305 127.762 121.29 127.792 121.29 127.807C121.275 127.837 121.23 127.837 121.215 127.852H121.185C121.26 127.672 121.185 127.492 121.185 127.297H121.215L121.2 127.312Z" fill="#686563"/>
<path d="M121.14 127.312H121.11C121.02 127.327 120.96 127.297 120.96 127.207C120.945 126.877 120.945 126.532 120.96 126.202C120.96 126.187 120.96 126.172 120.99 126.157C120.99 126.157 121.02 126.247 121.02 126.292C121.02 126.532 121.02 126.772 121.02 126.997C121.02 127.132 121.02 127.237 121.14 127.312Z" fill="#796E5F"/>
<path d="M121.2 127.867C121.2 127.867 121.245 127.822 121.275 127.822C121.32 127.867 121.365 127.852 121.41 127.852C121.59 127.852 121.755 127.852 121.935 127.852C121.98 127.852 122.025 127.852 122.055 127.882H121.2V127.867Z" fill="#666666"/>
<path d="M120 124.837H120.03L120.105 124.957C120.21 125.122 120.195 125.302 120.195 125.482C120.195 125.632 120.195 125.767 120.195 125.917C120.195 125.722 120.195 125.527 120.195 125.332C120.195 125.272 120.195 125.227 120.225 125.182C120.27 125.212 120.255 125.272 120.255 125.317C120.255 125.542 120.255 125.752 120.255 125.977C120.255 126.022 120.255 126.082 120.285 126.127C120.465 126.367 120.39 126.652 120.39 126.907C120.39 126.982 120.345 126.997 120.27 126.997C119.76 126.967 119.265 126.997 118.755 126.997C118.725 126.997 118.68 126.997 118.65 127.027C118.65 127.042 118.65 127.072 118.65 127.087C118.65 127.177 118.65 127.267 118.62 127.372C118.62 127.417 118.59 127.462 118.53 127.477C118.515 127.477 118.485 127.477 118.47 127.477C118.425 127.477 118.38 127.432 118.365 127.507C118.365 127.627 118.365 127.732 118.365 127.852C118.365 127.852 118.365 127.882 118.335 127.882C118.275 127.732 118.32 127.582 118.32 127.432C118.32 127.402 118.365 127.372 118.395 127.387C118.545 127.402 118.575 127.312 118.56 127.192C118.56 127.162 118.56 127.132 118.56 127.102C118.56 127.072 118.56 127.057 118.56 127.027C118.56 126.352 118.56 125.677 118.56 125.002C118.56 124.972 118.56 124.957 118.56 124.927V124.852H118.575C118.635 124.897 118.695 124.912 118.77 124.912C119.115 124.912 119.46 124.912 119.805 124.912C119.88 124.912 119.955 124.912 120 124.852V124.837Z" fill="#796C5B"/>
<path d="M118.5 127.432C118.635 127.402 118.56 127.267 118.59 127.192C118.605 127.162 118.59 127.102 118.59 127.057C118.62 127.027 118.68 127.027 118.725 127.027C119.175 127.027 119.625 127.027 120.075 127.027C120.165 127.027 120.24 127.057 120.255 127.162C120.255 127.207 120.285 127.267 120.345 127.252C120.42 127.252 120.42 127.177 120.42 127.132C120.42 126.922 120.42 126.712 120.42 126.487C120.42 126.232 120.42 126.217 120.69 126.232C120.795 126.232 120.87 126.187 120.93 126.142L120.975 126.172C120.975 126.487 120.975 126.817 120.975 127.132C120.975 127.237 120.99 127.297 121.095 127.327C121.095 127.447 121.11 127.567 121.125 127.702C121.125 127.792 121.125 127.867 121.02 127.927C120.96 127.957 120.975 128.032 120.975 128.077C120.945 128.077 120.945 128.017 120.9 128.047C120.87 128.062 120.87 128.107 120.87 128.137C120.87 128.347 120.87 128.572 120.87 128.782C120.87 128.902 120.825 128.947 120.705 128.932C120.645 128.932 120.585 128.932 120.525 128.932C120.435 128.932 120.375 128.962 120.36 129.052H120.33C120.255 128.962 120.33 128.917 120.375 128.857C120.405 128.812 120.39 128.752 120.39 128.692C120.405 128.317 120.345 127.942 120.36 127.567C120.36 127.552 120.36 127.537 120.36 127.522C120.36 127.492 120.36 127.447 120.315 127.447C120.27 127.447 120.255 127.492 120.255 127.522C120.255 127.627 120.255 127.717 120.255 127.822C120.255 127.882 120.255 127.927 120.255 127.987C120.255 128.122 120.21 128.167 120.075 128.167C119.76 128.167 119.43 128.167 119.115 128.167C118.98 128.167 118.845 128.167 118.71 128.167C118.665 128.167 118.605 128.167 118.575 128.137C118.575 128.137 118.575 128.002 118.545 127.942C118.515 127.897 118.44 127.897 118.41 127.837C118.395 127.702 118.365 127.567 118.485 127.447L118.5 127.432Z" fill="#726657"/>
<path d="M118.59 127.012C118.59 127.012 118.62 126.937 118.68 126.937C119.175 126.937 119.685 126.937 120.18 126.937C120.21 126.937 120.24 126.937 120.27 126.952C120.315 126.952 120.345 126.952 120.345 126.892C120.345 126.697 120.345 126.502 120.345 126.322C120.345 126.277 120.315 126.262 120.3 126.247C120.27 126.202 120.225 126.172 120.27 126.112C120.465 126.157 120.675 126.127 120.87 126.142C120.87 126.217 120.825 126.232 120.78 126.247C120.75 126.247 120.735 126.247 120.705 126.247C120.535 126.247 120.45 126.332 120.45 126.502C120.45 126.697 120.45 126.877 120.45 127.072C120.45 127.102 120.45 127.132 120.45 127.162C120.45 127.222 120.42 127.267 120.345 127.267C120.285 127.267 120.255 127.222 120.255 127.162C120.255 127.027 120.18 127.027 120.09 127.027C119.64 127.027 119.205 127.027 118.755 127.027C118.695 127.027 118.65 127.027 118.605 126.997L118.59 127.012Z" fill="#776B5B"/>
<path d="M118.59 127.012C119.13 127.012 119.67 127.012 120.195 127.012C120.255 127.012 120.27 127.012 120.27 127.087C120.27 127.102 120.27 127.117 120.27 127.132C120.27 127.192 120.27 127.252 120.345 127.252C120.405 127.252 120.42 127.192 120.42 127.132C120.42 126.907 120.42 126.682 120.42 126.457C120.42 126.202 120.39 126.232 120.63 126.232C120.72 126.232 120.81 126.232 120.87 126.127H120.945C120.9 126.292 120.765 126.247 120.645 126.247C120.465 126.247 120.465 126.247 120.465 126.427C120.465 126.637 120.465 126.847 120.465 127.057C120.465 127.087 120.465 127.117 120.465 127.147C120.465 127.222 120.42 127.282 120.345 127.297C120.27 127.297 120.225 127.237 120.21 127.177C120.21 127.072 120.15 127.057 120.06 127.057C119.565 127.057 119.07 127.057 118.575 127.057V127.012H118.59Z" fill="#736757"/>
<path d="M120.225 125.182C120.225 125.437 120.225 125.707 120.225 125.962C120.225 125.992 120.24 126.037 120.195 126.037C120.15 126.037 120.15 125.992 120.15 125.962C120.15 125.707 120.15 125.467 120.15 125.212C120.15 125.137 120.15 125.062 120.075 125.017C120.015 124.972 120.06 124.957 120.105 124.942C120.21 124.927 120.24 124.972 120.225 125.077C120.225 125.107 120.225 125.137 120.225 125.167V125.182Z" fill="#766958"/>
<path d="M118.545 124.912C118.545 124.912 118.56 124.987 118.56 125.017C118.56 125.677 118.56 126.322 118.56 126.982C118.56 127.012 118.56 127.057 118.545 127.087V124.912V124.912Z" fill="#908677"/>
<path d="M118.44 127.837C118.44 127.837 118.545 127.837 118.56 127.912C118.56 127.912 118.56 127.912 118.56 127.927H118.53C118.53 127.927 118.365 127.912 118.305 127.867V127.837C118.305 127.837 118.395 127.807 118.425 127.837H118.44Z" fill="#796C5B"/>
<path d="M120 124.837C120 124.912 119.97 124.942 119.895 124.942C119.49 124.942 119.1 124.942 118.695 124.942C118.62 124.942 118.59 124.912 118.575 124.837H120V124.837Z" fill="#736653"/>
<path d="M113.37 127.582C113.37 127.762 113.37 127.942 113.37 128.122C113.37 128.257 113.325 128.287 113.19 128.287C113.085 128.287 112.98 128.287 112.86 128.287C112.74 128.287 112.725 128.227 112.74 128.137C112.785 127.867 112.74 127.612 112.755 127.342C112.755 127.327 112.755 127.297 112.74 127.282C112.59 127.207 112.68 127.072 112.65 126.952C112.65 126.892 112.695 126.847 112.755 126.847C112.905 126.847 113.07 126.847 113.22 126.847C113.325 126.847 113.355 126.922 113.355 127.012C113.355 127.192 113.355 127.387 113.355 127.567L113.37 127.582Z" fill="#F2C268"/>
<path d="M118.14 127.837C118.14 127.837 118.05 127.897 118.035 127.807C118.035 127.702 118.035 127.597 118.035 127.492C118.035 127.417 118.095 127.402 118.14 127.387V127.837V127.837Z" fill="#F2C267"/>
<path d="M120.225 130.207H120.15C120.12 130.327 120.03 130.297 119.955 130.297C119.565 130.297 119.16 130.297 118.77 130.297C118.74 130.297 118.725 130.297 118.695 130.297C118.665 130.297 118.62 130.297 118.62 130.237C118.62 130.177 118.665 130.192 118.71 130.192C118.875 130.192 119.055 130.192 119.22 130.192C119.475 130.192 119.73 130.192 120 130.192C120.09 130.192 120.135 130.162 120.15 130.057C120.195 129.817 120.15 129.577 120.165 129.352C120.165 129.322 120.165 129.292 120.165 129.247C120.165 129.217 120.18 129.202 120.21 129.202C120.24 129.202 120.24 129.232 120.24 129.247C120.24 129.352 120.24 129.457 120.24 129.577V130.192L120.225 130.207Z" fill="#776959"/>
<path d="M118.59 128.107C119.085 128.107 119.595 128.107 120.09 128.107C120.21 128.107 120.24 128.062 120.24 127.957C120.24 127.807 120.24 127.642 120.24 127.492C120.24 127.417 120.255 127.357 120.345 127.357C120.42 127.357 120.435 127.417 120.435 127.492C120.435 127.912 120.48 128.317 120.465 128.737C120.465 128.782 120.465 128.842 120.42 128.872C120.375 128.827 120.39 128.767 120.39 128.722C120.39 128.542 120.39 128.377 120.39 128.197C120.39 128.062 120.39 128.062 120.27 128.122C120.21 128.152 120.165 128.152 120.105 128.152C119.655 128.152 119.205 128.152 118.755 128.152C118.695 128.152 118.65 128.152 118.605 128.122C118.605 128.122 118.605 128.107 118.605 128.092L118.59 128.107Z" fill="#736757"/>
<path d="M118.59 128.137C119.1 128.137 119.61 128.137 120.12 128.137C120.165 128.137 120.225 128.137 120.27 128.092C120.285 128.062 120.315 128.002 120.36 128.032C120.42 128.047 120.42 128.107 120.42 128.152C120.42 128.347 120.42 128.542 120.42 128.737C120.42 128.782 120.42 128.842 120.42 128.887C120.375 128.932 120.36 128.977 120.375 129.037C120.36 129.067 120.33 129.097 120.3 129.067C120.27 129.037 120.27 129.007 120.285 128.977C120.42 128.707 120.315 128.437 120.36 128.137C120.255 128.227 120.15 128.212 120.045 128.212C119.595 128.212 119.16 128.212 118.71 128.212C118.65 128.212 118.59 128.212 118.605 128.137H118.59Z" fill="#766A5A"/>
<path d="M118.575 127.942V127.912C118.575 127.912 118.575 128.047 118.605 128.107H118.575V127.927V127.942Z" fill="#766A5A"/>
<path d="M108.795 128.032C108.795 128.032 108.825 127.972 108.87 128.002C108.93 128.047 109.005 128.032 109.08 128.032C109.35 128.032 109.635 128.032 109.905 128.032C109.98 128.032 110.04 128.032 110.115 128.017C110.145 128.017 110.205 128.002 110.205 128.062C110.115 128.167 110.01 128.212 109.875 128.197C109.605 128.197 109.35 128.197 109.08 128.197C109.02 128.197 108.945 128.197 108.9 128.137C108.87 128.107 108.84 128.062 108.81 128.032H108.795Z" fill="#666766"/>
<path d="M108.795 128.032C108.795 128.032 108.855 128.062 108.9 128.077C108.9 128.167 108.96 128.197 109.035 128.197C109.335 128.197 109.635 128.197 109.935 128.197C110.01 128.197 110.07 128.197 110.115 128.122C110.13 128.092 110.16 128.077 110.205 128.077V128.182C110.13 128.347 110.13 128.362 109.95 128.362C109.65 128.362 109.365 128.362 109.065 128.362C108.87 128.362 108.84 128.332 108.81 128.137C108.81 128.122 108.81 128.107 108.81 128.092V128.047L108.795 128.032Z" fill="#5F5F60"/>
<path d="M110.19 128.092C110.085 128.257 109.905 128.242 109.74 128.242C109.5 128.242 109.275 128.242 109.035 128.242C108.915 128.242 108.87 128.197 108.885 128.092C108.915 128.152 108.96 128.167 109.02 128.167C109.32 128.167 109.635 128.167 109.935 128.167C110.04 128.167 110.085 128.062 110.175 128.062V128.092H110.19Z" fill="#626263"/>
<path d="M108.795 128.092C108.795 128.092 108.81 128.137 108.825 128.152C108.87 128.302 108.915 128.332 109.065 128.332C109.305 128.332 109.56 128.332 109.8 128.332C109.95 128.332 110.1 128.332 110.19 128.182C110.19 128.182 110.19 128.242 110.19 128.272C110.19 128.362 110.16 128.377 110.085 128.377C109.725 128.377 109.38 128.377 109.02 128.377C108.975 128.377 108.93 128.377 108.9 128.377H108.825C108.825 128.377 108.795 128.302 108.78 128.272V128.077L108.795 128.092Z" fill="#59595A"/>
<path d="M108.915 128.392C108.915 128.392 109.005 128.362 109.05 128.362C109.38 128.362 109.695 128.362 110.025 128.362C110.135 128.362 110.195 128.302 110.205 128.182C110.205 128.182 110.205 128.317 110.235 128.377H108.93L108.915 128.392Z" fill="#5F5F60"/>
<path d="M108.795 128.287C108.795 128.287 108.87 128.332 108.84 128.392C108.765 128.392 108.795 128.332 108.795 128.287Z" fill="#515151"/>
<path d="M121.32 127.762C121.365 127.612 121.26 127.507 121.215 127.387C121.455 127.432 121.695 127.387 121.95 127.417C122.01 127.417 122.1 127.372 122.115 127.462C122.13 127.567 122.145 127.672 122.115 127.762C122.115 127.762 122.085 127.792 122.07 127.792C121.83 127.792 121.575 127.822 121.335 127.777L121.32 127.762Z" fill="#666666"/>
<path d="M118.44 127.837H118.32V127.432C118.32 127.432 118.41 127.417 118.44 127.432H118.485C118.425 127.552 118.44 127.702 118.44 127.837Z" fill="#6F6456"/>
<path d="M118.44 127.432H118.32C118.32 127.432 118.41 127.402 118.44 127.432Z" fill="#736757"/>
<path fill-rule="evenodd" clip-rule="evenodd" d="M113.97 108.097C112.11 108.127 110.82 109.132 110.655 110.917C110.595 111.502 110.55 112.117 110.535 112.702V113.677C110.565 114.562 110.685 115.372 110.94 115.987C111.435 117.172 112.305 117.877 113.865 117.907H114.105C115.815 117.862 116.925 117.382 117.495 115.417C118.065 113.452 117.645 110.632 117.12 109.642C116.595 108.652 115.785 108.112 114.18 108.082H113.955L113.97 108.097Z" fill="#04549F"/>
<path fill-rule="evenodd" clip-rule="evenodd" d="M116.37 114.712L114.645 112.987L116.355 111.277L113.82 108.787V112.177L112.395 110.752L111.885 111.262L113.64 113.017L111.885 114.772L112.395 115.282L113.835 113.842V117.247L116.37 114.712V114.712ZM114.495 110.407L115.365 111.307L114.495 112.177V110.407V110.407ZM114.495 113.797L115.365 114.697L114.495 115.567V113.797V113.797Z" fill="white"/>
<path d="M119.895 145.792C134.045 145.792 145.515 134.321 145.515 120.172C145.515 106.022 134.045 94.5518 119.895 94.5518C105.745 94.5518 94.275 106.022 94.275 120.172C94.275 134.321 105.745 145.792 119.895 145.792Z" stroke="#BD99FF" stroke-width="2" stroke-miterlimit="10"/>
</svg>
