<svg width="101" height="83" viewBox="0 0 101 83" fill="none" xmlns="http://www.w3.org/2000/svg">
<path d="M37.9734 68.6194H67.1691L67.3054 80.4592H37.8475L37.9734 68.6194Z" fill="#F8F8F8"/>
<path d="M65.8897 72.6673L65.3968 69.9932L39.84 70.0771L39.3262 72.8771L65.8897 72.6673Z" fill="#F8F8F8"/>
<path d="M38.1831 78.7393L37.8475 80.4591H67.3054L66.7496 78.6344L38.1831 78.7393Z" fill="#C6C6C6"/>
<path d="M38.183 78.7287L37.8579 80.4485H67.3053L66.7495 78.6238L38.183 78.7287Z" fill="#C7C7C7"/>
<path d="M38.183 78.7078L37.8579 80.4381L67.3053 80.4276L66.76 78.6029L38.183 78.7078Z" fill="#C8C8C8"/>
<path d="M38.1935 78.6868L37.8579 80.4276L67.3053 80.4171L66.76 78.5924L38.1935 78.6868Z" fill="#C9C9C9"/>
<path d="M38.1935 78.6659L37.8579 80.4172L67.2948 80.4067L66.76 78.5715L38.1935 78.6659Z" fill="#C9C9C9"/>
<path d="M38.1935 78.6554L37.8579 80.4068L67.2948 80.3963L66.76 78.561L38.1935 78.6554Z" fill="#CACACA"/>
<path d="M38.204 78.6344L37.8579 80.3962L67.2948 80.3857L66.76 78.54L38.204 78.6344Z" fill="#CBCBCB"/>
<path d="M38.204 78.6134L37.8684 80.3857L67.2948 80.3648L66.76 78.5295L38.204 78.6134Z" fill="#CCCCCC"/>
<path d="M38.204 78.5923L37.8684 80.3751L67.2844 80.3541L66.76 78.5084L38.204 78.5923Z" fill="#CDCDCD"/>
<path d="M38.2145 78.5715L37.8684 80.3647L67.2844 80.3438L66.76 78.498L38.2145 78.5715Z" fill="#CECDCD"/>
<path d="M38.2145 78.5609L37.8684 80.3437L67.2844 80.3332L66.76 78.4771L38.2145 78.5609Z" fill="#CECECE"/>
<path d="M38.2145 78.54L37.8684 80.3332L67.2844 80.3227L66.76 78.4666L38.2145 78.54Z" fill="#CFCFCF"/>
<path d="M38.2251 78.519L37.879 80.3227L67.2845 80.3018L66.7601 78.4456L38.2251 78.519Z" fill="#D0D0D0"/>
<path d="M38.2251 78.498L37.879 80.3122L67.274 80.2913L66.7706 78.4351L38.2251 78.498Z" fill="#D1D1D1"/>
<path d="M38.2251 78.477L37.879 80.3017L67.274 80.2807L66.7706 78.4141L38.2251 78.477Z" fill="#D2D1D1"/>
<path d="M38.2356 78.4665L37.879 80.2912L67.274 80.2702L66.7706 78.4036L38.2356 78.4665Z" fill="#D2D2D2"/>
<path d="M38.2356 78.4456L37.879 80.2808L67.274 80.2599L66.7706 78.3932L38.2356 78.4456Z" fill="#D3D3D3"/>
<path d="M38.2355 78.4246L37.8894 80.2703L67.2634 80.2389L66.7705 78.3722L38.2355 78.4246Z" fill="#D4D4D4"/>
<path d="M38.246 78.4036L37.8894 80.2598L67.2634 80.2284L66.7705 78.3617L38.246 78.4036Z" fill="#D5D5D5"/>
<path d="M38.246 78.3826L37.8894 80.2493L67.2634 80.2179L66.7705 78.3407L38.246 78.3826Z" fill="#D6D6D6"/>
<path d="M38.246 78.3721L37.8894 80.2388L67.2634 80.2074L66.7705 78.3302L38.246 78.3721Z" fill="#D7D6D6"/>
<path d="M38.2564 78.3512L37.8894 80.2283L67.2634 80.1969L66.7705 78.3092L38.2564 78.3512Z" fill="#D8D7D7"/>
<path d="M38.2565 78.3303L37.8999 80.218L67.2529 80.176L66.7705 78.2988L38.2565 78.3303Z" fill="#D8D8D8"/>
<path d="M38.2669 78.3092L37.8999 80.2073L67.2529 80.1654L66.781 78.2777L38.2669 78.3092Z" fill="#D9D9D9"/>
<path d="M38.2669 78.2988L37.8999 80.1969L67.2529 80.155L66.781 78.2673L38.2669 78.2988Z" fill="#DADADA"/>
<path d="M38.2669 78.2778L37.8999 80.1864L67.2529 80.1445L66.781 78.2463L38.2669 78.2778Z" fill="#DBDBDB"/>
<path d="M38.2774 78.2567L37.8999 80.1758L67.2425 80.1339L66.781 78.2357L38.2774 78.2567Z" fill="#DCDCDB"/>
<path d="M38.2774 78.2359L37.9104 80.1655L67.2425 80.1131L66.781 78.215L38.2774 78.2359Z" fill="#DDDCDC"/>
<path d="M38.2774 78.2148L37.9104 80.1549L67.2425 80.1025L66.781 78.2043L38.2774 78.2148Z" fill="#DEDDDD"/>
<path d="M38.2879 78.2045L37.9104 80.1445L67.2425 80.0921L66.781 78.1835L38.2879 78.2045Z" fill="#DFDEDE"/>
<path d="M38.2879 78.1835L37.9104 80.134L67.2425 80.0816L66.781 78.173L38.2879 78.1835Z" fill="#DFDFDF"/>
<path d="M38.2879 78.1625L37.9104 80.1235L67.232 80.0711L66.781 78.152L38.2879 78.1625Z" fill="#E0E0E0"/>
<path d="M38.2984 78.1415L37.9209 80.113L67.232 80.0501L66.781 78.1415H38.2984Z" fill="#E1E1E1"/>
<path d="M38.2984 78.1205L37.9209 80.1025L67.232 80.0396L66.781 78.1205H38.2984Z" fill="#E2E2E2"/>
<path d="M38.2984 78.1101L37.9209 80.0921L67.232 80.0292L66.7915 78.1101H38.2984Z" fill="#E3E3E2"/>
<path d="M38.3089 78.089L37.9209 80.0815L67.232 80.0186L66.7915 78.089H38.3089Z" fill="#E4E3E3"/>
<path d="M38.3089 78.0681L37.9209 80.0711L67.2215 80.0082L66.7915 78.0786L38.3089 78.0681Z" fill="#E5E4E4"/>
<path d="M38.3088 78.0471L37.9313 80.0606L67.2214 79.9872L66.7914 78.0576L38.3088 78.0471Z" fill="#E5E5E5"/>
<path d="M38.3193 78.0261L37.9313 80.0501L67.2214 79.9767L66.7914 78.0471L38.3193 78.0261Z" fill="#E6E6E6"/>
<path d="M38.3193 78.0156L37.9313 80.0396L67.2214 79.9662L66.7914 78.0261L38.3193 78.0156Z" fill="#E7E7E7"/>
<path d="M38.3193 77.9946L37.9313 80.0291L67.2109 79.9557L66.7914 78.0156L38.3193 77.9946Z" fill="#E8E8E8"/>
<path d="M38.3298 77.9736L37.9313 80.0186L67.2109 79.9452L66.7914 78.0051L38.3298 77.9736Z" fill="#E9E9E9"/>
<path d="M38.3299 77.9528L37.9419 80.0082L67.211 79.9243L66.7916 77.9842L38.3299 77.9528Z" fill="#EAEAEA"/>
<path d="M38.3299 77.9423L37.9419 79.9977L67.211 79.9138L66.7916 77.9737L38.3299 77.9423Z" fill="#EBEAEA"/>
<path d="M38.3404 77.9213L37.9419 79.9872L67.211 79.9033L66.802 77.9527L38.3404 77.9213Z" fill="#ECEBEB"/>
<path d="M38.3404 77.9003L37.9419 79.9767L67.2005 79.8928L66.802 77.9422L38.3404 77.9003Z" fill="#ECECEC"/>
<path d="M38.3404 77.8793L37.9419 79.9662L67.2005 79.8718L66.802 77.9212L38.3404 77.8793Z" fill="#EDEDED"/>
<path d="M38.3509 77.8583L37.9524 79.9452L67.2006 79.8613L66.802 77.9107L38.3509 77.8583Z" fill="#EEEEEE"/>
<path d="M38.3509 77.8478L37.9524 79.9347L67.2006 79.8508L66.802 77.8897L38.3509 77.8478Z" fill="#EFEFEF"/>
<path d="M38.3509 77.8269L37.9524 79.9243L67.1901 79.8404L66.8021 77.8793L38.3509 77.8269Z" fill="#F0F0F0"/>
<path d="M38.3614 77.8058L37.9524 79.9137L67.1901 79.8298L66.8021 77.8582L38.3614 77.8058Z" fill="#F1F1F1"/>
<path d="M38.3614 77.7849L37.9524 79.9033L67.1901 79.8089L66.8021 77.8478L38.3614 77.7849Z" fill="#F2F2F1"/>
<path d="M38.3614 77.764L37.9629 79.8929L67.1901 79.7985L66.8021 77.827L38.3614 77.764Z" fill="#F3F2F2"/>
<path d="M38.3719 77.7535L37.9629 79.8824L67.1901 79.788L66.8021 77.8165L38.3719 77.7535Z" fill="#F4F3F3"/>
<path d="M38.3719 77.7324L37.9629 79.8718L67.1796 79.7774L66.8021 77.7953L38.3719 77.7324Z" fill="#F4F4F4"/>
<path d="M38.3719 77.7114L37.9629 79.8613L67.1796 79.7669L66.8126 77.7848L38.3719 77.7114Z" fill="#F5F5F5"/>
<path d="M38.3824 77.6906L37.9629 79.8509L67.1796 79.746L66.8126 77.764L38.3824 77.6906Z" fill="#F6F6F6"/>
<path d="M38.3823 77.6696L37.9733 79.8404L67.1795 79.7355L66.8124 77.7535L38.3823 77.6696Z" fill="#F7F7F7"/>
<path d="M38.3927 77.6591L37.9733 79.8299L67.169 79.725L66.8124 77.7325L38.3927 77.6591Z" fill="#F8F8F8"/>
<path d="M70.8815 81.0988L67.3055 80.4591H37.8476L34.2715 81.0988C34.1667 81.1198 34.0828 81.2142 34.0828 81.3295V82.0426C34.0828 82.137 34.1562 82.2104 34.2506 82.2104H70.9025C70.9969 82.2104 71.0703 82.137 71.0703 82.0426V81.3295C71.0703 81.2142 70.9864 81.1198 70.8815 81.0988Z" fill="#F6F4F4"/>
<path d="M69.969 80.931L67.3053 80.4591H37.8474L35.1942 80.931H69.969Z" fill="#BFBDBD"/>
<path d="M37.7951 80.4697L36.9352 80.627L35.1733 80.9521H69.9901L68.2283 80.627L67.3683 80.4697H67.1376H37.7951Z" fill="#C0BEBE"/>
<path d="M37.7321 80.4802L36.8827 80.6375L35.1523 80.9731H35.3516C35.3516 80.9731 69.9901 80.9731 70.0006 80.9731L68.2702 80.6375L67.4208 80.4802H67.19C67.19 80.4802 37.7426 80.4802 37.7321 80.4802Z" fill="#C1BFBF"/>
<path d="M37.6797 80.4906L36.8407 80.6479L35.1418 80.9835H35.3411C35.3411 80.9835 70.011 80.9835 70.0215 80.9835L68.3226 80.6479L67.4837 80.4906H67.2529C67.2529 80.4906 37.7007 80.4906 37.6902 80.4906H37.6797Z" fill="#C2C0C0"/>
<path d="M37.6272 80.5011L36.7988 80.6584L35.1208 81.0045L35.3201 81.015C35.3201 81.015 70.0215 81.015 70.032 81.0045L68.3541 80.6584L67.5256 80.5011H67.2949C67.2949 80.5011 37.6377 80.5011 37.6167 80.5011H37.6272Z" fill="#C3C1C1"/>
<path d="M37.5643 80.5116L36.7463 80.6689L35.0999 81.015L35.2991 81.0255C35.2991 81.0255 70.0424 81.0255 70.0529 81.015L68.4065 80.6689C68.4065 80.6689 67.599 80.5116 67.5885 80.5116H67.3578C67.3578 80.5116 37.5958 80.5116 37.5643 80.5116Z" fill="#C3C2C2"/>
<path d="M37.512 80.5221C37.512 80.5221 36.7045 80.6794 36.7045 80.6899L35.0895 81.0464C35.0895 81.0464 35.2782 81.0674 35.2887 81.0674C35.2887 81.0674 70.0635 81.0674 70.074 81.0464L68.459 80.6899C68.459 80.6899 67.662 80.5326 67.6515 80.5221H67.4208C67.4208 80.5221 37.5539 80.5221 37.5225 80.5221H37.512Z" fill="#C4C2C3"/>
<path d="M37.449 80.5326C37.449 80.5326 36.652 80.6794 36.652 80.7004L35.0685 81.0674C35.0685 81.0674 35.2572 81.0884 35.2677 81.0884C35.2677 81.0884 70.074 81.0884 70.095 81.0674L68.5114 80.7004C68.5114 80.7004 67.7249 80.5431 67.7144 80.5326H67.4732C67.4732 80.5326 37.491 80.5326 37.4595 80.5326H37.449Z" fill="#C5C3C3"/>
<path d="M37.3966 80.5431C37.3966 80.5431 36.61 80.6899 36.61 80.7109L35.0475 81.0779C35.0475 81.0779 35.2363 81.0989 35.2467 81.0989C35.2467 81.0989 70.0845 81.0989 70.1054 81.0779L68.5429 80.7109C68.5429 80.7109 67.7668 80.5431 67.7564 80.5431H67.5151C67.5151 80.5431 37.428 80.5431 37.3861 80.5431H37.3966Z" fill="#C6C4C4"/>
<path d="M37.3441 80.5431C37.3441 80.5431 36.5681 80.6899 36.5681 80.7109L35.037 81.0884C35.037 81.0884 35.2258 81.1094 35.2362 81.1094C35.2362 81.1094 70.1054 81.1094 70.1264 81.0884L68.5953 80.7109C68.5953 80.7109 67.8297 80.5431 67.8193 80.5431H67.5781C67.5781 80.5431 37.3861 80.5431 37.3441 80.5431Z" fill="#C7C5C5"/>
<path d="M37.2812 80.5536C37.2812 80.5536 36.5156 80.7004 36.5156 80.7214L35.016 81.0989C35.016 81.0989 35.2048 81.1304 35.2152 81.1304C35.2152 81.1304 70.1159 81.1304 70.1473 81.0989L68.6477 80.7214C68.6477 80.7214 67.9031 80.5536 67.8822 80.5536H67.641C67.641 80.5536 37.3441 80.5536 37.2917 80.5536H37.2812Z" fill="#C8C6C6"/>
<path d="M37.2287 80.564C37.2287 80.564 36.4737 80.7108 36.4737 80.7318L34.995 81.1198C34.995 81.1198 35.1733 81.1512 35.1943 81.1512C35.1943 81.1512 70.1264 81.1512 70.1578 81.1198L68.6791 80.7318C68.6791 80.7318 67.9451 80.564 67.9241 80.564H67.6829C67.6829 80.564 37.2812 80.564 37.2182 80.564H37.2287Z" fill="#C9C7C7"/>
<path d="M37.1659 80.5745C37.1659 80.5745 36.4213 80.7213 36.4213 80.7423L34.9741 81.1408C34.9741 81.1408 35.1524 81.1722 35.1734 81.1722C35.1734 81.1722 70.1474 81.1722 70.1789 81.1408L68.7317 80.7423C68.7317 80.7423 68.0081 80.5745 67.9871 80.5745H67.7459C67.7459 80.5745 37.2288 80.564 37.1764 80.5745H37.1659Z" fill="#C9C7C8"/>
<path d="M37.1135 80.5851C37.1135 80.5851 36.3794 80.7319 36.3794 80.7529L34.9636 81.1514C34.9636 81.1514 35.1419 81.1829 35.1629 81.1829C35.1629 81.1829 70.1684 81.1829 70.1998 81.1514L68.7841 80.7529C68.7841 80.7529 68.071 80.5851 68.05 80.5851H67.8088C67.8088 80.5851 37.1869 80.5746 37.1239 80.5851H37.1135Z" fill="#CAC8C8"/>
<path d="M37.0609 80.5955C37.0609 80.5955 36.3373 80.7423 36.3373 80.7633L34.9425 81.1723C34.9425 81.1723 35.1208 81.2142 35.1418 81.2142C35.1418 81.2142 70.1787 81.2142 70.2102 81.1723L68.8154 80.7633C68.8154 80.7633 68.1128 80.5955 68.0918 80.5955H67.8401C67.8401 80.5955 37.1133 80.585 37.0399 80.5955H37.0609Z" fill="#CBC9C9"/>
<path d="M36.9981 80.606C36.9981 80.606 36.2849 80.7528 36.2849 80.7738L34.9216 81.1828C34.9216 81.1828 35.0999 81.2247 35.1209 81.2247C35.1209 81.2247 70.1893 81.2247 70.2313 81.1828L68.868 80.7738C68.868 80.7738 68.1863 80.606 68.1548 80.606H67.9032C67.9032 80.606 37.0715 80.5955 36.9981 80.606Z" fill="#CCCACA"/>
<path d="M36.9456 80.6165C36.9456 80.6165 36.243 80.7633 36.243 80.7948L34.9111 81.2142C34.9111 81.2142 35.0789 81.2562 35.1104 81.2562C35.1104 81.2562 70.2103 81.2562 70.2522 81.2142L68.9204 80.7948C68.9204 80.7948 68.2492 80.627 68.2178 80.6165H67.9661C67.9661 80.6165 37.0295 80.606 36.9456 80.6165Z" fill="#CDCBCB"/>
<path d="M36.8828 80.6269C36.8828 80.6269 36.1906 80.7738 36.1906 80.8052L34.8903 81.2352C34.8903 81.2352 35.058 81.2771 35.0895 81.2771C35.0895 81.2771 70.2209 81.2771 70.2733 81.2352L68.9729 80.8052C68.9729 80.8052 68.3122 80.6374 68.2808 80.6269L68.0291 80.606C68.0291 80.606 36.9877 80.606 36.8933 80.6269H36.8828Z" fill="#CECCCC"/>
<path d="M36.8302 80.6374C36.8302 80.6374 36.1486 80.7842 36.1486 80.8157L34.8691 81.2457C34.8691 81.2457 35.0369 81.2981 35.0684 81.2981C35.0684 81.2981 70.2312 81.2981 70.2836 81.2457L69.0042 80.8157C69.0042 80.8157 68.354 80.6479 68.3226 80.6374L68.0709 80.6165C68.0709 80.6165 36.9141 80.6165 36.8302 80.6374Z" fill="#CECCCD"/>
<path d="M36.7673 80.6479C36.7673 80.6479 36.0961 80.7947 36.0961 80.8262L34.8481 81.2667C34.8481 81.2667 35.0159 81.3191 35.0474 81.3191C35.0474 81.3191 70.2522 81.3191 70.2941 81.2667L69.0462 80.8262C69.0462 80.8262 68.4065 80.6584 68.375 80.6479L68.1233 80.627C68.1233 80.627 36.8616 80.6269 36.7673 80.6479Z" fill="#CFCDCD"/>
<path d="M36.7148 80.6584C36.7148 80.6584 36.0541 80.8052 36.0541 80.8367L34.8376 81.2771C34.8376 81.2771 35.0054 81.3296 35.0264 81.3296C35.0264 81.3296 70.2626 81.3296 70.3151 81.2771L69.0986 80.8367C69.0986 80.8367 68.4799 80.6689 68.4379 80.6584L68.1757 80.6375C68.1757 80.6375 36.8092 80.6374 36.7043 80.6584H36.7148Z" fill="#D0CECE"/>
<path d="M36.6625 80.6689C36.6625 80.6689 36.0123 80.8157 36.0123 80.8472L34.8168 81.2981C34.8168 81.2981 34.9741 81.3506 35.0055 81.3506C35.0055 81.3506 70.2732 81.3506 70.3257 81.2981L69.1301 80.8472C69.1301 80.8472 68.5219 80.6689 68.48 80.6689L68.2178 80.6479C68.2178 80.6479 36.7464 80.648 36.6415 80.6689H36.6625Z" fill="#D1CFCF"/>
<path d="M36.5995 80.6794C36.5995 80.6794 35.9598 80.8262 35.9598 80.8577L34.7958 81.3191C34.7958 81.3191 34.9531 81.382 34.9845 81.382C34.9845 81.382 70.2837 81.382 70.3466 81.3191L69.1826 80.8577C69.1826 80.8577 68.5848 80.6794 68.5428 80.6794L68.2807 80.6584C68.2807 80.6584 36.7044 80.6584 36.589 80.6794H36.5995Z" fill="#D2D0D0"/>
<path d="M36.5471 80.6899C36.5471 80.6899 35.9179 80.8262 35.9179 80.8682L34.7853 81.3296C34.7853 81.3296 34.9426 81.3925 34.974 81.3925C34.974 81.3925 70.3046 81.3925 70.3676 81.3296L69.235 80.8682C69.235 80.8682 68.6477 80.6899 68.6058 80.6899L68.3436 80.6689C68.3436 80.6689 36.6624 80.6689 36.5366 80.6899H36.5471Z" fill="#D3D1D1"/>
<path d="M36.4841 80.7003C36.4841 80.7003 35.8654 80.8366 35.8654 80.8786L34.7643 81.3505C34.7643 81.3505 34.9216 81.4134 34.953 81.4134C34.953 81.4134 70.3151 81.4134 70.378 81.3505L69.2769 80.8786C69.2769 80.8786 68.7001 80.7003 68.6582 80.7003L68.396 80.6793C68.396 80.6793 36.5995 80.6793 36.4841 80.7003Z" fill="#D4D1D2"/>
<path d="M36.4317 80.7108C36.4317 80.7108 35.8339 80.8471 35.8339 80.8996L34.7538 81.3715C34.7538 81.3715 34.9111 81.4344 34.9425 81.4344C34.9425 81.4344 70.3361 81.4344 70.4095 81.3715L69.3293 80.8996C69.3293 80.8996 68.7735 80.7213 68.7316 80.7108L68.4694 80.6898C68.4694 80.6898 36.568 80.6898 36.4422 80.7108H36.4317Z" fill="#D4D2D3"/>
<path d="M36.3794 80.7213C36.3794 80.7213 35.7921 80.8576 35.7921 80.9101L34.7434 81.3924C34.7434 81.3924 34.8902 81.4659 34.9322 81.4659C34.9322 81.4659 70.3676 81.4659 70.4306 81.3924L69.3819 80.9101C69.3819 80.9101 68.8365 80.7318 68.7946 80.7213L68.5219 80.7003C68.5219 80.7003 36.5157 80.7003 36.3794 80.7213Z" fill="#D5D3D3"/>
<path d="M36.3164 80.7319C36.3164 80.7319 35.7396 80.8682 35.7396 80.9207L34.7224 81.4136C34.7224 81.4136 34.8692 81.487 34.9112 81.487C34.9112 81.487 70.3781 81.487 70.4515 81.4136L69.4343 80.9207C69.4343 80.9207 68.8994 80.7424 68.8575 80.7319L68.5848 80.7109C68.5848 80.7109 36.4737 80.7109 36.3374 80.7319H36.3164Z" fill="#D6D4D4"/>
<path d="M36.264 80.7423C36.264 80.7423 35.6977 80.8786 35.6977 80.9311L34.7014 81.4239C34.7014 81.4239 34.8482 81.4973 34.8902 81.4973C34.8902 81.4973 70.3886 81.4974 70.462 81.4239L69.4657 80.9311C69.4657 80.9311 68.9414 80.7528 68.8994 80.7423L68.6268 80.7213C68.6268 80.7213 36.4108 80.7213 36.264 80.7423Z" fill="#D7D5D5"/>
<path d="M36.201 80.7528C36.201 80.7528 35.6452 80.8891 35.6452 80.9415L34.6804 81.4449C34.6804 81.4449 34.8272 81.5183 34.8692 81.5183C34.8692 81.5183 70.399 81.5183 70.4725 81.4449L69.5077 80.9415C69.5077 80.9415 69.0043 80.7633 68.9518 80.7528L68.6792 80.7213C68.6792 80.7213 36.3583 80.7213 36.201 80.7528Z" fill="#D8D6D6"/>
<path d="M36.1485 80.7633C36.1485 80.7633 35.6031 80.8996 35.6031 80.952L34.6698 81.4554C34.6698 81.4554 34.8166 81.5393 34.8586 81.5393C34.8586 81.5393 70.4199 81.5393 70.5038 81.4554L69.5704 80.952C69.5704 80.8996 69.0775 80.7738 69.0251 80.7633L68.7525 80.7318C68.7525 80.7318 36.3163 80.7318 36.1589 80.7633H36.1485Z" fill="#D9D7D7"/>
<path d="M36.0962 80.7739C36.0438 80.7739 35.5614 80.9102 35.5614 80.9627L34.649 81.4765C34.649 81.4765 34.7854 81.5604 34.8378 81.5604C34.8378 81.5604 70.4306 81.5604 70.5145 81.4765L69.6021 80.9627C69.6021 80.9102 69.1197 80.7844 69.0673 80.7739L68.7946 80.7424C68.7946 80.7424 36.2536 80.7424 36.0962 80.7739Z" fill="#DAD8D8"/>
<path d="M36.0332 80.7844C35.9807 80.7844 35.5088 80.9207 35.5088 80.9732L34.6279 81.4975C34.6279 81.4975 34.7643 81.5814 34.8167 81.5814C34.8167 81.5814 70.4409 81.5814 70.5353 81.4975L69.6544 80.9732C69.6544 80.9207 69.1825 80.7949 69.1301 80.7844L68.8574 80.7529C68.8574 80.7529 36.2115 80.7529 36.0437 80.7844H36.0332Z" fill="#DBD8D8"/>
<path d="M35.9809 80.7946C35.9284 80.7946 35.467 80.931 35.467 80.9834L34.6176 81.5078C34.6176 81.5078 34.7539 81.5917 34.8063 81.5917C34.8063 81.5917 70.4725 81.5917 70.5564 81.5078L69.707 80.9834C69.707 80.9205 69.2455 80.8051 69.1931 80.7946L68.91 80.7632C68.91 80.7632 36.1591 80.7632 35.9809 80.7946Z" fill="#DBD9D9"/>
<path d="M35.9178 80.8053C35.8549 80.8158 35.4144 80.9416 35.4144 81.0045L34.5964 81.5393C34.5964 81.5393 34.7328 81.6337 34.7852 81.6337C34.7852 81.6337 70.4829 81.6337 70.5667 81.5393L69.7488 81.0045C69.7488 80.9416 69.3083 80.8158 69.2454 80.8053L68.9622 80.7738C68.9622 80.7738 36.1066 80.7738 35.9283 80.8053H35.9178Z" fill="#DCDADA"/>
<path d="M35.8655 80.8158C35.8025 80.8262 35.3726 80.9521 35.3726 81.015L34.5756 81.5498C34.5756 81.5498 34.7119 81.6442 34.7643 81.6442C34.7643 81.6442 70.4934 81.6442 70.5878 81.5498L69.7908 81.015C69.7908 80.9521 69.3608 80.8262 69.2979 80.8158L69.0148 80.7843C69.0148 80.7843 36.0542 80.7843 35.8655 80.8158Z" fill="#DDDBDB"/>
<path d="M35.8025 80.8261C35.7396 80.8366 35.3201 80.9625 35.3201 81.0254L34.5546 81.5707C34.5546 81.6231 34.6804 81.6651 34.7433 81.6651C34.7433 81.6651 70.5039 81.6651 70.5983 81.5707L69.8327 81.0254C69.8327 80.9625 69.4133 80.8366 69.3503 80.8261L69.0672 80.7947C69.0672 80.7947 35.9913 80.7947 35.8025 80.8261Z" fill="#DEDCDC"/>
<path d="M35.7502 80.8366C35.6873 80.8471 35.2783 80.973 35.2783 81.0359L34.5442 81.5917C34.5442 81.6441 34.67 81.6861 34.733 81.6861C34.733 81.6861 70.525 81.6861 70.6299 81.5917L69.8958 81.0359C69.8958 80.973 69.4868 80.8471 69.4239 80.8366L69.1407 80.8052C69.1407 80.8052 35.9599 80.8052 35.7712 80.8366H35.7502Z" fill="#DFDDDD"/>
<path d="M35.6976 80.8366C35.6347 80.8471 35.2362 80.973 35.2362 81.0359L34.5231 81.5917C34.5231 81.6441 34.6489 81.6966 34.7014 81.6966C34.7014 81.6966 70.5248 81.6966 70.6297 81.5917L69.9166 81.0359C69.9166 80.973 69.5181 80.8471 69.4552 80.8366L69.172 80.8052C69.172 80.8052 35.8864 80.8052 35.6871 80.8366H35.6976Z" fill="#E0DEDE"/>
<path d="M35.6348 80.8473C35.5719 80.8577 35.1838 80.9731 35.1838 81.0465L34.5022 81.6128C34.5022 81.6652 34.628 81.7177 34.6805 81.7177C34.6805 81.7177 70.5354 81.7177 70.6403 81.6128L69.9586 81.0465C69.9586 80.9731 69.5811 80.8577 69.5077 80.8473L69.2141 80.8158C69.2141 80.8158 35.8236 80.8158 35.6138 80.8473H35.6348Z" fill="#E1DEDF"/>
<path d="M35.5822 80.8577C35.5088 80.8682 35.1418 80.9836 35.1418 81.057L34.4916 81.6233C34.4916 81.6862 34.6174 81.7282 34.6699 81.7282C34.6699 81.7282 70.5668 81.7282 70.6716 81.6233L70.0214 81.057C70.0214 80.9836 69.6544 80.8682 69.581 80.8577L69.2873 80.8158C69.2873 80.8158 35.792 80.8158 35.5822 80.8577Z" fill="#E2DFDF"/>
<path d="M35.5194 80.8682C35.446 80.8787 35.0894 80.9941 35.0894 81.0675L34.4602 81.6443C34.4602 81.7072 34.586 81.7492 34.6385 81.7492C34.6385 81.7492 70.5668 81.7492 70.6717 81.6443L70.0425 81.0675C70.0425 80.9941 69.6859 80.8787 69.6125 80.8682L69.3189 80.8263C69.3189 80.8263 35.7186 80.8263 35.4984 80.8682H35.5194Z" fill="#E2E0E0"/>
<path d="M35.4669 80.8786C35.3935 80.8891 35.0475 81.0045 35.0475 81.0779L34.4497 81.6651C34.4497 81.7281 34.5651 81.7805 34.628 81.7805C34.628 81.7805 70.5878 81.7805 70.7032 81.6651L70.1054 81.0779C70.1054 81.0045 69.7593 80.8891 69.6859 80.8786L69.3923 80.8367C69.3923 80.8367 35.6767 80.8367 35.4565 80.8786H35.4669Z" fill="#E3E1E1"/>
<path d="M35.4145 80.8891C35.3411 80.8996 35.0055 81.015 35.0055 81.0989L34.4392 81.6861C34.4392 81.749 34.5546 81.8015 34.6175 81.8015C34.6175 81.8015 70.6088 81.8015 70.7241 81.6861L70.1578 81.0989C70.1578 81.0254 69.8222 80.9101 69.7488 80.8891L69.4552 80.8472C69.4552 80.8472 35.6347 80.8472 35.4145 80.8891Z" fill="#E4E2E2"/>
<path d="M35.3516 80.8996C35.2781 80.9101 34.953 81.0255 34.953 81.1094L34.4182 81.7071C34.4182 81.77 34.5336 81.8225 34.5965 81.8225C34.5965 81.8225 70.6192 81.8225 70.7346 81.7071L70.1998 81.1094C70.1998 81.0359 69.8852 80.9206 69.8013 80.8996L69.5076 80.8577C69.5076 80.8577 35.5823 80.8577 35.3516 80.8996Z" fill="#E5E3E3"/>
<path d="M35.2991 80.9101C35.2257 80.9206 34.9111 81.036 34.9111 81.1199L34.3972 81.7176C34.3972 81.7805 34.5126 81.833 34.5755 81.833C34.5755 81.833 70.6297 81.833 70.7555 81.7176L70.2417 81.1199C70.2417 81.036 69.9376 80.9311 69.8537 80.9101L69.56 80.8682C69.56 80.8682 35.5298 80.8682 35.2886 80.9101H35.2991Z" fill="#E6E4E4"/>
<path d="M35.2363 80.9206C35.1524 80.9311 34.8587 81.0465 34.8587 81.1303L34.3763 81.7386C34.3763 81.8015 34.4917 81.8644 34.5546 81.8644C34.5546 81.8644 70.6403 81.8644 70.7661 81.7386L70.2837 81.1303C70.2837 81.0465 69.9901 80.9416 69.9062 80.9206L69.6021 80.8787C69.6021 80.8787 35.467 80.8787 35.2258 80.9206H35.2363Z" fill="#E7E5E5"/>
<path d="M35.1838 80.9311C35.0999 80.9416 34.8168 81.057 34.8168 81.1408L34.3658 81.7596C34.3658 81.833 34.4707 81.8854 34.5441 81.8854C34.5441 81.8854 70.6717 81.8854 70.7976 81.7596L70.3466 81.1408C70.3466 81.057 70.0635 80.9416 69.9796 80.9311L69.6755 80.8892C69.6755 80.8892 35.425 80.8892 35.1838 80.9311Z" fill="#E8E6E6"/>
<path d="M35.1314 80.9416C35.0475 80.9521 34.7748 81.0674 34.7748 81.1513L34.3448 81.7701C34.3448 81.8435 34.4497 81.8959 34.5231 81.8959C34.5231 81.8959 70.6822 81.8959 70.808 81.7701L70.3781 81.1513C70.3781 81.0674 70.1054 80.9521 70.0215 80.9416L69.7174 80.8997C69.7174 80.8997 35.3621 80.8997 35.1104 80.9416H35.1314Z" fill="#E9E6E7"/>
<path d="M35.0683 80.9521C34.9844 80.9626 34.7222 81.078 34.7222 81.1618L34.3237 81.7911C34.3237 81.8645 34.4286 81.9274 34.502 81.9274C34.502 81.9274 70.6925 81.9274 70.8184 81.7911L70.4199 81.1618C70.4199 81.078 70.1682 80.9626 70.0738 80.9521L69.7697 80.9102C69.7697 80.9102 35.3095 80.9102 35.0578 80.9521H35.0683Z" fill="#EAE7E8"/>
<path d="M35.016 80.9626C34.9321 80.9731 34.6804 81.0884 34.6804 81.1723L34.3134 81.8016C34.3134 81.875 34.4182 81.9379 34.4916 81.9379C34.4916 81.9379 70.7136 81.9379 70.85 81.8016L70.4829 81.1723C70.4829 81.0884 70.2417 80.9731 70.1473 80.9626L69.8432 80.9207C69.8432 80.9207 35.2782 80.9207 35.016 80.9626Z" fill="#EAE8E9"/>
<path d="M34.953 80.9731C34.8691 80.9941 34.6279 81.0989 34.6279 81.1828L34.2924 81.8225C34.2924 81.8959 34.3972 81.9589 34.4706 81.9589C34.4706 81.9589 70.7241 81.9589 70.8604 81.8225L70.5248 81.1828C70.5248 81.0884 70.2941 80.9836 70.1997 80.9731L69.8956 80.9207C69.8956 80.9207 35.2257 80.9207 34.953 80.9731Z" fill="#EBE9E9"/>
<path d="M34.9007 80.9836C34.8063 81.0046 34.5861 81.1094 34.5861 81.1933L34.2715 81.8435C34.2715 81.9169 34.3659 81.9798 34.4498 81.9798C34.4498 81.9798 70.7347 81.9798 70.8815 81.8435L70.5669 81.1933C70.5669 81.0989 70.3467 80.9941 70.2523 80.9836L69.9377 80.9312C69.9377 80.9312 35.1629 80.9311 34.8902 80.9836H34.9007Z" fill="#ECEAEA"/>
<path d="M34.8378 80.994C34.7434 81.0149 34.5441 81.1198 34.5441 81.2142L34.261 81.8644C34.261 81.9378 34.3554 82.0112 34.4393 82.0112C34.4393 82.0112 70.7661 82.0112 70.9025 81.8644L70.6193 81.2142C70.6193 81.1198 70.4096 81.0149 70.3257 80.994L70.0111 80.9415C70.0111 80.9415 35.1209 80.9415 34.8483 80.994H34.8378Z" fill="#EDEBEB"/>
<path d="M34.7852 81.0045C34.6908 81.0254 34.5021 81.1303 34.5021 81.2247L34.2504 81.8854C34.2504 81.9693 34.3447 82.0322 34.4286 82.0322C34.4286 82.0322 70.787 82.0322 70.9233 81.8854L70.6716 81.2247C70.6716 81.1303 70.4829 81.0254 70.3885 81.0045L70.0739 80.952C70.0739 80.952 35.0788 80.952 34.7957 81.0045H34.7852Z" fill="#EEECEC"/>
<path d="M34.7329 81.015C34.6385 81.0359 34.4602 81.1303 34.4602 81.2352L34.2295 81.8959C34.2295 81.9798 34.3239 82.0427 34.4078 82.0427C34.4078 82.0427 70.7976 82.0427 70.9444 81.8959L70.7137 81.2352C70.7137 81.1408 70.5354 81.0359 70.441 81.015L70.1264 80.9625C70.1264 80.9625 35.0265 80.9625 34.7434 81.015H34.7329Z" fill="#EFEDED"/>
<path d="M34.6699 81.0255C34.5755 81.0464 34.4078 81.1408 34.4078 81.2457L34.2085 81.9168C34.2085 82.0007 34.3029 82.0637 34.3763 82.0637C34.3763 82.0637 70.7975 82.0637 70.9444 81.9168L70.7451 81.2457C70.7451 81.1513 70.5773 81.0464 70.4829 81.0255L70.1683 80.973C70.1683 80.973 34.9636 80.973 34.6699 81.0255Z" fill="#F0EEEE"/>
<path d="M34.6176 81.036C34.5232 81.0569 34.3659 81.1513 34.3659 81.2562L34.1981 81.9378C34.1981 82.0217 34.282 82.0951 34.3659 82.0951C34.3659 82.0951 70.8186 82.0951 70.9759 81.9378L70.8081 81.2562C70.8081 81.1513 70.6508 81.0569 70.5564 81.036L70.2418 80.9835C70.2418 80.9835 34.9322 80.9835 34.6281 81.036H34.6176Z" fill="#F1EFEF"/>
<path d="M34.5545 81.0465C34.4497 81.0674 34.3133 81.1618 34.3133 81.2667L34.1665 81.9483C34.1665 82.0322 34.2504 82.1056 34.3343 82.1056C34.3343 82.1056 70.8185 82.1056 70.9758 81.9483L70.829 81.2667C70.829 81.1618 70.6821 81.0674 70.5878 81.0465L70.2627 80.994C70.2627 80.994 34.8482 80.994 34.544 81.0465H34.5545Z" fill="#F2F0F0"/>
<path d="M34.5022 81.0569C34.3973 81.0779 34.2715 81.1723 34.2715 81.2772L34.1561 81.9693C34.1561 82.0532 34.24 82.1266 34.3239 82.1266C34.3239 82.1266 70.8396 82.1266 70.9969 81.9693L70.8815 81.2772C70.8815 81.1723 70.7557 81.0779 70.6508 81.0569L70.3257 81.0045C70.3257 81.0045 34.7958 81.0045 34.4917 81.0569H34.5022Z" fill="#F3F0F1"/>
<path d="M34.4496 81.0675C34.3448 81.0884 34.2294 81.1828 34.2294 81.2877L34.1455 81.9798C34.1455 82.0637 34.2294 82.1371 34.3133 82.1371C34.3133 82.1371 70.8709 82.1371 71.0282 81.9798L70.9443 81.2877C70.9443 81.1828 70.8289 81.0779 70.7241 81.0675L70.399 81.015C70.399 81.015 34.7642 81.015 34.4496 81.0675Z" fill="#F4F1F2"/>
<path d="M34.3868 81.078C34.2819 81.0989 34.1771 81.1933 34.1771 81.2982L34.1246 82.0008C34.1246 82.0952 34.2085 82.1686 34.2924 82.1686C34.2924 82.1686 70.8815 82.1686 71.0388 82.0008L70.9863 81.2982C70.9863 81.1933 70.8815 81.0884 70.7766 81.078L70.4515 81.0255C70.4515 81.0255 34.7119 81.0255 34.3973 81.078H34.3868Z" fill="#F4F2F2"/>
<path d="M34.3343 81.0883C34.2295 81.1093 34.1351 81.2037 34.1351 81.319L34.1036 82.0217C34.1036 82.116 34.177 82.1895 34.2714 82.1895C34.2714 82.1895 70.8919 82.1895 71.0597 82.0217L71.0283 81.319C71.0283 81.2142 70.9339 81.1093 70.829 81.0883L70.5039 81.0359C70.5039 81.0359 34.6594 81.0359 34.3343 81.0883Z" fill="#F5F3F3"/>
<path d="M70.8814 81.0988L70.5563 81.0359H34.607L34.2819 81.0988C34.177 81.1198 34.0931 81.2142 34.0931 81.3295V82.0426C34.0931 82.137 34.1665 82.2104 34.2609 82.2104H70.9129C71.0073 82.2104 71.0807 82.137 71.0807 82.0426V81.3295C71.0807 81.2142 70.9968 81.1198 70.8919 81.0988H70.8814Z" fill="#F6F4F4"/>
<path d="M98.1685 2.55151H3.17755C1.61499 2.55151 0.346069 3.92531 0.346069 5.6242V65.5782C0.346069 67.2771 1.61499 68.6509 3.17755 68.6509H98.1685C99.7311 68.6509 101 67.2771 101 65.5782V5.6242C101 3.92531 99.7311 2.55151 98.1685 2.55151Z" fill="url(#paint0_linear_9015_72688)"/>
<path d="M97.7386 3.0863H3.54464C1.99257 3.0863 0.734131 4.43912 0.734131 6.10655V65.1063C0.734131 66.7737 1.99257 68.1265 3.54464 68.1265H97.7386C99.2907 68.1265 100.549 66.7737 100.549 65.1063V6.10655C100.549 4.43912 99.2907 3.0863 97.7386 3.0863Z" fill="#181819"/>
<path d="M51.7322 5.51919C52.2361 5.51919 52.6446 5.11071 52.6446 4.60682C52.6446 4.10294 52.2361 3.69446 51.7322 3.69446C51.2283 3.69446 50.8198 4.10294 50.8198 4.60682C50.8198 5.11071 51.2283 5.51919 51.7322 5.51919Z" stroke="#212121" stroke-width="0.07" stroke-miterlimit="10"/>
<path d="M3.00977 65.6936H98.1895V5.41443H3.00977V65.6936Z" fill="#1E1E1E" stroke="black" stroke-width="0.25" stroke-miterlimit="10"/>
<path d="M3.10418 65.6935H9.39636L9.39636 9.44136H3.10418L3.10418 65.6935Z" fill="#323334" stroke="black" stroke-width="0.25" stroke-miterlimit="10"/>
<path d="M3.00971 9.4939L98.1895 9.4939V5.40398L3.00971 5.40398V9.4939Z" fill="#323334" stroke="black" stroke-width="0.25" stroke-miterlimit="10"/>
<path d="M11.6196 7.46986C11.6196 7.97324 12.0286 8.38223 12.532 8.38223C13.0354 8.38223 13.4444 7.97324 13.4444 7.46986C13.4444 6.96649 13.0354 6.5575 12.532 6.5575C12.0286 6.5575 11.6196 6.96649 11.6196 7.46986Z" fill="#91C7BE" stroke="black" stroke-width="0.25" stroke-miterlimit="10"/>
<path d="M8.48389 7.46986C8.48389 7.97324 8.89288 8.38223 9.39625 8.38223C9.89963 8.38223 10.3086 7.97324 10.3086 7.46986C10.3086 6.96649 9.89963 6.5575 9.39625 6.5575C8.89288 6.5575 8.48389 6.96649 8.48389 7.46986Z" fill="#E7E67E" stroke="black" stroke-width="0.25" stroke-miterlimit="10"/>
<path d="M5.35889 7.46986C5.35889 7.97324 5.76788 8.38223 6.27125 8.38223C6.77463 8.38223 7.18362 7.97324 7.18362 7.46986C7.18362 6.96649 6.77463 6.5575 6.27125 6.5575C5.76788 6.5575 5.35889 6.96649 5.35889 7.46986Z" fill="#D85E32" stroke="black" stroke-width="0.25" stroke-miterlimit="10"/>
<path d="M7.02636 12.2205V14.0138C7.02636 14.1081 6.95295 14.1815 6.85857 14.1815H5.33796C5.24357 14.1815 5.17017 14.1081 5.17017 14.0138V11.8325C5.17017 11.7381 5.24357 11.6647 5.33796 11.6647H6.48104L7.02636 12.21V12.2205Z" fill="#323334" stroke="white" stroke-width="0.25" stroke-linecap="round" stroke-linejoin="round"/>
<path d="M6.48096 11.6752V12.0527C6.48096 12.1471 6.55437 12.2205 6.64875 12.2205H7.02628" fill="#323334"/>
<path d="M6.48096 11.6752V12.0527C6.48096 12.1471 6.55437 12.2205 6.64875 12.2205H7.02628" stroke="white" stroke-width="0.25" stroke-linecap="round" stroke-linejoin="round"/>
<path d="M7.57165 11.7277V13.521C7.57165 13.6153 7.49824 13.6887 7.40386 13.6887H5.88325C5.78886 13.6887 5.71545 13.6153 5.71545 13.521V11.3397C5.71545 11.2453 5.78886 11.1719 5.88325 11.1719H7.02633L7.57165 11.7172V11.7277Z" fill="#323334" stroke="white" stroke-width="0.25" stroke-linecap="round" stroke-linejoin="round"/>
<path d="M7.02625 11.1823V11.5598C7.02625 11.6542 7.09965 11.7276 7.19404 11.7276H7.57157" fill="#323334"/>
<path d="M7.02625 11.1823V11.5598C7.02625 11.6542 7.09965 11.7276 7.19404 11.7276H7.57157" stroke="white" stroke-width="0.25" stroke-linecap="round" stroke-linejoin="round"/>
<path d="M5.2607 17.4256C5.2607 17.6668 5.3446 17.887 5.49141 18.0548L4.56856 18.9777C4.48467 19.0616 4.61051 19.1874 4.6944 19.1035L5.61726 18.1807C5.78505 18.3275 6.00528 18.4114 6.24648 18.4114C6.7918 18.4114 7.23225 17.9709 7.23225 17.4256C7.23225 16.8803 6.7918 16.4398 6.24648 16.4398C5.70115 16.4398 5.2607 16.8803 5.2607 17.4256ZM7.05397 17.4256C7.05397 17.8765 6.69742 18.2331 6.24648 18.2331C5.79554 18.2331 5.43898 17.8765 5.43898 17.4256C5.43898 16.9747 5.79554 16.6181 6.24648 16.6181C6.69742 16.6181 7.05397 16.9747 7.05397 17.4256Z" fill="white"/>
<path d="M7.80237 57.0103C7.80237 56.2447 7.18364 55.626 6.41809 55.626C5.65254 55.626 5.03381 56.2447 5.03381 57.0103C5.03381 57.3983 5.20161 57.7548 5.45329 58.0065C5.45329 58.0065 5.46378 58.017 5.47427 58.0275C5.71547 58.2582 6.05105 58.3945 6.40761 58.3945C6.76416 58.3945 7.09975 58.2582 7.34095 58.0275C7.34095 58.0275 7.35143 58.017 7.36192 58.0065C7.6241 57.7548 7.7814 57.4088 7.7814 57.0103H7.80237ZM6.41809 55.8043C7.08926 55.8043 7.6241 56.3496 7.6241 57.0103C7.6241 57.2934 7.52971 57.5556 7.36192 57.7548C7.28851 57.5136 7.06829 57.3249 6.78514 57.241C6.94244 57.1256 7.04731 56.9368 7.04731 56.7271C7.04731 56.381 6.76416 56.0979 6.41809 56.0979C6.07202 56.0979 5.78888 56.381 5.78888 56.7271C5.78888 56.9368 5.89375 57.1256 6.05105 57.241C5.75741 57.3249 5.54768 57.5136 5.47427 57.7548C5.30647 57.5451 5.21209 57.2934 5.21209 57.0103C5.21209 56.3496 5.75741 55.8043 6.41809 55.8043ZM5.95667 56.7376C5.95667 56.4859 6.16641 56.2867 6.41809 56.2867C6.66978 56.2867 6.87952 56.4964 6.87952 56.7376C6.87952 56.9788 6.66978 57.1885 6.41809 57.1885C6.16641 57.1885 5.95667 56.9788 5.95667 56.7376ZM5.6106 57.9121C5.63157 57.5975 5.96715 57.3668 6.40761 57.3668C6.84806 57.3668 7.18364 57.5975 7.20462 57.9121C6.99488 58.1009 6.71173 58.2163 6.40761 58.2163C6.10348 58.2163 5.82034 58.1009 5.6106 57.9121Z" fill="white"/>
<path d="M7.63448 60.7541L7.36182 60.7122C7.36182 60.7122 7.34085 60.6598 7.33036 60.6388L7.49815 60.4081C7.55059 60.3452 7.5401 60.2508 7.47718 60.1879L7.27793 59.9886C7.27793 59.9886 7.19403 59.9362 7.15208 59.9362C7.12062 59.9362 7.08916 59.9466 7.0577 59.9676L6.83747 60.1354C6.83747 60.1354 6.78504 60.1144 6.76406 60.104L6.72212 59.8313C6.71163 59.7474 6.63822 59.7054 6.55432 59.7054H6.27118C6.18728 59.7054 6.11387 59.7579 6.10338 59.8313L6.06144 60.104C6.06144 60.104 6.009 60.1249 5.98803 60.1354L5.7678 59.9676C5.7678 59.9676 5.70488 59.9362 5.67342 59.9362C5.63147 59.9362 5.57904 59.9571 5.54757 59.9886L5.34832 60.1879C5.2854 60.2508 5.27491 60.3452 5.32735 60.4081L5.49514 60.6283C5.49514 60.6283 5.47417 60.6807 5.46368 60.7017L5.19102 60.7437C5.11761 60.7541 5.05469 60.8276 5.05469 60.9114V61.1946C5.05469 61.2785 5.10712 61.3519 5.19102 61.3624L5.46368 61.4043C5.46368 61.4043 5.48465 61.4568 5.49514 61.4777L5.32735 61.7085C5.27491 61.7714 5.2854 61.8658 5.34832 61.9287L5.54757 62.1279C5.54757 62.1279 5.63147 62.1804 5.67342 62.1804C5.70488 62.1804 5.73634 62.1699 5.7678 62.1489L5.98803 61.9811C5.98803 61.9811 6.04046 62.0021 6.06144 62.0126L6.10338 62.2852C6.11387 62.3691 6.18728 62.4216 6.27118 62.4216H6.55432C6.63822 62.4216 6.71163 62.3691 6.72212 62.2852L6.76406 62.0126C6.76406 62.0126 6.8165 61.9916 6.83747 61.9811L7.0577 62.1489C7.0577 62.1489 7.12062 62.1804 7.15208 62.1804C7.19403 62.1804 7.24646 62.1594 7.27793 62.1279L7.47718 61.9287C7.5401 61.8658 7.55059 61.7714 7.49815 61.7085L7.33036 61.4882C7.33036 61.4882 7.35133 61.4358 7.36182 61.4148L7.63448 61.3729C7.70789 61.3624 7.77081 61.289 7.77081 61.2051V60.9219C7.77081 60.838 7.71838 60.7646 7.63448 60.7541ZM7.63448 61.2051H7.624L7.24646 61.268L7.22549 61.3204C7.22549 61.3204 7.19403 61.4253 7.16257 61.4673L7.14159 61.5197L7.37231 61.8238L7.17306 62.0231L6.86893 61.8028L6.8165 61.8238C6.8165 61.8238 6.72212 61.8658 6.66968 61.8867L6.61725 61.9077L6.56481 62.2957H6.27118L6.21874 61.9077L6.16631 61.8867C6.16631 61.8867 6.06144 61.8448 6.01949 61.8238L5.96705 61.8028L5.66293 62.0336L5.46368 61.8343L5.69439 61.5302L5.67342 61.4777C5.67342 61.4777 5.63147 61.3834 5.6105 61.3309L5.58952 61.2785L5.21199 61.2261H5.2015V60.9429H5.21199L5.58952 60.88L5.6105 60.8276C5.6105 60.8276 5.65245 60.7227 5.67342 60.6807L5.69439 60.6283L5.46368 60.3242L5.66293 60.1249L5.96705 60.3452L6.01949 60.3242C6.01949 60.3242 6.11387 60.2822 6.16631 60.2613H6.21874L6.27118 59.8628H6.56481L6.61725 60.2403L6.66968 60.2613C6.66968 60.2613 6.77455 60.3032 6.8165 60.3242L6.86893 60.3452L7.17306 60.1144L7.37231 60.3137L7.14159 60.6178L7.16257 60.6703C7.16257 60.6703 7.20452 60.7646 7.22549 60.8171L7.24646 60.8695L7.624 60.9219H7.63448V61.2051Z" fill="white"/>
<path d="M6.40748 60.7437C6.2292 60.7437 6.0719 60.8905 6.0719 61.0792C6.0719 61.268 6.21872 61.4148 6.40748 61.4148C6.59625 61.4148 6.74306 61.268 6.74306 61.0792C6.74306 60.8905 6.59625 60.7437 6.40748 60.7437V60.7437ZM6.40748 61.3309C6.27115 61.3309 6.1558 61.2156 6.1558 61.0792C6.1558 60.9429 6.27115 60.8275 6.40748 60.8275C6.54381 60.8275 6.65917 60.9429 6.65917 61.0792C6.65917 61.2156 6.54381 61.3309 6.40748 61.3309V61.3309Z" stroke="white" stroke-width="0.15" stroke-miterlimit="10"/>
<path d="M2.90483 65.7983L98.1895 65.7983V63.9212L2.90483 63.9212V65.7983Z" fill="#92C7BE"/>
<path d="M31.1014 64.3066V51.2589H34.8294V64.3066" fill="#91C7BE"/>
<path d="M34.8294 0V7.45585H31.1014V0" fill="#D6532A"/>
<path d="M31.1014 35.4153V45.6671H34.8294V35.4153H31.1014Z" fill="#DDDDDD"/>
<path d="M44.1492 64.3067V55.9188H47.8771V64.3067" fill="#A797C4"/>
<path d="M47.8771 0.00012207V20.5037H44.1492V0.00012207" fill="#91C7BE"/>
<path d="M44.1492 28.8915V48.4631H47.8771V28.8915H44.1492Z" fill="#D6532A"/>
<path d="M56.4723 63.9318V60.8171H59.9435V63.9318" fill="#D6532A"/>
<path d="M59.9435 1.7439V16.0691H56.4723V1.7439" fill="#DDDDDD"/>
<path d="M56.4723 45.4537V57.0522H59.9435V45.4537H56.4723Z" fill="#91C7BE"/>
<path d="M69.3126 64.3067V52.1909H73.0405V64.3067" fill="#E4E268"/>
<path d="M73.0405 0V21.4356H69.3126V0" fill="#D6532A"/>
<path d="M69.3126 26.0954V47.531H73.0405V26.0954H69.3126Z" fill="#DDDDDD"/>
<path d="M34.8294 13.0477V29.8234H31.1014V13.0477" fill="#E4E268"/>
<path d="M59.9435 18.9008V33.226H56.4723V18.9008" fill="#A797C4"/>
<path d="M56.4723 37.3158V41.6993H59.9435V37.3158H56.4723Z" fill="#E4E268"/>
<defs>
<linearGradient id="paint0_linear_9015_72688" x1="50.673" y1="68.6509" x2="50.673" y2="2.55151" gradientUnits="userSpaceOnUse">
<stop stop-color="#EBEBEC"/>
<stop offset="0.51" stop-color="#ABABAF"/>
<stop offset="0.66" stop-color="#C6C6C8"/>
<stop offset="1" stop-color="white"/>
</linearGradient>
</defs>
</svg>
