<svg width="150" height="151" viewBox="0 0 150 151" fill="none" xmlns="http://www.w3.org/2000/svg">
<g clip-path="url(#clip0_9024_71823)">
<path d="M56.835 112.582H98.595L98.79 129.517H56.655L56.835 112.582Z" fill="#C9CBCE"/>
<path d="M57.135 127.057L56.655 129.517H98.79L97.995 126.907L57.135 127.057Z" fill="#C6C6C6"/>
<path d="M57.135 127.042L56.67 129.502H98.79L97.995 126.892L57.135 127.042Z" fill="#C7C7C7"/>
<path d="M57.135 127.012L56.67 129.487L98.79 129.472L98.01 126.862L57.135 127.012Z" fill="#C8C8C8"/>
<path d="M57.15 126.982L56.67 129.472L98.79 129.457L98.01 126.847L57.15 126.982Z" fill="#C9C9C9"/>
<path d="M57.15 126.952L56.67 129.457L98.775 129.442L98.01 126.817L57.15 126.952Z" fill="#C9C9C9"/>
<path d="M57.15 126.937L56.67 129.442L98.775 129.427L98.01 126.802L57.15 126.937Z" fill="#CACACA"/>
<path d="M57.165 126.907L56.67 129.427L98.775 129.412L98.01 126.772L57.165 126.907Z" fill="#CBCBCB"/>
<path d="M57.165 126.877L56.685 129.412L98.775 129.382L98.01 126.757L57.165 126.877Z" fill="#CCCCCC"/>
<path d="M57.165 126.847L56.685 129.397L98.76 129.367L98.01 126.727L57.165 126.847Z" fill="#CDCDCD"/>
<path d="M57.18 126.817L56.685 129.382L98.76 129.352L98.01 126.712L57.18 126.817Z" fill="#CECDCD"/>
<path d="M57.18 126.802L56.685 129.352L98.76 129.337L98.01 126.682L57.18 126.802Z" fill="#CECECE"/>
<path d="M57.18 126.772L56.685 129.337L98.76 129.322L98.01 126.667L57.18 126.772Z" fill="#CFCFCF"/>
<path d="M57.195 126.742L56.7 129.322L98.76 129.292L98.01 126.637L57.195 126.742Z" fill="#D0D0D0"/>
<path d="M57.195 126.712L56.7 129.307L98.745 129.277L98.025 126.622L57.195 126.712Z" fill="#D1D1D1"/>
<path d="M57.195 126.682L56.7 129.292L98.745 129.262L98.025 126.592L57.195 126.682Z" fill="#D2D1D1"/>
<path d="M57.21 126.667L56.7 129.277L98.745 129.247L98.025 126.577L57.21 126.667Z" fill="#D2D2D2"/>
<path d="M57.21 126.637L56.7 129.262L98.745 129.232L98.025 126.562L57.21 126.637Z" fill="#D3D3D3"/>
<path d="M57.21 126.607L56.715 129.247L98.73 129.202L98.025 126.532L57.21 126.607Z" fill="#D4D4D4"/>
<path d="M57.225 126.577L56.715 129.232L98.73 129.187L98.025 126.517L57.225 126.577Z" fill="#D5D5D5"/>
<path d="M57.225 126.547L56.715 129.217L98.73 129.172L98.025 126.487L57.225 126.547Z" fill="#D6D6D6"/>
<path d="M57.225 126.532L56.715 129.202L98.73 129.157L98.025 126.472L57.225 126.532Z" fill="#D7D6D6"/>
<path d="M57.24 126.502L56.715 129.187L98.73 129.142L98.025 126.442L57.24 126.502Z" fill="#D8D7D7"/>
<path d="M57.24 126.472L56.73 129.172L98.715 129.112L98.025 126.427L57.24 126.472Z" fill="#D8D8D8"/>
<path d="M57.255 126.442L56.73 129.157L98.715 129.097L98.04 126.397L57.255 126.442Z" fill="#D9D9D9"/>
<path d="M57.255 126.427L56.73 129.142L98.715 129.082L98.04 126.382L57.255 126.427Z" fill="#DADADA"/>
<path d="M57.255 126.397L56.73 129.127L98.715 129.067L98.04 126.352L57.255 126.397Z" fill="#DBDBDB"/>
<path d="M57.27 126.367L56.73 129.112L98.7 129.052L98.04 126.337L57.27 126.367Z" fill="#DCDCDB"/>
<path d="M57.27 126.337L56.745 129.097L98.7 129.022L98.04 126.307L57.27 126.337Z" fill="#DDDCDC"/>
<path d="M57.27 126.307L56.745 129.082L98.7 129.007L98.04 126.292L57.27 126.307Z" fill="#DEDDDD"/>
<path d="M57.285 126.292L56.745 129.067L98.7 128.992L98.04 126.262L57.285 126.292Z" fill="#DFDEDE"/>
<path d="M57.285 126.262L56.745 129.052L98.7 128.977L98.04 126.247L57.285 126.262Z" fill="#DFDFDF"/>
<path d="M57.285 126.232L56.745 129.037L98.685 128.962L98.04 126.217L57.285 126.232Z" fill="#E0E0E0"/>
<path d="M57.3 126.202L56.76 129.022L98.685 128.932L98.04 126.202H57.3Z" fill="#E1E1E1"/>
<path d="M57.3 126.172L56.76 129.007L98.685 128.917L98.04 126.172H57.3Z" fill="#E2E2E2"/>
<path d="M57.3 126.157L56.76 128.992L98.685 128.902L98.055 126.157H57.3Z" fill="#E3E3E2"/>
<path d="M57.315 126.127L56.76 128.977L98.685 128.887L98.055 126.127H57.315Z" fill="#E4E3E3"/>
<path d="M57.315 126.097L56.76 128.962L98.67 128.872L98.055 126.112L57.315 126.097Z" fill="#E5E4E4"/>
<path d="M57.315 126.067L56.775 128.947L98.67 128.842L98.055 126.082L57.315 126.067Z" fill="#E5E5E5"/>
<path d="M57.33 126.037L56.775 128.932L98.67 128.827L98.055 126.067L57.33 126.037Z" fill="#E6E6E6"/>
<path d="M57.33 126.022L56.775 128.917L98.67 128.812L98.055 126.037L57.33 126.022Z" fill="#E7E7E7"/>
<path d="M57.33 125.992L56.775 128.902L98.655 128.797L98.055 126.022L57.33 125.992Z" fill="#E8E8E8"/>
<path d="M57.345 125.962L56.775 128.887L98.655 128.782L98.055 126.007L57.345 125.962Z" fill="#E9E9E9"/>
<path d="M57.345 125.932L56.79 128.872L98.655 128.752L98.055 125.977L57.345 125.932Z" fill="#EAEAEA"/>
<path d="M57.345 125.917L56.79 128.857L98.655 128.737L98.055 125.962L57.345 125.917Z" fill="#EBEAEA"/>
<path d="M57.36 125.887L56.79 128.842L98.655 128.722L98.07 125.932L57.36 125.887Z" fill="#ECEBEB"/>
<path d="M57.36 125.857L56.79 128.827L98.64 128.707L98.07 125.917L57.36 125.857Z" fill="#ECECEC"/>
<path d="M57.36 125.827L56.79 128.812L98.64 128.677L98.07 125.887L57.36 125.827Z" fill="#EDEDED"/>
<path d="M57.375 125.797L56.805 128.782L98.64 128.662L98.07 125.872L57.375 125.797Z" fill="#EEEEEE"/>
<path d="M57.375 125.782L56.805 128.767L98.64 128.647L98.07 125.842L57.375 125.782Z" fill="#EFEFEF"/>
<path d="M57.375 125.752L56.805 128.752L98.625 128.632L98.07 125.827L57.375 125.752Z" fill="#F0F0F0"/>
<path d="M57.39 125.722L56.805 128.737L98.625 128.617L98.07 125.797L57.39 125.722Z" fill="#F1F1F1"/>
<path d="M57.39 125.692L56.805 128.722L98.625 128.587L98.07 125.782L57.39 125.692Z" fill="#F2F2F1"/>
<path d="M57.39 125.662L56.82 128.707L98.625 128.572L98.07 125.752L57.39 125.662Z" fill="#F3F2F2"/>
<path d="M57.405 125.647L56.82 128.692L98.625 128.557L98.07 125.737L57.405 125.647Z" fill="#F4F3F3"/>
<path d="M57.405 125.617L56.82 128.677L98.61 128.542L98.07 125.707L57.405 125.617Z" fill="#F4F4F4"/>
<path d="M57.405 125.587L56.82 128.662L98.61 128.527L98.085 125.692L57.405 125.587Z" fill="#F5F5F5"/>
<path d="M57.42 125.557L56.82 128.647L98.61 128.497L98.085 125.662L57.42 125.557Z" fill="#F6F6F6"/>
<path d="M57.42 125.527L56.835 128.632L98.61 128.482L98.085 125.647L57.42 125.527Z" fill="#F7F7F7"/>
<path d="M57.435 125.512L56.835 128.617L98.595 128.467L98.085 125.617L57.435 125.512Z" fill="#C9CBCE"/>
<path d="M103.905 130.432L98.79 129.517H56.655L51.54 130.432C51.39 130.462 51.27 130.597 51.27 130.762V131.782C51.27 131.917 51.375 132.022 51.51 132.022H103.935C104.07 132.022 104.175 131.917 104.175 131.782V130.762C104.175 130.597 104.055 130.462 103.905 130.432V130.432Z" fill="#F6F4F4"/>
<path d="M102.6 130.192L98.79 129.517H56.655L52.86 130.192H102.6Z" fill="#BFBDBD"/>
<path d="M56.58 129.532L55.35 129.757L52.83 130.222H102.63L100.11 129.757L98.88 129.532H98.55H56.58Z" fill="#C0BEBE"/>
<path d="M56.49 129.547L55.275 129.772L52.8 130.252H53.085C53.085 130.252 102.63 130.252 102.645 130.252L100.17 129.772L98.955 129.547H98.625C98.625 129.547 56.505 129.547 56.49 129.547V129.547Z" fill="#C1BFBF"/>
<path d="M56.415 129.562L55.215 129.787L52.785 130.267H53.07C53.07 130.267 102.66 130.267 102.675 130.267L100.245 129.787L99.045 129.562H98.715C98.715 129.562 56.445 129.562 56.43 129.562H56.415Z" fill="#C2C0C0"/>
<path d="M56.34 129.577L55.155 129.802L52.755 130.297L53.04 130.312C53.04 130.312 102.675 130.312 102.69 130.297L100.29 129.802L99.105 129.577H98.775C98.775 129.577 56.355 129.577 56.325 129.577H56.34Z" fill="#C3C1C1"/>
<path d="M56.25 129.592L55.08 129.817L52.725 130.312L53.01 130.327C53.01 130.327 102.705 130.327 102.72 130.312L100.365 129.817C100.365 129.817 99.21 129.592 99.195 129.592H98.865C98.865 129.592 56.295 129.592 56.25 129.592Z" fill="#C3C2C2"/>
<path d="M56.175 129.607C56.175 129.607 55.02 129.832 55.02 129.847L52.71 130.357C52.71 130.357 52.98 130.387 52.995 130.387C52.995 130.387 102.735 130.387 102.75 130.357L100.44 129.847C100.44 129.847 99.3 129.622 99.285 129.607H98.955C98.955 129.607 56.235 129.607 56.19 129.607H56.175Z" fill="#C4C2C3"/>
<path d="M56.085 129.622C56.085 129.622 54.945 129.832 54.945 129.862L52.68 130.387C52.68 130.387 52.95 130.417 52.965 130.417C52.965 130.417 102.75 130.417 102.78 130.387L100.515 129.862C100.515 129.862 99.39 129.637 99.375 129.622H99.03C99.03 129.622 56.145 129.622 56.1 129.622H56.085Z" fill="#C5C3C3"/>
<path d="M56.01 129.637C56.01 129.637 54.885 129.847 54.885 129.877L52.65 130.402C52.65 130.402 52.92 130.432 52.935 130.432C52.935 130.432 102.765 130.432 102.795 130.402L100.56 129.877C100.56 129.877 99.45 129.637 99.435 129.637H99.09C99.09 129.637 56.055 129.637 55.995 129.637H56.01Z" fill="#C6C4C4"/>
<path d="M55.935 129.637C55.935 129.637 54.825 129.847 54.825 129.877L52.635 130.417C52.635 130.417 52.905 130.447 52.92 130.447C52.92 130.447 102.795 130.447 102.825 130.417L100.635 129.877C100.635 129.877 99.54 129.637 99.525 129.637H99.18C99.18 129.637 55.995 129.637 55.935 129.637V129.637Z" fill="#C7C5C5"/>
<path d="M55.845 129.652C55.845 129.652 54.75 129.862 54.75 129.892L52.605 130.432C52.605 130.432 52.875 130.477 52.89 130.477C52.89 130.477 102.81 130.477 102.855 130.432L100.71 129.892C100.71 129.892 99.645 129.652 99.615 129.652H99.27C99.27 129.652 55.935 129.652 55.86 129.652H55.845Z" fill="#C8C6C6"/>
<path d="M55.77 129.667C55.77 129.667 54.69 129.877 54.69 129.907L52.575 130.462C52.575 130.462 52.83 130.507 52.86 130.507C52.86 130.507 102.825 130.507 102.87 130.462L100.755 129.907C100.755 129.907 99.705 129.667 99.675 129.667H99.33C99.33 129.667 55.845 129.667 55.755 129.667H55.77Z" fill="#C9C7C7"/>
<path d="M55.68 129.682C55.68 129.682 54.615 129.892 54.615 129.922L52.545 130.492C52.545 130.492 52.8 130.537 52.83 130.537C52.83 130.537 102.855 130.537 102.9 130.492L100.83 129.922C100.83 129.922 99.795 129.682 99.765 129.682H99.42C99.42 129.682 55.77 129.667 55.695 129.682H55.68Z" fill="#C9C7C8"/>
<path d="M55.605 129.697C55.605 129.697 54.555 129.907 54.555 129.937L52.53 130.507C52.53 130.507 52.785 130.552 52.815 130.552C52.815 130.552 102.885 130.552 102.93 130.507L100.905 129.937C100.905 129.937 99.885 129.697 99.855 129.697H99.51C99.51 129.697 55.71 129.682 55.62 129.697H55.605Z" fill="#CAC8C8"/>
<path d="M55.53 129.712C55.53 129.712 54.495 129.922 54.495 129.952L52.5 130.537C52.5 130.537 52.755 130.597 52.785 130.597C52.785 130.597 102.9 130.597 102.945 130.537L100.95 129.952C100.95 129.952 99.945 129.712 99.915 129.712H99.555C99.555 129.712 55.605 129.697 55.5 129.712H55.53Z" fill="#CBC9C9"/>
<path d="M55.44 129.727C55.44 129.727 54.42 129.937 54.42 129.967L52.47 130.552C52.47 130.552 52.725 130.612 52.755 130.612C52.755 130.612 102.915 130.612 102.975 130.552L101.025 129.967C101.025 129.967 100.05 129.727 100.005 129.727H99.645C99.645 129.727 55.545 129.712 55.44 129.727V129.727Z" fill="#CCCACA"/>
<path d="M55.365 129.742C55.365 129.742 54.36 129.952 54.36 129.997L52.455 130.597C52.455 130.597 52.695 130.657 52.74 130.657C52.74 130.657 102.945 130.657 103.005 130.597L101.1 129.997C101.1 129.997 100.14 129.757 100.095 129.742H99.735C99.735 129.742 55.485 129.727 55.365 129.742Z" fill="#CDCBCB"/>
<path d="M55.275 129.757C55.275 129.757 54.285 129.967 54.285 130.012L52.425 130.627C52.425 130.627 52.665 130.687 52.71 130.687C52.71 130.687 102.96 130.687 103.035 130.627L101.175 130.012C101.175 130.012 100.23 129.772 100.185 129.757L99.825 129.727C99.825 129.727 55.425 129.727 55.29 129.757H55.275Z" fill="#CECCCC"/>
<path d="M55.2 129.772C55.2 129.772 54.225 129.982 54.225 130.027L52.395 130.642C52.395 130.642 52.635 130.717 52.68 130.717C52.68 130.717 102.975 130.717 103.05 130.642L101.22 130.027C101.22 130.027 100.29 129.787 100.245 129.772L99.885 129.742C99.885 129.742 55.32 129.742 55.2 129.772V129.772Z" fill="#CECCCD"/>
<path d="M55.11 129.787C55.11 129.787 54.15 129.997 54.15 130.042L52.365 130.672C52.365 130.672 52.605 130.747 52.65 130.747C52.65 130.747 103.005 130.747 103.065 130.672L101.28 130.042C101.28 130.042 100.365 129.802 100.32 129.787L99.96 129.757C99.96 129.757 55.245 129.757 55.11 129.787V129.787Z" fill="#CFCDCD"/>
<path d="M55.035 129.802C55.035 129.802 54.09 130.012 54.09 130.057L52.35 130.687C52.35 130.687 52.59 130.762 52.62 130.762C52.62 130.762 103.02 130.762 103.095 130.687L101.355 130.057C101.355 130.057 100.47 129.817 100.41 129.802L100.035 129.772C100.035 129.772 55.17 129.772 55.02 129.802H55.035Z" fill="#D0CECE"/>
<path d="M54.96 129.817C54.96 129.817 54.03 130.027 54.03 130.072L52.32 130.717C52.32 130.717 52.545 130.792 52.59 130.792C52.59 130.792 103.035 130.792 103.11 130.717L101.4 130.072C101.4 130.072 100.53 129.817 100.47 129.817L100.095 129.787C100.095 129.787 55.08 129.787 54.93 129.817H54.96Z" fill="#D1CFCF"/>
<path d="M54.87 129.832C54.87 129.832 53.955 130.042 53.955 130.087L52.29 130.747C52.29 130.747 52.515 130.837 52.56 130.837C52.56 130.837 103.05 130.837 103.14 130.747L101.475 130.087C101.475 130.087 100.62 129.832 100.56 129.832L100.185 129.802C100.185 129.802 55.02 129.802 54.855 129.832H54.87Z" fill="#D2D0D0"/>
<path d="M54.795 129.847C54.795 129.847 53.895 130.042 53.895 130.102L52.275 130.762C52.275 130.762 52.5 130.852 52.545 130.852C52.545 130.852 103.08 130.852 103.17 130.762L101.55 130.102C101.55 130.102 100.71 129.847 100.65 129.847L100.275 129.817C100.275 129.817 54.96 129.817 54.78 129.847H54.795Z" fill="#D3D1D1"/>
<path d="M54.705 129.862C54.705 129.862 53.82 130.057 53.82 130.117L52.245 130.792C52.245 130.792 52.47 130.882 52.515 130.882C52.515 130.882 103.095 130.882 103.185 130.792L101.61 130.117C101.61 130.117 100.785 129.862 100.725 129.862L100.35 129.832C100.35 129.832 54.87 129.832 54.705 129.862V129.862Z" fill="#D4D1D2"/>
<path d="M54.63 129.877C54.63 129.877 53.775 130.072 53.775 130.147L52.23 130.822C52.23 130.822 52.455 130.912 52.5 130.912C52.5 130.912 103.125 130.912 103.23 130.822L101.685 130.147C101.685 130.147 100.89 129.892 100.83 129.877L100.455 129.847C100.455 129.847 54.825 129.847 54.645 129.877H54.63Z" fill="#D4D2D3"/>
<path d="M54.555 129.892C54.555 129.892 53.715 130.087 53.715 130.162L52.215 130.852C52.215 130.852 52.425 130.957 52.485 130.957C52.485 130.957 103.17 130.957 103.26 130.852L101.76 130.162C101.76 130.162 100.98 129.907 100.92 129.892L100.53 129.862C100.53 129.862 54.75 129.862 54.555 129.892Z" fill="#D5D3D3"/>
<path d="M54.465 129.907C54.465 129.907 53.64 130.102 53.64 130.177L52.185 130.882C52.185 130.882 52.395 130.987 52.455 130.987C52.455 130.987 103.185 130.987 103.29 130.882L101.835 130.177C101.835 130.177 101.07 129.922 101.01 129.907L100.62 129.877C100.62 129.877 54.69 129.877 54.495 129.907H54.465Z" fill="#D6D4D4"/>
<path d="M54.39 129.922C54.39 129.922 53.58 130.117 53.58 130.192L52.155 130.897C52.155 130.897 52.365 131.002 52.425 131.002C52.425 131.002 103.2 131.002 103.305 130.897L101.88 130.192C101.88 130.192 101.13 129.937 101.07 129.922L100.68 129.892C100.68 129.892 54.6 129.892 54.39 129.922V129.922Z" fill="#D7D5D5"/>
<path d="M54.3 129.937C54.3 129.937 53.505 130.132 53.505 130.207L52.125 130.927C52.125 130.927 52.335 131.032 52.395 131.032C52.395 131.032 103.215 131.032 103.32 130.927L101.94 130.207C101.94 130.207 101.22 129.952 101.145 129.937L100.755 129.892C100.755 129.892 54.525 129.892 54.3 129.937V129.937Z" fill="#D8D6D6"/>
<path d="M54.225 129.952C54.225 129.952 53.445 130.147 53.445 130.222L52.11 130.942C52.11 130.942 52.32 131.062 52.38 131.062C52.38 131.062 103.245 131.062 103.365 130.942L102.03 130.222C102.03 130.147 101.325 129.967 101.25 129.952L100.86 129.907C100.86 129.907 54.465 129.907 54.24 129.952H54.225Z" fill="#D9D7D7"/>
<path d="M54.15 129.967C54.075 129.967 53.385 130.162 53.385 130.237L52.08 130.972C52.08 130.972 52.275 131.092 52.35 131.092C52.35 131.092 103.26 131.092 103.38 130.972L102.075 130.237C102.075 130.162 101.385 129.982 101.31 129.967L100.92 129.922C100.92 129.922 54.375 129.922 54.15 129.967Z" fill="#DAD8D8"/>
<path d="M54.06 129.982C53.985 129.982 53.31 130.177 53.31 130.252L52.05 131.002C52.05 131.002 52.245 131.122 52.32 131.122C52.32 131.122 103.275 131.122 103.41 131.002L102.15 130.252C102.15 130.177 101.475 129.997 101.4 129.982L101.01 129.937C101.01 129.937 54.315 129.937 54.075 129.982H54.06Z" fill="#DBD8D8"/>
<path d="M53.985 129.997C53.91 129.997 53.25 130.192 53.25 130.267L52.035 131.017C52.035 131.017 52.23 131.137 52.305 131.137C52.305 131.137 103.32 131.137 103.44 131.017L102.225 130.267C102.225 130.177 101.565 130.012 101.49 129.997L101.085 129.952C101.085 129.952 54.24 129.952 53.985 129.997V129.997Z" fill="#DBD9D9"/>
<path d="M53.895 130.012C53.805 130.027 53.175 130.207 53.175 130.297L52.005 131.062C52.005 131.062 52.2 131.197 52.275 131.197C52.275 131.197 103.335 131.197 103.455 131.062L102.285 130.297C102.285 130.207 101.655 130.027 101.565 130.012L101.16 129.967C101.16 129.967 54.165 129.967 53.91 130.012H53.895Z" fill="#DCDADA"/>
<path d="M53.82 130.027C53.73 130.042 53.115 130.222 53.115 130.312L51.975 131.077C51.975 131.077 52.17 131.212 52.245 131.212C52.245 131.212 103.35 131.212 103.485 131.077L102.345 130.312C102.345 130.222 101.73 130.042 101.64 130.027L101.235 129.982C101.235 129.982 54.09 129.982 53.82 130.027V130.027Z" fill="#DDDBDB"/>
<path d="M53.73 130.042C53.64 130.057 53.04 130.237 53.04 130.327L51.945 131.107C51.945 131.182 52.125 131.242 52.215 131.242C52.215 131.242 103.365 131.242 103.5 131.107L102.405 130.327C102.405 130.237 101.805 130.057 101.715 130.042L101.31 129.997C101.31 129.997 54 129.997 53.73 130.042V130.042Z" fill="#DEDCDC"/>
<path d="M53.655 130.057C53.565 130.072 52.98 130.252 52.98 130.342L51.93 131.137C51.93 131.212 52.11 131.272 52.2 131.272C52.2 131.272 103.395 131.272 103.545 131.137L102.495 130.342C102.495 130.252 101.91 130.072 101.82 130.057L101.415 130.012C101.415 130.012 53.955 130.012 53.685 130.057H53.655Z" fill="#DFDDDD"/>
<path d="M53.58 130.057C53.49 130.072 52.92 130.252 52.92 130.342L51.9 131.137C51.9 131.212 52.08 131.287 52.155 131.287C52.155 131.287 103.395 131.287 103.545 131.137L102.525 130.342C102.525 130.252 101.955 130.072 101.865 130.057L101.46 130.012C101.46 130.012 53.85 130.012 53.565 130.057H53.58Z" fill="#E0DEDE"/>
<path d="M53.49 130.072C53.4 130.087 52.845 130.252 52.845 130.357L51.87 131.167C51.87 131.242 52.05 131.317 52.125 131.317C52.125 131.317 103.41 131.317 103.56 131.167L102.585 130.357C102.585 130.252 102.045 130.087 101.94 130.072L101.52 130.027C101.52 130.027 53.76 130.027 53.46 130.072H53.49Z" fill="#E1DEDF"/>
<path d="M53.415 130.087C53.31 130.102 52.785 130.267 52.785 130.372L51.855 131.182C51.855 131.272 52.035 131.332 52.11 131.332C52.11 131.332 103.455 131.332 103.605 131.182L102.675 130.372C102.675 130.267 102.15 130.102 102.045 130.087L101.625 130.027C101.625 130.027 53.715 130.027 53.415 130.087V130.087Z" fill="#E2DFDF"/>
<path d="M53.325 130.102C53.22 130.117 52.71 130.282 52.71 130.387L51.81 131.212C51.81 131.302 51.99 131.362 52.065 131.362C52.065 131.362 103.455 131.362 103.605 131.212L102.705 130.387C102.705 130.282 102.195 130.117 102.09 130.102L101.67 130.042C101.67 130.042 53.61 130.042 53.295 130.102H53.325Z" fill="#E2E0E0"/>
<path d="M53.25 130.117C53.145 130.132 52.65 130.297 52.65 130.402L51.795 131.242C51.795 131.332 51.96 131.407 52.05 131.407C52.05 131.407 103.485 131.407 103.65 131.242L102.795 130.402C102.795 130.297 102.3 130.132 102.195 130.117L101.775 130.057C101.775 130.057 53.55 130.057 53.235 130.117H53.25Z" fill="#E3E1E1"/>
<path d="M53.175 130.132C53.07 130.147 52.59 130.312 52.59 130.432L51.78 131.272C51.78 131.362 51.945 131.437 52.035 131.437C52.035 131.437 103.515 131.437 103.68 131.272L102.87 130.432C102.87 130.327 102.39 130.162 102.285 130.132L101.865 130.072C101.865 130.072 53.49 130.072 53.175 130.132V130.132Z" fill="#E4E2E2"/>
<path d="M53.085 130.147C52.98 130.162 52.515 130.327 52.515 130.447L51.75 131.302C51.75 131.392 51.915 131.467 52.005 131.467C52.005 131.467 103.53 131.467 103.695 131.302L102.93 130.447C102.93 130.342 102.48 130.177 102.36 130.147L101.94 130.087C101.94 130.087 53.415 130.087 53.085 130.147V130.147Z" fill="#E5E3E3"/>
<path d="M53.01 130.162C52.905 130.177 52.455 130.342 52.455 130.462L51.72 131.317C51.72 131.407 51.885 131.482 51.975 131.482C51.975 131.482 103.545 131.482 103.725 131.317L102.99 130.462C102.99 130.342 102.555 130.192 102.435 130.162L102.015 130.102C102.015 130.102 53.34 130.102 52.995 130.162H53.01Z" fill="#E6E4E4"/>
<path d="M52.92 130.177C52.8 130.192 52.38 130.357 52.38 130.477L51.69 131.347C51.69 131.437 51.855 131.527 51.945 131.527C51.945 131.527 103.56 131.527 103.74 131.347L103.05 130.477C103.05 130.357 102.63 130.207 102.51 130.177L102.075 130.117C102.075 130.117 53.25 130.117 52.905 130.177H52.92Z" fill="#E7E5E5"/>
<path d="M52.845 130.192C52.725 130.207 52.32 130.372 52.32 130.492L51.675 131.377C51.675 131.482 51.825 131.557 51.93 131.557C51.93 131.557 103.605 131.557 103.785 131.377L103.14 130.492C103.14 130.372 102.735 130.207 102.615 130.192L102.18 130.132C102.18 130.132 53.19 130.132 52.845 130.192V130.192Z" fill="#E8E6E6"/>
<path d="M52.77 130.207C52.65 130.222 52.26 130.387 52.26 130.507L51.645 131.392C51.645 131.497 51.795 131.572 51.9 131.572C51.9 131.572 103.62 131.572 103.8 131.392L103.185 130.507C103.185 130.387 102.795 130.222 102.675 130.207L102.24 130.147C102.24 130.147 53.1 130.147 52.74 130.207H52.77Z" fill="#E9E6E7"/>
<path d="M52.68 130.222C52.56 130.237 52.185 130.402 52.185 130.522L51.615 131.422C51.615 131.527 51.765 131.617 51.87 131.617C51.87 131.617 103.635 131.617 103.815 131.422L103.245 130.522C103.245 130.402 102.885 130.237 102.75 130.222L102.315 130.162C102.315 130.162 53.025 130.162 52.665 130.222H52.68Z" fill="#EAE7E8"/>
<path d="M52.605 130.237C52.485 130.252 52.125 130.417 52.125 130.537L51.6 131.437C51.6 131.542 51.75 131.632 51.855 131.632C51.855 131.632 103.665 131.632 103.86 131.437L103.335 130.537C103.335 130.417 102.99 130.252 102.855 130.237L102.42 130.177C102.42 130.177 52.98 130.177 52.605 130.237V130.237Z" fill="#EAE8E9"/>
<path d="M52.515 130.252C52.395 130.282 52.05 130.432 52.05 130.552L51.57 131.467C51.57 131.572 51.72 131.662 51.825 131.662C51.825 131.662 103.68 131.662 103.875 131.467L103.395 130.552C103.395 130.417 103.065 130.267 102.93 130.252L102.495 130.177C102.495 130.177 52.905 130.177 52.515 130.252Z" fill="#EBE9E9"/>
<path d="M52.44 130.267C52.305 130.297 51.99 130.447 51.99 130.567L51.54 131.497C51.54 131.602 51.675 131.692 51.795 131.692C51.795 131.692 103.695 131.692 103.905 131.497L103.455 130.567C103.455 130.432 103.14 130.282 103.005 130.267L102.555 130.192C102.555 130.192 52.815 130.192 52.425 130.267H52.44Z" fill="#ECEAEA"/>
<path d="M52.35 130.282C52.215 130.312 51.93 130.462 51.93 130.597L51.525 131.527C51.525 131.632 51.66 131.737 51.78 131.737C51.78 131.737 103.74 131.737 103.935 131.527L103.53 130.597C103.53 130.462 103.23 130.312 103.11 130.282L102.66 130.207C102.66 130.207 52.755 130.207 52.365 130.282H52.35Z" fill="#EDEBEB"/>
<path d="M52.275 130.297C52.14 130.327 51.87 130.477 51.87 130.612L51.51 131.557C51.51 131.677 51.645 131.767 51.765 131.767C51.765 131.767 103.77 131.767 103.965 131.557L103.605 130.612C103.605 130.477 103.335 130.327 103.2 130.297L102.75 130.222C102.75 130.222 52.695 130.222 52.29 130.297H52.275Z" fill="#EEECEC"/>
<path d="M52.2 130.312C52.065 130.342 51.81 130.477 51.81 130.627L51.48 131.572C51.48 131.692 51.615 131.782 51.735 131.782C51.735 131.782 103.785 131.782 103.995 131.572L103.665 130.627C103.665 130.492 103.41 130.342 103.275 130.312L102.825 130.237C102.825 130.237 52.62 130.237 52.215 130.312H52.2Z" fill="#EFEDED"/>
<path d="M52.11 130.327C51.975 130.357 51.735 130.492 51.735 130.642L51.45 131.602C51.45 131.722 51.585 131.812 51.69 131.812C51.69 131.812 103.785 131.812 103.995 131.602L103.71 130.642C103.71 130.507 103.47 130.357 103.335 130.327L102.885 130.252C102.885 130.252 52.53 130.252 52.11 130.327Z" fill="#F0EEEE"/>
<path d="M52.035 130.342C51.9 130.372 51.675 130.507 51.675 130.657L51.435 131.632C51.435 131.752 51.555 131.857 51.675 131.857C51.675 131.857 103.815 131.857 104.04 131.632L103.8 130.657C103.8 130.507 103.575 130.372 103.44 130.342L102.99 130.267C102.99 130.267 52.485 130.267 52.05 130.342H52.035Z" fill="#F1EFEF"/>
<path d="M51.945 130.357C51.795 130.387 51.6 130.522 51.6 130.672L51.39 131.647C51.39 131.767 51.51 131.872 51.63 131.872C51.63 131.872 103.815 131.872 104.04 131.647L103.83 130.672C103.83 130.522 103.62 130.387 103.485 130.357L103.02 130.282C103.02 130.282 52.365 130.282 51.93 130.357H51.945Z" fill="#F2F0F0"/>
<path d="M51.87 130.372C51.72 130.402 51.54 130.537 51.54 130.687L51.375 131.677C51.375 131.797 51.495 131.902 51.615 131.902C51.615 131.902 103.845 131.902 104.07 131.677L103.905 130.687C103.905 130.537 103.725 130.402 103.575 130.372L103.11 130.297C103.11 130.297 52.29 130.297 51.855 130.372H51.87Z" fill="#F3F0F1"/>
<path d="M51.795 130.387C51.645 130.417 51.48 130.552 51.48 130.702L51.36 131.692C51.36 131.812 51.48 131.917 51.6 131.917C51.6 131.917 103.89 131.917 104.115 131.692L103.995 130.702C103.995 130.552 103.83 130.402 103.68 130.387L103.215 130.312C103.215 130.312 52.245 130.312 51.795 130.387Z" fill="#F4F1F2"/>
<path d="M51.705 130.402C51.555 130.432 51.405 130.567 51.405 130.717L51.33 131.722C51.33 131.857 51.45 131.962 51.57 131.962C51.57 131.962 103.905 131.962 104.13 131.722L104.055 130.717C104.055 130.567 103.905 130.417 103.755 130.402L103.29 130.327C103.29 130.327 52.17 130.327 51.72 130.402H51.705Z" fill="#F4F2F2"/>
<path d="M51.63 130.417C51.48 130.447 51.345 130.582 51.345 130.747L51.3 131.752C51.3 131.887 51.405 131.992 51.54 131.992C51.54 131.992 103.92 131.992 104.16 131.752L104.115 130.747C104.115 130.597 103.98 130.447 103.83 130.417L103.365 130.342C103.365 130.342 52.095 130.342 51.63 130.417V130.417Z" fill="#F5F3F3"/>
<path d="M103.905 130.432L103.44 130.342H52.02L51.555 130.432C51.405 130.462 51.285 130.597 51.285 130.762V131.782C51.285 131.917 51.39 132.022 51.525 132.022H103.95C104.085 132.022 104.19 131.917 104.19 131.782V130.762C104.19 130.597 104.07 130.462 103.92 130.432H103.905Z" fill="#C9CBCE"/>
<path d="M142.935 18.0818H7.065C4.83 18.0818 3.015 20.0468 3.015 22.4768V108.232C3.015 110.662 4.83 112.627 7.065 112.627H142.935C145.17 112.627 146.985 110.662 146.985 108.232V22.4768C146.985 20.0468 145.17 18.0818 142.935 18.0818Z" fill="url(#paint0_linear_9024_71823)"/>
<path d="M142.32 18.8467H7.59C5.37 18.8467 3.57 20.7817 3.57 23.1667V107.557C3.57 109.942 5.37 111.877 7.59 111.877H142.32C144.54 111.877 146.34 109.942 146.34 107.557V23.1667C146.34 20.7817 144.54 18.8467 142.32 18.8467V18.8467Z" fill="#1E1E1E"/>
<path d="M76.515 22.3268C77.2357 22.3268 77.82 21.7425 77.82 21.0218C77.82 20.3011 77.2357 19.7168 76.515 19.7168C75.7943 19.7168 75.21 20.3011 75.21 21.0218C75.21 21.7425 75.7943 22.3268 76.515 22.3268Z" stroke="#212121" stroke-width="0.07" stroke-miterlimit="10"/>
<path d="M6.825 108.397H142.965V22.1768H6.825V108.397Z" fill="#FAFAFA" stroke="black" stroke-width="0.25" stroke-miterlimit="10"/>
<path d="M6.96 108.397H15.96L15.96 27.9367H6.96L6.96 108.397Z" fill="#F6F8FA" stroke="black" stroke-width="0.25" stroke-miterlimit="10"/>
<path d="M6.825 28.0117L142.965 28.0117V22.1617L6.825 22.1617V28.0117Z" fill="#F6F8FA" stroke="black" stroke-width="0.25" stroke-miterlimit="10"/>
<path d="M19.14 25.1168C19.14 25.8368 19.725 26.4218 20.445 26.4218C21.165 26.4218 21.75 25.8368 21.75 25.1168C21.75 24.3968 21.165 23.8118 20.445 23.8118C19.725 23.8118 19.14 24.3968 19.14 25.1168Z" fill="#91C7BE" stroke="black" stroke-width="0.25" stroke-miterlimit="10"/>
<path d="M14.655 25.1168C14.655 25.8368 15.24 26.4218 15.96 26.4218C16.68 26.4218 17.265 25.8368 17.265 25.1168C17.265 24.3968 16.68 23.8118 15.96 23.8118C15.24 23.8118 14.655 24.3968 14.655 25.1168Z" fill="#E7E67E" stroke="black" stroke-width="0.25" stroke-miterlimit="10"/>
<path d="M10.185 25.1168C10.185 25.8368 10.77 26.4218 11.49 26.4218C12.21 26.4218 12.795 25.8368 12.795 25.1168C12.795 24.3968 12.21 23.8118 11.49 23.8118C10.77 23.8118 10.185 24.3968 10.185 25.1168V25.1168Z" fill="#D85E32" stroke="black" stroke-width="0.25" stroke-miterlimit="10"/>
<path d="M12.57 31.9117V34.4767C12.57 34.6117 12.465 34.7167 12.33 34.7167H10.155C10.02 34.7167 9.915 34.6117 9.915 34.4767V31.3567C9.915 31.2217 10.02 31.1167 10.155 31.1167H11.79L12.57 31.8967V31.9117Z" fill="#F6F8FA" stroke="#1E1E1E" stroke-width="0.25" stroke-linecap="round" stroke-linejoin="round"/>
<path d="M11.79 31.1316V31.6716C11.79 31.8066 11.895 31.9116 12.03 31.9116H12.57" fill="#F6F8FA"/>
<path d="M11.79 31.1316V31.6716C11.79 31.8066 11.895 31.9116 12.03 31.9116H12.57" stroke="#1E1E1E" stroke-width="0.25" stroke-linecap="round" stroke-linejoin="round"/>
<path d="M13.35 31.2066V33.7716C13.35 33.9066 13.245 34.0116 13.11 34.0116H10.935C10.8 34.0116 10.695 33.9066 10.695 33.7716V30.6516C10.695 30.5166 10.8 30.4116 10.935 30.4116H12.57L13.35 31.1916V31.2066Z" fill="#F6F8FA" stroke="#1E1E1E" stroke-width="0.25" stroke-linecap="round" stroke-linejoin="round"/>
<path d="M12.57 30.4265V30.9665C12.57 31.1015 12.675 31.2065 12.81 31.2065H13.35" fill="#F6F8FA"/>
<path d="M12.57 30.4265V30.9665C12.57 31.1015 12.675 31.2065 12.81 31.2065H13.35" stroke="#1E1E1E" stroke-width="0.25" stroke-linecap="round" stroke-linejoin="round"/>
<path d="M13.68 95.9768C13.68 94.8818 12.795 93.9968 11.7 93.9968C10.605 93.9968 9.72 94.8818 9.72 95.9768C9.72 96.5318 9.96 97.0418 10.32 97.4018C10.32 97.4018 10.335 97.4168 10.35 97.4318C10.695 97.7618 11.175 97.9568 11.685 97.9568C12.195 97.9568 12.675 97.7618 13.02 97.4318C13.02 97.4318 13.035 97.4168 13.05 97.4018C13.425 97.0418 13.65 96.5468 13.65 95.9768H13.68ZM11.7 94.2518C12.66 94.2518 13.425 95.0318 13.425 95.9768C13.425 96.3818 13.29 96.7568 13.05 97.0418C12.945 96.6968 12.63 96.4268 12.225 96.3068C12.45 96.1418 12.6 95.8718 12.6 95.5718C12.6 95.0768 12.195 94.6718 11.7 94.6718C11.205 94.6718 10.8 95.0768 10.8 95.5718C10.8 95.8718 10.95 96.1418 11.175 96.3068C10.755 96.4268 10.455 96.6968 10.35 97.0418C10.11 96.7418 9.975 96.3818 9.975 95.9768C9.975 95.0318 10.755 94.2518 11.7 94.2518V94.2518ZM11.04 95.5868C11.04 95.2268 11.34 94.9418 11.7 94.9418C12.06 94.9418 12.36 95.2418 12.36 95.5868C12.36 95.9318 12.06 96.2318 11.7 96.2318C11.34 96.2318 11.04 95.9318 11.04 95.5868V95.5868ZM10.545 97.2668C10.575 96.8168 11.055 96.4868 11.685 96.4868C12.315 96.4868 12.795 96.8168 12.825 97.2668C12.525 97.5368 12.12 97.7018 11.685 97.7018C11.25 97.7018 10.845 97.5368 10.545 97.2668V97.2668Z" fill="#1E1E1E"/>
<path d="M13.44 101.332L13.05 101.272C13.05 101.272 13.02 101.197 13.005 101.167L13.245 100.837C13.32 100.747 13.305 100.612 13.215 100.522L12.93 100.237C12.93 100.237 12.81 100.162 12.75 100.162C12.705 100.162 12.66 100.177 12.615 100.207L12.3 100.447C12.3 100.447 12.225 100.417 12.195 100.402L12.135 100.012C12.12 99.8918 12.015 99.8318 11.895 99.8318H11.49C11.37 99.8318 11.265 99.9068 11.25 100.012L11.19 100.402C11.19 100.402 11.115 100.432 11.085 100.447L10.77 100.207C10.77 100.207 10.68 100.162 10.635 100.162C10.575 100.162 10.5 100.192 10.455 100.237L10.17 100.522C10.08 100.612 10.065 100.747 10.14 100.837L10.38 101.152C10.38 101.152 10.35 101.227 10.335 101.257L9.945 101.317C9.84 101.332 9.75 101.437 9.75 101.557V101.962C9.75 102.082 9.825 102.187 9.945 102.202L10.335 102.262C10.335 102.262 10.365 102.337 10.38 102.367L10.14 102.697C10.065 102.787 10.08 102.922 10.17 103.012L10.455 103.297C10.455 103.297 10.575 103.372 10.635 103.372C10.68 103.372 10.725 103.357 10.77 103.327L11.085 103.087C11.085 103.087 11.16 103.117 11.19 103.132L11.25 103.522C11.265 103.642 11.37 103.717 11.49 103.717H11.895C12.015 103.717 12.12 103.642 12.135 103.522L12.195 103.132C12.195 103.132 12.27 103.102 12.3 103.087L12.615 103.327C12.615 103.327 12.705 103.372 12.75 103.372C12.81 103.372 12.885 103.342 12.93 103.297L13.215 103.012C13.305 102.922 13.32 102.787 13.245 102.697L13.005 102.382C13.005 102.382 13.035 102.307 13.05 102.277L13.44 102.217C13.545 102.202 13.635 102.097 13.635 101.977V101.572C13.635 101.452 13.56 101.347 13.44 101.332ZM13.44 101.977H13.425L12.885 102.067L12.855 102.142C12.855 102.142 12.81 102.292 12.765 102.352L12.735 102.427L13.065 102.862L12.78 103.147L12.345 102.832L12.27 102.862C12.27 102.862 12.135 102.922 12.06 102.952L11.985 102.982L11.91 103.537H11.49L11.415 102.982L11.34 102.952C11.34 102.952 11.19 102.892 11.13 102.862L11.055 102.832L10.62 103.162L10.335 102.877L10.665 102.442L10.635 102.367C10.635 102.367 10.575 102.232 10.545 102.157L10.515 102.082L9.975 102.007H9.96V101.602H9.975L10.515 101.512L10.545 101.437C10.545 101.437 10.605 101.287 10.635 101.227L10.665 101.152L10.335 100.717L10.62 100.432L11.055 100.747L11.13 100.717C11.13 100.717 11.265 100.657 11.34 100.627H11.415L11.49 100.057H11.91L11.985 100.597L12.06 100.627C12.06 100.627 12.21 100.687 12.27 100.717L12.345 100.747L12.78 100.417L13.065 100.702L12.735 101.137L12.765 101.212C12.765 101.212 12.825 101.347 12.855 101.422L12.885 101.497L13.425 101.572H13.44V101.977Z" fill="#1E1E1E"/>
<path d="M11.685 101.317C11.43 101.317 11.205 101.527 11.205 101.797C11.205 102.067 11.415 102.277 11.685 102.277C11.955 102.277 12.165 102.067 12.165 101.797C12.165 101.527 11.955 101.317 11.685 101.317V101.317ZM11.685 102.157C11.49 102.157 11.325 101.992 11.325 101.797C11.325 101.602 11.49 101.437 11.685 101.437C11.88 101.437 12.045 101.602 12.045 101.797C12.045 101.992 11.88 102.157 11.685 102.157V102.157Z" stroke="#1E1E1E" stroke-width="0.15" stroke-miterlimit="10"/>
<path d="M6.675 108.547L142.965 108.547V105.862L6.675 105.862V108.547Z" fill="#76DBC7"/>
<path d="M10.9426 39.1093C10.8947 39.4841 11.0096 39.8324 11.228 40.0936L10.0362 41.2848C9.92631 41.3946 10.0917 41.5586 10.2003 41.4488L11.3921 40.2576C11.6534 40.4759 12.0019 40.592 12.3769 40.5428C12.9261 40.4721 13.378 40.0406 13.469 39.4942C13.6141 38.6223 12.8655 37.874 11.9931 38.0178C11.4464 38.1074 11.0133 38.5592 10.9414 39.1081L10.9426 39.1093ZM13.2518 39.1838C13.3086 39.8362 12.7695 40.3762 12.1155 40.3182C11.6181 40.2753 11.2116 39.869 11.1686 39.3718C11.1118 38.7194 11.6509 38.1806 12.3049 38.2374C12.8023 38.2803 13.2089 38.6866 13.2518 39.1838Z" fill="#1E1E1E"/>
<path d="M47.205 105.652V87.1719H52.17V105.652" fill="#76DBC7"/>
<path d="M52.17 1.10181V25.1168H47.205V1.10181" fill="#FF5101"/>
<path d="M47.205 64.5817V79.0867H52.17V64.5817H47.205Z" fill="#C9CBCE"/>
<path d="M65.25 105.652V94.9268H70.215V105.652" fill="#BD99FF"/>
<path d="M70.215 2.67676V43.6568H65.25V2.67676" fill="#76DBC7"/>
<path d="M65.265 55.4617V83.1367H70.23V55.4617H65.265Z" fill="#FF5101"/>
<path d="M83.295 105.877V101.422H88.26V105.877" fill="#FF5101"/>
<path d="M88.26 16.9268V37.4168H83.295V16.9268" fill="#C9CBCE"/>
<path d="M83.295 79.4469V96.0369H88.26V79.4469H83.295Z" fill="#76DBC7"/>
<path d="M101.34 105.877V88.5967H106.305V105.877" fill="#EDF569"/>
<path d="M106.305 7.83667V45.7567H101.34V7.83667" fill="#FF5101"/>
<path d="M101.34 51.8767V82.4917H106.305V51.8767H101.34Z" fill="#C9CBCE"/>
<path d="M52.17 32.8418V56.8418H47.205V32.8418" fill="#EDF569"/>
<path d="M88.26 41.4668V61.9568H83.295V41.4668" fill="#BD99FF"/>
<path d="M83.295 67.8067V74.0767H88.26V67.8067H83.295Z" fill="#EDF569"/>
</g>
<defs>
<linearGradient id="paint0_linear_9024_71823" x1="75" y1="112.627" x2="75" y2="18.0818" gradientUnits="userSpaceOnUse">
<stop stop-color="#EBEBEC"/>
<stop offset="0.51" stop-color="#ABABAF"/>
<stop offset="0.66" stop-color="#C6C6C8"/>
<stop offset="1" stop-color="white"/>
</linearGradient>
<clipPath id="clip0_9024_71823">
<rect width="150" height="150" fill="white" transform="translate(0 0.0517578)"/>
</clipPath>
</defs>
</svg>
