<svg width="80" height="80" viewBox="0 0 80 80" fill="none" xmlns="http://www.w3.org/2000/svg">
<g clip-path="url(#clip0_8703_72285)">
<path d="M71.792 24.64V22.936H65.032V18.712C65.032 16.648 63.36 14.968 61.288 14.968H57.064V8.20801H55.36V14.968H51.664V8.20801H49.96V14.968H46.264V8.20801H44.56V14.968H40.864V8.20801H39.16V14.968H35.464V8.20801H33.76V14.968H30.064V8.20801H28.36V14.968H24.664V8.20801H22.96V14.968H18.736C16.672 14.968 14.992 16.64 14.992 18.712V22.936H8.20801V24.64H14.968V28.336H8.20801V30.04H14.968V33.736H8.20801V35.44H14.968V39.136H8.20801V40.84H14.968V44.536H8.20801V46.24H14.968V49.936H8.20801V51.64H14.968V55.336H8.20801V57.04H14.968V61.264C14.968 63.328 16.64 65.008 18.712 65.008H22.936V71.768H24.64V65.008H28.336V71.768H30.04V65.008H33.736V71.768H35.44V65.008H39.136V71.768H40.84V65.008H44.536V71.768H46.24V65.008H49.936V71.768H51.64V65.008H55.336V71.768H57.04V65.008H61.264C63.328 65.008 65.008 63.336 65.008 61.264V57.04H71.768V55.336H65.008V51.64H71.768V49.936H65.008V46.24H71.768V44.536H65.008V40.84H71.768V39.136H65.008V35.44H71.768V33.736H65.008V30.04H71.768V28.336H65.008V24.64H71.768H71.792Z" fill="white"/>
<path d="M17.0161 61.208C17.0161 57.536 17.0161 53.856 17.0161 50.184C17.0161 50.048 17.0401 50.024 17.1761 50.024C24.7361 50.024 32.2881 50.024 39.8481 50.024C39.9841 50.024 40.0081 50.048 40.0081 50.184C40.0081 53.808 40.0081 57.432 40.0081 61.048C40.0081 61.184 39.9841 61.208 39.8481 61.208C32.2401 61.208 24.6321 61.208 17.0241 61.208H17.0161Z" fill="#FEFDFD"/>
<path d="M21.0481 55.0561C21.2001 55.0561 21.3441 55.0561 21.4961 55.0561C21.6401 55.0641 21.6801 55.0081 21.6721 54.8801C21.6721 54.7681 21.6801 54.6561 21.6721 54.5521C21.6241 54.2481 21.8001 54.0641 22.1201 53.9281C22.2641 53.8641 22.3921 53.8081 22.5521 53.8161C22.6721 53.8161 22.6401 53.7121 22.6401 53.6401C22.6401 53.1441 22.6401 52.6481 22.6401 52.1521C22.6401 51.7681 22.8641 51.5441 23.2081 51.4001C23.5041 51.2721 23.7841 51.3041 24.0801 51.3041C27.1921 51.3041 30.2961 51.3041 33.4081 51.3041C33.4881 51.3041 33.5761 51.2721 33.6481 51.3441C33.6881 51.4161 33.6481 51.4561 33.5841 51.4961C33.4801 51.5281 33.3761 51.5201 33.2801 51.5201C30.0241 51.5201 26.7761 51.5201 23.5201 51.5201C23.1041 51.5201 22.8241 51.7761 22.8161 52.2001C22.8161 52.6241 22.8161 53.0481 22.8161 53.4721C22.8161 53.5441 22.8161 53.6161 22.8161 53.6881C22.7841 53.9681 22.7121 54.0321 22.4401 54.0401C22.0081 54.0401 21.8161 54.2481 21.8081 54.6881C21.8081 54.8321 21.8641 55.0001 21.7361 55.1281C21.5201 55.1761 21.3041 55.1761 21.0881 55.1281C21.0641 55.1121 21.0561 55.0881 21.0641 55.0641L21.0481 55.0561Z" fill="#FAF2E1"/>
<path d="M33.6001 51.456L33.6401 51.344C34.2881 51.344 34.9281 51.352 35.5761 51.344C35.7841 51.344 35.9761 51.408 36.1761 51.44C36.3121 51.464 36.5841 51.856 36.5841 52.008C36.5841 52.4 36.5841 52.792 36.5841 53.184C36.5841 53.32 36.6241 53.368 36.7601 53.36C36.9761 53.352 37.2001 53.36 37.4161 53.36C37.6801 53.36 37.7441 53.432 37.7441 53.696C37.7441 54.04 37.7441 54.376 37.7441 54.72C37.7441 54.8 37.7441 54.872 37.7841 54.944C37.8401 55.024 37.9121 55.008 37.9921 55.008C38.3441 55.008 38.6961 55.008 39.0481 55.008C39.1601 55.008 39.2641 55.016 39.3681 55.056C39.4321 55.08 39.4961 55.104 39.4481 55.192C38.9201 55.208 38.3921 55.192 37.8641 55.192C37.7041 55.192 37.6321 55.096 37.6161 54.904C37.6001 54.728 37.6161 54.544 37.6161 54.36C37.6161 54.168 37.6161 53.976 37.6161 53.784C37.6161 53.56 37.5521 53.504 37.3281 53.496C37.0961 53.496 36.8641 53.512 36.6321 53.48C36.4801 53.432 36.4561 53.304 36.4561 53.168C36.4561 52.856 36.4561 52.552 36.4561 52.24C36.4561 51.808 36.1601 51.52 35.7281 51.512C35.1201 51.512 34.5121 51.512 33.9121 51.512C33.8321 51.512 33.7441 51.512 33.6641 51.496C33.6401 51.488 33.6241 51.472 33.6081 51.456H33.6001Z" fill="#E6E4E3"/>
<path d="M23.2161 60.0881C22.8961 59.8721 22.6401 59.6321 22.6641 59.1841C22.6961 58.7281 22.6641 58.2721 22.6721 57.8161C22.6721 57.6161 22.6081 57.5601 22.4161 57.5681C22.0721 57.5841 21.8001 57.4161 21.7041 57.1601C21.6961 57.1281 21.6961 57.0961 21.6881 57.0641C21.6561 56.8641 21.6881 56.6561 21.6721 56.4481C21.7281 56.3601 21.7521 56.4321 21.7681 56.4721C21.8001 56.5681 21.7921 56.6641 21.7841 56.7601C21.7521 57.0641 21.8801 57.2641 22.1441 57.4001C22.1601 57.4001 22.1841 57.4161 22.2001 57.4241C22.3441 57.4641 22.4961 57.4241 22.6401 57.4561C22.6961 57.4801 22.7281 57.5201 22.7521 57.5841C22.7761 58.1281 22.7521 58.6721 22.7601 59.2241C22.7601 59.3921 22.7841 59.5441 22.9121 59.6641C22.9441 59.7041 22.9681 59.7441 22.9921 59.7841C23.1601 59.9441 23.3521 60.0001 23.5921 60.0001C26.8161 60.0001 30.0321 60.0001 33.2561 60.0001C33.3681 60.0001 33.4721 59.9841 33.5841 60.0161C33.6081 60.0241 33.6241 60.0401 33.6401 60.0641C33.6001 60.1361 33.5281 60.1041 33.4641 60.1041C30.0961 60.1041 26.7281 60.1041 23.3601 60.1041C23.3121 60.1041 23.2561 60.1121 23.2081 60.0881H23.2161Z" fill="#F8E7C4"/>
<path d="M23.216 60.088C26.608 60.088 30.008 60.088 33.4 60.088C33.48 60.088 33.568 60.112 33.64 60.056C33.696 60.024 33.752 60.032 33.808 60.032C34.336 60.032 34.864 60.008 35.384 60.032C35.76 60.056 36.072 59.952 36.36 59.712C36.384 59.712 36.408 59.712 36.424 59.728C36.328 59.968 36.112 60.112 35.848 60.112C31.704 60.112 27.56 60.112 23.408 60.112C23.344 60.112 23.264 60.136 23.208 60.072L23.216 60.088Z" fill="#E9E7E4"/>
<path d="M39.456 55.1761C39.368 55.0481 39.224 55.0641 39.104 55.0641C38.696 55.0641 38.296 55.0241 37.888 55.0881C37.76 55.1041 37.808 55.0081 37.792 54.9441C38.288 54.9441 38.784 54.9441 39.28 54.9441C39.52 54.9441 39.728 55.1601 39.728 55.3921C39.728 55.6161 39.728 55.8401 39.728 56.0641C39.728 56.3281 39.6 56.4481 39.336 56.4481C38.824 56.4481 38.304 56.4481 37.792 56.4481C37.776 56.4241 37.792 56.4081 37.808 56.3921C37.888 56.3441 37.984 56.3601 38.072 56.3601C38.448 56.3601 38.824 56.3601 39.192 56.3601C39.416 56.3601 39.52 56.2881 39.544 56.0721C39.568 55.8321 39.56 55.5841 39.544 55.3361C39.544 55.3041 39.52 55.2801 39.488 55.2641C39.464 55.2401 39.44 55.2161 39.448 55.1761H39.456Z" fill="#F6F5F5"/>
<path d="M17.792 55.1361C17.84 55.0241 17.896 54.9281 18.048 54.9441C18.144 54.9521 18.184 54.8881 18.184 54.8001C18.184 54.7361 18.184 54.6721 18.184 54.6081C18.176 54.4481 18.216 54.3841 18.392 54.3041C18.664 54.1921 18.92 54.2241 19.184 54.2161C19.704 54.2001 20.216 54.2161 20.736 54.2161C20.936 54.2161 21.032 54.3041 21.056 54.4881C20.84 54.3761 20.6 54.3841 20.36 54.3841C19.832 54.3841 19.304 54.3841 18.776 54.3841C18.696 54.3841 18.608 54.3841 18.528 54.4001C18.288 54.4801 18.28 54.4801 18.28 54.7361C18.28 54.7601 18.28 54.7361 18.28 54.7521C18.28 55.1281 18.216 55.1841 17.824 55.1601L17.8 55.1361H17.792Z" fill="#F3F2F2"/>
<path d="M37.7922 56.416V56.456C37.7282 56.504 37.7522 56.576 37.7522 56.64C37.7522 56.984 37.7522 57.336 37.7522 57.68C37.7522 58.064 37.5362 58.264 37.1522 58.192C36.9842 58.16 36.8322 58.216 36.6802 58.208C36.5682 58.2 36.5922 58.296 36.5922 58.36C36.5922 58.744 36.5922 59.128 36.5922 59.52C36.5682 59.592 36.5602 59.68 36.4722 59.712L36.4322 59.752H36.3922C36.3922 59.752 36.3762 59.728 36.3762 59.72C36.5842 59.304 36.4642 58.856 36.4962 58.416C36.4962 58.336 36.4962 58.248 36.5202 58.168C36.5842 58.056 36.6882 58.04 36.8002 58.032C36.9442 58.032 37.0962 58.032 37.2402 58.032C37.5042 58.032 37.6162 57.92 37.6162 57.664C37.6162 57.336 37.6162 57.008 37.6162 56.688C37.6162 56.608 37.6082 56.52 37.6642 56.448C37.6802 56.432 37.6962 56.416 37.7202 56.416C37.7442 56.416 37.7682 56.416 37.7842 56.44L37.7922 56.416Z" fill="#E6E4E3"/>
<path d="M21.7041 56.416C21.7041 56.632 21.7041 56.856 21.7041 57.072C21.6321 56.92 21.6801 56.76 21.6721 56.6C21.6721 56.496 21.6401 56.456 21.5281 56.448C21.0481 56.424 21.0481 56.424 21.0481 56.896V56.992C21.0321 57.16 20.9361 57.208 20.7761 57.208C20.0401 57.208 19.3041 57.208 18.5681 57.208C18.2801 57.208 18.2081 57.128 18.2001 56.84C18.2001 56.712 18.2241 56.584 18.1841 56.456C18.1841 56.456 18.1841 56.416 18.2161 56.4C18.3521 56.416 18.3441 56.52 18.3281 56.616C18.3121 56.712 18.3041 56.808 18.3521 56.896C18.4081 57.024 18.4961 57.088 18.6321 57.088C19.3281 57.088 20.0241 57.088 20.7201 57.088C20.8961 57.088 20.9281 56.968 20.9441 56.832C20.9601 56.728 20.9441 56.624 20.9521 56.52C20.9521 56.44 20.9841 56.352 21.0641 56.336C21.2721 56.304 21.4801 56.256 21.6801 56.368L21.6961 56.4L21.7041 56.416Z" fill="#E6E6E6"/>
<path d="M18.176 56.448C18.256 56.568 18.208 56.712 18.216 56.84C18.232 57.072 18.328 57.184 18.56 57.184C19.296 57.184 20.04 57.184 20.776 57.184C20.936 57.184 20.984 57.096 21.04 56.984C21.064 57.16 21 57.224 20.816 57.216C20.048 57.208 19.272 57.216 18.504 57.216C18.208 57.216 18.176 57.184 18.176 56.888C18.176 56.744 18.176 56.592 18.176 56.448Z" fill="#F1F0F1"/>
<path d="M18.488 54.3601C18.544 54.3041 18.608 54.3281 18.672 54.3281C19.344 54.3281 20.008 54.3281 20.68 54.3281C20.824 54.3281 20.96 54.3521 21.048 54.4801C21.048 54.6721 21.048 54.8641 21.048 55.0561C21.048 55.0721 21.048 55.0801 21.048 55.0961H21.016C20.896 55.0001 20.92 54.8561 20.92 54.7201C20.92 54.4641 20.88 54.4241 20.616 54.4161C20.016 54.4161 19.416 54.4161 18.816 54.4161C18.712 54.4161 18.608 54.4321 18.512 54.3841L18.488 54.3601Z" fill="#DADADA"/>
<path d="M18.1761 56.408V56.448C18.0241 56.432 17.8561 56.496 17.7121 56.368C17.6401 56.304 17.5841 56.232 17.5921 56.128C17.6001 55.872 17.5921 55.616 17.5921 55.36C17.5921 55.224 17.6321 55.136 17.7841 55.136C17.7841 55.136 17.8001 55.176 17.7921 55.192C17.6561 55.344 17.6801 55.536 17.6801 55.72C17.6801 55.832 17.6801 55.936 17.6801 56.048C17.6801 56.064 17.6881 56.08 17.6961 56.104C17.7041 56.184 17.7601 56.24 17.8081 56.304C17.8801 56.416 18.0001 56.36 18.0961 56.384C18.1121 56.384 18.1281 56.392 18.1441 56.4L18.1601 56.424L18.1761 56.408Z" fill="#F1F0F1"/>
<path d="M36.4722 59.696L36.5922 59.504C36.5922 59.592 36.6082 59.688 36.4722 59.696Z" fill="#E9E7E4"/>
<path d="M33.6 51.4561L33.64 51.4721C33.656 51.5201 33.624 51.5521 33.584 51.5681C33.56 51.5761 33.544 51.5841 33.52 51.5921C33.496 51.5921 33.472 51.6001 33.456 51.6081C33.328 51.6401 33.2 51.6401 33.072 51.6401C30.008 51.6401 26.944 51.6401 23.888 51.6401C23.72 51.6401 23.552 51.6161 23.384 51.6241C23.24 51.6081 23.16 51.7201 23.072 51.8081C23.04 51.8481 23.032 51.8961 23.008 51.9441C22.976 52.0401 22.968 52.1441 22.968 52.2481C22.968 52.7041 22.968 53.1601 22.968 53.6161C22.968 53.8241 22.928 54.0161 22.704 54.1121C22.608 54.1521 22.504 54.1441 22.4 54.1441C22.12 54.1441 21.896 54.3681 21.88 54.6481C21.88 54.7681 21.88 54.8961 21.88 55.0161C21.88 55.0961 21.88 55.1761 21.792 55.2161C21.736 55.2241 21.712 55.2001 21.696 55.1521C21.696 55.1281 21.696 55.1121 21.712 55.0961C21.792 54.9361 21.744 54.7681 21.752 54.6081C21.76 54.2321 21.984 53.9921 22.352 53.9841C22.624 53.9734 22.76 53.8294 22.76 53.5521C22.76 53.0881 22.768 52.6241 22.76 52.1601C22.76 51.8801 23.072 51.4481 23.432 51.4721C23.488 51.4721 23.552 51.4721 23.608 51.4721C26.864 51.4721 30.112 51.4721 33.368 51.4721C33.448 51.4721 33.536 51.4721 33.616 51.4721L33.6 51.4561Z" fill="#F5D38F"/>
<path d="M21.7041 55.0961C21.7041 55.0961 21.7041 55.1201 21.7041 55.1361C21.5041 55.2401 21.2881 55.1921 21.0801 55.1601C21.0561 55.1601 21.0481 55.1281 21.0481 55.0961C21.2641 55.0961 21.4881 55.0961 21.7041 55.0961Z" fill="#DADADA"/>
<path d="M33.6001 51.5361L33.6321 51.4641C34.3841 51.4641 35.1361 51.4641 35.8881 51.4641C36.0161 51.4641 36.1201 51.5201 36.2081 51.6161C36.3921 51.8081 36.5201 52.0081 36.5041 52.2881C36.4881 52.5921 36.5041 52.9041 36.5041 53.2161C36.5041 53.3121 36.5281 53.3921 36.6241 53.4401C36.8561 53.4881 37.0961 53.4481 37.3361 53.4561C37.5521 53.4561 37.6241 53.5281 37.6321 53.7441C37.6321 54.0801 37.6321 54.4161 37.6321 54.7521C37.6321 54.8161 37.6321 54.8801 37.6401 54.9441C37.6881 55.1441 37.7281 55.1761 37.9281 55.1761C38.3441 55.1761 38.7681 55.1761 39.1841 55.1761C39.4561 55.1761 39.4961 55.2161 39.5041 55.4881C39.5041 55.6401 39.5041 55.8001 39.5041 55.9521C39.5041 56.0241 39.5201 56.1121 39.4241 56.1521C39.3281 56.0721 39.3761 55.9681 39.3601 55.8721C39.3361 55.6961 39.4081 55.5201 39.3121 55.3521C39.2481 55.2961 39.1681 55.3121 39.0881 55.3121C38.7041 55.3121 38.3121 55.3121 37.9281 55.3121C37.8241 55.3121 37.7201 55.3121 37.6321 55.2561C37.5041 55.1761 37.4641 55.0561 37.4641 54.9121C37.4641 54.5681 37.4641 54.2321 37.4641 53.8881C37.4641 53.6081 37.4321 53.5761 37.1601 53.5761C37.0081 53.5761 36.8481 53.5761 36.6961 53.5761C36.4881 53.5681 36.3921 53.4881 36.3361 53.2961C36.3041 53.1841 36.3121 53.0641 36.3041 52.9521C36.2881 52.5921 36.3521 52.2321 36.2481 51.8801C36.2401 51.8641 36.2241 51.8481 36.2161 51.8321C36.1281 51.7441 36.0481 51.6401 35.9121 51.6161C35.2561 51.6001 34.6001 51.6161 33.9441 51.6161C33.8561 51.6161 33.7681 51.6161 33.6721 51.6001C33.6481 51.6001 33.6241 51.5761 33.6081 51.5601L33.6001 51.5361Z" fill="#A69D93"/>
<path d="M39.4161 56.1361C39.5041 55.8641 39.4481 55.5761 39.4481 55.2961C39.4481 55.1921 39.3441 55.2081 39.2641 55.2081C38.8481 55.2081 38.4401 55.2081 38.0241 55.2081C37.6881 55.2081 37.6081 55.1281 37.6001 54.7841C37.6001 54.4801 37.6001 54.1761 37.6001 53.8721C37.6001 53.4801 37.5761 53.4641 37.1841 53.4561C37.0001 53.4561 36.8161 53.5041 36.6321 53.4241C36.8721 53.4241 37.1121 53.4241 37.3441 53.4241C37.5921 53.4241 37.6721 53.5041 37.6721 53.7681C37.6721 54.1121 37.6721 54.4481 37.6721 54.7921C37.6721 55.1121 37.7041 55.1361 38.0081 55.1361C38.3921 55.1361 38.7681 55.1361 39.1521 55.1361C39.2561 55.1361 39.3601 55.1441 39.4561 55.1761L39.4881 55.2161C39.4881 55.2161 39.5201 55.2481 39.5201 55.2641C39.5601 55.5681 39.5761 55.8721 39.5121 56.1761C39.4801 56.3441 39.3681 56.4001 39.2081 56.3921C38.7841 56.3921 38.3601 56.3921 37.9361 56.3921C37.8721 56.3921 37.8081 56.3761 37.7441 56.4081H37.7041C37.7041 56.4081 37.6801 56.3441 37.6881 56.3041C37.7521 56.2241 37.8481 56.2321 37.9361 56.2321C38.3281 56.2321 38.7201 56.2321 39.1041 56.2321C39.1761 56.2321 39.2641 56.2561 39.3121 56.1761C39.3361 56.1521 39.3601 56.1281 39.4001 56.1361H39.4161Z" fill="#ADADAD"/>
<path d="M22.7122 57.5681L22.6322 57.4961C22.4802 57.4401 22.3202 57.5121 22.1682 57.4561C22.1202 57.4241 22.0802 57.3841 22.0322 57.3521C21.9842 57.3121 22.0162 57.2881 22.0562 57.2721C22.2402 57.3041 22.4242 57.3121 22.6082 57.3441C22.8562 57.3841 22.9682 57.5361 22.9682 57.7921C22.9682 58.2401 22.9682 58.6801 22.9682 59.1281C22.9682 59.2561 22.9682 59.3841 23.0082 59.5121C23.0082 59.5281 23.0242 59.5521 23.0242 59.5761C23.0402 59.6961 23.1282 59.7441 23.2242 59.7761C23.3602 59.8241 23.4962 59.8401 23.6402 59.8401C26.8242 59.8401 30.0002 59.8401 33.1842 59.8401C33.2802 59.8401 33.3762 59.8401 33.4722 59.8401C33.4962 59.8401 33.5202 59.8561 33.5442 59.8641C33.5922 59.8961 33.6082 59.9361 33.6082 59.9921C33.5922 60.0161 33.5762 60.0321 33.5442 60.0241C30.2322 60.0241 26.9282 60.0241 23.6162 60.0241C23.3442 60.0241 23.1362 59.9361 22.9362 59.7681L22.8962 59.6881C22.7682 59.5601 22.7362 59.4001 22.7362 59.2321C22.7362 58.7601 22.7362 58.2801 22.7362 57.8081C22.7362 57.7281 22.7522 57.6401 22.6962 57.5681H22.7122Z" fill="#F5D28B"/>
<path d="M22.9441 59.776C23.2321 60 23.5601 60.008 23.9121 60.008C27.1361 60.008 30.3681 60.008 33.5921 60.008C33.6081 60.008 33.6081 60.024 33.6081 60.032C33.6081 60.04 33.6081 60.048 33.6001 60.048C30.2401 60.048 26.8801 60.048 23.5201 60.048C23.2801 60.048 23.0881 59.96 22.9441 59.776Z" fill="#F7E6C1"/>
<path d="M33.6001 60.0481C33.6001 60.0481 33.6001 60.0241 33.6001 60.0081V59.9681L33.6241 59.9521C34.2721 59.9521 34.9281 59.9521 35.5761 59.9521C35.9601 59.9521 36.2401 59.8241 36.3841 59.4561C36.4001 59.4241 36.4161 59.3841 36.4401 59.3521C36.4961 59.0241 36.4401 58.6961 36.4641 58.3681C36.4641 58.2881 36.4241 58.1841 36.5601 58.1521C36.5601 58.4641 36.5521 58.7761 36.5601 59.0881C36.5601 59.3201 36.5601 59.5441 36.4001 59.7361C36.2001 59.9361 35.9921 60.0881 35.6801 60.0881C35.0801 60.0801 34.4801 60.0881 33.8801 60.0881C33.8001 60.0881 33.7281 60.0881 33.6561 60.0561H33.6161L33.6001 60.0481Z" fill="#C3BDB6"/>
<path d="M22.7122 57.568C22.8082 57.616 22.7842 57.704 22.7842 57.784C22.7842 58.216 22.7842 58.656 22.7842 59.088C22.7842 59.296 22.7842 59.504 22.9042 59.696C22.7282 59.592 22.7122 59.424 22.7122 59.248C22.7122 58.688 22.7122 58.128 22.7122 57.568Z" fill="#F7E6C1"/>
<path d="M22.016 57.304C22.064 57.36 22.144 57.384 22.168 57.456C21.84 57.32 21.752 57.176 21.736 56.84C21.736 56.696 21.784 56.552 21.704 56.416C21.688 56.376 21.672 56.336 21.704 56.296C21.728 56.288 21.744 56.296 21.768 56.296C21.824 56.336 21.84 56.4 21.84 56.464C21.824 56.76 21.84 57.048 22.024 57.304H22.016Z" fill="#F6DDA9"/>
<path d="M22.1682 57.456C22.3202 57.48 22.4802 57.416 22.6322 57.496C22.4802 57.48 22.3202 57.536 22.1682 57.456Z" fill="#F6DDA9"/>
<path d="M37.7441 56.4081C37.8001 56.3441 37.8801 56.3681 37.9441 56.3681C38.3441 56.3681 38.7441 56.3681 39.1441 56.3681C39.4161 56.3681 39.4881 56.2961 39.4881 56.0241C39.4881 55.7521 39.4881 55.4801 39.4881 55.2161C39.5601 55.2161 39.6081 55.2481 39.6001 55.3201C39.5761 55.6321 39.6721 55.9601 39.5281 56.2641C39.4801 56.3681 39.4161 56.4161 39.2961 56.4161C38.7921 56.4161 38.2881 56.4161 37.7921 56.4161H37.7521L37.7441 56.4081Z" fill="#DCDCDD"/>
<path d="M17.7922 55.1761V55.1361C18.2162 55.0641 18.2242 55.0641 18.2162 54.6561C18.2162 54.4561 18.3042 54.3761 18.4882 54.3601C18.4962 54.4401 18.4162 54.4561 18.3922 54.5121C18.3762 54.5361 18.3602 54.5601 18.3522 54.5841C18.3122 54.7681 18.4002 54.9681 18.2802 55.1441C18.1442 55.2241 17.9682 55.1681 17.8402 55.2721C17.8242 55.2721 17.8002 55.2721 17.7842 55.2721C17.7682 55.2401 17.7682 55.2161 17.7842 55.1921L17.7922 55.1761Z" fill="#DADADA"/>
<path d="M36.5522 58.1521C36.4882 58.2001 36.5122 58.2721 36.5122 58.3281C36.5122 58.6241 36.5122 58.9121 36.5122 59.2081C36.5122 59.2721 36.5362 59.3361 36.4722 59.3841C36.4162 59.3361 36.4162 59.2721 36.4162 59.2081C36.4162 58.8721 36.4082 58.5281 36.4162 58.1921C36.4402 58.0721 36.5202 57.9921 36.6242 57.9281C36.8162 57.8801 37.0162 57.9121 37.2162 57.9041C37.2802 57.9041 37.3442 57.9281 37.4002 57.8881C37.4162 57.8721 37.4402 57.8641 37.4562 57.8561C37.5442 57.7921 37.5362 57.7041 37.5362 57.6161C37.5362 57.2721 37.5362 56.9281 37.5362 56.5841C37.5362 56.4721 37.5362 56.3441 37.7042 56.3361V56.4081C37.6482 56.5041 37.6722 56.6081 37.6642 56.7121C37.6642 57.0401 37.6642 57.3681 37.6642 57.6961C37.6642 57.9121 37.5122 58.0721 37.2962 58.0721C37.1202 58.0721 36.9442 58.0721 36.7762 58.0721C36.6882 58.0721 36.6082 58.0961 36.5442 58.1521H36.5522Z" fill="#B6AFA8"/>
<path d="M21.7041 56.3121V56.4161C21.5041 56.3441 21.3041 56.3841 21.1041 56.3841C21.0241 56.3841 21.0081 56.4561 21.0081 56.5201C21.0081 56.6241 21.0081 56.7281 21.0081 56.8321C21.0001 57.0721 20.9121 57.1521 20.6801 57.1521C20.0161 57.1521 19.3521 57.1521 18.6881 57.1521C18.3761 57.1521 18.2081 56.9441 18.2721 56.6321C18.2961 56.5281 18.3281 56.4401 18.1841 56.4161V56.4001C18.2721 56.2881 18.3441 56.3681 18.4161 56.4001C18.4721 56.4721 18.4481 56.5441 18.4321 56.6241C18.4001 56.8321 18.4641 57.0241 18.7601 57.0161C19.3521 57.0001 19.9441 57.0161 20.5361 57.0161C20.8401 57.0161 20.8641 56.9841 20.8721 56.6881C20.8721 56.3201 20.9521 56.2481 21.3201 56.2561C21.4481 56.2561 21.5921 56.2001 21.7041 56.3201V56.3121Z" fill="#C7C7C8"/>
<path d="M18.368 54.4721L18.4881 54.3601C19.1921 54.3601 19.8961 54.3601 20.5921 54.3601C20.9441 54.3601 20.9681 54.3841 20.9681 54.7281C20.9681 54.8561 20.9521 54.9841 21.0401 55.0961C21.2561 55.1761 21.4801 55.1121 21.6961 55.1281L21.7441 55.2001C21.7441 55.2001 21.7121 55.2321 21.6881 55.2481C21.4961 55.2801 21.3041 55.2721 21.1121 55.2641C20.9521 55.2641 20.8561 55.1601 20.8321 55.0001C20.8161 54.8881 20.8161 54.7681 20.8401 54.6561C20.8641 54.5521 20.8081 54.5121 20.7201 54.5041C20.7041 54.5041 20.6961 54.5041 20.6801 54.5041C19.9601 54.5041 19.2401 54.4881 18.512 54.5121C18.48 54.5201 18.4481 54.5281 18.4081 54.5121C18.3841 54.5121 18.3681 54.4961 18.3521 54.4801L18.368 54.4721Z" fill="#B9B9B9"/>
<path d="M18.3681 54.472H18.4161C18.5041 54.68 18.4801 54.888 18.4401 55.096C18.4081 55.232 18.2641 55.248 18.1441 55.264C17.9281 55.288 17.9201 55.288 17.9281 55.504C17.9281 55.712 17.9041 55.928 17.9521 56.136C17.9761 56.256 18.0801 56.232 18.1601 56.248C18.2481 56.272 18.3921 56.248 18.3761 56.408C18.3121 56.416 18.2561 56.336 18.1841 56.4H18.1441C17.8001 56.368 17.7361 56.296 17.7361 55.944C17.7361 55.776 17.7361 55.616 17.7361 55.448C17.7361 55.376 17.7361 55.304 17.7921 55.256C17.9201 55.12 18.0881 55.136 18.2481 55.136C18.3281 55.104 18.3041 55.032 18.3121 54.968C18.3201 54.816 18.2881 54.664 18.3281 54.512L18.3601 54.472H18.3681Z" fill="#B5B5B5"/>
<path d="M17.792 55.2561C17.792 55.4721 17.792 55.6801 17.792 55.8961C17.792 56.1628 17.9093 56.3334 18.144 56.4081C18.024 56.3841 17.856 56.5041 17.792 56.2961C17.744 56.2401 17.72 56.1681 17.68 56.1041C17.648 55.8641 17.648 55.6241 17.68 55.3841C17.688 55.3201 17.704 55.2561 17.792 55.2561Z" fill="#DADADA"/>
<path d="M17.784 55.2481C17.664 55.3441 17.688 55.4881 17.672 55.6161C17.656 55.7761 17.672 55.9361 17.672 56.0961C17.592 55.8401 17.632 55.5841 17.656 55.3281C17.656 55.2561 17.72 55.2081 17.784 55.1681V55.2481Z" fill="#E6E6E6"/>
<path d="M17.672 56.104C17.752 56.144 17.776 56.216 17.784 56.296C17.704 56.256 17.656 56.192 17.672 56.104Z" fill="#E6E6E6"/>
<path d="M22.0162 57.304C21.8322 57.168 21.7842 56.976 21.7842 56.76C21.7842 56.608 21.8242 56.456 21.7442 56.312C21.7282 56.296 21.7282 56.272 21.7442 56.256C21.8482 56.224 21.8562 56.304 21.8722 56.376C21.8882 56.464 21.8802 56.552 21.8722 56.64C21.8722 56.808 21.9202 56.952 22.0242 57.08C22.0562 57.184 22.1282 57.224 22.2402 57.208C22.3762 57.208 22.5202 57.208 22.6562 57.192C22.7362 57.168 22.7282 57.096 22.7282 57.032C22.7282 56.104 22.7282 55.184 22.7282 54.256C22.7282 54.2 22.7202 54.152 22.6802 54.112L22.6642 54.08C22.8562 53.968 22.8962 53.792 22.8962 53.592C22.8962 53.12 22.8962 52.656 22.8962 52.184C22.8962 52.072 22.8962 51.968 22.9762 51.872C23.0402 51.936 23.0322 52.008 23.0322 52.088C23.0322 52.632 23.0322 53.184 23.0322 53.728C23.0322 53.248 23.0322 52.768 23.0322 52.288C23.0322 51.864 23.2002 51.688 23.6322 51.688C26.6962 51.688 29.7522 51.688 32.8162 51.688C32.9922 51.688 33.1682 51.688 33.3362 51.672C33.4002 51.664 33.4642 51.664 33.5202 51.704C33.5682 51.76 33.5682 51.824 33.5682 51.888C33.5682 52.928 33.5682 53.96 33.5682 55C33.5682 55.016 33.5682 55.04 33.5682 55.056C33.5682 55.08 33.5522 55.104 33.5362 55.12C33.4482 55.192 33.3442 55.16 33.2482 55.168C33.1202 55.152 33.0402 55.216 32.9842 55.328C32.6722 55.528 32.6322 55.776 32.8562 56.072C32.9362 56.168 33.0402 56.136 33.1362 56.152C33.2242 56.176 33.3202 56.192 33.4082 56.184C33.4562 56.184 33.4962 56.2 33.5282 56.24C33.5602 56.296 33.5602 56.36 33.5602 56.416C33.5602 57.44 33.5602 58.464 33.5602 59.48C33.5602 59.576 33.5762 59.672 33.5122 59.76C33.4402 59.816 33.3522 59.808 33.2722 59.808C30.0242 59.808 26.7682 59.808 23.5202 59.808C23.3842 59.808 23.2482 59.8 23.1202 59.752C23.0082 59.736 22.9602 59.664 22.9682 59.56C22.9922 59.544 23.0322 59.544 23.0322 59.496C23.0002 59.504 22.9922 59.544 22.9682 59.56C22.9042 59.456 22.8882 59.336 22.8882 59.216C22.8882 58.728 22.8882 58.24 22.8882 57.752C22.8882 57.536 22.7922 57.384 22.5762 57.368C22.3762 57.352 22.1922 57.32 22.0002 57.28L22.0162 57.304Z" fill="#F4C86F"/>
<path d="M22.0161 57.104C21.8401 57.008 21.8401 56.832 21.8161 56.664C21.8001 56.528 21.8801 56.376 21.7601 56.256C21.7041 56.232 21.7041 56.184 21.7041 56.136C21.7521 55.872 21.7281 55.6 21.7201 55.336C21.7201 55.288 21.7041 55.248 21.7281 55.208C21.7281 55.208 21.7441 55.208 21.7521 55.208C21.8881 55.096 21.8001 54.944 21.8161 54.808C21.8321 54.64 21.8161 54.488 21.9361 54.32C22.0961 54.112 22.2721 54.064 22.4961 54.088C22.5521 54.088 22.6081 54.088 22.6721 54.088C22.6721 54.088 22.6801 54.12 22.6721 54.136C22.5681 54.2 22.4481 54.152 22.2881 54.2C22.4161 54.24 22.5041 54.224 22.5921 54.208C22.6481 54.2 22.7201 54.152 22.7441 54.256C22.7201 55.16 22.7441 56.072 22.7361 56.976C22.7361 57.072 22.7521 57.168 22.6801 57.248H22.2161C22.1521 57.2 22.1041 57.128 22.0241 57.096L22.0161 57.104Z" fill="#F2C168"/>
<path d="M33.5201 51.7281C30.2161 51.8161 26.9121 51.7441 23.6081 51.7681C23.2241 51.7681 23.0961 51.9041 23.0961 52.2961C23.0961 52.7841 23.0961 53.2721 23.0961 53.7681C23.0961 53.8161 23.0961 53.8721 23.0961 53.9201C23.0961 53.9601 23.0721 54.0001 23.0241 53.9921C22.9841 53.9921 22.9841 53.9441 22.9841 53.9121C22.9841 53.8641 22.9841 53.8241 22.9841 53.7761C22.9841 53.1441 22.9841 52.5121 22.9841 51.8801C22.9841 51.8401 22.9841 51.7921 23.0241 51.7681C23.1441 51.7441 23.2321 51.6801 23.2961 51.5761C23.4321 51.5041 23.5601 51.5761 23.6961 51.5761C26.8801 51.5761 30.0641 51.5761 33.2481 51.5761C33.3441 51.5761 33.4401 51.5521 33.5361 51.5441C33.5841 51.6081 33.5921 51.6721 33.5361 51.7361L33.5201 51.7281Z" fill="#F3C66D"/>
<path d="M33.5281 56.2561H33.4161C33.2321 56.2401 33.1121 56.1601 33.0881 55.9601C33.0881 55.7521 33.0561 55.5361 33.1281 55.3361C33.1761 55.2241 33.2561 55.1681 33.3841 55.1761C33.4321 55.1761 33.4881 55.1761 33.5281 55.1361C33.5681 55.0721 33.5441 55.0001 33.5441 54.9281C33.5441 53.8721 33.5441 52.8081 33.5441 51.7521C33.5441 51.6801 33.5281 51.6081 33.5601 51.5441C33.5761 51.5441 33.5841 51.5441 33.6001 51.5441H33.6481C33.7041 51.6161 33.6961 51.6961 33.6961 51.7681C33.6961 52.8241 33.6961 53.8801 33.6961 54.9361C33.6961 55.0241 33.6881 55.1121 33.6561 55.2001C33.6241 55.2961 33.5601 55.3761 33.4481 55.3761C33.3121 55.3761 33.2721 55.4641 33.2721 55.5761C33.2721 55.6321 33.2721 55.6961 33.2721 55.7521C33.2561 55.9281 33.2561 56.0961 33.4961 56.1121C33.5281 56.1121 33.5441 56.1521 33.5521 56.1841C33.5521 56.2081 33.5521 56.2321 33.5281 56.2481V56.2561Z" fill="#C6A361"/>
<path d="M33.56 51.5441C33.56 52.6721 33.56 53.7921 33.56 54.9201C33.56 54.9921 33.592 55.0721 33.52 55.1361C33.52 54.0001 33.52 52.8641 33.52 51.7361V51.5441H33.56Z" fill="#E9C16C"/>
<path d="M23.2962 51.5761C23.3122 51.7921 23.1602 51.7681 23.0242 51.7681C23.1282 51.7281 23.1522 51.5681 23.2962 51.5761Z" fill="#F4C86F"/>
<path d="M35.9681 51.576C36.1041 51.576 36.1361 51.728 36.2401 51.768C36.1121 51.816 36.0561 51.8721 36.1441 52.0081C36.2001 52.0961 36.1761 52.208 36.1761 52.312C36.1761 52.608 36.1761 52.9121 36.1761 53.2081C36.1761 52.8081 36.1761 52.416 36.1761 52.016C36.1761 51.928 36.1681 51.832 36.2321 51.76C36.3361 51.896 36.3441 52.056 36.3441 52.216C36.3441 52.504 36.3441 52.792 36.3441 53.08C36.3441 53.408 36.4401 53.504 36.7761 53.504C36.9201 53.504 37.0721 53.504 37.2161 53.504C37.4481 53.504 37.4961 53.5441 37.5041 53.7841C37.5041 54.1361 37.5041 54.4881 37.5041 54.8401C37.5041 54.9841 37.5201 55.1041 37.6241 55.2081C37.6401 55.2241 37.6481 55.248 37.6401 55.272C37.6321 55.296 37.6081 55.304 37.5921 55.312C37.4641 55.312 37.4081 55.2321 37.3921 55.1281C37.3761 55.0561 37.3921 54.9841 37.3761 54.9201C37.3761 54.5361 37.3761 54.152 37.3761 53.768C37.3761 53.688 37.3761 53.6081 37.2641 53.6081C37.0001 53.6081 36.7361 53.6081 36.4481 53.6081C36.5761 53.9361 36.5121 54.272 36.5201 54.6C36.5201 54.8081 36.4801 54.84 36.2641 54.816C36.1201 54.8 35.9841 54.816 35.8401 54.816C35.2161 54.816 34.5841 54.816 33.9601 54.816C33.8881 54.816 33.7921 54.7841 33.7761 54.8961C33.7761 54.9841 33.7761 55.072 33.7601 55.16C33.7521 55.208 33.7601 55.2881 33.6641 55.2401C33.6481 55.0241 33.6641 54.808 33.6641 54.592C33.6641 53.624 33.6641 52.656 33.6641 51.688C33.7441 51.608 33.8321 51.688 33.9121 51.688C34.4801 51.688 35.0561 51.688 35.6241 51.688C35.7121 51.688 35.8081 51.688 35.8641 51.6C35.8961 51.576 35.9281 51.576 35.9601 51.6L35.9681 51.576Z" fill="#786C5B"/>
<path d="M33.68 51.656V55.248C33.68 55.248 33.696 55.28 33.688 55.304C33.648 55.44 33.528 55.472 33.416 55.504C33.28 55.664 33.336 55.84 33.376 56.016C33.432 56.072 33.512 56.04 33.576 56.064C33.656 56.088 33.712 56.136 33.728 56.216C33.752 57.392 33.752 58.568 33.728 59.744C33.728 59.784 33.712 59.816 33.688 59.848C33.624 59.872 33.592 59.84 33.568 59.792C33.552 58.688 33.568 57.576 33.56 56.472C33.56 56.384 33.584 56.288 33.52 56.208C33.512 56.152 33.464 56.144 33.416 56.144C33.232 56.168 33.192 56.064 33.208 55.912C33.208 55.816 33.208 55.72 33.208 55.624C33.208 55.448 33.232 55.312 33.456 55.328C33.528 55.328 33.56 55.288 33.584 55.232C33.624 55.136 33.632 55.032 33.632 54.928C33.632 53.872 33.632 52.816 33.632 51.76C33.632 51.688 33.632 51.616 33.64 51.552C34.368 51.552 35.104 51.552 35.832 51.552C35.88 51.552 35.92 51.552 35.96 51.584H35.88C35.792 51.664 35.688 51.648 35.584 51.648C34.976 51.648 34.376 51.648 33.768 51.648C33.736 51.648 33.704 51.648 33.672 51.664L33.68 51.656Z" fill="#907D5C"/>
<path d="M39.4161 56.136L39.3841 56.176C39.3361 56.216 39.2801 56.232 39.2241 56.232C38.7601 56.232 38.2961 56.248 37.8321 56.224C37.7681 56.208 37.7121 56.192 37.6721 56.136C37.6721 56.088 37.7041 56.072 37.7361 56.056C38.1761 56.024 38.6081 56.056 39.0481 56.04C39.3201 56.032 39.3201 56.032 39.3281 55.76C39.3281 55.608 39.2961 55.448 39.3601 55.304L39.3841 55.28C39.4641 55.56 39.4001 55.848 39.4161 56.128V56.136Z" fill="#707071"/>
<path d="M37.6321 55.248V55.208C38.0161 55.28 38.4081 55.216 38.7921 55.24C38.9841 55.256 39.1841 55.192 39.3761 55.28C39.3281 55.336 39.2641 55.344 39.2001 55.344C38.7201 55.344 38.2401 55.36 37.7521 55.336C37.6961 55.328 37.6641 55.296 37.6401 55.248H37.6321Z" fill="#686868"/>
<path d="M37.7842 56.176C38.3122 56.176 38.8482 56.176 39.3762 56.176C39.3602 56.312 39.2562 56.288 39.1682 56.288C38.7442 56.288 38.3282 56.288 37.9042 56.288C37.8402 56.288 37.7602 56.264 37.7042 56.328C37.6002 56.376 37.5842 56.464 37.5842 56.568C37.5842 56.944 37.5842 57.312 37.5842 57.688C37.5842 57.8 37.5602 57.888 37.4322 57.92C37.4162 57.904 37.4082 57.888 37.4082 57.872C37.4082 57.848 37.4082 57.832 37.4242 57.816C37.4322 57.8 37.4402 57.776 37.4482 57.76C37.4642 57.368 37.4482 56.976 37.4482 56.584C37.4482 56.336 37.5282 56.248 37.7682 56.184L37.7842 56.176Z" fill="#958C81"/>
<path d="M23.1362 59.776H33.5202C33.5202 59.776 33.5522 59.848 33.5202 59.888C30.1922 59.888 26.8642 59.888 23.5282 59.888C23.3842 59.888 23.2482 59.872 23.1282 59.776H23.1362Z" fill="#F4C872"/>
<path d="M33.5281 56.208C33.6401 56.248 33.6001 56.344 33.6001 56.424C33.6001 57.48 33.6001 58.536 33.6001 59.592C33.6001 59.672 33.6001 59.744 33.6081 59.824C33.6241 59.872 33.6481 59.928 33.6081 59.976H33.5921L33.5601 59.896C33.5281 59.832 33.5441 59.76 33.5441 59.688C33.5441 58.664 33.5441 57.648 33.5441 56.624C33.5441 56.552 33.5601 56.48 33.5281 56.416V56.208Z" fill="#E4BA69"/>
<path d="M33.5281 56.4081C33.5841 56.4561 33.5681 56.5121 33.5681 56.5681C33.5681 57.6721 33.5681 58.7841 33.5681 59.8881C33.5521 59.8881 33.5441 59.8881 33.5281 59.8881V59.7761C33.5281 58.6561 33.5281 57.5361 33.5281 56.4081Z" fill="#E7C06C"/>
<path d="M33.6082 59.968V59.816L33.6802 59.848C33.9042 59.808 34.1282 59.832 34.3522 59.832C34.7362 59.832 35.1282 59.832 35.5122 59.832C35.6882 59.832 35.8562 59.816 36.0242 59.752C36.1282 59.728 36.2082 59.656 36.2562 59.56C36.3522 59.4 36.3842 59.232 36.3762 59.04C36.3682 58.808 36.3762 58.576 36.3762 58.344C36.3762 58.264 36.3522 58.168 36.4722 58.144V59.384C36.3682 59.632 36.2482 59.856 35.9602 59.952C35.8802 59.976 35.8002 60 35.7202 60C35.0962 60 34.4802 60 33.8562 60C33.7682 60 33.6882 59.984 33.6082 59.96V59.968Z" fill="#9D9387"/>
<path d="M21.7361 56.144L21.7601 56.256L21.7441 56.304H21.7041C21.5201 56.304 21.3281 56.296 21.1441 56.304C21.0161 56.304 20.9441 56.384 20.9281 56.512C20.9281 56.552 20.9281 56.592 20.9281 56.624C20.9281 57.064 20.9281 57.072 20.4721 57.072C19.9041 57.072 19.3361 57.072 18.7681 57.072C18.4481 57.072 18.3281 56.928 18.3761 56.616C18.3841 56.552 18.4321 56.48 18.3761 56.416C18.3121 56.288 18.2001 56.304 18.0881 56.304C18.0001 56.304 17.9201 56.304 17.9121 56.192C17.9281 56.176 17.9441 56.168 17.9681 56.168C18.1121 56.176 18.2481 56.184 18.3841 56.24C18.4401 56.272 18.4801 56.328 18.4961 56.392C18.5361 56.552 18.4561 56.728 18.5521 56.888C18.5921 56.912 18.6401 56.912 18.6801 56.912C19.3121 56.912 19.9441 56.912 20.5761 56.912C20.8161 56.912 20.8321 56.888 20.8081 56.64C20.7761 56.328 20.9041 56.184 21.2241 56.176C21.4001 56.176 21.5681 56.176 21.7441 56.16L21.7361 56.144Z" fill="#8E8E8E"/>
<path d="M18.328 54.5121C18.328 54.6721 18.328 54.8321 18.328 54.9921C18.328 55.0561 18.344 55.1281 18.248 55.1361C18.328 55.0161 18.28 54.8801 18.288 54.7521C18.296 54.6721 18.256 54.5921 18.328 54.5201V54.5121Z" fill="#B9B9B9"/>
<path d="M36.4722 58.1521C36.4082 58.2161 36.4322 58.2961 36.4322 58.3681C36.4322 58.6241 36.4242 58.8801 36.4322 59.1361C36.4402 59.3201 36.3762 59.4721 36.2722 59.6161C36.2562 59.6001 36.2402 59.5761 36.2322 59.5521C36.2642 59.1921 36.2482 58.8241 36.2562 58.4561C36.2562 57.9921 36.4322 57.8081 36.8882 57.8161C37.0722 57.8161 37.2642 57.7601 37.4322 57.8641V57.9041C37.2402 57.9441 37.0482 57.9041 36.8642 57.9201C36.7842 57.9201 36.6962 57.8961 36.6162 57.9441L36.4642 58.1361L36.4722 58.1521Z" fill="#91887C"/>
<path d="M36.624 57.96C36.808 57.872 37 57.936 37.192 57.92C37.272 57.92 37.36 57.92 37.44 57.92C37.416 57.96 37.384 57.992 37.336 57.976C37.104 57.928 36.864 57.968 36.624 57.952V57.96Z" fill="#958C81"/>
<path d="M21.7361 56.144C21.6001 56.264 21.4321 56.208 21.2721 56.216C20.8881 56.216 20.8001 56.328 20.8721 56.696C20.9121 56.88 20.8481 56.952 20.6241 56.952C19.9921 56.952 19.3601 56.952 18.7281 56.952C18.6481 56.952 18.5521 57.032 18.4881 56.92C18.4721 56.904 18.4721 56.888 18.4881 56.872C18.5041 56.872 18.5281 56.864 18.5441 56.864C18.6001 56.864 18.6481 56.864 18.7041 56.864C19.2881 56.864 19.8721 56.864 20.4561 56.864C20.5361 56.864 20.6081 56.872 20.6801 56.84C20.7761 56.8 20.7281 56.72 20.7201 56.656C20.6881 56.2 20.7841 56.096 21.2401 56.096C21.3521 56.096 21.4721 56.112 21.5841 56.072C21.6001 56.056 21.6081 56.04 21.6161 56.024C21.6561 55.8 21.6481 55.584 21.6161 55.36C21.6001 55.344 21.5921 55.336 21.5761 55.32C21.4001 55.288 21.2321 55.312 21.0561 55.304C20.7681 55.296 20.7041 55.216 20.6961 54.936C20.6961 54.816 20.7681 54.688 20.6801 54.568C20.6561 54.56 20.6401 54.552 20.6241 54.544C20.2321 54.512 19.8401 54.5441 19.4481 54.5281C19.1681 54.5281 18.8961 54.5281 18.6161 54.5281C18.5841 54.5281 18.5441 54.528 18.5121 54.512C18.4881 54.504 18.4721 54.4881 18.4641 54.4641C18.5041 54.4241 18.5601 54.432 18.6081 54.432C19.2881 54.432 19.9601 54.432 20.6401 54.432C20.8881 54.432 20.9041 54.4481 20.8801 54.6961C20.8801 54.7601 20.8801 54.824 20.8801 54.888C20.8801 55.152 20.9361 55.208 21.1921 55.208C21.3681 55.208 21.5441 55.208 21.7121 55.208C21.7841 55.52 21.7841 55.832 21.7121 56.144H21.7361Z" fill="#7B7A7B"/>
<path d="M17.9442 56.1761H17.9042C17.8162 55.8961 17.8802 55.6081 17.8722 55.3201C17.8722 55.2401 17.9282 55.2161 18.0082 55.2081C18.0722 55.2081 18.1362 55.2081 18.2002 55.2081C18.3442 55.1921 18.4322 55.1361 18.4162 54.9601C18.4002 54.8001 18.4162 54.6401 18.4162 54.4801H18.4962C18.5442 54.5441 18.5442 54.6161 18.5442 54.6881C18.5442 54.8161 18.5442 54.9441 18.5442 55.0721C18.5442 55.2321 18.4642 55.3041 18.3042 55.3121C18.2082 55.3121 18.1122 55.2801 18.0242 55.3521C17.9762 55.5841 18.0002 55.8161 18.0162 56.0401C18.0882 56.1281 18.1922 56.0801 18.2802 56.0881C18.4642 56.1201 18.5202 56.1841 18.5042 56.3601C18.4882 56.3841 18.4722 56.3841 18.4482 56.3681L18.3682 56.2561C18.2322 56.1841 18.0802 56.2081 17.9442 56.1761Z" fill="#7B7B7B"/>
<path d="M25.6961 55.6801C25.6961 55.8961 25.6961 56.1201 25.6961 56.3361C25.6961 56.7281 25.6801 56.7841 25.3041 56.8881C25.0481 56.9601 24.7841 56.9681 24.5601 56.7681C24.4881 56.7041 24.4561 56.6401 24.4641 56.5361C24.4961 56.0721 24.5361 55.6081 24.4401 55.1361C24.4081 55.0001 24.4481 54.8481 24.4401 54.7041C24.4321 54.6081 24.5601 54.5601 24.6641 54.5601C24.9281 54.5601 25.1921 54.5521 25.4561 54.5601C25.6321 54.5601 25.6961 54.6801 25.6961 54.8481C25.6961 55.1281 25.6961 55.4001 25.6961 55.6801Z" fill="#F3C56B"/>
<path d="M22.6721 54.128V54.088C22.7681 54.088 22.8081 54.088 22.8001 54.224C22.7841 54.792 22.7921 55.352 22.7921 55.92C22.7921 56.304 22.7921 56.688 22.7921 57.08C22.7921 57.168 22.7921 57.256 22.6721 57.264C22.6721 56.352 22.6721 55.44 22.6721 54.528C22.6721 54.416 22.6721 54.312 22.7121 54.208C22.6881 54.192 22.6721 54.168 22.6721 54.128Z" fill="#F3C56B"/>
<path d="M33.136 56.216C32.872 56.216 32.712 56.072 32.672 55.8C32.624 55.496 32.672 55.432 32.984 55.328C33.008 55.352 33.016 55.376 33.008 55.408C32.904 55.56 32.912 55.728 32.92 55.896C32.92 55.968 32.936 56.04 33.024 56.048C33.056 56.048 33.08 56.064 33.104 56.08C33.136 56.12 33.176 56.16 33.136 56.216Z" fill="#F3C56B"/>
<path d="M33.5281 55.136C33.5121 55.232 33.4401 55.216 33.3761 55.208C33.2801 55.208 33.2161 55.248 33.1761 55.328C33.1441 55.376 33.1121 55.408 33.0561 55.376C33.0081 55.224 33.1361 55.2 33.2161 55.136H33.5281Z" fill="#E9C16C"/>
<path d="M33.2161 55.136C33.1841 55.224 33.0641 55.256 33.0641 55.368C33.0641 55.392 33.0481 55.408 33.0241 55.424C33.0081 55.424 32.9921 55.424 32.9841 55.408V55.328C32.9841 55.168 33.0961 55.144 33.2161 55.136Z" fill="#EEC26C"/>
<path d="M22.0162 57.104C22.1282 57.096 22.1522 57.104 22.2082 57.256C22.0962 57.256 21.9922 57.264 22.0162 57.104Z" fill="#F2C162"/>
<path d="M22.9841 59.5841C22.9921 59.5281 22.9601 59.4401 23.0401 59.4161C23.0881 59.4001 23.1121 59.4641 23.1201 59.5041C23.1441 59.6401 23.0641 59.6161 22.9841 59.5841Z" fill="#F3C568"/>
<path d="M33.136 56.216L33.096 56.096C33.064 56.04 33.048 55.992 33.136 55.984C33.152 56.152 33.272 56.208 33.408 56.256C33.312 56.272 33.224 56.24 33.136 56.216Z" fill="#E4BA69"/>
<path d="M22.6722 54.1281C22.6722 54.1281 22.7122 54.1761 22.7122 54.2081C22.5922 54.3201 22.4482 54.28 22.3122 54.288C22.2562 54.288 22.2082 54.272 22.2162 54.2C22.2162 54.144 22.2642 54.1361 22.3122 54.1281C22.4322 54.1281 22.5522 54.1281 22.6722 54.1281Z" fill="#F2C061"/>
<path d="M33.1361 55.9841C33.0881 56.0081 33.0961 56.0561 33.0961 56.0961H33.0161C32.9201 55.8641 32.9201 55.6321 33.0161 55.4001L33.0561 55.3601L33.1681 55.3201C33.1041 55.5361 33.1441 55.7601 33.1281 55.9761L33.1361 55.9841Z" fill="#E9BA66"/>
<path d="M37.4801 57.84C37.4801 57.84 37.4561 57.84 37.4481 57.84L37.4241 57.816C37.3681 57.696 37.3921 57.56 37.3921 57.432C37.3921 57.12 37.3921 56.808 37.3761 56.496C37.3441 56.752 37.3521 57.008 37.3521 57.264C37.3521 57.712 37.3361 57.728 36.8881 57.736C36.7681 57.736 36.6401 57.728 36.5441 57.832C36.5201 57.848 36.5041 57.848 36.4801 57.84C36.4321 57.792 36.4321 57.736 36.4481 57.68C36.4561 57.648 36.4801 57.616 36.5041 57.592C36.5601 57.536 36.5441 57.456 36.5441 57.392C36.5441 57.176 36.5441 56.952 36.5441 56.736C36.5441 56.584 36.5361 56.432 36.4721 56.28C36.4001 56.112 36.4561 55.92 36.4401 55.784C36.4401 55.88 36.4401 56.016 36.4401 56.152C36.4241 56.416 36.2961 56.528 36.0321 56.536C35.3361 56.536 34.6401 56.536 33.9441 56.536C33.8721 56.536 33.8001 56.536 33.7361 56.504C33.6641 56.4 33.7441 56.28 33.6881 56.176C33.6561 56.096 33.5841 56.104 33.5121 56.096C33.4401 56.096 33.3601 56.128 33.2961 56.056C33.3921 56.008 33.4561 55.936 33.4401 55.816C33.4241 55.688 33.5361 55.592 33.5441 55.472C33.5841 55.408 33.6721 55.376 33.6801 55.28C33.6801 55.264 33.6801 55.256 33.6801 55.24C33.7601 55.12 33.7041 54.984 33.7201 54.856C33.7921 54.792 33.8881 54.8 33.9761 54.8C34.6561 54.8 35.3361 54.8 36.0081 54.8C36.1681 54.8 36.3121 54.808 36.3521 55C36.3521 55.04 36.3841 55.072 36.4321 55.072C36.4881 55.072 36.5041 55.024 36.5121 54.976C36.5281 54.928 36.5201 54.872 36.5281 54.824C36.5281 54.56 36.5281 54.296 36.5281 54.032C36.5281 53.648 36.5361 53.64 36.9121 53.632C37.0561 53.632 37.1921 53.616 37.3201 53.536C37.4241 53.536 37.4401 53.608 37.4321 53.688C37.3361 53.704 37.3361 53.784 37.3361 53.848C37.3361 54.152 37.3361 54.456 37.3361 54.76C37.3361 54.832 37.3361 54.904 37.4321 54.928C37.4481 55.072 37.3681 55.264 37.6241 55.28C37.7521 55.584 37.8481 55.88 37.6001 56.168C37.5601 56.216 37.5281 56.272 37.5121 56.336C37.4721 56.76 37.5121 57.184 37.4961 57.6C37.4961 57.672 37.5121 57.752 37.4801 57.824V57.84Z" fill="#726658"/>
<path d="M37.3202 53.552C37.2162 53.76 37.0322 53.704 36.8642 53.704C36.5842 53.704 36.5842 53.704 36.5842 53.984C36.5842 54.304 36.5842 54.624 36.5842 54.952C36.5842 55.072 36.5442 55.184 36.4402 55.192C36.3282 55.2 36.2722 55.096 36.2722 54.976C36.2722 54.84 36.1762 54.864 36.0962 54.864C35.3042 54.864 34.5122 54.864 33.7122 54.864C33.7042 54.768 33.7602 54.744 33.8402 54.744C34.6402 54.744 35.4402 54.72 36.2322 54.76C36.4882 54.776 36.4642 54.696 36.4562 54.536C36.4562 54.36 36.4562 54.192 36.4562 54.016C36.4562 53.872 36.4562 53.736 36.3442 53.624C36.3282 53.608 36.3202 53.56 36.3202 53.536C36.3282 53.496 36.3762 53.504 36.4002 53.512C36.6962 53.584 37.0002 53.528 37.3042 53.544L37.3202 53.552Z" fill="#766A5A"/>
<path d="M33.6802 51.656C33.6962 51.544 33.7842 51.576 33.8482 51.576C34.5282 51.576 35.2082 51.576 35.8882 51.576C35.8962 51.68 35.8482 51.728 35.7442 51.728C35.1042 51.728 34.4722 51.728 33.8322 51.728C33.7602 51.728 33.7282 51.688 33.6882 51.648L33.6802 51.656Z" fill="#736653"/>
<path d="M36.2401 51.7681C36.2401 52.2721 36.2401 52.7681 36.2401 53.2721C36.2401 53.3201 36.2721 53.4081 36.1841 53.4081C36.1121 53.4081 36.1202 53.3201 36.1202 53.2641C36.1202 52.9201 36.1202 52.5681 36.1202 52.2241C36.1202 52.0881 36.1201 51.9521 35.9841 51.8721C35.9681 51.8641 35.9521 51.8321 35.9521 51.8081C35.9521 51.7681 36.0002 51.7761 36.0322 51.7681C36.1041 51.7681 36.1762 51.7681 36.2481 51.7681H36.2401Z" fill="#766958"/>
<path d="M37.44 54.944C37.344 55.04 37.296 54.968 37.296 54.888C37.288 54.512 37.288 54.136 37.296 53.76C37.296 53.68 37.352 53.608 37.44 53.704V54.944Z" fill="#6C5F4E"/>
<path d="M37.4802 56.296C37.7842 56 37.7042 55.648 37.6322 55.288V55.248L37.7122 55.288C37.7122 55.288 37.7762 55.336 37.7922 55.376C37.8082 55.48 37.8162 55.584 37.8562 55.688C37.9042 55.816 37.8562 55.936 37.7842 56.048C37.7602 56.072 37.7362 56.08 37.7122 56.104L37.6722 56.144C37.6402 56.232 37.5922 56.304 37.4802 56.296Z" fill="#6B655F"/>
<path d="M33.6802 56.176C33.7602 56.272 33.7042 56.384 33.7202 56.488C33.7842 56.536 33.8562 56.528 33.9202 56.528C34.6322 56.528 35.3522 56.528 36.0642 56.528C36.1602 56.528 36.2482 56.528 36.3362 56.456C36.4082 56.4 36.5282 56.4 36.5362 56.504C36.5442 56.888 36.5922 57.272 36.5122 57.648L36.4722 57.688C36.4402 57.736 36.3922 57.792 36.4722 57.84H36.5122C36.6082 57.76 36.7202 57.776 36.8242 57.784C37.0322 57.8 37.2482 57.728 37.4402 57.84V57.88C37.2162 57.88 37.0002 57.88 36.7842 57.88C36.5042 57.88 36.3202 58.064 36.3202 58.352C36.3202 58.632 36.3202 58.904 36.3202 59.184C36.3202 59.32 36.3042 59.456 36.2802 59.584C36.2562 59.592 36.2322 59.584 36.2242 59.568C36.1602 59.432 36.1922 59.288 36.1922 59.152C36.1922 58.888 36.1922 58.624 36.1922 58.36C36.1922 58.64 36.1922 58.928 36.1922 59.208C36.1922 59.592 36.0642 59.712 35.6722 59.72C35.1042 59.72 34.5362 59.72 33.9762 59.72C33.9042 59.72 33.8162 59.704 33.7602 59.776C33.7362 59.792 33.7202 59.792 33.6962 59.776V56.176H33.6802Z" fill="#786C5B"/>
<path d="M33.6801 59.7761C33.6801 59.7761 33.7041 59.7761 33.7201 59.7761C33.7841 59.7201 33.8641 59.7201 33.9361 59.7201C34.5841 59.7201 35.2241 59.7201 35.8721 59.7201C35.9361 59.7201 36.0001 59.7201 36.0561 59.7521L36.0801 59.7761C35.9601 59.8481 35.8241 59.8881 35.6801 59.8881C35.0641 59.8881 34.4481 59.8881 33.8321 59.8881C33.7761 59.8881 33.7121 59.9041 33.6721 59.8481V59.7681L33.6801 59.7761Z" fill="#7B6F5F"/>
<path d="M33.5601 55.48C33.5601 55.48 33.6001 55.536 33.5921 55.544C33.4881 55.672 33.4801 55.832 33.4721 55.992C33.4721 56.104 33.3521 56.048 33.2881 56.064C33.2881 55.912 33.2881 55.76 33.2881 55.608C33.2881 55.528 33.3041 55.456 33.4081 55.448C33.4481 55.496 33.5201 55.448 33.5601 55.488V55.48Z" fill="#6F6457"/>
<path d="M33.5602 55.4801C33.5042 55.4801 33.4482 55.4961 33.4082 55.4401C33.5362 55.4481 33.6082 55.3761 33.6802 55.2881C33.7122 55.3921 33.6322 55.4401 33.5602 55.4801Z" fill="#786C5B"/>
<path d="M37.7522 55.3681L37.7122 55.2881H39.3762C39.3762 55.4881 39.3762 55.6801 39.3762 55.8801C39.3842 56.0481 39.3442 56.1361 39.1602 56.1041C39.1282 56.1041 39.0962 56.1041 39.0642 56.1041C38.7442 56.0641 38.4242 56.0961 38.1042 56.0881C38.0242 56.0881 37.9522 56.0881 37.8722 56.0881C37.8002 56.0001 37.8642 55.9601 37.9362 55.9281C38.2482 55.9361 38.5682 55.9281 38.8802 55.9361C39.1282 55.9361 39.1362 55.8241 39.1042 55.6001C39.0882 55.4961 38.9922 55.5121 38.9202 55.5121C38.6482 55.5121 38.3762 55.5121 38.1042 55.5121C38.0002 55.5121 37.8962 55.5121 37.8002 55.4561C37.7682 55.4321 37.7522 55.4081 37.7362 55.3761L37.7522 55.3681Z" fill="#636362"/>
<path d="M37.4802 56.296L37.6722 56.144C37.7122 56.144 37.7602 56.144 37.7842 56.184C37.5282 56.304 37.4962 56.512 37.5122 56.768C37.5282 57.064 37.5122 57.368 37.5122 57.672C37.5122 57.736 37.5362 57.8 37.4722 57.848V56.304L37.4802 56.296Z" fill="#7C766E"/>
<path d="M37.8641 56.064C38.2001 56.064 38.5281 56.064 38.8641 56.064C38.9281 56.064 39.0081 56.04 39.0641 56.104H37.7041L37.7441 56.064C37.7441 56.064 37.8241 56.032 37.8641 56.064Z" fill="#666666"/>
<path d="M36.2402 59.5841H36.2802V59.6241C36.2402 59.7041 36.2082 59.7921 36.0882 59.7841C36.0482 59.6161 36.0562 59.6001 36.2482 59.5921L36.2402 59.5841Z" fill="#7B6F5F"/>
<path d="M18.4481 56.368H18.4881C18.5681 56.456 18.5281 56.568 18.5441 56.672C18.5441 56.744 18.5441 56.816 18.4881 56.872V56.912C18.4081 56.736 18.4721 56.552 18.4481 56.368Z" fill="#828283"/>
<path d="M17.9441 56.1761C18.0881 56.1761 18.2401 56.1441 18.3681 56.2561C18.2241 56.2321 18.0801 56.2401 17.9441 56.1761Z" fill="#828283"/>
<path d="M20.696 54.52C20.696 54.52 20.72 54.52 20.736 54.52C20.768 54.552 20.776 54.592 20.76 54.64C20.704 54.752 20.76 54.88 20.72 54.992C20.712 55.016 20.696 55.032 20.672 55.04C20.144 54.976 19.624 55.024 19.096 55C18.888 55 18.696 55 18.528 55.144C18.48 55.008 18.52 54.872 18.504 54.744C18.544 54.608 18.624 54.528 18.768 54.504C19.344 54.504 19.92 54.504 20.504 54.504C20.568 54.504 20.632 54.488 20.696 54.52Z" fill="#616163"/>
<path d="M20.6961 55.0161V54.9761C20.7521 54.8641 20.6881 54.7361 20.7361 54.6241V54.5121C20.8081 54.5121 20.8241 54.5601 20.8081 54.6161C20.7601 54.7361 20.7841 54.8561 20.7761 54.9761C20.7601 55.1681 20.8161 55.2401 21.0081 55.2401C21.1681 55.2401 21.3281 55.2401 21.4881 55.2401C21.5521 55.2401 21.6161 55.2161 21.6721 55.2801C21.6401 55.3201 21.5921 55.3281 21.5441 55.3281C21.4001 55.3361 21.2481 55.3281 21.0961 55.3281C21.0641 55.3281 21.0241 55.3281 20.9921 55.3441C20.8641 55.4001 20.7361 55.4161 20.6001 55.4161C20.0001 55.4161 19.4081 55.4161 18.8081 55.4161C18.6401 55.4161 18.4801 55.3681 18.3201 55.3361C18.2721 55.3361 18.2241 55.3361 18.1761 55.3361C18.0961 55.3361 18.0081 55.3361 17.9441 55.2801C18.0001 55.2161 18.0721 55.2401 18.1441 55.2401C18.4881 55.2401 18.4881 55.2401 18.4881 54.8881C18.4881 54.8081 18.4881 54.7361 18.4881 54.6561C18.5201 54.6561 18.5361 54.6561 18.5281 54.6961V55.1201C18.5281 55.1201 18.5841 55.1441 18.6001 55.1201C18.7281 54.9521 18.9201 54.9761 19.0961 54.9761C19.6321 54.9761 20.1681 54.9601 20.6961 54.9921V55.0161Z" fill="#6D6C6E"/>
<path d="M21.5521 55.288H21.6721C21.7041 55.544 21.7041 55.8 21.6721 56.064V56.104C21.6721 56.104 21.6081 56.12 21.5681 56.104C20.6481 56.016 19.7281 56.04 18.8081 56.04C18.7201 56.04 18.6241 56.048 18.5441 56.008C18.4801 55.976 18.4321 55.936 18.4401 55.856C18.4481 55.792 18.5041 55.76 18.5601 55.744C18.6241 55.728 18.6881 55.728 18.7521 55.728C19.3921 55.728 20.0321 55.728 20.6721 55.728C20.8081 55.728 20.9361 55.744 21.0401 55.856C21.1281 55.952 21.2561 55.936 21.3681 55.896C21.4721 55.856 21.4881 55.752 21.4801 55.648C21.4721 55.544 21.4081 55.512 21.3121 55.496C21.1761 55.48 21.0081 55.496 21.0161 55.28H21.0961C21.2481 55.336 21.4081 55.4 21.5601 55.28L21.5521 55.288Z" fill="#636264"/>
<path d="M21.584 56.1041H21.664C21.528 56.1841 21.376 56.1361 21.232 56.1441C20.696 56.1441 20.76 56.3201 20.784 56.6961C20.784 56.7681 20.864 56.8481 20.736 56.8801L20.712 56.8561C20.672 56.7201 20.672 56.5841 20.64 56.4481C20.64 56.4321 20.632 56.4161 20.616 56.4001C20.496 56.3441 20.376 56.4001 20.256 56.4001C19.72 56.3841 19.184 56.4321 18.648 56.3681C18.632 56.3681 18.608 56.3761 18.6 56.3921C18.584 56.4161 18.584 56.4481 18.576 56.4721C18.576 56.5441 18.576 56.6161 18.536 56.6801C18.52 56.6961 18.504 56.7041 18.48 56.6801V56.3681C18.496 56.1921 18.4 56.1521 18.248 56.1361C18.144 56.1281 18.032 56.1761 17.936 56.0961C17.952 56.0801 17.968 56.0721 17.992 56.0641C18.048 56.0481 18.104 56.0481 18.16 56.0481C18.272 56.0481 18.392 56.0321 18.496 56.0801C18.56 56.1361 18.632 56.1601 18.728 56.1601C19.312 56.1601 19.904 56.1601 20.488 56.1601C20.6 56.1601 20.68 56.0961 20.776 56.0641C21.048 56.0881 21.312 56.0641 21.584 56.0961V56.1041Z" fill="#6B6B6C"/>
<path d="M20.6961 54.52H18.7201C18.6561 54.552 18.5921 54.584 18.5681 54.48C19.2241 54.48 19.8801 54.48 20.5361 54.48C20.5921 54.48 20.6561 54.464 20.6961 54.52Z" fill="#636364"/>
<path d="M20.7361 56.872C20.6881 56.928 20.6161 56.912 20.5521 56.912C19.9121 56.912 19.2801 56.912 18.6401 56.912C18.6401 56.864 18.6721 56.848 18.7121 56.832C19.0161 56.784 19.3121 56.816 19.6161 56.816C19.9041 56.816 20.1921 56.816 20.4801 56.816C20.5681 56.816 20.6641 56.816 20.7361 56.88V56.872Z" fill="#6B6B6C"/>
<path d="M18.6801 56.872L18.6401 56.912C18.6001 56.912 18.5521 56.92 18.5201 56.872C18.4961 56.808 18.4881 56.744 18.5201 56.68V56.448C18.6561 56.56 18.7361 56.76 18.6721 56.872H18.6801Z" fill="#555555"/>
<path d="M18.5602 54.4801C18.6002 54.5281 18.6642 54.5121 18.7122 54.5201C18.6642 54.6001 18.6002 54.6641 18.5202 54.7121L18.4802 54.6721V54.4881H18.5522L18.5602 54.4801Z" fill="#545354"/>
<path d="M21.6641 56.0641V55.2881C21.7281 55.5441 21.7281 55.8001 21.6641 56.0641Z" fill="#676665"/>
<path d="M18.528 56.6801V56.8721C18.528 56.8721 18.504 56.8721 18.488 56.8721V56.6801H18.528Z" fill="#666566"/>
<path d="M17.9841 56.104H17.9441V55.296H18.1761C18.0561 55.504 18.0481 55.72 18.0961 55.944C18.1201 56.04 18.0641 56.08 17.9841 56.112V56.104Z" fill="#5F5F5E"/>
<path d="M25.616 55.672C25.616 55.936 25.608 56.2 25.616 56.464C25.624 56.632 25.544 56.704 25.4 56.72C25.192 56.736 24.976 56.72 24.76 56.72C24.656 56.72 24.632 56.656 24.648 56.56C24.712 56.16 24.664 55.752 24.68 55.352C24.68 55.32 24.68 55.272 24.656 55.264C24.456 55.144 24.576 54.936 24.528 54.776C24.504 54.688 24.568 54.64 24.664 54.64C24.912 54.64 25.168 54.64 25.416 54.64C25.552 54.64 25.608 54.72 25.608 54.848C25.608 55.128 25.608 55.4 25.608 55.68L25.616 55.672Z" fill="#F2C167"/>
<path d="M33.0241 55.4081V56.1041C32.9681 56.1041 32.9201 56.1041 32.8881 56.0481C32.8161 55.9361 32.8881 55.4961 32.9841 55.4081H33.0241Z" fill="#F1C168"/>
<path d="M36.5122 57.648C36.5122 57.304 36.5122 56.952 36.5122 56.608C36.5122 56.56 36.5282 56.496 36.4802 56.464C36.4162 56.424 36.3762 56.472 36.3362 56.52C36.2882 56.576 36.2162 56.56 36.1522 56.56C35.4002 56.56 34.6482 56.56 33.8882 56.56C33.8242 56.56 33.7362 56.592 33.7202 56.48C34.4722 56.48 35.2322 56.48 35.9842 56.48C36.2802 56.48 36.3842 56.384 36.3922 56.08C36.3922 55.888 36.3922 55.696 36.4242 55.504C36.4962 55.656 36.4642 55.816 36.4722 55.968C36.4722 56.088 36.4722 56.2 36.5362 56.304C36.6002 56.424 36.5922 56.552 36.5922 56.68C36.5922 56.944 36.5922 57.208 36.5922 57.472C36.5922 57.536 36.6242 57.624 36.5122 57.64V57.648Z" fill="#756959"/>
<path d="M37.4402 57.84H36.5122C36.5282 57.72 36.6082 57.688 36.7202 57.688C36.8402 57.688 36.9682 57.688 37.0882 57.688C37.2322 57.688 37.2962 57.632 37.2962 57.48C37.2882 57.2 37.2962 56.912 37.2962 56.632V56.52C37.2962 56.448 37.3122 56.368 37.3842 56.376C37.4482 56.376 37.4482 56.456 37.4482 56.52C37.4482 56.672 37.4482 56.832 37.4482 56.984C37.4482 57.272 37.4482 57.56 37.4482 57.848L37.4402 57.84Z" fill="#6D604F"/>
<path d="M36.4721 57.8401C36.4721 57.8401 36.3921 57.8801 36.3761 57.8241C36.3521 57.7441 36.4241 57.7201 36.4721 57.6801V57.8321V57.8401Z" fill="#756959"/>
<path d="M37.8641 56.064C37.8641 56.064 37.7841 56.064 37.7441 56.064C37.8881 55.832 37.7281 55.6 37.7441 55.368L37.7841 55.408C38.0081 55.632 38.0321 55.736 37.9361 55.952C37.8881 55.976 37.8561 56.016 37.8561 56.064H37.8641Z" fill="#686563"/>
<path d="M36.2402 59.584C36.1682 59.632 36.0482 59.64 36.0802 59.776C35.2962 59.776 34.5042 59.776 33.7202 59.776C33.7122 59.64 33.8082 59.664 33.8882 59.664C34.4562 59.664 35.0242 59.664 35.5842 59.664C35.6242 59.664 35.6642 59.664 35.6962 59.664C36.0162 59.656 36.1042 59.568 36.1122 59.248C36.1122 58.944 36.1122 58.648 36.1122 58.344C36.1122 58.296 36.1122 58.256 36.1122 58.208C36.1122 58.168 36.1362 58.128 36.1842 58.136C36.2242 58.136 36.2242 58.184 36.2242 58.216C36.2242 58.456 36.2242 58.688 36.2242 58.928C36.2242 59.144 36.2242 59.368 36.2242 59.584H36.2402Z" fill="#766958"/>
<path d="M37.9442 55.944C38.0002 55.736 37.8722 55.576 37.7922 55.4C38.1602 55.48 38.5362 55.416 38.9042 55.44C38.9922 55.44 39.1282 55.384 39.1682 55.488C39.2162 55.624 39.2002 55.776 39.1682 55.92C39.1682 55.944 39.1202 55.976 39.0962 55.976C38.7122 55.968 38.3282 56.032 37.9442 55.944Z" fill="#666666"/>
<path d="M20.6961 55.0161C20.6401 55.0801 20.5601 55.0561 20.4961 55.0561C19.9681 55.0561 19.4401 55.0561 18.9121 55.0561C18.8081 55.0561 18.7041 55.0401 18.6721 55.1841C18.6721 55.2241 18.6241 55.2481 18.5841 55.2401C18.5201 55.2321 18.5361 55.1761 18.5281 55.1281C18.6241 54.9761 18.7521 54.9281 18.9281 54.9281C19.3761 54.9441 19.8321 54.9281 20.2801 54.9281C20.4241 54.9281 20.5601 54.9521 20.6961 55.0081V55.0161Z" fill="#666668"/>
<path d="M20.7362 54.6321C20.7202 54.7441 20.7762 54.8721 20.6962 54.9841C20.7122 54.8721 20.6562 54.7441 20.7362 54.6321Z" fill="#636364"/>
<path d="M21.5841 56.1041H20.7681C20.6641 56.1521 20.5601 56.1601 20.4481 56.1601C19.8801 56.1601 19.3201 56.1601 18.7521 56.1601C18.6561 56.1601 18.5601 56.1601 18.4721 56.1041H18.1201C18.0961 56.0081 18.0641 55.9201 18.0481 55.8241C18.0081 55.6001 18.0481 55.4081 18.2721 55.2881C18.9761 55.4401 19.6881 55.3361 20.3921 55.3601C20.5921 55.3601 20.8001 55.3921 20.9841 55.2881C21.0401 55.4401 21.1681 55.4561 21.3041 55.4401C21.5041 55.4161 21.5361 55.5441 21.5281 55.6881C21.5281 55.8241 21.5041 55.9841 21.3121 55.9841C21.1601 55.9841 20.9841 56.0401 20.9121 55.8241C20.8881 55.7681 20.7921 55.7921 20.7281 55.7921C20.0481 55.7921 19.3601 55.7921 18.6801 55.7921C18.6001 55.7921 18.4641 55.7441 18.4561 55.8641C18.4561 55.9841 18.5841 55.9761 18.6801 55.9761C19.3521 55.9761 20.0241 55.9521 20.6881 55.9921C20.9761 56.0081 21.2801 56.0321 21.5681 56.0961L21.5841 56.1041Z" fill="#666666"/>
<path d="M18.2961 55.288C18.2961 55.328 18.2801 55.36 18.2481 55.392C18.0881 55.552 18.0481 55.752 18.1521 55.944C18.1921 56.016 18.1921 56.048 18.1361 56.096H17.9841C18.0481 56.04 18.0721 55.984 18.0401 55.896C17.9921 55.76 18.0321 55.624 18.0161 55.48C18.0081 55.368 18.1441 55.36 18.1681 55.28H18.2881L18.2961 55.288Z" fill="#636362"/>
<path d="M21.5521 55.2881C21.4641 55.4561 21.3041 55.4561 21.0881 55.2881H21.5521Z" fill="#626262"/>
<path d="M18.6801 56.8721C18.6801 56.8721 18.7121 56.8001 18.6801 56.7681C18.5921 56.6801 18.5681 56.5601 18.5281 56.4561V56.3761C18.6321 56.3041 18.6961 56.3841 18.7601 56.4481C18.8001 56.5281 18.8801 56.5121 18.9521 56.5121C19.4081 56.5121 19.8641 56.5121 20.3281 56.5121C20.4081 56.5121 20.4801 56.5121 20.5441 56.4481C20.5921 56.4081 20.6401 56.3841 20.7041 56.4081C20.7041 56.5601 20.7681 56.7121 20.7441 56.8721H18.6881H18.6801Z" fill="#626263"/>
<path d="M18.488 56.104C19.248 56.104 20.016 56.104 20.776 56.104C20.712 56.192 20.624 56.224 20.512 56.224C19.912 56.224 19.304 56.224 18.704 56.224C18.608 56.224 18.528 56.216 18.496 56.104H18.488Z" fill="#686869"/>
<path d="M18.7201 56.448C18.6561 56.416 18.6081 56.352 18.5281 56.368C18.5441 56.272 18.6161 56.288 18.6801 56.296C19.2881 56.36 19.9041 56.336 20.5121 56.312C20.5681 56.312 20.6641 56.264 20.7041 56.368C20.5121 56.496 20.3041 56.512 20.0801 56.504C19.7041 56.496 19.3361 56.504 18.9601 56.504C18.8801 56.504 18.7921 56.504 18.7201 56.448Z" fill="#686869"/>
<path d="M18.7202 56.448C19.3762 56.416 20.0402 56.528 20.6962 56.368V56.408C20.5122 56.568 20.2962 56.568 20.0642 56.568C19.6722 56.56 19.2802 56.568 18.8882 56.568C18.8082 56.568 18.7122 56.584 18.7202 56.456V56.448Z" fill="#656566"/>
<path d="M24.968 35.824H24.48V43.576H24.968V35.824Z" fill="#323334"/>
<path d="M21.736 35.824H21.248V43.576H21.736V35.824Z" fill="#323334"/>
<path d="M20.8479 30.176H25.3679C25.9039 30.176 26.3359 30.608 26.3359 31.144V38.896C26.3359 39.432 25.9039 39.864 25.3679 39.864H20.8479C20.3119 39.864 19.8799 39.432 19.8799 38.896V31.144C19.8799 30.608 20.3119 30.176 20.8479 30.176Z" fill="#323334"/>
<path d="M26.3359 37.4401H19.8799V40.0241H26.3359V37.4401Z" fill="#1E1E1E"/>
<path d="M26.9839 38.728H19.2319V40.016H26.9839V38.728Z" fill="#1E1E1E"/>
<path fill-rule="evenodd" clip-rule="evenodd" d="M34.472 15.9921C31.632 16.0481 29.68 17.5761 29.424 20.2801C29.336 21.1761 29.272 22.1041 29.248 23.0001V24.4801C29.296 25.8241 29.472 27.0561 29.872 28.0001C30.632 29.8001 31.952 30.8801 34.32 30.9281H34.696C37.296 30.8721 38.984 30.1281 39.84 27.1441C40.696 24.1601 40.08 19.8721 39.28 18.3601C38.48 16.8481 37.24 16.0401 34.816 15.9921H34.48H34.472Z" fill="#04549F"/>
<path fill-rule="evenodd" clip-rule="evenodd" d="M38.1042 26.0641L35.4882 23.4481L38.0882 20.8481L34.2402 17.0641V22.2081L32.0642 20.0321L31.2802 20.8161L33.9442 23.4801L31.2642 26.1601L32.0482 26.9441L34.2402 24.7521V29.9281L38.1042 26.0721V26.0641ZM35.2482 19.5121L36.5762 20.8721L35.2482 22.2001V19.5121ZM35.2482 24.6561L36.5762 26.0161L35.2482 27.3441V24.6561Z" fill="white"/>
<path d="M47.2639 57.392H46.0879V61.16H47.2639V57.392Z" fill="#A6A29F"/>
<path d="M51.4961 55.944C51.4961 57.76 50.0241 57.352 48.2001 57.352C46.3761 57.352 44.9041 57.76 44.9041 55.944V51.24C44.9041 49.424 46.3761 47.944 48.2001 47.944C50.0241 47.944 51.4961 49.416 51.4961 51.24V55.944Z" fill="#7EBFB7"/>
<path d="M52.432 55.512H43.968V57.392H52.432V55.512Z" fill="#7EBFB7"/>
<path d="M50.32 57.392H49.144V61.16H50.32V57.392Z" fill="#A6A29F"/>
<g style="mix-blend-mode:multiply" opacity="0.4">
<path d="M47.2639 52.688H46.0879V55.512H47.2639V52.688Z" fill="#A6A29F"/>
</g>
<g style="mix-blend-mode:multiply" opacity="0.4">
<path d="M50.32 52.688H49.144V55.512H50.32V52.688Z" fill="#A6A29F"/>
</g>
<path d="M46.7919 57.392H46.0879V65.008H46.7919V57.392Z" fill="#A6A29F"/>
<path d="M50.32 57.392H49.616V65.008H50.32V57.392Z" fill="#A6A29F"/>
<path d="M58.7761 57.4241H57.6001V61.1921H58.7761V57.4241Z" fill="#A6A29F"/>
<path d="M63.008 55.968C63.008 57.784 61.536 57.376 59.712 57.376C57.888 57.376 56.416 57.784 56.416 55.968V51.264C56.416 49.448 57.888 47.968 59.712 47.968C61.536 47.968 63.008 49.44 63.008 51.264V55.968Z" fill="#A797C4"/>
<path d="M63.952 55.536H55.488V57.416H63.952V55.536Z" fill="#A797C4"/>
<path d="M61.832 57.4241H60.656V61.1921H61.832V57.4241Z" fill="#A6A29F"/>
<g style="mix-blend-mode:multiply" opacity="0.4">
<path d="M58.7761 52.72H57.6001V55.544H58.7761V52.72Z" fill="#A6A29F"/>
</g>
<g style="mix-blend-mode:multiply" opacity="0.4">
<path d="M61.832 52.72H60.656V55.544H61.832V52.72Z" fill="#A6A29F"/>
</g>
<path d="M58.3041 57.4241H57.6001V65.0401H58.3041V57.4241Z" fill="#A6A29F"/>
<path d="M61.8319 57.4241H61.1279V65.0401H61.8319V57.4241Z" fill="#A6A29F"/>
<path d="M69.616 12.784L67.776 13.256L67.464 11.688C67.464 13.232 66.208 14.48 64.64 14.496C63.064 14.52 61.76 13.28 61.736 11.72C61.712 10.168 62.976 8.89599 64.56 8.87999C65.776 8.86399 66.824 9.59199 67.256 10.64L66.264 5.63999C65.968 5.55999 65.656 5.50399 65.352 5.46399L64.816 6.60799L63.552 6.71199L62.84 5.66399C62.368 5.79199 61.912 5.98399 61.48 6.22399L61.736 7.45599L60.776 8.27199L59.576 7.83199C59.28 8.20799 59.024 8.60799 58.824 9.03199L59.768 9.88799L59.464 11.096L58.232 11.432C58.216 11.912 58.248 12.4 58.344 12.88L59.616 13.032L60.096 14.184L59.296 15.168C59.432 15.368 59.576 15.56 59.736 15.744C59.896 15.936 60.072 16.112 60.256 16.28L61.376 15.664L62.456 16.32L62.4 17.576C62.864 17.744 63.344 17.856 63.832 17.92L64.368 16.776L65.632 16.68L66.336 17.728C66.808 17.6 67.264 17.416 67.704 17.176L67.448 15.944L68.416 15.136L69.616 15.576C69.928 15.192 70.184 14.776 70.384 14.336L69.44 13.48L69.608 12.792L69.616 12.784Z" fill="#A798C5"/>
<path d="M69.392 11.608C69.056 11.608 68.784 11.512 68.56 11.32C68.336 11.128 68.232 10.76 68.232 10.216V1.552H64.304V3.288H66.104V10.064C66.104 11.16 66.328 12 66.776 12.568C67.224 13.144 67.944 13.424 68.92 13.424C69.28 13.424 69.6 13.4 69.88 13.352C70.16 13.304 70.4 13.256 70.6 13.192C70.776 13.136 70.912 13.088 71.032 13.032V11.208C70.944 11.24 70.752 11.312 70.464 11.432C70.176 11.544 69.816 11.6 69.392 11.6V11.608Z" fill="white"/>
<path d="M79.528 13.432H72.792V15.16H79.528V13.432Z" fill="#A79AC6"/>
<path d="M80 35.392H0V44.352H80V35.392Z" fill="url(#paint0_linear_8703_72285)"/>
</g>
<defs>
<linearGradient id="paint0_linear_8703_72285" x1="40" y1="42.52" x2="40" y2="34.664" gradientUnits="userSpaceOnUse">
<stop stop-color="white" stop-opacity="0"/>
<stop offset="0.08" stop-color="#EDEAF3" stop-opacity="0.2"/>
<stop offset="0.18" stop-color="#DBD4E7" stop-opacity="0.41"/>
<stop offset="0.29" stop-color="#CAC2DC" stop-opacity="0.59"/>
<stop offset="0.41" stop-color="#BDB2D4" stop-opacity="0.74"/>
<stop offset="0.53" stop-color="#B3A6CD" stop-opacity="0.86"/>
<stop offset="0.66" stop-color="#AC9EC8" stop-opacity="0.94"/>
<stop offset="0.8" stop-color="#A899C5" stop-opacity="0.98"/>
<stop offset="1" stop-color="#BD99FF"/>
</linearGradient>
<clipPath id="clip0_8703_72285">
<rect width="80" height="80" fill="white"/>
</clipPath>
</defs>
</svg>
