<svg width="150" height="151" viewBox="0 0 150 151" fill="none" xmlns="http://www.w3.org/2000/svg">
<g clip-path="url(#clip0_9024_72181)">
<path d="M134.61 46.2517V43.0567H121.935V35.1367C121.935 31.2666 118.8 28.1166 114.915 28.1166H106.995V15.4417H103.8V28.1166H96.87V15.4417H93.675V28.1166H86.745V15.4417H83.55V28.1166H76.62V15.4417H73.425V28.1166H66.495V15.4417H63.3V28.1166H56.37V15.4417H53.175V28.1166H46.245V15.4417H43.05V28.1166H35.13C31.26 28.1166 28.11 31.2516 28.11 35.1367V43.0567H15.39V46.2517H28.065V53.1817H15.39V56.3767H28.065V63.3067H15.39V66.5017H28.065V73.4316H15.39V76.6267H28.065V83.5566H15.39V86.7517H28.065V93.6816H15.39V96.8767H28.065V103.807H15.39V107.002H28.065V114.922C28.065 118.792 31.2 121.942 35.085 121.942H43.005V134.617H46.2V121.942H53.13V134.617H56.325V121.942H63.255V134.617H66.45V121.942H73.38V134.617H76.575V121.942H83.505V134.617H86.7V121.942H93.63V134.617H96.825V121.942H103.755V134.617H106.95V121.942H114.87C118.74 121.942 121.89 118.807 121.89 114.922V107.002H134.565V103.807H121.89V96.8767H134.565V93.6816H121.89V86.7517H134.565V83.5566H121.89V76.6267H134.565V73.4316H121.89V66.5017H134.565V63.3067H121.89V56.3767H134.565V53.1817H121.89V46.2517H134.565H134.61Z" fill="#1E1E1E"/>
<path d="M31.905 114.817C31.905 107.932 31.905 101.032 31.905 94.1467C31.905 93.8917 31.95 93.8467 32.205 93.8467C46.38 93.8467 60.54 93.8467 74.715 93.8467C74.97 93.8467 75.015 93.8917 75.015 94.1467C75.015 100.942 75.015 107.737 75.015 114.517C75.015 114.772 74.97 114.817 74.715 114.817C60.45 114.817 46.185 114.817 31.92 114.817H31.905Z" fill="#1E1E1E"/>
<path d="M39.465 103.282C39.75 103.282 40.02 103.282 40.305 103.282C40.575 103.297 40.65 103.192 40.635 102.952C40.635 102.742 40.65 102.532 40.635 102.337C40.545 101.767 40.875 101.422 41.475 101.167C41.745 101.047 41.985 100.942 42.285 100.957C42.51 100.957 42.45 100.762 42.45 100.627C42.45 99.6967 42.45 98.7667 42.45 97.8367C42.45 97.1167 42.87 96.6967 43.515 96.4267C44.07 96.1867 44.595 96.2467 45.15 96.2467C50.985 96.2467 56.805 96.2467 62.64 96.2467C62.79 96.2467 62.955 96.1867 63.09 96.3217C63.165 96.4567 63.09 96.5317 62.97 96.6067C62.775 96.6667 62.58 96.6517 62.4 96.6517C56.295 96.6517 50.205 96.6517 44.1 96.6517C43.32 96.6517 42.795 97.1317 42.78 97.9267C42.78 98.7217 42.78 99.5167 42.78 100.312C42.78 100.447 42.78 100.582 42.78 100.717C42.72 101.242 42.585 101.362 42.075 101.377C41.265 101.377 40.905 101.767 40.89 102.592C40.89 102.862 40.995 103.177 40.755 103.417C40.35 103.507 39.945 103.507 39.54 103.417C39.495 103.387 39.48 103.342 39.495 103.297L39.465 103.282Z" fill="#FAF2E1"/>
<path d="M63 96.5318L63.075 96.3218C64.29 96.3218 65.49 96.3368 66.705 96.3218C67.095 96.3218 67.455 96.4418 67.83 96.5018C68.085 96.5468 68.595 97.2818 68.595 97.5668C68.595 98.3018 68.595 99.0368 68.595 99.7718C68.595 100.027 68.67 100.117 68.925 100.102C69.33 100.087 69.75 100.102 70.155 100.102C70.65 100.102 70.77 100.237 70.77 100.732C70.77 101.377 70.77 102.007 70.77 102.652C70.77 102.802 70.77 102.937 70.845 103.072C70.95 103.222 71.085 103.192 71.235 103.192C71.895 103.192 72.555 103.192 73.215 103.192C73.425 103.192 73.62 103.207 73.815 103.282C73.935 103.327 74.055 103.372 73.965 103.537C72.975 103.567 71.985 103.537 70.995 103.537C70.695 103.537 70.56 103.357 70.53 102.997C70.5 102.667 70.53 102.322 70.53 101.977C70.53 101.617 70.53 101.257 70.53 100.897C70.53 100.477 70.41 100.372 69.99 100.357C69.555 100.357 69.12 100.387 68.685 100.327C68.4 100.237 68.355 99.9968 68.355 99.7418C68.355 99.1568 68.355 98.5868 68.355 98.0018C68.355 97.1918 67.8 96.6518 66.99 96.6368C65.85 96.6368 64.71 96.6368 63.585 96.6368C63.435 96.6368 63.27 96.6368 63.12 96.6068C63.075 96.5918 63.045 96.5618 63.015 96.5318H63Z" fill="#E6E4E3"/>
<path d="M43.53 112.717C42.93 112.312 42.45 111.862 42.495 111.022C42.555 110.167 42.495 109.312 42.51 108.457C42.51 108.082 42.39 107.977 42.03 107.992C41.385 108.022 40.875 107.707 40.695 107.227C40.68 107.167 40.68 107.107 40.665 107.047C40.605 106.672 40.665 106.282 40.635 105.892C40.74 105.727 40.785 105.862 40.815 105.937C40.875 106.117 40.86 106.297 40.845 106.477C40.785 107.047 41.025 107.422 41.52 107.677C41.55 107.677 41.595 107.707 41.625 107.722C41.895 107.797 42.18 107.722 42.45 107.782C42.555 107.827 42.615 107.902 42.66 108.022C42.705 109.042 42.66 110.062 42.675 111.097C42.675 111.412 42.72 111.697 42.96 111.922C43.02 111.997 43.065 112.072 43.11 112.147C43.425 112.447 43.785 112.552 44.235 112.552C50.28 112.552 56.31 112.552 62.355 112.552C62.565 112.552 62.76 112.522 62.97 112.582C63.015 112.597 63.045 112.627 63.075 112.672C63 112.807 62.865 112.747 62.745 112.747C56.43 112.747 50.115 112.747 43.8 112.747C43.71 112.747 43.605 112.762 43.515 112.717H43.53Z" fill="#F8E7C4"/>
<path d="M43.53 112.717C49.89 112.717 56.265 112.717 62.625 112.717C62.775 112.717 62.94 112.762 63.075 112.657C63.18 112.597 63.285 112.612 63.39 112.612C64.38 112.612 65.37 112.567 66.345 112.612C67.05 112.657 67.635 112.462 68.175 112.012C68.22 112.012 68.265 112.012 68.295 112.042C68.115 112.492 67.71 112.762 67.215 112.762C59.445 112.762 51.675 112.762 43.89 112.762C43.77 112.762 43.62 112.807 43.515 112.687L43.53 112.717Z" fill="#E9E7E4"/>
<path d="M73.98 103.507C73.815 103.267 73.545 103.297 73.32 103.297C72.555 103.297 71.805 103.222 71.04 103.342C70.8 103.372 70.89 103.192 70.86 103.072C71.79 103.072 72.72 103.072 73.65 103.072C74.1 103.072 74.49 103.477 74.49 103.912C74.49 104.332 74.49 104.752 74.49 105.172C74.49 105.667 74.25 105.892 73.755 105.892C72.795 105.892 71.82 105.892 70.86 105.892C70.83 105.847 70.86 105.817 70.89 105.787C71.04 105.697 71.22 105.727 71.385 105.727C72.09 105.727 72.795 105.727 73.485 105.727C73.905 105.727 74.1 105.592 74.145 105.187C74.19 104.737 74.175 104.272 74.145 103.807C74.145 103.747 74.1 103.702 74.04 103.672C73.995 103.627 73.95 103.582 73.965 103.507H73.98Z" fill="#F6F5F5"/>
<path d="M33.36 103.432C33.45 103.222 33.555 103.042 33.84 103.072C34.02 103.087 34.095 102.967 34.095 102.802C34.095 102.682 34.095 102.562 34.095 102.442C34.08 102.142 34.155 102.022 34.485 101.872C34.995 101.662 35.475 101.722 35.97 101.707C36.945 101.677 37.9051 101.707 38.8801 101.707C39.2551 101.707 39.4351 101.872 39.4801 102.217C39.0751 102.007 38.6251 102.022 38.1751 102.022C37.1851 102.022 36.195 102.022 35.205 102.022C35.055 102.022 34.89 102.022 34.74 102.052C34.29 102.202 34.275 102.202 34.275 102.682C34.275 102.727 34.275 102.682 34.275 102.712C34.275 103.417 34.155 103.522 33.42 103.477L33.375 103.432H33.36Z" fill="#F3F2F2"/>
<path d="M70.86 105.832V105.907C70.74 105.997 70.785 106.132 70.785 106.252C70.785 106.897 70.785 107.557 70.785 108.202C70.785 108.922 70.38 109.297 69.66 109.162C69.345 109.102 69.06 109.207 68.775 109.192C68.565 109.177 68.61 109.357 68.61 109.477C68.61 110.197 68.61 110.917 68.61 111.652C68.565 111.787 68.55 111.952 68.385 112.012L68.31 112.087H68.235C68.235 112.087 68.205 112.042 68.205 112.027C68.595 111.247 68.37 110.407 68.43 109.582C68.43 109.432 68.43 109.267 68.475 109.117C68.595 108.907 68.79 108.877 69 108.862C69.27 108.862 69.555 108.862 69.825 108.862C70.32 108.862 70.53 108.652 70.53 108.172C70.53 107.557 70.53 106.942 70.53 106.342C70.53 106.192 70.515 106.027 70.62 105.892C70.65 105.862 70.68 105.832 70.725 105.832C70.77 105.832 70.815 105.832 70.845 105.877L70.86 105.832Z" fill="#E6E4E3"/>
<path d="M40.695 105.832C40.695 106.237 40.695 106.657 40.695 107.062C40.56 106.777 40.65 106.477 40.635 106.177C40.635 105.982 40.575 105.907 40.365 105.892C39.465 105.847 39.465 105.847 39.465 106.732V106.912C39.435 107.227 39.255 107.317 38.955 107.317C37.575 107.317 36.195 107.317 34.815 107.317C34.275 107.317 34.14 107.167 34.125 106.627C34.125 106.387 34.17 106.147 34.095 105.907C34.095 105.907 34.095 105.832 34.155 105.802C34.41 105.832 34.395 106.027 34.365 106.207C34.335 106.387 34.32 106.567 34.41 106.732C34.515 106.972 34.68 107.092 34.935 107.092C36.24 107.092 37.545 107.092 38.85 107.092C39.18 107.092 39.24 106.867 39.27 106.612C39.3 106.417 39.27 106.222 39.285 106.027C39.285 105.877 39.345 105.712 39.495 105.682C39.885 105.622 40.275 105.532 40.65 105.742L40.68 105.802L40.695 105.832Z" fill="#E6E6E6"/>
<path d="M34.08 105.892C34.23 106.117 34.14 106.387 34.155 106.627C34.185 107.062 34.365 107.272 34.8 107.272C36.18 107.272 37.575 107.272 38.955 107.272C39.255 107.272 39.345 107.107 39.45 106.897C39.495 107.227 39.375 107.347 39.03 107.332C37.59 107.317 36.135 107.332 34.695 107.332C34.14 107.332 34.08 107.272 34.08 106.717C34.08 106.447 34.08 106.162 34.08 105.892V105.892Z" fill="#F1F0F1"/>
<path d="M34.665 101.977C34.77 101.872 34.89 101.917 35.01 101.917C36.27 101.917 37.515 101.917 38.775 101.917C39.045 101.917 39.3 101.962 39.465 102.202C39.465 102.562 39.465 102.922 39.465 103.282C39.465 103.312 39.465 103.327 39.465 103.357H39.405C39.18 103.177 39.225 102.907 39.225 102.652C39.225 102.172 39.15 102.097 38.655 102.082C37.53 102.082 36.405 102.082 35.28 102.082C35.085 102.082 34.89 102.112 34.71 102.022L34.665 101.977V101.977Z" fill="#DADADA"/>
<path d="M34.08 105.817V105.892C33.795 105.862 33.48 105.982 33.21 105.742C33.075 105.622 32.97 105.487 32.985 105.292C33 104.812 32.985 104.332 32.985 103.852C32.985 103.597 33.06 103.432 33.345 103.432C33.345 103.432 33.375 103.507 33.36 103.537C33.105 103.822 33.15 104.182 33.15 104.527C33.15 104.737 33.15 104.932 33.15 105.142C33.15 105.172 33.165 105.202 33.18 105.247C33.195 105.397 33.3 105.502 33.39 105.622C33.525 105.832 33.75 105.727 33.93 105.772C33.96 105.772 33.99 105.787 34.02 105.802L34.05 105.847L34.08 105.817Z" fill="#F1F0F1"/>
<path d="M68.385 111.982L68.61 111.622C68.61 111.787 68.64 111.967 68.385 111.982Z" fill="#E9E7E4"/>
<path d="M63.0001 96.5317L63.075 96.5617C63.105 96.6517 63.045 96.7117 62.97 96.7417C62.925 96.7567 62.8951 96.7717 62.8501 96.7867C62.8051 96.7867 62.7601 96.8017 62.7301 96.8167C62.4901 96.8767 62.2501 96.8767 62.0101 96.8767C56.2651 96.8767 50.5201 96.8767 44.7901 96.8767C44.4751 96.8767 44.1601 96.8317 43.8451 96.8467C43.5751 96.8167 43.4251 97.0267 43.2601 97.1917C43.2001 97.2667 43.1851 97.3567 43.1401 97.4467C43.0801 97.6267 43.0651 97.8217 43.0651 98.0167C43.0651 98.8717 43.0651 99.7267 43.0651 100.582C43.0651 100.972 42.9901 101.332 42.5701 101.512C42.3901 101.587 42.1951 101.572 42.0001 101.572C41.4751 101.572 41.0551 101.992 41.0251 102.517C41.0251 102.742 41.0251 102.982 41.0251 103.207C41.0251 103.357 41.0251 103.507 40.8601 103.582C40.7551 103.597 40.7101 103.552 40.6801 103.462C40.6801 103.417 40.6801 103.387 40.7101 103.357C40.8601 103.057 40.7701 102.742 40.7851 102.442C40.8001 101.737 41.2201 101.287 41.9101 101.272C42.4201 101.252 42.6751 100.982 42.6751 100.462C42.6751 99.5917 42.6901 98.7217 42.6751 97.8517C42.6751 97.3267 43.2601 96.5167 43.9351 96.5617C44.0401 96.5617 44.1601 96.5617 44.2651 96.5617C50.3701 96.5617 56.46 96.5617 62.565 96.5617C62.715 96.5617 62.8801 96.5617 63.0301 96.5617L63.0001 96.5317Z" fill="#F5D38F"/>
<path d="M40.695 103.357C40.695 103.357 40.695 103.402 40.695 103.432C40.32 103.627 39.915 103.537 39.525 103.477C39.48 103.477 39.465 103.417 39.465 103.357C39.87 103.357 40.29 103.357 40.695 103.357Z" fill="#DADADA"/>
<path d="M63 96.6816L63.06 96.5466C64.47 96.5466 65.88 96.5466 67.29 96.5466C67.53 96.5466 67.725 96.6516 67.89 96.8316C68.235 97.1916 68.475 97.5666 68.445 98.0916C68.415 98.6616 68.445 99.2466 68.445 99.8316C68.445 100.012 68.49 100.162 68.67 100.252C69.105 100.342 69.555 100.267 70.005 100.282C70.41 100.282 70.545 100.417 70.56 100.822C70.56 101.452 70.56 102.082 70.56 102.712C70.56 102.832 70.56 102.952 70.575 103.072C70.665 103.447 70.74 103.507 71.115 103.507C71.895 103.507 72.69 103.507 73.47 103.507C73.98 103.507 74.055 103.582 74.07 104.092C74.07 104.377 74.07 104.677 74.07 104.962C74.07 105.097 74.1 105.262 73.92 105.337C73.74 105.187 73.83 104.992 73.8 104.812C73.755 104.482 73.89 104.152 73.71 103.837C73.59 103.732 73.44 103.762 73.29 103.762C72.57 103.762 71.835 103.762 71.115 103.762C70.92 103.762 70.725 103.762 70.56 103.657C70.32 103.507 70.245 103.282 70.245 103.012C70.245 102.367 70.245 101.737 70.245 101.092C70.245 100.567 70.185 100.507 69.675 100.507C69.39 100.507 69.09 100.507 68.805 100.507C68.415 100.492 68.235 100.342 68.13 99.9816C68.07 99.7716 68.085 99.5466 68.07 99.3366C68.04 98.6616 68.16 97.9866 67.965 97.3266C67.95 97.2966 67.92 97.2666 67.905 97.2366C67.74 97.0716 67.59 96.8766 67.335 96.8316C66.105 96.8016 64.875 96.8316 63.645 96.8316C63.48 96.8316 63.315 96.8316 63.135 96.8016C63.09 96.8016 63.045 96.7566 63.015 96.7266L63 96.6816Z" fill="#A69D93"/>
<path d="M73.9051 105.307C74.0701 104.797 73.9651 104.257 73.9651 103.732C73.9651 103.537 73.7701 103.567 73.6201 103.567C72.8401 103.567 72.0751 103.567 71.2951 103.567C70.6651 103.567 70.5151 103.417 70.5001 102.772C70.5001 102.202 70.5001 101.632 70.5001 101.062C70.5001 100.327 70.4551 100.297 69.7201 100.282C69.3751 100.282 69.0301 100.372 68.6851 100.222C69.1351 100.222 69.5851 100.222 70.0201 100.222C70.4851 100.222 70.6351 100.372 70.6351 100.867C70.6351 101.512 70.6351 102.142 70.6351 102.787C70.6351 103.387 70.6951 103.432 71.2651 103.432C71.9851 103.432 72.6901 103.432 73.4101 103.432C73.6051 103.432 73.8001 103.447 73.9801 103.507L74.0401 103.582C74.0401 103.582 74.1001 103.642 74.1001 103.672C74.1751 104.242 74.2051 104.812 74.0851 105.382C74.0251 105.697 73.8151 105.802 73.5151 105.787C72.7201 105.787 71.9251 105.787 71.1301 105.787C71.0101 105.787 70.8901 105.757 70.7701 105.817H70.6951C70.6951 105.817 70.6501 105.697 70.6651 105.622C70.7851 105.472 70.9651 105.487 71.1301 105.487C71.8651 105.487 72.6001 105.487 73.3201 105.487C73.4551 105.487 73.6201 105.532 73.7101 105.382C73.7551 105.337 73.8001 105.292 73.8751 105.307H73.9051Z" fill="#ADADAD"/>
<path d="M42.585 107.992L42.435 107.857C42.15 107.752 41.85 107.887 41.565 107.782C41.475 107.722 41.4 107.647 41.31 107.587C41.22 107.512 41.28 107.467 41.355 107.437C41.7 107.497 42.045 107.512 42.39 107.572C42.855 107.647 43.065 107.932 43.065 108.412C43.065 109.252 43.065 110.077 43.065 110.917C43.065 111.157 43.065 111.397 43.14 111.637C43.14 111.667 43.17 111.712 43.17 111.757C43.2 111.982 43.365 112.072 43.545 112.132C43.8 112.222 44.055 112.252 44.325 112.252C50.295 112.252 56.25 112.252 62.22 112.252C62.4 112.252 62.58 112.252 62.76 112.252C62.805 112.252 62.85 112.282 62.895 112.297C62.985 112.357 63.015 112.432 63.015 112.537C62.985 112.582 62.955 112.612 62.895 112.597C56.685 112.597 50.49 112.597 44.28 112.597C43.77 112.597 43.38 112.432 43.005 112.117L42.93 111.967C42.69 111.727 42.63 111.427 42.63 111.112C42.63 110.227 42.63 109.327 42.63 108.442C42.63 108.292 42.66 108.127 42.555 107.992H42.585Z" fill="#F5D28B"/>
<path d="M43.02 112.132C43.56 112.552 44.175 112.567 44.835 112.567C50.88 112.567 56.94 112.567 62.985 112.567C63.015 112.567 63.015 112.597 63.015 112.612C63.015 112.627 63.015 112.642 63 112.642C56.7 112.642 50.4 112.642 44.1 112.642C43.65 112.642 43.29 112.477 43.02 112.132V112.132Z" fill="#F7E6C1"/>
<path d="M63 112.642C63 112.642 63 112.597 63 112.567V112.492L63.045 112.462C64.26 112.462 65.49 112.462 66.705 112.462C67.425 112.462 67.95 112.222 68.22 111.532C68.25 111.472 68.28 111.397 68.325 111.337C68.43 110.722 68.325 110.107 68.37 109.492C68.37 109.342 68.295 109.147 68.55 109.087C68.55 109.672 68.535 110.257 68.55 110.842C68.55 111.277 68.55 111.697 68.25 112.057C67.875 112.432 67.485 112.717 66.9 112.717C65.775 112.702 64.65 112.717 63.525 112.717C63.375 112.717 63.24 112.717 63.105 112.657H63.03L63 112.642Z" fill="#C3BDB6"/>
<path d="M42.585 107.992C42.765 108.082 42.72 108.247 42.72 108.397C42.72 109.207 42.72 110.032 42.72 110.842C42.72 111.232 42.72 111.622 42.945 111.982C42.615 111.787 42.585 111.472 42.585 111.142C42.585 110.092 42.585 109.042 42.585 107.992Z" fill="#F7E6C1"/>
<path d="M41.28 107.497C41.37 107.602 41.52 107.647 41.565 107.782C40.95 107.527 40.785 107.257 40.755 106.627C40.755 106.357 40.845 106.087 40.695 105.832C40.665 105.757 40.635 105.682 40.695 105.607C40.74 105.592 40.77 105.607 40.815 105.607C40.92 105.682 40.95 105.802 40.95 105.922C40.92 106.477 40.95 107.017 41.295 107.497H41.28Z" fill="#F6DDA9"/>
<path d="M41.565 107.782C41.85 107.827 42.15 107.707 42.435 107.857C42.15 107.827 41.85 107.932 41.565 107.782Z" fill="#F6DDA9"/>
<path d="M70.77 105.817C70.875 105.697 71.025 105.742 71.145 105.742C71.895 105.742 72.645 105.742 73.395 105.742C73.905 105.742 74.04 105.607 74.04 105.097C74.04 104.587 74.04 104.077 74.04 103.582C74.175 103.582 74.265 103.642 74.25 103.777C74.205 104.362 74.385 104.977 74.115 105.547C74.025 105.742 73.905 105.832 73.68 105.832C72.735 105.832 71.79 105.832 70.86 105.832H70.785L70.77 105.817Z" fill="#DCDCDD"/>
<path d="M33.36 103.507V103.432C34.155 103.297 34.17 103.297 34.155 102.532C34.155 102.157 34.32 102.007 34.665 101.977C34.68 102.127 34.53 102.157 34.485 102.262C34.455 102.307 34.425 102.352 34.41 102.397C34.335 102.742 34.5 103.117 34.275 103.447C34.02 103.597 33.69 103.492 33.45 103.687C33.42 103.687 33.375 103.687 33.345 103.687C33.315 103.627 33.315 103.582 33.345 103.537L33.36 103.507Z" fill="#DADADA"/>
<path d="M68.535 109.087C68.415 109.177 68.46 109.312 68.46 109.417C68.46 109.972 68.46 110.512 68.46 111.067C68.46 111.187 68.505 111.307 68.385 111.397C68.28 111.307 68.28 111.187 68.28 111.067C68.28 110.437 68.265 109.792 68.28 109.162C68.325 108.937 68.475 108.787 68.67 108.667C69.03 108.577 69.405 108.637 69.78 108.622C69.9 108.622 70.02 108.667 70.125 108.592C70.155 108.562 70.2 108.547 70.23 108.532C70.395 108.412 70.38 108.247 70.38 108.082C70.38 107.437 70.38 106.792 70.38 106.147C70.38 105.937 70.38 105.697 70.695 105.682V105.817C70.59 105.997 70.635 106.192 70.62 106.387C70.62 107.002 70.62 107.617 70.62 108.232C70.62 108.637 70.335 108.937 69.93 108.937C69.6 108.937 69.27 108.937 68.955 108.937C68.79 108.937 68.64 108.982 68.52 109.087H68.535Z" fill="#B6AFA8"/>
<path d="M40.695 105.637V105.832C40.32 105.697 39.945 105.772 39.57 105.772C39.42 105.772 39.39 105.907 39.39 106.027C39.39 106.222 39.39 106.417 39.39 106.612C39.375 107.062 39.21 107.212 38.775 107.212C37.53 107.212 36.285 107.212 35.04 107.212C34.455 107.212 34.14 106.822 34.26 106.237C34.305 106.042 34.365 105.877 34.095 105.832V105.802C34.26 105.592 34.395 105.742 34.53 105.802C34.635 105.937 34.59 106.072 34.56 106.222C34.5 106.612 34.62 106.972 35.175 106.957C36.285 106.927 37.395 106.957 38.505 106.957C39.075 106.957 39.12 106.897 39.135 106.342C39.135 105.652 39.285 105.517 39.975 105.532C40.215 105.532 40.485 105.427 40.695 105.652V105.637Z" fill="#C7C7C8"/>
<path d="M34.44 102.187L34.665 101.977C35.985 101.977 37.305 101.977 38.61 101.977C39.27 101.977 39.315 102.022 39.315 102.667C39.315 102.907 39.285 103.147 39.45 103.357C39.855 103.507 40.275 103.387 40.68 103.417L40.77 103.552C40.77 103.552 40.71 103.612 40.665 103.642C40.305 103.702 39.945 103.687 39.585 103.672C39.285 103.672 39.105 103.477 39.06 103.177C39.03 102.967 39.03 102.742 39.075 102.532C39.12 102.337 39.015 102.262 38.85 102.247C38.82 102.247 38.805 102.247 38.775 102.247C37.425 102.247 36.075 102.217 34.71 102.262C34.65 102.277 34.59 102.292 34.515 102.262C34.47 102.262 34.44 102.232 34.41 102.202L34.44 102.187Z" fill="#B9B9B9"/>
<path d="M34.44 102.187H34.53C34.695 102.577 34.65 102.967 34.575 103.357C34.515 103.612 34.245 103.642 34.02 103.672C33.615 103.717 33.6 103.717 33.615 104.122C33.615 104.512 33.57 104.917 33.66 105.307C33.705 105.532 33.9 105.487 34.05 105.517C34.215 105.562 34.485 105.517 34.455 105.817C34.335 105.832 34.23 105.682 34.095 105.802H34.02C33.375 105.742 33.255 105.607 33.255 104.947C33.255 104.632 33.255 104.332 33.255 104.017C33.255 103.882 33.255 103.747 33.36 103.657C33.6 103.402 33.915 103.432 34.215 103.432C34.365 103.372 34.32 103.237 34.335 103.117C34.35 102.832 34.29 102.547 34.365 102.262L34.425 102.187H34.44Z" fill="#B5B5B5"/>
<path d="M33.36 103.657C33.36 104.062 33.36 104.452 33.36 104.857C33.36 105.357 33.58 105.677 34.02 105.817C33.795 105.772 33.48 105.997 33.36 105.607C33.27 105.502 33.225 105.367 33.15 105.247C33.09 104.797 33.09 104.347 33.15 103.897C33.165 103.777 33.195 103.657 33.36 103.657Z" fill="#DADADA"/>
<path d="M33.345 103.642C33.12 103.822 33.165 104.092 33.135 104.332C33.105 104.632 33.135 104.932 33.135 105.232C32.985 104.752 33.06 104.272 33.105 103.792C33.105 103.657 33.225 103.567 33.345 103.492V103.642V103.642Z" fill="#E6E6E6"/>
<path d="M33.135 105.247C33.285 105.322 33.33 105.457 33.345 105.607C33.195 105.532 33.105 105.412 33.135 105.247Z" fill="#E6E6E6"/>
<path d="M41.2801 107.497C40.9351 107.242 40.8451 106.882 40.8451 106.477C40.8451 106.192 40.9201 105.907 40.7701 105.637C40.7401 105.607 40.7401 105.562 40.7701 105.532C40.9651 105.472 40.9801 105.622 41.0101 105.757C41.0401 105.922 41.0251 106.087 41.0101 106.252C41.0101 106.567 41.1001 106.837 41.2951 107.077C41.3551 107.272 41.4901 107.347 41.7001 107.317C41.9551 107.317 42.2251 107.317 42.4801 107.287C42.6301 107.242 42.6151 107.107 42.6151 106.987C42.6151 105.247 42.6151 103.522 42.6151 101.782C42.6151 101.677 42.6001 101.587 42.5251 101.512L42.4951 101.452C42.8551 101.242 42.9301 100.912 42.9301 100.537C42.9301 99.6516 42.9301 98.7816 42.9301 97.8966C42.9301 97.6866 42.9301 97.4915 43.0801 97.3115C43.2001 97.4315 43.1851 97.5666 43.1851 97.7166C43.1851 98.7366 43.1851 99.7716 43.1851 100.792C43.1851 99.8916 43.1851 98.9916 43.1851 98.0916C43.1851 97.2966 43.5001 96.9666 44.3101 96.9666C50.0551 96.9666 55.7851 96.9666 61.5301 96.9666C61.8601 96.9666 62.1901 96.9665 62.5051 96.9365C62.6251 96.9215 62.7451 96.9216 62.8501 96.9966C62.9401 97.1016 62.9401 97.2216 62.9401 97.3416C62.9401 99.2916 62.9401 101.227 62.9401 103.177C62.9401 103.207 62.9401 103.252 62.9401 103.282C62.9401 103.327 62.9101 103.372 62.8801 103.402C62.7151 103.537 62.5201 103.477 62.3401 103.492C62.1001 103.462 61.9501 103.582 61.8451 103.792C61.2601 104.167 61.1851 104.632 61.6051 105.187C61.7551 105.367 61.9501 105.307 62.1301 105.337C62.2951 105.382 62.4751 105.412 62.6401 105.397C62.7301 105.397 62.8051 105.427 62.8651 105.502C62.9251 105.607 62.9251 105.727 62.9251 105.832C62.9251 107.752 62.9251 109.672 62.9251 111.577C62.9251 111.757 62.9551 111.937 62.8351 112.102C62.7001 112.207 62.5351 112.192 62.3851 112.192C56.2951 112.192 50.1901 112.192 44.1001 112.192C43.8451 112.192 43.5901 112.177 43.3501 112.087C43.1401 112.057 43.0501 111.922 43.0651 111.727C43.1101 111.697 43.1851 111.697 43.1851 111.607C43.1251 111.622 43.1101 111.697 43.0651 111.727C42.9451 111.532 42.9151 111.307 42.9151 111.082C42.9151 110.167 42.9151 109.252 42.9151 108.337C42.9151 107.932 42.7351 107.647 42.3301 107.617C41.9551 107.587 41.6101 107.527 41.2501 107.452L41.2801 107.497Z" fill="#F4C86F"/>
<path d="M41.28 107.122C40.95 106.942 40.95 106.612 40.905 106.297C40.875 106.042 41.025 105.757 40.8 105.532C40.695 105.487 40.695 105.397 40.695 105.307C40.785 104.812 40.74 104.302 40.725 103.807C40.725 103.717 40.695 103.642 40.74 103.567C40.74 103.567 40.77 103.567 40.785 103.567C41.04 103.357 40.875 103.072 40.905 102.817C40.935 102.502 40.905 102.217 41.13 101.902C41.43 101.512 41.76 101.422 42.18 101.467C42.285 101.467 42.39 101.467 42.51 101.467C42.51 101.467 42.525 101.527 42.51 101.557C42.315 101.677 42.09 101.587 41.79 101.677C42.03 101.752 42.195 101.722 42.36 101.692C42.465 101.677 42.6 101.587 42.645 101.782C42.6 103.477 42.645 105.187 42.63 106.882C42.63 107.062 42.66 107.242 42.525 107.392H41.655C41.535 107.302 41.445 107.167 41.295 107.107L41.28 107.122Z" fill="#F2C168"/>
<path d="M62.85 97.0418C56.655 97.2068 50.46 97.0718 44.265 97.1168C43.545 97.1168 43.305 97.3718 43.305 98.1068C43.305 99.0218 43.305 99.9368 43.305 100.867C43.305 100.957 43.305 101.062 43.305 101.152C43.305 101.227 43.26 101.302 43.17 101.287C43.095 101.287 43.095 101.197 43.095 101.137C43.095 101.047 43.095 100.972 43.095 100.882C43.095 99.6968 43.095 98.5118 43.095 97.3268C43.095 97.2518 43.095 97.1618 43.17 97.1168C43.395 97.0718 43.56 96.9518 43.68 96.7568C43.935 96.6218 44.175 96.7568 44.43 96.7568C50.4 96.7568 56.37 96.7568 62.34 96.7568C62.52 96.7568 62.7 96.7118 62.88 96.6968C62.97 96.8168 62.985 96.9368 62.88 97.0568L62.85 97.0418Z" fill="#F3C66D"/>
<path d="M62.865 105.532H62.655C62.31 105.502 62.085 105.352 62.04 104.977C62.04 104.587 61.98 104.182 62.115 103.807C62.205 103.597 62.355 103.492 62.595 103.507C62.685 103.507 62.79 103.507 62.865 103.432C62.94 103.312 62.895 103.177 62.895 103.042C62.895 101.062 62.895 99.0668 62.895 97.0868C62.895 96.9518 62.865 96.8168 62.925 96.6968C62.955 96.6968 62.97 96.6968 63 96.6968H63.09C63.195 96.8318 63.18 96.9818 63.18 97.1168C63.18 99.0968 63.18 101.077 63.18 103.057C63.18 103.222 63.165 103.387 63.105 103.552C63.045 103.732 62.925 103.882 62.715 103.882C62.46 103.882 62.385 104.047 62.385 104.257C62.385 104.362 62.385 104.482 62.385 104.587C62.355 104.917 62.355 105.232 62.805 105.262C62.865 105.262 62.895 105.337 62.91 105.397C62.91 105.442 62.91 105.487 62.865 105.517V105.532Z" fill="#C6A361"/>
<path d="M62.925 96.6968C62.925 98.8118 62.925 100.912 62.925 103.027C62.925 103.162 62.985 103.312 62.85 103.432C62.85 101.302 62.85 99.1718 62.85 97.0568V96.6968H62.925Z" fill="#E9C16C"/>
<path d="M43.68 96.7566C43.71 97.1616 43.425 97.1166 43.17 97.1166C43.365 97.0416 43.41 96.7416 43.68 96.7566Z" fill="#F4C86F"/>
<path d="M67.44 96.7566C67.695 96.7566 67.755 97.0416 67.95 97.1166C67.71 97.2066 67.605 97.3116 67.77 97.5666C67.875 97.7316 67.83 97.9416 67.83 98.1366C67.83 98.6916 67.83 99.2616 67.83 99.8166C67.83 99.0666 67.83 98.3316 67.83 97.5816C67.83 97.4166 67.815 97.2366 67.935 97.1016C68.13 97.3566 68.145 97.6566 68.145 97.9566C68.145 98.4966 68.145 99.0366 68.145 99.5766C68.145 100.192 68.325 100.372 68.955 100.372C69.225 100.372 69.51 100.372 69.78 100.372C70.215 100.372 70.305 100.447 70.32 100.897C70.32 101.557 70.32 102.217 70.32 102.877C70.32 103.147 70.35 103.372 70.545 103.567C70.575 103.597 70.59 103.642 70.575 103.687C70.56 103.732 70.515 103.747 70.485 103.762C70.245 103.762 70.14 103.612 70.11 103.417C70.08 103.282 70.11 103.147 70.08 103.027C70.08 102.307 70.08 101.587 70.08 100.867C70.08 100.717 70.08 100.567 69.87 100.567C69.375 100.567 68.88 100.567 68.34 100.567C68.58 101.182 68.46 101.812 68.475 102.427C68.475 102.817 68.4 102.877 67.995 102.832C67.725 102.802 67.47 102.832 67.2 102.832C66.03 102.832 64.845 102.832 63.675 102.832C63.54 102.832 63.36 102.772 63.33 102.982C63.33 103.147 63.33 103.312 63.3 103.477C63.285 103.567 63.3 103.717 63.12 103.627C63.09 103.222 63.12 102.817 63.12 102.412C63.12 100.597 63.12 98.7816 63.12 96.9666C63.27 96.8166 63.435 96.9666 63.585 96.9666C64.65 96.9666 65.73 96.9666 66.795 96.9666C66.96 96.9666 67.14 96.9666 67.245 96.8016C67.305 96.7566 67.365 96.7566 67.425 96.8016L67.44 96.7566Z" fill="#786C5B"/>
<path d="M63.15 96.9067V103.642C63.15 103.642 63.18 103.702 63.165 103.747C63.09 104.002 62.865 104.062 62.655 104.122C62.4001 104.422 62.5051 104.752 62.5801 105.082C62.6851 105.187 62.8351 105.127 62.9551 105.172C63.1051 105.217 63.21 105.307 63.24 105.457C63.285 107.662 63.285 109.867 63.24 112.072C63.24 112.147 63.21 112.207 63.165 112.267C63.045 112.312 62.985 112.252 62.94 112.162C62.91 110.092 62.9401 108.007 62.9251 105.937C62.9251 105.772 62.9701 105.592 62.8501 105.442C62.8351 105.337 62.745 105.322 62.655 105.322C62.3101 105.367 62.235 105.172 62.265 104.887C62.265 104.707 62.265 104.527 62.265 104.347C62.265 104.017 62.31 103.762 62.73 103.792C62.865 103.792 62.925 103.717 62.97 103.612C63.045 103.432 63.0601 103.237 63.0601 103.042C63.0601 101.062 63.0601 99.0817 63.0601 97.1017C63.0601 96.9667 63.06 96.8317 63.075 96.7117C64.44 96.7117 65.82 96.7117 67.185 96.7117C67.275 96.7117 67.35 96.7117 67.425 96.7717H67.275C67.11 96.9217 66.915 96.8917 66.72 96.8917C65.58 96.8917 64.455 96.8917 63.315 96.8917C63.255 96.8917 63.195 96.8917 63.135 96.9217L63.15 96.9067Z" fill="#907D5C"/>
<path d="M73.905 105.307L73.845 105.382C73.755 105.457 73.65 105.487 73.545 105.487C72.675 105.487 71.805 105.517 70.935 105.472C70.815 105.442 70.71 105.412 70.635 105.307C70.635 105.217 70.695 105.187 70.755 105.157C71.58 105.097 72.39 105.157 73.215 105.127C73.725 105.112 73.725 105.112 73.74 104.602C73.74 104.317 73.68 104.017 73.8 103.747L73.845 103.702C73.995 104.227 73.875 104.767 73.905 105.292V105.307Z" fill="#707071"/>
<path d="M70.5601 103.642V103.567C71.2801 103.702 72.0151 103.582 72.7351 103.627C73.0951 103.657 73.4701 103.537 73.8301 103.702C73.7401 103.807 73.6201 103.822 73.5001 103.822C72.6001 103.822 71.7001 103.852 70.7851 103.807C70.6801 103.792 70.6201 103.732 70.5751 103.642H70.5601Z" fill="#686868"/>
<path d="M70.845 105.382C71.835 105.382 72.84 105.382 73.83 105.382C73.8 105.637 73.605 105.592 73.44 105.592C72.645 105.592 71.865 105.592 71.07 105.592C70.95 105.592 70.8 105.547 70.695 105.667C70.5 105.757 70.47 105.922 70.47 106.117C70.47 106.822 70.47 107.512 70.47 108.217C70.47 108.427 70.425 108.592 70.185 108.652C70.155 108.622 70.14 108.592 70.14 108.562C70.14 108.517 70.14 108.487 70.17 108.457C70.185 108.427 70.2 108.382 70.215 108.352C70.245 107.617 70.215 106.882 70.215 106.147C70.215 105.682 70.365 105.517 70.815 105.397L70.845 105.382Z" fill="#958C81"/>
<path d="M43.3801 112.132H62.8501C62.8501 112.132 62.9101 112.267 62.8501 112.342C56.6101 112.342 50.3701 112.342 44.1151 112.342C43.8451 112.342 43.5901 112.312 43.3651 112.132H43.3801Z" fill="#F4C872"/>
<path d="M62.8651 105.442C63.0751 105.517 63.0001 105.697 63.0001 105.847C63.0001 107.827 63.0001 109.807 63.0001 111.787C63.0001 111.937 63.0001 112.072 63.0151 112.222C63.0451 112.312 63.0901 112.417 63.0151 112.507H62.9851L62.9251 112.357C62.8651 112.237 62.8951 112.102 62.8951 111.967C62.8951 110.047 62.8951 108.142 62.8951 106.222C62.8951 106.087 62.9251 105.952 62.8651 105.832V105.442V105.442Z" fill="#E4BA69"/>
<path d="M62.8651 105.817C62.9701 105.907 62.9401 106.012 62.9401 106.117C62.9401 108.187 62.9401 110.272 62.9401 112.342C62.9101 112.342 62.8951 112.342 62.8651 112.342V112.132C62.8651 110.032 62.8651 107.932 62.8651 105.817V105.817Z" fill="#E7C06C"/>
<path d="M63.015 112.492V112.207L63.15 112.267C63.57 112.192 63.99 112.237 64.41 112.237C65.13 112.237 65.865 112.237 66.585 112.237C66.915 112.237 67.23 112.207 67.545 112.087C67.74 112.042 67.89 111.907 67.98 111.727C68.16 111.427 68.22 111.112 68.205 110.752C68.19 110.317 68.205 109.882 68.205 109.447C68.205 109.297 68.16 109.117 68.385 109.072V111.397C68.19 111.862 67.965 112.282 67.425 112.462C67.275 112.507 67.125 112.552 66.975 112.552C65.805 112.552 64.65 112.552 63.48 112.552C63.315 112.552 63.165 112.522 63.015 112.477V112.492Z" fill="#9D9387"/>
<path d="M40.755 105.322L40.8 105.532L40.77 105.622H40.695C40.35 105.622 39.99 105.607 39.645 105.622C39.405 105.622 39.27 105.772 39.24 106.012C39.24 106.087 39.24 106.162 39.24 106.222C39.24 107.047 39.24 107.062 38.385 107.062C37.32 107.062 36.255 107.062 35.19 107.062C34.59 107.062 34.365 106.792 34.455 106.207C34.47 106.087 34.56 105.952 34.455 105.832C34.335 105.592 34.125 105.622 33.915 105.622C33.75 105.622 33.6 105.622 33.585 105.412C33.615 105.382 33.645 105.367 33.69 105.367C33.96 105.382 34.215 105.397 34.47 105.502C34.575 105.562 34.65 105.667 34.68 105.787C34.755 106.087 34.605 106.417 34.785 106.717C34.86 106.762 34.95 106.762 35.025 106.762C36.21 106.762 37.395 106.762 38.58 106.762C39.03 106.762 39.06 106.717 39.015 106.252C38.955 105.667 39.195 105.397 39.795 105.382C40.125 105.382 40.44 105.382 40.77 105.352L40.755 105.322Z" fill="#8E8E8E"/>
<path d="M34.365 102.262C34.365 102.562 34.365 102.862 34.365 103.162C34.365 103.282 34.395 103.417 34.215 103.432C34.365 103.207 34.275 102.952 34.29 102.712C34.305 102.562 34.23 102.412 34.365 102.277V102.262Z" fill="#B9B9B9"/>
<path d="M68.3851 109.087C68.2651 109.207 68.3101 109.357 68.3101 109.492C68.3101 109.972 68.2951 110.452 68.3101 110.932C68.3251 111.277 68.2051 111.562 68.0101 111.832C67.9801 111.802 67.9501 111.757 67.9351 111.712C67.9951 111.037 67.9651 110.347 67.9801 109.657C67.9801 108.787 68.3101 108.442 69.1651 108.457C69.5101 108.457 69.8701 108.352 70.1851 108.547V108.622C69.8251 108.697 69.4651 108.622 69.1201 108.652C68.9701 108.652 68.8051 108.607 68.6551 108.697L68.3701 109.057L68.3851 109.087Z" fill="#91887C"/>
<path d="M68.67 108.727C69.015 108.562 69.3751 108.682 69.7351 108.652C69.8851 108.652 70.05 108.652 70.2001 108.652C70.1551 108.727 70.095 108.787 70.005 108.757C69.57 108.667 69.12 108.742 68.67 108.712V108.727Z" fill="#958C81"/>
<path d="M40.7551 105.322C40.5001 105.547 40.1851 105.442 39.8851 105.457C39.1651 105.457 39.0001 105.667 39.1351 106.357C39.2101 106.702 39.0901 106.837 38.6701 106.837C37.4851 106.837 36.3001 106.837 35.1151 106.837C34.9651 106.837 34.7851 106.987 34.6651 106.777C34.6351 106.747 34.6351 106.717 34.6651 106.687C34.6951 106.687 34.7401 106.672 34.7701 106.672C34.8751 106.672 34.9651 106.672 35.0701 106.672C36.1651 106.672 37.2601 106.672 38.3551 106.672C38.5051 106.672 38.6401 106.687 38.7751 106.627C38.9551 106.552 38.8651 106.402 38.8501 106.282C38.7901 105.427 38.9701 105.232 39.8251 105.232C40.0351 105.232 40.2601 105.262 40.4701 105.187C40.5001 105.157 40.5151 105.127 40.5301 105.097C40.6051 104.677 40.5901 104.272 40.5301 103.852C40.5001 103.822 40.4851 103.807 40.4551 103.777C40.1251 103.717 39.8101 103.762 39.4801 103.747C38.9401 103.732 38.8201 103.582 38.8051 103.057C38.8051 102.832 38.9401 102.592 38.7751 102.367C38.7301 102.352 38.7001 102.337 38.6701 102.322C37.9351 102.262 37.2001 102.322 36.4651 102.292C35.9401 102.292 35.4301 102.292 34.9051 102.292C34.8451 102.292 34.7701 102.292 34.7101 102.262C34.6651 102.247 34.6351 102.217 34.6201 102.172C34.6951 102.097 34.8001 102.112 34.8901 102.112C36.1651 102.112 37.4251 102.112 38.7001 102.112C39.1651 102.112 39.1951 102.142 39.1501 102.607C39.1501 102.727 39.1501 102.847 39.1501 102.967C39.1501 103.462 39.2551 103.567 39.7351 103.567C40.0651 103.567 40.3951 103.567 40.7101 103.567C40.8451 104.152 40.8451 104.737 40.7101 105.322H40.7551Z" fill="#7B7A7B"/>
<path d="M33.645 105.382H33.57C33.405 104.857 33.525 104.317 33.51 103.777C33.51 103.627 33.615 103.582 33.765 103.567C33.885 103.567 34.005 103.567 34.125 103.567C34.395 103.537 34.56 103.432 34.53 103.102C34.5 102.802 34.53 102.502 34.53 102.202H34.68C34.77 102.322 34.77 102.457 34.77 102.592C34.77 102.832 34.77 103.072 34.77 103.312C34.77 103.612 34.62 103.747 34.32 103.762C34.14 103.762 33.96 103.702 33.795 103.837C33.705 104.272 33.75 104.707 33.78 105.127C33.915 105.292 34.11 105.202 34.275 105.217C34.62 105.277 34.725 105.397 34.695 105.727C34.665 105.772 34.635 105.772 34.59 105.742L34.44 105.532C34.185 105.397 33.9 105.442 33.645 105.382V105.382Z" fill="#7B7B7B"/>
<path d="M48.18 104.452C48.18 104.857 48.18 105.277 48.18 105.682C48.18 106.417 48.15 106.522 47.445 106.717C46.965 106.852 46.47 106.867 46.05 106.492C45.915 106.372 45.855 106.252 45.87 106.057C45.93 105.187 46.005 104.317 45.825 103.432C45.765 103.177 45.84 102.892 45.825 102.622C45.81 102.442 46.05 102.352 46.245 102.352C46.74 102.352 47.235 102.337 47.73 102.352C48.06 102.352 48.18 102.577 48.18 102.892C48.18 103.417 48.18 103.927 48.18 104.452V104.452Z" fill="#F3C56B"/>
<path d="M42.51 101.542V101.467C42.69 101.467 42.765 101.467 42.75 101.722C42.72 102.787 42.735 103.837 42.735 104.902C42.735 105.622 42.735 106.342 42.735 107.077C42.735 107.242 42.735 107.407 42.51 107.422C42.51 105.712 42.51 104.002 42.51 102.292C42.51 102.082 42.51 101.887 42.585 101.692C42.54 101.662 42.51 101.617 42.51 101.542V101.542Z" fill="#F3C56B"/>
<path d="M62.13 105.457C61.635 105.457 61.335 105.187 61.26 104.677C61.17 104.107 61.26 103.987 61.845 103.792C61.89 103.837 61.905 103.882 61.89 103.942C61.695 104.227 61.71 104.542 61.725 104.857C61.725 104.992 61.755 105.127 61.92 105.142C61.98 105.142 62.025 105.172 62.07 105.202C62.13 105.277 62.205 105.352 62.13 105.457V105.457Z" fill="#F3C56B"/>
<path d="M62.865 103.432C62.835 103.612 62.7 103.582 62.58 103.567C62.4 103.567 62.28 103.642 62.205 103.792C62.145 103.882 62.085 103.942 61.98 103.882C61.89 103.597 62.13 103.552 62.28 103.432H62.865V103.432Z" fill="#E9C16C"/>
<path d="M62.28 103.432C62.22 103.597 61.995 103.657 61.995 103.867C61.995 103.912 61.965 103.942 61.92 103.972C61.89 103.972 61.86 103.972 61.845 103.942V103.792C61.845 103.492 62.055 103.447 62.28 103.432V103.432Z" fill="#EEC26C"/>
<path d="M41.28 107.122C41.49 107.107 41.535 107.122 41.64 107.407C41.43 107.407 41.235 107.422 41.28 107.122Z" fill="#F2C162"/>
<path d="M43.095 111.772C43.11 111.667 43.05 111.502 43.2 111.457C43.29 111.427 43.335 111.547 43.35 111.622C43.395 111.877 43.245 111.832 43.095 111.772Z" fill="#F3C568"/>
<path d="M62.13 105.457L62.055 105.232C61.995 105.127 61.965 105.037 62.13 105.022C62.16 105.337 62.385 105.442 62.64 105.532C62.46 105.562 62.295 105.502 62.13 105.457Z" fill="#E4BA69"/>
<path d="M42.51 101.542C42.51 101.542 42.585 101.632 42.585 101.692C42.36 101.902 42.09 101.827 41.835 101.842C41.73 101.842 41.64 101.812 41.655 101.677C41.655 101.572 41.745 101.557 41.835 101.542C42.06 101.542 42.285 101.542 42.51 101.542V101.542Z" fill="#F2C061"/>
<path d="M62.13 105.022C62.04 105.067 62.055 105.157 62.055 105.232H61.905C61.725 104.797 61.725 104.362 61.905 103.927L61.98 103.852L62.19 103.777C62.07 104.182 62.145 104.602 62.115 105.007L62.13 105.022Z" fill="#E9BA66"/>
<path d="M70.275 108.502C70.275 108.502 70.2301 108.502 70.2151 108.502L70.17 108.457C70.065 108.232 70.1101 107.977 70.1101 107.737C70.1101 107.152 70.1101 106.567 70.0801 105.982C70.0201 106.462 70.035 106.942 70.035 107.422C70.035 108.262 70.0051 108.292 69.1651 108.307C68.9401 108.307 68.7001 108.292 68.5201 108.487C68.4751 108.517 68.445 108.517 68.4 108.502C68.31 108.412 68.3101 108.307 68.3401 108.202C68.3551 108.142 68.4001 108.082 68.4451 108.037C68.5501 107.932 68.5201 107.782 68.5201 107.662C68.5201 107.257 68.5201 106.837 68.5201 106.432C68.5201 106.147 68.5051 105.862 68.3851 105.577C68.2501 105.262 68.3551 104.902 68.3251 104.647C68.3251 104.827 68.3251 105.082 68.3251 105.337C68.2951 105.832 68.0551 106.042 67.5601 106.057C66.2551 106.057 64.9501 106.057 63.6451 106.057C63.5101 106.057 63.3751 106.057 63.2551 105.997C63.1201 105.802 63.2701 105.577 63.1651 105.382C63.1051 105.232 62.9701 105.247 62.8351 105.232C62.7001 105.232 62.5501 105.292 62.4301 105.157C62.6101 105.067 62.7301 104.932 62.7001 104.707C62.6701 104.467 62.8801 104.287 62.8951 104.062C62.9701 103.942 63.1351 103.882 63.1501 103.702C63.1501 103.672 63.1501 103.657 63.1501 103.627C63.3001 103.402 63.1951 103.147 63.2251 102.907C63.3601 102.787 63.5401 102.802 63.7051 102.802C64.9801 102.802 66.2551 102.802 67.515 102.802C67.815 102.802 68.085 102.817 68.16 103.177C68.16 103.252 68.2201 103.312 68.3101 103.312C68.4151 103.312 68.4451 103.222 68.4601 103.132C68.4901 103.042 68.4751 102.937 68.4901 102.847C68.4901 102.352 68.4901 101.857 68.4901 101.362C68.4901 100.642 68.5051 100.627 69.2101 100.612C69.48 100.612 69.7351 100.582 69.9751 100.432C70.1701 100.432 70.2001 100.567 70.1851 100.717C70.0051 100.747 70.005 100.897 70.005 101.017C70.005 101.587 70.005 102.157 70.005 102.727C70.005 102.862 70.0051 102.997 70.1851 103.042C70.2151 103.312 70.065 103.672 70.545 103.702C70.785 104.272 70.965 104.827 70.5001 105.367C70.4251 105.457 70.365 105.562 70.335 105.682C70.26 106.477 70.335 107.272 70.305 108.052C70.305 108.187 70.335 108.337 70.275 108.472V108.502Z" fill="#726658"/>
<path d="M69.9751 100.462C69.7801 100.852 69.4351 100.747 69.1201 100.747C68.5951 100.747 68.595 100.747 68.595 101.272C68.595 101.872 68.595 102.472 68.595 103.087C68.595 103.312 68.52 103.522 68.325 103.537C68.115 103.552 68.01 103.357 68.01 103.132C68.01 102.877 67.83 102.922 67.68 102.922C66.195 102.922 64.71 102.922 63.21 102.922C63.195 102.742 63.3 102.697 63.45 102.697C64.95 102.697 66.45 102.652 67.935 102.727C68.4151 102.757 68.37 102.607 68.355 102.307C68.355 101.977 68.355 101.662 68.355 101.332C68.355 101.062 68.355 100.807 68.145 100.597C68.115 100.567 68.1001 100.477 68.1001 100.432C68.1151 100.357 68.205 100.372 68.25 100.387C68.805 100.522 69.3751 100.417 69.9451 100.447L69.9751 100.462Z" fill="#766A5A"/>
<path d="M63.15 96.9067C63.18 96.6967 63.345 96.7567 63.465 96.7567C64.74 96.7567 66.015 96.7567 67.29 96.7567C67.305 96.9517 67.215 97.0417 67.02 97.0417C65.82 97.0417 64.635 97.0417 63.435 97.0417C63.3 97.0417 63.24 96.9667 63.165 96.8917L63.15 96.9067Z" fill="#736653"/>
<path d="M67.95 97.1167C67.95 98.0617 67.95 98.9917 67.95 99.9367C67.95 100.027 68.01 100.192 67.845 100.192C67.71 100.192 67.725 100.027 67.725 99.9217C67.725 99.2767 67.725 98.6167 67.725 97.9717C67.725 97.7167 67.725 97.4617 67.47 97.3117C67.44 97.2967 67.41 97.2367 67.41 97.1917C67.41 97.1167 67.5 97.1317 67.56 97.1167C67.695 97.1167 67.83 97.1167 67.965 97.1167H67.95Z" fill="#766958"/>
<path d="M70.2 103.072C70.02 103.252 69.93 103.117 69.93 102.967C69.915 102.262 69.915 101.557 69.93 100.852C69.93 100.702 70.035 100.567 70.2 100.747V103.072V103.072Z" fill="#6C5F4E"/>
<path d="M70.275 105.607C70.845 105.052 70.695 104.392 70.56 103.717V103.642L70.71 103.717C70.71 103.717 70.83 103.807 70.86 103.882C70.89 104.077 70.905 104.272 70.98 104.467C71.07 104.707 70.98 104.932 70.845 105.142C70.8 105.187 70.755 105.202 70.71 105.247L70.635 105.322C70.575 105.487 70.485 105.622 70.275 105.607V105.607Z" fill="#6B655F"/>
<path d="M63.15 105.382C63.3 105.562 63.195 105.772 63.225 105.967C63.345 106.057 63.48 106.042 63.6 106.042C64.935 106.042 66.285 106.042 67.62 106.042C67.8 106.042 67.965 106.042 68.13 105.907C68.265 105.802 68.49 105.802 68.505 105.997C68.52 106.717 68.61 107.437 68.46 108.142L68.385 108.217C68.325 108.307 68.235 108.412 68.385 108.502H68.46C68.64 108.352 68.85 108.382 69.045 108.397C69.435 108.427 69.84 108.292 70.2 108.502V108.577C69.78 108.577 69.375 108.577 68.97 108.577C68.445 108.577 68.1 108.922 68.1 109.462C68.1 109.987 68.1 110.497 68.1 111.022C68.1 111.277 68.07 111.532 68.025 111.772C67.98 111.787 67.935 111.772 67.92 111.742C67.8 111.487 67.86 111.217 67.86 110.962C67.86 110.467 67.86 109.972 67.86 109.477C67.86 110.002 67.86 110.542 67.86 111.067C67.86 111.787 67.62 112.012 66.885 112.027C65.82 112.027 64.755 112.027 63.705 112.027C63.57 112.027 63.405 111.997 63.3 112.132C63.255 112.162 63.225 112.162 63.18 112.132V105.382H63.15Z" fill="#786C5B"/>
<path d="M63.15 112.132C63.15 112.132 63.195 112.132 63.225 112.132C63.345 112.027 63.495 112.027 63.63 112.027C64.845 112.027 66.045 112.027 67.26 112.027C67.38 112.027 67.5 112.027 67.605 112.087L67.65 112.132C67.425 112.267 67.17 112.342 66.9 112.342C65.745 112.342 64.59 112.342 63.435 112.342C63.33 112.342 63.21 112.372 63.135 112.267V112.117L63.15 112.132Z" fill="#7B6F5F"/>
<path d="M62.925 104.077C62.925 104.077 63 104.182 62.985 104.197C62.79 104.437 62.775 104.737 62.76 105.037C62.76 105.247 62.535 105.142 62.415 105.172C62.415 104.887 62.415 104.602 62.415 104.317C62.415 104.167 62.445 104.032 62.64 104.017C62.715 104.107 62.85 104.017 62.925 104.092V104.077Z" fill="#6F6457"/>
<path d="M62.925 104.077C62.82 104.077 62.715 104.107 62.64 104.002C62.88 104.017 63.015 103.882 63.15 103.717C63.21 103.912 63.06 104.002 62.925 104.077V104.077Z" fill="#786C5B"/>
<path d="M70.785 103.867L70.71 103.717H73.83C73.83 104.092 73.83 104.452 73.83 104.827C73.845 105.142 73.77 105.307 73.425 105.247C73.365 105.247 73.305 105.247 73.245 105.247C72.645 105.172 72.045 105.232 71.445 105.217C71.295 105.217 71.16 105.217 71.01 105.217C70.875 105.052 70.995 104.977 71.13 104.917C71.715 104.932 72.315 104.917 72.9 104.932C73.365 104.932 73.38 104.722 73.32 104.302C73.29 104.107 73.11 104.137 72.975 104.137C72.465 104.137 71.955 104.137 71.445 104.137C71.25 104.137 71.055 104.137 70.875 104.032C70.815 103.987 70.785 103.942 70.755 103.882L70.785 103.867Z" fill="#636362"/>
<path d="M70.275 105.607L70.635 105.322C70.71 105.322 70.8 105.322 70.845 105.397C70.365 105.622 70.305 106.012 70.335 106.492C70.365 107.047 70.335 107.617 70.335 108.187C70.335 108.307 70.38 108.427 70.26 108.517V105.622L70.275 105.607Z" fill="#7C766E"/>
<path d="M70.9951 105.172C71.6251 105.172 72.2401 105.172 72.8701 105.172C72.9901 105.172 73.1401 105.127 73.2451 105.247H70.6951L70.7701 105.172C70.7701 105.172 70.9201 105.112 70.9951 105.172V105.172Z" fill="#666666"/>
<path d="M67.9501 111.772H68.0251V111.847C67.9501 111.997 67.8901 112.162 67.6651 112.147C67.5901 111.832 67.6051 111.802 67.9651 111.787L67.9501 111.772Z" fill="#7B6F5F"/>
<path d="M34.59 105.742H34.665C34.815 105.907 34.74 106.117 34.77 106.312C34.77 106.447 34.77 106.582 34.665 106.687V106.762C34.515 106.432 34.635 106.087 34.59 105.742V105.742Z" fill="#828283"/>
<path d="M33.645 105.382C33.915 105.382 34.2 105.322 34.44 105.532C34.17 105.487 33.9 105.502 33.645 105.382Z" fill="#828283"/>
<path d="M38.805 102.277C38.805 102.277 38.85 102.277 38.88 102.277C38.94 102.337 38.955 102.412 38.925 102.502C38.82 102.712 38.925 102.952 38.85 103.162C38.835 103.207 38.805 103.237 38.76 103.252C37.77 103.132 36.795 103.222 35.805 103.177C35.415 103.177 35.055 103.177 34.74 103.447C34.65 103.192 34.725 102.937 34.695 102.697C34.77 102.442 34.92 102.292 35.19 102.247C36.27 102.247 37.35 102.247 38.445 102.247C38.565 102.247 38.685 102.217 38.805 102.277V102.277Z" fill="#616163"/>
<path d="M38.805 103.207V103.132C38.91 102.922 38.79 102.682 38.88 102.472V102.262C39.015 102.262 39.045 102.352 39.015 102.457C38.925 102.682 38.97 102.907 38.955 103.132C38.925 103.492 39.03 103.627 39.39 103.627C39.69 103.627 39.99 103.627 40.29 103.627C40.41 103.627 40.53 103.582 40.635 103.702C40.575 103.777 40.485 103.792 40.395 103.792C40.125 103.807 39.84 103.792 39.555 103.792C39.495 103.792 39.42 103.792 39.36 103.822C39.12 103.927 38.88 103.957 38.625 103.957C37.5 103.957 36.39 103.957 35.265 103.957C34.95 103.957 34.65 103.867 34.35 103.807C34.26 103.807 34.17 103.807 34.08 103.807C33.93 103.807 33.765 103.807 33.645 103.702C33.75 103.582 33.885 103.627 34.02 103.627C34.665 103.627 34.665 103.627 34.665 102.967C34.665 102.817 34.665 102.682 34.665 102.532C34.725 102.532 34.755 102.532 34.74 102.607V103.402C34.74 103.402 34.845 103.447 34.875 103.402C35.115 103.087 35.475 103.132 35.805 103.132C36.81 103.132 37.815 103.102 38.805 103.162V103.207Z" fill="#6D6C6E"/>
<path d="M40.41 103.717H40.635C40.695 104.197 40.695 104.677 40.635 105.172V105.247C40.635 105.247 40.515 105.277 40.44 105.247C38.715 105.082 36.99 105.127 35.265 105.127C35.1 105.127 34.92 105.142 34.77 105.067C34.65 105.007 34.56 104.932 34.575 104.782C34.59 104.662 34.695 104.602 34.8 104.572C34.92 104.542 35.04 104.542 35.16 104.542C36.36 104.542 37.56 104.542 38.76 104.542C39.015 104.542 39.255 104.572 39.45 104.782C39.615 104.962 39.855 104.932 40.065 104.857C40.26 104.782 40.29 104.587 40.275 104.392C40.26 104.197 40.14 104.137 39.96 104.107C39.705 104.077 39.39 104.107 39.405 103.702H39.555C39.84 103.807 40.14 103.927 40.425 103.702L40.41 103.717Z" fill="#636264"/>
<path d="M40.47 105.247H40.62C40.365 105.397 40.08 105.307 39.81 105.322C38.805 105.322 38.925 105.652 38.97 106.357C38.97 106.492 39.12 106.642 38.88 106.702L38.835 106.657C38.76 106.402 38.76 106.147 38.7 105.892C38.7 105.862 38.685 105.832 38.655 105.802C38.43 105.697 38.205 105.802 37.98 105.802C36.975 105.772 35.97 105.862 34.965 105.742C34.935 105.742 34.89 105.757 34.875 105.787C34.845 105.832 34.845 105.892 34.83 105.937C34.83 106.072 34.83 106.207 34.755 106.327C34.725 106.357 34.695 106.372 34.65 106.327V105.742C34.68 105.412 34.5 105.337 34.215 105.307C34.02 105.292 33.81 105.382 33.63 105.232C33.66 105.202 33.69 105.187 33.735 105.172C33.84 105.142 33.945 105.142 34.05 105.142C34.26 105.142 34.485 105.112 34.68 105.202C34.8 105.307 34.935 105.352 35.115 105.352C36.21 105.352 37.32 105.352 38.415 105.352C38.625 105.352 38.775 105.232 38.955 105.172C39.465 105.217 39.96 105.172 40.47 105.232V105.247Z" fill="#6B6B6C"/>
<path d="M38.805 102.277H35.1C34.98 102.337 34.86 102.397 34.815 102.202C36.045 102.202 37.275 102.202 38.505 102.202C38.61 102.202 38.73 102.172 38.805 102.277Z" fill="#636364"/>
<path d="M38.88 106.687C38.79 106.792 38.655 106.762 38.535 106.762C37.335 106.762 36.15 106.762 34.95 106.762C34.95 106.672 35.01 106.642 35.085 106.612C35.655 106.522 36.21 106.582 36.78 106.582C37.32 106.582 37.86 106.582 38.4 106.582C38.565 106.582 38.745 106.582 38.88 106.702V106.687Z" fill="#6B6B6C"/>
<path d="M35.0251 106.687L34.9501 106.762C34.8751 106.762 34.7851 106.777 34.7251 106.687C34.6801 106.567 34.6651 106.447 34.7251 106.327V105.892C34.9801 106.102 35.1301 106.477 35.0101 106.687H35.0251Z" fill="#555555"/>
<path d="M34.8 102.202C34.875 102.292 34.995 102.262 35.085 102.277C34.995 102.427 34.875 102.547 34.725 102.637L34.65 102.562V102.217H34.785L34.8 102.202Z" fill="#545354"/>
<path d="M40.6201 105.172V103.717C40.7401 104.197 40.7401 104.677 40.6201 105.172Z" fill="#676665"/>
<path d="M34.74 106.327V106.687C34.74 106.687 34.695 106.687 34.665 106.687V106.327H34.74Z" fill="#666566"/>
<path d="M33.72 105.247H33.645V103.732H34.08C33.855 104.122 33.84 104.527 33.93 104.947C33.975 105.127 33.87 105.202 33.72 105.262V105.247Z" fill="#5F5F5E"/>
<path d="M48.03 104.437C48.03 104.932 48.015 105.427 48.03 105.922C48.045 106.237 47.895 106.372 47.625 106.402C47.235 106.432 46.83 106.402 46.425 106.402C46.23 106.402 46.185 106.282 46.215 106.102C46.335 105.352 46.245 104.587 46.275 103.837C46.275 103.777 46.275 103.687 46.23 103.672C45.855 103.447 46.08 103.057 45.99 102.757C45.945 102.592 46.065 102.502 46.245 102.502C46.71 102.502 47.19 102.502 47.655 102.502C47.91 102.502 48.015 102.652 48.015 102.892C48.015 103.417 48.015 103.927 48.015 104.452L48.03 104.437Z" fill="#F2C167"/>
<path d="M61.92 103.942V105.247C61.815 105.247 61.725 105.247 61.665 105.142C61.53 104.932 61.665 104.107 61.845 103.942H61.92V103.942Z" fill="#F1C168"/>
<path d="M68.46 108.142C68.46 107.497 68.46 106.837 68.46 106.192C68.46 106.102 68.49 105.982 68.4 105.922C68.28 105.847 68.205 105.937 68.13 106.027C68.04 106.132 67.905 106.102 67.785 106.102C66.375 106.102 64.965 106.102 63.54 106.102C63.42 106.102 63.255 106.162 63.225 105.952C64.635 105.952 66.06 105.952 67.47 105.952C68.025 105.952 68.22 105.772 68.235 105.202C68.235 104.842 68.235 104.482 68.295 104.122C68.43 104.407 68.37 104.707 68.385 104.992C68.385 105.217 68.385 105.427 68.505 105.622C68.625 105.847 68.61 106.087 68.61 106.327C68.61 106.822 68.61 107.317 68.61 107.812C68.61 107.932 68.67 108.097 68.46 108.127V108.142Z" fill="#756959"/>
<path d="M70.2 108.502H68.46C68.49 108.277 68.64 108.217 68.85 108.217C69.075 108.217 69.315 108.217 69.54 108.217C69.81 108.217 69.93 108.112 69.93 107.827C69.915 107.302 69.93 106.762 69.93 106.237V106.027C69.93 105.892 69.96 105.742 70.095 105.757C70.215 105.757 70.215 105.907 70.215 106.027C70.215 106.312 70.215 106.612 70.215 106.897C70.215 107.437 70.215 107.977 70.215 108.517L70.2 108.502Z" fill="#6D604F"/>
<path d="M68.385 108.502C68.385 108.502 68.235 108.577 68.205 108.472C68.16 108.322 68.295 108.277 68.385 108.202V108.487V108.502Z" fill="#756959"/>
<path d="M70.995 105.172C70.995 105.172 70.845 105.172 70.77 105.172C71.04 104.737 70.74 104.302 70.77 103.867L70.845 103.942C71.265 104.362 71.31 104.557 71.13 104.962C71.04 105.007 70.98 105.082 70.98 105.172H70.995Z" fill="#686563"/>
<path d="M67.95 111.772C67.815 111.862 67.59 111.877 67.65 112.132C66.18 112.132 64.695 112.132 63.225 112.132C63.21 111.877 63.39 111.922 63.54 111.922C64.605 111.922 65.67 111.922 66.72 111.922C66.795 111.922 66.87 111.922 66.93 111.922C67.53 111.907 67.695 111.742 67.71 111.142C67.71 110.572 67.71 110.017 67.71 109.447C67.71 109.357 67.71 109.282 67.71 109.192C67.71 109.117 67.755 109.042 67.845 109.057C67.92 109.057 67.92 109.147 67.92 109.207C67.92 109.657 67.92 110.092 67.92 110.542C67.92 110.947 67.92 111.367 67.92 111.772H67.95Z" fill="#766958"/>
<path d="M71.145 104.947C71.25 104.557 71.01 104.257 70.86 103.927C71.55 104.077 72.255 103.957 72.945 104.002C73.11 104.002 73.365 103.897 73.44 104.092C73.53 104.347 73.5 104.632 73.44 104.902C73.44 104.947 73.35 105.007 73.305 105.007C72.585 104.992 71.865 105.112 71.145 104.947V104.947Z" fill="#666666"/>
<path d="M38.805 103.207C38.7 103.327 38.5501 103.282 38.4301 103.282C37.4401 103.282 36.45 103.282 35.4601 103.282C35.2651 103.282 35.0701 103.252 35.0101 103.522C35.0101 103.597 34.9201 103.642 34.8451 103.627C34.7251 103.612 34.7551 103.507 34.7401 103.417C34.9201 103.132 35.1601 103.042 35.4901 103.042C36.3301 103.072 37.1851 103.042 38.025 103.042C38.295 103.042 38.5501 103.087 38.805 103.192V103.207Z" fill="#666668"/>
<path d="M38.88 102.487C38.85 102.697 38.955 102.937 38.805 103.147C38.835 102.937 38.73 102.697 38.88 102.487Z" fill="#636364"/>
<path d="M40.47 105.247H38.94C38.745 105.337 38.55 105.352 38.34 105.352C37.275 105.352 36.225 105.352 35.16 105.352C34.98 105.352 34.8 105.352 34.635 105.247H33.975C33.93 105.067 33.87 104.902 33.84 104.722C33.765 104.302 33.84 103.942 34.26 103.717C35.58 104.002 36.915 103.807 38.235 103.852C38.61 103.852 39 103.912 39.345 103.717C39.45 104.002 39.69 104.032 39.945 104.002C40.32 103.957 40.38 104.197 40.365 104.467C40.365 104.722 40.32 105.022 39.96 105.022C39.675 105.022 39.345 105.127 39.21 104.722C39.165 104.617 38.985 104.662 38.865 104.662C37.59 104.662 36.3 104.662 35.025 104.662C34.875 104.662 34.62 104.572 34.605 104.797C34.605 105.022 34.845 105.007 35.025 105.007C36.285 105.007 37.545 104.962 38.79 105.037C39.33 105.067 39.9 105.112 40.44 105.232L40.47 105.247Z" fill="#666666"/>
<path d="M34.305 103.717C34.305 103.792 34.275 103.852 34.215 103.912C33.915 104.212 33.84 104.587 34.035 104.947C34.11 105.082 34.11 105.142 34.005 105.232H33.72C33.84 105.127 33.885 105.022 33.825 104.857C33.735 104.602 33.81 104.347 33.78 104.077C33.765 103.867 34.02 103.852 34.065 103.702H34.29L34.305 103.717Z" fill="#636362"/>
<path d="M40.41 103.717C40.245 104.032 39.945 104.032 39.54 103.717H40.41Z" fill="#626262"/>
<path d="M35.0251 106.687C35.0251 106.687 35.0851 106.552 35.0251 106.492C34.8601 106.327 34.8151 106.102 34.7401 105.907V105.757C34.9351 105.622 35.0551 105.772 35.1751 105.892C35.2501 106.042 35.4001 106.012 35.5351 106.012C36.3901 106.012 37.2451 106.012 38.1151 106.012C38.2651 106.012 38.4001 106.012 38.5201 105.892C38.6101 105.817 38.7 105.772 38.82 105.817C38.82 106.102 38.9401 106.387 38.8951 106.687H35.0401H35.0251Z" fill="#626263"/>
<path d="M34.665 105.247C36.09 105.247 37.53 105.247 38.955 105.247C38.835 105.412 38.67 105.472 38.46 105.472C37.335 105.472 36.195 105.472 35.07 105.472C34.89 105.472 34.74 105.457 34.68 105.247H34.665Z" fill="#686869"/>
<path d="M35.1001 105.892C34.9801 105.832 34.8901 105.712 34.7401 105.742C34.7701 105.562 34.9051 105.592 35.0251 105.607C36.1651 105.727 37.32 105.682 38.46 105.637C38.565 105.637 38.745 105.547 38.82 105.742C38.46 105.982 38.0701 106.012 37.6501 105.997C36.9451 105.982 36.2551 105.997 35.5501 105.997C35.4001 105.997 35.2351 105.997 35.1001 105.892Z" fill="#686869"/>
<path d="M35.1 105.892C36.33 105.832 37.575 106.042 38.805 105.742V105.817C38.46 106.117 38.055 106.117 37.62 106.117C36.885 106.102 36.15 106.117 35.415 106.117C35.265 106.117 35.085 106.147 35.1 105.907V105.892Z" fill="#656566"/>
<path d="M46.815 67.2217H45.9V81.7567H46.815V67.2217Z" fill="#323334"/>
<path d="M40.755 67.2217H39.84V81.7567H40.755V67.2217Z" fill="#323334"/>
<path d="M39.09 56.6316H47.565C48.57 56.6316 49.38 57.4416 49.38 58.4466V72.9816C49.38 73.9866 48.57 74.7966 47.565 74.7966H39.09C38.085 74.7966 37.275 73.9866 37.275 72.9816V58.4466C37.275 57.4416 38.085 56.6316 39.09 56.6316V56.6316Z" fill="#323334"/>
<path d="M49.38 70.2517H37.275V75.0967H49.38V70.2517Z" fill="#1E1E1E"/>
<path d="M50.595 72.6665H36.06V75.0815H50.595V72.6665Z" fill="#1E1E1E"/>
<path fill-rule="evenodd" clip-rule="evenodd" d="M64.635 30.0366C59.31 30.1416 55.65 33.0066 55.17 38.0766C55.005 39.7566 54.885 41.4966 54.84 43.1766V45.9516C54.93 48.4716 55.26 50.7816 56.01 52.5516C57.435 55.9266 59.91 57.9516 64.35 58.0416H65.055C69.93 57.9366 73.095 56.5416 74.7 50.9466C76.305 45.3516 75.15 37.3116 73.65 34.4766C72.15 31.6416 69.825 30.1266 65.28 30.0366H64.65H64.635Z" fill="#04549F"/>
<path fill-rule="evenodd" clip-rule="evenodd" d="M71.445 48.9216L66.54 44.0166L71.415 39.1416L64.2 32.0466V41.6916L60.12 37.6116L58.65 39.0816L63.645 44.0766L58.62 49.1016L60.09 50.5716L64.2 46.4616V56.1666L71.445 48.9366V48.9216ZM66.09 36.6366L68.58 39.1866L66.09 41.6766V36.6366ZM66.09 46.2816L68.58 48.8316L66.09 51.3216V46.2816Z" fill="white"/>
<path d="M88.62 107.662H86.415V114.727H88.62V107.662Z" fill="#A6A29F"/>
<path d="M96.555 104.947C96.555 108.352 93.795 107.587 90.375 107.587C86.955 107.587 84.195 108.352 84.195 104.947V96.1265C84.195 92.7215 86.955 89.9465 90.375 89.9465C93.795 89.9465 96.555 92.7065 96.555 96.1265V104.947Z" fill="#7EBFB7"/>
<path d="M98.31 104.136H82.44V107.661H98.31V104.136Z" fill="#7EBFB7"/>
<path d="M94.35 107.662H92.145V114.727H94.35V107.662Z" fill="#A6A29F"/>
<g style="mix-blend-mode:multiply" opacity="0.4">
<path d="M88.62 98.8416H86.415V104.137H88.62V98.8416Z" fill="#A6A29F"/>
</g>
<g style="mix-blend-mode:multiply" opacity="0.4">
<path d="M94.35 98.8416H92.145V104.137H94.35V98.8416Z" fill="#A6A29F"/>
</g>
<path d="M87.735 107.662H86.415V121.942H87.735V107.662Z" fill="#A6A29F"/>
<path d="M94.35 107.662H93.03V121.942H94.35V107.662Z" fill="#A6A29F"/>
<path d="M110.205 107.722H108V114.787H110.205V107.722Z" fill="#A6A29F"/>
<path d="M118.14 104.992C118.14 108.397 115.38 107.632 111.96 107.632C108.54 107.632 105.78 108.397 105.78 104.992V96.1717C105.78 92.7667 108.54 89.9917 111.96 89.9917C115.38 89.9917 118.14 92.7517 118.14 96.1717V104.992Z" fill="#BD99FF"/>
<path d="M119.91 104.182H104.04V107.707H119.91V104.182Z" fill="#A797C4"/>
<path d="M115.935 107.722H113.73V114.787H115.935V107.722Z" fill="#A6A29F"/>
<g style="mix-blend-mode:multiply" opacity="0.4">
<path d="M110.205 98.9016H108V104.197H110.205V98.9016Z" fill="#A6A29F"/>
</g>
<g style="mix-blend-mode:multiply" opacity="0.4">
<path d="M115.935 98.9016H113.73V104.197H115.935V98.9016Z" fill="#A6A29F"/>
</g>
<path d="M109.32 107.722H108V122.002H109.32V107.722Z" fill="#A6A29F"/>
<path d="M115.935 107.722H114.615V122.002H115.935V107.722Z" fill="#A6A29F"/>
<path d="M130.53 24.0216L127.08 24.9066L126.495 21.9666C126.495 24.8616 124.14 27.2016 121.2 27.2316C118.245 27.2766 115.8 24.9516 115.755 22.0266C115.71 19.1166 118.08 16.7316 121.05 16.7016C123.33 16.6716 125.295 18.0366 126.105 20.0016L124.245 10.6266C123.69 10.4766 123.105 10.3716 122.535 10.2966L121.53 12.4416L119.16 12.6366L117.825 10.6716C116.94 10.9116 116.085 11.2716 115.275 11.7216L115.755 14.0316L113.955 15.5616L111.705 14.7366C111.15 15.4416 110.67 16.1916 110.295 16.9866L112.065 18.5916L111.495 20.8566L109.185 21.4866C109.155 22.3866 109.215 23.3016 109.395 24.2016L111.78 24.4866L112.68 26.6466L111.18 28.4916C111.435 28.8666 111.705 29.2266 112.005 29.5716C112.305 29.9316 112.635 30.2616 112.98 30.5766L115.08 29.4216L117.105 30.6516L117 33.0066C117.87 33.3216 118.77 33.5316 119.685 33.6516L120.69 31.5066L123.06 31.3266L124.38 33.2916C125.265 33.0516 126.12 32.7066 126.945 32.2566L126.465 29.9466L128.28 28.4316L130.53 29.2566C131.115 28.5366 131.595 27.7566 131.97 26.9316L130.2 25.3266L130.515 24.0366L130.53 24.0216Z" fill="#BD99FF"/>
<path d="M130.11 21.8167C129.48 21.8167 128.97 21.6367 128.55 21.2767C128.13 20.9167 127.935 20.2267 127.935 19.2067V2.96167H120.57V6.21667H123.945V18.9217C123.945 20.9767 124.365 22.5517 125.205 23.6167C126.045 24.6967 127.395 25.2217 129.225 25.2217C129.9 25.2217 130.5 25.1767 131.025 25.0867C131.55 24.9967 132 24.9067 132.375 24.7867C132.705 24.6817 132.96 24.5917 133.185 24.4867V21.0667C133.02 21.1267 132.66 21.2617 132.12 21.4867C131.58 21.6967 130.905 21.8017 130.11 21.8017V21.8167Z" fill="#1E1E1E"/>
<path d="M149.115 25.2366H136.485V28.4766H149.115V25.2366Z" fill="#BD99FF"/>
<path d="M150 66.4116H0V83.2116H150V66.4116Z" fill="url(#paint0_linear_9024_72181)"/>
</g>
<defs>
<linearGradient id="paint0_linear_9024_72181" x1="75" y1="79.7766" x2="75" y2="65.0466" gradientUnits="userSpaceOnUse">
<stop stop-color="white" stop-opacity="0"/>
<stop offset="0.08" stop-color="#BD99FF" stop-opacity="0.2"/>
<stop offset="0.18" stop-color="#BD99FF" stop-opacity="0.41"/>
<stop offset="0.29" stop-color="#BD99FF" stop-opacity="0.59"/>
<stop offset="0.41" stop-color="#BD99FF" stop-opacity="0.74"/>
<stop offset="0.53" stop-color="#BD99FF" stop-opacity="0.86"/>
<stop offset="0.66" stop-color="#BD99FF" stop-opacity="0.94"/>
<stop offset="0.8" stop-color="#BD99FF" stop-opacity="0.98"/>
<stop offset="1" stop-color="#BD99FF"/>
</linearGradient>
<clipPath id="clip0_9024_72181">
<rect width="150" height="150" fill="white" transform="translate(0 0.0517578)"/>
</clipPath>
</defs>
</svg>
