<svg width="150" height="150" viewBox="0 0 150 150" fill="none" xmlns="http://www.w3.org/2000/svg">
<g clip-path="url(#clip0_8693_72171)">
<path d="M56.835 112.53H98.595L98.79 129.465H56.655L56.835 112.53Z" fill="#F8F8F8"/>
<path d="M96.765 118.32L96.06 114.495L59.505 114.615L58.77 118.62L96.765 118.32Z" fill="#F8F8F8"/>
<path d="M57.135 127.005L56.655 129.465H98.79L97.995 126.855L57.135 127.005Z" fill="#C6C6C6"/>
<path d="M57.135 126.99L56.67 129.45H98.7901L97.9951 126.84L57.135 126.99Z" fill="#C7C7C7"/>
<path d="M57.135 126.96L56.67 129.435L98.7901 129.42L98.01 126.81L57.135 126.96Z" fill="#C8C8C8"/>
<path d="M57.15 126.93L56.67 129.42L98.7901 129.405L98.01 126.795L57.15 126.93Z" fill="#C9C9C9"/>
<path d="M57.15 126.9L56.67 129.405L98.775 129.39L98.01 126.765L57.15 126.9Z" fill="#C9C9C9"/>
<path d="M57.15 126.885L56.67 129.39L98.775 129.375L98.01 126.75L57.15 126.885Z" fill="#CACACA"/>
<path d="M57.165 126.855L56.67 129.375L98.775 129.36L98.01 126.72L57.165 126.855Z" fill="#CBCBCB"/>
<path d="M57.1651 126.825L56.6851 129.36L98.7751 129.33L98.0101 126.705L57.1651 126.825Z" fill="#CCCCCC"/>
<path d="M57.1651 126.795L56.6851 129.345L98.7601 129.315L98.0101 126.675L57.1651 126.795Z" fill="#CDCDCD"/>
<path d="M57.1801 126.765L56.6851 129.33L98.7601 129.3L98.0101 126.66L57.1801 126.765Z" fill="#CECDCD"/>
<path d="M57.1801 126.75L56.6851 129.3L98.7601 129.285L98.0101 126.63L57.1801 126.75Z" fill="#CECECE"/>
<path d="M57.1801 126.72L56.6851 129.285L98.7601 129.27L98.0101 126.615L57.1801 126.72Z" fill="#CFCFCF"/>
<path d="M57.1951 126.69L56.7001 129.27L98.7601 129.24L98.0101 126.585L57.1951 126.69Z" fill="#D0D0D0"/>
<path d="M57.1951 126.66L56.7001 129.255L98.7451 129.225L98.0251 126.57L57.1951 126.66Z" fill="#D1D1D1"/>
<path d="M57.1951 126.63L56.7001 129.24L98.7451 129.21L98.0251 126.54L57.1951 126.63Z" fill="#D2D1D1"/>
<path d="M57.2101 126.615L56.7001 129.225L98.7451 129.195L98.0251 126.525L57.2101 126.615Z" fill="#D2D2D2"/>
<path d="M57.2101 126.585L56.7001 129.21L98.7451 129.18L98.0251 126.51L57.2101 126.585Z" fill="#D3D3D3"/>
<path d="M57.21 126.555L56.715 129.195L98.73 129.15L98.025 126.48L57.21 126.555Z" fill="#D4D4D4"/>
<path d="M57.225 126.525L56.715 129.18L98.73 129.135L98.025 126.465L57.225 126.525Z" fill="#D5D5D5"/>
<path d="M57.225 126.495L56.715 129.165L98.73 129.12L98.025 126.435L57.225 126.495Z" fill="#D6D6D6"/>
<path d="M57.225 126.48L56.715 129.15L98.73 129.105L98.025 126.42L57.225 126.48Z" fill="#D7D6D6"/>
<path d="M57.24 126.45L56.715 129.135L98.73 129.09L98.025 126.39L57.24 126.45Z" fill="#D8D7D7"/>
<path d="M57.24 126.42L56.73 129.12L98.715 129.06L98.025 126.375L57.24 126.42Z" fill="#D8D8D8"/>
<path d="M57.255 126.39L56.73 129.105L98.715 129.045L98.04 126.345L57.255 126.39Z" fill="#D9D9D9"/>
<path d="M57.255 126.375L56.73 129.09L98.715 129.03L98.04 126.33L57.255 126.375Z" fill="#DADADA"/>
<path d="M57.255 126.345L56.73 129.075L98.715 129.015L98.04 126.3L57.255 126.345Z" fill="#DBDBDB"/>
<path d="M57.27 126.315L56.73 129.06L98.7 129L98.04 126.285L57.27 126.315Z" fill="#DCDCDB"/>
<path d="M57.27 126.285L56.745 129.045L98.7 128.97L98.04 126.255L57.27 126.285Z" fill="#DDDCDC"/>
<path d="M57.27 126.255L56.745 129.03L98.7 128.955L98.04 126.24L57.27 126.255Z" fill="#DEDDDD"/>
<path d="M57.285 126.24L56.745 129.015L98.7 128.94L98.04 126.21L57.285 126.24Z" fill="#DFDEDE"/>
<path d="M57.285 126.21L56.745 129L98.7 128.925L98.04 126.195L57.285 126.21Z" fill="#DFDFDF"/>
<path d="M57.285 126.18L56.745 128.985L98.685 128.91L98.04 126.165L57.285 126.18Z" fill="#E0E0E0"/>
<path d="M57.3 126.15L56.76 128.97L98.685 128.88L98.04 126.15H57.3Z" fill="#E1E1E1"/>
<path d="M57.3 126.12L56.76 128.955L98.685 128.865L98.04 126.12H57.3Z" fill="#E2E2E2"/>
<path d="M57.3 126.105L56.76 128.94L98.685 128.85L98.055 126.105H57.3Z" fill="#E3E3E2"/>
<path d="M57.315 126.075L56.76 128.925L98.685 128.835L98.055 126.075H57.315Z" fill="#E4E3E3"/>
<path d="M57.315 126.045L56.76 128.91L98.67 128.82L98.055 126.06L57.315 126.045Z" fill="#E5E4E4"/>
<path d="M57.315 126.015L56.775 128.895L98.67 128.79L98.055 126.03L57.315 126.015Z" fill="#E5E5E5"/>
<path d="M57.33 125.985L56.775 128.88L98.67 128.775L98.055 126.015L57.33 125.985Z" fill="#E6E6E6"/>
<path d="M57.33 125.97L56.775 128.865L98.67 128.76L98.055 125.985L57.33 125.97Z" fill="#E7E7E7"/>
<path d="M57.33 125.94L56.775 128.85L98.655 128.745L98.055 125.97L57.33 125.94Z" fill="#E8E8E8"/>
<path d="M57.345 125.91L56.775 128.835L98.655 128.73L98.055 125.955L57.345 125.91Z" fill="#E9E9E9"/>
<path d="M57.345 125.88L56.79 128.82L98.655 128.7L98.055 125.925L57.345 125.88Z" fill="#EAEAEA"/>
<path d="M57.345 125.865L56.79 128.805L98.655 128.685L98.055 125.91L57.345 125.865Z" fill="#EBEAEA"/>
<path d="M57.36 125.835L56.79 128.79L98.655 128.67L98.07 125.88L57.36 125.835Z" fill="#ECEBEB"/>
<path d="M57.36 125.805L56.79 128.775L98.64 128.655L98.07 125.865L57.36 125.805Z" fill="#ECECEC"/>
<path d="M57.36 125.775L56.79 128.76L98.64 128.625L98.07 125.835L57.36 125.775Z" fill="#EDEDED"/>
<path d="M57.3751 125.745L56.8051 128.73L98.6401 128.61L98.0701 125.82L57.3751 125.745Z" fill="#EEEEEE"/>
<path d="M57.3751 125.73L56.8051 128.715L98.6401 128.595L98.0701 125.79L57.3751 125.73Z" fill="#EFEFEF"/>
<path d="M57.3751 125.7L56.8051 128.7L98.6251 128.58L98.0701 125.775L57.3751 125.7Z" fill="#F0F0F0"/>
<path d="M57.3901 125.67L56.8051 128.685L98.6251 128.565L98.0701 125.745L57.3901 125.67Z" fill="#F1F1F1"/>
<path d="M57.3901 125.64L56.8051 128.67L98.6251 128.535L98.0701 125.73L57.3901 125.64Z" fill="#F2F2F1"/>
<path d="M57.3901 125.61L56.8201 128.655L98.6251 128.52L98.0701 125.7L57.3901 125.61Z" fill="#F3F2F2"/>
<path d="M57.4051 125.595L56.8201 128.64L98.6251 128.505L98.0701 125.685L57.4051 125.595Z" fill="#F4F3F3"/>
<path d="M57.4051 125.565L56.8201 128.625L98.6101 128.49L98.0701 125.655L57.4051 125.565Z" fill="#F4F4F4"/>
<path d="M57.4051 125.535L56.8201 128.61L98.6101 128.475L98.0851 125.64L57.4051 125.535Z" fill="#F5F5F5"/>
<path d="M57.4201 125.505L56.8201 128.595L98.6101 128.445L98.0851 125.61L57.4201 125.505Z" fill="#F6F6F6"/>
<path d="M57.4201 125.475L56.8351 128.58L98.6101 128.43L98.0851 125.595L57.4201 125.475Z" fill="#F7F7F7"/>
<path d="M57.4351 125.46L56.8351 128.565L98.5951 128.415L98.0851 125.565L57.4351 125.46Z" fill="#F8F8F8"/>
<path d="M103.905 130.38L98.79 129.465H56.655L51.54 130.38C51.39 130.41 51.27 130.545 51.27 130.71V131.73C51.27 131.865 51.375 131.97 51.51 131.97H103.935C104.07 131.97 104.175 131.865 104.175 131.73V130.71C104.175 130.545 104.055 130.41 103.905 130.38Z" fill="#F6F4F4"/>
<path d="M102.6 130.14L98.79 129.465H56.655L52.86 130.14H102.6Z" fill="#BFBDBD"/>
<path d="M56.5801 129.48L55.3501 129.705L52.8301 130.17H102.63L100.11 129.705L98.8801 129.48H98.5501H56.5801Z" fill="#C0BEBE"/>
<path d="M56.49 129.495L55.275 129.72L52.8 130.2H53.085C53.085 130.2 102.63 130.2 102.645 130.2L100.17 129.72L98.9551 129.495H98.625C98.625 129.495 56.505 129.495 56.49 129.495Z" fill="#C1BFBF"/>
<path d="M56.415 129.51L55.215 129.735L52.785 130.215H53.07C53.07 130.215 102.66 130.215 102.675 130.215L100.245 129.735L99.045 129.51H98.715C98.715 129.51 56.445 129.51 56.43 129.51H56.415Z" fill="#C2C0C0"/>
<path d="M56.34 129.525L55.155 129.75L52.755 130.245L53.04 130.26C53.04 130.26 102.675 130.26 102.69 130.245L100.29 129.75L99.105 129.525H98.775C98.775 129.525 56.355 129.525 56.325 129.525H56.34Z" fill="#C3C1C1"/>
<path d="M56.2501 129.54L55.0801 129.765L52.7251 130.26L53.0101 130.275C53.0101 130.275 102.705 130.275 102.72 130.26L100.365 129.765C100.365 129.765 99.2101 129.54 99.1951 129.54H98.8651C98.8651 129.54 56.2951 129.54 56.2501 129.54Z" fill="#C3C2C2"/>
<path d="M56.1751 129.555C56.1751 129.555 55.0201 129.78 55.0201 129.795L52.7101 130.305C52.7101 130.305 52.9801 130.335 52.9951 130.335C52.9951 130.335 102.735 130.335 102.75 130.305L100.44 129.795C100.44 129.795 99.3001 129.57 99.2851 129.555H98.9551C98.9551 129.555 56.2351 129.555 56.1901 129.555H56.1751Z" fill="#C4C2C3"/>
<path d="M56.0851 129.57C56.0851 129.57 54.9451 129.78 54.9451 129.81L52.6801 130.335C52.6801 130.335 52.9501 130.365 52.9651 130.365C52.9651 130.365 102.75 130.365 102.78 130.335L100.515 129.81C100.515 129.81 99.3901 129.585 99.3751 129.57H99.0301C99.0301 129.57 56.1451 129.57 56.1001 129.57H56.0851Z" fill="#C5C3C3"/>
<path d="M56.01 129.585C56.01 129.585 54.885 129.795 54.885 129.825L52.65 130.35C52.65 130.35 52.92 130.38 52.935 130.38C52.935 130.38 102.765 130.38 102.795 130.35L100.56 129.825C100.56 129.825 99.45 129.585 99.435 129.585H99.09C99.09 129.585 56.055 129.585 55.995 129.585H56.01Z" fill="#C6C4C4"/>
<path d="M55.935 129.585C55.935 129.585 54.825 129.795 54.825 129.825L52.635 130.365C52.635 130.365 52.905 130.395 52.92 130.395C52.92 130.395 102.795 130.395 102.825 130.365L100.635 129.825C100.635 129.825 99.54 129.585 99.525 129.585H99.18C99.18 129.585 55.995 129.585 55.935 129.585Z" fill="#C7C5C5"/>
<path d="M55.845 129.6C55.845 129.6 54.75 129.81 54.75 129.84L52.605 130.38C52.605 130.38 52.875 130.425 52.89 130.425C52.89 130.425 102.81 130.425 102.855 130.38L100.71 129.84C100.71 129.84 99.645 129.6 99.615 129.6H99.27C99.27 129.6 55.935 129.6 55.86 129.6H55.845Z" fill="#C8C6C6"/>
<path d="M55.7701 129.615C55.7701 129.615 54.6901 129.825 54.6901 129.855L52.5751 130.41C52.5751 130.41 52.8301 130.455 52.8601 130.455C52.8601 130.455 102.825 130.455 102.87 130.41L100.755 129.855C100.755 129.855 99.7051 129.615 99.6751 129.615H99.3301C99.3301 129.615 55.8451 129.615 55.7551 129.615H55.7701Z" fill="#C9C7C7"/>
<path d="M55.68 129.63C55.68 129.63 54.615 129.84 54.615 129.87L52.545 130.44C52.545 130.44 52.8 130.485 52.83 130.485C52.83 130.485 102.855 130.485 102.9 130.44L100.83 129.87C100.83 129.87 99.7951 129.63 99.7651 129.63H99.42C99.42 129.63 55.77 129.615 55.695 129.63H55.68Z" fill="#C9C7C8"/>
<path d="M55.605 129.645C55.605 129.645 54.555 129.855 54.555 129.885L52.53 130.455C52.53 130.455 52.785 130.5 52.815 130.5C52.815 130.5 102.885 130.5 102.93 130.455L100.905 129.885C100.905 129.885 99.885 129.645 99.855 129.645H99.51C99.51 129.645 55.71 129.63 55.62 129.645H55.605Z" fill="#CAC8C8"/>
<path d="M55.53 129.66C55.53 129.66 54.495 129.87 54.495 129.9L52.5 130.485C52.5 130.485 52.755 130.545 52.785 130.545C52.785 130.545 102.9 130.545 102.945 130.485L100.95 129.9C100.95 129.9 99.945 129.66 99.915 129.66H99.555C99.555 129.66 55.605 129.645 55.5 129.66H55.53Z" fill="#CBC9C9"/>
<path d="M55.44 129.675C55.44 129.675 54.42 129.885 54.42 129.915L52.47 130.5C52.47 130.5 52.725 130.56 52.755 130.56C52.755 130.56 102.915 130.56 102.975 130.5L101.025 129.915C101.025 129.915 100.05 129.675 100.005 129.675H99.645C99.645 129.675 55.545 129.66 55.44 129.675Z" fill="#CCCACA"/>
<path d="M55.3651 129.69C55.3651 129.69 54.3601 129.9 54.3601 129.945L52.4551 130.545C52.4551 130.545 52.6951 130.605 52.7401 130.605C52.7401 130.605 102.945 130.605 103.005 130.545L101.1 129.945C101.1 129.945 100.14 129.705 100.095 129.69H99.7351C99.7351 129.69 55.4851 129.675 55.3651 129.69Z" fill="#CDCBCB"/>
<path d="M55.275 129.705C55.275 129.705 54.285 129.915 54.285 129.96L52.425 130.575C52.425 130.575 52.665 130.635 52.71 130.635C52.71 130.635 102.96 130.635 103.035 130.575L101.175 129.96C101.175 129.96 100.23 129.72 100.185 129.705L99.8251 129.675C99.8251 129.675 55.425 129.675 55.29 129.705H55.275Z" fill="#CECCCC"/>
<path d="M55.2 129.72C55.2 129.72 54.225 129.93 54.225 129.975L52.395 130.59C52.395 130.59 52.635 130.665 52.68 130.665C52.68 130.665 102.975 130.665 103.05 130.59L101.22 129.975C101.22 129.975 100.29 129.735 100.245 129.72L99.885 129.69C99.885 129.69 55.32 129.69 55.2 129.72Z" fill="#CECCCD"/>
<path d="M55.11 129.735C55.11 129.735 54.15 129.945 54.15 129.99L52.365 130.62C52.365 130.62 52.605 130.695 52.65 130.695C52.65 130.695 103.005 130.695 103.065 130.62L101.28 129.99C101.28 129.99 100.365 129.75 100.32 129.735L99.96 129.705C99.96 129.705 55.245 129.705 55.11 129.735Z" fill="#CFCDCD"/>
<path d="M55.035 129.75C55.035 129.75 54.09 129.96 54.09 130.005L52.35 130.635C52.35 130.635 52.59 130.71 52.62 130.71C52.62 130.71 103.02 130.71 103.095 130.635L101.355 130.005C101.355 130.005 100.47 129.765 100.41 129.75L100.035 129.72C100.035 129.72 55.17 129.72 55.02 129.75H55.035Z" fill="#D0CECE"/>
<path d="M54.9601 129.765C54.9601 129.765 54.0301 129.975 54.0301 130.02L52.3201 130.665C52.3201 130.665 52.5451 130.74 52.5901 130.74C52.5901 130.74 103.035 130.74 103.11 130.665L101.4 130.02C101.4 130.02 100.53 129.765 100.47 129.765L100.095 129.735C100.095 129.735 55.0801 129.735 54.9301 129.765H54.9601Z" fill="#D1CFCF"/>
<path d="M54.87 129.78C54.87 129.78 53.955 129.99 53.955 130.035L52.29 130.695C52.29 130.695 52.515 130.785 52.56 130.785C52.56 130.785 103.05 130.785 103.14 130.695L101.475 130.035C101.475 130.035 100.62 129.78 100.56 129.78L100.185 129.75C100.185 129.75 55.02 129.75 54.855 129.78H54.87Z" fill="#D2D0D0"/>
<path d="M54.795 129.795C54.795 129.795 53.895 129.99 53.895 130.05L52.275 130.71C52.275 130.71 52.5 130.8 52.545 130.8C52.545 130.8 103.08 130.8 103.17 130.71L101.55 130.05C101.55 130.05 100.71 129.795 100.65 129.795L100.275 129.765C100.275 129.765 54.96 129.765 54.78 129.795H54.795Z" fill="#D3D1D1"/>
<path d="M54.705 129.81C54.705 129.81 53.82 130.005 53.82 130.065L52.245 130.74C52.245 130.74 52.47 130.83 52.515 130.83C52.515 130.83 103.095 130.83 103.185 130.74L101.61 130.065C101.61 130.065 100.785 129.81 100.725 129.81L100.35 129.78C100.35 129.78 54.87 129.78 54.705 129.81Z" fill="#D4D1D2"/>
<path d="M54.63 129.825C54.63 129.825 53.775 130.02 53.775 130.095L52.23 130.77C52.23 130.77 52.455 130.86 52.5 130.86C52.5 130.86 103.125 130.86 103.23 130.77L101.685 130.095C101.685 130.095 100.89 129.84 100.83 129.825L100.455 129.795C100.455 129.795 54.825 129.795 54.645 129.825H54.63Z" fill="#D4D2D3"/>
<path d="M54.5551 129.84C54.5551 129.84 53.7151 130.035 53.7151 130.11L52.2151 130.8C52.2151 130.8 52.4251 130.905 52.4851 130.905C52.4851 130.905 103.17 130.905 103.26 130.8L101.76 130.11C101.76 130.11 100.98 129.855 100.92 129.84L100.53 129.81C100.53 129.81 54.7501 129.81 54.5551 129.84Z" fill="#D5D3D3"/>
<path d="M54.4651 129.855C54.4651 129.855 53.6401 130.05 53.6401 130.125L52.1851 130.83C52.1851 130.83 52.3951 130.935 52.4551 130.935C52.4551 130.935 103.185 130.935 103.29 130.83L101.835 130.125C101.835 130.125 101.07 129.87 101.01 129.855L100.62 129.825C100.62 129.825 54.6901 129.825 54.4951 129.855H54.4651Z" fill="#D6D4D4"/>
<path d="M54.39 129.87C54.39 129.87 53.58 130.065 53.58 130.14L52.155 130.845C52.155 130.845 52.365 130.95 52.425 130.95C52.425 130.95 103.2 130.95 103.305 130.845L101.88 130.14C101.88 130.14 101.13 129.885 101.07 129.87L100.68 129.84C100.68 129.84 54.6 129.84 54.39 129.87Z" fill="#D7D5D5"/>
<path d="M54.3 129.885C54.3 129.885 53.505 130.08 53.505 130.155L52.125 130.875C52.125 130.875 52.335 130.98 52.395 130.98C52.395 130.98 103.215 130.98 103.32 130.875L101.94 130.155C101.94 130.155 101.22 129.9 101.145 129.885L100.755 129.84C100.755 129.84 54.525 129.84 54.3 129.885Z" fill="#D8D6D6"/>
<path d="M54.225 129.9C54.225 129.9 53.445 130.095 53.445 130.17L52.11 130.89C52.11 130.89 52.32 131.01 52.38 131.01C52.38 131.01 103.245 131.01 103.365 130.89L102.03 130.17C102.03 130.095 101.325 129.915 101.25 129.9L100.86 129.855C100.86 129.855 54.465 129.855 54.24 129.9H54.225Z" fill="#D9D7D7"/>
<path d="M54.1501 129.915C54.0751 129.915 53.3851 130.11 53.3851 130.185L52.0801 130.92C52.0801 130.92 52.2751 131.04 52.3501 131.04C52.3501 131.04 103.26 131.04 103.38 130.92L102.075 130.185C102.075 130.11 101.385 129.93 101.31 129.915L100.92 129.87C100.92 129.87 54.3751 129.87 54.1501 129.915Z" fill="#DAD8D8"/>
<path d="M54.06 129.93C53.985 129.93 53.31 130.125 53.31 130.2L52.05 130.95C52.05 130.95 52.245 131.07 52.32 131.07C52.32 131.07 103.275 131.07 103.41 130.95L102.15 130.2C102.15 130.125 101.475 129.945 101.4 129.93L101.01 129.885C101.01 129.885 54.315 129.885 54.075 129.93H54.06Z" fill="#DBD8D8"/>
<path d="M53.985 129.945C53.91 129.945 53.25 130.14 53.25 130.215L52.035 130.965C52.035 130.965 52.23 131.085 52.305 131.085C52.305 131.085 103.32 131.085 103.44 130.965L102.225 130.215C102.225 130.125 101.565 129.96 101.49 129.945L101.085 129.9C101.085 129.9 54.24 129.9 53.985 129.945Z" fill="#DBD9D9"/>
<path d="M53.895 129.96C53.805 129.975 53.175 130.155 53.175 130.245L52.005 131.01C52.005 131.01 52.2 131.145 52.275 131.145C52.275 131.145 103.335 131.145 103.455 131.01L102.285 130.245C102.285 130.155 101.655 129.975 101.565 129.96L101.16 129.915C101.16 129.915 54.165 129.915 53.91 129.96H53.895Z" fill="#DCDADA"/>
<path d="M53.82 129.975C53.73 129.99 53.115 130.17 53.115 130.26L51.975 131.025C51.975 131.025 52.17 131.16 52.245 131.16C52.245 131.16 103.35 131.16 103.485 131.025L102.345 130.26C102.345 130.17 101.73 129.99 101.64 129.975L101.235 129.93C101.235 129.93 54.09 129.93 53.82 129.975Z" fill="#DDDBDB"/>
<path d="M53.7301 129.99C53.6401 130.005 53.0401 130.185 53.0401 130.275L51.9451 131.055C51.9451 131.13 52.1251 131.19 52.2151 131.19C52.2151 131.19 103.365 131.19 103.5 131.055L102.405 130.275C102.405 130.185 101.805 130.005 101.715 129.99L101.31 129.945C101.31 129.945 54.0001 129.945 53.7301 129.99Z" fill="#DEDCDC"/>
<path d="M53.6551 130.005C53.5651 130.02 52.9801 130.2 52.9801 130.29L51.9301 131.085C51.9301 131.16 52.1101 131.22 52.2001 131.22C52.2001 131.22 103.395 131.22 103.545 131.085L102.495 130.29C102.495 130.2 101.91 130.02 101.82 130.005L101.415 129.96C101.415 129.96 53.9551 129.96 53.6851 130.005H53.6551Z" fill="#DFDDDD"/>
<path d="M53.58 130.005C53.49 130.02 52.92 130.2 52.92 130.29L51.9 131.085C51.9 131.16 52.08 131.235 52.155 131.235C52.155 131.235 103.395 131.235 103.545 131.085L102.525 130.29C102.525 130.2 101.955 130.02 101.865 130.005L101.46 129.96C101.46 129.96 53.85 129.96 53.565 130.005H53.58Z" fill="#E0DEDE"/>
<path d="M53.49 130.02C53.4 130.035 52.845 130.2 52.845 130.305L51.87 131.115C51.87 131.19 52.05 131.265 52.125 131.265C52.125 131.265 103.41 131.265 103.56 131.115L102.585 130.305C102.585 130.2 102.045 130.035 101.94 130.02L101.52 129.975C101.52 129.975 53.76 129.975 53.46 130.02H53.49Z" fill="#E1DEDF"/>
<path d="M53.415 130.035C53.31 130.05 52.785 130.215 52.785 130.32L51.855 131.13C51.855 131.22 52.035 131.28 52.11 131.28C52.11 131.28 103.455 131.28 103.605 131.13L102.675 130.32C102.675 130.215 102.15 130.05 102.045 130.035L101.625 129.975C101.625 129.975 53.715 129.975 53.415 130.035Z" fill="#E2DFDF"/>
<path d="M53.3251 130.05C53.2201 130.065 52.7101 130.23 52.7101 130.335L51.8101 131.16C51.8101 131.25 51.9901 131.31 52.0651 131.31C52.0651 131.31 103.455 131.31 103.605 131.16L102.705 130.335C102.705 130.23 102.195 130.065 102.09 130.05L101.67 129.99C101.67 129.99 53.6101 129.99 53.2951 130.05H53.3251Z" fill="#E2E0E0"/>
<path d="M53.25 130.065C53.145 130.08 52.65 130.245 52.65 130.35L51.795 131.19C51.795 131.28 51.96 131.355 52.05 131.355C52.05 131.355 103.485 131.355 103.65 131.19L102.795 130.35C102.795 130.245 102.3 130.08 102.195 130.065L101.775 130.005C101.775 130.005 53.55 130.005 53.235 130.065H53.25Z" fill="#E3E1E1"/>
<path d="M53.175 130.08C53.07 130.095 52.59 130.26 52.59 130.38L51.78 131.22C51.78 131.31 51.945 131.385 52.035 131.385C52.035 131.385 103.515 131.385 103.68 131.22L102.87 130.38C102.87 130.275 102.39 130.11 102.285 130.08L101.865 130.02C101.865 130.02 53.49 130.02 53.175 130.08Z" fill="#E4E2E2"/>
<path d="M53.085 130.095C52.98 130.11 52.515 130.275 52.515 130.395L51.75 131.25C51.75 131.34 51.915 131.415 52.005 131.415C52.005 131.415 103.53 131.415 103.695 131.25L102.93 130.395C102.93 130.29 102.48 130.125 102.36 130.095L101.94 130.035C101.94 130.035 53.415 130.035 53.085 130.095Z" fill="#E5E3E3"/>
<path d="M53.0101 130.11C52.9051 130.125 52.4551 130.29 52.4551 130.41L51.7201 131.265C51.7201 131.355 51.8851 131.43 51.9751 131.43C51.9751 131.43 103.545 131.43 103.725 131.265L102.99 130.41C102.99 130.29 102.555 130.14 102.435 130.11L102.015 130.05C102.015 130.05 53.3401 130.05 52.9951 130.11H53.0101Z" fill="#E6E4E4"/>
<path d="M52.9201 130.125C52.8001 130.14 52.3801 130.305 52.3801 130.425L51.6901 131.295C51.6901 131.385 51.8551 131.475 51.9451 131.475C51.9451 131.475 103.56 131.475 103.74 131.295L103.05 130.425C103.05 130.305 102.63 130.155 102.51 130.125L102.075 130.065C102.075 130.065 53.2501 130.065 52.9051 130.125H52.9201Z" fill="#E7E5E5"/>
<path d="M52.845 130.14C52.725 130.155 52.32 130.32 52.32 130.44L51.675 131.325C51.675 131.43 51.825 131.505 51.93 131.505C51.93 131.505 103.605 131.505 103.785 131.325L103.14 130.44C103.14 130.32 102.735 130.155 102.615 130.14L102.18 130.08C102.18 130.08 53.19 130.08 52.845 130.14Z" fill="#E8E6E6"/>
<path d="M52.77 130.155C52.65 130.17 52.26 130.335 52.26 130.455L51.645 131.34C51.645 131.445 51.795 131.52 51.9 131.52C51.9 131.52 103.62 131.52 103.8 131.34L103.185 130.455C103.185 130.335 102.795 130.17 102.675 130.155L102.24 130.095C102.24 130.095 53.1 130.095 52.74 130.155H52.77Z" fill="#E9E6E7"/>
<path d="M52.68 130.17C52.56 130.185 52.185 130.35 52.185 130.47L51.615 131.37C51.615 131.475 51.765 131.565 51.87 131.565C51.87 131.565 103.635 131.565 103.815 131.37L103.245 130.47C103.245 130.35 102.885 130.185 102.75 130.17L102.315 130.11C102.315 130.11 53.025 130.11 52.665 130.17H52.68Z" fill="#EAE7E8"/>
<path d="M52.605 130.185C52.485 130.2 52.125 130.365 52.125 130.485L51.6 131.385C51.6 131.49 51.75 131.58 51.855 131.58C51.855 131.58 103.665 131.58 103.86 131.385L103.335 130.485C103.335 130.365 102.99 130.2 102.855 130.185L102.42 130.125C102.42 130.125 52.98 130.125 52.605 130.185Z" fill="#EAE8E9"/>
<path d="M52.5151 130.2C52.3951 130.23 52.0501 130.38 52.0501 130.5L51.5701 131.415C51.5701 131.52 51.7201 131.61 51.8251 131.61C51.8251 131.61 103.68 131.61 103.875 131.415L103.395 130.5C103.395 130.365 103.065 130.215 102.93 130.2L102.495 130.125C102.495 130.125 52.9051 130.125 52.5151 130.2Z" fill="#EBE9E9"/>
<path d="M52.44 130.215C52.305 130.245 51.99 130.395 51.99 130.515L51.54 131.445C51.54 131.55 51.675 131.64 51.795 131.64C51.795 131.64 103.695 131.64 103.905 131.445L103.455 130.515C103.455 130.38 103.14 130.23 103.005 130.215L102.555 130.14C102.555 130.14 52.815 130.14 52.425 130.215H52.44Z" fill="#ECEAEA"/>
<path d="M52.35 130.23C52.215 130.26 51.93 130.41 51.93 130.545L51.525 131.475C51.525 131.58 51.66 131.685 51.78 131.685C51.78 131.685 103.74 131.685 103.935 131.475L103.53 130.545C103.53 130.41 103.23 130.26 103.11 130.23L102.66 130.155C102.66 130.155 52.755 130.155 52.365 130.23H52.35Z" fill="#EDEBEB"/>
<path d="M52.275 130.245C52.14 130.275 51.87 130.425 51.87 130.56L51.51 131.505C51.51 131.625 51.645 131.715 51.765 131.715C51.765 131.715 103.77 131.715 103.965 131.505L103.605 130.56C103.605 130.425 103.335 130.275 103.2 130.245L102.75 130.17C102.75 130.17 52.695 130.17 52.29 130.245H52.275Z" fill="#EEECEC"/>
<path d="M52.2 130.26C52.065 130.29 51.81 130.425 51.81 130.575L51.48 131.52C51.48 131.64 51.615 131.73 51.735 131.73C51.735 131.73 103.785 131.73 103.995 131.52L103.665 130.575C103.665 130.44 103.41 130.29 103.275 130.26L102.825 130.185C102.825 130.185 52.62 130.185 52.215 130.26H52.2Z" fill="#EFEDED"/>
<path d="M52.1101 130.275C51.9751 130.305 51.7351 130.44 51.7351 130.59L51.4501 131.55C51.4501 131.67 51.5851 131.76 51.6901 131.76C51.6901 131.76 103.785 131.76 103.995 131.55L103.71 130.59C103.71 130.455 103.47 130.305 103.335 130.275L102.885 130.2C102.885 130.2 52.5301 130.2 52.1101 130.275Z" fill="#F0EEEE"/>
<path d="M52.0351 130.29C51.9001 130.32 51.6751 130.455 51.6751 130.605L51.4351 131.58C51.4351 131.7 51.5551 131.805 51.6751 131.805C51.6751 131.805 103.815 131.805 104.04 131.58L103.8 130.605C103.8 130.455 103.575 130.32 103.44 130.29L102.99 130.215C102.99 130.215 52.4851 130.215 52.0501 130.29H52.0351Z" fill="#F1EFEF"/>
<path d="M51.945 130.305C51.795 130.335 51.6 130.47 51.6 130.62L51.39 131.595C51.39 131.715 51.51 131.82 51.63 131.82C51.63 131.82 103.815 131.82 104.04 131.595L103.83 130.62C103.83 130.47 103.62 130.335 103.485 130.305L103.02 130.23C103.02 130.23 52.365 130.23 51.93 130.305H51.945Z" fill="#F2F0F0"/>
<path d="M51.87 130.32C51.72 130.35 51.54 130.485 51.54 130.635L51.375 131.625C51.375 131.745 51.495 131.85 51.615 131.85C51.615 131.85 103.845 131.85 104.07 131.625L103.905 130.635C103.905 130.485 103.725 130.35 103.575 130.32L103.11 130.245C103.11 130.245 52.29 130.245 51.855 130.32H51.87Z" fill="#F3F0F1"/>
<path d="M51.795 130.335C51.645 130.365 51.48 130.5 51.48 130.65L51.36 131.64C51.36 131.76 51.48 131.865 51.6 131.865C51.6 131.865 103.89 131.865 104.115 131.64L103.995 130.65C103.995 130.5 103.83 130.35 103.68 130.335L103.215 130.26C103.215 130.26 52.245 130.26 51.795 130.335Z" fill="#F4F1F2"/>
<path d="M51.7051 130.35C51.5551 130.38 51.4051 130.515 51.4051 130.665L51.3301 131.67C51.3301 131.805 51.4501 131.91 51.5701 131.91C51.5701 131.91 103.905 131.91 104.13 131.67L104.055 130.665C104.055 130.515 103.905 130.365 103.755 130.35L103.29 130.275C103.29 130.275 52.1701 130.275 51.7201 130.35H51.7051Z" fill="#F4F2F2"/>
<path d="M51.63 130.365C51.48 130.395 51.345 130.53 51.345 130.695L51.3 131.7C51.3 131.835 51.405 131.94 51.54 131.94C51.54 131.94 103.92 131.94 104.16 131.7L104.115 130.695C104.115 130.545 103.98 130.395 103.83 130.365L103.365 130.29C103.365 130.29 52.095 130.29 51.63 130.365Z" fill="#F5F3F3"/>
<path d="M103.905 130.38L103.44 130.29H52.02L51.555 130.38C51.405 130.41 51.285 130.545 51.285 130.71V131.73C51.285 131.865 51.39 131.97 51.525 131.97H103.95C104.085 131.97 104.19 131.865 104.19 131.73V130.71C104.19 130.545 104.07 130.41 103.92 130.38H103.905Z" fill="#F6F4F4"/>
<path d="M142.935 18.03H7.06501C4.83001 18.03 3.01501 19.995 3.01501 22.425V108.18C3.01501 110.61 4.83001 112.575 7.06501 112.575H142.935C145.17 112.575 146.985 110.61 146.985 108.18V22.425C146.985 19.995 145.17 18.03 142.935 18.03Z" fill="url(#paint0_linear_8693_72171)"/>
<path d="M142.32 18.7949H7.59007C5.37007 18.7949 3.57007 20.7299 3.57007 23.1149V107.505C3.57007 109.89 5.37007 111.825 7.59007 111.825H142.32C144.54 111.825 146.34 109.89 146.34 107.505V23.1149C146.34 20.7299 144.54 18.7949 142.32 18.7949Z" fill="#181819"/>
<path d="M76.515 22.275C77.2357 22.275 77.82 21.6908 77.82 20.97C77.82 20.2493 77.2357 19.665 76.515 19.665C75.7942 19.665 75.21 20.2493 75.21 20.97C75.21 21.6908 75.7942 22.275 76.515 22.275Z" stroke="#212121" stroke-width="0.07" stroke-miterlimit="10"/>
<path d="M6.82507 108.345H142.965V22.125H6.82507V108.345Z" fill="#1E1E1E" stroke="black" stroke-width="0.25" stroke-miterlimit="10"/>
<path d="M6.96008 108.345H15.9601L15.9601 27.885H6.96008L6.96008 108.345Z" fill="#323334" stroke="black" stroke-width="0.25" stroke-miterlimit="10"/>
<path d="M6.82509 27.96L142.965 27.96V22.11L6.82509 22.11V27.96Z" fill="#323334" stroke="black" stroke-width="0.25" stroke-miterlimit="10"/>
<path d="M19.14 25.065C19.14 25.785 19.725 26.37 20.445 26.37C21.165 26.37 21.75 25.785 21.75 25.065C21.75 24.345 21.165 23.76 20.445 23.76C19.725 23.76 19.14 24.345 19.14 25.065Z" fill="#91C7BE" stroke="black" stroke-width="0.25" stroke-miterlimit="10"/>
<path d="M14.655 25.065C14.655 25.785 15.24 26.37 15.96 26.37C16.68 26.37 17.265 25.785 17.265 25.065C17.265 24.345 16.68 23.76 15.96 23.76C15.24 23.76 14.655 24.345 14.655 25.065Z" fill="#E7E67E" stroke="black" stroke-width="0.25" stroke-miterlimit="10"/>
<path d="M10.1851 25.065C10.1851 25.785 10.7701 26.37 11.4901 26.37C12.2101 26.37 12.7951 25.785 12.7951 25.065C12.7951 24.345 12.2101 23.76 11.4901 23.76C10.7701 23.76 10.1851 24.345 10.1851 25.065Z" fill="#D85E32" stroke="black" stroke-width="0.25" stroke-miterlimit="10"/>
<path d="M12.57 31.8599V34.4249C12.57 34.5599 12.465 34.6649 12.33 34.6649H10.155C10.02 34.6649 9.91504 34.5599 9.91504 34.4249V31.3049C9.91504 31.1699 10.02 31.0649 10.155 31.0649H11.79L12.57 31.8449V31.8599Z" fill="#323334" stroke="white" stroke-width="0.25" stroke-linecap="round" stroke-linejoin="round"/>
<path d="M11.79 31.0798V31.6198C11.79 31.7548 11.895 31.8598 12.03 31.8598H12.57" fill="#323334"/>
<path d="M11.79 31.0798V31.6198C11.79 31.7548 11.895 31.8598 12.03 31.8598H12.57" stroke="white" stroke-width="0.25" stroke-linecap="round" stroke-linejoin="round"/>
<path d="M13.3501 31.1549V33.7199C13.3501 33.8549 13.2451 33.9599 13.1101 33.9599H10.9351C10.8001 33.9599 10.6951 33.8549 10.6951 33.7199V30.5999C10.6951 30.4649 10.8001 30.3599 10.9351 30.3599H12.5701L13.3501 31.1399V31.1549Z" fill="#323334" stroke="white" stroke-width="0.25" stroke-linecap="round" stroke-linejoin="round"/>
<path d="M12.5701 30.3748V30.9148C12.5701 31.0498 12.6751 31.1548 12.8101 31.1548H13.3501" fill="#323334"/>
<path d="M12.5701 30.3748V30.9148C12.5701 31.0498 12.6751 31.1548 12.8101 31.1548H13.3501" stroke="white" stroke-width="0.25" stroke-linecap="round" stroke-linejoin="round"/>
<path d="M13.6801 95.9251C13.6801 94.8301 12.7951 93.9451 11.7001 93.9451C10.6051 93.9451 9.72009 94.8301 9.72009 95.9251C9.72009 96.4801 9.96009 96.9901 10.3201 97.3501C10.3201 97.3501 10.3351 97.3651 10.3501 97.3801C10.6951 97.7101 11.1751 97.9051 11.6851 97.9051C12.1951 97.9051 12.6751 97.7101 13.0201 97.3801C13.0201 97.3801 13.0351 97.3651 13.0501 97.3501C13.4251 96.9901 13.6501 96.4951 13.6501 95.9251H13.6801ZM11.7001 94.2001C12.6601 94.2001 13.4251 94.9801 13.4251 95.9251C13.4251 96.3301 13.2901 96.7051 13.0501 96.9901C12.9451 96.6451 12.6301 96.3751 12.2251 96.2551C12.4501 96.0901 12.6001 95.8201 12.6001 95.5201C12.6001 95.0251 12.1951 94.6201 11.7001 94.6201C11.2051 94.6201 10.8001 95.0251 10.8001 95.5201C10.8001 95.8201 10.9501 96.0901 11.1751 96.2551C10.7551 96.3751 10.4551 96.6451 10.3501 96.9901C10.1101 96.6901 9.97509 96.3301 9.97509 95.9251C9.97509 94.9801 10.7551 94.2001 11.7001 94.2001ZM11.0401 95.5351C11.0401 95.1751 11.3401 94.8901 11.7001 94.8901C12.0601 94.8901 12.3601 95.1901 12.3601 95.5351C12.3601 95.8801 12.0601 96.1801 11.7001 96.1801C11.3401 96.1801 11.0401 95.8801 11.0401 95.5351ZM10.5451 97.2151C10.5751 96.7651 11.0551 96.4351 11.6851 96.4351C12.3151 96.4351 12.7951 96.7651 12.8251 97.2151C12.5251 97.4851 12.1201 97.6501 11.6851 97.6501C11.2501 97.6501 10.8451 97.4851 10.5451 97.2151Z" fill="white"/>
<path d="M13.44 101.28L13.05 101.22C13.05 101.22 13.02 101.145 13.005 101.115L13.245 100.785C13.32 100.695 13.305 100.56 13.215 100.47L12.93 100.185C12.93 100.185 12.81 100.11 12.75 100.11C12.705 100.11 12.66 100.125 12.615 100.155L12.3 100.395C12.3 100.395 12.225 100.365 12.195 100.35L12.135 99.96C12.12 99.84 12.015 99.78 11.895 99.78H11.49C11.37 99.78 11.265 99.855 11.25 99.96L11.19 100.35C11.19 100.35 11.115 100.38 11.085 100.395L10.77 100.155C10.77 100.155 10.68 100.11 10.635 100.11C10.575 100.11 10.5 100.14 10.455 100.185L10.17 100.47C10.08 100.56 10.065 100.695 10.14 100.785L10.38 101.1C10.38 101.1 10.35 101.175 10.335 101.205L9.945 101.265C9.84 101.28 9.75 101.385 9.75 101.505V101.91C9.75 102.03 9.825 102.135 9.945 102.15L10.335 102.21C10.335 102.21 10.365 102.285 10.38 102.315L10.14 102.645C10.065 102.735 10.08 102.87 10.17 102.96L10.455 103.245C10.455 103.245 10.575 103.32 10.635 103.32C10.68 103.32 10.725 103.305 10.77 103.275L11.085 103.035C11.085 103.035 11.16 103.065 11.19 103.08L11.25 103.47C11.265 103.59 11.37 103.665 11.49 103.665H11.895C12.015 103.665 12.12 103.59 12.135 103.47L12.195 103.08C12.195 103.08 12.27 103.05 12.3 103.035L12.615 103.275C12.615 103.275 12.705 103.32 12.75 103.32C12.81 103.32 12.885 103.29 12.93 103.245L13.215 102.96C13.305 102.87 13.32 102.735 13.245 102.645L13.005 102.33C13.005 102.33 13.035 102.255 13.05 102.225L13.44 102.165C13.545 102.15 13.635 102.045 13.635 101.925V101.52C13.635 101.4 13.56 101.295 13.44 101.28ZM13.44 101.925H13.425L12.885 102.015L12.855 102.09C12.855 102.09 12.81 102.24 12.765 102.3L12.735 102.375L13.065 102.81L12.78 103.095L12.345 102.78L12.27 102.81C12.27 102.81 12.135 102.87 12.06 102.9L11.985 102.93L11.91 103.485H11.49L11.415 102.93L11.34 102.9C11.34 102.9 11.19 102.84 11.13 102.81L11.055 102.78L10.62 103.11L10.335 102.825L10.665 102.39L10.635 102.315C10.635 102.315 10.575 102.18 10.545 102.105L10.515 102.03L9.975 101.955H9.96V101.55H9.975L10.515 101.46L10.545 101.385C10.545 101.385 10.605 101.235 10.635 101.175L10.665 101.1L10.335 100.665L10.62 100.38L11.055 100.695L11.13 100.665C11.13 100.665 11.265 100.605 11.34 100.575H11.415L11.49 100.005H11.91L11.985 100.545L12.06 100.575C12.06 100.575 12.21 100.635 12.27 100.665L12.345 100.695L12.78 100.365L13.065 100.65L12.735 101.085L12.765 101.16C12.765 101.16 12.825 101.295 12.855 101.37L12.885 101.445L13.425 101.52H13.44V101.925Z" fill="white"/>
<path d="M11.685 101.265C11.43 101.265 11.205 101.475 11.205 101.745C11.205 102.015 11.415 102.225 11.685 102.225C11.955 102.225 12.165 102.015 12.165 101.745C12.165 101.475 11.955 101.265 11.685 101.265V101.265ZM11.685 102.105C11.49 102.105 11.325 101.94 11.325 101.745C11.325 101.55 11.49 101.385 11.685 101.385C11.88 101.385 12.045 101.55 12.045 101.745C12.045 101.94 11.88 102.105 11.685 102.105V102.105Z" stroke="white" stroke-width="0.15" stroke-miterlimit="10"/>
<path d="M6.67508 108.495L142.965 108.495V105.81L6.67508 105.81V108.495Z" fill="#76DBC7"/>
<path d="M47.205 105.6V87.1201H52.17V105.6" fill="#76DBC7"/>
<path d="M52.17 1.05005V25.065H47.205V1.05005" fill="#FF5101"/>
<path d="M47.205 64.5299V79.0349H52.17V64.5299H47.205Z" fill="#C9CBCE"/>
<path d="M65.25 105.6V94.875H70.215V105.6" fill="#BD99FF"/>
<path d="M70.215 2.625V43.605H65.25V2.625" fill="#76DBC7"/>
<path d="M65.265 55.41V83.085H70.23V55.41H65.265Z" fill="#FF5101"/>
<path d="M83.295 105.825V101.37H88.26V105.825" fill="#FF5101"/>
<path d="M88.26 16.875V37.365H83.295V16.875" fill="#C9CBCE"/>
<path d="M83.295 79.3951V95.9851H88.26V79.3951H83.295Z" fill="#76DBC7"/>
<path d="M101.34 105.825V88.5449H106.305V105.825" fill="#EDF569"/>
<path d="M106.305 7.78491V45.7049H101.34V7.78491" fill="#FF5101"/>
<path d="M101.34 51.8249V82.4399H106.305V51.8249H101.34Z" fill="#C9CBCE"/>
<path d="M52.17 32.79V56.79H47.205V32.79" fill="#EDF569"/>
<path d="M10.9426 39.1093C10.8947 39.4841 11.0096 39.8324 11.228 40.0936L10.0362 41.2848C9.92631 41.3946 10.0917 41.5586 10.2003 41.4488L11.3921 40.2576C11.6534 40.4759 12.0019 40.592 12.3769 40.5428C12.9261 40.4721 13.378 40.0406 13.469 39.4942C13.6141 38.6223 12.8655 37.874 11.9931 38.0178C11.4464 38.1074 11.0133 38.5592 10.9414 39.1081L10.9426 39.1093ZM13.2518 39.1838C13.3086 39.8362 12.7695 40.3762 12.1155 40.3182C11.6181 40.2753 11.2116 39.869 11.1686 39.3718C11.1118 38.7194 11.6509 38.1806 12.3049 38.2374C12.8023 38.2803 13.2089 38.6866 13.2518 39.1838Z" fill="white"/>
<path d="M88.26 41.415V61.905H83.295V41.415" fill="#BD99FF"/>
<path d="M83.295 67.7549V74.0249H88.26V67.7549H83.295Z" fill="#EDF569"/>
</g>
<defs>
<linearGradient id="paint0_linear_8693_72171" x1="75" y1="112.575" x2="75" y2="18.03" gradientUnits="userSpaceOnUse">
<stop stop-color="#EBEBEC"/>
<stop offset="0.51" stop-color="#ABABAF"/>
<stop offset="0.66" stop-color="#C6C6C8"/>
<stop offset="1" stop-color="white"/>
</linearGradient>
<clipPath id="clip0_8693_72171">
<rect width="150" height="150" fill="white"/>
</clipPath>
</defs>
</svg>
