<?xml version="1.0" encoding="UTF-8"?><svg id="a" xmlns="http://www.w3.org/2000/svg" viewBox="0 0 692.06 245.87"><path d="M184.06,161.95h170v14.03H184.06v-14.03Z" style="fill:#ff5101;"/><path d="M192.06,117.92h498v14.08H192.06v-14.08Z" style="fill:#edf569;"/><path d="M16.71,205.72H353.96v13.75H16.71v-13.75Z" style="fill:#bd99ff;"/><path d="M565.06,72.94h123.56v14.08h-123.56v-14.08Z" style="fill:#76dbc7;"/><path d="M400.34,161.58h51.19v14.39h-51.19v-14.39Z" style="fill:#76dbc7;"/><path d="M399.16,205.72h83.62v13.75h-83.62v-13.75Z" style="fill:#edf569;"/><path d="M496.99,161.58h191.58v14.2h-191.58v-14.2Z" style="fill:#bd99ff;"/><path d="M528.24,205.72h83.62v13.75h-83.62v-13.75Z" style="fill:#c9cbce;"/><path d="M657.33,205.72h31.23v13.75h-31.23v-13.75Z" style="fill:#76dbc7;"/><path d="M627.06,27.68h62v14.08h-62v-14.08Z" style="fill:#ff5101;"/></svg>