<?xml version="1.0" encoding="UTF-8"?><svg id="a" xmlns="http://www.w3.org/2000/svg" viewBox="0 0 496.02 225.76"><path d="M384,108.46h-48v13.9h48v-13.9Z" style="fill:#c9cbce;"/><path d="M487,108.46h-63v13.9h63v-13.9Z" style="fill:#76dbc7;"/><path d="M289.23,108.37h-51.19v14.08h51.19v-14.08Z" style="fill:#bd99ff;"/><path d="M191.58,108.37H0v14.08H191.58v-14.08Z" style="fill:#edf569;"/><path d="M132,152.46h-54v13.9h54v-13.9Z" style="fill:#bd99ff;"/><path d="M31.23,152.37H0v14.08H31.23v-14.08Z" style="fill:#76dbc7;"/><path d="M280,152.46h-102v13.9h102v-13.9Z" style="fill:#ff5101;"/><path d="M467,152.45h-141v11.99h141v-11.99Z" style="fill:#edf569;"/><path d="M124,196.37H0v14.08H124v-14.08Z" style="fill:#c9cbce;"/><path d="M123.56,59.11H0v13.92H123.56v-13.92Z" style="fill:#c9cbce;"/><path d="M169.03,11.46H0v14.08H169.03V11.46Z" style="fill:#bd99ff;"/><path d="M292.93,59.11h-123.56v13.92h123.56v-13.92Z" style="fill:#76dbc7;"/><path d="M418,59.19h-69v13.75h69v-13.75Z" style="fill:#ff5101;"/></svg>