<svg width="19" height="14" viewBox="0 0 19 14" fill="none" xmlns="http://www.w3.org/2000/svg">
<path d="M15.5826 1.24689C14.4449 0.718347 13.2249 0.328944 11.9493 0.105916C11.926 0.101612 11.9028 0.112369 11.8909 0.133883C11.734 0.416431 11.5602 0.785038 11.4385 1.07476C10.0665 0.866798 8.70154 0.866798 7.3577 1.07476C7.23597 0.778598 7.05586 0.416431 6.89825 0.133883C6.88629 0.113086 6.86308 0.102329 6.83985 0.105916C5.56497 0.328231 4.34496 0.717635 3.20657 1.24689C3.19671 1.25119 3.18826 1.25837 3.18266 1.26768C0.868571 4.76804 0.234645 8.18236 0.545628 11.5543C0.547035 11.5708 0.556181 11.5866 0.568846 11.5967C2.09561 12.7319 3.57455 13.4211 5.02602 13.8779C5.04925 13.885 5.07387 13.8764 5.08865 13.8571C5.432 13.3823 5.73806 12.8818 6.00048 12.3554C6.01596 12.3246 6.00118 12.288 5.96953 12.2758C5.48406 12.0893 5.0218 11.862 4.57714 11.6038C4.54197 11.583 4.53915 11.5321 4.57151 11.5077C4.66508 11.4367 4.75868 11.3629 4.84803 11.2883C4.86419 11.2747 4.88672 11.2718 4.90573 11.2804C7.82697 12.6308 10.9896 12.6308 13.8764 11.2804C13.8954 11.2711 13.9179 11.2739 13.9348 11.2876C14.0241 11.3621 14.1177 11.4367 14.212 11.5077C14.2443 11.5321 14.2422 11.583 14.2071 11.6038C13.7624 11.867 13.3001 12.0893 12.814 12.2751C12.7823 12.2873 12.7682 12.3246 12.7837 12.3554C13.0518 12.881 13.3578 13.3816 13.6948 13.8564C13.7089 13.8764 13.7342 13.885 13.7575 13.8779C15.216 13.4211 16.6949 12.7319 18.2217 11.5967C18.235 11.5866 18.2435 11.5716 18.2449 11.5551C18.6171 7.65667 17.6215 4.27035 15.6058 1.26839C15.6008 1.25837 15.5924 1.25119 15.5826 1.24689ZM6.43672 9.50116C5.55722 9.50116 4.83254 8.68364 4.83254 7.67963C4.83254 6.67563 5.54317 5.8581 6.43672 5.8581C7.33728 5.8581 8.05495 6.68281 8.04087 7.67963C8.04087 8.68364 7.33025 9.50116 6.43672 9.50116ZM12.3679 9.50116C11.4884 9.50116 10.7637 8.68364 10.7637 7.67963C10.7637 6.67563 11.4743 5.8581 12.3679 5.8581C13.2685 5.8581 13.9861 6.68281 13.9721 7.67963C13.9721 8.68364 13.2685 9.50116 12.3679 9.50116Z" fill="#BD99FF"/>
</svg>
