<svg width="1440" height="145" viewBox="0 0 1440 145" fill="none" xmlns="http://www.w3.org/2000/svg">
<path d="M169.357 44H0.069458V56.08H169.357V44Z" fill="#81C8BE"/>
<path d="M451.483 132.03H350.788V144.03H451.483V132.03Z" fill="#81C8BE"/>
<path d="M169.357 131.84H0.069458V143.92H169.357V131.84Z" fill="#E9531E"/>
<path d="M189.305 88.0298H125.233V100.11H189.305V88.0298Z" fill="#AA97C8"/>
<path d="M327.387 131.84H194.5V143.92H327.387V131.84Z" fill="#DDDDDD"/>
<path d="M427.316 88.0298H316.552V100.03H427.316V88.0298Z" fill="#E9531E"/>
<path d="M93.0104 88.0298H0.371521V100.03H93.0104V88.0298Z" fill="#DDDDDD"/>
<path d="M284.33 88.0298H221.899V100.03H284.33V88.0298Z" fill="#E7E66C"/>
<path d="M106 0H0V12H106V0Z" fill="#BD99FF"/>
<path d="M1270.64 44H1439.93V56.08H1270.64V44Z" fill="#81C8BE"/>
<path d="M988.517 132.03H1089.21V144.03H988.517V132.03Z" fill="#81C8BE"/>
<path d="M1270.64 131.84H1439.93V143.92H1270.64V131.84Z" fill="#E9531E"/>
<path d="M1250.7 88.0298H1314.77V100.11H1250.7V88.0298Z" fill="#AA97C8"/>
<path d="M1112.61 131.84H1245.5V143.92H1112.61V131.84Z" fill="#DDDDDD"/>
<path d="M1012.68 88.0298H1123.45V100.03H1012.68V88.0298Z" fill="#E9531E"/>
<path d="M1346.99 88.0298H1439.63V100.03H1346.99V88.0298Z" fill="#DDDDDD"/>
<path d="M1155.67 88.0298H1218.1V100.03H1155.67V88.0298Z" fill="#E7E66C"/>
<path d="M1334 0H1440V12H1334V0Z" fill="#BD99FF"/>
</svg>
