<svg width="585" height="371" viewBox="0 0 585 371" fill="none" xmlns="http://www.w3.org/2000/svg">
<path d="M169.01 0.407227H0V12.5479H169.01V0.407227Z" fill="#81C8BE"/>
<path d="M724.979 88.6636H350.267V100.804H724.979V88.6636Z" fill="#81C8BE"/>
<path d="M464.945 270.413H216.958V282.554H464.945V270.413Z" fill="#81C8BE"/>
<path d="M169.01 88.6636H0V100.804H169.01V88.6636Z" fill="#E9531E"/>
<path d="M570.87 182.141H0V194.281H570.87V182.141Z" fill="#E9531E"/>
<path d="M258.101 44.5356H194.126V56.6758H258.101V44.5356Z" fill="#DDDDDD"/>
<path d="M326.797 88.6626H194.126V100.803H326.797V88.6626Z" fill="#DDDDDD"/>
<path d="M787.828 226.285H216.958V238.426H787.828V226.285Z" fill="#DDDDDD"/>
<path d="M645.043 270.414H494.782V282.554H645.043V270.414Z" fill="#DDDDDD"/>
<path d="M554.188 314.541H216.958V326.682H554.188V314.541Z" fill="#DDDDDD"/>
<path d="M169.01 44.5356H0V56.6758H169.01V44.5356Z" fill="#DDDDDD"/>
<path d="M410.126 138.014H0V150.154H410.126V138.014Z" fill="#AA97C8"/>
<path d="M1059 44.5356H288.089V56.6758H1059V44.5356Z" fill="#E7E66C"/>
<path d="M740.334 358.67H216.958V370.811H740.334V358.67Z" fill="#E7E66C"/>
</svg>
