<?xml version="1.0" encoding="utf-8"?>
<!-- Generator: Adobe Illustrator 26.3.1, SVG Export Plug-In . SVG Version: 6.00 Build 0)  -->
<svg version="1.1" id="Calque_1" xmlns="http://www.w3.org/2000/svg" xmlns:xlink="http://www.w3.org/1999/xlink" x="0px" y="0px"
	 viewBox="0 0 585 371" style="enable-background:new 0 0 585 371;" xml:space="preserve">
<style type="text/css">
	.st0{fill:#76DBC7;}
	.st1{fill:#FF5101;}
	.st2{fill:#C9CBCE;}
	.st3{fill:#BD99FF;}
	.st4{fill:#EDF569;}
</style>
<path class="st0" d="M169,0.4H0v12.1h169V0.4L169,0.4z M585,88.7H350.3v12.1H585V88.7z M464.9,270.4H217v12.1h248V270.4z"/>
<path class="st1" d="M169,88.7H0v12.1h169V88.7z M570.9,182.1H0v12.1h570.9V182.1z"/>
<path class="st2" d="M258.1,44.5h-64v12.1h64V44.5z M326.8,88.7H194.1v12.1h132.7V88.7z M585,226.3H217v12.1h368V226.3z M585,270.4
	h-90.2v12.1H585V270.4z M554.2,314.5H217v12.1h337.2V314.5z M169,44.5H0v12.1h169V44.5z"/>
<path class="st3" d="M410.1,138H0v12.1h410.1V138z"/>
<path class="st4" d="M585,44.5H288.1v12.1H585V44.5z M585,358.7H217v12.1h368V358.7z"/>
</svg>
