<svg width="138" height="48" viewBox="0 0 138 48" fill="none" xmlns="http://www.w3.org/2000/svg">
<path d="M17.0665 35.1796C15.9437 35.1796 15.0147 34.8515 14.2805 34.193C13.5442 33.5356 13.1772 32.2779 13.1772 30.4219V0.833008H0V6.75057H6.03688V29.9001C6.03688 33.6518 6.79149 36.5052 8.30071 38.458C9.80993 40.4118 12.2083 41.3877 15.498 41.3877C16.6972 41.3877 17.7716 41.3092 18.7199 41.1553C19.6683 41.0004 20.4703 40.8164 21.1291 40.6044C21.7072 40.4183 22.1883 40.2386 22.5716 40.0665L22.5791 33.8455C22.2691 33.9617 21.6307 34.2135 20.664 34.5997C19.6974 34.987 18.4971 35.1796 17.0665 35.1796Z" fill="white"/>
<path d="M78.2781 16.5858C77.1359 15.3291 75.7817 14.3618 74.2144 13.6851C72.647 13.0083 70.915 12.6694 69.0193 12.6694C67.1613 12.6694 65.44 13.0083 63.8533 13.6851C62.2655 14.3618 60.9016 15.3291 59.7605 16.5858C58.6184 17.8435 57.7292 19.3519 57.0909 21.111C56.4525 22.8712 56.1328 24.8154 56.1328 26.9414C56.1328 29.1083 56.4418 31.0708 57.0618 32.8299C57.6808 34.5901 58.5613 36.1082 59.7024 37.3842C60.8435 38.6603 62.1988 39.6469 63.7661 40.343C65.3335 41.0391 67.0838 41.3877 69.0193 41.3877C70.9537 41.3877 72.7052 41.0391 74.2725 40.343C75.8399 39.6469 77.1844 38.6603 78.3071 37.3842C79.4288 36.1082 80.2997 34.5901 80.9198 32.8299C81.5387 31.0708 81.8488 29.1072 81.8488 26.9414C81.8488 24.8143 81.5387 22.8712 80.9198 21.111C80.2997 19.3509 79.4191 17.8424 78.2781 16.5858ZM73.111 32.917C72.1626 34.4255 70.76 35.1797 68.902 35.1797C66.9665 35.1797 65.5638 34.4255 64.6929 32.917C63.8221 31.4086 63.3872 29.4365 63.3872 26.9995C63.3872 24.5626 63.8608 22.6001 64.8092 21.111C65.7576 19.622 67.1602 18.8774 69.0182 18.8774C70.9527 18.8774 72.3564 19.6231 73.2273 21.111C74.0981 22.6001 74.533 24.5626 74.533 26.9995C74.533 29.4365 74.0583 31.4086 73.111 32.917Z" fill="white"/>
<path d="M106.024 27.1444C105.116 26.5064 104.1 25.9748 102.977 25.5488C101.854 25.1238 100.771 24.7365 99.727 24.3879C98.9918 24.1555 98.305 23.9144 97.6666 23.6627C97.0283 23.412 96.4663 23.1505 95.983 22.8794C95.4986 22.6093 95.1121 22.3092 94.8215 21.9799C94.5319 21.6518 94.3866 21.2752 94.3866 20.8491C94.3866 20.3467 94.7063 19.8733 95.3446 19.4278C95.983 18.9835 97.2112 18.7608 99.0305 18.7608C100.772 18.7608 102.339 18.9835 103.731 19.4278C105.126 19.8733 106.15 20.1917 106.808 20.3854L107.91 14.3516C106.788 13.8491 105.462 13.4629 103.934 13.1918C102.405 12.9217 100.751 12.7861 98.9702 12.7861C96.9185 12.7861 95.1584 13.0088 93.6879 13.4532C92.2164 13.8986 91.0075 14.5173 90.0602 15.3103C89.1108 16.1032 88.4143 17.0124 87.9697 18.0367C87.524 19.062 87.3023 20.1541 87.3023 21.315C87.3023 22.746 87.5919 23.936 88.1732 24.8828C88.7545 25.8307 89.4875 26.6139 90.3789 27.2326C91.2691 27.8513 92.2552 28.3634 93.3392 28.7701C94.4221 29.1757 95.4867 29.534 96.532 29.8439C97.2662 30.0763 97.9723 30.3076 98.6505 30.54C99.3265 30.7724 99.9272 31.0145 100.45 31.2652C100.972 31.5169 101.379 31.816 101.669 32.1646C101.96 32.5122 102.104 32.9393 102.104 33.4407C102.104 34.2154 101.64 34.7264 100.711 34.9782C99.7819 35.23 98.447 35.3559 96.7053 35.3559C95.1186 35.3559 93.5609 35.1235 92.0323 34.6597C90.5037 34.196 89.0623 33.6935 87.7081 33.1513L86.6047 39.127C87.6112 39.553 88.9461 40.0361 90.6103 40.5773C92.2735 41.1185 94.2865 41.3896 96.6472 41.3896C98.9691 41.3896 100.923 41.1766 102.51 40.7516C104.095 40.3266 105.383 39.7467 106.37 39.0108C107.357 38.277 108.062 37.4066 108.488 36.3995C108.914 35.3935 109.127 34.3305 109.127 33.2083C109.127 31.7773 108.836 30.568 108.256 29.5824C107.679 28.5947 106.933 27.7824 106.024 27.1444Z" fill="white"/>
<path d="M36.6993 33.3526C36.0986 32.1347 35.7994 30.269 35.7994 27.7535V13.4814H28.6602V28.6821C28.6602 30.538 28.8141 32.2412 29.1241 33.7873C29.4341 35.3345 30.0047 36.6794 30.8368 37.8198C31.6678 38.9614 32.8003 39.8415 34.232 40.4602C35.6637 41.0777 37.5023 41.3887 39.7468 41.3887C41.0418 41.3887 42.2798 41.3273 43.4617 41.2068V35.5217C43.4617 35.5217 41.2937 35.5217 40.2108 35.5217C38.469 35.5217 37.2989 34.5706 36.6993 33.3526Z" fill="white"/>
<path d="M43.4617 35.522H50.6579L50.6601 13.4814H43.4617V35.522Z" fill="white"/>
<path d="M137.789 41.3877H115.189V47.2832H137.789V41.3877Z" fill="#BD99FF"/>
</svg>
