<?xml version="1.0" encoding="utf-8"?>
<!-- Generator: Adobe Illustrator 26.1.0, SVG Export Plug-In . SVG Version: 6.00 Build 0)  -->
<svg version="1.1" id="Calque_1" xmlns="http://www.w3.org/2000/svg" xmlns:xlink="http://www.w3.org/1999/xlink" x="0px" y="0px"
	 viewBox="0 0 138 48" style="enable-background:new 0 0 138 48;" xml:space="preserve">
<style type="text/css">
	.st0{fill:#BD99FF;}
</style>
<path d="M17.1,35.2c-1.1,0-2.1-0.3-2.8-1c-0.7-0.7-1.1-1.9-1.1-3.8V0.8H0v5.9h6v23.1c0,3.8,0.8,6.6,2.3,8.6c1.5,2,3.9,2.9,7.2,2.9
	c1.2,0,2.3-0.1,3.2-0.2c0.9-0.2,1.8-0.3,2.4-0.6c0.6-0.2,1.1-0.4,1.4-0.5l0-6.2c-0.3,0.1-0.9,0.4-1.9,0.8
	C19.7,35,18.5,35.2,17.1,35.2z"/>
<path d="M78.3,16.6c-1.1-1.3-2.5-2.2-4.1-2.9c-1.6-0.7-3.3-1-5.2-1c-1.9,0-3.6,0.3-5.2,1c-1.6,0.7-3,1.6-4.1,2.9
	c-1.1,1.3-2,2.8-2.7,4.5c-0.6,1.8-1,3.7-1,5.8c0,2.2,0.3,4.1,0.9,5.9c0.6,1.8,1.5,3.3,2.6,4.6c1.1,1.3,2.5,2.3,4.1,3
	c1.6,0.7,3.3,1,5.3,1c1.9,0,3.7-0.3,5.3-1c1.6-0.7,2.9-1.7,4-3c1.1-1.3,2-2.8,2.6-4.6c0.6-1.8,0.9-3.7,0.9-5.9
	c0-2.1-0.3-4.1-0.9-5.8C80.3,19.4,79.4,17.8,78.3,16.6z M73.1,32.9c-0.9,1.5-2.4,2.3-4.2,2.3c-1.9,0-3.3-0.8-4.2-2.3
	c-0.9-1.5-1.3-3.5-1.3-5.9c0-2.4,0.5-4.4,1.4-5.9c0.9-1.5,2.4-2.2,4.2-2.2c1.9,0,3.3,0.7,4.2,2.2c0.9,1.5,1.3,3.5,1.3,5.9
	C74.5,29.4,74.1,31.4,73.1,32.9z"/>
<path d="M106,27.1c-0.9-0.6-1.9-1.2-3-1.6c-1.1-0.4-2.2-0.8-3.2-1.2c-0.7-0.2-1.4-0.5-2.1-0.7c-0.6-0.3-1.2-0.5-1.7-0.8
	c-0.5-0.3-0.9-0.6-1.2-0.9c-0.3-0.3-0.4-0.7-0.4-1.1c0-0.5,0.3-1,1-1.4c0.6-0.4,1.9-0.7,3.7-0.7c1.7,0,3.3,0.2,4.7,0.7
	c1.4,0.4,2.4,0.8,3.1,1l1.1-6c-1.1-0.5-2.4-0.9-4-1.2c-1.5-0.3-3.2-0.4-5-0.4c-2.1,0-3.8,0.2-5.3,0.7c-1.5,0.4-2.7,1.1-3.6,1.9
	C89.1,16.1,88.4,17,88,18c-0.4,1-0.7,2.1-0.7,3.3c0,1.4,0.3,2.6,0.9,3.6c0.6,0.9,1.3,1.7,2.2,2.3c0.9,0.6,1.9,1.1,3,1.5
	c1.1,0.4,2.1,0.8,3.2,1.1c0.7,0.2,1.4,0.5,2.1,0.7c0.7,0.2,1.3,0.5,1.8,0.7c0.5,0.3,0.9,0.6,1.2,0.9c0.3,0.3,0.4,0.8,0.4,1.3
	c0,0.8-0.5,1.3-1.4,1.5c-0.9,0.3-2.3,0.4-4,0.4c-1.6,0-3.1-0.2-4.7-0.7c-1.5-0.5-3-1-4.3-1.5l-1.1,6c1,0.4,2.3,0.9,4,1.5
	c1.7,0.5,3.7,0.8,6,0.8c2.3,0,4.3-0.2,5.9-0.6c1.6-0.4,2.9-1,3.9-1.7c1-0.7,1.7-1.6,2.1-2.6c0.4-1,0.6-2.1,0.6-3.2
	c0-1.4-0.3-2.6-0.9-3.6C107.7,28.6,106.9,27.8,106,27.1z"/>
<path d="M36.7,33.4c-0.6-1.2-0.9-3.1-0.9-5.6V13.5h-7.1v15.2c0,1.9,0.2,3.6,0.5,5.1c0.3,1.5,0.9,2.9,1.7,4c0.8,1.1,2,2,3.4,2.6
	c1.4,0.6,3.3,0.9,5.5,0.9c1.3,0,2.5-0.1,3.7-0.2v-5.7c0,0-2.2,0-3.3,0C38.5,35.5,37.3,34.6,36.7,33.4z"/>
<path d="M43.5,35.5h7.2l0-22h-7.2V35.5z"/>
<path class="st0" d="M137.8,41.4h-22.6v5.9h22.6V41.4z"/>
</svg>
