<svg width="684" height="463" viewBox="0 0 684 463" fill="none" xmlns="http://www.w3.org/2000/svg">
<path d="M1.34509 461.2H1080.06V44.4585H1075.55H1.34509V461.2Z" fill="#1E1E1E" stroke="black" stroke-width="2" stroke-miterlimit="10"/>
<path d="M64.5381 45.1191H1.92456V451.511H64.5381V45.1191Z" fill="#323334" stroke="black" stroke-width="2" stroke-miterlimit="10"/>
<path d="M1.34509 44.4585H1080.06V11.9644C1080.06 6.14979 1076.4 1.43994 1071.88 1.43994H9.5261C5.00566 1.43994 1.34509 6.14979 1.34509 11.9644V44.4585Z" fill="#323334" stroke="black" stroke-width="2" stroke-miterlimit="10"/>
<path d="M89.3919 20.3577C88.3438 26.7625 93.8037 32.2195 100.212 31.1621C104.095 30.5236 107.219 27.401 107.858 23.5202C108.906 17.1154 103.446 11.6584 97.0376 12.7159C93.1549 13.3544 90.0307 16.4769 89.3919 20.3577Z" fill="#81C8BE" stroke="black" stroke-width="2" stroke-miterlimit="10"/>
<path d="M57.2616 20.3577C56.2136 26.7625 61.6734 32.2195 68.0815 31.1621C71.9643 30.5236 75.0885 27.401 75.7273 23.5202C76.7753 17.1154 71.3155 11.6584 64.9074 12.7159C61.0246 13.3544 57.9004 16.4769 57.2616 20.3577Z" fill="#E7E66C" stroke="black" stroke-width="2" stroke-miterlimit="10"/>
<path d="M25.1315 20.3577C24.0834 26.7625 29.5433 32.2195 35.9514 31.1621C39.8342 30.5236 42.9583 27.401 43.5972 23.5202C44.6452 17.1154 39.1854 11.6584 32.7773 12.7159C28.8945 13.3544 25.7703 16.4769 25.1315 20.3577Z" fill="#E9531E" stroke="black" stroke-width="2" stroke-miterlimit="10"/>
<path d="M39.8043 73.8306V92.2468C39.8043 93.1746 39.0557 93.9229 38.1274 93.9229H22.4865C21.5582 93.9229 20.8096 93.1746 20.8096 92.2468V69.9299C20.8096 69.0021 21.5582 68.2539 22.4865 68.2539H34.2147L39.8043 73.8306Z" fill="#323334" stroke="white" stroke-width="2" stroke-linecap="round" stroke-linejoin="round"/>
<path d="M34.2147 68.2441V72.1546C34.2147 73.0824 34.9633 73.8306 35.8916 73.8306H39.8043" fill="#323334"/>
<path d="M34.2147 68.2441V72.1546C34.2147 73.0824 34.9633 73.8306 35.8916 73.8306H39.8043" stroke="white" stroke-width="2" stroke-linecap="round" stroke-linejoin="round"/>
<path d="M45.3839 68.7623V87.1785C45.3839 88.1063 44.6352 88.8545 43.707 88.8545H28.066C27.1378 88.8545 26.3892 88.1063 26.3892 87.1785V64.8616C26.3892 63.9338 27.1378 63.1855 28.066 63.1855H39.7942L45.3839 68.7623Z" fill="#323334" stroke="white" stroke-width="2" stroke-linecap="round" stroke-linejoin="round"/>
<path d="M39.8041 63.1758V67.0866C39.8041 68.0144 40.5527 68.7627 41.481 68.7627H45.3937" fill="#323334"/>
<path d="M39.8041 63.1758V67.0866C39.8041 68.0144 40.5527 68.7627 41.481 68.7627H45.3937" stroke="white" stroke-width="2" stroke-linecap="round" stroke-linejoin="round"/>
<path d="M1081.4 441.035H0V461.2H1081.4V441.035Z" fill="#82C9BE"/>
<path d="M268.01 63.4072H99V75.5479H268.01V63.4072Z" fill="#81C8BE"/>
<path d="M823.979 151.664H449.267V163.804H823.979V151.664Z" fill="#81C8BE"/>
<path d="M563.945 333.413H315.958V345.554H563.945V333.413Z" fill="#81C8BE"/>
<path d="M268.01 151.664H99V163.804H268.01V151.664Z" fill="#E9531E"/>
<path d="M669.87 245.141H99V257.281H669.87V245.141Z" fill="#E9531E"/>
<path d="M357.101 107.536H293.126V119.676H357.101V107.536Z" fill="#DDDDDD"/>
<path d="M425.797 151.663H293.126V163.803H425.797V151.663Z" fill="#DDDDDD"/>
<path d="M886.828 289.285H315.958V301.426H886.828V289.285Z" fill="#DDDDDD"/>
<path d="M744.043 333.414H593.782V345.554H744.043V333.414Z" fill="#DDDDDD"/>
<path d="M653.188 377.541H315.958V389.682H653.188V377.541Z" fill="#DDDDDD"/>
<path d="M268.01 107.536H99V119.676H268.01V107.536Z" fill="#DDDDDD"/>
<path d="M509.126 201.014H99V213.154H509.126V201.014Z" fill="#AA97C8"/>
<path d="M1158 107.536H387.089V119.676H1158V107.536Z" fill="#E7E66C"/>
<path d="M839.334 421.67H315.958V433.811H839.334V421.67Z" fill="#E7E66C"/>
<path d="M26.4553 118.795C26.076 121.758 26.9843 124.511 28.7111 126.576L19.2886 135.994C18.4202 136.862 19.7278 138.159 20.5862 137.291L30.0087 127.873C32.0748 129.599 34.8297 130.517 37.7942 130.128C42.1361 129.569 45.7095 126.157 46.4281 121.838C47.576 114.944 41.657 109.029 34.7598 110.166C30.4379 110.874 27.0143 114.446 26.4453 118.785L26.4553 118.795ZM44.7113 119.384C45.1605 124.541 40.8984 128.811 35.728 128.352C31.7954 128.013 28.5813 124.801 28.242 120.87C27.7928 115.713 32.0549 111.453 37.2253 111.902C41.1579 112.241 44.372 115.453 44.7113 119.384Z" fill="white"/>
</svg>
