<svg width="17" height="17" viewBox="0 0 17 17" fill="none" xmlns="http://www.w3.org/2000/svg">
<path d="M8.28107 15.0142C9.99215 15.0142 11.6331 14.3339 12.8431 13.1231C14.053 11.9122 14.7327 10.2699 14.7327 8.55752C14.7327 6.84511 14.053 5.20284 12.8431 3.99199C11.6331 2.78114 9.99215 2.10088 8.28107 2.10088C6.57 2.10088 4.929 2.78114 3.71909 3.99199C2.50918 5.20284 1.82946 6.84511 1.82946 8.55752C1.82946 10.2699 2.50918 11.9122 3.71909 13.1231C4.929 14.3339 6.57 15.0142 8.28107 15.0142ZM8.28107 0.486725C9.34012 0.486725 10.3888 0.695482 11.3672 1.10108C12.3457 1.50667 13.2347 2.10116 13.9835 2.85061C14.7324 3.60005 15.3264 4.48977 15.7317 5.46896C16.137 6.44815 16.3456 7.49765 16.3456 8.55752C16.3456 10.698 15.4959 12.7509 13.9835 14.2644C12.4712 15.778 10.4199 16.6283 8.28107 16.6283C3.82139 16.6283 0.216553 12.9965 0.216553 8.55752C0.216553 6.41701 1.0662 4.36417 2.5786 2.85061C4.09099 1.33704 6.14223 0.486725 8.28107 0.486725ZM8.6843 4.52212V8.75929L12.3133 10.9142L11.7085 11.9069L7.47462 9.3646V4.52212H8.6843Z" fill="black"/>
</svg>
