<svg version="1.1" xmlns="http://www.w3.org/2000/svg" viewBox="0 0 931.3097826956501 302.5678117541445" width="2793.9293480869505" height="907.7034352624335" filter="invert(93%) hue-rotate(180deg)">
  <!-- svg-source:excalidraw -->
  
  <defs>
    <style>
      @font-face {
        font-family: "Virgil";
        src: url("https://excalidraw.com/Virgil.woff2");
      }
      @font-face {
        font-family: "Cascadia";
        src: url("https://excalidraw.com/Cascadia.woff2");
      }
    </style>
  </defs>
  <g stroke-linecap="round" transform="translate(10 97.19517341615665) rotate(0 105.810546875 96.396484375)"><path d="M0 0 C79.95 0, 159.89 0, 211.62 0 M0 0 C58.24 0, 116.48 0, 211.62 0 M211.62 0 C211.62 43.82, 211.62 87.64, 211.62 192.79 M211.62 0 C211.62 44.95, 211.62 89.9, 211.62 192.79 M211.62 192.79 C158.48 192.79, 105.34 192.79, 0 192.79 M211.62 192.79 C156.03 192.79, 100.43 192.79, 0 192.79 M0 192.79 C0 148.36, 0 103.93, 0 0 M0 192.79 C0 145.98, 0 99.17, 0 0" stroke="#1e1e1e" stroke-width="2" fill="none"></path></g><g stroke-linecap="round" transform="translate(358.88810880104245 99.77484300414449) rotate(0 105.810546875 96.396484375)"><path d="M0 0 C66.62 0, 133.24 0, 211.62 0 M0 0 C63.62 0, 127.25 0, 211.62 0 M211.62 0 C211.62 61.41, 211.62 122.81, 211.62 192.79 M211.62 0 C211.62 41.65, 211.62 83.31, 211.62 192.79 M211.62 192.79 C131.27 192.79, 50.91 192.79, 0 192.79 M211.62 192.79 C129.88 192.79, 48.14 192.79, 0 192.79 M0 192.79 C0 136.01, 0 79.22, 0 0 M0 192.79 C0 141.23, 0 89.67, 0 0" stroke="#1e1e1e" stroke-width="2" fill="none"></path></g><g stroke-linecap="round" transform="translate(709.6886889456501 97.88367258438439) rotate(0 105.810546875 96.396484375)"><path d="M0 0 C80.36 0, 160.73 0, 211.62 0 M0 0 C78.26 0, 156.52 0, 211.62 0 M211.62 0 C211.62 68.94, 211.62 137.89, 211.62 192.79 M211.62 0 C211.62 61.22, 211.62 122.44, 211.62 192.79 M211.62 192.79 C161.74 192.79, 111.87 192.79, 0 192.79 M211.62 192.79 C133.76 192.79, 55.89 192.79, 0 192.79 M0 192.79 C0 150.64, 0 108.48, 0 0 M0 192.79 C0 134.65, 0 76.51, 0 0" stroke="#1e1e1e" stroke-width="2" fill="none"></path></g><g transform="translate(66.08053085295592 161.45298591615665) rotate(0 47 18)"><text x="0" y="25" font-family="Virgil, Segoe UI Emoji" font-size="28px" fill="#1e1e1e" text-anchor="start" style="white-space: pre;" direction="ltr">ESP32</text></g><g transform="translate(417.55021817604245 162.0619523791445) rotate(0 49 18)"><text x="0" y="25" font-family="Virgil, Segoe UI Emoji" font-size="28px" fill="#1e1e1e" text-anchor="start" style="white-space: pre;" direction="ltr">Arduino</text></g><g transform="translate(738.8507983206501 160.49890695938439) rotate(0 77.5 18)"><text x="0" y="25" font-family="Virgil, Segoe UI Emoji" font-size="28px" fill="#1e1e1e" text-anchor="start" style="white-space: pre;" direction="ltr">luos_engine</text></g><g transform="translate(760.5578295706501 234.22937570938439) rotate(0 58.5 12.5)"><text x="0" y="18" font-family="Virgil, Segoe UI Emoji" font-size="20px" fill="#ff5101" text-anchor="start" style="white-space: pre;" direction="ltr">Microservice</text></g><g transform="translate(447.54631192604245 242.7885148791445) rotate(0 20.5 12.5)"><text x="0" y="18" font-family="Virgil, Segoe UI Emoji" font-size="20px" fill="#bd99ff" text-anchor="start" style="white-space: pre;" direction="ltr">SDK</text></g><g transform="translate(50.49413033069811 238.09314789389896) rotate(0 66.5 12.5)"><text x="0" y="18" font-family="Virgil, Segoe UI Emoji" font-size="20px" fill="#323334" text-anchor="start" style="white-space: pre;" direction="ltr">HW peripherial</text></g><g stroke-linecap="round"><g transform="translate(149.55631373600124 62.03167227506884) rotate(0 148.34375 -0.654296875)"><path d="M0 0 C49.45 -0.22, 247.24 -1.09, 296.69 -1.31 M0 0 C49.45 -0.22, 247.24 -1.09, 296.69 -1.31" stroke="#ff5101" stroke-width="2" fill="none"></path></g></g><g stroke-linecap="round"><g transform="translate(446.6504875622031 61.5010657181395) rotate(0 8.815093519672132 16.21402765036865)"><path d="M0 0 C2.94 5.4, 14.69 27.02, 17.63 32.43 M0 0 C2.94 5.4, 14.69 27.02, 17.63 32.43" stroke="#ff5101" stroke-width="2" fill="none"></path></g><g transform="translate(446.6504875622031 61.5010657181395) rotate(0 8.815093519672132 16.21402765036865)"><path d="M3.8 20.21 C7.17 23.19, 10.54 26.17, 17.63 32.43 M3.8 20.21 C8.33 24.21, 12.85 28.21, 17.63 32.43" stroke="#ff5101" stroke-width="2" fill="none"></path></g><g transform="translate(446.6504875622031 61.5010657181395) rotate(0 8.815093519672132 16.21402765036865)"><path d="M14.89 14.18 C15.56 18.63, 16.23 23.08, 17.63 32.43 M14.89 14.18 C15.79 20.15, 16.68 26.13, 17.63 32.43" stroke="#ff5101" stroke-width="2" fill="none"></path></g></g><g stroke-linecap="round"><g transform="translate(148.78197412218043 62.54830966318559) rotate(0 -12.341094052272098 15.15140183703079)"><path d="M0 0 C-4.11 5.05, -20.57 25.25, -24.68 30.3 M0 0 C-4.11 5.05, -20.57 25.25, -24.68 30.3" stroke="#ff5101" stroke-width="2" fill="none"></path></g><g transform="translate(148.78197412218043 62.54830966318559) rotate(0 -12.341094052272098 15.15140183703079)"><path d="M-18.27 11.84 C-20.43 18.06, -22.59 24.27, -24.68 30.3 M-18.27 11.84 C-20.18 17.36, -22.1 22.88, -24.68 30.3" stroke="#ff5101" stroke-width="2" fill="none"></path></g><g transform="translate(148.78197412218043 62.54830966318559) rotate(0 -12.341094052272098 15.15140183703079)"><path d="M-7.9 20.29 C-13.55 23.66, -19.2 27.03, -24.68 30.3 M-7.9 20.29 C-12.92 23.28, -17.93 26.27, -24.68 30.3" stroke="#ff5101" stroke-width="2" fill="none"></path></g></g><g stroke-linecap="round"><g transform="translate(501.2952195124893 61.005638475905414) rotate(0 170.71282737430772 -0.9383766973681134)"><path d="M0 0 C56.9 -0.31, 284.52 -1.56, 341.43 -1.88 M0 0 C56.9 -0.31, 284.52 -1.56, 341.43 -1.88" stroke="#ff5101" stroke-width="2" fill="none"></path></g></g><g stroke-linecap="round"><g transform="translate(842.9138882325575 59.25168768209056) rotate(0 7.788728855989575 15.935578485762278)"><path d="M0 0 C2.6 5.31, 12.98 26.56, 15.58 31.87 M0 0 C2.6 5.31, 12.98 26.56, 15.58 31.87" stroke="#ff5101" stroke-width="2" fill="none"></path></g><g transform="translate(842.9138882325575 59.25168768209056) rotate(0 7.788728855989575 15.935578485762278)"><path d="M2.81 19.56 C5.94 22.58, 9.08 25.61, 15.58 31.87 M2.81 19.56 C6.12 22.76, 9.44 25.95, 15.58 31.87" stroke="#ff5101" stroke-width="2" fill="none"></path></g><g transform="translate(842.9138882325575 59.25168768209056) rotate(0 7.788728855989575 15.935578485762278)"><path d="M13.71 14.23 C14.17 18.57, 14.63 22.9, 15.58 31.87 M13.71 14.23 C14.19 18.81, 14.68 23.39, 15.58 31.87" stroke="#ff5101" stroke-width="2" fill="none"></path></g></g><g stroke-linecap="round"><g transform="translate(501.04236158527965 61.71043921762174) rotate(0 -13.601359033092649 16.203505929744892)"><path d="M0 0 C-4.53 5.4, -22.67 27.01, -27.2 32.41 M0 0 C-4.53 5.4, -22.67 27.01, -27.2 32.41" stroke="#ff5101" stroke-width="2" fill="none"></path></g><g transform="translate(501.04236158527965 61.71043921762174) rotate(0 -13.601359033092649 16.203505929744892)"><path d="M-19.96 12.53 C-22.56 19.67, -25.16 26.8, -27.2 32.41 M-19.96 12.53 C-21.91 17.87, -23.85 23.2, -27.2 32.41" stroke="#ff5101" stroke-width="2" fill="none"></path></g><g transform="translate(501.04236158527965 61.71043921762174) rotate(0 -13.601359033092649 16.203505929744892)"><path d="M-8.88 21.83 C-15.46 25.63, -22.04 29.43, -27.2 32.41 M-8.88 21.83 C-13.8 24.67, -18.72 27.51, -27.2 32.41" stroke="#ff5101" stroke-width="2" fill="none"></path></g></g><g transform="translate(157.51371511094976 10) rotate(0 113.5 20)"><text x="0" y="14" font-family="Virgil, Segoe UI Emoji" font-size="16px" fill="#1e1e1e" text-anchor="start" style="white-space: pre;" direction="ltr">Easily develop your features</text><text x="0" y="34" font-family="Virgil, Segoe UI Emoji" font-size="16px" fill="#1e1e1e" text-anchor="start" style="white-space: pre;" direction="ltr">and use a user-friendly API.</text></g><g transform="translate(497.94882173671306 10.408202144602) rotate(0 185 20)"><text x="0" y="14" font-family="Virgil, Segoe UI Emoji" font-size="16px" fill="#1e1e1e" text-anchor="start" style="white-space: pre;" direction="ltr">Encapsulate your code with Luos to share it, </text><text x="0" y="34" font-family="Virgil, Segoe UI Emoji" font-size="16px" fill="#1e1e1e" text-anchor="start" style="white-space: pre;" direction="ltr">connect and control your system</text></g></svg>