<?xml version="1.0" encoding="utf-8"?>
<!-- Generator: Adobe Illustrator 26.5.0, SVG Export Plug-In . SVG Version: 6.00 Build 0)  -->
<svg version="1.1" id="Calque_1" xmlns="http://www.w3.org/2000/svg" xmlns:xlink="http://www.w3.org/1999/xlink" x="0px" y="0px"
	 viewBox="0 0 300 300" style="enable-background:new 0 0 300 300;" xml:space="preserve">
<style type="text/css">
	.st0{fill:none;stroke:#000000;stroke-linecap:round;stroke-miterlimit:12;}
	.st1{font-family:'ArialMT';}
	.st2{font-size:3.0975px;}
	.st3{font-size:4.6759px;}
	.st4{font-size:7.8203px;}
</style>
<g>
	<g transform="translate(120 2663) rotate(0 415 490)">
		<path class="st0" d="M-103-2547.2c4.1,0,8.3,0,10.4,0 M-103-2547.2c3.2,0,6.4,0,10.4,0 M-92.7-2547.2c3.5,0,5.2,1.7,5.2,5.2
			 M-92.7-2547.2c3.4,0,5.2,1.7,5.2,5.2 M-87.5-2542c0,5,0,9.9,0,14.1 M-87.5-2542c0,3.1,0,6.2,0,14.1 M-87.5-2527.9
			c0,3.5-1.7,5.2-5.2,5.2 M-87.5-2527.9c0,3.4-1.8,5.2-5.2,5.2 M-92.7-2522.8c-2.3,0-4.7,0-10.4,0 M-92.7-2522.8
			c-2.1,0-4.2,0-10.4,0 M-103-2522.8c-3.5,0-5.2-1.8-5.2-5.2 M-103-2522.8c-3.4,0-5.2-1.8-5.2-5.2 M-108.2-2527.9
			c0-4.7,0-9.4,0-14.1 M-108.2-2527.9c0-5,0.1-10.1,0-14.1 M-108.2-2542c0-3.5,1.7-5.1,5.2-5.2 M-108.2-2542c0-3.5,1.8-5.1,5.2-5.2"
			/>
	</g>
	<g transform="translate(218.5 3074.5) rotate(0 316.5 78.5)">
		<text transform="matrix(1 0 0 1 -203.5809 -2945.7058)" class="st1 st2">Barometer</text>
	</g>
	<g transform="translate(4475 4783) rotate(0 555 555)">
		<path class="st0" d="M-4347.5-4614.3c4.7,0,9.3,0.1,13.9,0 M-4347.5-4614.3c3.7,0,7.3,0,13.9,0 M-4333.6-4614.3
			c4.6,0,6.9,2.3,6.9,6.9 M-4333.6-4614.3c4.6,0,7,2.3,6.9,6.9 M-4326.7-4607.3c0,4.3-0.1,8.6,0,13.9 M-4326.7-4607.3
			c0,2.8,0,5.6,0,13.9 M-4326.7-4593.5c0,4.7-2.3,6.9-6.9,6.9 M-4326.7-4593.5c-0.1,4.7-2.4,6.9-6.9,6.9 M-4333.6-4586.5
			c-5.1,0-10.2,0-13.9,0 M-4333.6-4586.5c-4,0-8,0.1-13.9,0 M-4347.5-4586.5c-4.6,0-6.9-2.3-6.9-6.9 M-4347.5-4586.5
			c-4.6,0-6.9-2.3-6.9-6.9 M-4354.4-4593.5c0-4.4,0-8.9,0-13.9 M-4354.4-4593.5c0-5.2,0-10.4,0-13.9 M-4354.4-4607.3
			c0-4.6,2.4-7,6.9-6.9 M-4354.4-4607.3c0.1-4.6,2.3-7,6.9-6.9"/>
	</g>
	<g transform="translate(4513.5 5181) rotate(0 516.5 157)">
		<text transform="matrix(1 0 0 1 -4391.1201 -4999.585)" class="st1 st2">Apogee detection</text>
		<text transform="matrix(1 0 0 1 -4386.6406 -4995.6631)" class="st1 st2">Application</text>
	</g>
	<g transform="translate(10 843) rotate(0 3595 3600)">
		<path class="st0" d="M43.9-772.7c20.3,0.3,40.6,0.3,89.8,0 M43.9-772.7c29.3,0.1,58.7,0.1,89.8,0 M133.7-772.7
			c29.9,0,44.9,15,44.9,44.9 M133.7-772.7c30,0,44.9,14.9,44.9,44.9 M178.6-727.8c-0.3,31.2-0.3,62.4,0,90.1 M178.6-727.8
			c0.2,31.1,0.2,62.1,0,90.1 M178.6-637.7c0,29.9-15,44.9-44.9,44.9 M178.6-637.7c0,29.9-14.9,44.9-44.9,44.9 M133.7-592.8
			c-22.7,0.2-45.4,0.1-89.8,0 M133.7-592.8c-35.9-0.3-71.8-0.3-89.8,0 M43.9-592.8C14-592.8-1-607.8-1-637.7 M43.9-592.8
			C14-592.8-1-607.8-1-637.7 M-1-637.7c0-18.5,0-36.9,0-90.1 M-1-637.7c-0.4-34.7-0.4-69.4,0-90.1 M-1-727.8c0-30,15-44.9,44.9-44.9
			 M-1-727.8c0-30,15-44.9,44.9-44.9"/>
	</g>
	<g>
		<g transform="translate(198.64507427613717 1704.0384959810851) rotate(0 3415.279371570665 1.5433149843132696)">
			<path class="st0" d="M-184.9-1612.2c28.4,0,142.2,0,170.7,0 M-184.9-1612.2c28.4,0,142.2,0,170.7,0"/>
		</g>
	</g>
	<g transform="translate(2621 1134.5) rotate(0 707.9808917197442 118.50000000000003)">
		<text transform="matrix(1 0 0 1 -2545.3005 -1052.7684)" class="st1 st3">Nucleo L073RZ</text>
	</g>
	<g transform="translate(9965 4883) rotate(0 415 490)">
		<path class="st0" d="M-9702.1-4711.8c3.2,0,6.4,0,10.4,0 M-9702.1-4711.8c4,0,8,0,10.4,0 M-9691.7-4711.8c3.4,0,5.2,1.7,5.2,5.2
			 M-9691.7-4711.8c3.4,0,5.1,1.8,5.2,5.2 M-9686.6-4706.6c0,3.1,0,6.2,0,14.1 M-9686.6-4706.6c0,4.8,0,9.6,0,14.1 M-9686.6-4692.5
			c0,3.4-1.8,5.2-5.2,5.2 M-9686.6-4692.5c0,3.4-1.7,5.2-5.2,5.2 M-9691.7-4687.3c-2.1,0-4.2,0-10.4,0 M-9691.7-4687.3
			c-2.7,0-5.4,0-10.4,0 M-9702.1-4687.3c-3.5,0-5.2-1.7-5.2-5.2 M-9702.1-4687.3c-3.5-0.1-5.2-1.7-5.2-5.2 M-9707.3-4692.5
			c0-5,0.1-10.1,0-14.1 M-9707.3-4692.5c0.1-4.9,0-9.7,0-14.1 M-9707.3-4706.6c0-3.5,1.7-5.1,5.2-5.2 M-9707.3-4706.6
			c0-3.5,1.7-5.2,5.2-5.2"/>
	</g>
	<g transform="translate(10145 5294.5) rotate(0 235 78.5)">
		<text transform="matrix(1 0 0 1 -9882.9482 -5110.251)" class="st1 st2">Solenoid</text>
	</g>
	<g transform="translate(9440 3873) rotate(0 930 1810)">
		<path class="st0" d="M-9183.8-3727c6.2,0,12.3,0,23.2,0 M-9183.8-3727c8.1,0,16.2,0.1,23.2,0 M-9160.6-3727
			c7.8,0,11.6,3.9,11.6,11.6 M-9160.6-3727c7.7,0,11.6,3.8,11.6,11.6 M-9148.9-3715.4c0.2,13.5,0.2,26.9,0,67.2 M-9148.9-3715.4
			c0.2,19.6,0.2,39.3,0,67.2 M-9148.9-3648.2c0,7.8-3.9,11.6-11.6,11.6 M-9148.9-3648.2c0,7.8-3.9,11.7-11.6,11.6 M-9160.6-3636.6
			c-6.7,0.1-13.4,0.1-23.2,0 M-9160.6-3636.6c-7.2,0-14.4,0-23.2,0 M-9183.8-3636.6c-7.7,0-11.6-3.9-11.6-11.6 M-9183.8-3636.6
			c-7.7,0-11.6-3.9-11.6-11.6 M-9195.4-3648.2c0.2-25.1,0.2-50.2,0-67.2 M-9195.4-3648.2c-0.3-15.9-0.3-31.9,0-67.2 M-9195.4-3715.4
			c0-7.7,3.9-11.6,11.6-11.6 M-9195.4-3715.4c0-7.7,3.9-11.6,11.6-11.6"/>
	</g>
	<g>
		<g transform="translate(9450 4343) rotate(0 920.6027755929463 4.307336530182511)">
			<path class="st0" d="M-9205.1-4185.3c7.7,0,38.3,0.2,46,0.2 M-9205.1-4185.3c7.7,0,38.3,0.2,46,0.3"/>
		</g>
	</g>
	<g transform="translate(9568 4044.5) rotate(0 782 118.5)">
		<text transform="matrix(1 0 0 1 -9319.3799 -3890.075)" class="st1 st3">Arduino MKRZero</text>
	</g>
	<g transform="translate(265 4008) rotate(0 415 490)">
		<path class="st0" d="M-244.4-3858.6c4,0,8,0,10.4,0 M-244.4-3858.6c2.8,0,5.7,0,10.4,0 M-234-3858.6c3.5,0,5.2,1.7,5.2,5.2
			 M-234-3858.6c3.5,0,5.2,1.7,5.2,5.2 M-228.9-3853.5c0,4.8,0,9.6,0,14.1 M-228.9-3853.5c0,4.9,0,9.9,0,14.1 M-228.9-3839.3
			c0,3.4-1.7,5.2-5.2,5.2 M-228.9-3839.3c0,3.5-1.8,5.1-5.2,5.2 M-234-3834.2c-2.7,0-5.4,0-10.4,0 M-234-3834.2c-2.6,0-5.3,0-10.4,0
			 M-244.4-3834.2c-3.4,0-5.2-1.7-5.2-5.2 M-244.4-3834.2c-3.5,0-5.1-1.7-5.2-5.2 M-249.6-3839.3c0.1-4.9,0-9.7,0-14.1
			 M-249.6-3839.3c0-5.3,0-10.6,0-14.1 M-249.6-3853.5c0-3.4,1.7-5.2,5.2-5.2 M-249.6-3853.5c0-3.4,1.7-5.2,5.2-5.2"/>
	</g>
	<g transform="translate(363.5 4419.5) rotate(0 316.5 78.5)">
		<text transform="matrix(1 0 0 1 -344.9588 -4257.1074)" class="st1 st2">Barometer</text>
	</g>
	<g transform="translate(1145 1888) rotate(0 415 490)">
		<path class="st0" d="M-1102.4-1791.6c3.6,0,7.2,0,10.4,0 M-1102.4-1791.6c3.4,0,6.7,0,10.4,0 M-1092.1-1791.6
			c3.4-0.1,5.2,1.8,5.2,5.2 M-1092.1-1791.6c3.5,0,5.2,1.7,5.2,5.2 M-1086.9-1786.4c0,4.1,0.1,8.2,0,14.1 M-1086.9-1786.4
			c0,3.4,0,6.8,0,14.1 M-1086.9-1772.3c0,3.4-1.8,5.2-5.2,5.2 M-1086.9-1772.3c0,3.4-1.8,5.2-5.2,5.2 M-1092.1-1767.1
			c-3.2,0-6.4,0-10.4,0 M-1092.1-1767.1c-3,0-6,0-10.4,0 M-1102.4-1767.1c-3.5,0-5.2-1.7-5.2-5.2 M-1102.4-1767.1
			c-3.4,0-5.2-1.8-5.2-5.2 M-1107.6-1772.3c-0.1-3.3,0-6.7,0-14.1 M-1107.6-1772.3c-0.1-3.1,0-6.2,0-14.1 M-1107.6-1786.4
			c0-3.4,1.8-5.2,5.2-5.2 M-1107.6-1786.4c0-3.5,1.7-5.1,5.2-5.2"/>
	</g>
	<g transform="translate(1243.5 2299.5) rotate(0 316.5 78.5)">
		<text transform="matrix(1 0 0 1 -1202.9753 -2190.0652)" class="st1 st2">Barometer</text>
	</g>
	<g transform="translate(9965 6088) rotate(0 415 490)">
		<path class="st0" d="M-9702.1-5886.7c3.2,0,6.3,0,10.4,0 M-9702.1-5886.7c2.3,0,4.6,0.1,10.4,0 M-9691.7-5886.7
			c3.5,0,5.2,1.7,5.2,5.2 M-9691.7-5886.7c3.5,0,5.2,1.7,5.2,5.2 M-9686.6-5881.5c0,2.9,0,5.7,0,14.1 M-9686.6-5881.5
			c0,4.1,0,8.2,0,14.1 M-9686.6-5867.4c0,3.4-1.7,5.2-5.2,5.2 M-9686.6-5867.4c0,3.4-1.7,5.2-5.2,5.2 M-9691.7-5862.2
			c-3.3,0-6.7,0-10.4,0 M-9691.7-5862.2c-3,0-6.1,0-10.4,0 M-9702.1-5862.2c-3.4,0-5.2-1.8-5.2-5.2 M-9702.1-5862.2
			c-3.5,0.1-5.1-1.8-5.2-5.2 M-9707.3-5867.4c-0.1-5.5,0-11.1,0-14.1 M-9707.3-5867.4c0-3.4,0-6.7,0-14.1 M-9707.3-5881.5
			c0-3.5,1.7-5.1,5.2-5.2 M-9707.3-5881.5c0-3.4,1.7-5.2,5.2-5.2"/>
	</g>
	<g transform="translate(10145 6499.5) rotate(0 235 78.5)">
		<text transform="matrix(1 0 0 1 -9882.9482 -6285.1494)" class="st1 st2">Solenoid</text>
	</g>
	<g transform="translate(295 5748) rotate(0 415 490)">
		<path class="st0" d="M-273.7-5555.2c3.5,0,7,0,10.4,0 M-273.7-5555.2c2.6,0,5.2,0,10.4,0 M-263.3-5555.2c3.5,0,5.2,1.7,5.2,5.2
			 M-263.3-5555.2c3.5,0,5.1,1.7,5.2,5.2 M-258.1-5550c0.1,4.1,0.1,8.2,0,14.1 M-258.1-5550c0,2.9,0,5.8,0,14.1 M-258.1-5535.9
			c0,3.5-1.7,5.2-5.2,5.2 M-258.1-5535.9c-0.1,3.4-1.7,5.2-5.2,5.2 M-263.3-5530.7c-3.7-0.1-7.5,0-10.4,0 M-263.3-5530.7
			c-2.4,0-4.8,0-10.4,0 M-273.7-5530.7c-3.5,0-5.2-1.7-5.2-5.2 M-273.7-5530.7c-3.4,0-5.2-1.7-5.2-5.2 M-278.8-5535.9
			c0-5.5,0-11.1,0-14.1 M-278.8-5535.9c0.1-3.6,0.1-7.3,0-14.1 M-278.8-5550c0-3.4,1.7-5.2,5.2-5.2 M-278.8-5550
			c0-3.4,1.7-5.2,5.2-5.2"/>
	</g>
	<g transform="translate(326 6159.5) rotate(0 384 78.5)">
		<text transform="matrix(1 0 0 1 -308.7742 -5953.6416)" class="st1 st2">Thermometer</text>
	</g>
	<g transform="translate(1085 6748) rotate(0 415 490)">
		<path class="st0" d="M-1043.9-6530.2c2.7,0,5.5,0,10.4,0 M-1043.9-6530.2c3.1,0,6.2,0,10.4,0 M-1033.6-6530.2
			c3.4,0,5.2,1.7,5.2,5.2 M-1033.6-6530.2c3.4,0.1,5.2,1.7,5.2,5.2 M-1028.4-6525c0,5.3,0,10.5,0,14.1 M-1028.4-6525
			c0,3.3,0.1,6.6,0,14.1 M-1028.4-6510.9c0,3.5-1.7,5.2-5.2,5.2 M-1028.4-6510.9c0,3.5-1.8,5.2-5.2,5.2 M-1033.6-6505.7
			c-4.1,0-8.1,0-10.4,0 M-1033.6-6505.7c-3.5,0-6.9,0-10.4,0 M-1043.9-6505.7c-3.5,0-5.2-1.7-5.2-5.2 M-1043.9-6505.7
			c-3.4,0-5.1-1.7-5.2-5.2 M-1049.1-6510.9c0-3.8,0-7.6,0-14.1 M-1049.1-6510.9c0-4.7,0-9.4,0-14.1 M-1049.1-6525
			c0-3.5,1.7-5.2,5.2-5.2 M-1049.1-6525c-0.1-3.4,1.7-5.2,5.2-5.2"/>
	</g>
	<g transform="translate(1116 7159.5) rotate(0 384 78.5)">
		<text transform="matrix(1 0 0 1 -1079.0388 -6928.6611)" class="st1 st2">Thermometer</text>
	</g>
	<g transform="translate(2305 6788) rotate(0 415 490)">
		<path class="st0" d="M-2233.5-6569.2c3.9,0,7.7,0,10.4,0 M-2233.5-6569.2c2.4,0,4.8,0,10.4,0 M-2223.1-6569.2
			c3.5,0,5.2,1.7,5.2,5.2 M-2223.1-6569.2c3.4,0,5.1,1.7,5.2,5.2 M-2217.9-6564c0,3.5,0,7.1,0,14.1 M-2217.9-6564c0,5.5,0,11,0,14.1
			 M-2217.9-6549.9c0,3.5-1.7,5.2-5.2,5.2 M-2217.9-6549.9c0,3.4-1.7,5.1-5.2,5.2 M-2223.1-6544.7c-3-0.1-6-0.1-10.4,0
			 M-2223.1-6544.7c-3.2,0-6.4,0-10.4,0 M-2233.5-6544.7c-3.4,0-5.2-1.7-5.2-5.2 M-2233.5-6544.7c-3.4,0-5.2-1.8-5.2-5.2
			 M-2238.6-6549.9c0-5.3,0-10.7,0-14.1 M-2238.6-6549.9c0-3.2,0-6.4,0-14.1 M-2238.6-6564c0-3.5,1.7-5.2,5.2-5.2 M-2238.6-6564
			c0-3.4,1.7-5.2,5.2-5.2"/>
	</g>
	<g transform="translate(2336 7199.5) rotate(0 384 78.5)">
		<text transform="matrix(1 0 0 1 -2268.5632 -6967.6631)" class="st1 st2">Thermometer</text>
	</g>
	<g transform="translate(4015 1968) rotate(0 415 490)">
		<path class="st0" d="M-3900.7-1869.6c2.3,0,4.6,0,10.4,0 M-3900.7-1869.6c3.5,0,7,0.1,10.4,0 M-3890.4-1869.6
			c3.4,0,5.2,1.7,5.2,5.2 M-3890.4-1869.6c3.5,0,5.2,1.8,5.2,5.2 M-3885.2-1864.4c0,5.6,0,11.2,0,14.1 M-3885.2-1864.4
			c0,5.2,0,10.5,0,14.1 M-3885.2-1850.3c0,3.5-1.8,5.2-5.2,5.2 M-3885.2-1850.3c0,3.4-1.8,5.2-5.2,5.2 M-3890.4-1845.1
			c-3.8,0-7.6,0.1-10.4,0 M-3890.4-1845.1c-2.7,0-5.3,0-10.4,0 M-3900.7-1845.1c-3.4,0-5.2-1.7-5.2-5.2 M-3900.7-1845.1
			c-3.5,0-5.2-1.7-5.2-5.2 M-3905.9-1850.3c0-3.3,0-6.6,0-14.1 M-3905.9-1850.3c0-4.1,0-8.1,0-14.1 M-3905.9-1864.4
			c0-3.5,1.8-5.2,5.2-5.2 M-3905.9-1864.4c0-3.5,1.7-5.1,5.2-5.2"/>
	</g>
	<g transform="translate(4047 2379.5) rotate(0 383 78.5)">
		<text transform="matrix(1 0 0 1 -3935.3855 -2268.0671)" class="st1 st2">Inertial Unit</text>
	</g>
	<g transform="translate(5355 1848) rotate(0 415 490)">
		<path class="st0" d="M-5207.3-1752.6c3.9,0,7.9,0,10.4,0 M-5207.3-1752.6c3,0,6,0,10.4,0 M-5196.9-1752.6c3.5,0,5.2,1.7,5.2,5.2
			 M-5196.9-1752.6c3.4,0,5.2,1.7,5.2,5.2 M-5191.7-1747.4c0,2.9,0,5.8,0,14.1 M-5191.7-1747.4c0,4,0,8,0,14.1 M-5191.7-1733.3
			c0,3.4-1.8,5.2-5.2,5.2 M-5191.7-1733.3c0,3.5-1.8,5.2-5.2,5.2 M-5196.9-1728.1c-3,0-5.9,0-10.4,0 M-5196.9-1728.1
			c-3.5-0.1-6.9,0-10.4,0 M-5207.3-1728.1c-3.5,0-5.2-1.8-5.2-5.2 M-5207.3-1728.1c-3.4,0-5.1-1.8-5.2-5.2 M-5212.4-1733.3
			c-0.1-4.7-0.1-9.4,0-14.1 M-5212.4-1733.3c0-3.7,0-7.4,0-14.1 M-5212.4-1747.4c0-3.5,1.8-5.1,5.2-5.2 M-5212.4-1747.4
			c0-3.5,1.7-5.2,5.2-5.2"/>
	</g>
	<g transform="translate(5387 2259.5) rotate(0 383 78.5)">
		<text transform="matrix(1 0 0 1 -5241.9121 -2151.0642)" class="st1 st2">Inertial Unit</text>
	</g>
	<g transform="translate(6215 2848) rotate(0 415 490)">
		<path class="st0" d="M-6045.8-2727.6c4.1,0,8.1,0,10.4,0 M-6045.8-2727.6c3.4,0,6.7,0,10.4,0 M-6035.4-2727.6
			c3.5,0,5.2,1.7,5.2,5.2 M-6035.4-2727.6c3.4-0.1,5.2,1.7,5.2,5.2 M-6030.2-2722.4c-0.1,4,0,8,0,14.1 M-6030.2-2722.4
			c0,2.9,0,5.7,0,14.1 M-6030.2-2708.3c0,3.4-1.7,5.2-5.2,5.2 M-6030.2-2708.3c0,3.5-1.7,5.2-5.2,5.2 M-6035.4-2703.1
			c-3.2,0-6.5,0-10.4,0 M-6035.4-2703.1c-3.2,0-6.5,0-10.4,0 M-6045.8-2703.1c-3.4,0-5.2-1.7-5.2-5.2 M-6045.8-2703.1
			c-3.4,0-5.2-1.7-5.2-5.2 M-6051-2708.3c0.1-4.5,0.1-9,0-14.1 M-6051-2708.3c0-4,0-8,0-14.1 M-6051-2722.4c0-3.4,1.8-5.2,5.2-5.2
			 M-6051-2722.4c-0.1-3.5,1.8-5.2,5.2-5.2"/>
	</g>
	<g transform="translate(6247 3259.5) rotate(0 383 78.5)">
		<text transform="matrix(1 0 0 1 -6080.4292 -3126.0837)" class="st1 st2">Inertial Unit</text>
	</g>
	<g transform="translate(4659.000000000015 10) rotate(0 1921 198)">
		<text transform="matrix(1 0 0 1 -4553.8604 46.4387)" class="st1 st4">ESL-1&apos;s electronic system</text>
	</g>
	<g transform="translate(1585 3193) rotate(0 555 555)">
		<path class="st0" d="M-1529.7-3064c3.3,0,6.7,0,13.9,0 M-1529.7-3064c3.8,0,7.6,0,13.9,0 M-1515.8-3064c4.7,0,6.9,2.3,6.9,6.9
			 M-1515.8-3064c4.6,0,6.9,2.3,6.9,6.9 M-1508.9-3057.1c0,3.2,0,6.4,0,13.9 M-1508.9-3057.1c0,4.6,0,9.3,0,13.9 M-1508.9-3043.2
			c0,4.6-2.3,6.9-6.9,6.9 M-1508.9-3043.2c0,4.6-2.3,6.9-6.9,6.9 M-1515.8-3036.3c-4.1,0-8.1,0.1-13.9,0 M-1515.8-3036.3
			c-4.6,0.1-9.1,0-13.9,0 M-1529.7-3036.3c-4.6,0-6.9-2.3-6.9-6.9 M-1529.7-3036.3c-4.6,0-7-2.3-6.9-6.9 M-1536.6-3043.2
			c-0.1-3.9-0.1-7.8,0-13.9 M-1536.6-3043.2c0-3.4,0-6.9,0-13.9 M-1536.6-3057.1c0-4.6,2.3-6.9,6.9-6.9 M-1536.6-3057.1
			c0-4.7,2.3-6.9,6.9-6.9"/>
	</g>
	<g transform="translate(1727 3512.5) rotate(0 413 235.5)">
		<text transform="matrix(1 0 0 1 -1670.9548 -3372.7644)" class="st1 st2">Pressure</text>
		<text transform="matrix(1 0 0 1 -1674.3982 -3368.8425)" class="st1 st2">Determination</text>
		<text transform="matrix(1 0 0 1 -1672.3337 -3364.9207)" class="st1 st2">Application</text>
	</g>
	<g transform="translate(4095 3163) rotate(0 555 555)">
		<path class="st0" d="M-3977-3034.7c5.3,0,10.6,0,13.9,0 M-3977-3034.7c3.3,0,6.6,0,13.9,0 M-3963.1-3034.7c4.6,0,7,2.3,6.9,6.9
			 M-3963.1-3034.7c4.6,0,6.9,2.3,6.9,6.9 M-3956.2-3027.8c0,3.2,0,6.3,0,13.9 M-3956.2-3027.8c0,4.1,0,8.1,0,13.9 M-3956.2-3013.9
			c0,4.6-2.3,6.9-6.9,6.9 M-3956.2-3013.9c0,4.7-2.3,7-6.9,6.9 M-3963.1-3007c-5,0-10,0-13.9,0 M-3963.1-3007c-5.1,0-10.2,0-13.9,0
			 M-3977-3007c-4.6,0-6.9-2.3-6.9-6.9 M-3977-3007c-4.6,0-6.9-2.3-6.9-6.9 M-3983.9-3013.9c0-3.3,0-6.5,0-13.9 M-3983.9-3013.9
			c0-5.2,0-10.4,0-13.9 M-3983.9-3027.8c0-4.6,2.3-6.9,6.9-6.9 M-3983.9-3027.8c0-4.6,2.3-7,6.9-6.9"/>
	</g>
	<g transform="translate(4237 3482.5) rotate(0 413 235.5)">
		<text transform="matrix(1 0 0 1 -4120.5791 -3343.5134)" class="st1 st2">Acceleration</text>
		<text transform="matrix(1 0 0 1 -4121.6973 -3339.5916)" class="st1 st2">Determination</text>
		<text transform="matrix(1 0 0 1 -4119.6328 -3335.6697)" class="st1 st2">Application</text>
	</g>
	<g transform="translate(1855 5073) rotate(0 555 555)">
		<path class="st0" d="M-1792.9-4897c2.9,0,5.8,0,13.9,0 M-1792.9-4897c3.7,0,7.4,0,13.9,0 M-1779.1-4897c4.6,0,7,2.3,6.9,6.9
			 M-1779.1-4897c4.6,0,6.9,2.3,6.9,6.9 M-1772.1-4890.1c0,3.6,0,7.3,0,13.9 M-1772.1-4890.1c0,5.4,0,10.8,0,13.9 M-1772.1-4876.2
			c0,4.6-2.3,6.9-6.9,6.9 M-1772.1-4876.2c0,4.6-2.3,6.9-6.9,6.9 M-1779.1-4869.3c-5-0.1-10-0.1-13.9,0 M-1779.1-4869.3
			c-3.7,0-7.5,0-13.9,0 M-1792.9-4869.3c-4.6,0-6.9-2.3-6.9-6.9 M-1792.9-4869.3c-4.6,0-6.9-2.4-6.9-6.9 M-1799.9-4876.2
			c0.1-5.2,0.1-10.5,0-13.9 M-1799.9-4876.2c0-4.9,0-9.8,0-13.9 M-1799.9-4890.1c0-4.7,2.3-6.9,6.9-6.9 M-1799.9-4890.1
			c0-4.6,2.3-6.9,6.9-6.9"/>
	</g>
	<g transform="translate(1997 5392.5) rotate(0 413 235.5)">
		<text transform="matrix(1 0 0 1 -1936.7068 -5205.8018)" class="st1 st2">Temperature</text>
		<text transform="matrix(1 0 0 1 -1937.6541 -5201.8799)" class="st1 st2">Determination</text>
		<text transform="matrix(1 0 0 1 -1935.5886 -5197.958)" class="st1 st2">Application</text>
	</g>
	<g transform="translate(4525 6263) rotate(0 555 555)">
		<path class="st0" d="M-4396.2-6057.3c3.3,0,6.6,0,13.9,0 M-4396.2-6057.3c5.2,0,10.4,0,13.9,0 M-4382.4-6057.3
			c4.6,0,7,2.3,6.9,6.9 M-4382.4-6057.3c4.6,0,6.9,2.3,6.9,6.9 M-4375.5-6050.4c0,5.2,0,10.4,0,13.9 M-4375.5-6050.4
			c0,4.5,0,9,0,13.9 M-4375.5-6036.5c0,4.6-2.3,6.9-6.9,6.9 M-4375.5-6036.5c0,4.6-2.3,7-6.9,6.9 M-4382.4-6029.6
			c-3.9,0-7.8,0-13.9,0 M-4382.4-6029.6c-4.6,0-9.1,0-13.9,0 M-4396.2-6029.6c-4.6,0-6.9-2.3-6.9-6.9 M-4396.2-6029.6
			c-4.6,0-6.9-2.3-6.9-6.9 M-4403.2-6036.5c0-5,0-10.1,0-13.9 M-4403.2-6036.5c0-3.9,0-7.9,0-13.9 M-4403.2-6050.4
			c0-4.6,2.3-7,6.9-6.9 M-4403.2-6050.4c0-4.6,2.4-7,6.9-6.9"/>
	</g>
	<g transform="translate(4771.5 6721) rotate(0 298.5 78.5)">
		<text transform="matrix(1 0 0 1 -4642.7783 -6501.1152)" class="st1 st2">Telemetry</text>
	</g>
	<g>
		<g transform="translate(1920 2828) rotate(0 159.97283354877436 180.25009409973404)">
			<path class="st0" d="M-1863.2-2708.1c1.2,0.6,5.6,2.2,7,3.7c1.3,1.5,0.9,4.4,1,5.2 M-1863.3-2708.1c1.2,0.6,5.7,2.3,7.1,3.8
				c1.3,1.5,0.8,4.4,1,5.2"/>
		</g>
	</g>
	<g>
		<g transform="translate(950 3348) rotate(0 314.6384607251748 74.73766484297812)">
			<path class="st0" d="M-917.5-3215.1c1,0.4,3.4,1.7,6,2.3s8.1,1.2,9.8,1.5 M-917.4-3215.1c1,0.4,3.4,1.6,6,2.2
				c2.6,0.6,8.1,1.2,9.7,1.5"/>
		</g>
	</g>
	<g>
		<g transform="translate(1100 4338) rotate(0 240.00422901766433 -184.11108835326513)">
			<path class="st0" d="M-1063.7-4180.4c0.5-0.9,0.7-3.7,2.7-5.2c2-1.5,7.7-3.3,9.3-4 M-1063.8-4180.3c0.4-0.9,0.7-3.7,2.7-5.2
				c2-1.5,7.7-3.3,9.3-4"/>
		</g>
	</g>
	<g>
		<g transform="translate(1130 5978) rotate(0 359.2621241593224 -224.8747051371538)">
			<path class="st0" d="M-1093-5779.4c0.9-1,2.2-4.1,5.2-6c3-1.9,10.6-4.4,12.8-5.3 M-1093-5779.4c0.9-1,2.3-4.1,5.3-6
				c3-1.9,10.6-4.4,12.8-5.3"/>
		</g>
	</g>
	<g>
		<g transform="translate(1540 6748) rotate(0 174.14629550941754 -325.16497676910876)">
			<path class="st0" d="M-1492.7-6530.2c0.1-1.5-1-6.3,0.5-9c1.5-2.7,7.1-6,8.5-7.2 M-1492.8-6530.2c0.1-1.5-1-6.3,0.5-9
				s7-6.1,8.5-7.3"/>
		</g>
	</g>
	<g>
		<g transform="translate(2700 6778) rotate(0 -49.79967424362985 -294.794000176033)">
			<path class="st0" d="M-2623.8-6559.5c0-1,0.2-3.8-0.2-6.2c-0.4-2.5-1.9-7.1-2.3-8.5 M-2623.8-6559.4c0-1,0.2-3.8-0.2-6.2
				c-0.4-2.5-1.8-7.1-2.2-8.5"/>
		</g>
	</g>
	<g>
		<g transform="translate(4510 2938) rotate(0 110.39122469323047 115.148278768193)">
			<path class="st0" d="M-4388.5-2815.4c0.6,0.4,2.8,1.6,3.7,2.5c0.9,1,1.5,2.7,1.8,3.2 M-4388.6-2815.3c0.6,0.4,2.9,1.5,3.8,2.4
				c0.9,1,1.4,2.8,1.7,3.3"/>
		</g>
	</g>
	<g>
		<g transform="translate(5500 2828) rotate(0 -148.76210529427044 239.4041614587976)">
			<path class="st0" d="M-5353.8-2708.1c-0.1,1.2,0.5,5-0.8,7c-1.3,2-5.6,4.1-6.7,5 M-5353.8-2708.1c-0.1,1.2,0.5,5-0.7,7
				c-1.2,2-5.6,4.2-6.7,5"/>
		</g>
	</g>
	<g>
		<g transform="translate(6240 3758) rotate(0 -515.1034634437092 105.49652212260298)">
			<path class="st0" d="M-6075.4-3614.9c-2,0.8-7.7,3.7-12,4.5c-4.3,0.9-11.5,0.6-13.8,0.7 M-6075.3-3614.8c-2,0.7-7.7,3.6-12,4.4
				c-4.3,0.9-11.5,0.7-13.8,0.8"/>
		</g>
	</g>
	<g>
		<g transform="translate(4710 4268) rotate(0 -20.135870511687244 265.0349620345978)">
			<path class="st0" d="M-4583.5-4112.2c-0.2,1.2-1,5.3-1,7.5s0.6,4.8,0.7,5.8 M-4583.6-4112.1c-0.2,1.3-1,5.3-1,7.5
				c0,2.2,0.7,4.8,0.8,5.7"/>
		</g>
	</g>
	<g>
		<g transform="translate(2660 4198) rotate(0 909.7513330582515 409.3760596223267)">
			<path class="st0" d="M-2584.8-4043.9c3,2.4,10.7,10.9,18.3,14.3c7.6,3.4,22.7,5.2,27.2,6.2 M-2584.8-4043.9
				c3,2.4,10.6,10.8,18.2,14.2c7.6,3.4,22.7,5.2,27.2,6.3"/>
		</g>
	</g>
	<g>
		<g transform="translate(2970 5478) rotate(0 754.622379243745 -52.03223476854191)">
			<path class="st0" d="M-2887.1-5291.9c2.6,0.1,9.2,1.1,15.5,0.5c6.3-0.5,18.6-3.1,22.3-3.8 M-2887-5291.9c2.6,0.1,9.2,1,15.5,0.5
				s18.5-3.1,22.2-3.8"/>
		</g>
	</g>
	<g>
		<g transform="translate(5590 5128) rotate(0 2190.411567037103 66.32354537177252)">
			<path class="st0" d="M-5441.6-4950.7c4.2-0.4,7.2-3.5,25.5-2.5s69.9,7.1,83.9,8.5 M-5441.6-4950.6c4.3-0.4,7.3-3.5,25.5-2.5
				c18.2,1,70,7.1,83.9,8.5"/>
		</g>
	</g>
	<g>
		<g transform="translate(5590 5458) rotate(0 2190.012762599814 529.0127110426502)">
			<path class="st0" d="M-5441.6-5272.4c9.4,2.2,38.3,8.6,56.5,13c18.2,4.4,44.1,11.2,53,13.5 M-5441.6-5272.5
				c9.4,2.2,38.2,8.6,56.4,13s44.1,11.2,53,13.5"/>
		</g>
	</g>
	<g>
		<g transform="translate(2940 6068) rotate(0 789.4486487977119 360.063935633214)">
			<path class="st0" d="M-2857.8-5867.2c3,2.7,11.4,13.3,17.9,16.3s17.9,1.2,21.5,1.5 M-2857.8-5867.1c3,2.7,11.5,13.2,18,16.2
				c6.6,3,17.8,1.3,21.4,1.5"/>
		</g>
	</g>
	<g>
		<g transform="translate(5150 4188) rotate(0 374.0308901939279 1069.590056818817)">
			<path class="st0" d="M-5012.6-4034.1c3.1,2.2,16.7,4.1,18.5,13c1.8,8.9-6.5,33.7-7.7,40.5 M-5012.6-4034.1
				c3.1,2.2,16.7,4.1,18.5,13s-6.5,33.7-7.7,40.4"/>
		</g>
	</g>
	<g>
		<g transform="translate(2610 4268) rotate(0 990.0002726019884 1024.8330946950057)">
			<path class="st0" d="M-2536-4112.1c3.1,3.9,10.2,14.9,18.5,23.4s25.9,23.1,31,27.7 M-2536-4112.1c3.1,3.9,10.2,15,18.5,23.5
				c8.3,8.5,25.9,23.1,31,27.7"/>
		</g>
	</g>
	<g>
		<g transform="translate(5080 5898) rotate(0 -27.042274793377146 179.9862218197436)">
			<path class="st0" d="M-4944.3-5701.4c-0.2,1-1,4.3-1.2,5.8c-0.2,1.5,0,2.7,0,3.2 M-4944.4-5701.4c-0.2,1-1,4.2-1.2,5.7
				s0,2.7,0,3.2"/>
		</g>
	</g>
</g>
</svg>
