<?xml version="1.0" encoding="utf-8"?>
<!-- Generator: Adobe Illustrator 26.5.0, SVG Export Plug-In . SVG Version: 6.00 Build 0)  -->
<svg version="1.1" id="Calque_1" xmlns="http://www.w3.org/2000/svg" xmlns:xlink="http://www.w3.org/1999/xlink" x="0px" y="0px"
	 viewBox="0 0 300 300" style="enable-background:new 0 0 300 300;" xml:space="preserve">
<style type="text/css">
	.st0{fill:none;stroke:#5C940D;stroke-linecap:round;stroke-miterlimit:12;}
	.st1{fill:#5C940D;}
	.st2{font-family:'ArialMT';}
	.st3{font-size:2.5273px;}
	.st4{fill:none;stroke:#000000;stroke-linecap:round;stroke-miterlimit:12;}
	.st5{font-size:3.8151px;}
	.st6{fill:none;stroke:#C92A2A;stroke-linecap:round;stroke-miterlimit:12;}
	.st7{fill:#C92A2A;}
</style>
<g>
	<g transform="translate(130 1820) rotate(0 415 490)">
		<path class="st0" d="M-117.8-1706.4c1.8,0,3.6,0,8.5,0 M-117.8-1706.4c3.1,0,6.2,0,8.5,0 M-109.4-1706.4c2.8,0,4.2,1.4,4.2,4.2
			 M-109.4-1706.4c2.8,0,4.2,1.4,4.2,4.2 M-105.2-1702.2c0,2.4,0,4.7,0,11.5 M-105.2-1702.2c0,3,0,6.1,0,11.5 M-105.2-1690.7
			c0,2.8-1.4,4.2-4.2,4.2 M-105.2-1690.7c0,2.9-1.4,4.2-4.2,4.2 M-109.4-1686.5c-2.4,0-4.8,0-8.5,0 M-109.4-1686.5c-3,0-5.9,0-8.5,0
			 M-117.8-1686.5c-2.8,0-4.2-1.4-4.2-4.2 M-117.8-1686.5c-2.8,0-4.3-1.5-4.2-4.2 M-122.1-1690.7c0-3.7,0-7.3,0-11.5 M-122.1-1690.7
			c0-4,0-7.9,0-11.5 M-122.1-1702.2c0-2.8,1.4-4.2,4.2-4.2 M-122.1-1702.2c0-2.8,1.4-4.2,4.2-4.2"/>
	</g>
	<g transform="translate(228.5 2231.5) rotate(0 316.5 78.5)">
		<text transform="matrix(1 0 0 1 -218.0186 -2107.3115)" class="st1 st2 st3">Barometer</text>
	</g>
	<g transform="translate(4485 3940) rotate(0 555 555)">
		<path class="st0" d="M-4382.7-3783.2c2.9,0,5.7,0,11.3,0 M-4382.7-3783.2c2.6,0,5.3,0,11.3,0 M-4371.3-3783.2
			c3.8,0,5.7,1.9,5.7,5.7 M-4371.3-3783.2c3.8,0,5.6,1.9,5.7,5.7 M-4365.7-3777.6c0,2.9,0,5.8,0,11.3 M-4365.7-3777.6
			c0,4.1,0,8.1,0,11.3 M-4365.7-3766.3c0,3.8-1.9,5.7-5.7,5.7 M-4365.7-3766.3c0,3.8-1.9,5.7-5.7,5.7 M-4371.3-3760.6
			c-3.1,0-6.3,0-11.3,0 M-4371.3-3760.6c-3.6,0-7.2,0-11.3,0 M-4382.7-3760.6c-3.8,0-5.6-1.9-5.7-5.7 M-4382.7-3760.6
			c-3.8,0-5.6-1.9-5.7-5.7 M-4388.3-3766.3c0-4.2,0-8.3,0-11.3 M-4388.3-3766.3c0-2.3,0-4.6,0-11.3 M-4388.3-3777.6
			c0-3.7,1.9-5.6,5.7-5.7 M-4388.3-3777.6c0-3.7,1.8-5.6,5.7-5.7"/>
	</g>
	<g transform="translate(4523.5 4338) rotate(0 516.5 157)">
		<text transform="matrix(1 0 0 1 -4425.3408 -4170.8765)" class="st1 st2 st3">Apogee detection</text>
		<text transform="matrix(1 0 0 1 -4421.6855 -4167.6772)" class="st1 st2 st3">Application</text>
	</g>
	<g transform="translate(10 10) rotate(0 3595 3600)">
		<path class="st4" d="M32.1,66.7c23.2-0.1,46.5-0.1,73.3,0 M32.1,66.7c20.3,0.2,40.6,0.2,73.3,0 M105.4,66.7
			c24.4,0,36.6,12.2,36.6,36.6 M105.4,66.7c24.4,0,36.6,12.2,36.6,36.6 M142,103.3c0.3,26.4,0.3,52.8,0,73.5 M142,103.3
			c-0.1,15.5-0.1,31.1,0,73.5 M142,176.8c0,24.5-12.2,36.6-36.6,36.6 M142,176.8c0,24.4-12.2,36.6-36.6,36.6 M105.4,213.4
			c-26.8-0.3-53.7-0.3-73.3,0 M105.4,213.4c-21.5,0-43,0-73.3,0 M32.1,213.4c-24.4,0-36.7-12.2-36.6-36.6 M32.1,213.4
			c-24.4,0-36.6-12.2-36.6-36.6 M-4.5,176.8c-0.1-18.6-0.1-37.3,0-73.5 M-4.5,176.8c0.3-19.6,0.3-39.2,0-73.5 M-4.5,103.3
			c0-24.4,12.2-36.6,36.6-36.6 M-4.5,103.3c0-24.4,12.2-36.7,36.6-36.6"/>
	</g>
	<g>
		<g transform="translate(208.64507427613717 861.0662213686846) rotate(0 3400.8962140168296 -35.142042013564605)">
			<path class="st4" d="M-199.1-767c23.1-0.2,115.5-1.2,138.6-1.4 M-199.1-767c23.1-0.2,115.5-1.2,138.6-1.5"/>
		</g>
	</g>
	<g transform="translate(2631 291.5) rotate(0 707.9808917197442 118.5)">
		<text transform="matrix(1 0 0 1 -2570.9277 -205.7109)" class="st2 st5">Nucleo L073RZ</text>
	</g>
	<g transform="translate(9975 4040) rotate(0 415 490)">
		<path class="st0" d="M-9762.2-3881.2c3.1,0,6.2,0,8.5,0 M-9762.2-3881.2c2.5,0,5,0,8.5,0 M-9753.7-3881.2c2.8,0,4.3,1.4,4.2,4.2
			 M-9753.7-3881.2c2.8,0,4.3,1.4,4.2,4.2 M-9749.5-3877c0,3,0,6.1,0,11.5 M-9749.5-3877c0,2.9,0,5.7,0,11.5 M-9749.5-3865.4
			c0,2.8-1.4,4.2-4.2,4.2 M-9749.5-3865.4c0,2.9-1.4,4.2-4.2,4.2 M-9753.7-3861.2c-3,0-5.9,0-8.5,0 M-9753.7-3861.2
			c-2.3,0-4.6,0-8.5,0 M-9762.2-3861.2c-2.9,0-4.2-1.4-4.2-4.2 M-9762.2-3861.2c-2.9,0-4.2-1.4-4.2-4.2 M-9766.4-3865.4
			c0-4,0-7.9,0-11.5 M-9766.4-3865.4c0-3.1,0-6.1,0-11.5 M-9766.4-3877c0-2.9,1.4-4.2,4.2-4.2 M-9766.4-3877c0-2.8,1.4-4.2,4.2-4.2"
			/>
	</g>
	<g transform="translate(10155 4451.5) rotate(0 235 78.5)">
		<text transform="matrix(1 0 0 1 -9942.8789 -4282.064)" class="st1 st2 st3">Solenoid</text>
	</g>
	<g transform="translate(9450 3030) rotate(0 930 1810)">
		<path class="st4" d="M-9242.6-2891.8c4.4,0,8.8,0,19,0 M-9242.6-2891.8c6.5,0,13.1,0,19,0 M-9223.7-2891.8c6.3,0,9.5,3.2,9.5,9.5
			 M-9223.7-2891.8c6.4,0,9.5,3.1,9.5,9.5 M-9214.2-2882.3c0.1,19.7,0.1,39.4,0,54.8 M-9214.2-2882.3c0,14,0,27.9,0,54.8
			 M-9214.2-2827.5c0,6.3-3.2,9.5-9.5,9.5 M-9214.2-2827.5c0,6.3-3.1,9.5-9.5,9.5 M-9223.7-2818c-6.1,0-12.1,0-19,0 M-9223.7-2818
			c-5.8,0-11.7,0-19,0 M-9242.6-2818c-6.3,0-9.5-3.2-9.5-9.5 M-9242.6-2818c-6.3,0-9.5-3.2-9.5-9.5 M-9252.1-2827.5
			c0.1-11.3,0.1-22.5,0-54.8 M-9252.1-2827.5c-0.2-13.1-0.2-26.2,0-54.8 M-9252.1-2882.3c0-6.3,3.1-9.4,9.5-9.5 M-9252.1-2882.3
			c0-6.3,3.2-9.5,9.5-9.5"/>
	</g>
	<g>
		<g transform="translate(9460 3500) rotate(0 919.7465141680077 4.703938906583971)">
			<path class="st4" d="M-9261.9-3352.2c6.2,0,31.3,0.2,37.5,0.2 M-9261.9-3352.2c6.2,0,31.2,0.1,37.4,0.2"/>
		</g>
	</g>
	<g transform="translate(9578 3201.5) rotate(0 782 118.5)">
		<text transform="matrix(1 0 0 1 -9376.8389 -3056.3994)" class="st2 st5">Arduino MKRZero</text>
	</g>
	<g transform="translate(275 3165) rotate(0 415 490)">
		<path class="st6" d="M-259.9-3024c2.2,0,4.5,0,8.5,0 M-259.9-3024c1.9,0,3.9,0,8.5,0 M-251.4-3024c2.8,0,4.2,1.4,4.2,4.2
			 M-251.4-3024c2.8,0,4.2,1.4,4.2,4.2 M-247.2-3019.8c0,3.2,0,6.4,0,11.5 M-247.2-3019.8c0,4.2,0,8.4,0,11.5 M-247.2-3008.3
			c0,2.8-1.4,4.2-4.2,4.2 M-247.2-3008.3c0,2.8-1.4,4.2-4.2,4.2 M-251.4-3004.1c-1.8,0-3.6,0-8.5,0 M-251.4-3004.1
			c-2.3,0-4.5-0.1-8.5,0 M-259.9-3004.1c-2.8,0-4.3-1.4-4.2-4.2 M-259.9-3004.1c-2.8,0-4.3-1.4-4.2-4.2 M-264.1-3008.3
			c0-2.4,0-4.9,0-11.5 M-264.1-3008.3c0-4.5,0-9.1,0-11.5 M-264.1-3019.8c0-2.8,1.4-4.2,4.2-4.2 M-264.1-3019.8
			c0-2.9,1.4-4.2,4.2-4.2"/>
	</g>
	<g transform="translate(373.5 3576.5) rotate(0 316.5 78.5)">
		<text transform="matrix(1 0 0 1 -360.0635 -3424.8984)" class="st7 st2 st3">Barometer</text>
	</g>
	<g transform="translate(1155 1045) rotate(0 415 490)">
		<path class="st6" d="M-1122-947.2c2.5,0,5,0,8.5,0 M-1122-947.2c2.8,0,5.5,0,8.5,0 M-1113.5-947.2c2.8,0,4.2,1.4,4.2,4.2
			 M-1113.5-947.2c2.8,0,4.2,1.5,4.2,4.2 M-1109.3-943c0,2.9,0,5.7,0,11.5 M-1109.3-943c0,3.7,0,7.5,0,11.5 M-1109.3-931.5
			c0,2.8-1.4,4.2-4.2,4.2 M-1109.3-931.5c0,2.8-1.5,4.2-4.2,4.2 M-1113.5-927.3c-2.3,0-4.6,0-8.5,0 M-1113.5-927.3
			c-1.7,0-3.5,0-8.5,0 M-1122-927.3c-2.8,0-4.2-1.4-4.2-4.2 M-1122-927.3c-2.8,0-4.3-1.4-4.2-4.2 M-1126.2-931.5c0-3.1,0-6.1,0-11.5
			 M-1126.2-931.5c0-4,0.1-8,0-11.5 M-1126.2-943c0-2.8,1.4-4.3,4.2-4.2 M-1126.2-943c0-2.8,1.4-4.3,4.2-4.2"/>
	</g>
	<g transform="translate(1253.5 1456.5) rotate(0 316.5 78.5)">
		<text transform="matrix(1 0 0 1 -1222.1279 -1348.1064)" class="st7 st2 st3">Barometer</text>
	</g>
	<g transform="translate(9975 5245) rotate(0 415 490)">
		<path class="st6" d="M-9762.2-5061.6c2.9,0,5.8,0,8.5,0 M-9762.2-5061.6c3,0,6,0,8.5,0 M-9753.7-5061.6c2.8,0,4.2,1.4,4.2,4.2
			 M-9753.7-5061.6c2.8,0,4.2,1.4,4.2,4.2 M-9749.5-5057.4c0,2.9,0,5.9,0,11.5 M-9749.5-5057.4c0,3.6,0,7.1,0,11.5 M-9749.5-5045.9
			c0,2.8-1.4,4.2-4.2,4.2 M-9749.5-5045.9c0,2.8-1.4,4.2-4.2,4.2 M-9753.7-5041.7c-2.6,0-5.2,0-8.5,0 M-9753.7-5041.7
			c-2.8,0-5.7,0-8.5,0 M-9762.2-5041.7c-2.8,0-4.2-1.4-4.2-4.2 M-9762.2-5041.7c-2.9,0-4.2-1.4-4.2-4.2 M-9766.4-5045.9
			c0-2.8,0-5.5,0-11.5 M-9766.4-5045.9c0-4.5,0-9,0-11.5 M-9766.4-5057.4c0-2.9,1.4-4.2,4.2-4.2 M-9766.4-5057.4
			c0-2.9,1.4-4.2,4.2-4.2"/>
	</g>
	<g transform="translate(10155 5656.5) rotate(0 235 78.5)">
		<text transform="matrix(1 0 0 1 -9942.8789 -5462.5044)" class="st7 st2 st3">Solenoid</text>
	</g>
	<g transform="translate(305 4905) rotate(0 415 490)">
		<path class="st6" d="M-289.3-4728.6c2.6,0,5.2,0,8.5,0 M-289.3-4728.6c2,0,4.1,0,8.5,0 M-280.8-4728.6c2.8,0,4.2,1.4,4.2,4.2
			 M-280.8-4728.6c2.8,0,4.2,1.4,4.2,4.2 M-276.6-4724.3c0,4,0,7.9,0,11.5 M-276.6-4724.3c0,3,0,6,0,11.5 M-276.6-4712.8
			c0,2.8-1.4,4.2-4.2,4.2 M-276.6-4712.8c0,2.8-1.4,4.3-4.2,4.2 M-280.8-4708.6c-3.1,0-6.1,0-8.5,0 M-280.8-4708.6
			c-1.9,0-3.8,0-8.5,0 M-289.3-4708.6c-2.8,0-4.3-1.4-4.2-4.2 M-289.3-4708.6c-2.8,0-4.3-1.4-4.2-4.2 M-293.5-4712.8
			c0-3.5,0-6.9,0-11.5 M-293.5-4712.8c0-2.8,0-5.7,0-11.5 M-293.5-4724.3c0-2.8,1.4-4.3,4.2-4.2 M-293.5-4724.3
			c0-2.8,1.4-4.2,4.2-4.2"/>
	</g>
	<g transform="translate(336 5316.5) rotate(0 384 78.5)">
		<text transform="matrix(1 0 0 1 -323.6367 -5129.4341)" class="st7 st2 st3">Thermometer</text>
	</g>
	<g transform="translate(1085 5907) rotate(0 415 490)">
		<path class="st0" d="M-1053.4-5710.1c2.5,0,5,0.1,8.5,0 M-1053.4-5710.1c3.3,0,6.7,0,8.5,0 M-1044.9-5710.1c2.8,0,4.2,1.4,4.2,4.2
			 M-1044.9-5710.1c2.8,0,4.2,1.4,4.2,4.2 M-1040.7-5705.9c0,3.5,0,7.1,0,11.5 M-1040.7-5705.9c0,2.9,0,5.9,0,11.5 M-1040.7-5694.4
			c0,2.8-1.4,4.2-4.2,4.2 M-1040.7-5694.4c0,2.9-1.4,4.2-4.2,4.2 M-1044.9-5690.2c-1.8,0-3.7,0-8.5,0 M-1044.9-5690.2
			c-2.8,0-5.6,0-8.5,0 M-1053.4-5690.2c-2.9,0-4.2-1.4-4.2-4.2 M-1053.4-5690.2c-2.8,0-4.2-1.4-4.2-4.2 M-1057.6-5694.4
			c0-3,0-6,0-11.5 M-1057.6-5694.4c0-4.2,0-8.5,0-11.5 M-1057.6-5705.9c0-2.9,1.4-4.2,4.2-4.2 M-1057.6-5705.9
			c0-2.8,1.4-4.2,4.2-4.2"/>
	</g>
	<g transform="translate(1126 6316.5) rotate(0 384 78.5)">
		<text transform="matrix(1 0 0 1 -1097.5342 -6109.0513)" class="st1 st2 st3">Thermometer</text>
	</g>
	<g transform="translate(2315 5945) rotate(0 415 490)">
		<path class="st6" d="M-2258.3-5747.4c1.7,0,3.5,0,8.5,0 M-2258.3-5747.4c2.2,0,4.4,0,8.5,0 M-2249.9-5747.4c2.8,0,4.2,1.4,4.2,4.2
			 M-2249.9-5747.4c2.8,0,4.2,1.4,4.2,4.2 M-2245.6-5743.1c0,3.3,0,6.5,0,11.5 M-2245.6-5743.1c0,4,0,8.1,0,11.5 M-2245.6-5731.6
			c0,2.8-1.4,4.3-4.2,4.2 M-2245.6-5731.6c0,2.8-1.4,4.2-4.2,4.2 M-2249.9-5727.4c-2.7,0-5.3,0-8.5,0 M-2249.9-5727.4
			c-2.9,0-5.8,0-8.5,0 M-2258.3-5727.4c-2.8,0-4.3-1.4-4.2-4.2 M-2258.3-5727.4c-2.8,0-4.2-1.4-4.2-4.2 M-2262.5-5731.6
			c-0.1-2.3,0-4.7,0-11.5 M-2262.5-5731.6c0-4.4,0-8.8,0-11.5 M-2262.5-5743.1c0-2.8,1.4-4.2,4.2-4.2 M-2262.5-5743.1
			c0-2.8,1.4-4.2,4.2-4.2"/>
	</g>
	<g transform="translate(2346 6356.5) rotate(0 384 78.5)">
		<text transform="matrix(1 0 0 1 -2292.6689 -6148.2368)" class="st7 st2 st3">Thermometer</text>
	</g>
	<g transform="translate(4025 1125) rotate(0 415 490)">
		<path class="st6" d="M-3933.5-1025.6c2.2,0,4.3,0,8.5,0 M-3933.5-1025.6c3,0.1,6.1,0,8.5,0 M-3925-1025.6c2.8,0,4.2,1.4,4.2,4.2
			 M-3925-1025.6c2.8,0,4.2,1.4,4.2,4.2 M-3920.8-1021.4c0,3.2,0,6.4,0,11.5 M-3920.8-1021.4c0,3.7,0,7.4,0,11.5 M-3920.8-1009.9
			c0,2.9-1.4,4.2-4.2,4.2 M-3920.8-1009.9c0,2.8-1.4,4.2-4.2,4.2 M-3925-1005.6c-3.1,0-6.2,0-8.5,0 M-3925-1005.6
			c-1.7,0-3.5,0-8.5,0 M-3933.5-1005.6c-2.8,0-4.2-1.4-4.2-4.2 M-3933.5-1005.6c-2.8,0-4.3-1.4-4.2-4.2 M-3937.7-1009.9
			c0-4.3,0-8.6,0-11.5 M-3937.7-1009.9c0-2.6,0.1-5.1,0-11.5 M-3937.7-1021.4c0-2.8,1.4-4.2,4.2-4.2 M-3937.7-1021.4
			c0-2.8,1.4-4.2,4.2-4.2"/>
	</g>
	<g transform="translate(4057 1536.5) rotate(0 383 78.5)">
		<text transform="matrix(1 0 0 1 -3967.624 -1426.4766)" class="st7 st2 st3">Inertial Unit</text>
	</g>
	<g transform="translate(5375 1005) rotate(0 415 490)">
		<path class="st0" d="M-5255.9-908.1c3,0,6.1,0,8.5,0 M-5255.9-908.1c1.8,0,3.6,0,8.5,0 M-5247.5-908.1c2.8,0,4.2,1.4,4.2,4.2
			 M-5247.5-908.1c2.8,0,4.2,1.4,4.2,4.2 M-5243.3-903.8c0,4.2,0,8.4,0,11.5 M-5243.3-903.8c0,3.4,0,6.8,0,11.5 M-5243.3-892.3
			c0,2.8-1.4,4.2-4.2,4.2 M-5243.3-892.3c0,2.8-1.4,4.2-4.2,4.2 M-5247.5-888.1c-2.1,0-4.3,0-8.5,0 M-5247.5-888.1
			c-2.3,0-4.5,0-8.5,0 M-5255.9-888.1c-2.8,0-4.2-1.4-4.2-4.2 M-5255.9-888.1c-2.9,0-4.2-1.4-4.2-4.2 M-5260.2-892.3
			c0-4.5,0-8.9,0-11.5 M-5260.2-892.3c0-4.3,0-8.6,0-11.5 M-5260.2-903.8c0-2.8,1.4-4.2,4.2-4.2 M-5260.2-903.8
			c0-2.8,1.4-4.2,4.2-4.2"/>
	</g>
	<g transform="translate(5387 1416.5) rotate(0 383 78.5)">
		<text transform="matrix(1 0 0 1 -5270.5156 -1308.9229)" class="st1 st2 st3">Inertial Unit</text>
	</g>
	<g transform="translate(6225 2005) rotate(0 415 490)">
		<path class="st6" d="M-6088.6-1887.7c2.5,0,5,0,8.5,0 M-6088.6-1887.7c3.4,0,6.7,0,8.5,0 M-6080.2-1887.7c2.8,0,4.2,1.4,4.2,4.2
			 M-6080.2-1887.7c2.8,0,4.3,1.4,4.2,4.2 M-6075.9-1883.4c0,2.4,0,4.7,0,11.5 M-6075.9-1883.4c0,3.5,0,7,0,11.5 M-6075.9-1871.9
			c0,2.8-1.4,4.2-4.2,4.2 M-6075.9-1871.9c0,2.8-1.4,4.2-4.2,4.2 M-6080.2-1867.7c-2,0-4.1,0-8.5,0 M-6080.2-1867.7
			c-2.8,0-5.5,0-8.5,0 M-6088.6-1867.7c-2.8,0-4.3-1.4-4.2-4.2 M-6088.6-1867.7c-2.8,0-4.2-1.4-4.2-4.2 M-6092.9-1871.9
			c0-4.2,0-8.3,0-11.5 M-6092.9-1871.9c0-2.6,0-5.2,0-11.5 M-6092.9-1883.4c0-2.8,1.4-4.2,4.2-4.2 M-6092.9-1883.4
			c0-2.8,1.4-4.2,4.2-4.2"/>
	</g>
	<g transform="translate(6257 2416.5) rotate(0 383 78.5)">
		<text transform="matrix(1 0 0 1 -6122.7852 -2288.54)" class="st7 st2 st3">Inertial Unit</text>
	</g>
	<g transform="translate(1595 2350) rotate(0 555 555)">
		<path class="st0" d="M-1551.6-2225.6c2.6,0,5.3,0,11.3,0 M-1551.6-2225.6c3.2,0,6.5,0,11.3,0 M-1540.3-2225.6
			c3.8,0,5.6,1.9,5.7,5.7 M-1540.3-2225.6c3.8,0,5.6,1.9,5.7,5.7 M-1534.6-2220c0,2.8,0,5.5,0,11.3 M-1534.6-2220
			c0,3.6,0,7.1,0,11.3 M-1534.6-2208.7c0,3.8-1.9,5.6-5.7,5.7 M-1534.6-2208.7c0,3.8-1.9,5.7-5.7,5.7 M-1540.3-2203
			c-3.2,0-6.4,0-11.3,0 M-1540.3-2203c-4.1,0.1-8.2,0-11.3,0 M-1551.6-2203c-3.8,0-5.6-1.9-5.7-5.7 M-1551.6-2203
			c-3.7,0-5.6-1.8-5.7-5.7 M-1557.2-2208.7c0-3.3,0-6.6,0-11.3 M-1557.2-2208.7c0-3.2,0-6.4,0-11.3 M-1557.2-2220
			c0-3.7,1.9-5.7,5.7-5.7 M-1557.2-2220c0-3.8,1.9-5.7,5.7-5.7"/>
	</g>
	<g transform="translate(1737 2669.5) rotate(0 413 235.5)">
		<text transform="matrix(1 0 0 1 -1692.9629 -2536.3848)" class="st1 st2 st3">Pressure</text>
		<text transform="matrix(1 0 0 1 -1695.7734 -2533.1836)" class="st1 st2 st3">Determination</text>
		<text transform="matrix(1 0 0 1 -1694.0889 -2529.9844)" class="st1 st2 st3">Application</text>
	</g>
	<g transform="translate(4105 2320) rotate(0 555 555)">
		<path class="st0" d="M-4010.4-2196.2c3.8,0,7.6,0,11.3,0 M-4010.4-2196.2c3.2,0,6.4,0,11.3,0 M-3999.1-2196.2
			c3.8,0,5.7,1.9,5.7,5.7 M-3999.1-2196.2c3.7,0,5.6,1.9,5.7,5.7 M-3993.4-2190.6c0,2.6,0,5.2,0,11.3 M-3993.4-2190.6
			c0,4.3,0,8.6,0,11.3 M-3993.4-2179.3c0,3.7-1.9,5.7-5.7,5.7 M-3993.4-2179.3c0,3.8-1.9,5.6-5.7,5.7 M-3999.1-2173.6
			c-2.8,0-5.6-0.1-11.3,0 M-3999.1-2173.6c-4.5,0-8.9,0-11.3,0 M-4010.4-2173.6c-3.7,0-5.6-1.9-5.7-5.7 M-4010.4-2173.6
			c-3.7,0-5.7-1.9-5.7-5.7 M-4016.1-2179.3c0-2.3,0-4.6,0-11.3 M-4016.1-2179.3c0-3.8,0-7.5,0-11.3 M-4016.1-2190.6
			c0-3.8,1.9-5.6,5.7-5.7 M-4016.1-2190.6c0-3.8,1.9-5.7,5.7-5.7"/>
	</g>
	<g transform="translate(4247 2639.5) rotate(0 413 235.5)">
		<text transform="matrix(1 0 0 1 -4153.7031 -2506.9951)" class="st1 st2 st3">Acceleration</text>
		<text transform="matrix(1 0 0 1 -4154.6152 -2503.7959)" class="st1 st2 st3">Determination</text>
		<text transform="matrix(1 0 0 1 -4152.9316 -2500.5957)" class="st1 st2 st3">Application</text>
	</g>
	<g transform="translate(1865 4230) rotate(0 555 555)">
		<path class="st0" d="M-1816.1-4067.3c3.2,0,6.3,0,11.3,0 M-1816.1-4067.3c4.1,0,8.3,0,11.3,0 M-1804.7-4067.3
			c3.8,0,5.6,1.9,5.7,5.7 M-1804.7-4067.3c3.7,0,5.6,1.9,5.7,5.7 M-1799.1-4061.7c0,2.4,0,4.8,0,11.3 M-1799.1-4061.7
			c0,3,0,6,0,11.3 M-1799.1-4050.4c0,3.8-1.9,5.7-5.7,5.7 M-1799.1-4050.4c0,3.7-1.9,5.6-5.7,5.7 M-1804.7-4044.7
			c-2.4,0-4.8,0-11.3,0 M-1804.7-4044.7c-4.5,0-8.9,0-11.3,0 M-1816.1-4044.7c-3.7,0-5.6-1.9-5.7-5.7 M-1816.1-4044.7
			c-3.8,0-5.7-1.8-5.7-5.7 M-1821.7-4050.4c0-3.6,0-7.1,0-11.3 M-1821.7-4050.4c0-3.1,0-6.3,0-11.3 M-1821.7-4061.7
			c0-3.8,1.9-5.7,5.7-5.7 M-1821.7-4061.7c0-3.8,1.9-5.7,5.7-5.7"/>
	</g>
	<g transform="translate(2007 4549.5) rotate(0 413 235.5)">
		<text transform="matrix(1 0 0 1 -1959.4971 -4378.0659)" class="st1 st2 st3">Temperature</text>
		<text transform="matrix(1 0 0 1 -1960.2705 -4374.8667)" class="st1 st2 st3">Determination</text>
		<text transform="matrix(1 0 0 1 -1958.5859 -4371.6665)" class="st1 st2 st3">Application</text>
	</g>
	<g transform="translate(4535 5420) rotate(0 555 555)">
		<path class="st0" d="M-4431.6-5233.1c2.8,0,5.6,0,11.3,0 M-4431.6-5233.1c3.7,0,7.4,0,11.3,0 M-4420.3-5233.1
			c3.7,0,5.6,1.9,5.7,5.7 M-4420.3-5233.1c3.7,0,5.6,1.9,5.7,5.7 M-4414.7-5227.4c0,3.1,0,6.1,0,11.3 M-4414.7-5227.4
			c0,2.3,0,4.7,0,11.3 M-4414.7-5216.1c0,3.8-1.9,5.6-5.7,5.7 M-4414.7-5216.1c0,3.8-1.9,5.7-5.7,5.7 M-4420.3-5210.4
			c-3,0-6,0-11.3,0 M-4420.3-5210.4c-3.9,0-7.8,0-11.3,0 M-4431.6-5210.4c-3.7,0-5.7-1.9-5.7-5.7 M-4431.6-5210.4
			c-3.8,0-5.6-1.9-5.7-5.7 M-4437.3-5216.1c0-4.3,0-8.7,0-11.3 M-4437.3-5216.1c0-3.1,0-6.3,0-11.3 M-4437.3-5227.4
			c0-3.8,1.9-5.7,5.7-5.7 M-4437.3-5227.4c0-3.8,1.9-5.6,5.7-5.7"/>
	</g>
	<g transform="translate(4781.5 5888) rotate(0 298.5 78.5)">
		<text transform="matrix(1 0 0 1 -4678.166 -5689.2866)" class="st1 st2 st3">Telemetry</text>
	</g>
	<g>
		<g transform="translate(1930 1985) rotate(0 159.56996641358273 180.82751004617694)">
			<path class="st6" d="M-1885.4-1868.1c1,0.5,4.6,1.8,5.7,3c1.1,1.2,0.7,3.6,0.8,4.3 M-1885.4-1868.1c1,0.5,4.6,1.8,5.7,3
				c1.1,1.2,0.7,3.6,0.8,4.3"/>
		</g>
	</g>
	<g>
		<g transform="translate(960 2505) rotate(0 314.93198270227003 74.9839536436084)">
			<path class="st0" d="M-935.1-2377.5c0.8,0.3,2.7,1.3,4.9,1.8c2.1,0.5,6.6,1,7.9,1.2 M-935.2-2377.5c0.8,0.3,2.7,1.4,4.9,1.9
				c2.1,0.5,6.6,1,7.9,1.2"/>
		</g>
	</g>
	<g>
		<g transform="translate(1100 3495) rotate(0 239.1902538005088 -185.08727616332453)">
			<path class="st6" d="M-1072.3-3347.3c0.4-0.7,0.6-3,2.2-4.3c1.6-1.3,6.3-2.7,7.5-3.3 M-1072.3-3347.3c0.4-0.7,0.6-3,2.2-4.2
				c1.6-1.3,6.3-2.7,7.5-3.3"/>
		</g>
	</g>
	<g>
		<g transform="translate(1140 5135) rotate(0 359.2644369120462 -225.67013139928713)">
			<path class="st6" d="M-1111.5-4953.9c0.7-0.8,1.8-3.4,4.3-4.9c2.4-1.5,8.7-3.5,10.4-4.3 M-1111.5-4953.9c0.7-0.8,1.8-3.3,4.3-4.8
				c2.4-1.5,8.6-3.6,10.4-4.3"/>
		</g>
	</g>
	<g>
		<g transform="translate(1550 5905) rotate(0 173.50473042759404 -325.21390686295945)">
			<path class="st0" d="M-1513.1-5708.2c0.1-1.2-0.8-5.1,0.4-7.3c1.2-2.2,5.8-4.9,7-5.9 M-1513.2-5708.2c0.1-1.2-0.8-5.1,0.4-7.3
				c1.2-2.2,5.8-4.9,7-5.9"/>
		</g>
	</g>
	<g>
		<g transform="translate(2710 5935) rotate(0 -50.557260177549324 -295.69818190671504)">
			<path class="st6" d="M-2649.5-5737.6c0-0.8,0.1-3.1-0.2-5.1c-0.3-2-1.5-5.8-1.8-7 M-2649.5-5737.6c0-0.9,0.1-3.1-0.2-5.1
				c-0.3-2-1.5-5.8-1.8-6.9"/>
		</g>
	</g>
	<g>
		<g transform="translate(4520 2095) rotate(0 110.45423440879676 114.41127656007211)">
			<path class="st6" d="M-4422.6-1975.8c0.5,0.3,2.3,1.3,3.1,2c0.7,0.8,1.2,2.2,1.4,2.7 M-4422.6-1975.9c0.5,0.3,2.3,1.3,3,2.1
				c0.7,0.8,1.2,2.2,1.4,2.6"/>
		</g>
	</g>
	<g>
		<g transform="translate(5510 1985) rotate(0 -148.9417974996686 240.23666605996004)">
			<path class="st0" d="M-5392.4-1868.1c-0.1,0.9,0.4,4-0.6,5.7c-1,1.6-4.6,3.4-5.5,4.1 M-5392.4-1868.1c-0.1,1,0.3,4.1-0.7,5.7
				c-1,1.6-4.6,3.4-5.5,4.1"/>
		</g>
	</g>
	<g>
		<g transform="translate(6250 2915) rotate(0 -515.4909295640318 105.5690145773633)">
			<path class="st6" d="M-6117.3-2779.1c-1.6,0.6-6.3,3-9.8,3.7c-3.5,0.7-9.3,0.5-11.2,0.6 M-6117.3-2779.1
				c-1.6,0.6-6.3,2.9-9.8,3.6c-3.5,0.7-9.4,0.6-11.3,0.7"/>
		</g>
	</g>
	<g>
		<g transform="translate(4720 3425) rotate(0 -19.37621549466712 264.43795776744446)">
			<path class="st0" d="M-4618.5-3278.8c-0.1,1-0.8,4.3-0.8,6.1c0,1.8,0.5,3.9,0.6,4.7 M-4618.5-3278.7c-0.1,1-0.8,4.3-0.8,6.1
				s0.5,3.9,0.6,4.7"/>
		</g>
	</g>
	<g>
		<g transform="translate(2670 3355) rotate(0 910.2263652024194 410.54110662590665)">
			<path class="st0" d="M-2610.3-3210.1c2.5,1.9,8.7,8.8,14.9,11.6c6.2,2.8,18.5,4.2,22.2,5.1 M-2610.3-3210.2
				c2.5,1.9,8.7,8.8,14.9,11.6s18.5,4.3,22.2,5.2"/>
		</g>
	</g>
	<g>
		<g transform="translate(2980 4635) rotate(0 754.6953351510601 -51.9522394922551)">
			<path class="st0" d="M-2914-4464.1c2.1,0.1,7.5,0.8,12.6,0.4c5.1-0.4,15.1-2.6,18.1-3.1 M-2914-4464c2.1,0.1,7.5,0.8,12.6,0.4
				c5.1-0.4,15.1-2.6,18.1-3.1"/>
		</g>
	</g>
	<g>
		<g transform="translate(5600 4285) rotate(0 2190.309792566797 66.68223274833417)">
			<path class="st0" d="M-5480.6-4121.2c3.5-0.3,5.9-2.9,20.8-2c14.9,0.8,57.1,5.8,68.5,6.9 M-5480.6-4121.2c3.5-0.3,5.9-2.8,20.8-2
				s57.1,5.8,68.5,6.9"/>
		</g>
	</g>
	<g>
		<g transform="translate(5600 4615) rotate(0 2189.4644578378866 529.9617429762056)">
			<path class="st6" d="M-5480.6-4444.5c7.7,1.8,31.2,7,46.1,10.6c14.9,3.6,36,9.2,43.2,11 M-5480.6-4444.4
				c7.7,1.8,31.2,7,46.1,10.6c14.9,3.6,36,9.2,43.2,11"/>
		</g>
	</g>
	<g>
		<g transform="translate(2950 5225) rotate(0 789.3940968122333 360.7189098713916)">
			<path class="st0" d="M-2884.6-5042c2.4,2.2,9.3,10.8,14.7,13.3s14.6,1,17.5,1.2 M-2884.6-5042.1c2.5,2.2,9.3,10.9,14.7,13.3
				c5.4,2.4,14.6,1,17.5,1.2"/>
		</g>
	</g>
	<g>
		<g transform="translate(5160 3345) rotate(0 374.29947226402874 1070.1989844561085)">
			<path class="st0" d="M-5049.6-3200.4c2.5,1.8,13.6,3.3,15.1,10.6c1.5,7.3-5.3,27.5-6.3,33 M-5049.6-3200.3
				c2.5,1.8,13.6,3.3,15.1,10.6c1.5,7.3-5.3,27.5-6.3,33"/>
		</g>
	</g>
	<g>
		<g transform="translate(2600 3425) rotate(0 989.5166391100793 1024.970334665868)">
			<path class="st0" d="M-2541.8-3278.7c2.5,3.2,8.4,12.2,15.1,19.2c6.7,7,21.1,18.9,25.3,22.6 M-2541.7-3278.7
				c2.5,3.2,8.3,12.3,15,19.2c6.7,7,21.1,18.8,25.3,22.6"/>
		</g>
	</g>
	<g>
		<g transform="translate(5090 5055) rotate(0 -26.949551078112563 179.57587689419233)">
			<path class="st0" d="M-4981-4875.5c-0.2,0.8-0.8,3.5-1,4.7c-0.2,1.2,0,2.2,0,2.7 M-4981-4875.5c-0.2,0.8-0.8,3.5-1,4.8
				s0,2.2,0,2.6"/>
		</g>
	</g>
	<g transform="translate(11744.812499999985 3960) rotate(0 105 100)">
		<path class="st7" d="M-11499.2-3802.9l2.5,0l0.3,0.1l0.2,0l0.1,0.2l0.1,0.2l0,0.3l0,2.3l-0.1,0.5l-0.1,0.2l-0.2,0.1l-0.3,0.1
			l-0.3,0.1l-2.5,0l-0.4-0.1l-0.2-0.1l-0.1-0.1l-0.2-0.2l-0.1-0.4v-2.1l0-0.4l0.1-0.3l0.2-0.2l0.3-0.1L-11499.2-3802.9"/>
		<path class="st6" d="M-11499.1-3802.8c0.5,0,0.9,0,2.2,0 M-11499.1-3802.8c0.9,0,1.8,0,2.2,0 M-11496.9-3802.8c0.7,0,1,0.4,1,1
			 M-11496.9-3802.8c0.7,0,1,0.4,1,1 M-11495.9-3801.8c0,0.4,0,0.9,0,2 M-11495.9-3801.8c0,0.7,0,1.5,0,2 M-11495.9-3799.8
			c0,0.7-0.4,1-1,1 M-11495.9-3799.8c0,0.6-0.3,1-1,1 M-11496.9-3798.7c-0.6,0-1.2,0-2.2,0 M-11496.9-3798.7c-0.7,0-1.3,0-2.2,0
			 M-11499.1-3798.7c-0.7,0-1-0.3-1-1 M-11499.1-3798.7c-0.6,0-1-0.3-1-1 M-11500.2-3799.8c0-0.8,0-1.6,0-2 M-11500.2-3799.8
			c0-0.5,0-1,0-2 M-11500.2-3801.8c0-0.7,0.4-1,1-1 M-11500.2-3801.8c0-0.7,0.3-1,1-1"/>
	</g>
	<g transform="translate(12105.937499999985 3991.5) rotate(0 1068.5 78.5)">
		<text transform="matrix(1 0 0 1 -11851.5371 -3831.4399)" class="st7 st2 st3">No need to develop if we use Luos</text>
	</g>
	<g transform="translate(11744.812499999985 4350) rotate(0 105 100)">
		<path class="st1" d="M-11499.2-4184.9l2.5,0l0.3,0.1l0.2,0l0.1,0.1l0.1,0.2l0.1,0.4l0,2.3l-0.1,0.4l-0.1,0.1l-0.1,0.2l-0.2,0.1
			l-0.3,0l-2.5,0l-0.4-0.1l-0.2,0l-0.1-0.2l-0.1-0.2l-0.1-0.4l0-2.2l0-0.3l0.2-0.2l0.2-0.2l0.2-0.1L-11499.2-4184.9"/>
		<path class="st0" d="M-11499.1-4184.9c0.8,0,1.5,0,2.2,0 M-11499.1-4184.9c0.6,0,1.2,0,2.2,0 M-11496.9-4184.9c0.7,0,1,0.4,1,1
			 M-11496.9-4184.9c0.6,0,1,0.3,1,1 M-11495.9-4183.9c0,0.4,0,0.8,0,2 M-11495.9-4183.9c0,0.6,0,1.1,0,2 M-11495.9-4181.8
			c0,0.7-0.3,1-1,1 M-11495.9-4181.8c0,0.7-0.3,1-1,1 M-11496.9-4180.8c-0.7,0-1.4,0-2.2,0 M-11496.9-4180.8c-0.5,0-1,0-2.2,0
			 M-11499.1-4180.8c-0.7,0-1-0.3-1-1 M-11499.1-4180.8c-0.6,0-1-0.4-1-1 M-11500.2-4181.8c0-0.6,0-1.2,0-2 M-11500.2-4181.8
			c0-0.6,0-1.2,0-2 M-11500.2-4183.9c0-0.7,0.3-1,1-1 M-11500.2-4183.9c0-0.7,0.3-1,1-1"/>
	</g>
	<g transform="translate(12035.187499999985 4381.5) rotate(0 1140 78.5)">
		<text transform="matrix(1 0 0 1 -11782.1768 -4213.4897)" class="st1 st2 st3">Need to be developed if we use Luos</text>
	</g>
</g>
</svg>
