<?xml version="1.0" encoding="utf-8"?>
<!-- Generator: Adobe Illustrator 26.5.0, SVG Export Plug-In . SVG Version: 6.00 Build 0)  -->
<svg version="1.1" id="Calque_1" xmlns="http://www.w3.org/2000/svg" xmlns:xlink="http://www.w3.org/1999/xlink" x="0px" y="0px"
	 viewBox="0 0 300 300" style="enable-background:new 0 0 300 300;" xml:space="preserve">
<style type="text/css">
	.st0{fill:none;stroke:#FFFFFF;stroke-linecap:round;stroke-miterlimit:12;}
	.st1{fill:#FFFFFF;}
	.st2{font-family:'ArialMT';}
	.st3{font-size:4.6487px;}
	.st4{font-size:7.7748px;}
	.st5{font-size:3.0795px;}
</style>
<g transform="translate(120 2663) rotate(0 415 490)">
	<path class="st0" d="M-102.6-2552.2c4.1,0,8.2,0,10.3,0 M-102.6-2552.2c3.2,0,6.3,0,10.3,0 M-92.3-2552.2c3.5,0,5.2,1.7,5.2,5.2
		 M-92.3-2552.2c3.4,0,5.2,1.7,5.2,5.2 M-87.2-2547.1c0,4.9,0,9.9,0,14 M-87.2-2547.1c0,3.1,0,6.2,0,14 M-87.2-2533
		c0,3.4-1.7,5.2-5.2,5.2 M-87.2-2533c0,3.4-1.8,5.2-5.2,5.2 M-92.3-2527.9c-2.3,0-4.7,0-10.3,0 M-92.3-2527.9c-2.1,0-4.2,0-10.3,0
		 M-102.6-2527.9c-3.5,0-5.1-1.8-5.2-5.2 M-102.6-2527.9c-3.4,0-5.1-1.7-5.2-5.2 M-107.8-2533c0-4.7,0-9.4,0-14 M-107.8-2533
		c0-5,0.1-10,0-14 M-107.8-2547.1c0-3.5,1.7-5.1,5.2-5.2 M-107.8-2547.1c0-3.5,1.8-5.1,5.2-5.2"/>
</g>
<g transform="translate(4475 4783) rotate(0 555 555)">
	<path class="st0" d="M-4347.7-4619.6c4.6,0,9.2,0.1,13.8,0 M-4347.7-4619.6c3.7,0,7.3,0,13.8,0 M-4334-4619.6
		c4.6,0,6.9,2.3,6.9,6.9 M-4334-4619.6c4.6,0,6.9,2.3,6.9,6.9 M-4327.1-4612.7c0,4.3,0,8.6,0,13.8 M-4327.1-4612.7
		c0,2.8,0,5.5,0,13.8 M-4327.1-4598.9c0,4.6-2.3,6.9-6.9,6.9 M-4327.1-4598.9c-0.1,4.6-2.3,6.9-6.9,6.9 M-4334-4592
		c-5.1,0-10.2,0-13.8,0 M-4334-4592c-4,0-8,0.1-13.8,0 M-4347.7-4592c-4.6,0-6.9-2.3-6.9-6.9 M-4347.7-4592c-4.6,0-6.9-2.3-6.9-6.9
		 M-4354.6-4598.9c0-4.4,0-8.9,0-13.8 M-4354.6-4598.9c0-5.1,0-10.3,0-13.8 M-4354.6-4612.7c0-4.5,2.3-6.9,6.9-6.9 M-4354.6-4612.7
		c0.1-4.6,2.3-6.9,6.9-6.9"/>
</g>
<g transform="translate(10 843) rotate(0 3595 3600)">
	<path class="st0" d="M44.1-777.4c20.2,0.3,40.4,0.3,89.3,0 M44.1-777.4c29.2,0.1,58.3,0.1,89.3,0 M133.4-777.4
		c29.7,0,44.6,14.9,44.6,44.6 M133.4-777.4c29.8,0,44.6,14.8,44.6,44.6 M178-732.8c-0.3,31-0.3,62,0,89.5 M178-732.8
		c0.2,30.9,0.2,61.8,0,89.5 M178-643.3c0,29.7-14.9,44.7-44.6,44.6 M178-643.3c0,29.7-14.8,44.7-44.6,44.6 M133.4-598.6
		c-22.6,0.2-45.1,0.1-89.3,0 M133.4-598.6c-35.7-0.3-71.4-0.3-89.3,0 M44.1-598.6c-29.7,0-44.6-14.9-44.6-44.6 M44.1-598.6
		c-29.7,0-44.6-14.9-44.6-44.6 M-0.5-643.3c0-18.4,0-36.7,0-89.5 M-0.5-643.3c-0.3-34.5-0.4-69,0-89.5 M-0.5-732.8
		c0-29.8,14.9-44.6,44.6-44.6 M-0.5-732.8c0-29.8,14.9-44.6,44.6-44.6"/>
</g>
<g>
	<g transform="translate(198.64507427613717 1704.0384959810851) rotate(0 3415.279371570665 1.5433149843132696)">
		<path class="st0" d="M-184.5-1617.1c28.3,0,141.4,0,169.7,0 M-184.5-1617.1c28.3,0,141.4,0,169.7,0"/>
	</g>
</g>
<g transform="translate(2621 1134.5) rotate(0 707.9808917197442 118.50000000000003)">
	<text transform="matrix(1 0 0 1 -2545.2461 -1057.5674)" class="st1 st2 st3">Nucleo L073RZ</text>
</g>
<g transform="translate(9965 4883) rotate(0 415 490)">
	<path class="st0" d="M-9703.1-4717.1c3.2,0,6.3,0,10.3,0 M-9703.1-4717.1c4,0,7.9,0,10.3,0 M-9692.8-4717.1c3.4,0,5.2,1.7,5.2,5.2
		 M-9692.8-4717.1c3.4,0,5.1,1.7,5.2,5.2 M-9687.7-4711.9c0,3.1,0,6.2,0,14 M-9687.7-4711.9c0,4.8,0,9.6,0,14 M-9687.7-4697.9
		c0,3.4-1.7,5.2-5.2,5.2 M-9687.7-4697.9c0,3.4-1.7,5.2-5.2,5.2 M-9692.8-4692.8c-2.1,0-4.2,0-10.3,0 M-9692.8-4692.8
		c-2.7,0-5.3,0-10.3,0 M-9703.1-4692.8c-3.5,0-5.2-1.7-5.2-5.2 M-9703.1-4692.8c-3.4-0.1-5.2-1.7-5.2-5.2 M-9708.3-4697.9
		c0-5,0.1-10,0-14 M-9708.3-4697.9c0.1-4.8,0-9.7,0-14 M-9708.3-4711.9c0-3.4,1.7-5.1,5.2-5.2 M-9708.3-4711.9
		c0-3.4,1.7-5.1,5.2-5.2"/>
</g>
<g transform="translate(9440 3873) rotate(0 930 1810)">
	<path class="st0" d="M-9184.8-3732.2c6.1,0,12.2,0,23.1,0 M-9184.8-3732.2c8.1,0,16.1,0.1,23.1,0 M-9161.7-3732.2
		c7.7,0,11.5,3.9,11.5,11.5 M-9161.7-3732.2c7.7,0,11.5,3.8,11.5,11.5 M-9150.1-3720.6c0.2,13.4,0.2,26.8,0,66.8 M-9150.1-3720.6
		c0.2,19.5,0.2,39.1,0,66.8 M-9150.1-3653.8c0,7.7-3.8,11.5-11.5,11.5 M-9150.1-3653.8c0,7.7-3.9,11.6-11.5,11.5 M-9161.7-3642.3
		c-6.7,0.1-13.3,0.1-23.1,0 M-9161.7-3642.3c-7.2,0-14.3,0-23.1,0 M-9184.8-3642.3c-7.7,0-11.5-3.9-11.5-11.5 M-9184.8-3642.3
		c-7.7,0-11.5-3.9-11.5-11.5 M-9196.3-3653.8c0.2-24.9,0.2-49.9,0-66.8 M-9196.3-3653.8c-0.3-15.8-0.3-31.7,0-66.8 M-9196.3-3720.6
		c0-7.7,3.9-11.6,11.5-11.5 M-9196.3-3720.6c0-7.7,3.9-11.6,11.5-11.5"/>
</g>
<g>
	<g transform="translate(9450 4343) rotate(0 920.6027755929463 4.307336530182511)">
		<path class="st0" d="M-9206.1-4190.5c7.6,0,38.1,0.2,45.7,0.2 M-9206.1-4190.5c7.6,0,38.1,0.2,45.7,0.3"/>
	</g>
</g>
<g transform="translate(9568 4044.5) rotate(0 782 118.5)">
	<text transform="matrix(1 0 0 1 -9320.334 -3895.2979)" class="st1 st2 st3">Arduino MKRZero</text>
</g>
<g transform="translate(265 4008) rotate(0 415 490)">
	<path class="st0" d="M-244-3863.8c4,0,7.9,0,10.3,0 M-244-3863.8c2.8,0,5.7,0,10.3,0 M-233.7-3863.8c3.5,0,5.1,1.7,5.2,5.2
		 M-233.7-3863.8c3.5,0,5.2,1.7,5.2,5.2 M-228.6-3858.7c0,4.8,0,9.5,0,14 M-228.6-3858.7c0,4.9,0,9.8,0,14 M-228.6-3844.6
		c0,3.4-1.7,5.1-5.2,5.2 M-228.6-3844.6c0,3.5-1.8,5.1-5.2,5.2 M-233.7-3839.5c-2.7,0-5.3,0-10.3,0 M-233.7-3839.5
		c-2.6,0-5.3,0-10.3,0 M-244-3839.5c-3.4,0-5.2-1.7-5.2-5.2 M-244-3839.5c-3.5,0-5.1-1.7-5.2-5.2 M-249.2-3844.6c0.1-4.8,0-9.7,0-14
		 M-249.2-3844.6c0-5.3,0-10.6,0-14 M-249.2-3858.7c0-3.4,1.7-5.1,5.2-5.2 M-249.2-3858.7c0-3.4,1.7-5.2,5.2-5.2"/>
</g>
<g transform="translate(1145 1888) rotate(0 415 490)">
	<path class="st0" d="M-1102.2-1796.5c3.6,0,7.2,0,10.3,0 M-1102.2-1796.5c3.3,0,6.7,0,10.3,0 M-1091.9-1796.5
		c3.4,0,5.2,1.7,5.2,5.2 M-1091.9-1796.5c3.5,0,5.2,1.7,5.2,5.2 M-1086.7-1791.3c0,4.1,0.1,8.2,0,14 M-1086.7-1791.3
		c0,3.4,0,6.8,0,14 M-1086.7-1777.3c0,3.4-1.7,5.2-5.2,5.2 M-1086.7-1777.3c0,3.4-1.7,5.2-5.2,5.2 M-1091.9-1772.1
		c-3.2,0-6.4,0-10.3,0 M-1091.9-1772.1c-3,0-5.9,0-10.3,0 M-1102.2-1772.1c-3.5,0-5.2-1.7-5.2-5.2 M-1102.2-1772.1
		c-3.4,0-5.1-1.8-5.2-5.2 M-1107.3-1777.3c-0.1-3.3,0-6.7,0-14 M-1107.3-1777.3c-0.1-3.1,0-6.1,0-14 M-1107.3-1791.3
		c0-3.4,1.7-5.1,5.2-5.2 M-1107.3-1791.3c0-3.5,1.7-5.1,5.2-5.2"/>
</g>
<g transform="translate(9965 6088) rotate(0 415 490)">
	<path class="st0" d="M-9703.1-5892.2c3.1,0,6.3,0,10.3,0 M-9703.1-5892.2c2.3,0,4.6,0.1,10.3,0 M-9692.8-5892.2
		c3.5,0,5.2,1.7,5.2,5.2 M-9692.8-5892.2c3.4,0,5.2,1.7,5.2,5.2 M-9687.7-5887c0,2.9,0,5.7,0,14 M-9687.7-5887c0,4,0,8.1,0,14
		 M-9687.7-5873c0,3.4-1.7,5.2-5.2,5.2 M-9687.7-5873c0,3.4-1.7,5.2-5.2,5.2 M-9692.8-5867.8c-3.3,0-6.6,0-10.3,0 M-9692.8-5867.8
		c-3,0-6,0-10.3,0 M-9703.1-5867.8c-3.4,0-5.1-1.8-5.2-5.2 M-9703.1-5867.8c-3.5,0.1-5.1-1.8-5.2-5.2 M-9708.3-5873
		c-0.1-5.5,0-11,0-14 M-9708.3-5873c0-3.3,0-6.7,0-14 M-9708.3-5887c0-3.4,1.7-5.1,5.2-5.2 M-9708.3-5887c0-3.4,1.7-5.1,5.2-5.2"/>
</g>
<g transform="translate(295 5748) rotate(0 415 490)">
	<path class="st0" d="M-273.3-5560.6c3.5,0,7,0,10.3,0 M-273.3-5560.6c2.6,0,5.2,0,10.3,0 M-263-5560.6c3.5,0,5.2,1.7,5.2,5.2
		 M-263-5560.6c3.5,0,5.1,1.7,5.2,5.2 M-257.8-5555.5c0.1,4.1,0.1,8.2,0,14 M-257.8-5555.5c0,2.9,0,5.8,0,14 M-257.8-5541.4
		c0,3.5-1.7,5.2-5.2,5.2 M-257.8-5541.4c-0.1,3.4-1.7,5.1-5.2,5.2 M-263-5536.3c-3.7-0.1-7.4,0-10.3,0 M-263-5536.3
		c-2.4,0-4.8,0-10.3,0 M-273.3-5536.3c-3.5,0-5.2-1.7-5.2-5.2 M-273.3-5536.3c-3.4,0-5.2-1.7-5.2-5.2 M-278.4-5541.4
		c0-5.5,0-11,0-14 M-278.4-5541.4c0.1-3.6,0.1-7.3,0-14 M-278.4-5555.5c0-3.4,1.7-5.1,5.2-5.2 M-278.4-5555.5c0-3.4,1.7-5.2,5.2-5.2
		"/>
</g>
<g transform="translate(1085 6748) rotate(0 415 490)">
	<path class="st0" d="M-1043.7-6535.8c2.7,0,5.4,0,10.3,0 M-1043.7-6535.8c3.1,0,6.2,0,10.3,0 M-1033.4-6535.8
		c3.4,0,5.1,1.7,5.2,5.2 M-1033.4-6535.8c3.4,0.1,5.2,1.7,5.2,5.2 M-1028.2-6530.6c0,5.2,0,10.5,0,14 M-1028.2-6530.6
		c0,3.3,0.1,6.6,0,14 M-1028.2-6516.6c0,3.5-1.7,5.1-5.2,5.2 M-1028.2-6516.6c0,3.4-1.8,5.2-5.2,5.2 M-1033.4-6511.4
		c-4.1,0-8.1,0-10.3,0 M-1033.4-6511.4c-3.4,0-6.9,0-10.3,0 M-1043.7-6511.4c-3.5,0-5.2-1.7-5.2-5.2 M-1043.7-6511.4
		c-3.4,0-5.1-1.7-5.2-5.2 M-1048.8-6516.6c0-3.8,0-7.5,0-14 M-1048.8-6516.6c0-4.7,0-9.4,0-14 M-1048.8-6530.6
		c0-3.4,1.7-5.2,5.2-5.2 M-1048.8-6530.6c-0.1-3.4,1.7-5.2,5.2-5.2"/>
</g>
<g transform="translate(2305 6788) rotate(0 415 490)">
	<path class="st0" d="M-2233.4-6574.8c3.8,0,7.7,0,10.3,0 M-2233.4-6574.8c2.4,0,4.7,0,10.3,0 M-2223.1-6574.8
		c3.5,0,5.1,1.7,5.2,5.2 M-2223.1-6574.8c3.4,0,5.1,1.7,5.2,5.2 M-2217.9-6569.6c0,3.5,0,7,0,14 M-2217.9-6569.6c0,5.5,0,10.9,0,14
		 M-2217.9-6555.6c0,3.5-1.7,5.1-5.2,5.2 M-2217.9-6555.6c0,3.4-1.7,5.1-5.2,5.2 M-2223.1-6550.4c-2.9-0.1-6-0.1-10.3,0
		 M-2223.1-6550.4c-3.2,0-6.3,0-10.3,0 M-2233.4-6550.4c-3.4,0-5.1-1.7-5.2-5.2 M-2233.4-6550.4c-3.4,0-5.2-1.8-5.2-5.2
		 M-2238.5-6555.6c0-5.3,0-10.6,0-14 M-2238.5-6555.6c0-3.2,0-6.4,0-14 M-2238.5-6569.6c0-3.4,1.7-5.2,5.2-5.2 M-2238.5-6569.6
		c0-3.4,1.7-5.2,5.2-5.2"/>
</g>
<g transform="translate(4015 1968) rotate(0 415 490)">
	<path class="st0" d="M-3900.9-1874.5c2.3,0,4.5,0,10.3,0 M-3900.9-1874.5c3.5,0,7,0,10.3,0 M-3890.6-1874.5c3.4,0,5.1,1.7,5.2,5.2
		 M-3890.6-1874.5c3.4,0,5.1,1.7,5.2,5.2 M-3885.4-1869.3c0,5.6,0,11.2,0,14 M-3885.4-1869.3c0,5.2,0,10.4,0,14 M-3885.4-1855.3
		c0,3.5-1.7,5.2-5.2,5.2 M-3885.4-1855.3c0,3.4-1.8,5.2-5.2,5.2 M-3890.6-1850.2c-3.8,0-7.5,0.1-10.3,0 M-3890.6-1850.2
		c-2.6,0-5.3,0-10.3,0 M-3900.9-1850.2c-3.4,0-5.1-1.7-5.2-5.2 M-3900.9-1850.2c-3.5,0-5.1-1.7-5.2-5.2 M-3906.1-1855.3
		c0-3.3,0-6.5,0-14 M-3906.1-1855.3c0-4,0-8.1,0-14 M-3906.1-1869.3c0-3.5,1.7-5.2,5.2-5.2 M-3906.1-1869.3c0-3.4,1.7-5.1,5.2-5.2"
		/>
</g>
<g transform="translate(5355 1848) rotate(0 415 490)">
	<path class="st0" d="M-5207.6-1757.5c3.9,0,7.9,0,10.3,0 M-5207.6-1757.5c3,0,6,0,10.3,0 M-5197.3-1757.5c3.4,0,5.2,1.7,5.2,5.2
		 M-5197.3-1757.5c3.4,0,5.1,1.7,5.2,5.2 M-5192.2-1752.3c0,2.9,0,5.8,0,14 M-5192.2-1752.3c0,4,0,7.9,0,14 M-5192.2-1738.3
		c0,3.4-1.8,5.2-5.2,5.2 M-5192.2-1738.3c0,3.5-1.8,5.2-5.2,5.2 M-5197.3-1733.1c-2.9,0-5.9,0-10.3,0 M-5197.3-1733.1
		c-3.4-0.1-6.9,0-10.3,0 M-5207.6-1733.1c-3.4,0-5.2-1.8-5.2-5.2 M-5207.6-1733.1c-3.4,0-5.1-1.8-5.2-5.2 M-5212.8-1738.3
		c-0.1-4.7-0.1-9.3,0-14 M-5212.8-1738.3c0-3.7,0-7.4,0-14 M-5212.8-1752.3c0-3.5,1.8-5.1,5.2-5.2 M-5212.8-1752.3
		c0-3.4,1.7-5.1,5.2-5.2"/>
</g>
<g transform="translate(6215 2848) rotate(0 415 490)">
	<path class="st0" d="M-6046.3-2732.6c4,0,8.1,0,10.3,0 M-6046.3-2732.6c3.3,0,6.7,0,10.3,0 M-6036-2732.6c3.5,0,5.1,1.7,5.2,5.2
		 M-6036-2732.6c3.4-0.1,5.1,1.7,5.2,5.2 M-6030.8-2727.5c-0.1,4,0,7.9,0,14 M-6030.8-2727.5c0,2.8,0,5.7,0,14 M-6030.8-2713.5
		c0,3.4-1.7,5.2-5.2,5.2 M-6030.8-2713.5c0,3.5-1.7,5.2-5.2,5.2 M-6036-2708.3c-3.2,0-6.5,0-10.3,0 M-6036-2708.3
		c-3.2,0-6.4,0-10.3,0 M-6046.3-2708.3c-3.4,0-5.2-1.7-5.2-5.2 M-6046.3-2708.3c-3.4,0-5.2-1.7-5.2-5.2 M-6051.4-2713.5
		c0.1-4.5,0.1-9,0-14 M-6051.4-2713.5c0-4,0-8,0-14 M-6051.4-2727.5c0-3.4,1.8-5.1,5.2-5.2 M-6051.4-2727.5
		c-0.1-3.5,1.7-5.2,5.2-5.2"/>
</g>
<g transform="translate(4659.000000000015 10) rotate(0 1921 198)">
	<text transform="matrix(1 0 0 1 -4553.5986 41.7881)" class="st1 st2 st4">ESL-1&apos;s electronic system</text>
</g>
<g transform="translate(1585 3193) rotate(0 555 555)">
	<path class="st0" d="M-1529.5-3069.1c3.3,0,6.6,0,13.8,0 M-1529.5-3069.1c3.8,0,7.6,0,13.8,0 M-1515.7-3069.1
		c4.6,0,6.9,2.3,6.9,6.9 M-1515.7-3069.1c4.6,0,6.9,2.3,6.9,6.9 M-1508.8-3062.2c0,3.2,0,6.3,0,13.8 M-1508.8-3062.2
		c0,4.6,0,9.2,0,13.8 M-1508.8-3048.4c0,4.6-2.3,6.9-6.9,6.9 M-1508.8-3048.4c0,4.6-2.2,6.9-6.9,6.9 M-1515.7-3041.5
		c-4,0-8.1,0.1-13.8,0 M-1515.7-3041.5c-4.6,0.1-9.1,0-13.8,0 M-1529.5-3041.5c-4.5,0-6.9-2.3-6.9-6.9 M-1529.5-3041.5
		c-4.6,0-6.9-2.3-6.9-6.9 M-1536.4-3048.4c-0.1-3.9-0.1-7.8,0-13.8 M-1536.4-3048.4c0-3.4,0-6.8,0-13.8 M-1536.4-3062.2
		c0-4.6,2.2-6.9,6.9-6.9 M-1536.4-3062.2c0-4.6,2.3-6.9,6.9-6.9"/>
</g>
<g transform="translate(4095 3163) rotate(0 555 555)">
	<path class="st0" d="M-3977.2-3039.8c5.3,0,10.6,0,13.8,0 M-3977.2-3039.8c3.3,0,6.6,0,13.8,0 M-3963.4-3039.8
		c4.6,0,6.9,2.3,6.9,6.9 M-3963.4-3039.8c4.6,0,6.9,2.3,6.9,6.9 M-3956.5-3032.9c0,3.1,0,6.3,0,13.8 M-3956.5-3032.9
		c0,4,0,8.1,0,13.8 M-3956.5-3019.1c0,4.6-2.3,6.9-6.9,6.9 M-3956.5-3019.1c0,4.6-2.3,6.9-6.9,6.9 M-3963.4-3012.2
		c-4.9,0-9.9,0-13.8,0 M-3963.4-3012.2c-5.1,0-10.1,0-13.8,0 M-3977.2-3012.2c-4.6,0-6.9-2.3-6.9-6.9 M-3977.2-3012.2
		c-4.6,0-6.9-2.3-6.9-6.9 M-3984.1-3019.1c0-3.2,0-6.5,0-13.8 M-3984.1-3019.1c0-5.2,0-10.3,0-13.8 M-3984.1-3032.9
		c0-4.6,2.3-6.9,6.9-6.9 M-3984.1-3032.9c0-4.6,2.2-6.9,6.9-6.9"/>
</g>
<g transform="translate(1855 5073) rotate(0 555 555)">
	<path class="st0" d="M-1792.8-4902.4c2.9,0,5.8,0,13.8,0 M-1792.8-4902.4c3.7,0,7.4,0,13.8,0 M-1779-4902.4c4.6,0,6.9,2.3,6.9,6.9
		 M-1779-4902.4c4.6,0,6.9,2.3,6.9,6.9 M-1772.1-4895.5c0,3.6,0,7.3,0,13.8 M-1772.1-4895.5c0,5.4,0,10.7,0,13.8 M-1772.1-4881.7
		c0,4.6-2.3,6.9-6.9,6.9 M-1772.1-4881.7c0,4.5-2.3,6.9-6.9,6.9 M-1779-4874.8c-4.9-0.1-9.9-0.1-13.8,0 M-1779-4874.8
		c-3.7,0-7.4,0-13.8,0 M-1792.8-4874.8c-4.6,0-6.9-2.3-6.9-6.9 M-1792.8-4874.8c-4.6,0-6.9-2.3-6.9-6.9 M-1799.7-4881.7
		c0.1-5.2,0.1-10.4,0-13.8 M-1799.7-4881.7c0-4.9,0-9.7,0-13.8 M-1799.7-4895.5c0-4.6,2.2-6.9,6.9-6.9 M-1799.7-4895.5
		c0-4.6,2.3-6.9,6.9-6.9"/>
</g>
<g transform="translate(4525 6263) rotate(0 555 555)">
	<path class="st0" d="M-4396.5-6062.8c3.3,0,6.5,0,13.8,0 M-4396.5-6062.8c5.2,0,10.3,0,13.8,0 M-4382.7-6062.8
		c4.6,0,6.9,2.3,6.9,6.9 M-4382.7-6062.8c4.5,0,6.9,2.3,6.9,6.9 M-4375.8-6055.9c0,5.2,0,10.3,0,13.8 M-4375.8-6055.9
		c0,4.5,0,8.9,0,13.8 M-4375.8-6042.2c0,4.6-2.3,6.8-6.9,6.9 M-4375.8-6042.2c0,4.6-2.3,6.9-6.9,6.9 M-4382.7-6035.3
		c-3.9,0-7.7,0-13.8,0 M-4382.7-6035.3c-4.5,0-9.1,0-13.8,0 M-4396.5-6035.3c-4.6,0-6.9-2.3-6.9-6.9 M-4396.5-6035.3
		c-4.6,0-6.8-2.3-6.9-6.9 M-4403.4-6042.2c0-5,0-10,0-13.8 M-4403.4-6042.2c0-3.9,0-7.8,0-13.8 M-4403.4-6055.9
		c0-4.6,2.3-6.9,6.9-6.9 M-4403.4-6055.9c0-4.6,2.4-6.9,6.9-6.9"/>
</g>
<g>
	<g transform="translate(218.5 3074.5) rotate(0 316.5 78.5)">
		<text transform="matrix(1 0 0 1 -203.1719 -2950.7783)" class="st1 st2 st5">Barometer</text>
	</g>
	<g transform="translate(4513.5 5181) rotate(0 516.5 157)">
		<text transform="matrix(1 0 0 1 -4391.3379 -5004.9639)" class="st1 st2 st5">Apogee detection</text>
		<text transform="matrix(1 0 0 1 -4386.8838 -5001.0645)" class="st1 st2 st5">Application</text>
	</g>
	<g transform="translate(10145 5294.5) rotate(0 235 78.5)">
		<text transform="matrix(1 0 0 1 -9883.9795 -5115.6455)" class="st1 st2 st5">Solenoid</text>
	</g>
	<g transform="translate(363.5 4419.5) rotate(0 316.5 78.5)">
		<text transform="matrix(1 0 0 1 -344.5713 -4262.375)" class="st1 st2 st5">Barometer</text>
	</g>
	<g transform="translate(1243.5 2299.5) rotate(0 316.5 78.5)">
		<text transform="matrix(1 0 0 1 -1202.7168 -2195.0254)" class="st1 st2 st5">Barometer</text>
	</g>
	<g transform="translate(10145 6499.5) rotate(0 235 78.5)">
		<text transform="matrix(1 0 0 1 -9883.9795 -6290.7197)" class="st1 st2 st5">Solenoid</text>
	</g>
	<g transform="translate(326 6159.5) rotate(0 384 78.5)">
		<text transform="matrix(1 0 0 1 -308.3789 -5959.1641)" class="st1 st2 st5">Thermometer</text>
	</g>
	<g transform="translate(1116 7159.5) rotate(0 384 78.5)">
		<text transform="matrix(1 0 0 1 -1078.7588 -6934.3281)" class="st1 st2 st5">Thermometer</text>
	</g>
	<g transform="translate(2336 7199.5) rotate(0 384 78.5)">
		<text transform="matrix(1 0 0 1 -2268.4609 -6973.3359)" class="st1 st2 st5">Thermometer</text>
	</g>
	<g transform="translate(4047 2379.5) rotate(0 383 78.5)">
		<text transform="matrix(1 0 0 1 -3935.54 -2273.0381)" class="st1 st2 st5">Inertial Unit</text>
	</g>
	<g transform="translate(5387 2259.5) rotate(0 383 78.5)">
		<text transform="matrix(1 0 0 1 -5242.2617 -2156.0195)" class="st1 st2 st5">Inertial Unit</text>
	</g>
	<g transform="translate(6247 3259.5) rotate(0 383 78.5)">
		<text transform="matrix(1 0 0 1 -6080.9043 -3131.1836)" class="st1 st2 st5">Inertial Unit</text>
	</g>
	<g transform="translate(1727 3512.5) rotate(0 413 235.5)">
		<text transform="matrix(1 0 0 1 -1670.7852 -3377.9004)" class="st1 st2 st5">Pressure</text>
		<text transform="matrix(1 0 0 1 -1674.21 -3374.002)" class="st1 st2 st5">Determination</text>
		<text transform="matrix(1 0 0 1 -1672.1562 -3370.1025)" class="st1 st2 st5">Application</text>
	</g>
	<g transform="translate(4237 3482.5) rotate(0 413 235.5)">
		<text transform="matrix(1 0 0 1 -4120.7627 -3348.6455)" class="st1 st2 st5">Acceleration</text>
		<text transform="matrix(1 0 0 1 -4121.875 -3344.7471)" class="st1 st2 st5">Determination</text>
		<text transform="matrix(1 0 0 1 -4119.8223 -3340.8477)" class="st1 st2 st5">Application</text>
	</g>
	<g transform="translate(1997 5392.5) rotate(0 413 235.5)">
		<text transform="matrix(1 0 0 1 -1936.5625 -5211.2119)" class="st1 st2 st5">Temperature</text>
		<text transform="matrix(1 0 0 1 -1937.5039 -5207.3125)" class="st1 st2 st5">Determination</text>
		<text transform="matrix(1 0 0 1 -1935.4521 -5203.4131)" class="st1 st2 st5">Application</text>
	</g>
	<g transform="translate(4771.5 6721) rotate(0 298.5 78.5)">
		<text transform="matrix(1 0 0 1 -4643.0322 -6506.7188)" class="st1 st2 st5">Telemetry</text>
	</g>
</g>
<g>
	<g transform="translate(1920 2828) rotate(0 159.97283354877436 180.25009409973404)">
		<path class="st0" d="M-1863.1-2713.1c1.2,0.6,5.6,2.2,6.9,3.7c1.3,1.5,0.9,4.3,1,5.2 M-1863.1-2713.1c1.2,0.6,5.7,2.3,7,3.8
			c1.3,1.5,0.8,4.3,1,5.2"/>
	</g>
</g>
<g>
	<g transform="translate(950 3348) rotate(0 314.6384607251748 74.73766484297812)">
		<path class="st0" d="M-917.2-3220.2c1,0.4,3.3,1.7,5.9,2.3c2.6,0.6,8.1,1.2,9.7,1.5 M-917.1-3220.2c1,0.4,3.3,1.6,5.9,2.2
			c2.6,0.6,8,1.2,9.6,1.5"/>
	</g>
</g>
<g>
	<g transform="translate(1100 4338) rotate(0 240.00422901766433 -184.11108835326513)">
		<path class="st0" d="M-1063.4-4185.6c0.4-0.9,0.7-3.7,2.7-5.2c2-1.5,7.7-3.3,9.2-4 M-1063.5-4185.6c0.4-0.9,0.7-3.7,2.7-5.2
			s7.7-3.3,9.2-4"/>
	</g>
</g>
<g>
	<g transform="translate(1130 5978) rotate(0 359.2621241593224 -224.8747051371538)">
		<path class="st0" d="M-1092.7-5784.9c0.9-1,2.2-4.1,5.2-5.9c3-1.9,10.6-4.4,12.7-5.2 M-1092.8-5784.9c0.9-1,2.2-4.1,5.2-6
			c3-1.9,10.6-4.4,12.7-5.2"/>
	</g>
</g>
<g>
	<g transform="translate(1540 6748) rotate(0 174.14629550941754 -325.16497676910876)">
		<path class="st0" d="M-1492.5-6535.8c0.1-1.5-1-6.3,0.5-9c1.5-2.7,7-6,8.4-7.2 M-1492.5-6535.8c0.1-1.5-1-6.3,0.5-8.9
			c1.5-2.7,7-6,8.4-7.2"/>
	</g>
</g>
<g>
	<g transform="translate(2700 6778) rotate(0 -49.79967424362985 -294.794000176033)">
		<path class="st0" d="M-2623.7-6565.1c0-1,0.2-3.7-0.2-6.2s-1.9-7.1-2.3-8.5 M-2623.7-6565c0-1,0.2-3.8-0.2-6.2
			c-0.4-2.4-1.8-7-2.2-8.5"/>
	</g>
</g>
<g>
	<g transform="translate(4510 2938) rotate(0 110.39122469323047 115.148278768193)">
		<path class="st0" d="M-4388.7-2820.4c0.6,0.4,2.8,1.6,3.7,2.5c0.9,1,1.5,2.7,1.8,3.2 M-4388.8-2820.4c0.6,0.4,2.8,1.5,3.8,2.4
			c0.9,1,1.4,2.7,1.7,3.3"/>
	</g>
</g>
<g>
	<g transform="translate(5500 2828) rotate(0 -148.76210529427044 239.4041614587976)">
		<path class="st0" d="M-5354.2-2713.1c-0.1,1.2,0.5,5-0.8,7s-5.6,4.1-6.7,4.9 M-5354.2-2713.2c-0.1,1.2,0.5,5-0.7,7s-5.6,4.2-6.7,5
			"/>
	</g>
</g>
<g>
	<g transform="translate(6240 3758) rotate(0 -515.1034634437092 105.49652212260298)">
		<path class="st0" d="M-6075.8-3620.1c-2,0.7-7.6,3.6-11.9,4.5c-4.3,0.9-11.4,0.6-13.7,0.7 M-6075.8-3620c-2,0.7-7.7,3.5-12,4.4
			s-11.4,0.7-13.7,0.8"/>
	</g>
</g>
<g>
	<g transform="translate(4710 4268) rotate(0 -20.135870511687244 265.0349620345978)">
		<path class="st0" d="M-4583.8-4117.4c-0.2,1.2-1,5.3-1,7.5c-0.1,2.2,0.6,4.8,0.7,5.7 M-4583.8-4117.3c-0.2,1.2-1,5.3-1,7.4
			c0,2.2,0.7,4.7,0.8,5.7"/>
	</g>
</g>
<g>
	<g transform="translate(2660 4198) rotate(0 909.7513330582515 409.3760596223267)">
		<path class="st0" d="M-2584.7-4049.1c3,2.4,10.6,10.8,18.2,14.2s22.6,5.1,27.1,6.2 M-2584.7-4049.1c3,2.4,10.6,10.7,18.1,14.1
			c7.5,3.4,22.6,5.2,27.1,6.2"/>
	</g>
</g>
<g>
	<g transform="translate(2970 5478) rotate(0 754.622379243745 -52.03223476854191)">
		<path class="st0" d="M-2887-5297.3c2.6,0.1,9.1,1.1,15.4,0.5c6.3-0.5,18.4-3.1,22.1-3.7 M-2887-5297.3c2.6,0.1,9.2,1,15.4,0.5
			c6.2-0.5,18.4-3.1,22.1-3.7"/>
	</g>
</g>
<g>
	<g transform="translate(5590 5128) rotate(0 2190.411567037103 66.32354537177252)">
		<path class="st0" d="M-5442-4956c4.2-0.4,7.2-3.5,25.3-2.5c18.1,1,69.5,7,83.4,8.4 M-5441.9-4956c4.2-0.4,7.2-3.5,25.3-2.5
			c18.1,1,69.6,7,83.5,8.4"/>
	</g>
</g>
<g>
	<g transform="translate(5590 5458) rotate(0 2190.012762599814 529.0127110426502)">
		<path class="st0" d="M-5442-5277.8c9.4,2.2,38,8.5,56.2,12.9c18.1,4.4,43.9,11.2,52.7,13.4 M-5441.9-5277.9
			c9.4,2.2,38,8.6,56.1,13c18.1,4.4,43.9,11.2,52.7,13.4"/>
	</g>
</g>
<g>
	<g transform="translate(2940 6068) rotate(0 789.4486487977119 360.063935633214)">
		<path class="st0" d="M-2857.7-5872.7c3,2.7,11.3,13.2,17.8,16.2s17.8,1.2,21.4,1.5 M-2857.8-5872.6c3,2.7,11.4,13.2,17.9,16.1
			c6.5,2.9,17.7,1.3,21.3,1.5"/>
	</g>
</g>
<g>
	<g transform="translate(5150 4188) rotate(0 374.0308901939279 1069.590056818817)">
		<path class="st0" d="M-5012.9-4039.3c3.1,2.1,16.6,4,18.4,12.9c1.8,8.9-6.4,33.5-7.7,40.2 M-5012.9-4039.4
			c3.1,2.1,16.6,4.1,18.4,12.9c1.8,8.9-6.4,33.5-7.7,40.2"/>
	</g>
</g>
<g>
	<g transform="translate(2610 4268) rotate(0 990.0002726019884 1024.8330946950057)">
		<path class="st0" d="M-2535.9-4117.4c3.1,3.9,10.2,14.8,18.4,23.3c8.2,8.5,25.7,23,30.8,27.6 M-2536-4117.4
			c3.1,3.9,10.2,14.9,18.4,23.4c8.2,8.5,25.7,23,30.9,27.5"/>
	</g>
</g>
<g>
	<g transform="translate(5080 5898) rotate(0 -27.042274793377146 179.9862218197436)">
		<path class="st0" d="M-4944.6-5706.9c-0.2,1-1,4.3-1.2,5.8c-0.2,1.5,0,2.7,0,3.2 M-4944.7-5706.9c-0.2,1-1,4.2-1.2,5.7
			c-0.2,1.5,0,2.7,0,3.2"/>
	</g>
</g>
</svg>
