<?xml version="1.0" encoding="utf-8"?>
<!-- Generator: Adobe Illustrator 26.5.0, SVG Export Plug-In . SVG Version: 6.00 Build 0)  -->
<svg version="1.1" id="Calque_1" xmlns="http://www.w3.org/2000/svg" xmlns:xlink="http://www.w3.org/1999/xlink" x="0px" y="0px"
	 viewBox="0 0 300 300" style="enable-background:new 0 0 300 300;" xml:space="preserve">
<style type="text/css">
	.st0{fill:none;stroke:#5C940D;stroke-linecap:round;stroke-miterlimit:12;}
	.st1{fill:#5C940D;}
	.st2{font-family:'ArialMT';}
	.st3{font-size:2.5057px;}
	.st4{fill:none;stroke:#FFFFFF;stroke-linecap:round;stroke-miterlimit:12;}
	.st5{fill:#FFFFFF;}
	.st6{font-size:3.7825px;}
	.st7{fill:none;stroke:#C92A2A;stroke-linecap:round;stroke-miterlimit:12;}
	.st8{fill:#C92A2A;}
</style>
<g>
	<g transform="translate(130 1820) rotate(0 415 490)">
		<path class="st0" d="M-116.7-1706.1c1.8,0,3.6,0,8.4,0 M-116.7-1706.1c3.1,0,6.2,0,8.4,0 M-108.3-1706.1c2.8,0,4.2,1.4,4.2,4.2
			 M-108.3-1706.1c2.8,0,4.2,1.4,4.2,4.2 M-104.1-1701.9c0,2.3,0,4.7,0,11.4 M-104.1-1701.9c0,3,0,6,0,11.4 M-104.1-1690.5
			c0,2.8-1.4,4.2-4.2,4.2 M-104.1-1690.5c0,2.8-1.4,4.2-4.2,4.2 M-108.3-1686.3c-2.4,0-4.7,0-8.4,0 M-108.3-1686.3
			c-2.9,0-5.9,0-8.4,0 M-116.7-1686.3c-2.8,0-4.2-1.4-4.2-4.2 M-116.7-1686.3c-2.8,0-4.2-1.4-4.2-4.2 M-120.9-1690.5
			c0-3.6,0-7.2,0-11.4 M-120.9-1690.5c0-3.9,0-7.9,0-11.4 M-120.9-1701.9c0-2.8,1.4-4.2,4.2-4.2 M-120.9-1701.9
			c0-2.8,1.4-4.2,4.2-4.2"/>
	</g>
	<g transform="translate(228.5 2231.5) rotate(0 316.5 78.5)">
		<text transform="matrix(1 0 0 1 -216.8243 -2107.0911)" class="st1 st2 st3">Barometer</text>
	</g>
	<g transform="translate(4485 3940) rotate(0 555 555)">
		<path class="st0" d="M-4382.3-3783.3c2.8,0,5.7,0,11.2,0 M-4382.3-3783.3c2.6,0,5.2,0,11.2,0 M-4371-3783.3c3.8,0,5.6,1.8,5.6,5.6
			 M-4371-3783.3c3.7,0,5.6,1.9,5.6,5.6 M-4365.4-3777.7c0,2.9,0,5.7,0,11.2 M-4365.4-3777.7c0,4,0,8.1,0,11.2 M-4365.4-3766.5
			c0,3.7-1.9,5.6-5.6,5.6 M-4365.4-3766.5c0,3.8-1.9,5.6-5.6,5.6 M-4371-3760.9c-3.1,0-6.2,0-11.2,0 M-4371-3760.9
			c-3.6,0-7.2,0-11.2,0 M-4382.3-3760.9c-3.7,0-5.6-1.9-5.6-5.6 M-4382.3-3760.9c-3.8,0-5.6-1.9-5.6-5.6 M-4387.9-3766.5
			c0-4.1,0-8.3,0-11.2 M-4387.9-3766.5c0-2.3,0-4.6,0-11.2 M-4387.9-3777.7c0-3.7,1.9-5.6,5.6-5.6 M-4387.9-3777.7
			c0-3.7,1.8-5.6,5.6-5.6"/>
	</g>
	<g transform="translate(4523.5 4338) rotate(0 516.5 157)">
		<text transform="matrix(1 0 0 1 -4424.8965 -4171.0239)" class="st1 st2 st3">Apogee detection</text>
		<text transform="matrix(1 0 0 1 -4421.2725 -4167.8521)" class="st1 st2 st3">Application</text>
	</g>
	<g transform="translate(10 10) rotate(0 3595 3600)">
		<path class="st4" d="M33,67.3c23-0.1,46.1-0.1,72.6,0 M33,67.3c20.1,0.2,40.3,0.2,72.6,0 M105.7,67.3c24.2,0,36.3,12.1,36.3,36.3
			 M105.7,67.3c24.2,0,36.3,12.1,36.3,36.3 M142,103.6c0.3,26.1,0.3,52.3,0,72.8 M142,103.6c-0.1,15.4-0.1,30.8,0,72.8 M142,176.5
			c0,24.2-12.1,36.3-36.3,36.3 M142,176.5c0,24.2-12.1,36.3-36.3,36.3 M105.7,212.8c-26.6-0.3-53.2-0.3-72.6,0 M105.7,212.8
			c-21.3,0-42.7,0-72.6,0 M33,212.8c-24.2,0-36.4-12.1-36.3-36.3 M33,212.8c-24.2,0-36.3-12.1-36.3-36.3 M-3.3,176.5
			c-0.1-18.5-0.1-37,0-72.8 M-3.3,176.5c0.3-19.4,0.3-38.8,0-72.8 M-3.3,103.6c0-24.2,12.1-36.3,36.3-36.3 M-3.3,103.6
			c0-24.2,12.1-36.3,36.3-36.3"/>
	</g>
	<g>
		<g transform="translate(208.64507427613717 861.0662213686846) rotate(0 3400.8962140168296 -35.142042013564605)">
			<path class="st4" d="M-197.9-766.6c22.9-0.2,114.5-1.2,137.4-1.4 M-197.9-766.6c22.9-0.2,114.6-1.2,137.5-1.4"/>
		</g>
	</g>
	<g transform="translate(2631 291.5) rotate(0 707.9808917197442 118.5)">
		<text transform="matrix(1 0 0 1 -2570.1572 -205.1605)" class="st5 st2 st6">Nucleo L073RZ</text>
	</g>
	<g transform="translate(9975 4040) rotate(0 415 490)">
		<path class="st0" d="M-9762.7-3881.3c3.1,0,6.2,0,8.4,0 M-9762.7-3881.3c2.5,0,4.9,0,8.4,0 M-9754.3-3881.3c2.8,0,4.2,1.4,4.2,4.2
			 M-9754.3-3881.3c2.8,0,4.2,1.4,4.2,4.2 M-9750.1-3877.1c0,3,0,6,0,11.4 M-9750.1-3877.1c0,2.8,0,5.7,0,11.4 M-9750.1-3865.7
			c0,2.8-1.4,4.2-4.2,4.2 M-9750.1-3865.7c0,2.8-1.4,4.1-4.2,4.2 M-9754.3-3861.5c-3,0-5.9,0-8.4,0 M-9754.3-3861.5
			c-2.3,0-4.5,0-8.4,0 M-9762.7-3861.5c-2.8,0-4.2-1.4-4.2-4.2 M-9762.7-3861.5c-2.8,0-4.2-1.4-4.2-4.2 M-9766.9-3865.7
			c0-3.9,0-7.9,0-11.4 M-9766.9-3865.7c0-3,0-6.1,0-11.4 M-9766.9-3877.1c0-2.8,1.4-4.2,4.2-4.2 M-9766.9-3877.1
			c0-2.8,1.4-4.2,4.2-4.2"/>
	</g>
	<g transform="translate(10155 4451.5) rotate(0 235 78.5)">
		<text transform="matrix(1 0 0 1 -9943.4121 -4282.231)" class="st1 st2 st3">Solenoid</text>
	</g>
	<g transform="translate(9450 3030) rotate(0 930 1810)">
		<path class="st4" d="M-9243.1-2891.7c4.4,0,8.8,0,18.8,0 M-9243.1-2891.7c6.5,0,13,0,18.8,0 M-9224.3-2891.7
			c6.3,0,9.4,3.2,9.4,9.4 M-9224.3-2891.7c6.3,0,9.4,3.1,9.4,9.4 M-9214.9-2882.3c0.1,19.6,0.1,39.1,0,54.4 M-9214.9-2882.3
			c0,13.8,0,27.7,0,54.4 M-9214.9-2827.9c0,6.3-3.1,9.4-9.4,9.4 M-9214.9-2827.9c0,6.2-3.1,9.4-9.4,9.4 M-9224.3-2818.5
			c-6,0-12,0-18.8,0 M-9224.3-2818.5c-5.8,0-11.6,0-18.8,0 M-9243.1-2818.5c-6.3,0-9.4-3.2-9.4-9.4 M-9243.1-2818.5
			c-6.2,0-9.4-3.1-9.4-9.4 M-9252.5-2827.9c0.1-11.2,0.1-22.3,0-54.4 M-9252.5-2827.9c-0.2-13-0.2-25.9,0-54.4 M-9252.5-2882.3
			c0-6.2,3.1-9.4,9.4-9.4 M-9252.5-2882.3c0-6.2,3.2-9.4,9.4-9.4"/>
	</g>
	<g>
		<g transform="translate(9460 3500) rotate(0 919.7465141680077 4.703938906583971)">
			<path class="st4" d="M-9262.3-3352.2c6.2,0,31,0.2,37.2,0.2 M-9262.3-3352.1c6.2,0,30.9,0.1,37.1,0.2"/>
		</g>
	</g>
	<g transform="translate(9578 3201.5) rotate(0 782 118.5)">
		<text transform="matrix(1 0 0 1 -9377.2783 -3056.3577)" class="st5 st2 st6">Arduino MKRZero</text>
	</g>
	<g transform="translate(275 3165) rotate(0 415 490)">
		<path class="st7" d="M-258.7-3023.9c2.2,0,4.4,0,8.4,0 M-258.7-3023.9c1.9,0,3.8,0,8.4,0 M-250.4-3023.9c2.8,0,4.2,1.4,4.2,4.2
			 M-250.4-3023.9c2.8,0,4.2,1.4,4.2,4.2 M-246.2-3019.8c0,3.2,0,6.4,0,11.4 M-246.2-3019.8c0,4.2,0,8.4,0,11.4 M-246.2-3008.3
			c0,2.8-1.4,4.2-4.2,4.2 M-246.2-3008.3c0,2.8-1.4,4.2-4.2,4.2 M-250.4-3004.1c-1.8,0-3.5,0-8.4,0 M-250.4-3004.1
			c-2.2,0-4.5-0.1-8.4,0 M-258.7-3004.1c-2.8,0-4.2-1.4-4.2-4.2 M-258.7-3004.1c-2.8,0-4.2-1.4-4.2-4.2 M-262.9-3008.3
			c0-2.4,0-4.8,0-11.4 M-262.9-3008.3c0-4.5,0-9,0-11.4 M-262.9-3019.8c0-2.8,1.4-4.2,4.2-4.2 M-262.9-3019.8c0-2.8,1.4-4.2,4.2-4.2
			"/>
	</g>
	<g transform="translate(373.5 3576.5) rotate(0 316.5 78.5)">
		<text transform="matrix(1 0 0 1 -358.8946 -3424.9114)" class="st8 st2 st3">Barometer</text>
	</g>
	<g transform="translate(1155 1045) rotate(0 415 490)">
		<path class="st7" d="M-1121-946.8c2.5,0,4.9,0,8.4,0 M-1121-946.8c2.7,0,5.5,0,8.4,0 M-1112.6-946.8c2.8,0,4.2,1.4,4.2,4.2
			 M-1112.6-946.8c2.8,0,4.2,1.4,4.2,4.2 M-1108.4-942.6c0,2.8,0,5.7,0,11.4 M-1108.4-942.6c0,3.7,0,7.4,0,11.4 M-1108.4-931.2
			c0,2.8-1.4,4.2-4.2,4.2 M-1108.4-931.2c0,2.8-1.4,4.2-4.2,4.2 M-1112.6-927c-2.3,0-4.6,0-8.4,0 M-1112.6-927c-1.7,0-3.5,0-8.4,0
			 M-1121-927c-2.8,0-4.2-1.4-4.2-4.2 M-1121-927c-2.8,0-4.2-1.4-4.2-4.2 M-1125.1-931.2c0-3,0-6.1,0-11.4 M-1125.1-931.2
			c0-4,0.1-7.9,0-11.4 M-1125.1-942.6c0-2.8,1.4-4.2,4.2-4.2 M-1125.1-942.6c0-2.8,1.4-4.2,4.2-4.2"/>
	</g>
	<g transform="translate(1253.5 1456.5) rotate(0 316.5 78.5)">
		<text transform="matrix(1 0 0 1 -1221.1113 -1347.7504)" class="st8 st2 st3">Barometer</text>
	</g>
	<g transform="translate(9975 5245) rotate(0 415 490)">
		<path class="st7" d="M-9762.7-5061.9c2.9,0,5.8,0,8.4,0 M-9762.7-5061.9c3,0,6,0,8.4,0 M-9754.3-5061.9c2.8,0,4.2,1.4,4.2,4.2
			 M-9754.3-5061.9c2.8,0,4.2,1.4,4.2,4.2 M-9750.1-5057.7c0,2.9,0,5.8,0,11.4 M-9750.1-5057.7c0,3.5,0,7.1,0,11.4 M-9750.1-5046.3
			c0,2.8-1.4,4.2-4.2,4.2 M-9750.1-5046.3c0,2.8-1.4,4.2-4.2,4.2 M-9754.3-5042.1c-2.6,0-5.2,0-8.4,0 M-9754.3-5042.1
			c-2.8,0-5.6,0-8.4,0 M-9762.7-5042.1c-2.8,0-4.2-1.4-4.2-4.2 M-9762.7-5042.1c-2.8,0-4.2-1.4-4.2-4.2 M-9766.9-5046.3
			c0-2.7,0-5.5,0-11.4 M-9766.9-5046.3c0-4.4,0-8.9,0-11.4 M-9766.9-5057.7c0-2.8,1.4-4.2,4.2-4.2 M-9766.9-5057.7
			c0-2.8,1.4-4.2,4.2-4.2"/>
	</g>
	<g transform="translate(10155 5656.5) rotate(0 235 78.5)">
		<text transform="matrix(1 0 0 1 -9943.4121 -5462.8804)" class="st8 st2 st3">Solenoid</text>
	</g>
	<g transform="translate(305 4905) rotate(0 415 490)">
		<path class="st7" d="M-288.1-4728.8c2.6,0,5.1,0,8.4,0 M-288.1-4728.8c2,0,4,0,8.4,0 M-279.7-4728.8c2.8,0,4.2,1.4,4.2,4.2
			 M-279.7-4728.8c2.8,0,4.2,1.4,4.2,4.2 M-275.6-4724.6c0,3.9,0,7.9,0,11.4 M-275.6-4724.6c0,3,0,5.9,0,11.4 M-275.6-4713.2
			c0,2.8-1.4,4.2-4.2,4.2 M-275.6-4713.2c0,2.8-1.4,4.2-4.2,4.2 M-279.7-4709c-3,0-6,0-8.4,0 M-279.7-4709c-1.9,0-3.8,0-8.4,0
			 M-288.1-4709c-2.8,0-4.2-1.4-4.2-4.2 M-288.1-4709c-2.8,0-4.2-1.4-4.2-4.2 M-292.3-4713.2c0-3.4,0-6.8,0-11.4 M-292.3-4713.2
			c0-2.8,0-5.6,0-11.4 M-292.3-4724.6c0-2.8,1.4-4.2,4.2-4.2 M-292.3-4724.6c0-2.8,1.4-4.2,4.2-4.2"/>
	</g>
	<g transform="translate(336 5316.5) rotate(0 384 78.5)">
		<text transform="matrix(1 0 0 1 -322.458 -5129.7515)" class="st8 st2 st3">Thermometer</text>
	</g>
	<g transform="translate(1085 5907) rotate(0 415 490)">
		<path class="st0" d="M-1052.4-5710.5c2.5,0,5,0.1,8.4,0 M-1052.4-5710.5c3.3,0,6.6,0,8.4,0 M-1044-5710.5c2.8,0,4.2,1.4,4.2,4.2
			 M-1044-5710.5c2.8,0,4.2,1.4,4.2,4.2 M-1039.8-5706.3c0,3.5,0,7,0,11.4 M-1039.8-5706.3c0,2.9,0,5.8,0,11.4 M-1039.8-5694.9
			c0,2.8-1.4,4.2-4.2,4.2 M-1039.8-5694.9c0,2.8-1.4,4.2-4.2,4.2 M-1044-5690.7c-1.8,0-3.6,0-8.4,0 M-1044-5690.7
			c-2.8,0-5.6,0-8.4,0 M-1052.4-5690.7c-2.8,0-4.2-1.4-4.2-4.2 M-1052.4-5690.7c-2.8,0-4.2-1.4-4.2-4.2 M-1056.6-5694.9
			c0-3,0-6,0-11.4 M-1056.6-5694.9c0-4.2,0-8.4,0-11.4 M-1056.6-5706.3c0-2.8,1.4-4.2,4.2-4.2 M-1056.6-5706.3
			c0-2.8,1.4-4.2,4.2-4.2"/>
	</g>
	<g transform="translate(1126 6316.5) rotate(0 384 78.5)">
		<text transform="matrix(1 0 0 1 -1096.4941 -6109.5454)" class="st1 st2 st3">Thermometer</text>
	</g>
	<g transform="translate(2315 5945) rotate(0 415 490)">
		<path class="st7" d="M-2257.5-5747.8c1.7,0,3.4,0,8.4,0 M-2257.5-5747.8c2.2,0,4.4,0,8.4,0 M-2249.1-5747.8c2.8,0,4.2,1.4,4.2,4.2
			 M-2249.1-5747.8c2.8,0,4.2,1.4,4.2,4.2 M-2244.9-5743.6c0,3.2,0,6.4,0,11.4 M-2244.9-5743.6c0,4,0,8,0,11.4 M-2244.9-5732.2
			c0,2.8-1.4,4.2-4.2,4.2 M-2244.9-5732.2c0,2.8-1.4,4.1-4.2,4.2 M-2249.1-5728c-2.7,0-5.3,0-8.4,0 M-2249.1-5728
			c-2.9,0-5.8,0-8.4,0 M-2257.5-5728c-2.8,0-4.2-1.4-4.2-4.2 M-2257.5-5728c-2.8,0-4.2-1.4-4.2-4.2 M-2261.7-5732.2
			c0-2.3,0-4.7,0-11.4 M-2261.7-5732.2c0-4.3,0-8.7,0-11.4 M-2261.7-5743.6c0-2.8,1.4-4.2,4.2-4.2 M-2261.7-5743.6
			c0-2.8,1.4-4.2,4.2-4.2"/>
	</g>
	<g transform="translate(2346 6356.5) rotate(0 384 78.5)">
		<text transform="matrix(1 0 0 1 -2291.8408 -6148.7368)" class="st8 st2 st3">Thermometer</text>
	</g>
	<g transform="translate(4025 1125) rotate(0 415 490)">
		<path class="st7" d="M-3933-1025.2c2.2,0,4.3,0,8.4,0 M-3933-1025.2c3,0.1,6,0,8.4,0 M-3924.6-1025.2c2.8,0,4.2,1.4,4.2,4.2
			 M-3924.6-1025.2c2.8,0,4.2,1.4,4.2,4.2 M-3920.4-1021c0,3.1,0,6.3,0,11.4 M-3920.4-1021c0,3.7,0,7.3,0,11.4 M-3920.4-1009.6
			c0,2.8-1.4,4.2-4.2,4.2 M-3920.4-1009.6c0,2.8-1.4,4.2-4.2,4.2 M-3924.6-1005.4c-3.1,0-6.2,0-8.4,0 M-3924.6-1005.4
			c-1.7,0-3.5,0-8.4,0 M-3933-1005.4c-2.8,0-4.2-1.4-4.2-4.2 M-3933-1005.4c-2.8,0-4.2-1.4-4.2-4.2 M-3937.2-1009.6
			c0-4.2,0-8.5,0-11.4 M-3937.2-1009.6c0-2.5,0.1-5,0-11.4 M-3937.2-1021c0-2.8,1.4-4.2,4.2-4.2 M-3937.2-1021
			c0-2.8,1.4-4.2,4.2-4.2"/>
	</g>
	<g transform="translate(4057 1536.5) rotate(0 383 78.5)">
		<text transform="matrix(1 0 0 1 -3967.1045 -1426.1351)" class="st8 st2 st3">Inertial Unit</text>
	</g>
	<g transform="translate(5375 1005) rotate(0 415 490)">
		<path class="st0" d="M-5255.7-907.6c3,0,6,0,8.4,0 M-5255.7-907.6c1.8,0,3.5,0,8.4,0 M-5247.3-907.6c2.8,0,4.2,1.4,4.2,4.2
			 M-5247.3-907.6c2.8,0,4.2,1.4,4.2,4.2 M-5243.1-903.4c0,4.2,0,8.4,0,11.4 M-5243.1-903.4c0,3.4,0,6.7,0,11.4 M-5243.1-892
			c0,2.8-1.4,4.2-4.2,4.2 M-5243.1-892c0,2.8-1.4,4.2-4.2,4.2 M-5247.3-887.8c-2.1,0-4.3,0-8.4,0 M-5247.3-887.8c-2.2,0-4.5,0-8.4,0
			 M-5255.7-887.8c-2.8,0-4.2-1.4-4.2-4.2 M-5255.7-887.8c-2.8,0-4.2-1.4-4.2-4.2 M-5259.9-892c0-4.4,0-8.9,0-11.4 M-5259.9-892
			c0-4.3,0-8.6,0-11.4 M-5259.9-903.4c0-2.8,1.4-4.2,4.2-4.2 M-5259.9-903.4c0-2.8,1.4-4.2,4.2-4.2"/>
	</g>
	<g transform="translate(5387 1416.5) rotate(0 383 78.5)">
		<text transform="matrix(1 0 0 1 -5270.2285 -1308.559)" class="st1 st2 st3">Inertial Unit</text>
	</g>
	<g transform="translate(6225 2005) rotate(0 415 490)">
		<path class="st7" d="M-6088.5-1887.4c2.5,0,4.9,0,8.4,0 M-6088.5-1887.4c3.3,0,6.7,0,8.4,0 M-6080.1-1887.4c2.8,0,4.2,1.4,4.2,4.2
			 M-6080.1-1887.4c2.8,0,4.2,1.4,4.2,4.2 M-6075.9-1883.2c0,2.3,0,4.7,0,11.4 M-6075.9-1883.2c0,3.5,0,6.9,0,11.4 M-6075.9-1871.8
			c0,2.8-1.4,4.2-4.2,4.2 M-6075.9-1871.8c0,2.8-1.4,4.2-4.2,4.2 M-6080.1-1867.6c-2,0-4,0-8.4,0 M-6080.1-1867.6
			c-2.7,0-5.5,0-8.4,0 M-6088.5-1867.6c-2.8,0-4.2-1.4-4.2-4.2 M-6088.5-1867.6c-2.8,0-4.2-1.4-4.2-4.2 M-6092.7-1871.8
			c0-4.1,0-8.2,0-11.4 M-6092.7-1871.8c0-2.6,0-5.1,0-11.4 M-6092.7-1883.2c0-2.8,1.4-4.2,4.2-4.2 M-6092.7-1883.2
			c0-2.8,1.4-4.2,4.2-4.2"/>
	</g>
	<g transform="translate(6257 2416.5) rotate(0 383 78.5)">
		<text transform="matrix(1 0 0 1 -6122.6494 -2288.3518)" class="st8 st2 st3">Inertial Unit</text>
	</g>
	<g transform="translate(1595 2350) rotate(0 555 555)">
		<path class="st0" d="M-1550.7-2225.4c2.6,0,5.2,0,11.2,0 M-1550.7-2225.4c3.2,0,6.4,0,11.2,0 M-1539.4-2225.4
			c3.7,0,5.6,1.9,5.6,5.6 M-1539.4-2225.4c3.8,0,5.6,1.9,5.6,5.6 M-1533.8-2219.8c0,2.7,0,5.5,0,11.2 M-1533.8-2219.8
			c0,3.5,0,7,0,11.2 M-1533.8-2208.6c0,3.8-1.8,5.6-5.6,5.6 M-1533.8-2208.6c0,3.8-1.9,5.6-5.6,5.6 M-1539.4-2203
			c-3.2,0-6.4,0-11.2,0 M-1539.4-2203c-4.1,0.1-8.2,0-11.2,0 M-1550.7-2203c-3.8,0-5.6-1.9-5.6-5.6 M-1550.7-2203
			c-3.7,0-5.6-1.8-5.6-5.6 M-1556.3-2208.6c0-3.3,0-6.6,0-11.2 M-1556.3-2208.6c0-3.2,0-6.3,0-11.2 M-1556.3-2219.8
			c0-3.7,1.9-5.6,5.6-5.6 M-1556.3-2219.8c0-3.7,1.9-5.6,5.6-5.6"/>
	</g>
	<g transform="translate(1737 2669.5) rotate(0 413 235.5)">
		<text transform="matrix(1 0 0 1 -1692.0557 -2536.2405)" class="st1 st2 st3">Pressure</text>
		<text transform="matrix(1 0 0 1 -1694.8418 -2533.0667)" class="st1 st2 st3">Determination</text>
		<text transform="matrix(1 0 0 1 -1693.1719 -2529.8948)" class="st1 st2 st3">Application</text>
	</g>
	<g transform="translate(4105 2320) rotate(0 555 555)">
		<path class="st0" d="M-4009.9-2196c3.8,0,7.5,0,11.2,0 M-4009.9-2196c3.2,0,6.4,0,11.2,0 M-3998.7-2196c3.7,0,5.6,1.9,5.6,5.6
			 M-3998.7-2196c3.7,0,5.6,1.9,5.6,5.6 M-3993.1-2190.4c0,2.6,0,5.1,0,11.2 M-3993.1-2190.4c0,4.2,0,8.5,0,11.2 M-3993.1-2179.2
			c0,3.7-1.9,5.6-5.6,5.6 M-3993.1-2179.2c0,3.8-1.9,5.6-5.6,5.6 M-3998.7-2173.6c-2.8,0-5.6,0-11.2,0 M-3998.7-2173.6
			c-4.4,0-8.9,0-11.2,0 M-4009.9-2173.6c-3.7,0-5.6-1.8-5.6-5.6 M-4009.9-2173.6c-3.7,0-5.6-1.9-5.6-5.6 M-4015.5-2179.2
			c0-2.3,0-4.5,0-11.2 M-4015.5-2179.2c0-3.7,0-7.4,0-11.2 M-4015.5-2190.4c0-3.7,1.8-5.6,5.6-5.6 M-4015.5-2190.4
			c0-3.7,1.9-5.6,5.6-5.6"/>
	</g>
	<g transform="translate(4247 2639.5) rotate(0 413 235.5)">
		<text transform="matrix(1 0 0 1 -4153.2168 -2506.8459)" class="st1 st2 st3">Acceleration</text>
		<text transform="matrix(1 0 0 1 -4154.1221 -2503.6731)" class="st1 st2 st3">Determination</text>
		<text transform="matrix(1 0 0 1 -4152.4521 -2500.5002)" class="st1 st2 st3">Application</text>
	</g>
	<g transform="translate(1865 4230) rotate(0 555 555)">
		<path class="st0" d="M-1815.2-4067.4c3.1,0,6.3,0,11.2,0 M-1815.2-4067.4c4.1,0,8.2,0,11.2,0 M-1804-4067.4c3.8,0,5.6,1.9,5.6,5.6
			 M-1804-4067.4c3.7,0,5.6,1.9,5.6,5.6 M-1798.4-4061.8c0,2.4,0,4.8,0,11.2 M-1798.4-4061.8c0,3,0,6,0,11.2 M-1798.4-4050.6
			c0,3.8-1.9,5.6-5.6,5.6 M-1798.4-4050.6c0,3.7-1.9,5.6-5.6,5.6 M-1804-4045c-2.4,0-4.7,0-11.2,0 M-1804-4045c-4.4,0-8.8,0-11.2,0
			 M-1815.2-4045c-3.7,0-5.6-1.8-5.6-5.6 M-1815.2-4045c-3.7,0-5.7-1.8-5.6-5.6 M-1820.8-4050.6c0-3.5,0-7,0-11.2 M-1820.8-4050.6
			c0-3.1,0-6.3,0-11.2 M-1820.8-4061.8c0-3.7,1.9-5.6,5.6-5.6 M-1820.8-4061.8c0-3.7,1.9-5.6,5.6-5.6"/>
	</g>
	<g transform="translate(2007 4549.5) rotate(0 413 235.5)">
		<text transform="matrix(1 0 0 1 -1958.6201 -4378.2505)" class="st1 st2 st3">Temperature</text>
		<text transform="matrix(1 0 0 1 -1959.3857 -4375.0786)" class="st1 st2 st3">Determination</text>
		<text transform="matrix(1 0 0 1 -1957.7158 -4371.9058)" class="st1 st2 st3">Application</text>
	</g>
	<g transform="translate(4535 5420) rotate(0 555 555)">
		<path class="st0" d="M-4431.2-5233.4c2.8,0,5.6,0,11.2,0 M-4431.2-5233.4c3.7,0,7.3,0,11.2,0 M-4420-5233.4c3.7,0,5.6,1.9,5.6,5.6
			 M-4420-5233.4c3.7,0,5.6,1.9,5.6,5.6 M-4414.4-5227.8c0,3,0,6.1,0,11.2 M-4414.4-5227.8c0,2.3,0,4.7,0,11.2 M-4414.4-5216.6
			c0,3.8-1.9,5.6-5.6,5.6 M-4414.4-5216.6c0,3.7-1.9,5.6-5.6,5.6 M-4420-5211c-3,0-5.9,0-11.2,0 M-4420-5211c-3.9,0-7.8,0-11.2,0
			 M-4431.2-5211c-3.7,0-5.6-1.9-5.6-5.6 M-4431.2-5211c-3.8,0-5.6-1.9-5.6-5.6 M-4436.8-5216.6c0-4.3,0-8.6,0-11.2 M-4436.8-5216.6
			c0-3.1,0-6.2,0-11.2 M-4436.8-5227.8c0-3.7,1.9-5.6,5.6-5.6 M-4436.8-5227.8c0-3.8,1.9-5.6,5.6-5.6"/>
	</g>
	<g transform="translate(4781.5 5888) rotate(0 298.5 78.5)">
		<text transform="matrix(1 0 0 1 -4677.7666 -5689.7026)" class="st1 st2 st3">Telemetry</text>
	</g>
	<g>
		<g transform="translate(1930 1985) rotate(0 159.56996641358273 180.82751004617694)">
			<path class="st7" d="M-1884.5-1867.8c0.9,0.5,4.6,1.8,5.6,3s0.7,3.5,0.8,4.2 M-1884.5-1867.8c0.9,0.5,4.6,1.8,5.7,3
				c1.1,1.2,0.7,3.6,0.8,4.3"/>
		</g>
	</g>
	<g>
		<g transform="translate(960 2505) rotate(0 314.93198270227003 74.9839536436084)">
			<path class="st0" d="M-934.1-2377.3c0.8,0.3,2.7,1.3,4.8,1.8c2.1,0.5,6.6,1,7.9,1.2 M-934.1-2377.3c0.8,0.3,2.7,1.4,4.8,1.9
				c2.1,0.5,6.6,1,7.9,1.2"/>
		</g>
	</g>
	<g>
		<g transform="translate(1100 3495) rotate(0 239.1902538005088 -185.08727616332453)">
			<path class="st7" d="M-1071.3-3347.3c0.4-0.7,0.6-3,2.2-4.2c1.6-1.2,6.2-2.7,7.5-3.2 M-1071.3-3347.3c0.4-0.7,0.6-3,2.2-4.2
				s6.2-2.7,7.5-3.3"/>
		</g>
	</g>
	<g>
		<g transform="translate(1140 5135) rotate(0 359.2644369120462 -225.67013139928713)">
			<path class="st7" d="M-1110.4-4954.1c0.7-0.8,1.8-3.3,4.2-4.9c2.4-1.5,8.6-3.5,10.3-4.2 M-1110.5-4954.2c0.7-0.8,1.8-3.3,4.2-4.8
				c2.4-1.5,8.6-3.6,10.3-4.3"/>
		</g>
	</g>
	<g>
		<g transform="translate(1550 5905) rotate(0 173.50473042759404 -325.21390686295945)">
			<path class="st0" d="M-1512.2-5708.6c0.1-1.2-0.8-5.1,0.4-7.3c1.2-2.2,5.7-4.9,6.9-5.9 M-1512.2-5708.6c0.1-1.2-0.8-5.1,0.4-7.2
				c1.2-2.2,5.8-4.9,6.9-5.9"/>
		</g>
	</g>
	<g>
		<g transform="translate(2710 5935) rotate(0 -50.557260177549324 -295.69818190671504)">
			<path class="st7" d="M-2648.7-5738c0-0.8,0.1-3-0.2-5c-0.3-2-1.5-5.8-1.8-6.9 M-2648.8-5738c0-0.8,0.1-3.1-0.2-5
				c-0.3-2-1.5-5.7-1.8-6.9"/>
		</g>
	</g>
	<g>
		<g transform="translate(4520 2095) rotate(0 110.45423440879676 114.41127656007211)">
			<path class="st7" d="M-4422.2-1975.6c0.5,0.3,2.3,1.2,3.1,2c0.7,0.8,1.1,2.2,1.4,2.7 M-4422.1-1975.6c0.5,0.3,2.3,1.3,3,2.1
				c0.7,0.8,1.2,2.1,1.4,2.6"/>
		</g>
	</g>
	<g>
		<g transform="translate(5510 1985) rotate(0 -148.9417974996686 240.23666605996004)">
			<path class="st0" d="M-5392.2-1867.8c-0.1,0.9,0.4,4-0.6,5.6c-1,1.6-4.5,3.4-5.4,4.1 M-5392.1-1867.8c-0.1,0.9,0.3,4-0.7,5.7
				c-1,1.6-4.5,3.4-5.4,4.1"/>
		</g>
	</g>
	<g>
		<g transform="translate(6250 2915) rotate(0 -515.4909295640318 105.5690145773633)">
			<path class="st7" d="M-6117.2-2779c-1.6,0.6-6.3,3-9.7,3.7c-3.5,0.7-9.3,0.5-11.1,0.6 M-6117.2-2779c-1.6,0.6-6.2,2.9-9.7,3.6
				c-3.5,0.7-9.3,0.6-11.2,0.7"/>
		</g>
	</g>
	<g>
		<g transform="translate(4720 3425) rotate(0 -19.37621549466712 264.43795776744446)">
			<path class="st0" d="M-4618.1-3278.7c-0.1,1-0.8,4.3-0.8,6.1c0,1.8,0.5,3.9,0.6,4.6 M-4618.1-3278.7c-0.1,1-0.8,4.3-0.8,6.1
				s0.5,3.9,0.6,4.6"/>
		</g>
	</g>
	<g>
		<g transform="translate(2670 3355) rotate(0 910.2263652024194 410.54110662590665)">
			<path class="st0" d="M-2609.6-3210.1c2.5,1.9,8.6,8.8,14.8,11.5c6.1,2.8,18.4,4.2,22,5 M-2609.5-3210.1
				c2.5,1.9,8.6,8.7,14.8,11.5s18.4,4.3,22,5.1"/>
		</g>
	</g>
	<g>
		<g transform="translate(2980 4635) rotate(0 754.6953351510601 -51.9522394922551)">
			<path class="st0" d="M-2913.3-4464.3c2.1,0.1,7.4,0.8,12.5,0.4c5.1-0.4,15-2.5,18-3 M-2913.3-4464.2c2.1,0.1,7.4,0.8,12.5,0.4
				s15-2.5,18-3"/>
		</g>
	</g>
	<g>
		<g transform="translate(5600 4285) rotate(0 2190.309792566797 66.68223274833417)">
			<path class="st0" d="M-5480.3-4121.3c3.4-0.3,5.9-2.8,20.6-2c14.7,0.8,56.6,5.7,67.9,6.9 M-5480.3-4121.3c3.4-0.3,5.9-2.8,20.6-2
				c14.8,0.8,56.6,5.7,67.9,6.9"/>
		</g>
	</g>
	<g>
		<g transform="translate(5600 4615) rotate(0 2189.4644578378866 529.9617429762056)">
			<path class="st7" d="M-5480.3-4444.7c7.6,1.8,30.9,6.9,45.7,10.5c14.8,3.6,35.7,9.1,42.8,10.9 M-5480.4-4444.6
				c7.6,1.8,30.9,6.9,45.7,10.5s35.7,9.1,42.8,10.9"/>
		</g>
	</g>
	<g>
		<g transform="translate(2950 5225) rotate(0 789.3940968122333 360.7189098713916)">
			<path class="st0" d="M-2883.9-5042.3c2.4,2.2,9.2,10.7,14.5,13.1s14.5,1,17.4,1.2 M-2883.9-5042.3c2.4,2.2,9.2,10.8,14.6,13.2
				c5.3,2.4,14.4,1,17.3,1.2"/>
		</g>
	</g>
	<g>
		<g transform="translate(5160 3345) rotate(0 374.29947226402874 1070.1989844561085)">
			<path class="st0" d="M-5049.2-3200.3c2.5,1.8,13.5,3.3,15,10.5c1.4,7.2-5.2,27.3-6.3,32.7 M-5049.3-3200.3
				c2.5,1.8,13.5,3.3,15,10.5c1.5,7.2-5.2,27.3-6.3,32.7"/>
		</g>
	</g>
	<g>
		<g transform="translate(2600 3425) rotate(0 989.5166391100793 1024.970334665868)">
			<path class="st0" d="M-2541-3278.7c2.5,3.2,8.3,12.1,15,19s20.9,18.7,25.1,22.4 M-2540.9-3278.7c2.5,3.2,8.2,12.1,14.9,19.1
				c6.7,6.9,20.9,18.6,25.1,22.4"/>
		</g>
	</g>
	<g>
		<g transform="translate(5090 5055) rotate(0 -26.949551078112563 179.57587689419233)">
			<path class="st0" d="M-4980.6-4875.8c-0.2,0.8-0.8,3.4-1,4.7c-0.2,1.2,0,2.2,0,2.6 M-4980.7-4875.8c-0.2,0.8-0.8,3.5-1,4.7
				c-0.2,1.2,0,2.1,0,2.6"/>
		</g>
	</g>
	<g transform="translate(11744.812499999985 3960) rotate(0 105 100)">
		<path class="st8" d="M-11500-3802.9l2.5,0l0.3,0.1l0.2,0l0.1,0.2l0.1,0.2l0,0.3l0,2.3l-0.1,0.5l-0.1,0.2l-0.2,0.1l-0.3,0.1
			l-0.3,0.1l-2.5,0l-0.4-0.1l-0.2-0.1l-0.1-0.1l-0.2-0.2l-0.1-0.4v-2.1l0-0.4l0.1-0.3l0.2-0.2l0.3-0.1L-11500-3802.9"/>
		<path class="st7" d="M-11500-3802.9c0.5,0,0.9,0,2.2,0 M-11500-3802.9c0.9,0,1.7,0,2.2,0 M-11497.7-3802.9c0.7,0,1,0.4,1,1
			 M-11497.7-3802.9c0.7,0,1,0.4,1,1 M-11496.7-3801.9c0,0.4,0,0.9,0,2 M-11496.7-3801.9c0,0.7,0,1.5,0,2 M-11496.7-3799.9
			c0,0.7-0.4,1-1,1 M-11496.7-3799.9c0,0.6-0.3,1-1,1 M-11497.7-3798.8c-0.6,0-1.2,0-2.2,0 M-11497.7-3798.8c-0.6,0-1.3,0-2.2,0
			 M-11500-3798.8c-0.7,0-1-0.3-1-1 M-11500-3798.8c-0.6,0-1-0.3-1-1 M-11501-3799.9c0-0.8,0-1.6,0-2 M-11501-3799.9c0-0.5,0-1,0-2
			 M-11501-3801.9c0-0.7,0.4-1,1-1 M-11501-3801.9c0-0.7,0.3-1,1-1"/>
	</g>
	<g transform="translate(12105.937499999985 3991.5) rotate(0 1068.5 78.5)">
		<text transform="matrix(1 0 0 1 -11852.4316 -3831.5256)" class="st8 st2 st3">No need to develop if we use Luos</text>
	</g>
	<g transform="translate(11744.812499999985 4350) rotate(0 105 100)">
		<path class="st1" d="M-11500-4185l2.5,0l0.3,0.1l0.2,0l0.1,0.1l0.1,0.2l0.1,0.4l0,2.3l-0.1,0.4l-0.1,0.1l-0.1,0.2l-0.2,0.1l-0.3,0
			l-2.5,0l-0.4-0.1l-0.2,0l-0.1-0.2l-0.1-0.2l-0.1-0.3l0-2.2l0-0.3l0.2-0.2l0.2-0.2l0.2-0.1L-11500-4185"/>
		<path class="st0" d="M-11500-4185c0.8,0,1.5,0,2.2,0 M-11500-4185c0.6,0,1.2,0,2.2,0 M-11497.7-4185c0.7,0,1,0.4,1,1
			 M-11497.7-4185c0.6,0,1,0.3,1,1 M-11496.7-4184c0,0.4,0,0.8,0,2 M-11496.7-4184c0,0.6,0,1.1,0,2 M-11496.7-4182c0,0.6-0.3,1-1,1
			 M-11496.7-4182c0,0.7-0.3,1-1,1 M-11497.7-4181c-0.7,0-1.4,0-2.2,0 M-11497.7-4181c-0.5,0-1,0-2.2,0 M-11500-4181
			c-0.6,0-1-0.3-1-1 M-11500-4181c-0.6,0-1-0.4-1-1 M-11501-4182c0-0.6,0-1.2,0-2 M-11501-4182c0-0.6,0-1.2,0-2 M-11501-4184
			c0-0.7,0.3-1,1-1 M-11501-4184c0-0.7,0.3-1,1-1"/>
	</g>
	<g transform="translate(12035.187499999985 4381.5) rotate(0 1140 78.5)">
		<text transform="matrix(1 0 0 1 -11783.0596 -4213.645)" class="st1 st2 st3">Need to be developed if we use Luos</text>
	</g>
</g>
</svg>
