<svg version="1.1" xmlns="http://www.w3.org/2000/svg" viewBox="0 0 2722.8674143845587 1860.5252162241568" width="2722.8674143845587" height="1860.5252162241568">
  <!-- svg-source:excalidraw -->
  
  <defs>
    <style>
      @font-face {
        font-family: "Virgil";
        src: url("https://excalidraw.com/Virgil.woff2");
      }
      @font-face {
        font-family: "Cascadia";
        src: url("https://excalidraw.com/Cascadia.woff2");
      }
    </style>
  </defs>
  <rect x="0" y="0" width="2722.8674143845587" height="1860.5252162241568" fill="#ffffff"></rect><g stroke-linecap="round" transform="translate(10 25.49996439615859) rotate(0 156.39999389648438 110.4000015258789)"><path d="M55.2 0 M55.2 0 C125.62 0, 196.05 0, 257.6 0 M55.2 0 C96.74 0, 138.29 0, 257.6 0 M257.6 0 C294.4 0, 312.8 18.4, 312.8 55.2 M257.6 0 C294.4 0, 312.8 18.4, 312.8 55.2 M312.8 55.2 C312.8 79.9, 312.8 104.6, 312.8 165.6 M312.8 55.2 C312.8 90.53, 312.8 125.86, 312.8 165.6 M312.8 165.6 C312.8 202.4, 294.4 220.8, 257.6 220.8 M312.8 165.6 C312.8 202.4, 294.4 220.8, 257.6 220.8 M257.6 220.8 C208.05 220.8, 158.49 220.8, 55.2 220.8 M257.6 220.8 C192.71 220.8, 127.82 220.8, 55.2 220.8 M55.2 220.8 C18.4 220.8, 0 202.4, 0 165.6 M55.2 220.8 C18.4 220.8, 0 202.4, 0 165.6 M0 165.6 C0 135.07, 0 104.54, 0 55.2 M0 165.6 C0 124.02, 0 82.44, 0 55.2 M0 55.2 C0 18.4, 18.4 0, 55.2 0 M0 55.2 C0 18.4, 18.4 0, 55.2 0" stroke="#000000" stroke-width="4" fill="none"></path></g><g transform="translate(86.99999128069203 31.12851533435611) rotate(0 84.5 16)"><text x="169" y="26" font-family="Helvetica, Segoe UI Emoji" font-size="28px" fill="#000000" text-anchor="end" style="white-space: pre;" direction="ltr">Thermometer</text></g><g stroke-linecap="round" transform="translate(79.59991455078125 113.49996439615859) rotate(0 89 40.80000305175781)"><path d="M20.4 0 M20.4 0 C66.15 0, 111.89 0, 157.6 0 M20.4 0 C54.84 0, 89.28 0, 157.6 0 M157.6 0 C171.2 0, 178 6.8, 178 20.4 M157.6 0 C171.2 0, 178 6.8, 178 20.4 M178 20.4 C178 32.68, 178 44.96, 178 61.2 M178 20.4 C178 36.21, 178 52.03, 178 61.2 M178 61.2 C178 74.8, 171.2 81.6, 157.6 81.6 M178 61.2 C178 74.8, 171.2 81.6, 157.6 81.6 M157.6 81.6 C123.74 81.6, 89.88 81.6, 20.4 81.6 M157.6 81.6 C109.41 81.6, 61.22 81.6, 20.4 81.6 M20.4 81.6 C6.8 81.6, 0 74.8, 0 61.2 M20.4 81.6 C6.8 81.6, 0 74.8, 0 61.2 M0 61.2 C0 52.17, 0 43.15, 0 20.4 M0 61.2 C0 51.53, 0 41.85, 0 20.4 M0 20.4 C0 6.8, 6.8 0, 20.4 0 M0 20.4 C0 6.8, 6.8 0, 20.4 0" stroke="#000000" stroke-width="4" fill="none"></path></g><g transform="translate(84.59991455078125 122.2999674479164) rotate(0 84 32)"><text x="84" y="26" font-family="Helvetica, Segoe UI Emoji" font-size="28px" fill="#000000" text-anchor="middle" style="white-space: pre;" direction="ltr">Retrieve </text><text x="84" y="58" font-family="Helvetica, Segoe UI Emoji" font-size="28px" fill="#000000" text-anchor="middle" style="white-space: pre;" direction="ltr">temperature</text></g><g stroke-linecap="round" transform="translate(24.457122802734148 341.4095041184196) rotate(0 156.39999389648438 110.4000015258789)"><path d="M55.2 0 M55.2 0 C128.04 0, 200.87 0, 257.6 0 M55.2 0 C111.62 0, 168.05 0, 257.6 0 M257.6 0 C294.4 0, 312.8 18.4, 312.8 55.2 M257.6 0 C294.4 0, 312.8 18.4, 312.8 55.2 M312.8 55.2 C312.8 85.14, 312.8 115.08, 312.8 165.6 M312.8 55.2 C312.8 86.95, 312.8 118.7, 312.8 165.6 M312.8 165.6 C312.8 202.4, 294.4 220.8, 257.6 220.8 M312.8 165.6 C312.8 202.4, 294.4 220.8, 257.6 220.8 M257.6 220.8 C194.12 220.8, 130.63 220.8, 55.2 220.8 M257.6 220.8 C212.28 220.8, 166.97 220.8, 55.2 220.8 M55.2 220.8 C18.4 220.8, 0 202.4, 0 165.6 M55.2 220.8 C18.4 220.8, 0 202.4, 0 165.6 M0 165.6 C0 139.51, 0 113.42, 0 55.2 M0 165.6 C0 136.63, 0 107.67, 0 55.2 M0 55.2 C0 18.4, 18.4 0, 55.2 0 M0 55.2 C0 18.4, 18.4 0, 55.2 0" stroke="#000000" stroke-width="4" fill="none"></path></g><g transform="translate(115.5998840332029 352.75225357782244) rotate(0 66 16)"><text x="132" y="26" font-family="Helvetica, Segoe UI Emoji" font-size="28px" fill="#000000" text-anchor="end" style="white-space: pre;" direction="ltr">Barometer</text></g><g stroke-linecap="round" transform="translate(94.0570373535154 429.4095041184196) rotate(0 89 40.80000305175781)"><path d="M20.4 0 M20.4 0 C74.11 0, 127.82 0, 157.6 0 M20.4 0 C50.3 0, 80.21 0, 157.6 0 M157.6 0 C171.2 0, 178 6.8, 178 20.4 M157.6 0 C171.2 0, 178 6.8, 178 20.4 M178 20.4 C178 33.75, 178 47.11, 178 61.2 M178 20.4 C178 35.58, 178 50.76, 178 61.2 M178 61.2 C178 74.8, 171.2 81.6, 157.6 81.6 M178 61.2 C178 74.8, 171.2 81.6, 157.6 81.6 M157.6 81.6 C129.89 81.6, 102.19 81.6, 20.4 81.6 M157.6 81.6 C109.78 81.6, 61.96 81.6, 20.4 81.6 M20.4 81.6 C6.8 81.6, 0 74.8, 0 61.2 M20.4 81.6 C6.8 81.6, 0 74.8, 0 61.2 M0 61.2 C0 52.48, 0 43.77, 0 20.4 M0 61.2 C0 52.55, 0 43.9, 0 20.4 M0 20.4 C0 6.8, 6.8 0, 20.4 0 M0 20.4 C0 6.8, 6.8 0, 20.4 0" stroke="#000000" stroke-width="4" fill="none"></path></g><g transform="translate(99.0570373535154 438.2095071701774) rotate(0 84 32)"><text x="84" y="26" font-family="Helvetica, Segoe UI Emoji" font-size="28px" fill="#000000" text-anchor="middle" style="white-space: pre;" direction="ltr">Retrieve </text><text x="84" y="58" font-family="Helvetica, Segoe UI Emoji" font-size="28px" fill="#000000" text-anchor="middle" style="white-space: pre;" direction="ltr">pressure</text></g><g stroke-linecap="round" transform="translate(19.028481619698482 648.2666295369462) rotate(0 156.39999389648438 265.7333552042643)"><path d="M78.2 0 M78.2 0 C123.18 0, 168.16 0, 234.6 0 M78.2 0 C121.62 0, 165.05 0, 234.6 0 M234.6 0 C286.73 0, 312.8 26.07, 312.8 78.2 M234.6 0 C286.73 0, 312.8 26.07, 312.8 78.2 M312.8 78.2 C312.8 202.6, 312.8 327.01, 312.8 453.27 M312.8 78.2 C312.8 191.74, 312.8 305.28, 312.8 453.27 M312.8 453.27 C312.8 505.4, 286.73 531.47, 234.6 531.47 M312.8 453.27 C312.8 505.4, 286.73 531.47, 234.6 531.47 M234.6 531.47 C198.72 531.47, 162.84 531.47, 78.2 531.47 M234.6 531.47 C193.92 531.47, 153.24 531.47, 78.2 531.47 M78.2 531.47 C26.07 531.47, 0 505.4, 0 453.27 M78.2 531.47 C26.07 531.47, 0 505.4, 0 453.27 M0 453.27 C0 357.09, 0 260.92, 0 78.2 M0 453.27 C0 313.4, 0 173.53, 0 78.2 M0 78.2 C0 26.07, 26.07 0, 78.2 0 M0 78.2 C0 26.07, 26.07 0, 78.2 0" stroke="#000000" stroke-width="4" fill="none"></path></g><g transform="translate(108.74268886021184 657.3237867809473) rotate(0 69 16)"><text x="138" y="26" font-family="Helvetica, Segoe UI Emoji" font-size="28px" fill="#000000" text-anchor="end" style="white-space: pre;" direction="ltr">Inertial unit</text></g><g stroke-linecap="round" transform="translate(81.9617295038131 726.9332860310868) rotate(0 89 40.80000305175781)"><path d="M20.4 0 M20.4 0 C55.68 0, 90.96 0, 157.6 0 M20.4 0 C67.26 0, 114.12 0, 157.6 0 M157.6 0 C171.2 0, 178 6.8, 178 20.4 M157.6 0 C171.2 0, 178 6.8, 178 20.4 M178 20.4 C178 34.15, 178 47.9, 178 61.2 M178 20.4 C178 36.01, 178 51.62, 178 61.2 M178 61.2 C178 74.8, 171.2 81.6, 157.6 81.6 M178 61.2 C178 74.8, 171.2 81.6, 157.6 81.6 M157.6 81.6 C122.22 81.6, 86.84 81.6, 20.4 81.6 M157.6 81.6 C103.23 81.6, 48.87 81.6, 20.4 81.6 M20.4 81.6 C6.8 81.6, 0 74.8, 0 61.2 M20.4 81.6 C6.8 81.6, 0 74.8, 0 61.2 M0 61.2 C0 49.18, 0 37.17, 0 20.4 M0 61.2 C0 47.11, 0 33.01, 0 20.4 M0 20.4 C0 6.8, 6.8 0, 20.4 0 M0 20.4 C0 6.8, 6.8 0, 20.4 0" stroke="#000000" stroke-width="4" fill="none"></path></g><g transform="translate(86.9617295038131 735.7332890828446) rotate(0 84 32)"><text x="84" y="26" font-family="Helvetica, Segoe UI Emoji" font-size="28px" fill="#000000" text-anchor="middle" style="white-space: pre;" direction="ltr">Retrieve </text><text x="84" y="58" font-family="Helvetica, Segoe UI Emoji" font-size="28px" fill="#000000" text-anchor="middle" style="white-space: pre;" direction="ltr">acceleration</text></g><g stroke-linecap="round" transform="translate(87.76180303664404 873.1999918619791) rotate(0 89.00000000000003 40.80000305175781)"><path d="M20.4 0 M20.4 0 C50.06 0, 79.71 0, 157.6 0 M20.4 0 C61.8 0, 103.2 0, 157.6 0 M157.6 0 C171.2 0, 178 6.8, 178 20.4 M157.6 0 C171.2 0, 178 6.8, 178 20.4 M178 20.4 C178 34.85, 178 49.3, 178 61.2 M178 20.4 C178 35.14, 178 49.88, 178 61.2 M178 61.2 C178 74.8, 171.2 81.6, 157.6 81.6 M178 61.2 C178 74.8, 171.2 81.6, 157.6 81.6 M157.6 81.6 C125.31 81.6, 93.01 81.6, 20.4 81.6 M157.6 81.6 C118.24 81.6, 78.89 81.6, 20.4 81.6 M20.4 81.6 C6.8 81.6, 0 74.8, 0 61.2 M20.4 81.6 C6.8 81.6, 0 74.8, 0 61.2 M0 61.2 C0 49.25, 0 37.3, 0 20.4 M0 61.2 C0 51.16, 0 41.12, 0 20.4 M0 20.4 C0 6.8, 6.8 0, 20.4 0 M0 20.4 C0 6.8, 6.8 0, 20.4 0" stroke="#000000" stroke-width="4" fill="none"></path></g><g transform="translate(92.76180303664404 881.9999949137369) rotate(0 84.00000000000003 32)"><text x="84" y="26" font-family="Helvetica, Segoe UI Emoji" font-size="28px" fill="#000000" text-anchor="middle" style="white-space: pre;" direction="ltr">Retrieve gyro</text><text x="84" y="58" font-family="Helvetica, Segoe UI Emoji" font-size="28px" fill="#000000" text-anchor="middle" style="white-space: pre;" direction="ltr">value</text></g><g stroke-linecap="round" transform="translate(89.42846970331061 1006.8666788736979) rotate(0 89 53)"><path d="M26.5 0 M26.5 0 C71.11 0, 115.72 0, 151.5 0 M26.5 0 C58.88 0, 91.25 0, 151.5 0 M151.5 0 C169.17 0, 178 8.83, 178 26.5 M151.5 0 C169.17 0, 178 8.83, 178 26.5 M178 26.5 C178 47.49, 178 68.48, 178 79.5 M178 26.5 C178 44.64, 178 62.77, 178 79.5 M178 79.5 C178 97.17, 169.17 106, 151.5 106 M178 79.5 C178 97.17, 169.17 106, 151.5 106 M151.5 106 C107.88 106, 64.25 106, 26.5 106 M151.5 106 C121.27 106, 91.03 106, 26.5 106 M26.5 106 C8.83 106, 0 97.17, 0 79.5 M26.5 106 C8.83 106, 0 97.17, 0 79.5 M0 79.5 C0 60.14, 0 40.78, 0 26.5 M0 79.5 C0 67.85, 0 56.19, 0 26.5 M0 26.5 C0 8.83, 8.83 0, 26.5 0 M0 26.5 C0 8.83, 8.83 0, 26.5 0" stroke="#000000" stroke-width="4" fill="none"></path></g><g transform="translate(94.42846970331061 1011.8666788736979) rotate(0 84 48)"><text x="84" y="26" font-family="Helvetica, Segoe UI Emoji" font-size="28px" fill="#000000" text-anchor="middle" style="white-space: pre;" direction="ltr">Retrieve </text><text x="84" y="58" font-family="Helvetica, Segoe UI Emoji" font-size="28px" fill="#000000" text-anchor="middle" style="white-space: pre;" direction="ltr">compass </text><text x="84" y="90" font-family="Helvetica, Segoe UI Emoji" font-size="28px" fill="#000000" text-anchor="middle" style="white-space: pre;" direction="ltr">value</text></g><g stroke-linecap="round" transform="translate(704.2619454520087 10) rotate(0 339.5924698081215 476.9999821980792)"><path d="M169.8 0 M169.8 0 C247.57 0, 325.34 0, 509.39 0 M169.8 0 C297.95 0, 426.1 0, 509.39 0 M509.39 0 C622.59 0, 679.18 56.6, 679.18 169.8 M509.39 0 C622.59 0, 679.18 56.6, 679.18 169.8 M679.18 169.8 C679.18 345.35, 679.18 520.9, 679.18 784.2 M679.18 169.8 C679.18 335.45, 679.18 501.11, 679.18 784.2 M679.18 784.2 C679.18 897.4, 622.59 954, 509.39 954 M679.18 784.2 C679.18 897.4, 622.59 954, 509.39 954 M509.39 954 C379.53 954, 249.67 954, 169.8 954 M509.39 954 C423.19 954, 336.99 954, 169.8 954 M169.8 954 C56.6 954, 0 897.4, 0 784.2 M169.8 954 C56.6 954, 0 897.4, 0 784.2 M0 784.2 C0 660.1, 0 536, 0 169.8 M0 784.2 C0 554.36, 0 324.53, 0 169.8 M0 169.8 C0 56.6, 56.6 0, 169.8 0 M0 169.8 C0 56.6, 56.6 0, 169.8 0" stroke="#000000" stroke-width="4" fill="none"></path></g><g transform="translate(1001.5102453943919 39.00131752469014) rotate(0 44 16)"><text x="88" y="26" font-family="Helvetica, Segoe UI Emoji" font-size="28px" fill="#000000" text-anchor="end" style="white-space: pre;" direction="ltr">Nucleo</text></g><g stroke-linecap="round" transform="translate(884.261792864118 705.9999847412107) rotate(0 104.00001525878906 67.99999237060541)"><path d="M34 0 M34 0 C62.07 0, 90.14 0, 174 0 M34 0 C88.54 0, 143.07 0, 174 0 M174 0 C196.67 0, 208 11.33, 208 34 M174 0 C196.67 0, 208 11.33, 208 34 M208 34 C208 60.34, 208 86.68, 208 102 M208 34 C208 49.07, 208 64.14, 208 102 M208 102 C208 124.67, 196.67 136, 174 136 M208 102 C208 124.67, 196.67 136, 174 136 M174 136 C129.21 136, 84.42 136, 34 136 M174 136 C135.67 136, 97.35 136, 34 136 M34 136 C11.33 136, 0 124.67, 0 102 M34 136 C11.33 136, 0 124.67, 0 102 M0 102 C0 87.19, 0 72.38, 0 34 M0 102 C0 75.31, 0 48.63, 0 34 M0 34 C0 11.33, 11.33 0, 34 0 M0 34 C0 11.33, 11.33 0, 34 0" stroke="#000000" stroke-width="4" fill="none"></path></g><g transform="translate(889.261792864118 741.9999771118161) rotate(0 99 32)"><text x="99" y="26" font-family="Helvetica, Segoe UI Emoji" font-size="28px" fill="#000000" text-anchor="middle" style="white-space: pre;" direction="ltr">Send data by </text><text x="99" y="58" font-family="Helvetica, Segoe UI Emoji" font-size="28px" fill="#000000" text-anchor="middle" style="white-space: pre;" direction="ltr">telemetry</text></g><g stroke-linecap="round" transform="translate(881.7617318289617 189.1999206542966) rotate(0 89 40.80000305175781)"><path d="M20.4 0 M20.4 0 C74.56 0, 128.72 0, 157.6 0 M20.4 0 C62.98 0, 105.57 0, 157.6 0 M157.6 0 C171.2 0, 178 6.8, 178 20.4 M157.6 0 C171.2 0, 178 6.8, 178 20.4 M178 20.4 C178 28.7, 178 37.01, 178 61.2 M178 20.4 C178 31.59, 178 42.79, 178 61.2 M178 61.2 C178 74.8, 171.2 81.6, 157.6 81.6 M178 61.2 C178 74.8, 171.2 81.6, 157.6 81.6 M157.6 81.6 C125.13 81.6, 92.65 81.6, 20.4 81.6 M157.6 81.6 C125.91 81.6, 94.23 81.6, 20.4 81.6 M20.4 81.6 C6.8 81.6, 0 74.8, 0 61.2 M20.4 81.6 C6.8 81.6, 0 74.8, 0 61.2 M0 61.2 C0 45.5, 0 29.81, 0 20.4 M0 61.2 C0 52.05, 0 42.89, 0 20.4 M0 20.4 C0 6.8, 6.8 0, 20.4 0 M0 20.4 C0 6.8, 6.8 0, 20.4 0" stroke="#000000" stroke-width="4" fill="none"></path></g><g transform="translate(886.7617318289617 197.9999237060544) rotate(0 84 32)"><text x="84" y="26" font-family="Helvetica, Segoe UI Emoji" font-size="28px" fill="#000000" text-anchor="middle" style="white-space: pre;" direction="ltr">Determine </text><text x="84" y="58" font-family="Helvetica, Segoe UI Emoji" font-size="28px" fill="#000000" text-anchor="middle" style="white-space: pre;" direction="ltr">altitude</text></g><g stroke-linecap="round" transform="translate(879.2618844168524 329.6997985839842) rotate(0 89 53.00000000000003)"><path d="M26.5 0 M26.5 0 C61.51 0, 96.52 0, 151.5 0 M26.5 0 C61.09 0, 95.68 0, 151.5 0 M151.5 0 C169.17 0, 178 8.83, 178 26.5 M151.5 0 C169.17 0, 178 8.83, 178 26.5 M178 26.5 C178 45.08, 178 63.65, 178 79.5 M178 26.5 C178 41.05, 178 55.6, 178 79.5 M178 79.5 C178 97.17, 169.17 106, 151.5 106 M178 79.5 C178 97.17, 169.17 106, 151.5 106 M151.5 106 C117.45 106, 83.39 106, 26.5 106 M151.5 106 C102.85 106, 54.21 106, 26.5 106 M26.5 106 C8.83 106, 0 97.17, 0 79.5 M26.5 106 C8.83 106, 0 97.17, 0 79.5 M0 79.5 C0 61.04, 0 42.58, 0 26.5 M0 79.5 C0 61.54, 0 43.59, 0 26.5 M0 26.5 C0 8.83, 8.83 0, 26.5 0 M0 26.5 C0 8.83, 8.83 0, 26.5 0" stroke="#000000" stroke-width="4" fill="none"></path></g><g transform="translate(884.2618844168524 334.6997985839842) rotate(0 84 48.00000000000003)"><text x="84" y="26" font-family="Helvetica, Segoe UI Emoji" font-size="28px" fill="#000000" text-anchor="middle" style="white-space: pre;" direction="ltr">Check </text><text x="84" y="58" font-family="Helvetica, Segoe UI Emoji" font-size="28px" fill="#000000" text-anchor="middle" style="white-space: pre;" direction="ltr">parameters </text><text x="84" y="90" font-family="Helvetica, Segoe UI Emoji" font-size="28px" fill="#000000" text-anchor="middle" style="white-space: pre;" direction="ltr">evolution</text></g><g stroke-linecap="round" transform="translate(888.2618233816961 500.19990539550747) rotate(0 89 69)"><path d="M34.5 0 M34.5 0 C72.15 0, 109.8 0, 143.5 0 M34.5 0 C59.76 0, 85.02 0, 143.5 0 M143.5 0 C166.5 0, 178 11.5, 178 34.5 M143.5 0 C166.5 0, 178 11.5, 178 34.5 M178 34.5 C178 54.52, 178 74.53, 178 103.5 M178 34.5 C178 57.72, 178 80.95, 178 103.5 M178 103.5 C178 126.5, 166.5 138, 143.5 138 M178 103.5 C178 126.5, 166.5 138, 143.5 138 M143.5 138 C109.89 138, 76.28 138, 34.5 138 M143.5 138 C102.76 138, 62.02 138, 34.5 138 M34.5 138 C11.5 138, 0 126.5, 0 103.5 M34.5 138 C11.5 138, 0 126.5, 0 103.5 M0 103.5 C0 87.93, 0 72.36, 0 34.5 M0 103.5 C0 84.88, 0 66.27, 0 34.5 M0 34.5 C0 11.5, 11.5 0, 34.5 0 M0 34.5 C0 11.5, 11.5 0, 34.5 0" stroke="#000000" stroke-width="4" fill="none"></path></g><g transform="translate(893.2618233816961 521.1999053955075) rotate(0 84 48)"><text x="84" y="26" font-family="Helvetica, Segoe UI Emoji" font-size="28px" fill="#000000" text-anchor="middle" style="white-space: pre;" direction="ltr">Transfer data</text><text x="84" y="58" font-family="Helvetica, Segoe UI Emoji" font-size="28px" fill="#000000" text-anchor="middle" style="white-space: pre;" direction="ltr">and orders to</text><text x="84" y="90" font-family="Helvetica, Segoe UI Emoji" font-size="28px" fill="#000000" text-anchor="middle" style="white-space: pre;" direction="ltr">the MKRzero</text></g><g stroke-linecap="round" transform="translate(1146.2618538992742 188.69989013671858) rotate(0 89 40.80000305175781)"><path d="M20.4 0 M20.4 0 C50.76 0, 81.11 0, 157.6 0 M20.4 0 C58.96 0, 97.52 0, 157.6 0 M157.6 0 C171.2 0, 178 6.8, 178 20.4 M157.6 0 C171.2 0, 178 6.8, 178 20.4 M178 20.4 C178 32.1, 178 43.79, 178 61.2 M178 20.4 C178 31.51, 178 42.61, 178 61.2 M178 61.2 C178 74.8, 171.2 81.6, 157.6 81.6 M178 61.2 C178 74.8, 171.2 81.6, 157.6 81.6 M157.6 81.6 C120.18 81.6, 82.76 81.6, 20.4 81.6 M157.6 81.6 C103.22 81.6, 48.84 81.6, 20.4 81.6 M20.4 81.6 C6.8 81.6, 0 74.8, 0 61.2 M20.4 81.6 C6.8 81.6, 0 74.8, 0 61.2 M0 61.2 C0 46.06, 0 30.93, 0 20.4 M0 61.2 C0 47.95, 0 34.7, 0 20.4 M0 20.4 C0 6.8, 6.8 0, 20.4 0 M0 20.4 C0 6.8, 6.8 0, 20.4 0" stroke="#000000" stroke-width="4" fill="none"></path></g><g transform="translate(1151.2618538992742 197.4998931884764) rotate(0 84 32)"><text x="84" y="26" font-family="Helvetica, Segoe UI Emoji" font-size="28px" fill="#000000" text-anchor="middle" style="white-space: pre;" direction="ltr">Determine </text><text x="84" y="58" font-family="Helvetica, Segoe UI Emoji" font-size="28px" fill="#000000" text-anchor="middle" style="white-space: pre;" direction="ltr">speed</text></g><g stroke-linecap="round"><g transform="translate(257.40468052455344 152.05707877022866) rotate(0 310 38.80000305175781)"><path d="M0 0 C74.5 0.21, 149 0.42, 284 0.8 M0 0 C89.39 0.25, 178.77 0.5, 284 0.8 M284 0.8 C284.31 30.25, 284.63 59.7, 284.8 76 M284 0.8 C284.2 19.94, 284.41 39.08, 284.8 76 M284.8 76 C382.19 76.46, 479.57 76.93, 620 77.6 M284.8 76 C371.91 76.42, 459.01 76.83, 620 77.6" stroke="#364fc7" stroke-width="4" fill="none"></path></g><g transform="translate(257.40468052455344 152.05707877022866) rotate(0 310 38.80000305175781)"><path d="M591.76 87.73 C599.17 85.07, 606.58 82.41, 620 77.6 M591.76 87.73 C600.65 84.54, 609.54 81.35, 620 77.6" stroke="#364fc7" stroke-width="4" fill="none"></path></g><g transform="translate(257.40468052455344 152.05707877022866) rotate(0 310 38.80000305175781)"><path d="M591.86 67.2 C599.24 69.93, 606.62 72.66, 620 77.6 M591.86 67.2 C600.72 70.48, 609.57 73.75, 620 77.6" stroke="#364fc7" stroke-width="4" fill="none"></path></g></g><g stroke-linecap="round"><g transform="translate(271.8046439034597 470.4571031842912) rotate(0 135.60000610351562 -122.40000915527347)"><path d="M0 0 C101.96 1.2, 203.92 2.41, 271.2 3.2 M0 0 C96.19 1.13, 192.38 2.27, 271.2 3.2 M271.2 3.2 C270.9 -87.99, 270.59 -179.19, 270.36 -248 M271.2 3.2 C270.94 -73.39, 270.69 -149.98, 270.36 -248" stroke="#364fc7" stroke-width="4" fill="none"></path></g></g><g stroke-linecap="round"><g transform="translate(542.9234010168984 472.69634739091543) rotate(0 -141.6198095657158 143.0291766275995)"><path d="M0 0 C-0.33 82.38, -0.67 164.76, -1.15 285.23 M0 0 C-0.38 93.39, -0.76 186.78, -1.15 285.23 M-1.15 285.23 C-59.55 285.4, -117.94 285.57, -283.24 286.06 M-1.15 285.23 C-98.83 285.51, -196.51 285.8, -283.24 286.06" stroke="#364fc7" stroke-width="4" fill="none"></path></g></g><g stroke-linecap="round"><g transform="translate(542.3132093901112 371.05383581552724) rotate(0 168.5604054013939 -0.4643644206606439)"><path d="M0 0 C120.67 -0.33, 241.34 -0.66, 337.12 -0.93 M0 0 C113.74 -0.31, 227.48 -0.63, 337.12 -0.93" stroke="#364fc7" stroke-width="4" fill="none"></path></g><g transform="translate(542.3132093901112 371.05383581552724) rotate(0 168.5604054013939 -0.4643644206606439)"><path d="M308.96 9.41 C319.04 5.71, 329.12 2.01, 337.12 -0.93 M308.96 9.41 C318.46 5.92, 327.96 2.43, 337.12 -0.93" stroke="#364fc7" stroke-width="4" fill="none"></path></g><g transform="translate(542.3132093901112 371.05383581552724) rotate(0 168.5604054013939 -0.4643644206606439)"><path d="M308.9 -11.11 C319 -7.47, 329.1 -3.82, 337.12 -0.93 M308.9 -11.11 C318.42 -7.68, 327.94 -4.24, 337.12 -0.93" stroke="#364fc7" stroke-width="4" fill="none"></path></g></g><g stroke-linecap="round"><g transform="translate(543.2419028040496 568.8686151667251) rotate(0 169.9535163770674 1.3930224072162218)"><path d="M0 0 C72.51 0.59, 145.01 1.19, 339.91 2.79 M0 0 C105.54 0.87, 211.08 1.73, 339.91 2.79" stroke="#364fc7" stroke-width="4" fill="none"></path></g><g transform="translate(543.2419028040496 568.8686151667251) rotate(0 169.9535163770674 1.3930224072162218)"><path d="M311.63 12.82 C317.66 10.68, 323.7 8.54, 339.91 2.79 M311.63 12.82 C320.41 9.7, 329.19 6.59, 339.91 2.79" stroke="#364fc7" stroke-width="4" fill="none"></path></g><g transform="translate(543.2419028040496 568.8686151667251) rotate(0 169.9535163770674 1.3930224072162218)"><path d="M311.8 -7.71 C317.8 -5.47, 323.79 -3.23, 339.91 2.79 M311.8 -7.71 C320.53 -4.45, 329.25 -1.19, 339.91 2.79" stroke="#364fc7" stroke-width="4" fill="none"></path></g></g><g stroke-linecap="round"><g transform="translate(542.3132093901112 759.2536346421182) rotate(0 168.0960586944248 1.8574222552597917)"><path d="M0 0 C100.66 1.11, 201.32 2.22, 336.19 3.71 M0 0 C125.97 1.39, 251.94 2.78, 336.19 3.71" stroke="#364fc7" stroke-width="4" fill="none"></path></g><g transform="translate(542.3132093901112 759.2536346421182) rotate(0 168.0960586944248 1.8574222552597917)"><path d="M307.89 13.66 C316.36 10.68, 324.84 7.71, 336.19 3.71 M307.89 13.66 C318.49 9.94, 329.1 6.21, 336.19 3.71" stroke="#364fc7" stroke-width="4" fill="none"></path></g><g transform="translate(542.3132093901112 759.2536346421182) rotate(0 168.0960586944248 1.8574222552597917)"><path d="M308.12 -6.86 C316.52 -3.69, 324.93 -0.53, 336.19 3.71 M308.12 -6.86 C318.64 -2.9, 329.16 1.07, 336.19 3.71" stroke="#364fc7" stroke-width="4" fill="none"></path></g></g><g stroke-linecap="round"><g transform="translate(265.79940467873223 912.2393271988666) rotate(0 308.5077716093264 -161.73504236009313)"><path d="M0 0 C70.34 -0.6, 140.68 -1.2, 335.12 -2.85 M0 0 C112.64 -0.96, 225.29 -1.92, 335.12 -2.85 M335.12 -2.85 C336.22 -84.97, 337.33 -167.08, 339.43 -323.47 M335.12 -2.85 C336.16 -80.44, 337.2 -158.03, 339.43 -323.47 M339.43 -323.47 C414.24 -322.7, 489.05 -321.93, 617.02 -320.62 M339.43 -323.47 C434.96 -322.49, 530.5 -321.51, 617.02 -320.62" stroke="#c92a2a" stroke-width="4" fill="none"></path></g><g transform="translate(265.79940467873223 912.2393271988666) rotate(0 308.5077716093264 -161.73504236009313)"><path d="M588.72 -310.65 C594.66 -312.74, 600.6 -314.84, 617.02 -320.62 M588.72 -310.65 C598.23 -314, 607.74 -317.35, 617.02 -320.62" stroke="#c92a2a" stroke-width="4" fill="none"></path></g><g transform="translate(265.79940467873223 912.2393271988666) rotate(0 308.5077716093264 -161.73504236009313)"><path d="M588.93 -331.17 C594.83 -328.96, 600.72 -326.74, 617.02 -320.62 M588.93 -331.17 C598.37 -327.62, 607.81 -324.08, 617.02 -320.62" stroke="#c92a2a" stroke-width="4" fill="none"></path></g></g><g stroke-linecap="round"><g transform="translate(600.9654971008904 908.8605690003975) rotate(0 -166.37773151854492 83.01714069459547)"><path d="M0 0 C-1.15 54.1, -2.29 108.21, -3.52 166.03 M0 0 C-1.32 62.29, -2.64 124.59, -3.52 166.03 M-3.52 166.03 C-127.65 166.03, -251.77 166.03, -332.76 166.03 M-3.52 166.03 C-114.43 166.03, -225.34 166.03, -332.76 166.03" stroke="#c92a2a" stroke-width="4" fill="none"></path></g></g><g stroke-linecap="round"><g transform="translate(601.4632666833126 801.4533057090939) rotate(0 139.3432472541587 0.4629361656820947)"><path d="M0 0 C74.18 0.25, 148.36 0.49, 278.69 0.93 M0 0 C110.98 0.37, 221.96 0.74, 278.69 0.93" stroke="#c92a2a" stroke-width="4" fill="none"></path></g><g transform="translate(601.4632666833126 801.4533057090939) rotate(0 139.3432472541587 0.4629361656820947)"><path d="M250.46 11.09 C257.97 8.39, 265.49 5.68, 278.69 0.93 M250.46 11.09 C261.7 7.04, 272.94 3, 278.69 0.93" stroke="#c92a2a" stroke-width="4" fill="none"></path></g><g transform="translate(601.4632666833126 801.4533057090939) rotate(0 139.3432472541587 0.4629361656820947)"><path d="M250.53 -9.43 C258.02 -6.67, 265.52 -3.92, 278.69 0.93 M250.53 -9.43 C261.74 -5.31, 272.96 -1.18, 278.69 0.93" stroke="#c92a2a" stroke-width="4" fill="none"></path></g></g><g stroke-linecap="round"><g transform="translate(1060.7436745814202 229.2826997888797) rotate(0 41.134677044388695 0)"><path d="M0 0 C26.93 0, 53.87 0, 82.27 0 M0 0 C18.41 0, 36.82 0, 82.27 0" stroke="#000000" stroke-width="4" fill="none"></path></g><g transform="translate(1060.7436745814202 229.2826997888797) rotate(0 41.134677044388695 0)"><path d="M54.08 10.26 C63.31 6.9, 72.54 3.54, 82.27 0 M54.08 10.26 C60.39 7.96, 66.7 5.67, 82.27 0" stroke="#000000" stroke-width="4" fill="none"></path></g><g transform="translate(1060.7436745814202 229.2826997888797) rotate(0 41.134677044388695 0)"><path d="M54.08 -10.26 C63.31 -6.9, 72.54 -3.54, 82.27 0 M54.08 -10.26 C60.39 -7.96, 66.7 -5.67, 82.27 0" stroke="#000000" stroke-width="4" fill="none"></path></g></g><g stroke-linecap="round"><g transform="translate(965.2705635137679 268.89389323593997) rotate(0 0 29.96228964579197)"><path d="M0 0 C0 23.82, 0 47.64, 0 59.92 M0 0 C0 20.59, 0 41.19, 0 59.92" stroke="#000000" stroke-width="4" fill="none"></path></g><g transform="translate(965.2705635137679 268.89389323593997) rotate(0 0 29.96228964579197)"><path d="M-10.25 31.77 C-6.17 42.96, -2.1 54.15, 0 59.92 M-10.25 31.77 C-6.73 41.44, -3.2 51.12, 0 59.92" stroke="#000000" stroke-width="4" fill="none"></path></g><g transform="translate(965.2705635137679 268.89389323593997) rotate(0 0 29.96228964579197)"><path d="M10.25 31.77 C6.17 42.96, 2.1 54.15, 0 59.92 M10.25 31.77 C6.73 41.44, 3.2 51.12, 0 59.92" stroke="#000000" stroke-width="4" fill="none"></path></g></g><g stroke-linecap="round"><g transform="translate(1236.4547507851803 268.89389323593997) rotate(0 -88.51019957755204 57.38542059031195)"><path d="M0 0 C0 34.66, 0 69.32, 0 114.77 M0 0 C0 24.01, 0 48.02, 0 114.77 M0 114.77 C-36.81 114.49, -73.62 114.22, -177.02 113.44 M0 114.77 C-44.8 114.43, -89.6 114.1, -177.02 113.44" stroke="#000000" stroke-width="4" fill="none"></path></g><g transform="translate(1236.4547507851803 268.89389323593997) rotate(0 -88.51019957755204 57.38542059031195)"><path d="M-148.75 103.39 C-157.29 106.43, -165.83 109.46, -177.02 113.44 M-148.75 103.39 C-154.67 105.49, -160.58 107.6, -177.02 113.44" stroke="#000000" stroke-width="4" fill="none"></path></g><g transform="translate(1236.4547507851803 268.89389323593997) rotate(0 -88.51019957755204 57.38542059031195)"><path d="M-148.91 123.91 C-157.4 120.75, -165.89 117.59, -177.02 113.44 M-148.91 123.91 C-154.79 121.72, -160.67 119.53, -177.02 113.44" stroke="#000000" stroke-width="4" fill="none"></path></g></g><g stroke-linecap="round"><g transform="translate(969.5320583499424 435.7497657886148) rotate(0 0 31.06493222329675)"><path d="M0 0 C0 20.35, 0 40.71, 0 62.13 M0 0 C0 12.71, 0 25.41, 0 62.13" stroke="#000000" stroke-width="4" fill="none"></path></g><g transform="translate(969.5320583499424 435.7497657886148) rotate(0 0 31.06493222329675)"><path d="M-10.26 33.94 C-6.9 43.17, -3.54 52.41, 0 62.13 M-10.26 33.94 C-8.16 39.7, -6.06 45.47, 0 62.13" stroke="#000000" stroke-width="4" fill="none"></path></g><g transform="translate(969.5320583499424 435.7497657886148) rotate(0 0 31.06493222329675)"><path d="M10.26 33.94 C6.9 43.17, 3.54 52.41, 0 62.13 M10.26 33.94 C8.16 39.7, 6.06 45.47, 0 62.13" stroke="#000000" stroke-width="4" fill="none"></path></g></g><g stroke-linecap="round" transform="translate(1718.3747376959122 218.38919591499348) rotate(0 172.42923939953107 241.09015562639075)"><path d="M86.21 0 M86.21 0 C149.81 0, 213.4 0, 258.64 0 M86.21 0 C132.32 0, 178.43 0, 258.64 0 M258.64 0 C316.12 0, 344.86 28.74, 344.86 86.21 M258.64 0 C316.12 0, 344.86 28.74, 344.86 86.21 M344.86 86.21 C344.86 173.02, 344.86 259.83, 344.86 395.97 M344.86 86.21 C344.86 197.75, 344.86 309.29, 344.86 395.97 M344.86 395.97 C344.86 453.44, 316.12 482.18, 258.64 482.18 M344.86 395.97 C344.86 453.44, 316.12 482.18, 258.64 482.18 M258.64 482.18 C191.11 482.18, 123.58 482.18, 86.21 482.18 M258.64 482.18 C205.48 482.18, 152.31 482.18, 86.21 482.18 M86.21 482.18 C28.74 482.18, 0 453.44, 0 395.97 M86.21 482.18 C28.74 482.18, 0 453.44, 0 395.97 M0 395.97 C0 316.11, 0 236.25, 0 86.21 M0 395.97 C0 329.69, 0 263.4, 0 86.21 M0 86.21 C0 28.74, 28.74 0, 86.21 0 M0 86.21 C0 28.74, 28.74 0, 86.21 0" stroke="#000000" stroke-width="4" fill="none"></path></g><g transform="translate(1823.9452039288367 256.95853102572164) rotate(0 59 16)"><text x="118" y="26" font-family="Helvetica, Segoe UI Emoji" font-size="28px" fill="#000000" text-anchor="end" style="white-space: pre;" direction="ltr">MKRzero</text></g><g stroke-linecap="round" transform="translate(1807.9183065008847 371.33605463352103) rotate(0 89 40.80000305175781)"><path d="M20.4 0 M20.4 0 C50.07 0, 79.74 0, 157.6 0 M20.4 0 C70.77 0, 121.13 0, 157.6 0 M157.6 0 C171.2 0, 178 6.8, 178 20.4 M157.6 0 C171.2 0, 178 6.8, 178 20.4 M178 20.4 C178 33.5, 178 46.6, 178 61.2 M178 20.4 C178 30.54, 178 40.68, 178 61.2 M178 61.2 C178 74.8, 171.2 81.6, 157.6 81.6 M178 61.2 C178 74.8, 171.2 81.6, 157.6 81.6 M157.6 81.6 C121.61 81.6, 85.63 81.6, 20.4 81.6 M157.6 81.6 C119.61 81.6, 81.63 81.6, 20.4 81.6 M20.4 81.6 C6.8 81.6, 0 74.8, 0 61.2 M20.4 81.6 C6.8 81.6, 0 74.8, 0 61.2 M0 61.2 C0 51.37, 0 41.54, 0 20.4 M0 61.2 C0 51.26, 0 41.31, 0 20.4 M0 20.4 C0 6.8, 6.8 0, 20.4 0 M0 20.4 C0 6.8, 6.8 0, 20.4 0" stroke="#000000" stroke-width="4" fill="none"></path></g><g transform="translate(1812.9183065008847 396.13605768527884) rotate(0 84 16)"><text x="84" y="26" font-family="Helvetica, Segoe UI Emoji" font-size="28px" fill="#000000" text-anchor="middle" style="white-space: pre;" direction="ltr">Store data</text></g><g stroke-linecap="round" transform="translate(1807.9183065008851 542.5426893922714) rotate(0 89 53)"><path d="M26.5 0 M26.5 0 C62 0, 97.51 0, 151.5 0 M26.5 0 C63.98 0, 101.47 0, 151.5 0 M151.5 0 C169.17 0, 178 8.83, 178 26.5 M151.5 0 C169.17 0, 178 8.83, 178 26.5 M178 26.5 C178 40.8, 178 55.09, 178 79.5 M178 26.5 C178 40.47, 178 54.44, 178 79.5 M178 79.5 C178 97.17, 169.17 106, 151.5 106 M178 79.5 C178 97.17, 169.17 106, 151.5 106 M151.5 106 C125.7 106, 99.9 106, 26.5 106 M151.5 106 C125.75 106, 99.99 106, 26.5 106 M26.5 106 C8.83 106, 0 97.17, 0 79.5 M26.5 106 C8.83 106, 0 97.17, 0 79.5 M0 79.5 C0 61.9, 0 44.3, 0 26.5 M0 79.5 C0 58.94, 0 38.38, 0 26.5 M0 26.5 C0 8.83, 8.83 0, 26.5 0 M0 26.5 C0 8.83, 8.83 0, 26.5 0" stroke="#000000" stroke-width="4" fill="none"></path></g><g transform="translate(1812.9183065008851 547.5426893922714) rotate(0 84 48)"><text x="84" y="26" font-family="Helvetica, Segoe UI Emoji" font-size="28px" fill="#000000" text-anchor="middle" style="white-space: pre;" direction="ltr">Give orders </text><text x="84" y="58" font-family="Helvetica, Segoe UI Emoji" font-size="28px" fill="#000000" text-anchor="middle" style="white-space: pre;" direction="ltr">to the </text><text x="84" y="90" font-family="Helvetica, Segoe UI Emoji" font-size="28px" fill="#000000" text-anchor="middle" style="white-space: pre;" direction="ltr">solenoids</text></g><g stroke-linecap="round"><g transform="translate(1067.0418672635099 573.1443133102007) rotate(0 368.81717712253874 -80.4416137999545)"><path d="M0 0 C156.4 1.39, 312.8 2.78, 511.49 4.55 M0 0 C144.6 1.29, 289.2 2.57, 511.49 4.55 M511.49 4.55 C511.49 -44.43, 511.49 -93.41, 511.49 -165.44 M511.49 4.55 C511.49 -40.12, 511.49 -84.79, 511.49 -165.44 M511.49 -165.44 C567.64 -164.68, 623.8 -163.93, 737.63 -162.4 M511.49 -165.44 C598.9 -164.26, 686.31 -163.09, 737.63 -162.4" stroke="#e67700" stroke-width="4" fill="none"></path></g><g transform="translate(1067.0418672635099 573.1443133102007) rotate(0 368.81717712253874 -80.4416137999545)"><path d="M709.31 -152.52 C717.97 -155.54, 726.63 -158.56, 737.63 -162.4 M709.31 -152.52 C717.32 -155.31, 725.32 -158.11, 737.63 -162.4" stroke="#e67700" stroke-width="4" fill="none"></path></g><g transform="translate(1067.0418672635099 573.1443133102007) rotate(0 368.81717712253874 -80.4416137999545)"><path d="M709.58 -173.04 C718.16 -169.79, 726.74 -166.53, 737.63 -162.4 M709.58 -173.04 C717.51 -170.03, 725.44 -167.02, 737.63 -162.4" stroke="#e67700" stroke-width="4" fill="none"></path></g></g><g stroke-linecap="round"><g transform="translate(1578.1941764776402 576.7170786466758) rotate(0 114.26052008502575 1.616722841083174)"><path d="M0 0 C45.96 0.65, 91.92 1.3, 228.52 3.23 M0 0 C78.96 1.12, 157.93 2.23, 228.52 3.23" stroke="#e67700" stroke-width="4" fill="none"></path></g><g transform="translate(1578.1941764776402 576.7170786466758) rotate(0 114.26052008502575 1.616722841083174)"><path d="M200.19 13.09 C205.89 11.11, 211.58 9.13, 228.52 3.23 M200.19 13.09 C209.98 9.69, 219.77 6.28, 228.52 3.23" stroke="#e67700" stroke-width="4" fill="none"></path></g><g transform="translate(1578.1941764776402 576.7170786466758) rotate(0 114.26052008502575 1.616722841083174)"><path d="M200.48 -7.42 C206.12 -5.28, 211.76 -3.14, 228.52 3.23 M200.48 -7.42 C210.17 -3.74, 219.86 -0.06, 228.52 3.23" stroke="#e67700" stroke-width="4" fill="none"></path></g></g><g stroke-linecap="round" transform="translate(2464.8673330043503 138.81034254858628) rotate(0 124.00004069010424 132.000020345052)"><path d="M62 0 M62 0 C99.09 0, 136.18 0, 186 0 M62 0 C103.47 0, 144.93 0, 186 0 M186 0 C227.33 0, 248 20.67, 248 62 M186 0 C227.33 0, 248 20.67, 248 62 M248 62 C248 93.7, 248 125.39, 248 202 M248 62 C248 97.24, 248 132.48, 248 202 M248 202 C248 243.33, 227.33 264, 186 264 M248 202 C248 243.33, 227.33 264, 186 264 M186 264 C152.83 264, 119.66 264, 62 264 M186 264 C158.65 264, 131.3 264, 62 264 M62 264 C20.67 264, 0 243.33, 0 202 M62 264 C20.67 264, 0 243.33, 0 202 M0 202 C0 162.87, 0 123.74, 0 62 M0 202 C0 173.6, 0 145.2, 0 62 M0 62 C0 20.67, 20.67 0, 62 0 M0 62 C0 20.67, 20.67 0, 62 0" stroke="#000000" stroke-width="4" fill="none"></path></g><g transform="translate(2525.8671702439337 170.47698887020078) rotate(0 66.5 16)"><text x="133" y="26" font-family="Helvetica, Segoe UI Emoji" font-size="28px" fill="#000000" text-anchor="end" style="white-space: pre;" direction="ltr">Solenoid 1</text></g><g stroke-linecap="round" transform="translate(2502.5339996710163 236.01042087703706) rotate(0 89 69)"><path d="M34.5 0 M34.5 0 C77.36 0, 120.22 0, 143.5 0 M34.5 0 C76.29 0, 118.09 0, 143.5 0 M143.5 0 C166.5 0, 178 11.5, 178 34.5 M143.5 0 C166.5 0, 178 11.5, 178 34.5 M178 34.5 C178 59.11, 178 83.71, 178 103.5 M178 34.5 C178 59.91, 178 85.33, 178 103.5 M178 103.5 C178 126.5, 166.5 138, 143.5 138 M178 103.5 C178 126.5, 166.5 138, 143.5 138 M143.5 138 C121.26 138, 99.01 138, 34.5 138 M143.5 138 C104.47 138, 65.44 138, 34.5 138 M34.5 138 C11.5 138, 0 126.5, 0 103.5 M34.5 138 C11.5 138, 0 126.5, 0 103.5 M0 103.5 C0 86.37, 0 69.24, 0 34.5 M0 103.5 C0 83.34, 0 63.18, 0 34.5 M0 34.5 C0 11.5, 11.5 0, 34.5 0 M0 34.5 C0 11.5, 11.5 0, 34.5 0" stroke="#000000" stroke-width="4" fill="none"></path></g><g transform="translate(2507.5339996710163 241.01042087703706) rotate(0 84 64)"><text x="84" y="26" font-family="Helvetica, Segoe UI Emoji" font-size="28px" fill="#000000" text-anchor="middle" style="white-space: pre;" direction="ltr">Retract </text><text x="84" y="58" font-family="Helvetica, Segoe UI Emoji" font-size="28px" fill="#000000" text-anchor="middle" style="white-space: pre;" direction="ltr">(liberates </text><text x="84" y="90" font-family="Helvetica, Segoe UI Emoji" font-size="28px" fill="#000000" text-anchor="middle" style="white-space: pre;" direction="ltr">drogue </text><text x="84" y="122" font-family="Helvetica, Segoe UI Emoji" font-size="28px" fill="#000000" text-anchor="middle" style="white-space: pre;" direction="ltr">parachute)</text></g><g stroke-linecap="round" transform="translate(2463.6290750058383 500.28641095446415) rotate(0 124.00004069010424 132.000020345052)"><path d="M62 0 M62 0 C90.39 0, 118.78 0, 186 0 M62 0 C101.21 0, 140.43 0, 186 0 M186 0 C227.33 0, 248 20.67, 248 62 M186 0 C227.33 0, 248 20.67, 248 62 M248 62 C248 107.6, 248 153.21, 248 202 M248 62 C248 98.41, 248 134.82, 248 202 M248 202 C248 243.33, 227.33 264, 186 264 M248 202 C248 243.33, 227.33 264, 186 264 M186 264 C159.61 264, 133.22 264, 62 264 M186 264 C150.5 264, 114.99 264, 62 264 M62 264 C20.67 264, 0 243.33, 0 202 M62 264 C20.67 264, 0 243.33, 0 202 M0 202 C0 157.78, 0 113.57, 0 62 M0 202 C0 165.34, 0 128.67, 0 62 M0 62 C0 20.67, 20.67 0, 62 0 M0 62 C0 20.67, 20.67 0, 62 0" stroke="#000000" stroke-width="4" fill="none"></path></g><g transform="translate(2524.6289122454214 531.9530572760789) rotate(0 66.5 16)"><text x="133" y="26" font-family="Helvetica, Segoe UI Emoji" font-size="28px" fill="#000000" text-anchor="end" style="white-space: pre;" direction="ltr">Solenoid 2</text></g><g stroke-linecap="round" transform="translate(2501.2957416725044 597.486489282915) rotate(0 89 69)"><path d="M34.5 0 M34.5 0 C68.84 0, 103.17 0, 143.5 0 M34.5 0 C77.11 0, 119.71 0, 143.5 0 M143.5 0 C166.5 0, 178 11.5, 178 34.5 M143.5 0 C166.5 0, 178 11.5, 178 34.5 M178 34.5 C178 55.91, 178 77.33, 178 103.5 M178 34.5 C178 53.1, 178 71.71, 178 103.5 M178 103.5 C178 126.5, 166.5 138, 143.5 138 M178 103.5 C178 126.5, 166.5 138, 143.5 138 M143.5 138 C108.76 138, 74.01 138, 34.5 138 M143.5 138 C115.75 138, 88.01 138, 34.5 138 M34.5 138 C11.5 138, 0 126.5, 0 103.5 M34.5 138 C11.5 138, 0 126.5, 0 103.5 M0 103.5 C0 88, 0 72.5, 0 34.5 M0 103.5 C0 83.5, 0 63.49, 0 34.5 M0 34.5 C0 11.5, 11.5 0, 34.5 0 M0 34.5 C0 11.5, 11.5 0, 34.5 0" stroke="#000000" stroke-width="4" fill="none"></path></g><g transform="translate(2506.2957416725044 602.486489282915) rotate(0 84 64)"><text x="84" y="26" font-family="Helvetica, Segoe UI Emoji" font-size="28px" fill="#000000" text-anchor="middle" style="white-space: pre;" direction="ltr">Retract </text><text x="84" y="58" font-family="Helvetica, Segoe UI Emoji" font-size="28px" fill="#000000" text-anchor="middle" style="white-space: pre;" direction="ltr">(liberates </text><text x="84" y="90" font-family="Helvetica, Segoe UI Emoji" font-size="28px" fill="#000000" text-anchor="middle" style="white-space: pre;" direction="ltr">main </text><text x="84" y="122" font-family="Helvetica, Segoe UI Emoji" font-size="28px" fill="#000000" text-anchor="middle" style="white-space: pre;" direction="ltr">parachute)</text></g><g stroke-linecap="round"><g transform="translate(1983.4506459926306 413.81022556453684) rotate(0 259.0000915527344 -53.000030517578125)"><path d="M0 0 C101.95 0.66, 203.9 1.32, 310 2 M0 0 C107.15 0.69, 214.31 1.38, 310 2 M310 2 C309.57 -21.9, 309.13 -45.8, 308 -108 M310 2 C309.34 -34.57, 308.67 -71.14, 308 -108 M308 -108 C361.61 -106.98, 415.23 -105.96, 518 -104 M308 -108 C363.43 -106.94, 418.87 -105.89, 518 -104" stroke="#2b8a3e" stroke-width="4" fill="none"></path></g><g transform="translate(1983.4506459926306 413.81022556453684) rotate(0 259.0000915527344 -53.000030517578125)"><path d="M489.62 -94.28 C498.95 -97.48, 508.29 -100.67, 518 -104 M489.62 -94.28 C499.43 -97.64, 509.24 -101, 518 -104" stroke="#2b8a3e" stroke-width="4" fill="none"></path></g><g transform="translate(1983.4506459926306 413.81022556453684) rotate(0 259.0000915527344 -53.000030517578125)"><path d="M490.01 -114.8 C499.22 -111.25, 508.42 -107.69, 518 -104 M490.01 -114.8 C499.69 -111.06, 509.36 -107.33, 518 -104" stroke="#2b8a3e" stroke-width="4" fill="none"></path></g></g><g stroke-linecap="round"><g transform="translate(2293.548747630118 414.95903753999994) rotate(0 102.9341843009638 131.63699367943315)"><path d="M0 0 C0.95 78.52, 1.91 157.05, 3.17 260.5 M0 0 C1.19 97.87, 2.38 195.75, 3.17 260.5 M3.17 260.5 C50.4 261.15, 97.62 261.79, 205.87 263.27 M3.17 260.5 C66.04 261.36, 128.91 262.22, 205.87 263.27" stroke="#2b8a3e" stroke-width="4" fill="none"></path></g><g transform="translate(2293.548747630118 414.95903753999994) rotate(0 102.9341843009638 131.63699367943315)"><path d="M177.54 273.15 C186.08 270.17, 194.62 267.2, 205.87 263.27 M177.54 273.15 C188.18 269.44, 198.83 265.73, 205.87 263.27" stroke="#2b8a3e" stroke-width="4" fill="none"></path></g><g transform="translate(2293.548747630118 414.95903753999994) rotate(0 102.9341843009638 131.63699367943315)"><path d="M177.82 252.63 C186.27 255.84, 194.73 259.05, 205.87 263.27 M177.82 252.63 C188.36 256.63, 198.9 260.63, 205.87 263.27" stroke="#2b8a3e" stroke-width="4" fill="none"></path></g></g><g stroke-linecap="round" transform="translate(1501.6314121746545 1330.5252162241568) rotate(0 229.6668243408203 259.9999999999999)"><path d="M114.83 0 M114.83 0 C193.29 0, 271.74 0, 344.5 0 M114.83 0 C184.36 0, 253.88 0, 344.5 0 M344.5 0 C421.06 0, 459.33 38.28, 459.33 114.83 M344.5 0 C421.06 0, 459.33 38.28, 459.33 114.83 M459.33 114.83 C459.33 191.14, 459.33 267.45, 459.33 405.17 M459.33 114.83 C459.33 215.72, 459.33 316.6, 459.33 405.17 M459.33 405.17 C459.33 481.72, 421.06 520, 344.5 520 M459.33 405.17 C459.33 481.72, 421.06 520, 344.5 520 M344.5 520 C290.01 520, 235.52 520, 114.83 520 M344.5 520 C279.74 520, 214.99 520, 114.83 520 M114.83 520 C38.28 520, 0 481.72, 0 405.17 M114.83 520 C38.28 520, 0 481.72, 0 405.17 M0 405.17 C0 343.34, 0 281.51, 0 114.83 M0 405.17 C0 327.38, 0 249.6, 0 114.83 M0 114.83 C0 38.28, 38.28 0, 114.83 0 M0 114.83 C0 38.28, 38.28 0, 114.83 0" stroke="#000000" stroke-width="4" fill="none"></path></g><g transform="translate(1556.9649387859831 1365.5250941538443) rotate(0 161 16)"><text x="322" y="26" font-family="Helvetica, Segoe UI Emoji" font-size="28px" fill="#000000" text-anchor="end" style="white-space: pre;" direction="ltr">Ground station + students</text></g><g stroke-linecap="round" transform="translate(1595.298119531425 1471.7247350636749) rotate(0 126 102)"><path d="M51 0 M51 0 C101.23 0, 151.46 0, 201 0 M51 0 C86.81 0, 122.63 0, 201 0 M201 0 C235 0, 252 17, 252 51 M201 0 C235 0, 252 17, 252 51 M252 51 C252 81.15, 252 111.29, 252 153 M252 51 C252 83.63, 252 116.26, 252 153 M252 153 C252 187, 235 204, 201 204 M252 153 C252 187, 235 204, 201 204 M201 204 C141.52 204, 82.04 204, 51 204 M201 204 C146.05 204, 91.09 204, 51 204 M51 204 C17 204, 0 187, 0 153 M51 204 C17 204, 0 187, 0 153 M0 153 C0 128.36, 0 103.72, 0 51 M0 153 C0 122.75, 0 92.49, 0 51 M0 51 C0 17, 17 0, 51 0 M0 51 C0 17, 17 0, 51 0" stroke="#000000" stroke-width="4" fill="none"></path></g><g transform="translate(1600.298119531425 1525.7247350636749) rotate(0 121 48)"><text x="121" y="26" font-family="Helvetica, Segoe UI Emoji" font-size="28px" fill="#000000" text-anchor="middle" style="white-space: pre;" direction="ltr">Data exploitation: </text><text x="121" y="58" font-family="Helvetica, Segoe UI Emoji" font-size="28px" fill="#000000" text-anchor="middle" style="white-space: pre;" direction="ltr">trajectory, apogee </text><text x="121" y="90" font-family="Helvetica, Segoe UI Emoji" font-size="28px" fill="#000000" text-anchor="middle" style="white-space: pre;" direction="ltr">determination</text></g><g stroke-linecap="round"><g transform="translate(989.77429983509 847.4058990331688) rotate(0 299.00001525878906 365.00003814697277)"><path d="M0 0 C0 156.05, 0 312.1, 0 730 M0 730 C159.25 730, 318.49 730, 598 730" stroke="#000000" stroke-width="4.5" fill="none" stroke-dasharray="1.5 10"></path></g><g transform="translate(989.77429983509 847.4058990331688) rotate(0 299.00001525878906 365.00003814697277)"><path d="M569.81 740.26 C575.84 738.07, 581.86 735.87, 598 730" stroke="#000000" stroke-width="4.5" fill="none" stroke-dasharray="1.5 8"></path></g><g transform="translate(989.77429983509 847.4058990331688) rotate(0 299.00001525878906 365.00003814697277)"><path d="M569.81 719.74 C575.84 721.93, 581.86 724.13, 598 730" stroke="#000000" stroke-width="4.5" fill="none" stroke-dasharray="1.5 8"></path></g></g></svg>