<?xml version="1.0" encoding="utf-8"?>
<!-- Generator: Adobe Illustrator 26.4.1, SVG Export Plug-In . SVG Version: 6.00 Build 0)  -->
<svg version="1.1" id="a" xmlns="http://www.w3.org/2000/svg" xmlns:xlink="http://www.w3.org/1999/xlink" x="0px" y="0px"
	 viewBox="0 0 714.4 450.2" style="enable-background:new 0 0 714.4 450.2;" xml:space="preserve">
<style type="text/css">
	.st0{fill:#7F7F7F;stroke:#000000;stroke-miterlimit:10;}
	.st1{fill:#A4A4A4;stroke:#000000;stroke-miterlimit:10;}
	.st2{fill:#262626;stroke:#000000;stroke-miterlimit:10;}
	.st3{fill:#BD99FF;}
	.st4{fill:#FF3B00;stroke:#000000;stroke-width:0.5;stroke-miterlimit:10;}
	.st5{fill:#EAF449;stroke:#000000;stroke-width:0.5;stroke-miterlimit:10;}
	.st6{fill:#B1B100;stroke:#000000;stroke-width:0.5;stroke-miterlimit:10;}
	.st7{fill:#C396FF;stroke:#000000;stroke-width:0.5;stroke-miterlimit:10;}
	.st8{fill:#47DDC6;stroke:#000000;stroke-width:0.5;stroke-miterlimit:10;}
	.st9{fill:#00B997;stroke:#000000;stroke-width:0.5;stroke-miterlimit:10;}
	.st10{fill:#5B29B5;stroke:#000000;stroke-width:0.5;stroke-miterlimit:10;}
	.st11{fill:#A52900;stroke:#000000;stroke-width:0.5;stroke-miterlimit:10;}
	.st12{fill:#7E58BF;}
	.st13{fill:#BFACDF;}
	.st14{fill:#FFFFFF;}
</style>
<g>
	<polygon class="st0" points="222.7,112.3 144.1,158.9 89.7,126.9 169.7,80.8 	"/>
	<polygon class="st1" points="144.1,158.9 144.1,404 89.7,374.1 89.7,126.9 	"/>
	<polygon class="st2" points="222.7,112.3 222.7,359.4 144.1,404 144.1,158.9 	"/>
	<g>
		<path class="st3" d="M14.9,434.6c0,1.1-0.1,2.2-0.4,3.2c-0.3,1-0.7,2-1.3,2.7s-1.3,1.4-2.1,1.9s-1.9,0.7-3,0.7s-2.1-0.2-3-0.7
			s-1.5-1.1-2.1-1.9c-0.6-0.8-1-1.7-1.3-2.7s-0.4-2.1-0.4-3.2v-2.4c0-0.8,0.1-1.5,0.2-2.2c0.1-0.7,0.3-1.4,0.6-2s0.6-1.2,0.9-1.8
			s0.8-1,1.3-1.4s1.1-0.7,1.7-0.9s1.3-0.3,2.1-0.3c1.1,0,2.2,0.2,3,0.7s1.6,1.1,2.2,1.9s1,1.7,1.3,2.8s0.4,2.1,0.4,3.2L14.9,434.6
			L14.9,434.6z M11.7,432.1c0-0.7-0.1-1.4-0.2-2.1c-0.1-0.7-0.3-1.3-0.6-1.9c-0.3-0.5-0.7-1-1.1-1.4c-0.5-0.3-1.1-0.5-1.8-0.5
			s-1.3,0.2-1.8,0.5c-0.5,0.4-0.8,0.8-1.1,1.4c-0.3,0.6-0.5,1.2-0.6,1.9s-0.2,1.4-0.2,2.1v2.5c0,0.7,0.1,1.4,0.2,2.1
			c0.1,0.7,0.3,1.3,0.6,1.9s0.7,1,1.1,1.4s1.1,0.5,1.8,0.5s1.3-0.2,1.8-0.5c0.5-0.4,0.9-0.8,1.1-1.4s0.5-1.2,0.6-1.9
			s0.2-1.4,0.2-2.1L11.7,432.1L11.7,432.1z"/>
		<path class="st3" d="M18.7,422.8h7.7v17.5h4.3v2.6h-12v-2.6h4.5v-14.9h-4.5V422.8L18.7,422.8z"/>
		<path class="st3" d="M33.8,435.7c0-1.1,0.1-2.1,0.4-3s0.6-1.7,1.1-2.3c0.5-0.6,1.1-1.1,1.8-1.5c0.7-0.4,1.5-0.5,2.3-0.5
			c0.8,0,1.5,0.1,2.1,0.4s1.1,0.6,1.6,1.1v-7.2h3.2v20.1h-2.8l-0.2-1.4c-0.5,0.5-1,1-1.6,1.3c-0.6,0.3-1.3,0.4-2.2,0.4
			s-1.6-0.2-2.3-0.5c-0.7-0.4-1.3-0.9-1.8-1.5s-0.9-1.4-1.1-2.3c-0.3-0.9-0.4-1.8-0.4-2.9L33.8,435.7L33.8,435.7z M37,436
			c0,0.6,0.1,1.2,0.2,1.8s0.3,1,0.6,1.5c0.3,0.4,0.6,0.8,1,1s0.9,0.4,1.5,0.4c0.7,0,1.3-0.2,1.8-0.5c0.5-0.3,0.8-0.7,1.1-1.2v-6.2
			c-0.3-0.5-0.6-0.9-1.1-1.2c-0.5-0.3-1-0.5-1.7-0.5c-0.6,0-1.1,0.1-1.5,0.4c-0.4,0.2-0.8,0.6-1,1c-0.3,0.4-0.5,0.9-0.6,1.5
			c-0.1,0.6-0.2,1.2-0.2,1.8L37,436L37,436z"/>
		<path class="st3" d="M75.5,442.9c-0.1-0.2-0.2-0.4-0.2-0.6s-0.1-0.5-0.2-0.8c-0.2,0.2-0.5,0.4-0.7,0.6s-0.6,0.4-0.9,0.5
			s-0.7,0.3-1.1,0.4c-0.4,0.1-0.8,0.1-1.2,0.1c-0.8,0-1.4-0.1-2-0.3c-0.6-0.2-1.1-0.5-1.6-0.9s-0.8-0.8-1-1.3s-0.3-1.1-0.3-1.7
			c0-1.5,0.6-2.7,1.7-3.5s2.8-1.2,4.9-1.2H75v-0.9c0-0.8-0.2-1.4-0.8-1.8s-1.2-0.7-2.2-0.7c-0.4,0-0.8,0-1.1,0.1s-0.6,0.2-0.8,0.4
			s-0.4,0.4-0.5,0.6s-0.2,0.5-0.2,0.8h-3.1c0-0.5,0.1-1.1,0.4-1.6c0.3-0.5,0.6-1,1.1-1.4s1.1-0.7,1.8-1c0.7-0.2,1.5-0.4,2.5-0.4
			c0.8,0,1.6,0.1,2.3,0.3s1.3,0.5,1.9,0.9c0.5,0.4,0.9,0.9,1.2,1.5s0.4,1.3,0.4,2.1v6.3c0,0.6,0.1,1.2,0.1,1.7s0.2,1,0.4,1.3v0.2
			L75.5,442.9L75.5,442.9z M71.7,440.6c0.4,0,0.8,0,1.1-0.1s0.7-0.2,1-0.4c0.3-0.2,0.5-0.4,0.7-0.6c0.2-0.2,0.4-0.4,0.5-0.6v-2.7h-2
			c-1.3,0-2.2,0.2-2.8,0.6c-0.6,0.4-0.9,1-0.9,1.8c0,0.3,0.1,0.6,0.1,0.8s0.2,0.5,0.4,0.6c0.2,0.2,0.4,0.3,0.8,0.4
			S71.3,440.6,71.7,440.6L71.7,440.6z"/>
		<path class="st3" d="M85.4,428.7l0.2,2c0.5-0.7,1.1-1.3,1.9-1.6c0.7-0.4,1.5-0.6,2.4-0.6c0.7,0,1.4,0.1,2,0.3
			c0.6,0.2,1.1,0.5,1.6,1c0.4,0.5,0.8,1,1,1.7c0.2,0.7,0.4,1.6,0.4,2.6v8.9h-3.1v-8.8c0-0.6-0.1-1.1-0.2-1.5
			c-0.1-0.4-0.3-0.7-0.6-0.9c-0.2-0.2-0.6-0.4-0.9-0.5s-0.8-0.1-1.2-0.1c-0.7,0-1.3,0.1-1.8,0.5s-0.9,0.7-1.2,1.2v10.2h-3.2v-14.2
			L85.4,428.7L85.4,428.7z"/>
		<path class="st3" d="M98.2,435.7c0-1.1,0.1-2.1,0.4-3s0.6-1.7,1.1-2.3c0.5-0.6,1.1-1.1,1.8-1.5c0.7-0.4,1.5-0.5,2.3-0.5
			c0.8,0,1.5,0.1,2.1,0.4s1.1,0.6,1.6,1.1v-7.2h3.2v20.1h-2.8l-0.2-1.4c-0.4,0.5-1,1-1.6,1.3c-0.6,0.3-1.3,0.4-2.2,0.4
			s-1.6-0.2-2.3-0.5c-0.7-0.4-1.3-0.9-1.8-1.5s-0.9-1.4-1.1-2.3c-0.3-0.9-0.4-1.8-0.4-2.9L98.2,435.7L98.2,435.7z M101.4,436
			c0,0.6,0.1,1.2,0.2,1.8s0.3,1,0.6,1.5c0.3,0.4,0.6,0.8,1,1s0.9,0.4,1.5,0.4c0.7,0,1.3-0.2,1.8-0.5c0.4-0.3,0.8-0.7,1.1-1.2v-6.2
			c-0.3-0.5-0.6-0.9-1.1-1.2c-0.5-0.3-1-0.5-1.7-0.5c-0.6,0-1.1,0.1-1.5,0.4c-0.4,0.2-0.8,0.6-1,1c-0.3,0.4-0.5,0.9-0.6,1.5
			c-0.1,0.6-0.2,1.2-0.2,1.8L101.4,436L101.4,436z"/>
		<path class="st3" d="M137.1,440.7c0.4,0,0.8-0.1,1.1-0.2s0.7-0.3,1-0.5c0.3-0.2,0.5-0.5,0.7-0.8s0.2-0.6,0.2-1h3
			c0,0.7-0.1,1.3-0.5,1.9c-0.3,0.6-0.8,1.1-1.3,1.6s-1.2,0.8-1.9,1.1c-0.7,0.3-1.5,0.4-2.2,0.4c-1.1,0-2.1-0.2-2.9-0.6
			c-0.8-0.4-1.5-0.9-2.1-1.5s-1-1.4-1.2-2.3s-0.4-1.8-0.4-2.8v-0.5c0-1,0.1-1.9,0.4-2.8c0.3-0.9,0.7-1.6,1.2-2.3s1.2-1.2,2.1-1.5
			s1.8-0.6,2.9-0.6c0.9,0,1.6,0.1,2.4,0.4s1.4,0.6,1.9,1.1s0.9,1,1.2,1.7s0.4,1.4,0.4,2.1h-3c0-0.4-0.1-0.8-0.2-1.1
			s-0.4-0.6-0.6-0.9c-0.3-0.2-0.6-0.5-1-0.6c-0.4-0.1-0.8-0.2-1.2-0.2c-0.7,0-1.2,0.1-1.6,0.4s-0.8,0.6-1.1,1s-0.4,0.9-0.6,1.5
			s-0.2,1.1-0.2,1.7v0.5c0,0.6,0.1,1.1,0.2,1.7s0.3,1,0.6,1.5s0.6,0.8,1.1,1S136.4,440.7,137.1,440.7L137.1,440.7z"/>
		<path class="st3" d="M147.6,422.8h7.7v17.5h4.3v2.6h-12v-2.6h4.5v-14.9h-4.5V422.8L147.6,422.8z"/>
		<path class="st3" d="M172.1,442.9c-0.1-0.2-0.2-0.4-0.2-0.6s-0.1-0.5-0.1-0.8c-0.2,0.2-0.5,0.4-0.7,0.6s-0.6,0.4-0.9,0.5
			s-0.7,0.3-1.1,0.4c-0.4,0.1-0.8,0.1-1.2,0.1c-0.8,0-1.4-0.1-2-0.3c-0.6-0.2-1.1-0.5-1.6-0.9s-0.8-0.8-1-1.3s-0.4-1.1-0.4-1.7
			c0-1.5,0.6-2.7,1.7-3.5s2.8-1.2,4.9-1.2h2.3v-0.9c0-0.8-0.2-1.4-0.8-1.8s-1.2-0.7-2.1-0.7c-0.4,0-0.8,0-1.1,0.1s-0.6,0.2-0.8,0.4
			c-0.2,0.2-0.4,0.4-0.5,0.6s-0.2,0.5-0.2,0.8h-3.1c0-0.5,0.1-1.1,0.4-1.6c0.3-0.5,0.6-1,1.1-1.4s1.1-0.7,1.8-1
			c0.7-0.2,1.5-0.4,2.5-0.4c0.8,0,1.6,0.1,2.3,0.3s1.3,0.5,1.9,0.9s0.9,0.9,1.2,1.5s0.4,1.3,0.4,2.1v6.3c0,0.6,0.1,1.2,0.1,1.7
			s0.2,1,0.4,1.3v0.2L172.1,442.9L172.1,442.9z M168.4,440.6c0.4,0,0.8,0,1.1-0.1s0.7-0.2,1-0.4c0.3-0.2,0.5-0.4,0.7-0.6
			c0.2-0.2,0.4-0.4,0.5-0.6v-2.7h-2c-1.3,0-2.2,0.2-2.8,0.6c-0.6,0.4-0.9,1-0.9,1.8c0,0.3,0.1,0.6,0.1,0.8s0.2,0.5,0.4,0.6
			c0.2,0.2,0.4,0.3,0.8,0.4S167.9,440.6,168.4,440.6L168.4,440.6z"/>
		<path class="st3" d="M188.4,439.1c0-0.2-0.1-0.5-0.1-0.6c-0.1-0.2-0.3-0.4-0.5-0.5s-0.6-0.3-1-0.5s-1-0.3-1.7-0.4
			c-0.8-0.2-1.6-0.4-2.3-0.6c-0.7-0.2-1.3-0.5-1.7-0.9s-0.9-0.7-1.1-1.2s-0.4-1-0.4-1.6s0.1-1.1,0.4-1.6c0.3-0.5,0.7-1,1.2-1.4
			c0.5-0.4,1.1-0.7,1.8-0.9s1.5-0.4,2.4-0.4c0.9,0,1.8,0.1,2.5,0.4c0.8,0.2,1.4,0.6,1.9,1s0.9,0.9,1.2,1.4c0.3,0.5,0.4,1.1,0.4,1.8
			h-3.1c0-0.3-0.1-0.5-0.2-0.8s-0.3-0.5-0.6-0.7s-0.6-0.4-0.9-0.5c-0.4-0.1-0.8-0.2-1.2-0.2s-0.9,0-1.2,0.1
			c-0.4,0.1-0.6,0.2-0.9,0.4s-0.4,0.4-0.5,0.6s-0.2,0.5-0.2,0.7s0,0.5,0.1,0.6s0.2,0.4,0.5,0.5c0.2,0.2,0.5,0.3,0.9,0.4
			c0.4,0.1,0.9,0.2,1.6,0.4c0.9,0.2,1.7,0.4,2.4,0.6c0.7,0.2,1.3,0.5,1.8,0.9s0.9,0.8,1.2,1.2c0.3,0.5,0.4,1,0.4,1.6
			s-0.1,1.2-0.4,1.7c-0.3,0.5-0.7,1-1.2,1.4c-0.5,0.4-1.2,0.7-1.9,0.9s-1.6,0.3-2.5,0.3c-1,0-1.9-0.1-2.7-0.4
			c-0.8-0.3-1.4-0.6-2-1.1c-0.5-0.5-0.9-1-1.2-1.5c-0.3-0.6-0.4-1.1-0.4-1.7h3c0,0.4,0.1,0.8,0.3,1.1c0.2,0.3,0.5,0.5,0.8,0.7
			s0.7,0.3,1.1,0.4c0.4,0.1,0.8,0.1,1.2,0.1c1,0,1.7-0.2,2.2-0.5C188.2,440,188.5,439.5,188.4,439.1L188.4,439.1z"/>
		<path class="st3" d="M204.6,439.1c0-0.2-0.1-0.5-0.1-0.6c-0.1-0.2-0.3-0.4-0.5-0.5s-0.6-0.3-1-0.5s-1-0.3-1.7-0.4
			c-0.8-0.2-1.6-0.4-2.3-0.6c-0.7-0.2-1.3-0.5-1.7-0.9s-0.9-0.7-1.1-1.2s-0.4-1-0.4-1.6s0.1-1.1,0.4-1.6c0.3-0.5,0.7-1,1.2-1.4
			c0.5-0.4,1.1-0.7,1.8-0.9s1.5-0.4,2.4-0.4c0.9,0,1.8,0.1,2.5,0.4c0.8,0.2,1.4,0.6,1.9,1s0.9,0.9,1.2,1.4c0.3,0.5,0.4,1.1,0.4,1.8
			h-3.1c0-0.3-0.1-0.5-0.2-0.8s-0.3-0.5-0.6-0.7s-0.6-0.4-0.9-0.5c-0.4-0.1-0.8-0.2-1.2-0.2s-0.9,0-1.2,0.1
			c-0.4,0.1-0.6,0.2-0.9,0.4s-0.4,0.4-0.5,0.6s-0.2,0.5-0.2,0.7s0,0.5,0.1,0.6s0.2,0.4,0.5,0.5c0.2,0.2,0.5,0.3,0.9,0.4
			c0.4,0.1,0.9,0.2,1.6,0.4c0.9,0.2,1.7,0.4,2.4,0.6c0.7,0.2,1.3,0.5,1.8,0.9s0.9,0.8,1.2,1.2c0.3,0.5,0.4,1,0.4,1.6
			s-0.1,1.2-0.4,1.7c-0.3,0.5-0.7,1-1.2,1.4c-0.5,0.4-1.2,0.7-1.9,0.9s-1.6,0.3-2.5,0.3c-1,0-1.9-0.1-2.7-0.4
			c-0.8-0.3-1.4-0.6-2-1.1c-0.5-0.5-0.9-1-1.2-1.5c-0.3-0.6-0.4-1.1-0.4-1.7h3c0,0.4,0.1,0.8,0.3,1.1c0.2,0.3,0.5,0.5,0.8,0.7
			s0.7,0.3,1.1,0.4c0.4,0.1,0.8,0.1,1.2,0.1c1,0,1.7-0.2,2.2-0.5C204.3,440,204.6,439.5,204.6,439.1L204.6,439.1z"/>
		<path class="st3" d="M212.1,428.7h7.6v11.6h4.2v2.6h-11.8v-2.6h4.4v-9h-4.4V428.7L212.1,428.7z M216.2,425c0-0.5,0.2-0.9,0.5-1.2
			c0.3-0.3,0.8-0.5,1.3-0.5s1,0.2,1.3,0.5c0.3,0.3,0.5,0.7,0.5,1.2s-0.2,0.9-0.5,1.2c-0.3,0.3-0.8,0.5-1.3,0.5s-1-0.2-1.3-0.5
			C216.4,425.9,216.2,425.5,216.2,425z"/>
		<path class="st3" d="M233.7,440.7c0.4,0,0.8-0.1,1.1-0.2s0.7-0.3,1-0.5c0.3-0.2,0.5-0.5,0.7-0.8s0.2-0.6,0.2-1h3
			c0,0.7-0.1,1.3-0.5,1.9c-0.3,0.6-0.8,1.1-1.3,1.6s-1.2,0.8-1.9,1.1c-0.7,0.3-1.5,0.4-2.2,0.4c-1.1,0-2.1-0.2-2.9-0.6
			c-0.8-0.4-1.5-0.9-2.1-1.5s-1-1.4-1.2-2.3s-0.4-1.8-0.4-2.8v-0.5c0-1,0.1-1.9,0.4-2.8c0.3-0.9,0.7-1.6,1.2-2.3s1.2-1.2,2.1-1.5
			s1.8-0.6,2.9-0.6c0.9,0,1.6,0.1,2.4,0.4s1.4,0.6,1.9,1.1s0.9,1,1.2,1.7s0.4,1.4,0.4,2.1h-3c0-0.4-0.1-0.8-0.2-1.1
			s-0.4-0.6-0.6-0.9c-0.3-0.2-0.6-0.5-1-0.6c-0.4-0.1-0.8-0.2-1.2-0.2c-0.7,0-1.2,0.1-1.6,0.4s-0.8,0.6-1.1,1s-0.4,0.9-0.6,1.5
			s-0.2,1.1-0.2,1.7v0.5c0,0.6,0.1,1.1,0.2,1.7s0.3,1,0.6,1.5s0.6,0.8,1.1,1S233.1,440.7,233.7,440.7L233.7,440.7z"/>
		<path class="st3" d="M262.4,438.2l0.1,0.9l0.1-0.9l2-9.5h2.1l2.1,9.6l0.1,0.9l0.1-1l1.4-9.5h2.8l-2.8,14.2h-2.6l-2.1-9.5l0-0.2
			l0,0.2l-2.1,9.5h-2.6l-2.8-14.2h2.8L262.4,438.2L262.4,438.2z"/>
		<path class="st3" d="M284.9,442.9c-0.1-0.2-0.2-0.4-0.2-0.6s-0.1-0.5-0.1-0.8c-0.2,0.2-0.5,0.4-0.7,0.6s-0.6,0.4-0.9,0.5
			c-0.3,0.1-0.7,0.3-1.1,0.4c-0.4,0.1-0.8,0.1-1.2,0.1c-0.8,0-1.4-0.1-2-0.3c-0.6-0.2-1.1-0.5-1.6-0.9s-0.8-0.8-1-1.3
			s-0.4-1.1-0.4-1.7c0-1.5,0.6-2.7,1.7-3.5s2.8-1.2,4.9-1.2h2.3v-0.9c0-0.8-0.2-1.4-0.8-1.8s-1.2-0.7-2.1-0.7c-0.4,0-0.8,0-1.1,0.1
			s-0.6,0.2-0.8,0.4c-0.2,0.2-0.4,0.4-0.5,0.6s-0.2,0.5-0.2,0.8h-3.1c0-0.5,0.1-1.1,0.4-1.6c0.3-0.5,0.6-1,1.1-1.4s1.1-0.7,1.8-1
			c0.7-0.2,1.5-0.4,2.5-0.4c0.8,0,1.6,0.1,2.3,0.3s1.3,0.5,1.9,0.9s0.9,0.9,1.2,1.5s0.5,1.3,0.5,2.1v6.3c0,0.6,0,1.2,0.1,1.7
			c0.1,0.5,0.2,1,0.4,1.3v0.2L284.9,442.9L284.9,442.9z M281.1,440.6c0.4,0,0.8,0,1.1-0.1s0.7-0.2,1-0.4c0.3-0.2,0.5-0.4,0.7-0.6
			c0.2-0.2,0.4-0.4,0.5-0.6v-2.7h-2c-1.3,0-2.2,0.2-2.8,0.6c-0.6,0.4-0.9,1-0.9,1.8c0,0.3,0,0.6,0.1,0.8s0.2,0.5,0.4,0.6
			c0.2,0.2,0.5,0.3,0.8,0.4S280.7,440.6,281.1,440.6L281.1,440.6z"/>
		<path class="st3" d="M297.6,437.2l0.5,1.7l4-10.2h3.5l-7.2,16.3c-0.2,0.4-0.4,0.7-0.6,1.2s-0.6,0.8-0.9,1.2
			c-0.4,0.4-0.8,0.7-1.3,0.9s-1.1,0.4-1.8,0.4c-0.3,0-0.6,0-0.9-0.1c-0.3,0-0.5-0.1-0.8-0.2l0.5-2.4c0.1,0,0.1,0,0.2,0
			c0.1,0,0.2,0,0.3,0c0.1,0,0.2,0,0.3,0c0.1,0,0.2,0,0.2,0c0.3,0,0.6-0.1,0.8-0.3c0.2-0.2,0.5-0.4,0.6-0.6c0.2-0.2,0.3-0.5,0.5-0.7
			c0.1-0.2,0.2-0.4,0.3-0.5l0.9-1.8l-6-13.5h3.5L297.6,437.2L297.6,437.2z"/>
	</g>
</g>
<g>
	<polygon class="st4" points="519.5,346.9 486,327.1 486,288.6 519.2,308.4 	"/>
	<g>
		<polygon class="st5" points="552.1,404.6 518.6,384.8 518.6,346.3 551.9,366.1 		"/>
		<polygon class="st6" points="585.7,385.5 552.1,404.6 551.9,366.1 585.7,346.3 		"/>
	</g>
	<polygon class="st7" points="518.6,385.3 485.1,365.5 485.1,327 518.4,346.8 	"/>
	<g>
		<polygon class="st8" points="552.1,365.8 518.6,346 518.6,307.5 551.9,327.3 		"/>
		<polygon class="st9" points="585.7,346.7 552.1,365.8 551.9,327.3 585.7,307.5 		"/>
	</g>
	<g>
		<polygon class="st7" points="502.9,317.3 469.4,297.5 469.4,259 502.7,278.8 		"/>
		<polygon class="st10" points="518.6,307.5 502.9,317.3 502.7,278.8 518.6,268.7 		"/>
		<polygon class="st10" points="518.6,268.7 502.7,278.8 469.4,259 485.1,248.5 		"/>
	</g>
	<g>
		<g>
			<polygon class="st11" points="585.7,307.9 552.1,327 551.9,288.5 585.7,268.7 			"/>
			<polygon class="st4" points="552.1,327 518.6,307.2 518.6,268.7 551.9,288.5 			"/>
		</g>
		<polygon class="st11" points="560.7,283.4 551.9,288.5 518.6,268.4 526.9,264 		"/>
	</g>
	<polygon class="st5" points="519.5,269.6 486,249.8 486,211.3 519.2,231.1 	"/>
	<g>
		<polygon class="st6" points="569.6,160.7 550.8,172.1 531.8,160.7 550.4,149.7 		"/>
		<polygon class="st6" points="570.7,184.7 550.3,196.3 550.1,172.9 570.7,160.9 		"/>
	</g>
	<polygon class="st9" points="594.5,225.6 585.7,230.5 553.5,212.1 563.9,206.5 	"/>
	<g>
		<polygon class="st8" points="560.7,284.3 527.2,264 527.2,224.5 560.5,244.8 		"/>
		<polygon class="st9" points="594.5,264.8 560.9,283.8 560.7,245.3 594.5,225.6 		"/>
	</g>
	<polygon class="st6" points="519.2,231.1 486,211.3 499.7,202.4 523.6,215.9 	"/>
	<polygon class="st6" points="528.5,265.2 519.5,269.6 519.2,231.1 527.6,227.1 	"/>
	<g>
		<polygon class="st4" points="552.1,249.6 518.6,229.8 518.6,191.3 551.9,211.1 		"/>
		<polygon class="st11" points="585.7,230.5 552.1,249.6 551.9,211.1 585.7,191.3 		"/>
		<polygon class="st11" points="585.7,191.7 552.1,210.8 518.7,192.3 554.2,172.9 		"/>
	</g>
	<g>
		<polygon class="st5" points="519.5,192.3 486,172.5 486,134 519.2,153.8 		"/>
		<polygon class="st6" points="552.3,173.2 518.7,192.3 518.5,153.8 552.3,134 		"/>
		<polygon class="st6" points="552.3,134 519.2,154 486,133.9 518.5,114.6 		"/>
	</g>
	<polygon class="st11" points="454.3,222.6 430.9,235.9 430.8,209.1 454.3,195.4 	"/>
	<g>
		<polygon class="st4" points="431.5,235.9 408.2,222.1 408.2,195.4 431.3,209.1 		"/>
		<polygon class="st11" points="454.3,195.4 431.3,209.2 408.2,195.3 430.8,181.9 		"/>
	</g>
	<polygon class="st8" points="518.5,213 499.7,202.4 500.3,180.9 518.6,191.3 	"/>
	<g>
		<polygon class="st8" points="461.9,240 445.4,230.2 445.4,211.3 461.8,221 		"/>
		<polygon class="st9" points="478,230.6 461.5,240 461.4,221 478,211.3 		"/>
		<polygon class="st9" points="478,211.3 461.8,221.1 445.4,211.2 461.4,201.7 		"/>
	</g>
	<g>
		<polygon class="st5" points="453.2,256 443.2,250.1 443.2,238.6 453.1,244.5 		"/>
		<polygon class="st6" points="463,250.3 453,256 452.9,244.5 463,238.6 		"/>
		<polygon class="st6" points="463,238.6 453.1,244.6 443.2,238.6 452.9,232.8 		"/>
	</g>
	<g>
		<polygon class="st7" points="495.5,216.6 485.5,210.7 485.5,199.2 495.4,205.1 		"/>
		<polygon class="st10" points="505.3,210.9 495.3,216.6 495.2,205.1 505.3,199.2 		"/>
		<polygon class="st10" points="505.3,199.2 495.4,205.2 485.5,199.2 495.2,193.4 		"/>
	</g>
	<polygon class="st7" points="615.5,243.7 600.7,234.9 600.7,217.9 615.4,226.6 	"/>
	<polygon class="st10" points="630,235.2 615.2,243.7 615.1,226.6 630,217.9 	"/>
	<polygon class="st10" points="630,217.9 615.4,226.7 600.7,217.8 615.1,209.3 	"/>
	<polygon class="st5" points="612.2,218.6 602.2,212.6 602.2,201.1 612.1,207 	"/>
	<polygon class="st6" points="622,212.9 612,218.6 611.9,207 622,201.1 	"/>
	<polygon class="st6" points="622,201.1 612.1,207.1 602.2,201.1 611.9,195.3 	"/>
	<g>
		<path class="st12" d="M714.4,73.4c0-22.3-14.9-46.1-33.3-53.2c-10.5-4-19.8-1.7-25.9,5.2c-5.6-8.3-13.2-15-21.6-18.2
			c-11.2-4.3-21-1.3-26.6,6.6c-4.8-5.3-10.5-9.5-16.7-11.9c-16.5-6.3-29.8,2.8-29.8,20.4c0,4.3,0.8,8.6,2.2,12.9
			c-4.8,3.5-7.6,8.8-7.6,15.7c0,19.2,22,43.2,49.1,53.5c7.8,3,15.1,4.5,21.6,4.7c9,12.6,23.2,23.9,39.2,30
			c27.3,10.4,49.4,1.7,49.4-19.5c0-7.5-2.8-15.6-7.6-23.4C711.5,91.1,714.4,83.2,714.4,73.4L714.4,73.4z"/>
		<path class="st13" d="M709.7,75.2c0-22.3-14.9-46.1-33.3-53.2c-10.5-4-19.8-1.7-25.9,5.2c-5.6-8.3-13.2-15-21.6-18.2
			c-11.2-4.3-21-1.3-26.6,6.6c-4.8-5.3-10.5-9.5-16.7-11.9c-16.5-6.3-29.8,2.8-29.8,20.4c0,4.3,0.8,8.6,2.2,12.9
			c-4.8,3.5-7.6,8.8-7.6,15.7c0,19.2,22,43.2,49.1,53.5c7.8,3,15.1,4.5,21.6,4.7c9,12.6,23.2,23.9,39.2,30
			c27.3,10.4,49.4,1.7,49.4-19.5c0-7.5-2.8-15.6-7.6-23.4C706.8,92.9,709.7,85,709.7,75.2L709.7,75.2z"/>
		<path class="st14" d="M705,77c0-22.3-14.9-46.1-33.3-53.2c-10.5-4-19.8-1.7-25.9,5.2c-5.6-8.3-13.2-15-21.6-18.2
			c-11.2-4.3-21-1.3-26.6,6.6c-4.8-5.3-10.5-9.5-16.7-11.9C564.4-0.7,551,8.4,551,26c0,4.3,0.8,8.6,2.2,12.9
			c-4.8,3.5-7.6,8.8-7.6,15.7c0,19.2,22,43.2,49.1,53.5c7.8,3,15.1,4.5,21.6,4.7c9,12.6,23.2,23.9,39.2,30
			c27.3,10.4,49.4,1.7,49.4-19.5c0-7.5-2.8-15.6-7.6-23.4C702.1,94.7,705,86.8,705,77L705,77z"/>
	</g>
	<g>
		<polygon class="st7" points="595.2,90 580.3,81.3 580.3,64.2 595.1,73 		"/>
		<polygon class="st10" points="609.7,81.6 594.8,90 594.7,73 609.7,64.2 		"/>
		<polygon class="st10" points="609.7,64.2 595.1,73.1 580.3,64.2 594.7,55.7 		"/>
		<polygon class="st5" points="591.8,64.9 581.8,59 581.8,47.5 591.8,53.4 		"/>
		<polygon class="st6" points="601.7,59.2 591.6,64.9 591.5,53.4 601.7,47.5 		"/>
		<polygon class="st6" points="601.7,47.5 591.8,53.5 581.8,47.5 591.5,41.7 		"/>
		<polygon class="st11" points="648.8,84.8 625.5,98 625.3,71.3 648.8,57.5 		"/>
		<g>
			<polygon class="st4" points="626,98 602.7,84.3 602.7,57.5 625.8,71.3 			"/>
			<polygon class="st11" points="648.8,57.5 625.8,71.4 602.7,57.5 625.3,44 			"/>
		</g>
		<g>
			<polygon class="st8" points="656.4,102.1 639.9,92.4 639.9,73.4 656.3,83.2 			"/>
			<polygon class="st9" points="672.5,92.8 656,102.1 655.9,83.2 672.5,73.4 			"/>
			<polygon class="st9" points="672.5,73.4 656.3,83.3 639.9,73.4 655.9,63.9 			"/>
		</g>
	</g>
	<polygon class="st7" points="581.9,164 587.9,164.5 586,162 603.8,148.3 602.6,146.8 584.8,160.5 582.9,158 	"/>
	<polygon class="st7" points="605,120.2 601.3,124.3 604.2,124.3 604.2,145.1 606,145.1 606,124.3 608.8,124.3 	"/>
	<g>
		<path class="st3" d="M463.6,440.3h9.1v2.6h-12.2v-19.1h3.1V440.3L463.6,440.3z"/>
		<path class="st3" d="M485.4,441c-0.5,0.7-1.1,1.2-1.8,1.6s-1.5,0.6-2.3,0.6c-0.7,0-1.4-0.1-2-0.3c-0.6-0.2-1.1-0.6-1.6-1.1
			s-0.8-1.1-1-1.9c-0.2-0.8-0.4-1.7-0.4-2.8v-8.4h3.1v8.4c0,0.7,0,1.2,0.1,1.7c0.1,0.5,0.3,0.8,0.5,1.1c0.2,0.3,0.5,0.5,0.8,0.6
			s0.7,0.2,1.1,0.2c0.8,0,1.5-0.2,2-0.5c0.5-0.3,0.9-0.8,1.2-1.3v-10.1h3.1v14.2h-2.8L485.4,441L485.4,441z"/>
		<path class="st3" d="M491.9,435.7c0-1,0.1-2,0.5-2.9c0.3-0.9,0.7-1.6,1.3-2.3s1.2-1.1,2.1-1.5s1.7-0.5,2.8-0.5s2,0.2,2.8,0.5
			s1.5,0.9,2.1,1.5s1,1.4,1.3,2.3c0.3,0.9,0.5,1.8,0.5,2.9v0.3c0,1-0.1,2-0.5,2.9c-0.3,0.9-0.7,1.6-1.3,2.3s-1.2,1.1-2.1,1.5
			s-1.7,0.5-2.8,0.5s-2-0.2-2.8-0.5s-1.5-0.9-2.1-1.5s-1-1.4-1.3-2.3c-0.3-0.9-0.5-1.8-0.5-2.9L491.9,435.7L491.9,435.7z M495,436
			c0,0.6,0.1,1.2,0.2,1.8s0.3,1.1,0.6,1.5c0.3,0.4,0.6,0.8,1.1,1s1,0.4,1.6,0.4s1.1-0.1,1.5-0.4c0.4-0.2,0.8-0.6,1.1-1
			s0.5-0.9,0.6-1.5s0.2-1.2,0.2-1.8v-0.3c0-0.6-0.1-1.2-0.2-1.8c-0.1-0.6-0.3-1.1-0.6-1.5c-0.3-0.4-0.6-0.8-1.1-1s-1-0.4-1.5-0.4
			s-1.1,0.1-1.5,0.4s-0.8,0.6-1.1,1c-0.3,0.4-0.5,0.9-0.6,1.5c-0.1,0.6-0.2,1.2-0.2,1.8L495,436L495,436z"/>
		<path class="st3" d="M517.8,439.1c0-0.2,0-0.5-0.1-0.6c-0.1-0.2-0.3-0.4-0.5-0.5s-0.6-0.3-1-0.5c-0.4-0.1-1-0.3-1.7-0.4
			c-0.8-0.2-1.6-0.4-2.3-0.6c-0.7-0.2-1.3-0.5-1.7-0.9c-0.5-0.3-0.9-0.7-1.1-1.2s-0.4-1-0.4-1.6s0.1-1.1,0.4-1.6
			c0.3-0.5,0.7-1,1.2-1.4c0.5-0.4,1.1-0.7,1.8-0.9c0.7-0.2,1.5-0.4,2.4-0.4c0.9,0,1.8,0.1,2.5,0.4c0.8,0.2,1.4,0.6,1.9,1
			s0.9,0.9,1.2,1.4c0.3,0.5,0.4,1.1,0.4,1.8h-3.1c0-0.3-0.1-0.5-0.2-0.8s-0.3-0.5-0.5-0.7s-0.5-0.4-0.9-0.5
			c-0.4-0.1-0.8-0.2-1.2-0.2c-0.5,0-0.9,0-1.2,0.1c-0.3,0.1-0.6,0.2-0.9,0.4c-0.2,0.2-0.4,0.4-0.5,0.6s-0.2,0.5-0.2,0.7
			s0,0.5,0.1,0.6c0.1,0.2,0.2,0.4,0.5,0.5c0.2,0.2,0.5,0.3,0.9,0.4s0.9,0.2,1.6,0.4c0.9,0.2,1.7,0.4,2.4,0.6
			c0.7,0.2,1.3,0.5,1.8,0.9c0.5,0.3,0.9,0.8,1.2,1.2c0.3,0.5,0.4,1,0.4,1.6s-0.1,1.2-0.4,1.7s-0.7,1-1.2,1.4
			c-0.5,0.4-1.2,0.7-1.9,0.9s-1.6,0.3-2.5,0.3c-1,0-1.9-0.1-2.7-0.4c-0.8-0.3-1.5-0.6-2-1.1c-0.5-0.5-0.9-1-1.2-1.5
			c-0.3-0.6-0.4-1.1-0.4-1.7h3c0,0.4,0.1,0.8,0.3,1.1c0.2,0.3,0.5,0.5,0.8,0.7c0.3,0.2,0.7,0.3,1.1,0.4c0.4,0.1,0.8,0.1,1.2,0.1
			c1,0,1.7-0.2,2.2-0.5C517.6,440,517.8,439.5,517.8,439.1L517.8,439.1z"/>
		<path class="st3" d="M532.6,424.6c0,0.4-0.1,0.9-0.2,1.4c-0.1,0.5-0.3,0.9-0.5,1.4c-0.2,0.5-0.5,0.9-0.8,1.3s-0.6,0.8-1,1.1
			l-1.5-1c0.4-0.6,0.7-1.2,0.9-1.9s0.3-1.4,0.3-2.2v-2.1h2.7V424.6L532.6,424.6z"/>
		<path class="st3" d="M552.7,438.2l0.1,0.9l0.1-0.9l2-9.5h2.1l2.1,9.6l0.1,0.9l0.1-1l1.4-9.5h2.8l-2.8,14.2h-2.6l-2.2-9.5l0-0.2
			l0,0.2l-2.1,9.5h-2.6l-2.8-14.2h2.8L552.7,438.2L552.7,438.2z"/>
		<path class="st3" d="M575.1,442.9c-0.1-0.2-0.2-0.4-0.2-0.6s-0.1-0.5-0.2-0.8c-0.2,0.2-0.5,0.4-0.7,0.6c-0.3,0.2-0.6,0.4-0.9,0.5
			c-0.3,0.1-0.7,0.3-1.1,0.4c-0.4,0.1-0.8,0.1-1.2,0.1c-0.8,0-1.4-0.1-2-0.3c-0.6-0.2-1.1-0.5-1.6-0.9s-0.8-0.8-1-1.3
			c-0.2-0.5-0.3-1.1-0.3-1.7c0-1.5,0.6-2.7,1.7-3.5s2.8-1.2,4.9-1.2h2.3v-0.9c0-0.8-0.2-1.4-0.8-1.8s-1.2-0.7-2.2-0.7
			c-0.4,0-0.8,0-1.1,0.1c-0.3,0.1-0.6,0.2-0.8,0.4c-0.2,0.2-0.4,0.4-0.5,0.6s-0.2,0.5-0.2,0.8h-3.1c0-0.5,0.1-1.1,0.4-1.6
			c0.3-0.5,0.6-1,1.1-1.4s1.1-0.7,1.8-1c0.7-0.2,1.5-0.4,2.5-0.4c0.8,0,1.6,0.1,2.3,0.3c0.7,0.2,1.3,0.5,1.9,0.9
			c0.5,0.4,0.9,0.9,1.2,1.5s0.5,1.3,0.5,2.1v6.3c0,0.6,0,1.2,0.1,1.7s0.2,1,0.4,1.3v0.2L575.1,442.9L575.1,442.9z M571.4,440.6
			c0.4,0,0.8,0,1.1-0.1s0.7-0.2,1-0.4c0.3-0.2,0.5-0.4,0.7-0.6c0.2-0.2,0.4-0.4,0.5-0.6v-2.7h-2c-1.3,0-2.2,0.2-2.8,0.6
			c-0.6,0.4-0.9,1-0.9,1.8c0,0.3,0,0.6,0.1,0.8c0.1,0.2,0.2,0.5,0.4,0.6c0.2,0.2,0.5,0.3,0.8,0.4S570.9,440.6,571.4,440.6
			L571.4,440.6z"/>
		<path class="st3" d="M587.8,437.2l0.5,1.7l4-10.2h3.5l-7.2,16.3c-0.2,0.4-0.4,0.7-0.6,1.2c-0.2,0.4-0.6,0.8-0.9,1.2
			s-0.8,0.7-1.3,0.9s-1.1,0.4-1.8,0.4c-0.3,0-0.6,0-0.9-0.1c-0.3,0-0.5-0.1-0.8-0.2l0.5-2.4c0.1,0,0.1,0,0.2,0s0.2,0,0.3,0
			c0.1,0,0.2,0,0.3,0c0.1,0,0.2,0,0.2,0c0.3,0,0.6-0.1,0.8-0.3s0.5-0.4,0.6-0.6c0.2-0.2,0.3-0.5,0.5-0.7s0.2-0.4,0.3-0.5l0.9-1.8
			l-6-13.5h3.5L587.8,437.2L587.8,437.2z"/>
	</g>
</g>
</svg>
