<?xml version="1.0" encoding="utf-8"?>
<!-- Generator: Adobe Illustrator 26.5.0, SVG Export Plug-In . SVG Version: 6.00 Build 0)  -->
<svg version="1.1" id="Calque_1" xmlns="http://www.w3.org/2000/svg" xmlns:xlink="http://www.w3.org/1999/xlink" x="0px" y="0px"
	 viewBox="0 0 300 300" style="enable-background:new 0 0 300 300;" xml:space="preserve">
<style type="text/css">
	.st0{fill:none;stroke:#C92A2A;stroke-linecap:round;stroke-miterlimit:12;}
	.st1{fill:#C92A2A;}
	.st2{font-family:'ArialMT';}
	.st3{font-size:2.2431px;}
	.st4{fill:none;stroke:#FFFFFF;stroke-linecap:round;stroke-miterlimit:12;}
	.st5{fill:#FFFFFF;}
	.st6{font-size:3.386px;}
	.st7{fill:none;stroke:#5C940D;stroke-linecap:round;stroke-miterlimit:12;}
	.st8{fill:#5C940D;}
	.st9{fill:none;stroke:#E67700;stroke-linecap:round;stroke-miterlimit:12;}
	.st10{fill:#E67700;}
	.st11{font-size:5.9028px;}
</style>
<g>
	<g transform="translate(8004.529774673923 1429.2627518664813) rotate(0 369.25207083913847 435.98437279802056)">
		<path class="st0" d="M-7831.5-1335.7c3,0,5.9,0,7.5,0 M-7831.5-1335.7c2.9,0,5.8,0,7.5,0 M-7824-1335.7c2.5,0,3.8,1.3,3.8,3.8
			 M-7824-1335.7c2.5,0,3.7,1.2,3.8,3.8 M-7820.2-1332c0,3.5,0,7,0,10.2 M-7820.2-1332c0,2.3,0,4.6,0,10.2 M-7820.2-1321.8
			c0,2.5-1.2,3.8-3.8,3.8 M-7820.2-1321.8c0,2.5-1.3,3.8-3.8,3.8 M-7824-1318c-2.8,0-5.5,0-7.5,0 M-7824-1318c-1.7,0-3.5,0-7.5,0
			 M-7831.5-1318c-2.5,0-3.8-1.3-3.8-3.8 M-7831.5-1318c-2.5,0-3.8-1.3-3.8-3.8 M-7835.2-1321.8c0-2.6,0-5.1,0-10.2 M-7835.2-1321.8
			c0-3.4,0-6.8,0-10.2 M-7835.2-1332c0-2.5,1.3-3.7,3.8-3.8 M-7835.2-1332c0-2.5,1.2-3.8,3.8-3.8"/>
	</g>
	<g transform="translate(8112.636103847413 1795.4006486142025) rotate(0 261.1457416657504 69.84647605029477)">
		<text transform="matrix(1 0 0 1 -7941.083 -1692.4429)" class="st1 st2 st3">Flowmeter</text>
	</g>
	<g transform="translate(7528.506020700559 788.6326530612241) rotate(0 2126.5360224230026 2397.914050389114)">
		<path class="st4" d="M-7347.3-708.1c14.4,0,28.9,0,43.2,0 M-7347.3-708.1c11.3,0,22.6,0,43.2,0 M-7304.1-708.1
			c14.5,0,21.6,7.2,21.6,21.6 M-7304.1-708.1c14.4,0,21.6,7.2,21.6,21.6 M-7282.4-686.5c0,21.6,0,43.3,0,54.3 M-7282.4-686.5
			c0.1,12,0.2,24.1,0,54.3 M-7282.4-632.2c0,14.4-7.2,21.6-21.6,21.6 M-7282.4-632.2c0,14.5-7.2,21.6-21.6,21.6 M-7304.1-610.6
			c-11,0.1-22.1,0.1-43.2,0 M-7304.1-610.6c-10.2,0.1-20.5,0.1-43.2,0 M-7347.3-610.6c-14.4,0-21.6-7.2-21.6-21.6 M-7347.3-610.6
			c-14.5,0-21.6-7.2-21.6-21.6 M-7368.9-632.2c0.2-19.2,0.2-38.5,0-54.3 M-7368.9-632.2c0.1-15.2,0.1-30.3,0-54.3 M-7368.9-686.5
			c0-14.4,7.2-21.6,21.6-21.6 M-7368.9-686.5c0-14.4,7.2-21.6,21.6-21.6"/>
	</g>
	<g>
		<g transform="translate(7635.402740703343 1269.1881556688295) rotate(0 1998.07286548931 0.35744240591338894)">
			<path class="st4" d="M-7473.6-1178.9c13.5,0,67.7,0,81.3,0 M-7473.6-1178.9c13.5,0,67.7,0,81.3,0"/>
		</g>
	</g>
	<g transform="translate(9140.313554014137 923.431903018165) rotate(0 496.9332085871283 105.43703709503188)">
		<text transform="matrix(1 0 0 1 -8946.6846 -837.1821)" class="st5 st2 st6">Third Board</text>
	</g>
	<g transform="translate(9036.656044971227 1451.5068525194401) rotate(0 369.25207083913847 435.98437279802056)">
		<path class="st7" d="M-8842.6-1357.5c2.4,0,4.8,0,7.5,0 M-8842.6-1357.5c1.6,0,3.2,0,7.5,0 M-8835.1-1357.5c2.5,0,3.7,1.3,3.8,3.8
			 M-8835.1-1357.5c2.5,0,3.8,1.3,3.8,3.8 M-8831.4-1353.8c0,2.4,0,4.7,0,10.2 M-8831.4-1353.8c0,2.3,0,4.7,0,10.2 M-8831.4-1343.6
			c0,2.5-1.2,3.8-3.8,3.8 M-8831.4-1343.6c0,2.5-1.2,3.8-3.8,3.8 M-8835.1-1339.8c-2.7,0-5.4,0-7.5,0 M-8835.1-1339.8
			c-2.6,0-5.1,0-7.5,0 M-8842.6-1339.8c-2.5,0-3.8-1.3-3.8-3.8 M-8842.6-1339.8c-2.5,0-3.8-1.3-3.8-3.8 M-8846.4-1343.6
			c0-2.7,0-5.5,0-10.2 M-8846.4-1343.6c0-2.5,0-5.1,0-10.2 M-8846.4-1353.8c0-2.5,1.2-3.8,3.8-3.8 M-8846.4-1353.8
			c0-2.5,1.2-3.7,3.8-3.8"/>
	</g>
	<g transform="translate(9144.762374144717 1817.6447492671687) rotate(0 261.1457416657504 69.84647605029477)">
		<text transform="matrix(1 0 0 1 -8952.2266 -1714.2354)" class="st8 st2 st3">Flowmeter</text>
	</g>
	<g transform="translate(10211.144559447508 1464.853312911222) rotate(0 369.25207083913847 435.98437279802056)">
		<path class="st0" d="M-9993.2-1370.6c2.9,0,5.7,0,7.5,0 M-9993.2-1370.6c2.5,0,4.9,0,7.5,0 M-9985.7-1370.6c2.5,0,3.7,1.3,3.8,3.8
			 M-9985.7-1370.6c2.5,0,3.7,1.2,3.8,3.8 M-9982-1366.8c0,2.3,0,4.6,0,10.2 M-9982-1366.8c0,4,0,8.1,0,10.2 M-9982-1356.6
			c0,2.5-1.3,3.7-3.8,3.8 M-9982-1356.6c0,2.5-1.2,3.7-3.8,3.8 M-9985.7-1352.9c-1.7,0-3.5,0-7.5,0 M-9985.7-1352.9
			c-1.9,0-3.7,0-7.5,0 M-9993.2-1352.9c-2.5,0-3.8-1.2-3.8-3.8 M-9993.2-1352.9c-2.5,0-3.8-1.2-3.8-3.8 M-9997-1356.6
			c0-3.4,0-6.8,0-10.2 M-9997-1356.6c0-3.8,0-7.6,0-10.2 M-9997-1366.8c0-2.5,1.3-3.8,3.8-3.8 M-9997-1366.8c0-2.5,1.2-3.8,3.8-3.8"
			/>
	</g>
	<g transform="translate(10319.250888620969 1830.9912096589396) rotate(0 261.1457416657504 69.84647605029477)">
		<text transform="matrix(1 0 0 1 -10102.8379 -1727.3098)" class="st1 st2 st3">Flowmeter</text>
	</g>
	<g transform="translate(116.7716831342259 2861.7828339171247) rotate(0 369.25207083913847 435.98437279802056)">
		<path class="st0" d="M-104.1-2739.1c1.9,0,3.9,0,7.5,0 M-104.1-2739.1c3,0,5.9,0,7.5,0 M-96.6-2739.1c2.5,0,3.8,1.3,3.8,3.8
			 M-96.6-2739.1c2.5,0,3.7,1.2,3.8,3.8 M-92.8-2735.4c0,2.3,0,4.5,0,10.2 M-92.8-2735.4c0,3.3,0,6.5,0,10.2 M-92.8-2725.2
			c0,2.5-1.2,3.8-3.8,3.8 M-92.8-2725.2c0,2.5-1.3,3.8-3.8,3.8 M-96.6-2721.4c-1.8,0-3.6,0-7.5,0 M-96.6-2721.4c-1.9,0-3.8,0-7.5,0
			 M-104.1-2721.4c-2.5,0-3.8-1.3-3.8-3.8 M-104.1-2721.4c-2.5,0-3.7-1.3-3.8-3.8 M-107.9-2725.2c0-2.8,0-5.7,0-10.2 M-107.9-2725.2
			c0-3.8,0-7.7,0-10.2 M-107.9-2735.4c0-2.5,1.2-3.7,3.8-3.8 M-107.9-2735.4c0-2.5,1.3-3.8,3.8-3.8"/>
	</g>
	<g transform="translate(204.41343970692833 3227.920730664835) rotate(0 281.6103142664797 69.84647605029477)">
		<text transform="matrix(1 0 0 1 -193.2228 -3095.8398)" class="st1 st2 st3">Barometer</text>
	</g>
	<g transform="translate(3991.6940168797737 4748.082569288148) rotate(0 493.81903449571837 493.81903449571746)">
		<path class="st9" d="M-3899-4587.1c2.8,0,5.7,0,10,0 M-3899-4587.1c3.4,0,6.8,0,10,0 M-3888.9-4587.1c3.3,0,5,1.7,5,5
			 M-3888.9-4587.1c3.3,0,5,1.7,5,5 M-3883.9-4582.1c0,3.6,0,7.3,0,10 M-3883.9-4582.1c0,3.8,0,7.5,0,10 M-3883.9-4572
			c0,3.4-1.7,5-5,5 M-3883.9-4572c0,3.4-1.7,5-5,5 M-3888.9-4567c-3.7,0-7.5,0-10,0 M-3888.9-4567c-2.2,0-4.5,0-10,0 M-3899-4567
			c-3.4,0-5-1.7-5-5 M-3899-4567c-3.3,0-5-1.7-5-5 M-3904-4572c0-2.9,0-5.9,0-10 M-3904-4572c0-3,0-5.9,0-10 M-3904-4582.1
			c0-3.3,1.7-5,5-5 M-3904-4582.1c0-3.4,1.7-5,5-5"/>
	</g>
	<g transform="translate(4025.949931885436 5102.2086516832715) rotate(0 459.563119490158 139.69295210059045)">
		<text transform="matrix(1 0 0 1 -3936.9434 -4932.022)" class="st10 st2 st3">Apogee detection</text>
		<text transform="matrix(1 0 0 1 -3933.6987 -4929.1821)" class="st10 st2 st3">Application</text>
	</g>
	<g transform="translate(10 1251.3099466427884) rotate(0 3198.701673895681 3203.1504940262757)">
		<path class="st4" d="M29.3-1161.4c25,0.2,50,0.2,65,0 M29.3-1161.4c18.7-0.1,37.4-0.1,65,0 M94.3-1161.4
			c21.6,0,32.5,10.8,32.5,32.5 M94.3-1161.4c21.6,0,32.5,10.8,32.5,32.5 M126.8-1128.9c0.3,20.4,0.3,40.8,0,65.2 M126.8-1128.9
			c0.2,13.6,0.2,27.1,0,65.2 M126.8-1063.7c0,21.6-10.9,32.5-32.5,32.5 M126.8-1063.7c0,21.7-10.8,32.5-32.5,32.5 M94.3-1031.2
			c-22.6,0-45.2,0-65,0 M94.3-1031.2c-13.9-0.1-27.7-0.1-65,0 M29.3-1031.2c-21.7,0-32.5-10.9-32.5-32.5 M29.3-1031.2
			c-21.7,0-32.5-10.9-32.5-32.5 M-3.3-1063.7c-0.2-24.3-0.2-48.6,0-65.2 M-3.3-1063.7c0-15.9,0-31.7,0-65.2 M-3.3-1128.9
			c0-21.7,10.9-32.5,32.5-32.5 M-3.3-1128.9c0-21.6,10.8-32.5,32.5-32.5"/>
	</g>
	<g>
		<g transform="translate(186.7146836987231 2008.7469374853936) rotate(0 3025.792201909877 -31.762186487454528)">
			<path class="st4" d="M-176.4-1903.4c20.5-0.2,102.5-1.1,123-1.3 M-176.4-1903.4c20.5-0.2,102.5-1.1,123-1.3"/>
		</g>
	</g>
	<g transform="translate(2342.071512456372 1501.7785199951322) rotate(0 629.9359286314648 105.43703709503188)">
		<text transform="matrix(1 0 0 1 -2286.8682 -1403.77)" class="st5 st2 st6">Nucleo L073RZ</text>
	</g>
	<g transform="translate(8538.388190344995 6260.681413689443) rotate(0 369.25207083913847 435.98437279802056)">
		<path class="st0" d="M-8354.5-6068.9c3,0,5.9,0,7.5,0 M-8354.5-6068.9c2,0,3.9,0,7.5,0 M-8347-6068.9c2.5,0,3.8,1.3,3.8,3.8
			 M-8347-6068.9c2.5,0,3.8,1.2,3.8,3.8 M-8343.2-6065.2c0,3.2,0,6.5,0,10.2 M-8343.2-6065.2c0,2.4,0,4.9,0,10.2 M-8343.2-6055
			c0,2.5-1.3,3.8-3.8,3.8 M-8343.2-6055c0,2.5-1.3,3.8-3.8,3.8 M-8347-6051.2c-1.9-0.1-3.8,0-7.5,0 M-8347-6051.2
			c-1.6,0-3.1,0-7.5,0 M-8354.5-6051.2c-2.5,0-3.8-1.3-3.8-3.8 M-8354.5-6051.2c-2.5,0-3.7-1.2-3.8-3.8 M-8358.3-6055
			c0-3.8,0-7.7,0-10.2 M-8358.3-6055c0-4,0-8,0-10.2 M-8358.3-6065.2c0-2.5,1.3-3.8,3.8-3.8 M-8358.3-6065.2c0-2.5,1.2-3.8,3.8-3.8"
			/>
	</g>
	<g transform="translate(8698.54571504629 6626.8193104371785) rotate(0 209.09454613782873 69.84647605029477)">
		<text transform="matrix(1 0 0 1 -8515.2705 -6425.6367)" class="st1 st2 st3">Solenoid</text>
	</g>
	<g transform="translate(8097.954997416353 5753.51591880195) rotate(0 827.4805442901197 1321.299578785839)">
		<path class="st4" d="M-7918.4-5572.1c5.7,0,11.3,0,16.8,0 M-7918.4-5572.1c4.9,0,9.8,0,16.8,0 M-7901.5-5572.1
			c5.6,0,8.4,2.8,8.4,8.4 M-7901.5-5572.1c5.7,0,8.4,2.8,8.4,8.4 M-7893.1-5563.7c0.1,13.9,0.1,27.7,0,36.9 M-7893.1-5563.7
			c0.1,12,0.1,23.9,0,36.9 M-7893.1-5526.8c0,5.6-2.8,8.4-8.4,8.4 M-7893.1-5526.8c0,5.6-2.8,8.4-8.4,8.4 M-7901.5-5518.3
			c-3.7-0.1-7.5,0-16.8,0 M-7901.5-5518.3c-3.6,0-7.3,0-16.8,0 M-7918.4-5518.3c-5.6,0-8.4-2.8-8.4-8.4 M-7918.4-5518.3
			c-5.6,0-8.4-2.8-8.4-8.4 M-7926.8-5526.8c-0.1-10.9-0.1-21.8,0-36.9 M-7926.8-5526.8c-0.1-9.6-0.1-19.3,0-36.9 M-7926.8-5563.7
			c0-5.6,2.8-8.4,8.4-8.4 M-7926.8-5563.7c0-5.6,2.8-8.5,8.4-8.4"/>
	</g>
	<g>
		<g transform="translate(8106.8960942366975 6171.736517357873) rotate(0 818.1460877802674 4.899663212755513)">
			<path class="st4" d="M-7935.5-5981.8c5.5,0,27.7,0.2,33.3,0.2 M-7935.5-5981.8c5.5,0,27.7,0.1,33.2,0.2"/>
		</g>
	</g>
	<g transform="translate(8211.844792759483 5906.110449281252) rotate(0 695.7954684245997 105.43703709503188)">
		<text transform="matrix(1 0 0 1 -8037.7524 -5718.5596)" class="st5 st2 st6">Arduino MKRZero</text>
	</g>
	<g transform="translate(245.78746692140703 4058.515449046383) rotate(0 369.25207083913847 435.98437279802056)">
		<path class="st0" d="M-230.5-3911.5c2,0,4,0,7.5,0 M-230.5-3911.5c2,0,4.1,0,7.5,0 M-223-3911.5c2.5,0,3.7,1.3,3.8,3.8
			 M-223-3911.5c2.5,0,3.8,1.2,3.8,3.8 M-219.2-3907.8c0,4,0,8.1,0,10.2 M-219.2-3907.8c0,2.1,0,4.1,0,10.2 M-219.2-3897.6
			c0,2.5-1.3,3.7-3.8,3.8 M-219.2-3897.6c0,2.5-1.2,3.7-3.8,3.8 M-223-3893.8c-1.9-0.1-3.9-0.1-7.5,0 M-223-3893.8
			c-2.6,0-5.1,0-7.5,0 M-230.5-3893.8c-2.5,0-3.7-1.2-3.8-3.8 M-230.5-3893.8c-2.5,0-3.7-1.3-3.8-3.8 M-234.2-3897.6c0-3,0-6,0-10.2
			 M-234.2-3897.6c0-2.4,0-4.8,0-10.2 M-234.2-3907.8c0-2.5,1.2-3.8,3.8-3.8 M-234.2-3907.8c0-2.5,1.3-3.8,3.8-3.8"/>
	</g>
	<g transform="translate(333.42922349399305 4424.653345794111) rotate(0 281.6103142664797 69.84647605029477)">
		<text transform="matrix(1 0 0 1 -319.616 -4268.2417)" class="st1 st2 st3">Barometer</text>
	</g>
	<g transform="translate(1028.7798099056236 2172.215713675363) rotate(0 369.25207083913847 435.98437279802056)">
		<path class="st0" d="M-997.6-2063.6c2,0,3.9,0,7.5,0 M-997.6-2063.6c1.9,0,3.8,0,7.5,0 M-990.1-2063.6c2.5,0,3.8,1.3,3.8,3.8
			 M-990.1-2063.6c2.5,0,3.8,1.3,3.8,3.8 M-986.3-2059.8c0,2.5,0,4.9,0,10.2 M-986.3-2059.8c0,3.8,0,7.5,0,10.2 M-986.3-2049.6
			c0,2.5-1.3,3.7-3.8,3.8 M-986.3-2049.6c0,2.5-1.3,3.7-3.8,3.8 M-990.1-2045.9c-1.6,0-3.1,0-7.5,0 M-990.1-2045.9
			c-1.6,0-3.1,0-7.5,0 M-997.6-2045.9c-2.5,0-3.7-1.3-3.8-3.8 M-997.6-2045.9c-2.5,0-3.8-1.3-3.8-3.8 M-1001.3-2049.6
			c0-4,0-8,0-10.2 M-1001.3-2049.6c0-2.9,0-5.9,0-10.2 M-1001.3-2059.8c0-2.5,1.2-3.8,3.8-3.8 M-1001.3-2059.8
			c0-2.5,1.3-3.8,3.8-3.8"/>
	</g>
	<g transform="translate(1116.4215664781805 2538.353610423077) rotate(0 281.6103142664797 69.84647605029477)">
		<text transform="matrix(1 0 0 1 -1086.6893 -2420.2917)" class="st1 st2 st3">Barometer</text>
	</g>
	<g transform="translate(8538.388190344995 7332.847065162134) rotate(0 369.25207083913847 435.98437279802056)">
		<path class="st0" d="M-8354.5-7119.3c2.2,0,4.4,0,7.5,0 M-8354.5-7119.3c2.8,0,5.5,0,7.5,0 M-8347-7119.3c2.5,0,3.8,1.2,3.8,3.8
			 M-8347-7119.3c2.5,0,3.7,1.2,3.8,3.8 M-8343.2-7115.5c0,3.3,0,6.6,0,10.2 M-8343.2-7115.5c0,2.7,0,5.4,0,10.2 M-8343.2-7105.3
			c0,2.5-1.2,3.7-3.8,3.8 M-8343.2-7105.3c0,2.5-1.3,3.8-3.8,3.8 M-8347-7101.6c-1.6,0-3.3,0-7.5,0 M-8347-7101.6
			c-2.1,0-4.1,0-7.5,0 M-8354.5-7101.6c-2.5,0-3.7-1.3-3.8-3.8 M-8354.5-7101.6c-2.5,0-3.7-1.3-3.8-3.8 M-8358.3-7105.3
			c0-2.7,0-5.3,0-10.2 M-8358.3-7105.3c0-3.7,0-7.5,0-10.2 M-8358.3-7115.5c0-2.5,1.3-3.8,3.8-3.8 M-8358.3-7115.5
			c0-2.5,1.2-3.7,3.8-3.8"/>
	</g>
	<g transform="translate(8698.54571504629 7698.984961909859) rotate(0 209.09454613782873 69.84647605029477)">
		<text transform="matrix(1 0 0 1 -8515.2705 -7476.0044)" class="st1 st2 st3">Solenoid</text>
	</g>
	<g transform="translate(272.4803877049708 5606.704854492418) rotate(0 369.25207083913847 435.98437279802056)">
		<path class="st0" d="M-256.6-5428.2c1.7,0,3.5,0.1,7.5,0 M-256.6-5428.2c1.7,0,3.4,0,7.5,0 M-249.1-5428.2c2.5,0,3.8,1.3,3.8,3.8
			 M-249.1-5428.2c2.5,0,3.8,1.3,3.8,3.8 M-245.4-5424.5c0,3.6,0,7.3,0,10.2 M-245.4-5424.5c0,3.5,0,7,0,10.2 M-245.4-5414.3
			c0,2.5-1.3,3.7-3.8,3.8 M-245.4-5414.3c0,2.5-1.3,3.7-3.8,3.8 M-249.1-5410.5c-2,0-4,0-7.5,0 M-249.1-5410.5c-1.9,0-3.7,0-7.5,0
			 M-256.6-5410.5c-2.5,0-3.8-1.3-3.8-3.8 M-256.6-5410.5c-2.5,0-3.8-1.2-3.8-3.8 M-260.4-5414.3c0-3,0-6,0-10.2 M-260.4-5414.3
			c0-3.5,0-6.9,0-10.2 M-260.4-5424.5c0-2.5,1.3-3.8,3.8-3.8 M-260.4-5424.5c0-2.5,1.3-3.8,3.8-3.8"/>
	</g>
	<g transform="translate(527.8426632009214 5972.842751240136) rotate(0 113.88979534315877 69.84647605029477)">
		<text transform="matrix(1 0 0 1 -510.6198 -5784.9551)" class="st1 st2 st3">GPS</text>
	</g>
	<g transform="translate(975.3939683385252 6496.468880610821) rotate(0 369.25207083913847 435.98437279802056)">
		<path class="st7" d="M-945.3-6299.9c1.7,0.1,3.4,0,7.5,0 M-945.3-6299.9c3,0,5.9,0,7.5,0 M-937.8-6299.9c2.5,0,3.7,1.2,3.8,3.8
			 M-937.8-6299.9c2.5,0,3.8,1.2,3.8,3.8 M-934-6296.2c0,2.4,0,4.7,0,10.2 M-934-6296.2c0,2.5,0,5,0,10.2 M-934-6285.9
			c0,2.5-1.3,3.8-3.8,3.8 M-934-6285.9c0,2.5-1.3,3.8-3.8,3.8 M-937.8-6282.2c-2.5,0-5,0-7.5,0 M-937.8-6282.2c-2.8,0-5.6,0-7.5,0
			 M-945.3-6282.2c-2.5,0-3.7-1.3-3.8-3.8 M-945.3-6282.2c-2.5,0-3.8-1.3-3.8-3.8 M-949-6285.9c0-3.9,0-7.7,0-10.2 M-949-6285.9
			c0-2.7,0-5.4,0-10.2 M-949-6296.2c0-2.5,1.2-3.7,3.8-3.8 M-949-6296.2c0-2.5,1.3-3.8,3.8-3.8"/>
	</g>
	<g transform="translate(1230.756243834534 6862.606777358553) rotate(0 113.88979534315877 69.84647605029477)">
		<text transform="matrix(1 0 0 1 -1199.2423 -6656.6304)" class="st8 st2 st3">GPS</text>
	</g>
	<g transform="translate(2060.906080202898 6532.059441655547) rotate(0 369.25207083913847 435.98437279802056)">
		<path class="st0" d="M-2008.7-6334.8c1.6,0,3.4,0,7.5,0 M-2008.7-6334.8c2.4,0,4.8,0,7.5,0 M-2001.2-6334.8c2.5,0,3.8,1.3,3.8,3.8
			 M-2001.2-6334.8c2.5,0,3.7,1.3,3.8,3.8 M-1997.4-6331c0,2.4,0,4.8,0,10.2 M-1997.4-6331c0,2.6,0,5.2,0,10.2 M-1997.4-6320.8
			c0,2.5-1.3,3.7-3.8,3.8 M-1997.4-6320.8c0,2.5-1.2,3.7-3.8,3.8 M-2001.2-6317.1c-2.1,0-4.2,0-7.5,0 M-2001.2-6317.1
			c-2.8,0-5.6,0-7.5,0 M-2008.7-6317.1c-2.5,0-3.8-1.2-3.8-3.8 M-2008.7-6317.1c-2.5,0-3.7-1.3-3.8-3.8 M-2012.5-6320.8
			c0-3,0-6.1,0-10.2 M-2012.5-6320.8c0-2.4,0-4.7,0-10.2 M-2012.5-6331c0-2.5,1.3-3.8,3.8-3.8 M-2012.5-6331c0-2.5,1.2-3.8,3.8-3.8"
			/>
	</g>
	<g transform="translate(2316.268355698994 6898.19733840329) rotate(0 113.88979534315877 69.84647605029477)">
		<text transform="matrix(1 0 0 1 -2262.686 -6691.4971)" class="st1 st2 st3">GPS</text>
	</g>
	<g transform="translate(3582.4025648653624 2243.3968357648228) rotate(0 369.25207083913847 435.98437279802056)">
		<path class="st0" d="M-3499.3-2133.3c2.8,0,5.5,0,7.5,0 M-3499.3-2133.3c2.8,0.1,5.6,0,7.5,0 M-3491.8-2133.3
			c2.5,0,3.8,1.2,3.8,3.8 M-3491.8-2133.3c2.5,0,3.7,1.2,3.8,3.8 M-3488-2129.6c0,3.8,0,7.6,0,10.2 M-3488-2129.6
			c0,2.3,0,4.5,0,10.2 M-3488-2119.3c0,2.5-1.3,3.8-3.8,3.8 M-3488-2119.3c0,2.5-1.3,3.7-3.8,3.8 M-3491.8-2115.6
			c-2.2,0-4.4,0.1-7.5,0 M-3491.8-2115.6c-2.2,0-4.4,0-7.5,0 M-3499.3-2115.6c-2.5,0-3.8-1.3-3.8-3.8 M-3499.3-2115.6
			c-2.5,0-3.8-1.2-3.8-3.8 M-3503-2119.3c0-2.6,0-5.2,0-10.2 M-3503-2119.3c0-3,0-5.9,0-10.2 M-3503-2129.6c0-2.5,1.3-3.8,3.8-3.8
			 M-3503-2129.6c0-2.5,1.2-3.8,3.8-3.8"/>
	</g>
	<g transform="translate(3610.875013701152 2618.4323727737283) rotate(0 340.7796220033488 69.84647605029477)">
		<text transform="matrix(1 0 0 1 -3529.6628 -2498.7427)" class="st1 st2 st3">Inertial Unit</text>
	</g>
	<g transform="translate(4774.686359864048 2136.6251526306187) rotate(0 369.25207083913847 435.98437279802056)">
		<path class="st0" d="M-4667.3-2028.7c2.3,0,4.7,0,7.5,0 M-4667.3-2028.7c1.6,0,3.1,0,7.5,0 M-4659.8-2028.7c2.5,0,3.7,1.3,3.8,3.8
			 M-4659.8-2028.7c2.5,0,3.8,1.3,3.8,3.8 M-4656.1-2025c0,3.5,0,7.1,0,10.2 M-4656.1-2025c0,2.2,0,4.4,0,10.2 M-4656.1-2014.7
			c0,2.5-1.2,3.7-3.8,3.8 M-4656.1-2014.7c0,2.5-1.3,3.7-3.8,3.8 M-4659.8-2011c-2.8,0-5.6,0-7.5,0 M-4659.8-2011
			c-1.8,0-3.7,0-7.5,0 M-4667.3-2011c-2.5,0-3.7-1.3-3.8-3.8 M-4667.3-2011c-2.5,0-3.8-1.2-3.8-3.8 M-4671.1-2014.7
			c0-2.7,0-5.4,0-10.2 M-4671.1-2014.7c0-3,0-6.1,0-10.2 M-4671.1-2025c0-2.5,1.2-3.8,3.8-3.8 M-4671.1-2025c0-2.5,1.2-3.7,3.8-3.8"
			/>
	</g>
	<g transform="translate(4820.954089222127 2502.763049378347) rotate(0 340.7796220033488 69.84647605029477)">
		<text transform="matrix(1 0 0 1 -4715.1416 -2385.4248)" class="st1 st2 st3">Inertial Unit</text>
	</g>
	<g transform="translate(5539.8834223260055 3026.3891787490284) rotate(0 369.25207083913847 435.98437279802056)">
		<path class="st0" d="M-5417-2900.4c1.9,0,3.7,0,7.5,0 M-5417-2900.4c2.8,0,5.5,0,7.5,0 M-5409.4-2900.4c2.5,0,3.7,1.2,3.8,3.8
			 M-5409.4-2900.4c2.5,0,3.8,1.2,3.8,3.8 M-5405.7-2896.6c0,3.1,0,6.1,0,10.2 M-5405.7-2896.6c0,2.6,0,5.1,0,10.2 M-5405.7-2886.4
			c0,2.5-1.3,3.7-3.8,3.8 M-5405.7-2886.4c0,2.5-1.2,3.8-3.8,3.8 M-5409.4-2882.7c-2.6,0-5.2,0-7.5,0 M-5409.4-2882.7
			c-1.7,0-3.4,0-7.5,0 M-5417-2882.7c-2.5,0-3.8-1.2-3.8-3.8 M-5417-2882.7c-2.5,0-3.8-1.3-3.8-3.8 M-5420.7-2886.4
			c0-2.9,0-5.8,0-10.2 M-5420.7-2886.4c0-2.8,0-5.5,0-10.2 M-5420.7-2896.6c0-2.5,1.2-3.8,3.8-3.8 M-5420.7-2896.6
			c0-2.5,1.3-3.7,3.8-3.8"/>
	</g>
	<g transform="translate(5568.355871161824 3392.527075496757) rotate(0 340.7796220033488 69.84647605029477)">
		<text transform="matrix(1 0 0 1 -5447.3477 -3257.0996)" class="st1 st2 st3">Inertial Unit</text>
	</g>
	<g transform="translate(1420.2759813976882 3333.357767759884) rotate(0 493.81903449571837 493.81903449571746)">
		<path class="st0" d="M-1379.8-3201.1c3.8,0,7.6,0,10,0 M-1379.8-3201.1c2.6,0,5.1,0,10,0 M-1369.8-3201.1c3.3,0,5,1.7,5,5
			 M-1369.8-3201.1c3.4,0,5,1.7,5,5 M-1364.8-3196.1c0,2,0,4,0,10 M-1364.8-3196.1c0,3.6,0,7.1,0,10 M-1364.8-3186.1
			c0,3.3-1.7,5-5,5 M-1364.8-3186.1c0,3.4-1.7,5.1-5,5 M-1369.8-3181c-3.7,0-7.5,0-10,0 M-1369.8-3181c-2.9,0-5.8,0-10,0
			 M-1379.8-3181c-3.3,0-5-1.7-5-5 M-1379.8-3181c-3.4,0-5-1.7-5-5 M-1384.9-3186.1c0-2.1,0-4.2,0-10 M-1384.9-3186.1c0-4,0-8,0-10
			 M-1384.9-3196.1c0-3.4,1.7-5,5-5 M-1384.9-3196.1c0-3.3,1.7-5,5-5"/>
	</g>
	<g transform="translate(1546.6224731065158 3617.6373741047064) rotate(0 367.47254278690525 209.53942815088521)">
		<text transform="matrix(1 0 0 1 -1505.651 -3477.6333)" class="st1 st2 st3">Pressure</text>
		<text transform="matrix(1 0 0 1 -1508.1442 -3474.7935)" class="st1 st2 st3">Determination</text>
		<text transform="matrix(1 0 0 1 -1506.65 -3471.9536)" class="st1 st2 st3">Application</text>
	</g>
	<g transform="translate(3653.5836869548657 3306.664846976324) rotate(0 493.81903449571837 493.81903449571746)">
		<path class="st0" d="M-3567.7-3175c3.6,0,7.2,0,10,0 M-3567.7-3175c3.6,0,7.2,0,10,0 M-3557.7-3175c3.4,0,5,1.7,5,5 M-3557.7-3175
			c3.3,0,5,1.6,5,5 M-3552.7-3169.9c0,3.6,0,7.3,0,10 M-3552.7-3169.9c0,2.7,0,5.5,0,10 M-3552.7-3159.9c0,3.3-1.6,5-5,5
			 M-3552.7-3159.9c0,3.4-1.6,5-5,5 M-3557.7-3154.9c-3.7,0-7.4,0-10,0 M-3557.7-3154.9c-3.7,0-7.5,0-10,0 M-3567.7-3154.9
			c-3.4,0-5-1.7-5-5 M-3567.7-3154.9c-3.4,0-5.1-1.7-5-5 M-3572.8-3159.9c0-3.8,0-7.5,0-10 M-3572.8-3159.9c0-2.2,0-4.4,0-10
			 M-3572.8-3169.9c0-3.3,1.7-5,5-5 M-3572.8-3169.9c0-3.4,1.7-5,5-5"/>
	</g>
	<g transform="translate(3779.930178663577 3590.9444533211536) rotate(0 367.47254278690525 209.53942815088521)">
		<text transform="matrix(1 0 0 1 -3695.239 -3451.4827)" class="st1 st2 st3">Acceleration</text>
		<text transform="matrix(1 0 0 1 -3696.0481 -3448.6433)" class="st1 st2 st3">Determination</text>
		<text transform="matrix(1 0 0 1 -3694.5535 -3445.803)" class="st1 st2 st3">Application</text>
	</g>
	<g transform="translate(1660.5122684496455 5006.1141368624885) rotate(0 493.81903449571837 493.81903449571746)">
		<path class="st7" d="M-1615.2-4839.9c4,0,7.9,0,10,0 M-1615.2-4839.9c2,0,4,0,10,0 M-1605.1-4839.9c3.4,0,5,1.7,5,5
			 M-1605.1-4839.9c3.3,0,5,1.6,5,5 M-1600.1-4834.8c0,2.6,0,5.1,0,10 M-1600.1-4834.8c0,3.4,0,6.9,0,10 M-1600.1-4824.8
			c0,3.4-1.7,5.1-5,5 M-1600.1-4824.8c0,3.3-1.6,5-5,5 M-1605.1-4819.8c-3,0-5.9,0-10,0 M-1605.1-4819.8c-2.3,0-4.7,0-10,0
			 M-1615.2-4819.8c-3.4,0-5-1.7-5-5 M-1615.2-4819.8c-3.4,0-5-1.7-5-5 M-1620.2-4824.8c0-3.9,0-7.7,0-10 M-1620.2-4824.8
			c0-2.3,0-4.6,0-10 M-1620.2-4834.8c0-3.3,1.7-5,5-5 M-1620.2-4834.8c0-3.3,1.7-5,5-5"/>
	</g>
	<g transform="translate(1786.858760158415 5290.393743207318) rotate(0 367.47254278690525 209.53942815088521)">
		<text transform="matrix(1 0 0 1 -1738.8839 -5116.3799)" class="st8 st2 st3">GPS</text>
		<text transform="matrix(1 0 0 1 -1743.4967 -5113.541)" class="st8 st2 st3">Determination</text>
		<text transform="matrix(1 0 0 1 -1742.0021 -5110.7012)" class="st8 st2 st3">Application</text>
	</g>
	<g transform="translate(4036.1822181858006 6064.9333279433995) rotate(0 493.81903449571837 493.81903449571746)">
		<path class="st9" d="M-3942.6-5877.2c2.4,0,4.8,0,10,0 M-3942.6-5877.2c3.7,0,7.4,0,10,0 M-3932.5-5877.2c3.3,0,5,1.6,5,5
			 M-3932.5-5877.2c3.4,0,5,1.7,5,5 M-3927.5-5872.1c0,2.1,0,4.2,0,10 M-3927.5-5872.1c0,2.1,0,4.2,0,10 M-3927.5-5862.1
			c0,3.4-1.6,5-5,5 M-3927.5-5862.1c0,3.3-1.7,5-5,5 M-3932.5-5857.1c-3.9,0-7.9,0-10,0 M-3932.5-5857.1c-2.9,0-5.8,0-10,0
			 M-3942.6-5857.1c-3.4,0-5.1-1.7-5-5 M-3942.6-5857.1c-3.3,0-5-1.7-5-5 M-3947.6-5862.1c-0.1-2.1-0.1-4.2,0-10 M-3947.6-5862.1
			c0-2.4,0-4.8,0-10 M-3947.6-5872.1c0-3.4,1.7-5,5-5 M-3947.6-5872.1c0-3.3,1.7-5,5-5"/>
	</g>
	<g transform="translate(4255.509050623979 6472.445251905621) rotate(0 265.59456179634435 69.84647605029477)">
		<text transform="matrix(1 0 0 1 -4161.9097 -6274.4004)" class="st10 st2 st3">Telemetry</text>
	</g>
	<g>
		<g transform="translate(1718.393525846841 3008.7245746624067) rotate(0 143.02141737627971 159.90090926264747)">
			<path class="st0" d="M-1676.9-2883.1c0.8,0.5,4.1,1.7,5,2.8c1,1.1,0.6,3.1,0.7,3.8 M-1676.9-2883.1c0.8,0.4,4.1,1.6,5.1,2.7
				c1,1.1,0.6,3.2,0.7,3.8"/>
		</g>
	</g>
	<g>
		<g transform="translate(837.6112207258557 3471.3628078842885) rotate(0 279.47138441502466 66.74839989454267)">
			<path class="st0" d="M-814.1-3336.3c0.7,0.3,2.5,1.2,4.4,1.6c1.9,0.5,5.9,0.9,7,1.1 M-814-3336.3c0.7,0.3,2.4,1.2,4.3,1.6
				c1.9,0.4,5.8,0.9,7,1.1"/>
		</g>
	</g>
	<g>
		<g transform="translate(988.8320448063314 4352.311954398801) rotate(0 213.55946420408145 -164.98321520157515)">
			<path class="st0" d="M-962.2-4199.3c0.3-0.6,0.5-2.7,2-3.8c1.5-1.1,5.6-2.4,6.7-2.9 M-962.2-4199.4c0.3-0.6,0.6-2.7,2-3.8
				c1.4-1.1,5.6-2.5,6.7-2.9"/>
		</g>
	</g>
	<g>
		<g transform="translate(1015.4549858245882 5811.512892122661) rotate(0 320.4663109436806 -200.20254104472951)">
			<path class="st0" d="M-988.2-5628.9c0.6-0.7,1.6-3,3.8-4.3c2.2-1.4,7.7-3.2,9.2-3.8 M-988.3-5628.9c0.6-0.7,1.6-3,3.8-4.4
				c2.2-1.4,7.7-3.2,9.3-3.8"/>
		</g>
	</g>
	<g>
		<g transform="translate(1380.2058428875025 6496.54145259615) rotate(0 155.20939931712928 -289.71404652533965)">
			<path class="st7" d="M-1345.6-6300c0.1-1.1-0.7-4.5,0.4-6.5c1.1-2,5.1-4.4,6.1-5.3 M-1345.6-6300c0.1-1.1-0.7-4.6,0.3-6.5
				c1.1-2,5.1-4.3,6.1-5.2"/>
		</g>
	</g>
	<g>
		<g transform="translate(2412.557950294882 6523.161232640423) rotate(0 -44.59524532548676 -262.04616478357457)">
			<path class="st0" d="M-2357-6326.1c0-0.7,0.1-2.7-0.2-4.5s-1.4-5.1-1.7-6.2 M-2356.9-6326.1c0-0.8,0.1-2.8-0.2-4.6
				c-0.3-1.8-1.4-5.1-1.7-6.1"/>
		</g>
	</g>
	<g>
		<g transform="translate(4022.851480413563 3106.499351781911) rotate(0 97.80530911505048 102.42012557101134)">
			<path class="st0" d="M-3934.5-2978.9c0.5,0.3,2,1.1,2.7,1.8c0.7,0.7,1,2,1.3,2.4 M-3934.5-2978.9c0.5,0.3,2.1,1.1,2.7,1.8
				c0.7,0.7,1,2,1.3,2.4"/>
		</g>
	</g>
	<g>
		<g transform="translate(4903.878931242885 3008.613243798545) rotate(0 -133.07808556291275 213.2112715715275)">
			<path class="st0" d="M-4797.6-2883c-0.1,0.8,0.3,3.6-0.6,5.1c-0.9,1.4-4.1,3-4.9,3.6 M-4797.7-2883c-0.1,0.8,0.4,3.7-0.5,5.1
				c-0.9,1.4-4.1,3-5,3.6"/>
		</g>
	</g>
	<g>
		<g transform="translate(5562.258084576824 3836.1470145021085) rotate(0 -458.53538239560294 93.03423818972533)">
			<path class="st0" d="M-5442.6-3693.7c-1.5,0.5-5.6,2.6-8.7,3.3c-3.1,0.6-8.3,0.4-10,0.5 M-5442.6-3693.7
				c-1.5,0.5-5.6,2.6-8.7,3.2c-3.1,0.6-8.3,0.4-9.9,0.5"/>
		</g>
	</g>
	<g>
		<g transform="translate(4200.985451826869 4289.968491656597) rotate(0 -18.11779001547984 235.65458393997596)">
			<path class="st0" d="M-4109-4138.3c-0.1,0.9-0.7,3.8-0.7,5.4c0,1.6,0.4,3.5,0.5,4.2 M-4109-4138.3c-0.1,0.9-0.8,3.8-0.8,5.4
				s0.5,3.4,0.6,4.1"/>
		</g>
	</g>
	<g>
		<g transform="translate(2376.9322917040845 4227.631191119803) rotate(0 809.3456133943473 364.39215612611315)">
			<path class="st0" d="M-2322.1-4077.2c2.2,1.7,7.7,7.8,13.2,10.3c5.5,2.5,16.5,3.8,19.8,4.5 M-2322.1-4077.2
				c2.2,1.7,7.8,7.8,13.3,10.3c5.5,2.5,16.4,3.8,19.7,4.5"/>
		</g>
	</g>
	<g>
		<g transform="translate(2652.65973468266 5366.526084856267) rotate(0 672.1491525719466 -46.00563776841682)">
			<path class="st7" d="M-2592.2-5193c1.9,0.1,6.7,0.8,11.2,0.4c4.6-0.4,13.4-2.3,16.1-2.7 M-2592.2-5192.9
				c1.9,0.1,6.7,0.7,11.2,0.3s13.4-2.2,16.1-2.7"/>
		</g>
	</g>
	<g>
		<g transform="translate(2626.0367983860488 5891.533515692681) rotate(0 702.0605060557209 320.2568898381942)">
			<path class="st7" d="M-2566.1-5707.3c2.2,2,8.3,9.6,13.1,11.8c4.8,2.1,12.9,0.9,15.5,1.1 M-2566.1-5707.3c2.2,2,8.3,9.6,13,11.7
				s12.9,0.9,15.5,1.1"/>
		</g>
	</g>
	<g>
		<g transform="translate(4592.38890735223 4218.6584611711205) rotate(0 333.7271472733337 951.9218196377924)">
			<path class="st0" d="M-4492.5-4068.4c2.2,1.6,12.1,2.9,13.4,9.4c1.3,6.4-4.7,24.4-5.6,29.3 M-4492.5-4068.4
				c2.2,1.6,12.1,3,13.4,9.4s-4.7,24.4-5.7,29.3"/>
		</g>
	</g>
	<g>
		<g transform="translate(2314.519901479769 4289.969041513523) rotate(0 881.322337591293 911.811545798475)">
			<path class="st0" d="M-2260.9-4138.3c2.2,2.8,7.4,10.8,13.4,17c6,6.2,18.7,16.8,22.4,20.1 M-2260.9-4138.3
				c2.2,2.8,7.4,10.8,13.4,17c6,6.2,18.8,16.7,22.5,20"/>
		</g>
	</g>
	<g>
		<g transform="translate(4530.023227498343 5740.226975825997) rotate(0 -23.673360320317443 159.79401428133588)">
			<path class="st9" d="M-4431.4-5559.1c-0.1,0.7-0.8,3.1-0.9,4.1s0,2,0,2.4 M-4431.4-5559c-0.1,0.7-0.7,3-0.9,4.1
				c-0.2,1.1,0,2,0,2.4"/>
		</g>
	</g>
	<g transform="translate(10042.089394485025 2456.940202033238) rotate(0 493.81903449571837 493.81903449571746)">
		<path class="st7" d="M-9826.4-2342.5c3.6,0,7.3,0,10,0 M-9826.4-2342.5c2.8,0,5.5,0,10,0 M-9816.3-2342.5c3.3,0,5,1.7,5,5
			 M-9816.3-2342.5c3.4,0,5.1,1.7,5,5 M-9811.3-2337.5c0,3.7,0,7.3,0,10 M-9811.3-2337.5c0,3.8,0,7.5,0,10 M-9811.3-2327.5
			c0,3.4-1.7,5-5,5 M-9811.3-2327.5c0,3.3-1.7,5-5,5 M-9816.3-2322.4c-3.8,0-7.5,0.1-10,0 M-9816.3-2322.4c-2.2,0-4.4,0-10,0
			 M-9826.4-2322.4c-3.4,0-5-1.6-5-5 M-9826.4-2322.4c-3.3,0-5-1.6-5-5 M-9831.4-2327.5c0-3.3,0-6.5,0-10 M-9831.4-2327.5
			c0-2.1,0-4.1,0-10 M-9831.4-2337.5c0-3.4,1.7-5,5-5 M-9831.4-2337.5c0-3.3,1.7-5.1,5-5"/>
	</g>
	<g transform="translate(10168.435886193794 2741.2198083780786) rotate(0 367.47254278690525 209.53942815088521)">
		<text transform="matrix(1 0 0 1 -9951.9922 -2619.0334)" class="st8 st2 st3">Flowrate</text>
		<text transform="matrix(1 0 0 1 -9954.6729 -2616.1936)" class="st8 st2 st3">Determination</text>
		<text transform="matrix(1 0 0 1 -9953.1777 -2613.3533)" class="st8 st2 st3">Application</text>
	</g>
	<g transform="translate(8413.821226688422 4623.515605631568) rotate(0 369.25207083913847 435.98437279802056)">
		<path class="st0" d="M-8232.5-4465c1.9,0,3.8,0,7.5,0 M-8232.5-4465c2.6,0,5.1,0,7.5,0 M-8225-4465c2.5,0,3.8,1.3,3.8,3.8
			 M-8225-4465c2.5,0,3.8,1.2,3.8,3.8 M-8221.2-4461.3c0,3,0,6,0,10.2 M-8221.2-4461.3c0,2.4,0,4.8,0,10.2 M-8221.2-4451.1
			c0,2.5-1.3,3.7-3.8,3.8 M-8221.2-4451.1c0,2.5-1.2,3.8-3.8,3.8 M-8225-4447.3c-2.9,0-5.8,0-7.5,0 M-8225-4447.3
			c-1.7,0-3.5,0-7.5,0 M-8232.5-4447.3c-2.5,0-3.7-1.3-3.8-3.8 M-8232.5-4447.3c-2.5,0-3.7-1.2-3.8-3.8 M-8236.2-4451.1
			c0-2.9,0-5.9,0-10.2 M-8236.2-4451.1c0-2.2,0-4.4,0-10.2 M-8236.2-4461.3c0-2.5,1.2-3.7,3.8-3.8 M-8236.2-4461.3
			c0-2.5,1.3-3.8,3.8-3.8"/>
	</g>
	<g transform="translate(8501.462983261095 4989.653502379293) rotate(0 281.6103142664797 69.84647605029477)">
		<text transform="matrix(1 0 0 1 -8321.5908 -4821.7549)" class="st1 st2 st3">Barometer</text>
	</g>
	<g transform="translate(9392.56165541851 4641.310886153933) rotate(0 369.25207083913847 435.98437279802056)">
		<path class="st0" d="M-9191.3-4482.5c1.5,0,3.1,0,7.5,0 M-9191.3-4482.5c1.6,0,3.1,0,7.5,0 M-9183.8-4482.5c2.5,0,3.8,1.2,3.8,3.8
			 M-9183.8-4482.5c2.5,0,3.8,1.2,3.8,3.8 M-9180-4478.7c0,4,0,8,0,10.2 M-9180-4478.7c0,2.9,0,5.9,0,10.2 M-9180-4468.5
			c0,2.5-1.3,3.7-3.8,3.8 M-9180-4468.5c0,2.5-1.2,3.7-3.8,3.8 M-9183.8-4464.8c-1.6,0.1-3.2,0-7.5,0 M-9183.8-4464.8
			c-1.8,0-3.6,0-7.5,0 M-9191.3-4464.8c-2.5,0-3.8-1.2-3.8-3.8 M-9191.3-4464.8c-2.5,0-3.8-1.2-3.8-3.8 M-9195.1-4468.5
			c0-2.3,0-4.7,0-10.2 M-9195.1-4468.5c0-2.1,0-4.1,0-10.2 M-9195.1-4478.7c0-2.5,1.2-3.8,3.8-3.8 M-9195.1-4478.7
			c0-2.5,1.3-3.7,3.8-3.8"/>
	</g>
	<g transform="translate(9480.203411991271 5007.448782901665) rotate(0 281.6103142664797 69.84647605029477)">
		<text transform="matrix(1 0 0 1 -9280.4326 -4839.189)" class="st1 st2 st3">Barometer</text>
	</g>
	<g transform="translate(10389.097364671266 4632.413245892756) rotate(0 369.25207083913847 435.98437279802056)">
		<path class="st0" d="M-10167.6-4473.8c1.6,0,3.2,0,7.5,0 M-10167.6-4473.8c2.1,0,4.1,0,7.5,0 M-10160.1-4473.8
			c2.5,0,3.8,1.2,3.8,3.8 M-10160.1-4473.8c2.5,0,3.8,1.2,3.8,3.8 M-10156.3-4470c0,2.7,0,5.3,0,10.2 M-10156.3-4470
			c0,3.7,0,7.5,0,10.2 M-10156.3-4459.8c0,2.5-1.2,3.8-3.8,3.8 M-10156.3-4459.8c0,2.5-1.3,3.8-3.8,3.8 M-10160.1-4456
			c-3,0-6,0-7.5,0 M-10160.1-4456c-1.6,0.1-3.2,0-7.5,0 M-10167.6-4456c-2.5,0-3.7-1.2-3.8-3.8 M-10167.6-4456
			c-2.5,0-3.8-1.3-3.8-3.8 M-10171.3-4459.8c0-2.8,0-5.6,0-10.2 M-10171.3-4459.8c0-2.8,0-5.7,0-10.2 M-10171.3-4470
			c0-2.5,1.3-3.8,3.8-3.8 M-10171.3-4470c0-2.5,1.2-3.8,3.8-3.8"/>
	</g>
	<g transform="translate(10485.636761505099 4998.551142640477) rotate(0 281.6103142664797 69.84647605029477)">
		<text transform="matrix(1 0 0 1 -10265.4248 -4830.4712)" class="st1 st2 st3">Barometer</text>
	</g>
	<g transform="translate(10068.782315268618 3524.6570333753443) rotate(0 493.81903449571837 493.81903449571746)">
		<path class="st7" d="M-9852.5-3388.5c2.7,0,5.4,0,10,0 M-9852.5-3388.5c2.5,0,5,0,10,0 M-9842.5-3388.5c3.4,0,5,1.6,5,5
			 M-9842.5-3388.5c3.4,0,5,1.7,5,5 M-9837.5-3383.5c0,3,0,5.9,0,10 M-9837.5-3383.5c0,3.4,0,6.8,0,10 M-9837.5-3373.5
			c0,3.3-1.6,5-5,5 M-9837.5-3373.5c0,3.4-1.6,5-5,5 M-9842.5-3368.4c-3.8,0-7.7,0-10,0 M-9842.5-3368.4c-4,0-8,0-10,0
			 M-9852.5-3368.4c-3.3,0-5-1.7-5-5 M-9852.5-3368.4c-3.4,0-5-1.7-5-5 M-9857.5-3373.5c0-2.3,0-4.6,0-10 M-9857.5-3373.5
			c0-2,0-4,0-10 M-9857.5-3383.5c0-3.4,1.7-5,5-5 M-9857.5-3383.5c0-3.4,1.7-5,5-5"/>
	</g>
	<g transform="translate(10195.128806977358 3808.936639720163) rotate(0 367.47254278690525 209.53942815088521)">
		<text transform="matrix(1 0 0 1 -9978.3301 -3665.0432)" class="st8 st2 st3">Pressure</text>
		<text transform="matrix(1 0 0 1 -9980.8242 -3662.2034)" class="st8 st2 st3">Determination</text>
		<text transform="matrix(1 0 0 1 -9979.3291 -3659.3635)" class="st8 st2 st3">Application</text>
	</g>
	<g transform="translate(8049.017975979747 3284.420746323369) rotate(0 493.81903449571837 493.81903449571746)">
		<path class="st7" d="M-7873.8-3153.2c3.3,0,6.6,0,10,0 M-7873.8-3153.2c3.8,0,7.5,0,10,0 M-7863.8-3153.2c3.3,0,5.1,1.7,5,5
			 M-7863.8-3153.2c3.3,0,5,1.6,5,5 M-7858.8-3148.2c0,3.8,0,7.6,0,10 M-7858.8-3148.2c0,2.7,0,5.3,0,10 M-7858.8-3138.1
			c0,3.3-1.7,5.1-5,5 M-7858.8-3138.1c0,3.3-1.6,5-5,5 M-7863.8-3133.1c-2.9,0-5.8,0-10,0 M-7863.8-3133.1c-3.9,0-7.9,0-10,0
			 M-7873.8-3133.1c-3.4,0-5-1.7-5-5 M-7873.8-3133.1c-3.4,0-5.1-1.7-5-5 M-7878.8-3138.1c0-3.2,0-6.4,0-10 M-7878.8-3138.1
			c0-3,0-6.1,0-10 M-7878.8-3148.2c0-3.3,1.6-5,5-5 M-7878.8-3148.2c0-3.4,1.7-5,5-5"/>
	</g>
	<g transform="translate(8261.226696209138 3568.7003526681947) rotate(0 281.6103142664797 209.53942815088521)">
		<text transform="matrix(1 0 0 1 -8085.3032 -3429.6909)" class="st8 st2 st3">Flowrate</text>
		<text transform="matrix(1 0 0 1 -8084.6177 -3426.8511)" class="st8 st2 st3">Control</text>
		<text transform="matrix(1 0 0 1 -8086.4878 -3424.0107)" class="st8 st2 st3">Application</text>
	</g>
	<g transform="translate(8057.915616240993 2630.444187126326) rotate(0 369.25207083913847 217.99218639901028)">
		<path class="st7" d="M-7885.3-2512.5c2.9,0,5.9,0,10.6,0 M-7885.3-2512.5c4,0,7.9,0,10.6,0 M-7874.8-2512.5c1.5,0,2.2,0.8,2.2,2.2
			 M-7874.8-2512.5c1.5,0,2.3,0.7,2.2,2.2 M-7872.5-2510.3c0,1.3,0,2.6,0,4.4 M-7872.5-2510.3c0,1,0,2,0,4.4 M-7872.5-2505.8
			c0,1.5-0.7,2.2-2.2,2.2 M-7872.5-2505.8c0,1.4-0.7,2.2-2.2,2.2 M-7874.8-2503.6c-2.8,0-5.7,0-10.6,0 M-7874.8-2503.6
			c-2.7,0-5.3,0-10.6,0 M-7885.3-2503.6c-1.5,0-2.2-0.8-2.2-2.2 M-7885.3-2503.6c-1.5,0-2.2-0.8-2.2-2.2 M-7887.5-2505.8
			c0-1.5,0-3.1,0-4.4 M-7887.5-2505.8c0-1.5,0-3,0-4.4 M-7887.5-2510.3c0-1.5,0.8-2.2,2.2-2.2 M-7887.5-2510.3
			c0-1.4,0.8-2.2,2.2-2.2"/>
	</g>
	<g transform="translate(8287.919616992673 2783.0387176056392) rotate(0 139.24807008753123 69.84647605029477)">
		<text transform="matrix(1 0 0 1 -8112.769 -2660.0024)" class="st8 st2 st3">Valve</text>
	</g>
	<g>
		<g transform="translate(10660.497274825306 2345.685881420175) rotate(0 0.34242028513835976 49.5388596097273)">
			<path class="st0" d="M-10437.2-2233.5c0,0.3,0,1.7,0,2 M-10437.2-2233.5c0,0.3,0,1.6,0,2"/>
		</g>
	</g>
	<g>
		<g transform="translate(10696.019683990875 4632.503826750537) rotate(0 -3.7955514990899246 -57.98455050697339)">
			<path class="st0" d="M-10472-4473.8c0-0.4-0.1-2-0.2-2.3 M-10472-4473.9c0-0.4-0.1-2-0.2-2.4"/>
		</g>
	</g>
	<g>
		<g transform="translate(9868.658518736192 4641.386143893762) rotate(0 106.83675760416372 -128.90868015589604)">
			<path class="st0" d="M-9661.5-4482.5c0.2-0.6,0.2-2.8,0.9-3.6c0.7-0.9,2.9-1.4,3.4-1.6 M-9661.5-4482.5c0.1-0.6,0.2-2.7,0.9-3.6
				c0.7-0.9,2.9-1.4,3.4-1.7"/>
		</g>
	</g>
	<g>
		<g transform="translate(8765.288088177811 4623.5215873135585) rotate(0 653.5895307639003 -168.65577978776128)">
			<path class="st0" d="M-8580.5-4465c2.3-0.9,9.7-4.1,14.1-5.2c4.4-1.1,10.4-1.4,12.5-1.6 M-8580.5-4465c2.3-0.9,9.7-4.1,14.1-5.3
				c4.4-1.1,10.4-1.3,12.5-1.6"/>
		</g>
	</g>
	<g>
		<g transform="translate(9254.665677712372 2319.1504886358925) rotate(0 409.1851889533573 106.17832337010259)">
			<path class="st7" d="M-9060-2207.5c1.4,0.4,5.5,2,8.3,2.7c2.8,0.7,6.9,1.4,8.3,1.6 M-9060-2207.6c1.4,0.4,5.6,2,8.3,2.7
				c2.8,0.7,6.9,1.3,8.3,1.6"/>
		</g>
	</g>
	<g>
		<g transform="translate(8311.667660745385 2301.2133895616225) rotate(0 867.5082057443287 169.68579944325938)">
			<path class="st0" d="M-8136.1-2189.9c2,0.6,5.9,2.6,11.7,3.8s19.6,2.6,23.5,3.1 M-8136.2-2190c2,0.6,5.9,2.7,11.8,3.8
				c5.9,1.1,19.6,2.5,23.5,3"/>
		</g>
	</g>
	<g>
		<g transform="translate(10073.131125696833 3920.6149005979732) rotate(0 -515.2128403891984 -20.802574885687136)">
			<path class="st7" d="M-9861.8-3776.5c-2.2,0-9.9,0.4-13.4,0.2s-6.3-1-7.6-1.3 M-9861.8-3776.4c-2.2,0-9.9,0.3-13.4,0.2
				s-6.3-1-7.6-1.2"/>
		</g>
	</g>
	<g>
		<g transform="translate(10037.744617141987 3208.9151893375347) rotate(0 -498.159889667033 195.48463490848644)">
			<path class="st7" d="M-9827.1-3079.2c-2.2,1.2-9.7,5.8-13,7.1c-3.4,1.3-6,0.7-7.2,0.9 M-9827.1-3079.2c-2.2,1.2-9.6,5.7-13,7.1
				c-3.4,1.3-6.1,0.8-7.3,0.9"/>
		</g>
	</g>
	<g>
		<g transform="translate(8516.307429918554 3297.8763574500827) rotate(0 -45.256198823743034 -119.99700891212069)">
			<path class="st7" d="M-8336.6-3166.4c-0.2-0.2-1.1-0.6-1.4-1.4c-0.3-0.8-0.3-2.8-0.4-3.4 M-8336.7-3166.3
				c-0.2-0.2-1.1-0.6-1.4-1.4c-0.3-0.8-0.3-2.9-0.4-3.5"/>
		</g>
	</g>
	<g>
		<g transform="translate(10064.268824150175 4142.973877496934) rotate(0 -2521.7782393888483 1068.6422918295657)">
			<path class="st9" d="M-9853.1-3994.3c-11,2.7-48.9,8.7-66,15.9c-17.1,7.2-30.4,22.9-36.5,27.5 M-9853.1-3994.3
				c-11,2.7-49,8.7-66.1,15.9c-17.1,7.2-30.4,22.9-36.5,27.5"/>
		</g>
	</g>
	<g>
		<g transform="translate(10028.639899841728 2808.447141945262) rotate(0 -2508.1187166495074 1446.7934930870397)">
			<path class="st7" d="M-9818.2-2686.9c-8.1-1.4-38.2-8.5-48.9-8.7c-10.7-0.2-6.3-5.1-15.2,7.7c-8.9,12.9-31.6,57.9-38,69.5
				 M-9818.2-2686.9c-8.1-1.4-38.2-8.5-48.9-8.7c-10.7-0.1-6.3-5.1-15.2,7.8s-31.6,57.9-37.9,69.5"/>
		</g>
	</g>
	<g>
		<g transform="translate(4983.96139087074 5282.135180857529) rotate(0 1775.0905776472428 733.6418374391378)">
			<path class="st0" d="M-4876.1-5110.3c8.1,4.3,36.3,20.7,48.3,25.7c12,5,19.9,3.5,23.8,4.2 M-4876.1-5110.3
				c8.1,4.3,36.3,20.8,48.3,25.8c12,5,19.9,3.4,23.9,4.1"/>
		</g>
	</g>
	<g>
		<g transform="translate(4974.9350249073905 5468.757615127894) rotate(0 1779.7606218922228 1270.7806636317282)">
			<path class="st0" d="M-4867.3-5293.1c9.6,7.7,45.3,37.7,57.4,46.3c12.1,8.5,12.5,4.1,15,4.9 M-4867.2-5293.1
				c9.5,7.7,45.2,37.8,57.3,46.3s12.5,4.1,15,4.9"/>
		</g>
	</g>
	<g transform="translate(11928.722791365886 2919.6174956148207) rotate(0 93.42522274242947 88.97640261184097)">
		<path class="st1" d="M-11678.8-2795.8l2.2,0l0.3,0.1l0.2,0.2l0.1,0.1l0,0.4l0,2l-0.1,0.4l-0.2,0.2l-0.2,0.1l-0.4,0l-2.2,0
			l-0.3-0.2l-0.2-0.2l0-0.2l-0.1-0.4l0-1.8l0.1-0.4l0.2-0.3l0.1-0.1l0.1-0.1L-11678.8-2795.8"/>
		<path class="st0" d="M-11678.8-2795.8c0.5,0,1,0,2,0 M-11678.8-2795.8c0.4,0,0.8,0,2,0 M-11676.8-2795.8c0.6,0,0.9,0.3,0.9,0.9
			 M-11676.8-2795.8c0.6,0,0.9,0.3,0.9,0.9 M-11675.9-2794.9c0,0.4,0,0.8,0,1.8 M-11675.9-2794.9c0,0.7,0,1.4,0,1.8
			 M-11675.9-2793.1c0,0.6-0.3,0.9-0.9,0.9 M-11675.9-2793.1c0,0.6-0.3,0.9-0.9,0.9 M-11676.8-2792.2c-0.6,0-1.2,0-2,0
			 M-11676.8-2792.2c-0.5,0-1.1,0-2,0 M-11678.8-2792.2c-0.6,0-0.9-0.3-0.9-0.9 M-11678.8-2792.2c-0.6,0-0.9-0.3-0.9-0.9
			 M-11679.7-2793.1c0-0.5,0-1.1,0-1.8 M-11679.7-2793.1c0-0.4,0-0.8,0-1.8 M-11679.7-2794.9c0-0.6,0.3-0.9,0.9-0.9
			 M-11679.7-2794.9c0-0.6,0.3-0.9,0.9-0.9"/>
	</g>
	<g transform="translate(12250.038825297903 2947.645062437543) rotate(0 950.7128619075229 69.84647605029477)">
		<text transform="matrix(1 0 0 1 -11992.3271 -2821.262)" class="st1 st2 st3">No need to develop if we use Luos</text>
	</g>
	<g transform="translate(11928.722791365886 3213.2396242338727) rotate(0 93.42522274242947 88.97640261184097)">
		<path class="st10" d="M-11678.7-3083.5l2.2,0l0.3,0.1l0.2,0.3l0.1,0.1l0.1,0.4l0,2l-0.2,0.4l-0.2,0.2l-0.1,0.1l-0.3,0.1l-2.2,0
			l-0.4-0.1l-0.2-0.2l-0.1-0.1l-0.1-0.4l0-1.8l0-0.4l0.2-0.2l0.2-0.1l0.1-0.1L-11678.7-3083.5"/>
		<path class="st9" d="M-11678.8-3083.4c0.6,0,1.2,0.1,2,0 M-11678.8-3083.4c0.5,0,1,0,2,0 M-11676.8-3083.4c0.6,0,0.9,0.3,0.9,0.9
			 M-11676.8-3083.4c0.6,0,0.9,0.3,0.9,0.9 M-11675.9-3082.5c0,0.4,0,0.8,0,1.8 M-11675.9-3082.5c0,0.5,0,1,0,1.8 M-11675.9-3080.7
			c0,0.6-0.3,0.9-0.9,0.9 M-11675.9-3080.7c0,0.6-0.3,0.9-0.9,0.9 M-11676.8-3079.8c-0.8,0-1.6,0-2,0 M-11676.8-3079.8
			c-0.4,0-0.8,0-2,0 M-11678.8-3079.8c-0.6,0-0.9-0.3-0.9-0.9 M-11678.8-3079.8c-0.6,0-0.9-0.3-0.9-0.9 M-11679.7-3080.7
			c0-0.5,0-1.1,0-1.8 M-11679.7-3080.7c0-0.5,0-1,0-1.8 M-11679.7-3082.5c0-0.6,0.3-0.9,0.9-0.9 M-11679.7-3082.5
			c0-0.6,0.3-0.9,0.9-0.9"/>
	</g>
	<g transform="translate(12222.233699481658 3241.2671910566132) rotate(0 979.1853107433126 69.84647605029477)">
		<text transform="matrix(1 0 0 1 -11964.6318 -3108.9148)" class="st10 st2 st3">Need to be updated if we use Luos</text>
	</g>
	<g transform="translate(11928.722791365886 3524.6570333753443) rotate(0 93.42522274242947 88.97640261184097)">
		<path class="st8" d="M-11678.8-3388.5l2.2,0l0.4,0.1l0.2,0.2l0.1,0.2l0,0.4l0.1,2l-0.1,0.4l-0.3,0.2l-0.1,0l-0.4,0.1l-2.2,0
			l-0.3-0.1l-0.2-0.2l-0.1-0.1l-0.1-0.4l0.1-1.8l0-0.4l0.1-0.3l0.1,0l0.1-0.1L-11678.8-3388.5"/>
		<path class="st7" d="M-11678.8-3388.5c0.7,0,1.6,0,2,0 M-11678.8-3388.5c0.8,0,1.5,0,2,0 M-11676.8-3388.5c0.6,0,0.9,0.3,0.9,0.9
			 M-11676.8-3388.5c0.6,0,1,0.3,0.9,0.9 M-11675.9-3387.6c0,0.7,0,1.4,0,1.8 M-11675.9-3387.6c0,0.4,0,0.8,0,1.8 M-11675.9-3385.8
			c0,0.6-0.3,0.9-0.9,0.9 M-11675.9-3385.8c0,0.6-0.3,0.9-0.9,0.9 M-11676.8-3384.9c-0.6,0-1.2,0-2,0 M-11676.8-3384.9
			c-0.5,0-1,0-2,0 M-11678.8-3384.9c-0.6,0-0.9-0.3-0.9-0.9 M-11678.8-3384.9c-0.6,0-0.9-0.3-0.9-0.9 M-11679.7-3385.8
			c0-0.7,0-1.2,0-1.8 M-11679.7-3385.8c0-0.6,0-1.2,0-1.8 M-11679.7-3387.6c0-0.6,0.3-0.9,0.9-0.9 M-11679.7-3387.6
			c0-0.6,0.3-0.9,0.9-0.9"/>
	</g>
	<g transform="translate(12187.088020450014 3552.6846001980703) rotate(0 1014.3309897749859 69.84647605029477)">
		<text transform="matrix(1 0 0 1 -11930.6084 -3414.0012)" class="st8 st2 st3">Need to be developed if we use Luos</text>
	</g>
	<g transform="translate(3088.4999999999854 10) rotate(0 3426.5 183.5)">
		<text transform="matrix(1 0 0 1 -2999.197 59.8982)" class="st5 st2 st11">Potential electronic system of ESL-2 with Luos</text>
	</g>
</g>
</svg>
