<?xml version="1.0" encoding="utf-8"?>
<!-- Generator: Adobe Illustrator 26.5.0, SVG Export Plug-In . SVG Version: 6.00 Build 0)  -->
<svg version="1.1" id="Calque_1" xmlns="http://www.w3.org/2000/svg" xmlns:xlink="http://www.w3.org/1999/xlink" x="0px" y="0px"
	 viewBox="0 0 300 300" style="enable-background:new 0 0 300 300;" xml:space="preserve">
<style type="text/css">
	.st0{fill:none;stroke:#000000;stroke-linecap:round;stroke-miterlimit:12;}
	.st1{font-family:'ArialMT';}
	.st2{font-size:2.7684px;}
	.st3{font-size:4.179px;}
	.st4{font-size:6.9893px;}
</style>
<g>
	<g transform="translate(8343.027210884436 1380.75283446712) rotate(0 384.8866213151923 454.44444444444423)">
		<path class="st0" d="M-8135.5-1306.2c2.4,0,4.7,0,9.3,0 M-8135.5-1306.2c3.3,0,6.6,0,9.3,0 M-8126.3-1306.2c3.1,0,4.7,1.6,4.6,4.6
			 M-8126.3-1306.2c3.1,0,4.6,1.5,4.6,4.6 M-8121.6-1301.6c0,4.8-0.1,9.7,0,12.6 M-8121.6-1301.6c0,4.5,0.1,8.9,0,12.6
			 M-8121.6-1288.9c0,3.1-1.6,4.7-4.6,4.6 M-8121.6-1288.9c0,3-1.5,4.6-4.6,4.6 M-8126.3-1284.3c-3,0-6,0-9.3,0 M-8126.3-1284.3
			c-1.9,0-3.8,0-9.3,0 M-8135.5-1284.3c-3.1,0-4.7-1.6-4.6-4.6 M-8135.5-1284.3c-3.1,0-4.6-1.5-4.6-4.6 M-8140.2-1288.9
			c0-4.3,0-8.5,0-12.6 M-8140.2-1288.9c-0.1-3.2-0.1-6.4,0-12.6 M-8140.2-1301.6c0-3.1,1.6-4.6,4.6-4.6 M-8140.2-1301.6
			c0-3.1,1.5-4.7,4.6-4.6"/>
	</g>
	<g transform="translate(8455.710884353786 1762.3934240362805) rotate(0 272.2029478458062 72.80385487528343)">
		<text transform="matrix(1 0 0 1 -8250.0557 -1676.1991)" class="st1 st2">Flowmeter</text>
	</g>
	<g transform="translate(7846.848072562367 712.9977324263037) rotate(0 2216.575963718824 2499.444444444444)">
		<path class="st0" d="M-7629.3-654.5c14.5-0.2,29-0.2,53.4,0 M-7629.3-654.5c14.2,0.1,28.5,0.1,53.4,0 M-7575.9-654.5
			c17.8,0,26.7,8.9,26.7,26.7 M-7575.9-654.5c17.8,0,26.7,8.8,26.7,26.7 M-7549.2-627.8c0.2,16,0.3,32.1,0,67 M-7549.2-627.8
			c0,18.3,0,36.7,0,67 M-7549.2-560.9c0,17.8-8.9,26.6-26.7,26.7 M-7549.2-560.9c0,17.8-8.9,26.7-26.7,26.7 M-7575.9-534.2
			c-18.9,0.1-37.8,0.1-53.4,0 M-7575.9-534.2c-15.8-0.1-31.7-0.1-53.4,0 M-7629.3-534.2c-17.8,0-26.7-8.9-26.7-26.7 M-7629.3-534.2
			c-17.8,0-26.7-8.9-26.7-26.7 M-7655.9-560.9c-0.2-25.1-0.3-50.2,0-67 M-7655.9-560.9c0.3-20.5,0.3-41,0-67 M-7655.9-627.8
			c0-17.8,8.9-26.7,26.7-26.7 M-7655.9-627.8c0-17.8,8.9-26.7,26.7-26.7"/>
	</g>
	<g>
		<g transform="translate(7966.2463700171065 1235.9963069259127) rotate(0 2082.847560648712 -0.23463844343769935)">
			<path class="st0" d="M-7772.5-1164.9c16.7,0,83.6,0,100.3,0 M-7772.4-1164.9c16.7,0,83.5,0,100.2,0"/>
		</g>
	</g>
	<g transform="translate(9526.90136054423 853.5045351473918) rotate(0 517.9739229024926 109.90136054421767)">
		<text transform="matrix(1 0 0 1 -9293.999 -787.9332)" class="st1 st3">Third Board</text>
	</g>
	<g transform="translate(9418.854875283461 1403.9387755102036) rotate(0 384.8866213151923 454.44444444444423)">
		<path class="st0" d="M-9185.5-1328.8c2.4,0,4.8,0,9.3,0 M-9185.5-1328.8c2.2,0,4.5,0,9.3,0 M-9176.2-1328.8c3.1,0,4.6,1.6,4.6,4.6
			 M-9176.2-1328.8c3,0,4.7,1.5,4.6,4.6 M-9171.6-1324.2c0,2.9,0,5.8,0,12.6 M-9171.6-1324.2c0,4.6,0,9.1,0,12.6 M-9171.6-1311.6
			c0,3.1-1.6,4.6-4.6,4.6 M-9171.6-1311.6c0,3.1-1.6,4.7-4.6,4.6 M-9176.2-1306.9c-2.5-0.1-4.9-0.1-9.3,0 M-9176.2-1306.9
			c-3,0-6,0-9.3,0 M-9185.5-1306.9c-3.1,0-4.6-1.5-4.6-4.6 M-9185.5-1306.9c-3.1,0-4.6-1.6-4.6-4.6 M-9190.1-1311.6
			c0.1-4.3,0-8.5,0-12.6 M-9190.1-1311.6c0-3,0-6.1,0-12.6 M-9190.1-1324.2c0-3.1,1.5-4.7,4.6-4.6 M-9190.1-1324.2
			c0-3,1.6-4.6,4.6-4.6"/>
	</g>
	<g transform="translate(9531.538548752753 1785.5793650793642) rotate(0 272.2029478458062 72.80385487528343)">
		<text transform="matrix(1 0 0 1 -9299.9844 -1698.8274)" class="st1 st2">Flowmeter</text>
	</g>
	<g transform="translate(10643.072562358255 1417.850340136054) rotate(0 384.8866213151923 454.4444444444443)">
		<path class="st0" d="M-10380.2-1342.4c2.3,0,4.7,0,9.3,0 M-10380.2-1342.4c3.6,0,7.1,0,9.3,0 M-10371-1342.4
			c3.1,0,4.6,1.5,4.6,4.6 M-10371-1342.4c3.1,0,4.6,1.5,4.6,4.6 M-10366.3-1337.8c0,3.7,0,7.4,0,12.6 M-10366.3-1337.8
			c0,3.1,0,6.1,0,12.6 M-10366.3-1325.1c0,3.1-1.6,4.6-4.6,4.6 M-10366.3-1325.1c0,3.1-1.5,4.7-4.6,4.6 M-10371-1320.5
			c-2.6-0.1-5.3-0.1-9.3,0 M-10371-1320.5c-3.1,0-6.1,0-9.3,0 M-10380.2-1320.5c-3.1,0-4.7-1.6-4.6-4.6 M-10380.2-1320.5
			c-3.1,0-4.7-1.5-4.6-4.6 M-10384.9-1325.1c0-2.7,0-5.4,0-12.6 M-10384.9-1325.1c0-5,0-10,0-12.6 M-10384.9-1337.8
			c0-3.1,1.5-4.7,4.6-4.6 M-10384.9-1337.8c-0.1-3,1.5-4.7,4.6-4.6"/>
	</g>
	<g transform="translate(10755.756235827663 1799.4909297052152) rotate(0 272.2029478458062 72.80385487528343)">
		<text transform="matrix(1 0 0 1 -10494.7324 -1712.4041)" class="st1 st2">Flowmeter</text>
	</g>
	<g transform="translate(121.2925170067465 2873.9274376417216) rotate(0 384.8866213151923 454.44444444444434)">
		<path class="st0" d="M-111.7-2763.4c3.1,0,6.2,0,9.3,0 M-111.7-2763.4c2.4,0,4.9,0,9.3,0 M-102.5-2763.4c3.1,0,4.6,1.5,4.6,4.6
			 M-102.5-2763.4c3.1,0,4.7,1.5,4.6,4.6 M-97.8-2758.8c0,4.1,0,8.1,0,12.6 M-97.8-2758.8c0,2.6,0,5.2,0,12.6 M-97.8-2746.2
			c0,3.1-1.5,4.6-4.6,4.6 M-97.8-2746.2c0,3-1.5,4.6-4.6,4.6 M-102.5-2741.5c-3,0-6.1,0-9.3,0 M-102.5-2741.5c-3,0-6,0-9.3,0
			 M-111.7-2741.5c-3.1,0-4.7-1.6-4.6-4.6 M-111.7-2741.5c-3.1,0-4.6-1.6-4.6-4.6 M-116.4-2746.2c0-2.9,0-5.8,0-12.6 M-116.4-2746.2
			c0-2.8,0-5.6,0-12.6 M-116.4-2758.8c0-3,1.6-4.6,4.6-4.6 M-116.4-2758.8c0-3.1,1.5-4.7,4.6-4.6"/>
	</g>
	<g transform="translate(212.6451247164805 3255.5680272108875) rotate(0 293.53401360544376 72.80385487528338)">
		<text transform="matrix(1 0 0 1 -204.9097 -3133.4285)" class="st1 st2">Barometer</text>
	</g>
	<g transform="translate(4160.283446712012 4840.095238095237) rotate(0 514.7278911564645 514.7278911564622)">
		<path class="st0" d="M-4051.9-4682.3c2.6,0,5.3,0,12.4,0 M-4051.9-4682.3c4.1,0,8.2,0,12.4,0 M-4039.5-4682.3c4.1,0,6.2,2,6.2,6.2
			 M-4039.5-4682.3c4.2,0,6.2,2.1,6.2,6.2 M-4033.3-4676.1c0,3,0,5.9,0,12.4 M-4033.3-4676.1c0,3.2,0,6.4,0,12.4 M-4033.3-4663.7
			c0,4.1-2,6.2-6.2,6.2 M-4033.3-4663.7c0,4.1-2.1,6.2-6.2,6.2 M-4039.5-4657.5c-4,0-8.1,0-12.4,0 M-4039.5-4657.5
			c-3.4,0-6.8,0-12.4,0 M-4051.9-4657.5c-4.1,0-6.2-2-6.2-6.2 M-4051.9-4657.5c-4.1,0-6.2-2-6.2-6.2 M-4058.1-4663.7
			c0-4.7,0-9.4,0-12.4 M-4058.1-4663.7c0-3.1,0-6.1,0-12.4 M-4058.1-4676.1c0-4.1,2.1-6.2,6.2-6.2 M-4058.1-4676.1
			c0-4.2,2.1-6.2,6.2-6.2"/>
	</g>
	<g transform="translate(4195.989795918402 5209.215419501133) rotate(0 479.021541950111 145.60770975056676)">
		<text transform="matrix(1 0 0 1 -4092.2124 -5040.0474)" class="st1 st2">Apogee detection</text>
		<text transform="matrix(1 0 0 1 -4088.2095 -5036.5425)" class="st1 st2">Application</text>
	</g>
	<g transform="translate(10 1195.2653061224487) rotate(0 3334.1383219954587 3338.7755102040815)">
		<path class="st0" d="M32.4-1125.2c19.7,0,39.4,0,80.3,0 M32.4-1125.2c26.3-0.1,52.5-0.1,80.3,0 M112.6-1125.2
			c26.8,0,40.2,13.4,40.1,40.1 M112.6-1125.2c26.8,0,40.1,13.4,40.1,40.1 M152.8-1085c0.2,26.3,0.2,52.6,0,80.5 M152.8-1085
			c0.3,28.3,0.3,56.6,0,80.5 M152.8-1004.6c0,26.7-13.4,40.1-40.1,40.1 M152.8-1004.6c0,26.7-13.4,40.2-40.1,40.1 M112.6-964.4
			c-29-0.1-57.9-0.1-80.3,0 M112.6-964.4c-30,0.2-60,0.2-80.3,0 M32.4-964.4c-26.8,0-40.1-13.4-40.1-40.1 M32.4-964.4
			c-26.8,0-40.1-13.4-40.1-40.1 M-7.7-1004.6c-0.1-30.8-0.1-61.6,0-80.5 M-7.7-1004.6c0-28.5,0-57,0-80.5 M-7.7-1085
			c0-26.8,13.4-40.2,40.1-40.1 M-7.7-1085c0-26.8,13.3-40.1,40.1-40.1"/>
	</g>
	<g>
		<g transform="translate(201.7885910351033 2007.2358029461595) rotate(0 3153.491405570632 -32.88967962613407)">
			<path class="st0" d="M-194.9-1917.6c25.3-0.3,126.5-1.3,151.8-1.5 M-194.9-1917.6c25.3-0.3,126.5-1.4,151.8-1.6"/>
		</g>
	</g>
	<g transform="translate(2440.8140589568648 1456.3390022675735) rotate(0 656.6081286017579 109.90136054421768)">
		<text transform="matrix(1 0 0 1 -2378.7583 -1376.255)" class="st1 st3">Nucleo L073RZ</text>
	</g>
	<g transform="translate(8899.489795918373 6416.739229024943) rotate(0 384.8866213151923 454.44444444444434)">
		<path class="st0" d="M-8678.6-6220.9c2.5,0,4.9,0,9.3,0 M-8678.6-6220.9c2.4,0,4.7,0,9.3,0 M-8669.3-6220.9c3.1,0,4.7,1.5,4.6,4.6
			 M-8669.3-6220.9c3.1,0,4.7,1.5,4.6,4.6 M-8664.7-6216.3c0,2.6,0,5.2,0,12.6 M-8664.7-6216.3c0,3,0,6,0,12.6 M-8664.7-6203.7
			c0,3.1-1.6,4.6-4.6,4.6 M-8664.7-6203.7c0,3.1-1.6,4.6-4.6,4.6 M-8669.3-6199.1c-3,0-6,0-9.3,0 M-8669.3-6199.1
			c-2.3,0-4.6,0-9.3,0 M-8678.6-6199.1c-3.1,0-4.6-1.5-4.6-4.6 M-8678.6-6199.1c-3.1,0-4.6-1.6-4.6-4.6 M-8683.2-6203.7
			c0-2.8,0-5.6,0-12.6 M-8683.2-6203.7c0-2.8,0-5.5,0-12.6 M-8683.2-6216.3c0-3,1.5-4.7,4.6-4.6 M-8683.2-6216.3
			c0-3.1,1.5-4.6,4.6-4.6"/>
	</g>
	<g transform="translate(9066.428571428434 6798.379818594101) rotate(0 217.94784580498526 72.80385487528338)">
		<text transform="matrix(1 0 0 1 -8846.3037 -6590.9561)" class="st1 st2">Solenoid</text>
	</g>
	<g transform="translate(8440.408163265354 5888.099773242629) rotate(0 862.5170068027219 1377.2448979591827)">
		<path class="st0" d="M-8224.8-5705c6.9,0,13.8,0,20.8,0 M-8224.8-5705c5.2,0,10.5,0,20.8,0 M-8204.1-5705
			c6.9,0,10.4,3.5,10.4,10.4 M-8204.1-5705c7,0,10.3,3.5,10.4,10.4 M-8193.7-5694.7c0.1,11.7,0,23.4,0,45.5 M-8193.7-5694.7
			c0,16.4,0,32.9,0,45.5 M-8193.7-5649.1c0,6.9-3.4,10.4-10.4,10.4 M-8193.7-5649.1c0,6.9-3.4,10.3-10.4,10.4 M-8204.1-5638.7
			c-5.7,0.1-11.4,0-20.8,0 M-8204.1-5638.7c-5.4,0-10.8,0-20.8,0 M-8224.8-5638.7c-6.9,0-10.4-3.4-10.4-10.4 M-8224.8-5638.7
			c-6.9,0-10.4-3.4-10.4-10.4 M-8235.2-5649.1c0.2-11.3,0.2-22.6,0-45.5 M-8235.2-5649.1c0-15.3,0-30.6,0-45.5 M-8235.2-5694.7
			c0-7,3.5-10.4,10.4-10.4 M-8235.2-5694.7c0-6.9,3.5-10.4,10.4-10.4"/>
	</g>
	<g>
		<g transform="translate(8449.739574316001 6324.051239408274) rotate(0 852.5864103424101 4.886607244118295)">
			<path class="st0" d="M-8244.3-6130.5c6.8,0,34.2,0.2,41.1,0.2 M-8244.3-6130.5c6.8,0,34.2,0.2,41,0.3"/>
		</g>
	</g>
	<g transform="translate(8559.120181405917 6047.155328798188) rotate(0 725.2562358276627 109.90136054421782)">
		<text transform="matrix(1 0 0 1 -8350.3301 -5856.5596)" class="st1 st3">Arduino MKRZero</text>
	</g>
	<g transform="translate(255.77097505671554 4121.331065759636) rotate(0 384.8866213151923 454.44444444444434)">
		<path class="st0" d="M-243-3980.8c2.2,0,4.3,0,9.3,0 M-243-3980.8c2.2,0,4.4,0,9.3,0 M-233.7-3980.8c3.1,0,4.6,1.5,4.6,4.6
			 M-233.7-3980.8c3.1,0,4.6,1.6,4.6,4.6 M-229.1-3976.2c0,5,0,10,0,12.6 M-229.1-3976.2c0,2.8,0,5.5,0,12.6 M-229.1-3963.5
			c0,3.1-1.6,4.6-4.6,4.6 M-229.1-3963.5c-0.1,3.1-1.5,4.7-4.6,4.6 M-233.7-3958.9c-2.1,0-4.1,0-9.3,0 M-233.7-3958.9
			c-3.4,0-6.7,0-9.3,0 M-243-3958.9c-3,0-4.7-1.6-4.6-4.6 M-243-3958.9c-3.1,0-4.7-1.5-4.6-4.6 M-247.6-3963.5c0-3.8,0-7.6,0-12.6
			 M-247.6-3963.5c0-3.6,0-7.1,0-12.6 M-247.6-3976.2c0-3.1,1.6-4.6,4.6-4.6 M-247.6-3976.2c0-3.1,1.5-4.6,4.6-4.6"/>
	</g>
	<g transform="translate(347.12358276639134 4502.9716553288) rotate(0 293.53401360544376 72.80385487528338)">
		<text transform="matrix(1 0 0 1 -336.1519 -4350.8057)" class="st1 st2">Barometer</text>
	</g>
	<g transform="translate(1071.9160997732251 2155.1632653061224) rotate(0 384.8866213151923 454.44444444444434)">
		<path class="st0" d="M-1039.5-2062c2.3,0,4.7,0,9.3,0 M-1039.5-2062c2.8,0,5.6,0,9.3,0 M-1030.2-2062c3.1,0,4.6,1.5,4.6,4.6
			 M-1030.2-2062c3.1,0,4.7,1.5,4.6,4.6 M-1025.6-2057.3c0,3,0,6.1,0,12.6 M-1025.6-2057.3c0,3.1,0,6.2,0,12.6 M-1025.6-2044.7
			c0,3.1-1.6,4.6-4.6,4.6 M-1025.6-2044.7c0.1,3.1-1.6,4.7-4.6,4.6 M-1030.2-2040.1c-2.3,0-4.6,0-9.3,0 M-1030.2-2040.1
			c-2.6,0-5.2,0-9.3,0 M-1039.5-2040.1c-3.1,0-4.6-1.6-4.6-4.6 M-1039.5-2040.1c-3.1,0-4.6-1.5-4.6-4.6 M-1044.1-2044.7
			c0-2.8,0-5.5,0-12.6 M-1044.1-2044.7c-0.1-3.2,0-6.4,0-12.6 M-1044.1-2057.3c0-3.1,1.5-4.6,4.6-4.6 M-1044.1-2057.3
			c0-3,1.5-4.6,4.6-4.6"/>
	</g>
	<g transform="translate(1163.2687074828718 2536.8038548752825) rotate(0 293.53401360544376 72.80385487528349)">
		<text transform="matrix(1 0 0 1 -1132.6486 -2431.968)" class="st1 st2">Barometer</text>
	</g>
	<g transform="translate(8899.489795918373 7534.301587301587) rotate(0 384.8866213151923 454.44444444444434)">
		<path class="st0" d="M-8678.6-7311.6c2.3,0,4.7,0,9.3,0 M-8678.6-7311.6c3.2,0,6.5,0,9.3,0 M-8669.3-7311.6c3.1,0,4.6,1.6,4.6,4.6
			 M-8669.3-7311.6c3.1,0,4.6,1.6,4.6,4.6 M-8664.7-7307c0,4.6,0,9.1,0,12.6 M-8664.7-7307c0,3.4,0,6.9,0,12.6 M-8664.7-7294.4
			c0,3.1-1.5,4.7-4.6,4.6 M-8664.7-7294.4c0,3.1-1.6,4.6-4.6,4.6 M-8669.3-7289.7c-2.4,0-4.8,0-9.3,0 M-8669.3-7289.7
			c-3.2,0-6.4,0-9.3,0 M-8678.6-7289.7c-3.1,0-4.7-1.5-4.6-4.6 M-8678.6-7289.7c-3.1,0-4.7-1.5-4.6-4.6 M-8683.2-7294.4
			c0-4.2,0-8.4,0-12.6 M-8683.2-7294.4c0-3.6,0-7.2,0-12.6 M-8683.2-7307c0-3.1,1.5-4.6,4.6-4.6 M-8683.2-7307
			c-0.1-3.1,1.6-4.7,4.6-4.6"/>
	</g>
	<g transform="translate(9066.428571428434 7915.942176870751) rotate(0 217.94784580498526 72.80385487528338)">
		<text transform="matrix(1 0 0 1 -8846.3037 -7681.6172)" class="st1 st2">Solenoid</text>
	</g>
	<g transform="translate(283.59410430837306 5735.072562358277) rotate(0 384.8866213151923 454.44444444444434)">
		<path class="st0" d="M-270.1-5555.7c3.1,0,6.2,0,9.3,0 M-270.1-5555.7c3.4,0,6.8,0,9.3,0 M-260.9-5555.7c3.1,0,4.7,1.5,4.6,4.6
			 M-260.9-5555.7c3.1,0,4.7,1.5,4.6,4.6 M-256.2-5551.1c-0.1,4.6,0,9.2,0,12.6 M-256.2-5551.1c0,4.8,0,9.6,0,12.6 M-256.2-5538.4
			c0,3.1-1.6,4.7-4.6,4.6 M-256.2-5538.4c0,3-1.6,4.6-4.6,4.6 M-260.9-5533.8c-2.5,0-4.9,0.1-9.3,0 M-260.9-5533.8c-2.5,0-5,0-9.3,0
			 M-270.1-5533.8c-3.1,0-4.6-1.5-4.6-4.6 M-270.1-5533.8c-3.1,0.1-4.6-1.5-4.6-4.6 M-274.8-5538.4c0-3.5,0-7,0-12.6 M-274.8-5538.4
			c0-4.7,0-9.4,0-12.6 M-274.8-5551.1c0-3,1.5-4.6,4.6-4.6 M-274.8-5551.1c0-3.1,1.6-4.7,4.6-4.6"/>
	</g>
	<g transform="translate(549.7687074828718 6116.713151927437) rotate(0 118.71201814059168 72.80385487528338)">
		<text transform="matrix(1 0 0 1 -534.5871 -5925.6987)" class="st1 st2">GPS</text>
	</g>
	<g transform="translate(1016.2698412697646 6662.510204081629) rotate(0 384.8866213151923 454.44444444444434)">
		<path class="st0" d="M-985.2-6460.8c3.3,0,6.6,0,9.3,0 M-985.2-6460.8c3.3,0,6.6,0.1,9.3,0 M-975.9-6460.8c3.1,0,4.6,1.6,4.6,4.6
			 M-975.9-6460.8c3.1,0,4.7,1.5,4.6,4.6 M-971.3-6456.2c0,4.3,0,8.6,0,12.6 M-971.3-6456.2c0,3.6,0,7.3,0,12.6 M-971.3-6443.6
			c0,3.1-1.6,4.6-4.6,4.6 M-971.3-6443.6c0,3.1-1.6,4.7-4.6,4.6 M-975.9-6438.9c-3.6,0-7.2,0-9.3,0 M-975.9-6438.9
			c-3-0.1-6.1,0-9.3,0 M-985.2-6438.9c-3.1,0-4.7-1.5-4.6-4.6 M-985.2-6438.9c-3.1,0-4.6-1.6-4.6-4.6 M-989.8-6443.6
			c0-3.8,0-7.6,0-12.6 M-989.8-6443.6c0-3.6-0.1-7.2,0-12.6 M-989.8-6456.2c0-3.1,1.5-4.7,4.6-4.6 M-989.8-6456.2
			c0-3.1,1.5-4.6,4.6-4.6"/>
	</g>
	<g transform="translate(1282.4444444445253 7044.15079365079) rotate(0 118.71201814059168 72.80385487528338)">
		<text transform="matrix(1 0 0 1 -1249.6251 -6830.811)" class="st1 st2">GPS</text>
	</g>
	<g transform="translate(2147.7437641723664 6699.60770975056) rotate(0 384.8866213151923 454.44444444444434)">
		<path class="st0" d="M-2089.4-6497c3,0,6,0,9.3,0 M-2089.4-6497c1.9,0,3.9,0,9.3,0 M-2080.1-6497c3.1,0,4.7,1.5,4.6,4.6
			 M-2080.1-6497c3.1,0,4.7,1.5,4.6,4.6 M-2075.5-6492.4c0,4.1,0,8.3,0,12.6 M-2075.5-6492.4c0,4.1-0.1,8.1,0,12.6 M-2075.5-6479.8
			c0,3-1.6,4.6-4.6,4.6 M-2075.5-6479.8c0,3.1-1.5,4.6-4.6,4.6 M-2080.1-6475.1c-2.1,0.1-4.3,0-9.3,0 M-2080.1-6475.1
			c-2.1,0-4.1,0-9.3,0 M-2089.4-6475.1c-3.1,0-4.6-1.5-4.6-4.6 M-2089.4-6475.1c-3.1,0-4.6-1.6-4.6-4.6 M-2094-6479.8
			c0-4.9,0-9.8,0-12.6 M-2094-6479.8c0-4.3,0-8.6,0-12.6 M-2094-6492.4c0-3.1,1.6-4.7,4.6-4.6 M-2094-6492.4c0-3,1.6-4.7,4.6-4.6"/>
	</g>
	<g transform="translate(2413.918367346865 7081.24829931973) rotate(0 118.71201814059168 72.80385487528338)">
		<text transform="matrix(1 0 0 1 -2353.8618 -6867.0151)" class="st1 st2">GPS</text>
	</g>
	<g transform="translate(3733.6621315192315 2229.3582766439904) rotate(0 384.8866213151923 454.44444444444434)">
		<path class="st0" d="M-3637.1-2134.4c2.2,0,4.4,0,9.3,0 M-3637.1-2134.4c2.4,0,4.7,0,9.3,0 M-3627.9-2134.4c3.1,0,4.7,1.5,4.6,4.6
			 M-3627.9-2134.4c3.1,0,4.6,1.5,4.6,4.6 M-3623.2-2129.7c0,4.1,0,8.2,0,12.6 M-3623.2-2129.7c0,3.5,0,6.9,0,12.6 M-3623.2-2117.1
			c0,3.1-1.6,4.7-4.6,4.6 M-3623.2-2117.1c0,3.1-1.6,4.7-4.6,4.6 M-3627.9-2112.5c-3.5,0-7.1,0.1-9.3,0 M-3627.9-2112.5
			c-2.3,0-4.6,0-9.3,0 M-3637.1-2112.5c-3.1,0-4.6-1.6-4.6-4.6 M-3637.1-2112.5c-3.1,0-4.6-1.6-4.6-4.6 M-3641.8-2117.1
			c0-2.8,0-5.6,0-12.6 M-3641.8-2117.1c0-3.5,0-6.9,0-12.6 M-3641.8-2129.7c0-3.1,1.5-4.6,4.6-4.6 M-3641.8-2129.7
			c0.1-3.1,1.6-4.6,4.6-4.6"/>
	</g>
	<g transform="translate(3763.340136054321 2610.998866213152) rotate(0 355.2086167800444 72.80385487528349)">
		<text transform="matrix(1 0 0 1 -3669.1838 -2504.3777)" class="st1 st2">Inertial Unit</text>
	</g>
	<g transform="translate(4976.428571428492 2118.0657596371875) rotate(0 384.8866213151923 454.44444444444423)">
		<path class="st0" d="M-4850-2025.8c3,0,6,0,9.3,0 M-4850-2025.8c3.3,0,6.5,0,9.3,0 M-4840.7-2025.8c3.1,0,4.7,1.5,4.6,4.6
			 M-4840.7-2025.8c3.1,0,4.6,1.6,4.6,4.6 M-4836.1-2021.1c0,4.5,0,9.1,0,12.6 M-4836.1-2021.1c0,4.7,0,9.4,0,12.6 M-4836.1-2008.5
			c0,3.1-1.5,4.6-4.6,4.6 M-4836.1-2008.5c0,3.1-1.5,4.6-4.6,4.6 M-4840.7-2003.9c-3.6,0-7.1-0.1-9.3,0 M-4840.7-2003.9
			c-3.3,0-6.6,0-9.3,0 M-4850-2003.9c-3.1,0-4.6-1.6-4.6-4.6 M-4850-2003.9c-3,0-4.7-1.5-4.6-4.6 M-4854.6-2008.5c0-3.5,0-7,0-12.6
			 M-4854.6-2008.5c0-5,0-10.1,0-12.6 M-4854.6-2021.1c0-3,1.6-4.7,4.6-4.6 M-4854.6-2021.1c0-3.1,1.6-4.6,4.6-4.6"/>
	</g>
	<g transform="translate(5006.10657596364 2499.7063492063476) rotate(0 355.2086167800444 72.80385487528349)">
		<text transform="matrix(1 0 0 1 -4882.0342 -2395.7629)" class="st1 st2">Inertial Unit</text>
	</g>
	<g transform="translate(5774.02494331068 3045.5034013605423) rotate(0 384.8866213151923 454.44444444444434)">
		<path class="st0" d="M-5628.4-2930.9c2.7,0,5.4,0,9.3,0 M-5628.4-2930.9c2.1,0,4.1,0,9.3,0 M-5619.1-2930.9c3.1,0,4.6,1.5,4.6,4.6
			 M-5619.1-2930.9c3.1,0,4.7,1.5,4.6,4.6 M-5614.5-2926.2c0,3.5,0,6.9,0,12.6 M-5614.5-2926.2c0,4.4,0,8.9,0,12.6 M-5614.5-2913.6
			c0,3.1-1.6,4.7-4.6,4.6 M-5614.5-2913.6c0,3.1-1.5,4.6-4.6,4.6 M-5619.1-2909c-2.1,0-4.1,0-9.3,0 M-5619.1-2909
			c-2.9,0.1-5.8,0-9.3,0 M-5628.4-2909c-3.1,0-4.6-1.6-4.6-4.6 M-5628.4-2909c-3.1,0-4.6-1.6-4.6-4.6 M-5633-2913.6
			c0-5,0-9.9,0-12.6 M-5633-2913.6c0-3.4,0-6.8,0-12.6 M-5633-2926.2c0-3.1,1.6-4.6,4.6-4.6 M-5633-2926.2c0-3,1.5-4.7,4.6-4.6"/>
	</g>
	<g transform="translate(5803.702947845741 3427.1439909297033) rotate(0 355.2086167800444 72.80385487528338)">
		<text transform="matrix(1 0 0 1 -5660.4297 -3300.8745)" class="st1 st2">Inertial Unit</text>
	</g>
	<g transform="translate(1479.9886621315381 3365.469387755101) rotate(0 514.7278911564645 514.7278911564622)">
		<path class="st0" d="M-1436.2-3243.1c3.9,0,7.7,0,12.4,0 M-1436.2-3243.1c4.2,0,8.4,0,12.4,0 M-1423.8-3243.1
			c4.1,0,6.2,2.1,6.2,6.2 M-1423.8-3243.1c4.2,0,6.2,2.1,6.2,6.2 M-1417.6-3236.9c0,2.6,0,5.2,0,12.4 M-1417.6-3236.9
			c0,2.6,0,5.2,0,12.4 M-1417.6-3224.5c0,4.2-2,6.2-6.2,6.2 M-1417.6-3224.5c0,4.1-2.1,6.2-6.2,6.2 M-1423.8-3218.3
			c-4,0-7.9-0.1-12.4,0 M-1423.8-3218.3c-4.9,0-9.7,0-12.4,0 M-1436.2-3218.3c-4.1,0-6.2-2-6.2-6.2 M-1436.2-3218.3
			c-4.1,0-6.1-2-6.2-6.2 M-1442.3-3224.5c0-3.4,0-6.7,0-12.4 M-1442.3-3224.5c0-3.2,0-6.4,0-12.4 M-1442.3-3236.9
			c0-4.1,2.1-6.2,6.2-6.2 M-1442.3-3236.9c0-4.2,2.1-6.1,6.2-6.2"/>
	</g>
	<g transform="translate(1611.6848072563007 3661.7857142857138) rotate(0 383.03174603174557 218.41156462585036)">
		<text transform="matrix(1 0 0 1 -1567.1936 -3529.8687)" class="st1 st2">Pressure</text>
		<text transform="matrix(1 0 0 1 -1570.2717 -3526.3628)" class="st1 st2">Determination</text>
		<text transform="matrix(1 0 0 1 -1568.426 -3522.8569)" class="st1 st2">Application</text>
	</g>
	<g transform="translate(3807.8571428571595 3337.6462585034005) rotate(0 514.7278911564645 514.7278911564622)">
		<path class="st0" d="M-3708-3216c4-0.1,8,0,12.4,0 M-3708-3216c3.5,0,7,0,12.4,0 M-3695.6-3216c4.1,0,6.2,2.1,6.2,6.2
			 M-3695.6-3216c4.1,0,6.1,2.1,6.2,6.2 M-3689.4-3209.8c0,4.8,0,9.7,0,12.4 M-3689.4-3209.8c0,3.3,0,6.7,0,12.4 M-3689.4-3197.4
			c0,4.1-2,6.2-6.2,6.2 M-3689.4-3197.4c0,4.1-2.1,6.2-6.2,6.2 M-3695.6-3191.2c-2.5,0-5,0-12.4,0 M-3695.6-3191.2
			c-3.7,0-7.5,0-12.4,0 M-3708-3191.2c-4.2,0-6.2-2.1-6.2-6.2 M-3708-3191.2c-4.1,0-6.2-2.1-6.2-6.2 M-3714.2-3197.4
			c-0.1-3.1-0.1-6.3,0-12.4 M-3714.2-3197.4c0-2.5,0-5,0-12.4 M-3714.2-3209.8c0-4.1,2-6.2,6.2-6.2 M-3714.2-3209.8
			c0-4.1,2.1-6.2,6.2-6.2"/>
	</g>
	<g transform="translate(3939.5532879818056 3633.9625850340144) rotate(0 383.03174603174557 218.41156462585036)">
		<text transform="matrix(1 0 0 1 -3841.103 -3502.7156)" class="st1 st2">Acceleration</text>
		<text transform="matrix(1 0 0 1 -3842.1021 -3499.2097)" class="st1 st2">Determination</text>
		<text transform="matrix(1 0 0 1 -3840.2573 -3495.7039)" class="st1 st2">Application</text>
	</g>
	<g transform="translate(1730.3968253966887 5109.052154195015) rotate(0 514.7278911564645 514.7278911564622)">
		<path class="st0" d="M-1680.5-4944.7c4.9,0,9.8,0,12.4,0 M-1680.5-4944.7c2.7,0,5.4,0,12.4,0 M-1668.1-4944.7
			c4.2,0,6.2,2.1,6.2,6.2 M-1668.1-4944.7c4.1,0,6.2,2.1,6.2,6.2 M-1661.9-4938.5c0,2.7,0,5.5,0,12.4 M-1661.9-4938.5
			c0,4.5,0.1,9,0,12.4 M-1661.9-4926.2c0,4.1-2.1,6.2-6.2,6.2 M-1661.9-4926.2c0,4.1-2.1,6.2-6.2,6.2 M-1668.1-4920
			c-3.7,0-7.4,0-12.4,0 M-1668.1-4920c-3.5,0-7,0-12.4,0 M-1680.5-4920c-4.1,0-6.2-2-6.2-6.2 M-1680.5-4920c-4.1,0-6.2-2-6.2-6.2
			 M-1686.7-4926.2c0-2.6,0-5.2,0-12.4 M-1686.7-4926.2c0-4.9,0-9.7,0-12.4 M-1686.7-4938.5c0-4.2,2.1-6.2,6.2-6.2 M-1686.7-4938.5
			c0-4.2,2.1-6.2,6.2-6.2"/>
	</g>
	<g transform="translate(1862.0929705214803 5405.368480725623) rotate(0 383.03174603174557 218.41156462585013)">
		<text transform="matrix(1 0 0 1 -1808.9573 -5231.48)" class="st1 st2">GPS</text>
		<text transform="matrix(1 0 0 1 -1814.6506 -5227.9731)" class="st1 st2">Determination</text>
		<text transform="matrix(1 0 0 1 -1812.8059 -5224.4702)" class="st1 st2">Application</text>
	</g>
	<g transform="translate(4206.655328798282 6212.702947845804) rotate(0 514.7278911564645 514.7278911564622)">
		<path class="st0" d="M-4097.2-6021.8c3,0,5.9,0,12.4,0 M-4097.2-6021.8c3.1,0,6.1,0,12.4,0 M-4084.8-6021.8c4.1,0,6.2,2.1,6.2,6.2
			 M-4084.8-6021.8c4.2,0,6.2,2.1,6.2,6.2 M-4078.6-6015.6c-0.1,3.1,0,6.2,0,12.4 M-4078.6-6015.6c0,3.5,0,7,0,12.4 M-4078.6-6003.2
			c0,4.1-2.1,6.2-6.2,6.2 M-4078.6-6003.2c-0.1,4.2-2.1,6.2-6.2,6.2 M-4084.8-5997c-2.7,0-5.4,0-12.4,0 M-4084.8-5997
			c-3.1,0-6.3,0-12.4,0 M-4097.2-5997c-4.1,0-6.2-2.1-6.2-6.2 M-4097.2-5997c-4.2,0.1-6.2-2.1-6.2-6.2 M-4103.4-6003.2
			c0-3.9,0-7.7,0-12.4 M-4103.4-6003.2c0-2.7,0-5.5,0-12.4 M-4103.4-6015.6c0-4.1,2.1-6.2,6.2-6.2 M-4103.4-6015.6
			c0-4.2,2.1-6.2,6.2-6.2"/>
	</g>
	<g transform="translate(4435.268707483017 6637.469387755098) rotate(0 276.84013605442306 72.80385487528338)">
		<text transform="matrix(1 0 0 1 -4325.8232 -6433.9194)" class="st1 st2">Telemetry</text>
	</g>
	<g>
		<g transform="translate(1790.6988720348163 3027.024641763569) rotate(0 148.42794151848648 166.86933624743756)">
			<path class="st0" d="M-1745.6-2912.9c1,0.6,5.1,2,6.2,3.4c1.2,1.3,0.7,3.9,0.9,4.7 M-1745.6-2912.8c1,0.6,5.1,2,6.3,3.3
				c1.2,1.3,0.7,3.9,0.9,4.7"/>
		</g>
	</g>
	<g>
		<g transform="translate(891.1357528747758 3509.2462680562476) rotate(0 291.499323579621 70.29060195659486)">
			<path class="st0" d="M-867.7-3383.4c0.9,0.3,3,1.4,5.4,2c2.3,0.6,7.3,1.1,8.7,1.3 M-867.7-3383.5c0.9,0.3,3,1.4,5.4,2
				c2.3,0.6,7.2,1.2,8.6,1.4"/>
		</g>
	</g>
	<g>
		<g transform="translate(1030.235458788913 4427.4487783917775) rotate(0 222.36977332838433 -171.1926743859467)">
			<path class="st0" d="M-1003.4-4279.6c0.4-0.8,0.7-3.3,2.5-4.7c1.8-1.4,6.9-2.9,8.3-3.5 M-1003.4-4279.5c0.4-0.8,0.7-3.3,2.5-4.7
				c1.8-1.4,6.9-3,8.3-3.6"/>
		</g>
	</g>
	<g>
		<g transform="translate(1058.0509555564495 5948.47240986778) rotate(0 334.03974635760096 -209.121959674364)">
			<path class="st0" d="M-1030.6-5763.9c0.8-0.9,2-3.7,4.7-5.4c2.7-1.7,9.5-3.9,11.4-4.7 M-1030.5-5764c0.8-0.9,1.9-3.7,4.6-5.4
				c2.7-1.7,9.5-3.9,11.4-4.7"/>
		</g>
	</g>
	<g>
		<g transform="translate(1438.3112456683739 6662.520371188355) rotate(0 161.3229348910536 -301.64852769099707)">
			<path class="st0" d="M-1401.7-6460.8c0.1-1.3-0.9-5.6,0.4-8c1.3-2.4,6.3-5.4,7.6-6.5 M-1401.7-6460.8c0.1-1.3-0.9-5.6,0.5-8
				c1.3-2.4,6.3-5.4,7.6-6.4"/>
		</g>
	</g>
	<g>
		<g transform="translate(2514.152698365011 6690.356000437945) rotate(0 -45.83359775156714 -273.5930972942492)">
			<path class="st0" d="M-2451.6-6488c0-0.9,0.2-3.4-0.2-5.6c-0.4-2.2-1.7-6.3-2-7.6 M-2451.6-6488c0-0.9,0.1-3.4-0.3-5.6
				c-0.4-2.2-1.7-6.3-2-7.5"/>
		</g>
	</g>
	<g>
		<g transform="translate(4192.814852517535 3128.9419731874605) rotate(0 101.37210694327223 107.72087909438073)">
			<path class="st0" d="M-4089.9-3012.3c0.6,0.4,2.5,1.4,3.4,2.2s1.3,2.4,1.5,2.9 M-4089.9-3012.3c0.6,0.4,2.6,1.4,3.4,2.3
				c0.8,0.9,1.3,2.4,1.5,2.9"/>
		</g>
	</g>
	<g>
		<g transform="translate(5110.934368547707 3026.949731647589) rotate(0 -138.14592023609293 222.43989628763006)">
			<path class="st0" d="M-4985.9-2912.7c-0.1,1,0.4,4.4-0.7,6.2c-1.1,1.8-5,3.7-6,4.4 M-4985.9-2912.8c-0.1,1,0.4,4.5-0.7,6.3
				c-1.1,1.8-5,3.7-6,4.4"/>
		</g>
	</g>
	<g>
		<g transform="translate(5797.290608879179 3889.563031654646) rotate(0 -477.81469969712634 97.16429647648783)">
			<path class="st0" d="M-5655.7-3754.6c-1.8,0.7-6.9,3.2-10.7,4c-3.8,0.8-10.3,0.5-12.3,0.7 M-5655.7-3754.6
				c-1.8,0.7-6.9,3.2-10.7,4c-3.8,0.8-10.2,0.6-12.2,0.7"/>
		</g>
	</g>
	<g>
		<g transform="translate(4378.271863126618 4371.849667847577) rotate(0 -18.931538694720075 245.56185096811305)">
			<path class="st0" d="M-4270.9-4225.3c-0.2,1.1-0.8,4.7-0.9,6.7c0,2,0.5,4.3,0.7,5.2 M-4270.9-4225.3c-0.2,1.1-0.8,4.8-0.9,6.7
				c0,2,0.5,4.3,0.7,5.1"/>
		</g>
	</g>
	<g>
		<g transform="translate(2477.006794088651 4297.591867370222) rotate(0 844.3639318741552 380.361774210558)">
			<path class="st0" d="M-2415.4-4152.8c2.7,2.1,9.5,9.7,16.3,12.7c6.8,3.1,20.3,4.7,24.4,5.6 M-2415.3-4152.8
				c2.7,2.1,9.5,9.7,16.3,12.8c6.8,3,20.3,4.6,24.3,5.5"/>
		</g>
	</g>
	<g>
		<g transform="translate(2764.5674526606454 5484.732721695951) rotate(0 700.1209932131169 -47.98931942301306)">
			<path class="st0" d="M-2696-5311.4c2.3,0.1,8.2,1,13.8,0.5c5.6-0.5,16.6-2.8,19.9-3.4 M-2696-5311.4c2.3,0.1,8.2,0.9,13.8,0.4
				c5.6-0.5,16.6-2.8,19.9-3.3"/>
		</g>
	</g>
	<g>
		<g transform="translate(2736.6504083473556 6031.830950637961) rotate(0 732.4738776269078 334.2197713661294)">
			<path class="st0" d="M-2668.7-5845.3c2.7,2.4,10.2,11.9,16,14.5c5.9,2.6,16,1.1,19.2,1.3 M-2668.8-5845.3
				c2.7,2.4,10.2,11.8,16.1,14.5c5.9,2.6,15.9,1.1,19.1,1.4"/>
		</g>
	</g>
	<g>
		<g transform="translate(4786.3122048625955 4288.338163872832) rotate(0 348.0518282758276 992.1709482041979)">
			<path class="st0" d="M-4669.1-4143.8c2.8,1.9,14.9,3.7,16.5,11.6c1.6,8-5.8,30.1-7,36.2 M-4669.1-4143.8
				c2.8,1.9,14.9,3.6,16.5,11.6s-5.7,30.1-6.9,36.2"/>
		</g>
	</g>
	<g>
		<g transform="translate(2412.131814666558 4362.47074241667) rotate(0 917.4463904142322 950.96096676347)">
			<path class="st0" d="M-2352.1-4216.1c2.7,3.5,9.2,13.3,16.5,20.9s23.1,20.7,27.7,24.8 M-2352-4216.1c2.8,3.5,9.2,13.4,16.5,21
				c7.4,7.6,23,20.7,27.6,24.8"/>
		</g>
	</g>
	<g>
		<g transform="translate(4721.46130662231 5874.233761714776) rotate(0 -25.11710531918652 166.9758046880579)">
			<path class="st0" d="M-4605.8-5691.5c-0.2,0.9-1,3.8-1.2,5.1c-0.2,1.3,0,2.4,0,2.9 M-4605.8-5691.5c-0.2,0.9-0.9,3.8-1.1,5.1
				c-0.2,1.3-0.1,2.4-0.1,2.9"/>
		</g>
	</g>
	<g transform="translate(10466.8594104308 2451.9433106575952) rotate(0 514.7278911564645 514.7278911564622)">
		<path class="st0" d="M-10206.7-2351.6c4.1,0,8.2,0,12.4,0 M-10206.7-2351.6c3.7,0,7.3,0,12.4,0 M-10194.3-2351.6
			c4.1,0,6.2,2.1,6.2,6.2 M-10194.3-2351.6c4.1,0,6.2,2.1,6.2,6.2 M-10188.1-2345.4c0,2.9,0,5.8,0,12.4 M-10188.1-2345.4
			c0,3.1,0,6.1,0,12.4 M-10188.1-2333c0,4.1-2,6.2-6.2,6.2 M-10188.1-2333c0,4.2-2,6.1-6.2,6.2 M-10194.3-2326.8c-3,0-6,0-12.4,0
			 M-10194.3-2326.8c-2.7,0-5.4,0-12.4,0 M-10206.7-2326.8c-4.2,0-6.2-2.1-6.2-6.2 M-10206.7-2326.8c-4.1,0-6.2-2.1-6.2-6.2
			 M-10212.9-2333c0-4.5,0-9.1,0-12.4 M-10212.9-2333c0-2.7,0-5.4,0-12.4 M-10212.9-2345.4c0-4.1,2.1-6.2,6.2-6.2 M-10212.9-2345.4
			c0-4.2,2-6.2,6.2-6.2"/>
	</g>
	<g transform="translate(10598.555555555591 2748.2596371882078) rotate(0 383.03174603174557 218.41156462585036)">
		<text transform="matrix(1 0 0 1 -10337.4951 -2638.3328)" class="st1 st2">Flowrate</text>
		<text transform="matrix(1 0 0 1 -10340.8057 -2634.8279)" class="st1 st2">Determination</text>
		<text transform="matrix(1 0 0 1 -10338.96 -2631.322)" class="st1 st2">Application</text>
	</g>
	<g transform="translate(8769.648526077013 4710.253968253967) rotate(0 384.8866213151923 454.44444444444434)">
		<path class="st0" d="M-8551.9-4555.5c3.4-0.1,6.8,0,9.3,0 M-8551.9-4555.5c2,0,4.1,0,9.3,0 M-8542.6-4555.5c3.1,0,4.6,1.5,4.6,4.6
			 M-8542.6-4555.5c3.1,0.1,4.6,1.5,4.6,4.6 M-8538-4550.9c0,3.7,0,7.3,0,12.6 M-8538-4550.9c0,3,0,6.1,0,12.6 M-8538-4538.3
			c0,3.1-1.5,4.6-4.6,4.6 M-8538-4538.3c0,3.1-1.6,4.6-4.6,4.6 M-8542.6-4533.7c-2.4,0-4.9,0-9.3,0 M-8542.6-4533.7
			c-2.8,0-5.5,0-9.3,0 M-8551.9-4533.7c-3.1,0-4.6-1.5-4.6-4.6 M-8551.9-4533.7c-3,0-4.6-1.5-4.6-4.6 M-8556.5-4538.3
			c0-2.5,0-5.1,0-12.6 M-8556.5-4538.3c0-2.7,0-5.4,0-12.6 M-8556.5-4550.9c0-3.1,1.5-4.6,4.6-4.6 M-8556.5-4550.9
			c0-3,1.5-4.7,4.6-4.6"/>
	</g>
	<g transform="translate(8861.001133786835 5091.894557823129) rotate(0 293.53401360544376 72.80385487528338)">
		<text transform="matrix(1 0 0 1 -8645.0781 -4925.5518)" class="st1 st2">Barometer</text>
	</g>
	<g transform="translate(9789.82993197284 4728.802721088433) rotate(0 384.8866213151923 454.44444444444434)">
		<path class="st0" d="M-9547.5-4573.6c3.4,0.1,6.9,0,9.3,0 M-9547.5-4573.6c3.1,0,6.2,0,9.3,0 M-9538.3-4573.6
			c3.1,0,4.7,1.6,4.6,4.6 M-9538.3-4573.6c3.1,0,4.6,1.6,4.6,4.6 M-9533.6-4569c0,4.5,0,9.1,0,12.6 M-9533.6-4569
			c0,3.2,0,6.3,0,12.6 M-9533.6-4556.4c0,3.1-1.6,4.7-4.6,4.6 M-9533.6-4556.4c0,3.1-1.6,4.6-4.6,4.6 M-9538.3-4551.8
			c-2.2,0.1-4.5,0-9.3,0 M-9538.3-4551.8c-2.2,0-4.3,0-9.3,0 M-9547.5-4551.8c-3.1,0-4.6-1.6-4.6-4.6 M-9547.5-4551.8
			c-3.1,0-4.7-1.5-4.6-4.6 M-9552.2-4556.4c0-3,0-6,0-12.6 M-9552.2-4556.4c0-3.5,0-7,0-12.6 M-9552.2-4569c0-3,1.5-4.6,4.6-4.6
			 M-9552.2-4569c0-3.1,1.6-4.6,4.6-4.6"/>
	</g>
	<g transform="translate(9881.182539682573 5110.443310657594) rotate(0 293.53401360544376 72.80385487528338)">
		<text transform="matrix(1 0 0 1 -9640.7002 -4943.6533)" class="st1 st2">Barometer</text>
	</g>
	<g transform="translate(10837.834467120207 4719.528344671198) rotate(0 384.8866213151923 454.44444444444434)">
		<path class="st0" d="M-10570.3-4564.6c1.9-0.1,3.8,0,9.3,0 M-10570.3-4564.6c2.5,0,5,0,9.3,0 M-10561-4564.6
			c3.1,0,4.6,1.5,4.6,4.6 M-10561-4564.6c3.1,0,4.7,1.6,4.6,4.6 M-10556.4-4560c0,4.9,0,9.8,0,12.6 M-10556.4-4560
			c0,2.8,0,5.6,0,12.6 M-10556.4-4547.3c0,3.1-1.6,4.6-4.6,4.6 M-10556.4-4547.3c0,3.1-1.6,4.7-4.6,4.6 M-10561-4542.7
			c-3.6,0-7.2,0-9.3,0 M-10561-4542.7c-2.2,0-4.3,0-9.3,0 M-10570.3-4542.7c-3.1,0-4.6-1.5-4.6-4.6 M-10570.3-4542.7
			c-3.1,0-4.7-1.5-4.6-4.6 M-10574.9-4547.3c-0.1-2.8-0.1-5.7,0-12.6 M-10574.9-4547.3c0-3.9,0-7.7,0-12.6 M-10574.9-4560
			c0-3.1,1.5-4.7,4.6-4.6 M-10574.9-4560c0-3.1,1.5-4.7,4.6-4.6"/>
	</g>
	<g transform="translate(10929.18707482997 5101.168934240362) rotate(0 293.53401360544376 72.80385487528338)">
		<text transform="matrix(1 0 0 1 -10663.4775 -4934.6006)" class="st1 st2">Barometer</text>
	</g>
	<g transform="translate(10494.682539682573 3564.8684807256222) rotate(0 514.7278911564645 514.7278911564622)">
		<path class="st0" d="M-10233.8-3437.7c2.5,0,5,0,12.4,0 M-10233.8-3437.7c4.5,0,9.1,0,12.4,0 M-10221.4-3437.7
			c4.1,0,6.2,2.1,6.2,6.2 M-10221.4-3437.7c4.1,0,6.2,2,6.2,6.2 M-10215.3-3431.5c0,4.9,0,9.8,0,12.4 M-10215.3-3431.5
			c0,4.3,0,8.5,0,12.4 M-10215.3-3419.1c0,4.1-2,6.1-6.2,6.2 M-10215.3-3419.1c0,4.1-2.1,6.2-6.2,6.2 M-10221.4-3412.9
			c-3.1,0-6.3,0-12.4,0 M-10221.4-3412.9c-4.3,0-8.6,0-12.4,0 M-10233.8-3412.9c-4.2,0-6.2-2.1-6.2-6.2 M-10233.8-3412.9
			c-4.1,0-6.2-2.1-6.2-6.2 M-10240-3419.1c0-2.5,0-5,0-12.4 M-10240-3419.1c0-2.9,0-5.9,0-12.4 M-10240-3431.5
			c0-4.1,2.1-6.2,6.2-6.2 M-10240-3431.5c0.1-4.2,2-6.2,6.2-6.2"/>
	</g>
	<g transform="translate(10626.37868480719 3861.1848072562343) rotate(0 383.03174603174557 218.41156462585036)">
		<text transform="matrix(1 0 0 1 -10364.8809 -3724.467)" class="st1 st2">Pressure</text>
		<text transform="matrix(1 0 0 1 -10367.958 -3720.9622)" class="st1 st2">Determination</text>
		<text transform="matrix(1 0 0 1 -10366.1123 -3717.4573)" class="st1 st2">Application</text>
	</g>
	<g transform="translate(8389.399092970561 3314.4603174603144) rotate(0 514.7278911564645 514.7278911564622)">
		<path class="st0" d="M-8179.2-3193.3c4,0,8,0,12.4,0 M-8179.2-3193.3c3.7,0,7.4,0,12.4,0 M-8166.8-3193.3c4.1,0,6.2,2.1,6.2,6.2
			 M-8166.8-3193.3c4.1,0,6.2,2.1,6.2,6.2 M-8160.6-3187.2c0,4.8,0,9.5,0,12.4 M-8160.6-3187.2c0,4.6,0,9.1,0,12.4 M-8160.6-3174.8
			c0,4.2-2.1,6.2-6.2,6.2 M-8160.6-3174.8c-0.1,4.2-2.1,6.2-6.2,6.2 M-8166.8-3168.6c-3,0-5.9,0-12.4,0 M-8166.8-3168.6
			c-3.7,0-7.4,0-12.4,0 M-8179.2-3168.6c-4.1,0-6.2-2.1-6.2-6.2 M-8179.2-3168.6c-4.2,0-6.2-2.1-6.2-6.2 M-8185.4-3174.8
			c0-4.4,0-8.9,0-12.4 M-8185.4-3174.8c0-4.8,0-9.7,0-12.4 M-8185.4-3187.2c0-4.1,2.1-6.2,6.2-6.2 M-8185.4-3187.2
			c0-4.1,2-6.2,6.2-6.2"/>
	</g>
	<g transform="translate(8610.59297052148 3610.77664399093) rotate(0 293.53401360544376 218.41156462585036)">
		<text transform="matrix(1 0 0 1 -8399.543 -3480.0862)" class="st1 st2">Flowrate</text>
		<text transform="matrix(1 0 0 1 -8398.6963 -3476.5823)" class="st1 st2">Control</text>
		<text transform="matrix(1 0 0 1 -8401.0068 -3473.0774)" class="st1 st2">Application</text>
	</g>
	<g transform="translate(8398.67346938778 2632.7936507936497) rotate(0 384.8866213151923 227.22222222222217)">
		<path class="st0" d="M-8191.7-2528.1c3.3,0.1,6.6,0,13.1,0 M-8191.7-2528.1c4.8,0,9.5,0,13.1,0 M-8178.7-2528.1
			c1.8,0,2.8,0.9,2.7,2.7 M-8178.7-2528.1c1.9,0,2.7,0.9,2.7,2.7 M-8176-2525.4c0,1.2,0,2.5,0,5.5 M-8176-2525.4c0,1.6,0,3.2,0,5.5
			 M-8176-2519.9c0,1.8-0.9,2.7-2.7,2.7 M-8176-2519.9c0,1.8-0.9,2.7-2.7,2.7 M-8178.7-2517.2c-5.1,0-10.3,0-13.1,0 M-8178.7-2517.2
			c-3.4,0-6.8,0-13.1,0 M-8191.7-2517.2c-1.8,0-2.8-0.9-2.7-2.7 M-8191.7-2517.2c-1.8,0.1-2.7-0.9-2.7-2.7 M-8194.5-2519.9
			c0.1-1.8,0-3.5,0-5.5 M-8194.5-2519.9c0-1.2,0-2.4,0-5.5 M-8194.5-2525.4c0-1.8,0.9-2.7,2.7-2.7 M-8194.5-2525.4
			c0-1.8,1-2.7,2.7-2.7"/>
	</g>
	<g transform="translate(8638.416099773312 2791.849206349205) rotate(0 145.14399092970416 72.80385487528349)">
		<text transform="matrix(1 0 0 1 -8428.3203 -2680.8726)" class="st1 st2">Valve</text>
	</g>
	<g>
		<g transform="translate(11111.534672220208 2336.0823452142627) rotate(0 -0.048373430254287086 50.87807835346666)">
			<path class="st0" d="M-10842-2238.5c0,0.4,0,2.1,0,2.5 M-10842.1-2238.5c0,0.4,0.1,2,0.1,2.4"/>
		</g>
	</g>
	<g>
		<g transform="translate(11148.618712104784 4719.572102655215) rotate(0 -5.033291159321379 -60.458980113555754)">
			<path class="st0" d="M-10878.2-4564.6c0-0.5-0.2-2.4-0.2-2.9 M-10878.2-4564.7c0-0.5-0.2-2.4-0.2-2.9"/>
		</g>
	</g>
	<g>
		<g transform="translate(10286.059923613822 4728.867218082047) rotate(0 111.54492765278701 -134.58445737100442)">
			<path class="st0" d="M-10036.4-4573.7c0.2-0.7,0.2-3.4,1.1-4.5s3.5-1.7,4.2-2 M-10036.5-4573.7c0.2-0.7,0.2-3.4,1.1-4.4
				c0.9-1.1,3.6-1.7,4.3-2"/>
		</g>
	</g>
	<g>
		<g transform="translate(9136.002879196472 4710.350072736668) rotate(0 681.9921800557713 -176.79287170408838)">
			<path class="st0" d="M-8914-4555.6c2.9-1.1,11.9-5.1,17.4-6.5c5.5-1.4,12.9-1.6,15.4-2 M-8914.1-4555.7c2.9-1.1,12-5,17.5-6.4
				c5.5-1.4,12.8-1.7,15.4-2.1"/>
		</g>
	</g>
	<g>
		<g transform="translate(9646.113431020087 2308.2569731926496) rotate(0 426.37364266433724 111.73251532107156)">
			<path class="st0" d="M-9411.9-2211.4c1.7,0.6,6.9,2.4,10.3,3.3c3.4,0.9,8.6,1.7,10.3,2 M-9411.9-2211.4c1.7,0.6,6.8,2.5,10.2,3.4
				c3.4,0.9,8.6,1.7,10.3,2"/>
		</g>
	</g>
	<g>
		<g transform="translate(8663.029936757099 2289.7270903507588) rotate(0 903.7539302281439 175.93565731174863)">
			<path class="st0" d="M-8452.5-2193.3c2.4,0.8,7.3,3.3,14.5,4.7c7.3,1.4,24.2,3.2,29,3.8 M-8452.4-2193.3
				c2.4,0.8,7.2,3.3,14.4,4.7c7.2,1.4,24.2,3.1,29,3.8"/>
		</g>
	</g>
	<g>
		<g transform="translate(10499.382142589035 3977.608993441638) rotate(0 -537.7885052603306 -21.29692925098152)">
			<path class="st0" d="M-10244.6-3840.5c-2.7,0-12.2,0.4-16.5,0.2c-4.3-0.2-7.9-1.3-9.4-1.6 M-10244.6-3840.5
				c-2.7,0-12.2,0.5-16.5,0.2c-4.3-0.2-7.8-1.3-9.4-1.6"/>
		</g>
	</g>
	<g>
		<g transform="translate(10462.256178658441 3235.756472339361) rotate(0 -518.9995501095182 203.41167522792216)">
			<path class="st0" d="M-10208.4-3116.6c-2.7,1.5-11.9,7.1-16.1,8.7c-4.2,1.6-7.4,0.9-8.9,1.1 M-10208.4-3116.6
				c-2.7,1.4-12,7.1-16.1,8.7c-4.2,1.6-7.4,1-8.9,1.2"/>
		</g>
	</g>
	<g>
		<g transform="translate(8876.36022524489 3328.489521113368) rotate(0 -46.747957460873295 -126.18559247344717)">
			<path class="st0" d="M-8660.7-3207c-0.3-0.3-1.4-0.8-1.8-1.8c-0.4-1-0.4-3.5-0.5-4.2 M-8660.7-3207.1c-0.3-0.3-1.4-0.8-1.8-1.8
				s-0.3-3.5-0.4-4.2"/>
		</g>
	</g>
	<g>
		<g transform="translate(10490.039211321564 4209.520368436374) rotate(0 -2629.344968263562 1112.3964055365723)">
			<path class="st0" d="M-10235.5-4066.9c-13.6,3.3-60.4,10.7-81.5,19.7s-37.6,28.3-45.1,33.9 M-10235.5-4066.8
				c-13.6,3.3-60.3,10.7-81.4,19.6c-21.1,8.9-37.6,28.3-45.1,33.9"/>
		</g>
	</g>
	<g>
		<g transform="translate(10453.02383663076 2818.3069030289375) rotate(0 -2615.4074860219916 1507.718765825336)">
			<path class="st0" d="M-10199.4-2709.1c-10-1.8-47.1-10.5-60.3-10.7c-13.2-0.2-7.8-6.3-18.7,9.6c-10.9,15.9-39.1,71.4-46.9,85.7
				 M-10199.4-2709.2c-10-1.8-47.1-10.5-60.3-10.7s-7.9-6.3-18.8,9.6c-11,15.9-39.1,71.5-46.9,85.7"/>
		</g>
	</g>
	<g>
		<g transform="translate(5203.7828633470635 5405.9112640489275) rotate(0 1849.0887671554374 764.4230623440103)">
			<path class="st0" d="M-5076.5-5234.5c9.9,5.3,44.8,25.6,59.6,31.7s24.6,4.3,29.5,5.1 M-5076.5-5234.4
				c9.9,5.3,44.8,25.6,59.6,31.7c14.8,6.1,24.6,4.2,29.5,5.1"/>
		</g>
	</g>
	<g>
		<g transform="translate(5185.108558172098 5591.371388143019) rotate(0 1854.8380497785838 1323.7690994385111)">
			<path class="st0" d="M-5058.3-5415.5c11.8,9.5,55.9,46.6,70.7,57.2c14.9,10.5,15.5,5,18.5,6 M-5058.3-5415.4
				c11.8,9.5,55.9,46.6,70.8,57.1c14.9,10.5,15.4,5,18.5,6"/>
		</g>
	</g>
	<g transform="translate(2979.1916099772643 10) rotate(0 3671.261904761901 183.6326530612244)">
		<text transform="matrix(1 0 0 1 -2905.9187 37.7568)" class="st1 st4">Potential electronic system of ESL-2 without Luos</text>
	</g>
</g>
</svg>
