<?xml version="1.0" encoding="utf-8"?>
<!-- Generator: Adobe Illustrator 26.5.0, SVG Export Plug-In . SVG Version: 6.00 Build 0)  -->
<svg version="1.1" id="Calque_1" xmlns="http://www.w3.org/2000/svg" xmlns:xlink="http://www.w3.org/1999/xlink" x="0px" y="0px"
	 viewBox="0 0 300 300" style="enable-background:new 0 0 300 300;" xml:space="preserve">
<style type="text/css">
	.st0{fill:#FFFFFF;}
	.st1{font-family:'ArialMT';}
	.st2{font-size:4.1524px;}
	.st3{font-size:2.7507px;}
	.st4{fill:none;stroke:#FFFFFF;stroke-linecap:round;stroke-miterlimit:12;}
	.st5{font-size:6.9447px;}
</style>
<g>
	<g transform="translate(9526.90136054423 853.5045351473918) rotate(0 517.9739229024926 109.90136054421767)">
		<text transform="matrix(1 0 0 1 -9294.5273 -783.0096)" class="st0 st1 st2">Third Board</text>
	</g>
	<g transform="translate(2440.8140589568648 1456.3390022675735) rotate(0 656.6081286017579 109.90136054421768)">
		<text transform="matrix(1 0 0 1 -2378.1934 -1371.4252)" class="st0 st1 st2">Nucleo L073RZ</text>
	</g>
	<g transform="translate(8559.120181405917 6047.155328798188) rotate(0 725.2562358276627 109.90136054421782)">
		<text transform="matrix(1 0 0 1 -8350.7051 -5852.4346)" class="st0 st1 st2">Arduino MKRZero</text>
	</g>
	<g>
		<g transform="translate(8455.710884353786 1762.3934240362805) rotate(0 272.2029478458062 72.80385487528343)">
			<text transform="matrix(1 0 0 1 -8250.4102 -1671.4073)" class="st0 st1 st3">Flowmeter</text>
		</g>
		<g transform="translate(9531.538548752753 1785.5793650793642) rotate(0 272.2029478458062 72.80385487528343)">
			<text transform="matrix(1 0 0 1 -9300.5049 -1694.0396)" class="st0 st1 st3">Flowmeter</text>
		</g>
		<g transform="translate(10755.756235827663 1799.4909297052152) rotate(0 272.2029478458062 72.80385487528343)">
			<text transform="matrix(1 0 0 1 -10495.4404 -1707.6172)" class="st0 st1 st3">Flowmeter</text>
		</g>
		<g transform="translate(212.6451247164805 3255.5680272108875) rotate(0 293.53401360544376 72.80385487528338)">
			<text transform="matrix(1 0 0 1 -203.9991 -3128.8672)" class="st0 st1 st3">Barometer</text>
		</g>
		<g transform="translate(4195.989795918402 5209.215419501133) rotate(0 479.021541950111 145.60770975056676)">
			<text transform="matrix(1 0 0 1 -4091.915 -5035.7856)" class="st0 st1 st3">Apogee detection</text>
			<text transform="matrix(1 0 0 1 -4087.9385 -5032.3022)" class="st0 st1 st3">Application</text>
		</g>
		<g transform="translate(9066.428571428434 6798.379818594101) rotate(0 217.94784580498526 72.80385487528338)">
			<text transform="matrix(1 0 0 1 -8846.75 -6586.9385)" class="st0 st1 st3">Solenoid</text>
		</g>
		<g transform="translate(347.12358276639134 4502.9716553288) rotate(0 293.53401360544376 72.80385487528338)">
			<text transform="matrix(1 0 0 1 -335.2607 -4346.4336)" class="st0 st1 st3">Barometer</text>
		</g>
		<g transform="translate(1163.2687074828718 2536.8038548752825) rotate(0 293.53401360544376 72.80385487528349)">
			<text transform="matrix(1 0 0 1 -1131.8854 -2427.2944)" class="st0 st1 st3">Barometer</text>
		</g>
		<g transform="translate(9066.428571428434 7915.942176870751) rotate(0 217.94784580498526 72.80385487528338)">
			<text transform="matrix(1 0 0 1 -8846.75 -7677.7705)" class="st0 st1 st3">Solenoid</text>
		</g>
		<g transform="translate(549.7687074828718 6116.713151927437) rotate(0 118.71201814059168 72.80385487528338)">
			<text transform="matrix(1 0 0 1 -533.7252 -5921.5776)" class="st0 st1 st3">GPS</text>
		</g>
		<g transform="translate(1282.4444444445253 7044.15079365079) rotate(0 118.71201814059168 72.80385487528338)">
			<text transform="matrix(1 0 0 1 -1248.8756 -6826.8315)" class="st0 st1 st3">GPS</text>
		</g>
		<g transform="translate(2413.918367346865 7081.24829931973) rotate(0 118.71201814059168 72.80385487528338)">
			<text transform="matrix(1 0 0 1 -2353.2871 -6863.0415)" class="st0 st1 st3">GPS</text>
		</g>
		<g transform="translate(3763.340136054321 2610.998866213152) rotate(0 355.2086167800444 72.80385487528349)">
			<text transform="matrix(1 0 0 1 -3668.8259 -2499.7158)" class="st0 st1 st3">Inertial Unit</text>
		</g>
		<g transform="translate(5006.10657596364 2499.7063492063476) rotate(0 355.2086167800444 72.80385487528349)">
			<text transform="matrix(1 0 0 1 -4881.8667 -2391.0845)" class="st0 st1 st3">Inertial Unit</text>
		</g>
		<g transform="translate(5803.702947845741 3427.1439909297033) rotate(0 355.2086167800444 72.80385487528338)">
			<text transform="matrix(1 0 0 1 -5660.3862 -3296.3386)" class="st0 st1 st3">Inertial Unit</text>
		</g>
		<g transform="translate(1611.6848072563007 3661.7857142857138) rotate(0 383.03174603174557 218.41156462585036)">
			<text transform="matrix(1 0 0 1 -1566.5164 -3525.3679)" class="st0 st1 st3">Pressure</text>
			<text transform="matrix(1 0 0 1 -1569.5759 -3521.8855)" class="st0 st1 st3">Determination</text>
			<text transform="matrix(1 0 0 1 -1567.7429 -3518.4021)" class="st0 st1 st3">Application</text>
		</g>
		<g transform="translate(3939.5532879818056 3633.9625850340144) rotate(0 383.03174603174557 218.41156462585036)">
			<text transform="matrix(1 0 0 1 -3840.7715 -3498.2109)" class="st0 st1 st3">Acceleration</text>
			<text transform="matrix(1 0 0 1 -3841.7656 -3494.7285)" class="st0 st1 st3">Determination</text>
			<text transform="matrix(1 0 0 1 -3839.9307 -3491.2451)" class="st0 st1 st3">Application</text>
		</g>
		<g transform="translate(1862.0929705214803 5405.368480725623) rotate(0 383.03174603174557 218.41156462585013)">
			<text transform="matrix(1 0 0 1 -1808.3376 -5227.2466)" class="st0 st1 st3">GPS</text>
			<text transform="matrix(1 0 0 1 -1813.9949 -5223.7642)" class="st0 st1 st3">Determination</text>
			<text transform="matrix(1 0 0 1 -1812.1609 -5220.2817)" class="st0 st1 st3">Application</text>
		</g>
		<g transform="translate(4435.268707483017 6637.469387755098) rotate(0 276.84013605442306 72.80385487528338)">
			<text transform="matrix(1 0 0 1 -4325.563 -6429.8774)" class="st0 st1 st3">Telemetry</text>
		</g>
		<g transform="translate(10598.555555555591 2748.2596371882078) rotate(0 383.03174603174557 218.41156462585036)">
			<text transform="matrix(1 0 0 1 -10338.2041 -2633.6924)" class="st0 st1 st3">Flowrate</text>
			<text transform="matrix(1 0 0 1 -10341.4922 -2630.21)" class="st0 st1 st3">Determination</text>
			<text transform="matrix(1 0 0 1 -10339.6582 -2626.7275)" class="st0 st1 st3">Application</text>
		</g>
		<g transform="translate(8861.001133786835 5091.894557823129) rotate(0 293.53401360544376 72.80385487528338)">
			<text transform="matrix(1 0 0 1 -8645.4961 -4921.2695)" class="st0 st1 st3">Barometer</text>
		</g>
		<g transform="translate(9881.182539682573 5110.443310657594) rotate(0 293.53401360544376 72.80385487528338)">
			<text transform="matrix(1 0 0 1 -9641.2764 -4939.376)" class="st0 st1 st3">Barometer</text>
		</g>
		<g transform="translate(10929.18707482997 5101.168934240362) rotate(0 293.53401360544376 72.80385487528338)">
			<text transform="matrix(1 0 0 1 -10664.2148 -4930.3232)" class="st0 st1 st3">Barometer</text>
		</g>
		<g transform="translate(10626.37868480719 3861.1848072562343) rotate(0 383.03174603174557 218.41156462585036)">
			<text transform="matrix(1 0 0 1 -10365.5908 -3719.9985)" class="st0 st1 st3">Pressure</text>
			<text transform="matrix(1 0 0 1 -10368.6494 -3716.5151)" class="st0 st1 st3">Determination</text>
			<text transform="matrix(1 0 0 1 -10366.8164 -3713.0327)" class="st0 st1 st3">Application</text>
		</g>
		<g transform="translate(8610.59297052148 3610.77664399093) rotate(0 293.53401360544376 218.41156462585036)">
			<text transform="matrix(1 0 0 1 -8399.9307 -3475.5796)" class="st0 st1 st3">Flowrate</text>
			<text transform="matrix(1 0 0 1 -8399.0918 -3472.0981)" class="st0 st1 st3">Control</text>
			<text transform="matrix(1 0 0 1 -8401.3857 -3468.6138)" class="st0 st1 st3">Application</text>
		</g>
		<g transform="translate(8638.416099773312 2791.849206349205) rotate(0 145.14399092970416 72.80385487528349)">
			<text transform="matrix(1 0 0 1 -8428.7031 -2676.24)" class="st0 st1 st3">Valve</text>
		</g>
	</g>
	<g>
		<g transform="translate(8343.027210884436 1380.75283446712) rotate(0 384.8866213151923 454.44444444444423)">
			<path class="st4" d="M-8135.9-1301.3c2.4,0,4.6,0,9.2,0 M-8135.9-1301.3c3.3,0,6.6,0,9.2,0 M-8126.7-1301.3c3,0,4.6,1.6,4.6,4.6
				 M-8126.7-1301.3c3.1,0,4.6,1.5,4.6,4.6 M-8122.1-1296.7c0,4.8-0.1,9.6,0,12.5 M-8122.1-1296.7c0,4.4,0.1,8.9,0,12.5
				 M-8122.1-1284.2c0,3-1.6,4.6-4.6,4.6 M-8122.1-1284.2c0,3-1.5,4.6-4.6,4.6 M-8126.7-1279.6c-3,0-6,0-9.2,0 M-8126.7-1279.6
				c-1.9,0-3.8,0-9.2,0 M-8135.9-1279.6c-3.1,0-4.6-1.6-4.6-4.6 M-8135.9-1279.6c-3.1,0-4.6-1.5-4.6-4.6 M-8140.5-1284.2
				c0-4.3,0-8.5,0-12.5 M-8140.5-1284.2c-0.1-3.2-0.1-6.3,0-12.5 M-8140.5-1296.7c0-3.1,1.6-4.6,4.6-4.6 M-8140.5-1296.7
				c0-3,1.5-4.6,4.6-4.6"/>
		</g>
		<g transform="translate(7846.848072562367 712.9977324263037) rotate(0 2216.575963718824 2499.444444444444)">
			<path class="st4" d="M-7629.7-649.5c14.4-0.2,28.8-0.2,53,0 M-7629.7-649.5c14.1,0.1,28.3,0.1,53,0 M-7576.7-649.5
				c17.7,0,26.5,8.8,26.5,26.5 M-7576.7-649.5c17.7,0,26.6,8.8,26.5,26.5 M-7550.2-623c0.2,15.9,0.3,31.9,0,66.5 M-7550.2-623
				c0,18.2,0,36.4,0,66.5 M-7550.2-556.5c0,17.7-8.8,26.5-26.5,26.5 M-7550.2-556.5c0,17.7-8.8,26.6-26.5,26.5 M-7576.7-530
				c-18.8,0.1-37.5,0.1-53,0 M-7576.7-530c-15.7-0.1-31.5-0.1-53,0 M-7629.7-530c-17.7,0-26.5-8.9-26.5-26.5 M-7629.7-530
				c-17.6,0-26.5-8.9-26.5-26.5 M-7656.2-556.5c-0.2-25-0.3-49.9,0-66.5 M-7656.2-556.5c0.3-20.4,0.3-40.8,0-66.5 M-7656.2-623
				c0-17.7,8.8-26.5,26.5-26.5 M-7656.2-623c0-17.7,8.8-26.5,26.5-26.5"/>
		</g>
		<g>
			<g transform="translate(7966.2463700171065 1235.9963069259127) rotate(0 2082.847560648712 -0.23463844343769935)">
				<path class="st4" d="M-7772.8-1160c16.6,0,83.1,0,99.7,0 M-7772.7-1160c16.6,0,83,0,99.6,0"/>
			</g>
		</g>
		<g transform="translate(9418.854875283461 1403.9387755102036) rotate(0 384.8866213151923 454.44444444444423)">
			<path class="st4" d="M-9186-1324c2.4,0,4.8,0,9.2,0 M-9186-1324c2.2,0,4.5,0,9.2,0 M-9176.8-1324c3,0,4.6,1.6,4.6,4.6
				 M-9176.8-1324c3,0,4.7,1.5,4.6,4.6 M-9172.2-1319.4c0,2.9,0,5.7,0,12.5 M-9172.2-1319.4c0,4.5,0,9.1,0,12.5 M-9172.2-1306.8
				c0,3.1-1.5,4.6-4.6,4.6 M-9172.2-1306.8c0,3.1-1.6,4.6-4.6,4.6 M-9176.8-1302.2c-2.4-0.1-4.9-0.1-9.2,0 M-9176.8-1302.2
				c-3,0-6,0-9.2,0 M-9186-1302.2c-3.1,0-4.6-1.5-4.6-4.6 M-9186-1302.2c-3.1,0-4.6-1.6-4.6-4.6 M-9190.6-1306.8
				c0.1-4.2,0-8.5,0-12.5 M-9190.6-1306.8c0-3,0-6.1,0-12.5 M-9190.6-1319.4c0-3.1,1.5-4.6,4.6-4.6 M-9190.6-1319.4
				c0-3,1.6-4.6,4.6-4.6"/>
		</g>
		<g transform="translate(10643.072562358255 1417.850340136054) rotate(0 384.8866213151923 454.4444444444443)">
			<path class="st4" d="M-10380.9-1337.5c2.3,0,4.7,0,9.2,0 M-10380.9-1337.5c3.5,0,7.1,0,9.2,0 M-10371.7-1337.5
				c3,0,4.6,1.5,4.6,4.6 M-10371.7-1337.5c3.1,0,4.6,1.5,4.6,4.6 M-10367.1-1332.9c0,3.7,0,7.4,0,12.5 M-10367.1-1332.9
				c0,3,0,6.1,0,12.5 M-10367.1-1320.4c0,3.1-1.6,4.6-4.6,4.6 M-10367.1-1320.4c0,3.1-1.5,4.6-4.6,4.6 M-10371.7-1315.8
				c-2.6-0.1-5.2-0.1-9.2,0 M-10371.7-1315.8c-3,0-6.1,0-9.2,0 M-10380.9-1315.8c-3.1,0-4.6-1.6-4.6-4.6 M-10380.9-1315.8
				c-3.1,0-4.6-1.5-4.6-4.6 M-10385.5-1320.4c0-2.7,0-5.4,0-12.5 M-10385.5-1320.4c0-5,0-10,0-12.5 M-10385.5-1332.9
				c0-3,1.5-4.6,4.6-4.6 M-10385.5-1332.9c-0.1-3,1.5-4.6,4.6-4.6"/>
		</g>
		<g transform="translate(121.2925170067465 2873.9274376417216) rotate(0 384.8866213151923 454.44444444444434)">
			<path class="st4" d="M-110.8-2758.8c3.1,0,6.2,0,9.2,0 M-110.8-2758.8c2.4,0,4.8,0,9.2,0 M-101.6-2758.8c3,0,4.6,1.5,4.6,4.6
				 M-101.6-2758.8c3.1,0,4.6,1.5,4.6,4.6 M-97-2754.2c0,4,0,8.1,0,12.5 M-97-2754.2c0,2.6,0,5.2,0,12.5 M-97-2741.6
				c0,3.1-1.5,4.6-4.6,4.6 M-97-2741.6c0,3-1.5,4.6-4.6,4.6 M-101.6-2737c-3,0-6,0-9.2,0 M-101.6-2737c-2.9,0-5.9,0-9.2,0
				 M-110.8-2737c-3.1,0-4.6-1.5-4.6-4.6 M-110.8-2737c-3.1,0-4.6-1.5-4.6-4.6 M-115.4-2741.6c0-2.9,0-5.8,0-12.5 M-115.4-2741.6
				c0-2.8,0-5.6,0-12.5 M-115.4-2754.2c0-3,1.6-4.6,4.6-4.6 M-115.4-2754.2c0-3.1,1.5-4.6,4.6-4.6"/>
		</g>
		<g transform="translate(4160.283446712012 4840.095238095237) rotate(0 514.7278911564645 514.7278911564622)">
			<path class="st4" d="M-4051.7-4677.9c2.6,0,5.3,0,12.3,0 M-4051.7-4677.9c4.1,0,8.2,0,12.3,0 M-4039.3-4677.9
				c4.1,0,6.2,2,6.2,6.2 M-4039.3-4677.9c4.1,0,6.2,2.1,6.2,6.2 M-4033.2-4671.8c0,2.9,0,5.9,0,12.3 M-4033.2-4671.8
				c0,3.2,0,6.3,0,12.3 M-4033.2-4659.5c0,4.1-2,6.1-6.2,6.2 M-4033.2-4659.5c0,4.1-2,6.1-6.2,6.2 M-4039.3-4653.3c-4,0-8,0-12.3,0
				 M-4039.3-4653.3c-3.4,0-6.7,0-12.3,0 M-4051.7-4653.3c-4.1,0-6.2-2-6.2-6.2 M-4051.7-4653.3c-4.1,0-6.2-2-6.2-6.2
				 M-4057.8-4659.5c0-4.7,0-9.4,0-12.3 M-4057.8-4659.5c0-3,0-6.1,0-12.3 M-4057.8-4671.8c0-4.1,2-6.2,6.2-6.2 M-4057.8-4671.8
				c0-4.1,2.1-6.2,6.2-6.2"/>
		</g>
		<g transform="translate(10 1195.2653061224487) rotate(0 3334.1383219954587 3338.7755102040815)">
			<path class="st4" d="M33.1-1120.3c19.6,0,39.2,0,79.7,0 M33.1-1120.3c26.1,0,52.2-0.1,79.7,0 M112.8-1120.3
				c26.6,0,39.9,13.3,39.9,39.9 M112.8-1120.3c26.6,0,39.8,13.3,39.9,39.9 M152.7-1080.4c0.2,26.1,0.2,52.3,0,80 M152.7-1080.4
				c0.3,28.1,0.3,56.3,0,80 M152.7-1000.4c0,26.5-13.3,39.8-39.9,39.9 M152.7-1000.4c0,26.6-13.3,39.9-39.9,39.9 M112.8-960.6
				c-28.8-0.1-57.6-0.1-79.7,0 M112.8-960.6c-29.8,0.2-59.6,0.2-79.7,0 M33.1-960.6c-26.6,0-39.8-13.3-39.9-39.9 M33.1-960.6
				c-26.6,0-39.8-13.3-39.9-39.9 M-6.8-1000.4c-0.1-30.6-0.1-61.2,0-80 M-6.8-1000.4c0-28.3,0-56.6,0-80 M-6.8-1080.4
				c0-26.6,13.3-39.9,39.9-39.9 M-6.8-1080.4c0-26.6,13.2-39.8,39.9-39.9"/>
		</g>
		<g>
			<g transform="translate(201.7885910351033 2007.2358029461595) rotate(0 3153.491405570632 -32.88967962613407)">
				<path class="st4" d="M-194-1912.8c25.1-0.3,125.7-1.3,150.9-1.5 M-194-1912.8c25.1-0.3,125.7-1.4,150.8-1.6"/>
			</g>
		</g>
		<g transform="translate(8899.489795918373 6416.739229024943) rotate(0 384.8866213151923 454.44444444444434)">
			<path class="st4" d="M-8679.1-6216.9c2.4,0,4.8,0,9.2,0 M-8679.1-6216.9c2.3,0,4.7,0,9.2,0 M-8669.9-6216.9
				c3.1,0,4.6,1.5,4.6,4.6 M-8669.9-6216.9c3.1,0,4.6,1.5,4.6,4.6 M-8665.3-6212.3c0,2.6,0,5.2,0,12.5 M-8665.3-6212.3
				c0,3,0,6,0,12.5 M-8665.3-6199.7c0,3.1-1.5,4.6-4.6,4.6 M-8665.3-6199.7c0,3.1-1.5,4.6-4.6,4.6 M-8669.9-6195.1
				c-2.9,0-5.9,0-9.2,0 M-8669.9-6195.1c-2.3,0-4.6,0-9.2,0 M-8679.1-6195.1c-3.1,0-4.6-1.5-4.6-4.6 M-8679.1-6195.1
				c-3.1,0-4.6-1.6-4.6-4.6 M-8683.7-6199.7c0-2.8,0-5.6,0-12.5 M-8683.7-6199.7c0-2.7,0-5.5,0-12.5 M-8683.7-6212.3
				c0-3,1.5-4.6,4.6-4.6 M-8683.7-6212.3c0-3.1,1.5-4.6,4.6-4.6"/>
		</g>
		<g transform="translate(8440.408163265354 5888.099773242629) rotate(0 862.5170068027219 1377.2448979591827)">
			<path class="st4" d="M-8225.2-5700.9c6.8,0,13.7,0,20.6,0 M-8225.2-5700.9c5.2,0,10.4,0,20.6,0 M-8204.6-5700.9
				c6.9,0,10.3,3.5,10.3,10.3 M-8204.6-5700.9c6.9,0,10.3,3.4,10.3,10.3 M-8194.3-5690.5c0.1,11.6,0,23.2,0,45.3 M-8194.3-5690.5
				c0,16.3,0,32.6,0,45.3 M-8194.3-5645.3c0,6.9-3.4,10.3-10.3,10.3 M-8194.3-5645.3c0,6.9-3.4,10.3-10.3,10.3 M-8204.6-5635
				c-5.7,0.1-11.3,0-20.6,0 M-8204.6-5635c-5.3,0-10.7,0-20.6,0 M-8225.2-5635c-6.9,0-10.3-3.4-10.3-10.3 M-8225.2-5635
				c-6.9,0-10.4-3.4-10.3-10.3 M-8235.6-5645.3c0.2-11.2,0.2-22.4,0-45.3 M-8235.6-5645.3c0-15.2,0-30.4,0-45.3 M-8235.6-5690.5
				c0-6.9,3.5-10.3,10.3-10.3 M-8235.6-5690.5c0-6.8,3.5-10.3,10.3-10.3"/>
		</g>
		<g>
			<g transform="translate(8449.739574316001 6324.051239408274) rotate(0 852.5864103424101 4.886607244118295)">
				<path class="st4" d="M-8244.7-6126.4c6.8,0,34,0.2,40.8,0.2 M-8244.6-6126.4c6.8,0,34,0.2,40.8,0.3"/>
			</g>
		</g>
		<g transform="translate(255.77097505671554 4121.331065759636) rotate(0 384.8866213151923 454.44444444444434)">
			<path class="st4" d="M-242.1-3976.4c2.2,0,4.3,0,9.2,0 M-242.1-3976.4c2.2,0,4.4,0,9.2,0 M-232.9-3976.4c3.1,0,4.6,1.5,4.6,4.6
				 M-232.9-3976.4c3.1,0,4.6,1.6,4.6,4.6 M-228.3-3971.7c0,5,0,10,0,12.5 M-228.3-3971.7c0,2.8,0,5.5,0,12.5 M-228.3-3959.2
				c0,3.1-1.5,4.6-4.6,4.6 M-228.3-3959.2c-0.1,3.1-1.5,4.6-4.6,4.6 M-232.9-3954.6c-2.1,0-4.1,0-9.2,0 M-232.9-3954.6
				c-3.4,0-6.7,0-9.2,0 M-242.1-3954.6c-3,0-4.6-1.6-4.6-4.6 M-242.1-3954.6c-3.1,0-4.7-1.5-4.6-4.6 M-246.7-3959.2
				c0-3.7,0-7.5,0-12.5 M-246.7-3959.2c0-3.5,0-7.1,0-12.5 M-246.7-3971.7c0-3.1,1.6-4.6,4.6-4.6 M-246.7-3971.7
				c0-3.1,1.5-4.5,4.6-4.6"/>
		</g>
		<g transform="translate(1071.9160997732251 2155.1632653061224) rotate(0 384.8866213151923 454.44444444444434)">
			<path class="st4" d="M-1038.7-2057.2c2.3,0,4.7,0,9.2,0 M-1038.7-2057.2c2.8,0,5.6,0,9.2,0 M-1029.5-2057.2
				c3.1,0,4.6,1.5,4.6,4.6 M-1029.5-2057.2c3.1,0,4.7,1.5,4.6,4.6 M-1024.9-2052.6c0,3,0,6,0,12.5 M-1024.9-2052.6
				c0,3.1,0,6.2,0,12.5 M-1024.9-2040.1c0,3.1-1.6,4.6-4.6,4.6 M-1024.9-2040.1c0.1,3.1-1.6,4.6-4.6,4.6 M-1029.5-2035.5
				c-2.3,0-4.5,0-9.2,0 M-1029.5-2035.5c-2.6,0-5.2,0-9.2,0 M-1038.7-2035.5c-3.1,0-4.6-1.6-4.6-4.6 M-1038.7-2035.5
				c-3.1,0-4.6-1.5-4.6-4.6 M-1043.3-2040.1c0-2.7,0-5.5,0-12.5 M-1043.3-2040.1c-0.1-3.2,0-6.3,0-12.5 M-1043.3-2052.6
				c0-3,1.5-4.6,4.6-4.6 M-1043.3-2052.6c0-3,1.5-4.6,4.6-4.6"/>
		</g>
		<g transform="translate(8899.489795918373 7534.301587301587) rotate(0 384.8866213151923 454.44444444444434)">
			<path class="st4" d="M-8679.1-7307.7c2.3,0,4.6,0,9.2,0 M-8679.1-7307.7c3.2,0,6.4,0,9.2,0 M-8669.9-7307.7
				c3.1,0,4.6,1.6,4.6,4.6 M-8669.9-7307.7c3.1,0,4.6,1.6,4.6,4.6 M-8665.3-7303.1c0,4.5,0,9,0,12.5 M-8665.3-7303.1
				c0,3.4,0,6.8,0,12.5 M-8665.3-7290.6c0,3.1-1.5,4.6-4.6,4.6 M-8665.3-7290.6c0,3.1-1.6,4.6-4.6,4.6 M-8669.9-7285.9
				c-2.4,0-4.8,0-9.2,0 M-8669.9-7285.9c-3.2,0-6.4,0-9.2,0 M-8679.1-7285.9c-3.1,0-4.6-1.5-4.6-4.6 M-8679.1-7285.9
				c-3.1,0-4.6-1.5-4.6-4.6 M-8683.7-7290.6c0-4.2,0-8.4,0-12.5 M-8683.7-7290.6c0-3.6,0-7.2,0-12.5 M-8683.7-7303.1
				c0-3.1,1.5-4.6,4.6-4.6 M-8683.7-7303.1c-0.1-3.1,1.5-4.6,4.6-4.6"/>
		</g>
		<g transform="translate(283.59410430837306 5735.072562358277) rotate(0 384.8866213151923 454.44444444444434)">
			<path class="st4" d="M-269.2-5551.5c3.1,0,6.1,0,9.2,0 M-269.2-5551.5c3.4,0,6.7,0,9.2,0 M-260-5551.5c3.1,0,4.6,1.5,4.6,4.6
				 M-260-5551.5c3,0,4.6,1.5,4.6,4.6 M-255.4-5546.9c-0.1,4.6,0,9.2,0,12.5 M-255.4-5546.9c0,4.8,0,9.5,0,12.5 M-255.4-5534.4
				c0,3.1-1.6,4.6-4.6,4.6 M-255.4-5534.4c0,3-1.6,4.6-4.6,4.6 M-260-5529.8c-2.5,0-4.9,0.1-9.2,0 M-260-5529.8c-2.5,0-4.9,0-9.2,0
				 M-269.2-5529.8c-3.1,0-4.6-1.5-4.6-4.6 M-269.2-5529.8c-3.1,0.1-4.6-1.5-4.6-4.6 M-273.9-5534.4c0-3.4,0-6.9,0-12.5
				 M-273.9-5534.4c0-4.7,0-9.4,0-12.5 M-273.9-5546.9c0-3,1.5-4.6,4.6-4.6 M-273.9-5546.9c0-3.1,1.6-4.7,4.6-4.6"/>
		</g>
		<g transform="translate(1016.2698412697646 6662.510204081629) rotate(0 384.8866213151923 454.44444444444434)">
			<path class="st4" d="M-984.4-6456.8c3.3,0,6.6,0,9.2,0 M-984.4-6456.8c3.3,0,6.6,0.1,9.2,0 M-975.2-6456.8c3.1,0,4.6,1.6,4.6,4.6
				 M-975.2-6456.8c3.1,0,4.6,1.5,4.6,4.6 M-970.6-6452.1c0,4.3,0,8.5,0,12.5 M-970.6-6452.1c0,3.6,0,7.2,0,12.5 M-970.6-6439.6
				c0,3.1-1.6,4.6-4.6,4.6 M-970.6-6439.6c0,3.1-1.6,4.6-4.6,4.6 M-975.2-6435c-3.6,0-7.1,0-9.2,0 M-975.2-6435c-3,0-6,0-9.2,0
				 M-984.4-6435c-3.1,0-4.6-1.5-4.6-4.6 M-984.4-6435c-3,0-4.6-1.5-4.6-4.6 M-989-6439.6c0-3.8,0-7.5,0-12.5 M-989-6439.6
				c0-3.6-0.1-7.1,0-12.5 M-989-6452.1c0-3.1,1.5-4.6,4.6-4.6 M-989-6452.1c0-3.1,1.5-4.6,4.6-4.6"/>
		</g>
		<g transform="translate(2147.7437641723664 6699.60770975056) rotate(0 384.8866213151923 454.44444444444434)">
			<path class="st4" d="M-2088.8-6493c3,0,5.9,0,9.2,0 M-2088.8-6493c1.9,0,3.8,0,9.2,0 M-2079.6-6493c3,0,4.6,1.5,4.6,4.6
				 M-2079.6-6493c3.1,0,4.6,1.5,4.6,4.6 M-2075-6488.4c0,4.1,0,8.2,0,12.5 M-2075-6488.4c0,4-0.1,8.1,0,12.5 M-2075-6475.8
				c0,3-1.6,4.6-4.6,4.6 M-2075-6475.8c0,3.1-1.5,4.6-4.6,4.6 M-2079.6-6471.2c-2.1,0.1-4.2,0-9.2,0 M-2079.6-6471.2
				c-2.1,0-4.1,0-9.2,0 M-2088.8-6471.2c-3.1,0-4.6-1.5-4.6-4.6 M-2088.8-6471.2c-3.1,0-4.6-1.6-4.6-4.6 M-2093.4-6475.8
				c0-4.9,0-9.7,0-12.5 M-2093.4-6475.8c0-4.3,0-8.6,0-12.5 M-2093.4-6488.4c0-3.1,1.6-4.6,4.6-4.6 M-2093.4-6488.4
				c0-3,1.6-4.6,4.6-4.6"/>
		</g>
		<g transform="translate(3733.6621315192315 2229.3582766439904) rotate(0 384.8866213151923 454.44444444444434)">
			<path class="st4" d="M-3636.8-2129.6c2.2,0,4.4,0,9.2,0 M-3636.8-2129.6c2.4,0,4.7,0,9.2,0 M-3627.6-2129.6
				c3.1,0,4.6,1.5,4.6,4.6 M-3627.6-2129.6c3.1,0,4.6,1.5,4.6,4.6 M-3623-2125c0,4.1,0,8.2,0,12.5 M-3623-2125c0,3.4,0,6.8,0,12.5
				 M-3623-2112.5c0,3.1-1.6,4.6-4.6,4.6 M-3623-2112.5c0,3.1-1.6,4.6-4.6,4.6 M-3627.6-2107.9c-3.5,0-7,0.1-9.2,0 M-3627.6-2107.9
				c-2.3,0-4.6,0-9.2,0 M-3636.8-2107.9c-3.1,0-4.6-1.5-4.6-4.6 M-3636.8-2107.9c-3.1,0-4.6-1.5-4.6-4.6 M-3641.4-2112.5
				c0-2.8,0-5.6,0-12.5 M-3641.4-2112.5c0-3.5,0-6.9,0-12.5 M-3641.4-2125c0-3.1,1.5-4.6,4.6-4.6 M-3641.4-2125
				c0.1-3.1,1.5-4.6,4.6-4.6"/>
		</g>
		<g transform="translate(4976.428571428492 2118.0657596371875) rotate(0 384.8866213151923 454.44444444444423)">
			<path class="st4" d="M-4849.8-2021c3,0,6,0,9.2,0 M-4849.8-2021c3.2,0,6.5,0,9.2,0 M-4840.6-2021c3.1,0,4.6,1.5,4.6,4.6
				 M-4840.6-2021c3.1,0,4.6,1.6,4.6,4.6 M-4836-2016.4c0,4.5,0,9.1,0,12.5 M-4836-2016.4c0,4.7,0,9.4,0,12.5 M-4836-2003.9
				c0,3.1-1.5,4.6-4.6,4.6 M-4836-2003.9c0,3.1-1.5,4.6-4.6,4.6 M-4840.6-1999.3c-3.5,0-7.1-0.1-9.2,0 M-4840.6-1999.3
				c-3.3,0-6.5,0-9.2,0 M-4849.8-1999.3c-3.1,0-4.6-1.6-4.6-4.6 M-4849.8-1999.3c-3,0-4.6-1.5-4.6-4.6 M-4854.4-2003.9
				c0-3.5,0-7,0-12.5 M-4854.4-2003.9c0-5,0-10,0-12.5 M-4854.4-2016.4c0-3,1.6-4.6,4.6-4.6 M-4854.4-2016.4c0-3,1.6-4.6,4.6-4.6"/>
		</g>
		<g transform="translate(5774.02494331068 3045.5034013605423) rotate(0 384.8866213151923 454.44444444444434)">
			<path class="st4" d="M-5628.4-2926.3c2.7,0,5.4,0,9.2,0 M-5628.4-2926.3c2,0,4.1,0,9.2,0 M-5619.1-2926.3c3.1,0,4.6,1.5,4.6,4.6
				 M-5619.1-2926.3c3.1,0,4.6,1.5,4.6,4.6 M-5614.5-2921.7c0,3.5,0,6.9,0,12.5 M-5614.5-2921.7c0,4.4,0,8.8,0,12.5 M-5614.5-2909.1
				c0,3.1-1.6,4.6-4.6,4.6 M-5614.5-2909.1c0,3.1-1.5,4.6-4.6,4.6 M-5619.1-2904.5c-2.1,0-4.1,0-9.2,0 M-5619.1-2904.5
				c-2.9,0.1-5.8,0-9.2,0 M-5628.4-2904.5c-3.1,0-4.6-1.5-4.6-4.6 M-5628.4-2904.5c-3.1,0-4.6-1.5-4.6-4.6 M-5633-2909.1
				c0-4.9,0-9.9,0-12.5 M-5633-2909.1c0-3.4,0-6.8,0-12.5 M-5633-2921.7c0-3.1,1.5-4.6,4.6-4.6 M-5633-2921.7c0-3,1.5-4.6,4.6-4.6"
				/>
		</g>
		<g transform="translate(1479.9886621315381 3365.469387755101) rotate(0 514.7278911564645 514.7278911564622)">
			<path class="st4" d="M-1435.5-3238.6c3.8,0,7.7,0,12.3,0 M-1435.5-3238.6c4.2,0,8.3,0,12.3,0 M-1423.2-3238.6
				c4.1,0,6.2,2.1,6.2,6.2 M-1423.2-3238.6c4.1,0,6.1,2.1,6.2,6.2 M-1417-3232.4c0,2.6,0,5.1,0,12.3 M-1417-3232.4
				c0,2.6,0,5.1,0,12.3 M-1417-3220.1c0,4.1-2,6.1-6.2,6.2 M-1417-3220.1c0,4.1-2.1,6.1-6.2,6.2 M-1423.2-3213.9
				c-3.9,0-7.9-0.1-12.3,0 M-1423.2-3213.9c-4.8,0-9.7,0-12.3,0 M-1435.5-3213.9c-4.1,0-6.2-2-6.2-6.2 M-1435.5-3213.9
				c-4.1,0-6.1-2-6.2-6.2 M-1441.6-3220.1c0-3.4,0-6.7,0-12.3 M-1441.6-3220.1c0-3.2,0-6.3,0-12.3 M-1441.6-3232.4
				c0-4.1,2.1-6.1,6.2-6.2 M-1441.6-3232.4c0-4.1,2.1-6.1,6.2-6.2"/>
		</g>
		<g transform="translate(3807.8571428571595 3337.6462585034005) rotate(0 514.7278911564645 514.7278911564622)">
			<path class="st4" d="M-3707.7-3211.4c3.9-0.1,7.9,0,12.3,0 M-3707.7-3211.4c3.5,0,7,0,12.3,0 M-3695.4-3211.4
				c4.1,0,6.2,2,6.2,6.2 M-3695.4-3211.4c4.1,0,6.1,2,6.2,6.2 M-3689.2-3205.3c0,4.8,0,9.6,0,12.3 M-3689.2-3205.3
				c0,3.3,0,6.6,0,12.3 M-3689.2-3192.9c0,4.1-2,6.2-6.2,6.2 M-3689.2-3192.9c0,4.1-2,6.1-6.2,6.2 M-3695.4-3186.8
				c-2.5,0-5,0-12.3,0 M-3695.4-3186.8c-3.7,0-7.4,0-12.3,0 M-3707.7-3186.8c-4.1,0-6.2-2.1-6.2-6.2 M-3707.7-3186.8
				c-4.1,0-6.2-2.1-6.2-6.2 M-3713.8-3192.9c-0.1-3.1-0.1-6.3,0-12.3 M-3713.8-3192.9c0-2.5,0-5,0-12.3 M-3713.8-3205.3
				c0-4.1,2-6.2,6.2-6.2 M-3713.8-3205.3c0-4.1,2.1-6.2,6.2-6.2"/>
		</g>
		<g transform="translate(1730.3968253966887 5109.052154195015) rotate(0 514.7278911564645 514.7278911564622)">
			<path class="st4" d="M-1679.9-4940.4c4.9,0,9.8,0,12.3,0 M-1679.9-4940.4c2.7,0,5.4,0,12.3,0 M-1667.6-4940.4
				c4.1,0,6.1,2.1,6.2,6.2 M-1667.6-4940.4c4.1,0,6.2,2.1,6.2,6.2 M-1661.4-4934.3c0,2.7,0,5.4,0,12.3 M-1661.4-4934.3
				c0,4.5,0.1,9,0,12.3 M-1661.4-4922c0,4.1-2.1,6.1-6.2,6.2 M-1661.4-4922c0,4.1-2.1,6.2-6.2,6.2 M-1667.6-4915.8
				c-3.7,0-7.4,0-12.3,0 M-1667.6-4915.8c-3.5,0-7,0-12.3,0 M-1679.9-4915.8c-4.1,0-6.1-2-6.2-6.2 M-1679.9-4915.8
				c-4.1,0-6.2-2-6.2-6.2 M-1686-4922c0-2.6,0-5.2,0-12.3 M-1686-4922c0-4.8,0-9.7,0-12.3 M-1686-4934.3c0-4.1,2.1-6.1,6.2-6.2
				 M-1686-4934.3c0-4.1,2-6.2,6.2-6.2"/>
		</g>
		<g transform="translate(4206.655328798282 6212.702947845804) rotate(0 514.7278911564645 514.7278911564622)">
			<path class="st4" d="M-4096.9-6017.7c2.9,0,5.9,0,12.3,0 M-4096.9-6017.7c3,0,6.1,0,12.3,0 M-4084.6-6017.7c4.1,0,6.1,2,6.2,6.2
				 M-4084.6-6017.7c4.2,0,6.1,2.1,6.2,6.2 M-4078.5-6011.5c-0.1,3,0,6.1,0,12.3 M-4078.5-6011.5c0,3.5,0,7,0,12.3 M-4078.5-5999.2
				c0,4.1-2,6.1-6.2,6.2 M-4078.5-5999.2c-0.1,4.1-2.1,6.2-6.2,6.2 M-4084.6-5993.1c-2.7,0-5.4,0-12.3,0 M-4084.6-5993.1
				c-3.1,0-6.2,0-12.3,0 M-4096.9-5993.1c-4.1,0-6.2-2.1-6.2-6.2 M-4096.9-5993.1c-4.1,0.1-6.2-2.1-6.2-6.2 M-4103.1-5999.2
				c0-3.8,0-7.6,0-12.3 M-4103.1-5999.2c0-2.7,0-5.4,0-12.3 M-4103.1-6011.5c0-4.1,2.1-6.2,6.2-6.2 M-4103.1-6011.5
				c0-4.1,2.1-6.1,6.2-6.2"/>
		</g>
		<g>
			<g transform="translate(1790.6988720348163 3027.024641763569) rotate(0 148.42794151848648 166.86933624743756)">
				<path class="st4" d="M-1744.9-2908.2c1,0.6,5,2,6.2,3.3c1.2,1.3,0.7,3.9,0.9,4.7 M-1744.9-2908.2c1,0.6,5,2,6.2,3.3
					c1.2,1.3,0.7,3.9,0.9,4.7"/>
			</g>
		</g>
		<g>
			<g transform="translate(891.1357528747758 3509.2462680562476) rotate(0 291.499323579621 70.29060195659486)">
				<path class="st4" d="M-866.9-3378.9c0.9,0.3,3,1.4,5.3,2c2.3,0.6,7.2,1.1,8.7,1.3 M-866.8-3378.9c0.9,0.3,3,1.4,5.3,2
					c2.3,0.6,7.1,1.2,8.6,1.4"/>
			</g>
		</g>
		<g>
			<g transform="translate(1030.235458788913 4427.4487783917775) rotate(0 222.36977332838433 -171.1926743859467)">
				<path class="st4" d="M-1002.6-4275.2c0.4-0.8,0.7-3.3,2.4-4.7c1.8-1.4,6.8-2.9,8.2-3.5 M-1002.7-4275.1c0.4-0.8,0.7-3.3,2.4-4.7
					c1.8-1.4,6.8-3,8.2-3.6"/>
			</g>
		</g>
		<g>
			<g transform="translate(1058.0509555564495 5948.47240986778) rotate(0 334.03974635760096 -209.121959674364)">
				<path class="st4" d="M-1029.8-5759.8c0.8-0.9,2-3.7,4.7-5.3c2.7-1.7,9.5-3.9,11.3-4.6 M-1029.8-5759.8c0.8-0.9,1.9-3.7,4.6-5.4
					c2.7-1.7,9.5-3.9,11.4-4.6"/>
			</g>
		</g>
		<g>
			<g transform="translate(1438.3112456683739 6662.520371188355) rotate(0 161.3229348910536 -301.64852769099707)">
				<path class="st4" d="M-1400.9-6456.8c0.1-1.3-0.9-5.6,0.4-8c1.3-2.4,6.3-5.4,7.6-6.5 M-1401-6456.8c0.1-1.3-0.9-5.6,0.5-8
					s6.3-5.3,7.6-6.4"/>
			</g>
		</g>
		<g>
			<g transform="translate(2514.152698365011 6690.356000437945) rotate(0 -45.83359775156714 -273.5930972942492)">
				<path class="st4" d="M-2451.1-6483.9c0-0.9,0.2-3.4-0.2-5.5c-0.4-2.2-1.7-6.3-2-7.6 M-2451-6483.9c0-0.9,0.1-3.4-0.3-5.6
					c-0.4-2.2-1.7-6.2-2-7.5"/>
			</g>
		</g>
		<g>
			<g transform="translate(4192.814852517535 3128.9419731874605) rotate(0 101.37210694327223 107.72087909438073)">
				<path class="st4" d="M-4089.6-3007.7c0.6,0.4,2.5,1.3,3.3,2.2c0.8,0.8,1.3,2.4,1.5,2.9 M-4089.6-3007.7c0.6,0.4,2.5,1.4,3.4,2.2
					c0.8,0.9,1.3,2.4,1.5,2.9"/>
			</g>
		</g>
		<g>
			<g transform="translate(5110.934368547707 3026.949731647589) rotate(0 -138.14592023609293 222.43989628763006)">
				<path class="st4" d="M-4985.7-2908.1c-0.1,1,0.4,4.4-0.7,6.2c-1.1,1.8-5,3.7-6,4.4 M-4985.7-2908.1c-0.1,1,0.4,4.5-0.7,6.2
					c-1.1,1.8-5,3.7-6,4.4"/>
			</g>
		</g>
		<g>
			<g transform="translate(5797.290608879179 3889.563031654646) rotate(0 -477.81469969712634 97.16429647648783)">
				<path class="st4" d="M-5655.6-3750.1c-1.8,0.7-6.9,3.2-10.7,4c-3.8,0.8-10.2,0.5-12.2,0.7 M-5655.7-3750.2
					c-1.8,0.7-6.9,3.2-10.7,4s-10.1,0.6-12.1,0.7"/>
			</g>
		</g>
		<g>
			<g transform="translate(4378.271863126618 4371.849667847577) rotate(0 -18.931538694720075 245.56185096811305)">
				<path class="st4" d="M-4270.6-4220.9c-0.2,1.1-0.8,4.7-0.9,6.6c0,2,0.5,4.3,0.7,5.2 M-4270.6-4220.9c-0.2,1.1-0.8,4.7-0.9,6.7
					c0,2,0.5,4.2,0.6,5.1"/>
			</g>
		</g>
		<g>
			<g transform="translate(2477.006794088651 4297.591867370222) rotate(0 844.3639318741552 380.361774210558)">
				<path class="st4" d="M-2414.8-4148.4c2.7,2.1,9.4,9.6,16.2,12.6s20.2,4.6,24.2,5.6 M-2414.8-4148.4c2.7,2.1,9.5,9.7,16.2,12.7
					c6.7,3,20.2,4.6,24.2,5.5"/>
			</g>
		</g>
		<g>
			<g transform="translate(2764.5674526606454 5484.732721695951) rotate(0 700.1209932131169 -47.98931942301306)">
				<path class="st4" d="M-2695.5-5307.2c2.3,0.1,8.2,1,13.7,0.5s16.5-2.8,19.8-3.4 M-2695.5-5307.1c2.3,0.1,8.2,0.9,13.7,0.4
					s16.5-2.8,19.8-3.3"/>
			</g>
		</g>
		<g>
			<g transform="translate(2736.6504083473556 6031.830950637961) rotate(0 732.4738776269078 334.2197713661294)">
				<path class="st4" d="M-2668.2-5841.1c2.7,2.4,10.1,11.8,15.9,14.4c5.8,2.6,15.9,1.1,19.1,1.3 M-2668.2-5841.1
					c2.7,2.4,10.2,11.8,16,14.4c5.8,2.6,15.8,1.1,19,1.3"/>
			</g>
		</g>
		<g>
			<g transform="translate(4786.3122048625955 4288.338163872832) rotate(0 348.0518282758276 992.1709482041979)">
				<path class="st4" d="M-4668.8-4139.4c2.7,1.9,14.8,3.6,16.4,11.5c1.6,7.9-5.8,29.9-6.9,35.9 M-4668.9-4139.3
					c2.7,1.9,14.8,3.6,16.4,11.5c1.6,7.9-5.7,29.9-6.8,35.9"/>
			</g>
		</g>
		<g>
			<g transform="translate(2412.131814666558 4362.47074241667) rotate(0 917.4463904142322 950.96096676347)">
				<path class="st4" d="M-2351.5-4211.7c2.7,3.5,9.1,13.2,16.4,20.8c7.3,7.6,22.9,20.5,27.5,24.6 M-2351.5-4211.7
					c2.7,3.5,9.1,13.3,16.4,20.9c7.3,7.6,22.9,20.5,27.4,24.6"/>
			</g>
		</g>
		<g>
			<g transform="translate(4721.46130662231 5874.233761714776) rotate(0 -25.11710531918652 166.9758046880579)">
				<path class="st4" d="M-4605.6-5687.3c-0.2,0.9-1,3.8-1.2,5.1s0,2.4,0,2.9 M-4605.6-5687.3c-0.2,0.9-0.9,3.8-1.1,5.1
					c-0.2,1.3-0.1,2.4-0.1,2.9"/>
			</g>
		</g>
		<g transform="translate(10466.8594104308 2451.9433106575952) rotate(0 514.7278911564645 514.7278911564622)">
			<path class="st4" d="M-10207.4-2346.9c4.1,0,8.1,0,12.3,0 M-10207.4-2346.9c3.6,0,7.3,0,12.3,0 M-10195.1-2346.9
				c4.1,0,6.2,2,6.2,6.2 M-10195.1-2346.9c4.1,0,6.2,2.1,6.2,6.2 M-10188.9-2340.7c0,2.9,0,5.8,0,12.3 M-10188.9-2340.7
				c0,3,0,6.1,0,12.3 M-10188.9-2328.4c0,4.1-2,6.2-6.2,6.2 M-10188.9-2328.4c0,4.2-2,6.1-6.2,6.2 M-10195.1-2322.3
				c-3,0-5.9,0-12.3,0 M-10195.1-2322.3c-2.7,0-5.4,0-12.3,0 M-10207.4-2322.3c-4.2,0-6.2-2.1-6.2-6.2 M-10207.4-2322.3
				c-4.1,0-6.2-2.1-6.2-6.2 M-10213.5-2328.4c0-4.5,0-9.1,0-12.3 M-10213.5-2328.4c0-2.7,0-5.4,0-12.3 M-10213.5-2340.7
				c0-4.1,2.1-6.2,6.2-6.2 M-10213.5-2340.7c0-4.1,2-6.2,6.2-6.2"/>
		</g>
		<g transform="translate(8769.648526077013 4710.253968253967) rotate(0 384.8866213151923 454.44444444444434)">
			<path class="st4" d="M-8552.3-4551.2c3.4-0.1,6.7,0,9.2,0 M-8552.3-4551.2c2,0,4.1,0,9.2,0 M-8543.1-4551.2
				c3.1,0,4.6,1.5,4.6,4.6 M-8543.1-4551.2c3.1,0.1,4.6,1.5,4.6,4.6 M-8538.5-4546.6c0,3.7,0,7.3,0,12.5 M-8538.5-4546.6
				c0,3,0,6,0,12.5 M-8538.5-4534.1c0,3-1.5,4.6-4.6,4.6 M-8538.5-4534.1c0,3.1-1.6,4.6-4.6,4.6 M-8543.1-4529.4c-2.4,0-4.9,0-9.2,0
				 M-8543.1-4529.4c-2.8,0-5.5,0-9.2,0 M-8552.3-4529.4c-3.1,0-4.6-1.5-4.6-4.6 M-8552.3-4529.4c-3,0-4.6-1.5-4.6-4.6
				 M-8556.9-4534.1c0-2.5,0-5.1,0-12.5 M-8556.9-4534.1c0-2.7,0-5.3,0-12.5 M-8556.9-4546.6c0-3,1.5-4.6,4.6-4.6 M-8556.9-4546.6
				c0-3,1.5-4.6,4.6-4.6"/>
		</g>
		<g transform="translate(9789.82993197284 4728.802721088433) rotate(0 384.8866213151923 454.44444444444434)">
			<path class="st4" d="M-9548.1-4569.3c3.4,0.1,6.8,0,9.2,0 M-9548.1-4569.3c3.1,0,6.1,0,9.2,0 M-9538.9-4569.3
				c3,0,4.6,1.6,4.6,4.6 M-9538.9-4569.3c3,0,4.6,1.6,4.6,4.6 M-9534.3-4564.7c0,4.5,0,9,0,12.5 M-9534.3-4564.7c0,3.1,0,6.3,0,12.5
				 M-9534.3-4552.2c0,3-1.6,4.6-4.6,4.6 M-9534.3-4552.2c0,3.1-1.6,4.6-4.6,4.6 M-9538.9-4547.6c-2.2,0.1-4.5,0-9.2,0
				 M-9538.9-4547.6c-2.1,0-4.3,0-9.2,0 M-9548.1-4547.6c-3,0-4.6-1.6-4.6-4.6 M-9548.1-4547.6c-3.1,0-4.7-1.5-4.6-4.6
				 M-9552.7-4552.2c0-3,0-6,0-12.5 M-9552.7-4552.2c0-3.5,0-6.9,0-12.5 M-9552.7-4564.7c0-3,1.5-4.6,4.6-4.6 M-9552.7-4564.7
				c0-3.1,1.5-4.6,4.6-4.6"/>
		</g>
		<g transform="translate(10837.834467120207 4719.528344671198) rotate(0 384.8866213151923 454.44444444444434)">
			<path class="st4" d="M-10571-4560.2c1.9-0.1,3.8,0,9.2,0 M-10571-4560.2c2.5,0,4.9,0,9.2,0 M-10561.8-4560.2
				c3.1,0,4.6,1.5,4.6,4.6 M-10561.8-4560.2c3.1,0,4.6,1.6,4.6,4.6 M-10557.2-4555.6c0,4.9,0,9.7,0,12.5 M-10557.2-4555.6
				c0,2.8,0,5.6,0,12.5 M-10557.2-4543.1c0,3.1-1.6,4.6-4.6,4.6 M-10557.2-4543.1c0,3.1-1.6,4.6-4.6,4.6 M-10561.8-4538.5
				c-3.6,0-7.1,0-9.2,0 M-10561.8-4538.5c-2.1,0-4.2,0-9.2,0 M-10571-4538.5c-3,0-4.6-1.5-4.6-4.6 M-10571-4538.5
				c-3.1,0-4.6-1.5-4.6-4.6 M-10575.6-4543.1c-0.1-2.8-0.1-5.7,0-12.5 M-10575.6-4543.1c0-3.8,0-7.7,0-12.5 M-10575.6-4555.6
				c0-3,1.5-4.6,4.6-4.6 M-10575.6-4555.6c0-3,1.5-4.6,4.6-4.6"/>
		</g>
		<g transform="translate(10494.682539682573 3564.8684807256222) rotate(0 514.7278911564645 514.7278911564622)">
			<path class="st4" d="M-10234.5-3433.2c2.5,0,5,0,12.3,0 M-10234.5-3433.2c4.5,0,9,0,12.3,0 M-10222.2-3433.2
				c4.1,0,6.1,2.1,6.2,6.2 M-10222.2-3433.2c4.1,0,6.2,2,6.2,6.2 M-10216.1-3427c0,4.8,0,9.7,0,12.3 M-10216.1-3427
				c0,4.2,0,8.5,0,12.3 M-10216.1-3414.7c0,4.1-2,6.1-6.2,6.2 M-10216.1-3414.7c0,4.1-2.1,6.2-6.2,6.2 M-10222.2-3408.6
				c-3.1,0-6.3,0-12.3,0 M-10222.2-3408.6c-4.3,0-8.5,0-12.3,0 M-10234.5-3408.6c-4.1,0-6.1-2.1-6.2-6.2 M-10234.5-3408.6
				c-4.1,0-6.2-2-6.2-6.2 M-10240.7-3414.7c0-2.5,0-5,0-12.3 M-10240.7-3414.7c0-2.9,0-5.8,0-12.3 M-10240.7-3427
				c0-4.1,2.1-6.2,6.2-6.2 M-10240.7-3427c0.1-4.1,2-6.2,6.2-6.2"/>
		</g>
		<g transform="translate(8389.399092970561 3314.4603174603144) rotate(0 514.7278911564645 514.7278911564622)">
			<path class="st4" d="M-8179.6-3188.8c4,0,7.9,0,12.3,0 M-8179.6-3188.8c3.7,0,7.3,0,12.3,0 M-8167.3-3188.8
				c4.1,0,6.1,2.1,6.2,6.2 M-8167.3-3188.8c4.1,0,6.1,2.1,6.2,6.2 M-8161.2-3182.6c0,4.7,0,9.5,0,12.3 M-8161.2-3182.6
				c0,4.6,0,9.1,0,12.3 M-8161.2-3170.3c0,4.1-2.1,6.1-6.2,6.2 M-8161.2-3170.3c-0.1,4.2-2,6.2-6.2,6.2 M-8167.3-3164.2
				c-3,0-5.9,0-12.3,0 M-8167.3-3164.2c-3.7,0-7.4,0-12.3,0 M-8179.6-3164.2c-4.1,0-6.2-2.1-6.2-6.2 M-8179.6-3164.2
				c-4.1,0-6.2-2.1-6.2-6.2 M-8185.8-3170.3c0-4.4,0-8.8,0-12.3 M-8185.8-3170.3c0-4.8,0-9.6,0-12.3 M-8185.8-3182.6
				c0-4.1,2.1-6.2,6.2-6.2 M-8185.8-3182.6c0-4.1,2-6.1,6.2-6.2"/>
		</g>
		<g transform="translate(8398.67346938778 2632.7936507936497) rotate(0 384.8866213151923 227.22222222222217)">
			<path class="st4" d="M-8192.1-2523.4c3.3,0.1,6.5,0,13,0 M-8192.1-2523.4c4.7,0,9.5,0,13,0 M-8179.1-2523.4
				c1.8,0,2.8,0.9,2.7,2.7 M-8179.1-2523.4c1.9,0,2.7,0.9,2.7,2.7 M-8176.4-2520.7c0,1.2,0,2.5,0,5.4 M-8176.4-2520.7
				c0,1.6,0,3.2,0,5.4 M-8176.4-2515.3c0,1.8-0.9,2.7-2.7,2.7 M-8176.4-2515.3c0,1.8-0.9,2.7-2.7,2.7 M-8179.1-2512.5
				c-5.1,0-10.2,0-13,0 M-8179.1-2512.5c-3.4,0-6.8,0-13,0 M-8192.1-2512.5c-1.8,0-2.8-0.9-2.7-2.7 M-8192.1-2512.5
				c-1.8,0.1-2.7-0.9-2.7-2.7 M-8194.8-2515.3c0.1-1.7,0-3.5,0-5.4 M-8194.8-2515.3c0-1.2,0-2.3,0-5.4 M-8194.8-2520.7
				c0-1.8,0.9-2.7,2.7-2.7 M-8194.8-2520.7c0-1.8,1-2.7,2.7-2.7"/>
		</g>
		<g>
			<g transform="translate(11111.534672220208 2336.0823452142627) rotate(0 -0.048373430254287086 50.87807835346666)">
				<path class="st4" d="M-10842.8-2233.8c0,0.4,0,2.1,0,2.5 M-10842.8-2233.8c0,0.4,0.1,2,0.1,2.4"/>
			</g>
		</g>
		<g>
			<g transform="translate(11148.618712104784 4719.572102655215) rotate(0 -5.033291159321379 -60.458980113555754)">
				<path class="st4" d="M-10879-4560.3c0-0.5-0.2-2.4-0.2-2.9 M-10879-4560.3c0-0.5-0.2-2.4-0.2-2.9"/>
			</g>
		</g>
		<g>
			<g transform="translate(10286.059923613822 4728.867218082047) rotate(0 111.54492765278701 -134.58445737100442)">
				<path class="st4" d="M-10037.1-4569.3c0.2-0.7,0.2-3.4,1.1-4.5s3.5-1.7,4.2-2 M-10037.1-4569.4c0.2-0.7,0.2-3.3,1.1-4.4
					c0.9-1.1,3.5-1.7,4.2-2"/>
			</g>
		</g>
		<g>
			<g transform="translate(9136.002879196472 4710.350072736668) rotate(0 681.9921800557713 -176.79287170408838)">
				<path class="st4" d="M-8914.5-4551.3c2.9-1.1,11.8-5,17.3-6.4c5.4-1.4,12.8-1.6,15.3-2 M-8914.5-4551.3c2.9-1.1,11.9-5,17.3-6.4
					c5.4-1.4,12.7-1.7,15.3-2"/>
			</g>
		</g>
		<g>
			<g transform="translate(9646.113431020087 2308.2569731926496) rotate(0 426.37364266433724 111.73251532107156)">
				<path class="st4" d="M-9412.4-2206.6c1.7,0.6,6.8,2.4,10.2,3.3s8.5,1.7,10.2,2 M-9412.4-2206.7c1.7,0.6,6.7,2.5,10.1,3.4
					c3.4,0.9,8.5,1.7,10.2,2"/>
			</g>
		</g>
		<g>
			<g transform="translate(8663.029936757099 2289.7270903507588) rotate(0 903.7539302281439 175.93565731174863)">
				<path class="st4" d="M-8452.9-2188.6c2.4,0.8,7.2,3.2,14.4,4.7c7.2,1.4,24,3.2,28.8,3.8 M-8452.8-2188.5
					c2.4,0.8,7.2,3.2,14.4,4.6c7.2,1.4,24,3.1,28.8,3.7"/>
			</g>
		</g>
		<g>
			<g transform="translate(10499.382142589035 3977.608993441638) rotate(0 -537.7885052603306 -21.29692925098152)">
				<path class="st4" d="M-10245.3-3836c-2.7,0-12.1,0.4-16.4,0.2c-4.3-0.2-7.8-1.3-9.4-1.6 M-10245.3-3836.1
					c-2.7,0-12.1,0.5-16.4,0.2s-7.7-1.3-9.3-1.6"/>
			</g>
		</g>
		<g>
			<g transform="translate(10462.256178658441 3235.756472339361) rotate(0 -518.9995501095182 203.41167522792216)">
				<path class="st4" d="M-10209-3112c-2.7,1.4-11.9,7-16,8.7c-4.1,1.6-7.4,0.9-8.9,1.1 M-10209-3112c-2.7,1.4-11.9,7-16,8.7
					c-4.1,1.6-7.4,1-8.8,1.2"/>
			</g>
		</g>
		<g>
			<g transform="translate(8876.36022524489 3328.489521113368) rotate(0 -46.747957460873295 -126.18559247344717)">
				<path class="st4" d="M-8661.1-3202.5c-0.3-0.3-1.4-0.8-1.8-1.8c-0.4-1-0.4-3.5-0.5-4.2 M-8661.1-3202.5
					c-0.3-0.3-1.4-0.8-1.7-1.8s-0.3-3.5-0.4-4.2"/>
			</g>
		</g>
		<g>
			<g transform="translate(10490.039211321564 4209.520368436374) rotate(0 -2629.344968263562 1112.3964055365723)">
				<path class="st4" d="M-10236.2-4062.5c-13.5,3.2-60,10.7-81,19.5s-37.3,28.1-44.8,33.7 M-10236.2-4062.4
					c-13.5,3.3-59.9,10.6-80.9,19.5c-21,8.9-37.4,28.1-44.8,33.7"/>
			</g>
		</g>
		<g>
			<g transform="translate(10453.02383663076 2818.3069030289375) rotate(0 -2615.4074860219916 1507.718765825336)">
				<path class="st4" d="M-10200.1-2704.5c-10-1.8-46.8-10.4-59.9-10.6c-13.1-0.2-7.8-6.2-18.6,9.5c-10.9,15.8-38.8,70.9-46.6,85.1
					 M-10200-2704.5c-10-1.8-46.8-10.4-59.9-10.6c-13.1-0.2-7.8-6.3-18.7,9.5c-10.9,15.8-38.8,71-46.6,85.2"/>
			</g>
		</g>
		<g>
			<g transform="translate(5203.7828633470635 5405.9112640489275) rotate(0 1849.0887671554374 764.4230623440103)">
				<path class="st4" d="M-5076.4-5230.2c9.9,5.3,44.5,25.4,59.2,31.5c14.8,6.1,24.4,4.2,29.3,5.1 M-5076.4-5230.2
					c9.9,5.3,44.5,25.4,59.2,31.5c14.8,6.1,24.4,4.2,29.3,5.1"/>
			</g>
		</g>
		<g>
			<g transform="translate(5185.108558172098 5591.371388143019) rotate(0 1854.8380497785838 1323.7690994385111)">
				<path class="st4" d="M-5058.1-5411.2c11.7,9.5,55.5,46.3,70.3,56.8c14.8,10.5,15.4,5,18.4,6 M-5058.1-5411.2
					c11.7,9.5,55.6,46.3,70.4,56.8c14.8,10.5,15.3,5,18.4,6"/>
			</g>
		</g>
	</g>
	<g transform="translate(2979.1916099772643 10) rotate(0 3671.261904761901 183.6326530612244)">
		<text transform="matrix(1 0 0 1 -2905.4287 42.7947)" class="st0 st1 st5">Potential electronic system of ESL-2 without Luos</text>
	</g>
</g>
</svg>
