<?xml version="1.0" encoding="utf-8"?>
<!-- Generator: Adobe Illustrator 26.5.0, SVG Export Plug-In . SVG Version: 6.00 Build 0)  -->
<svg version="1.1" id="Calque_1" xmlns="http://www.w3.org/2000/svg" xmlns:xlink="http://www.w3.org/1999/xlink" x="0px" y="0px"
	 viewBox="0 0 300 300" style="enable-background:new 0 0 300 300;" xml:space="preserve">
<style type="text/css">
	.st0{fill:none;stroke:#C92A2A;stroke-width:0.5;stroke-linecap:round;stroke-miterlimit:12;}
	.st1{fill:#C92A2A;}
	.st2{font-family:'ArialMT';}
	.st3{font-size:2.3131px;}
	.st4{fill:none;stroke:#000000;stroke-width:0.5;stroke-linecap:round;stroke-miterlimit:12;}
	.st5{font-size:3.4917px;}
	.st6{fill:none;stroke:#5C940D;stroke-width:0.5;stroke-linecap:round;stroke-miterlimit:12;}
	.st7{fill:#5C940D;}
	.st8{fill:none;stroke:#E67700;stroke-width:0.5;stroke-linecap:round;stroke-miterlimit:12;}
	.st9{fill:#E67700;}
	.st10{font-size:6.087px;}
</style>
<g>
	<g transform="translate(8004.529774673923 1429.2627518664813) rotate(0 369.25207083913847 435.98437279802056)">
		<path class="st0" d="M-7830.8-1337.5c3.1,0,6.1,0,7.7,0 M-7830.8-1337.5c3,0,5.9,0,7.7,0 M-7823-1337.5c2.6,0,3.9,1.3,3.9,3.9
			 M-7823-1337.5c2.6,0,3.9,1.3,3.9,3.9 M-7819.2-1333.6c0,3.6,0,7.2,0,10.5 M-7819.2-1333.6c0,2.4,0,4.8,0,10.5 M-7819.2-1323.1
			c0,2.6-1.3,3.9-3.9,3.9 M-7819.2-1323.1c0,2.6-1.3,3.9-3.9,3.9 M-7823-1319.2c-2.8,0-5.7,0-7.7,0 M-7823-1319.2
			c-1.8,0-3.6,0-7.7,0 M-7830.8-1319.2c-2.6,0-3.9-1.3-3.9-3.9 M-7830.8-1319.2c-2.6,0-3.9-1.3-3.9-3.9 M-7834.6-1323.1
			c0-2.7,0-5.3,0-10.5 M-7834.6-1323.1c0-3.5,0-7,0-10.5 M-7834.6-1333.6c0-2.6,1.3-3.8,3.9-3.9 M-7834.6-1333.6
			c0-2.5,1.3-3.9,3.9-3.9"/>
	</g>
	<g transform="translate(8112.636103847413 1795.4006486142025) rotate(0 261.1457416657504 69.84647605029477)">
		<text transform="matrix(1 0 0 1 -7940.4111 -1693.9113)" class="st1 st2 st3">Flowmeter</text>
	</g>
	<g transform="translate(7528.506020700559 788.6326530612241) rotate(0 2126.5360224230026 2397.914050389114)">
		<path class="st4" d="M-7346.3-710.3c14.9,0,29.8,0,44.6,0 M-7346.3-710.3c11.7,0,23.4,0,44.6,0 M-7301.7-710.3
			c14.9,0,22.3,7.4,22.3,22.3 M-7301.7-710.3c14.9,0,22.3,7.4,22.3,22.3 M-7279.4-688c0,22.3,0,44.6,0,56 M-7279.4-688
			c0.1,12.4,0.2,24.8,0,56 M-7279.4-632c0,14.9-7.4,22.3-22.3,22.3 M-7279.4-632c0,14.9-7.4,22.3-22.3,22.3 M-7301.7-609.8
			c-11.4,0.1-22.8,0.1-44.6,0 M-7301.7-609.8c-10.6,0.1-21.1,0.1-44.6,0 M-7346.3-609.8c-14.9,0-22.3-7.4-22.3-22.3 M-7346.3-609.8
			c-14.9,0-22.3-7.5-22.3-22.3 M-7368.6-632c0.2-19.8,0.2-39.7,0-56 M-7368.6-632c0.1-15.6,0.1-31.3,0-56 M-7368.6-688
			c0-14.8,7.4-22.3,22.3-22.3 M-7368.6-688c0-14.9,7.4-22.2,22.3-22.3"/>
	</g>
	<g>
		<g transform="translate(7635.402740703343 1269.1881556688295) rotate(0 1998.07286548931 0.35744240591338894)">
			<path class="st4" d="M-7473.3-1180.8c14,0,69.8,0,83.8,0 M-7473.3-1180.7c14,0,69.9,0,83.8,0"/>
		</g>
	</g>
	<g transform="translate(9140.313554014137 923.431903018165) rotate(0 496.9332085871283 105.43703709503188)">
		<text transform="matrix(1 0 0 1 -8945.3232 -839.1715)" class="st2 st5">Third Board</text>
	</g>
	<g transform="translate(9036.656044971227 1451.5068525194401) rotate(0 369.25207083913847 435.98437279802056)">
		<path class="st6" d="M-8841.3-1359.3c2.5-0.1,4.9,0,7.7,0 M-8841.3-1359.3c1.7,0,3.4,0,7.7,0 M-8833.5-1359.3
			c2.6,0,3.9,1.3,3.9,3.9 M-8833.5-1359.3c2.6,0,3.9,1.3,3.9,3.9 M-8829.7-1355.4c0,2.4,0,4.9,0,10.5 M-8829.7-1355.4
			c0,2.4,0,4.8,0,10.5 M-8829.7-1344.9c0,2.5-1.3,3.9-3.9,3.9 M-8829.7-1344.9c0,2.6-1.3,3.9-3.9,3.9 M-8833.5-1341
			c-2.7,0-5.5,0-7.7,0 M-8833.5-1341c-2.6,0-5.3,0-7.7,0 M-8841.3-1341c-2.6,0-3.9-1.3-3.9-3.9 M-8841.3-1341
			c-2.6,0-3.9-1.3-3.9-3.9 M-8845.1-1344.9c0-2.8,0-5.6,0-10.5 M-8845.1-1344.9c0-2.6,0-5.2,0-10.5 M-8845.1-1355.4
			c0-2.6,1.3-3.9,3.9-3.9 M-8845.1-1355.4c0-2.6,1.3-3.8,3.9-3.9"/>
	</g>
	<g transform="translate(9144.762374144717 1817.6447492671687) rotate(0 261.1457416657504 69.84647605029477)">
		<text transform="matrix(1 0 0 1 -8950.8984 -1715.6896)" class="st7 st2 st3">Flowmeter</text>
	</g>
	<g transform="translate(10211.144559447508 1464.853312911222) rotate(0 369.25207083913847 435.98437279802056)">
		<path class="st0" d="M-9991.1-1372.3c3,0,5.9,0,7.7,0 M-9991.1-1372.3c2.5,0,5.1,0,7.7,0 M-9983.4-1372.3c2.6,0,3.9,1.3,3.9,3.9
			 M-9983.4-1372.3c2.6,0,3.8,1.3,3.9,3.9 M-9979.5-1368.5c0,2.4,0,4.8,0,10.5 M-9979.5-1368.5c0,4.2,0,8.3,0,10.5 M-9979.5-1357.9
			c0,2.6-1.3,3.9-3.9,3.9 M-9979.5-1357.9c0,2.6-1.3,3.8-3.9,3.9 M-9983.4-1354.1c-1.8,0-3.6,0-7.7,0 M-9983.4-1354.1
			c-1.9,0-3.8,0-7.7,0 M-9991.1-1354.1c-2.6,0-3.9-1.3-3.9-3.9 M-9991.1-1354.1c-2.6,0-3.9-1.3-3.9-3.9 M-9995-1357.9
			c0-3.5,0-7,0-10.5 M-9995-1357.9c0-3.9,0-7.9,0-10.5 M-9995-1368.5c0-2.6,1.3-3.9,3.9-3.9 M-9995-1368.5c0-2.5,1.3-3.9,3.9-3.9"/>
	</g>
	<g transform="translate(10319.250888620969 1830.9912096589396) rotate(0 261.1457416657504 69.84647605029477)">
		<text transform="matrix(1 0 0 1 -10100.7646 -1728.7567)" class="st1 st2 st3">Flowmeter</text>
	</g>
	<g transform="translate(116.7716831342259 2861.7828339171247) rotate(0 369.25207083913847 435.98437279802056)">
		<path class="st0" d="M-108.4-2740c2,0,4.1,0,7.7,0 M-108.4-2740c3.1,0,6.1,0,7.7,0 M-100.6-2740c2.6,0,3.9,1.3,3.9,3.9
			 M-100.6-2740c2.5,0,3.8,1.3,3.9,3.9 M-96.8-2736.1c0,2.3,0,4.7,0,10.5 M-96.8-2736.1c0,3.4,0,6.7,0,10.5 M-96.8-2725.6
			c0,2.6-1.3,3.9-3.9,3.9 M-96.8-2725.6c0,2.5-1.3,3.9-3.9,3.9 M-100.6-2721.7c-1.8,0-3.7,0-7.7,0 M-100.6-2721.7c-2,0-3.9,0-7.7,0
			 M-108.4-2721.7c-2.6,0-3.9-1.3-3.9-3.9 M-108.4-2721.7c-2.6,0-3.9-1.3-3.9-3.9 M-112.3-2725.6c0-2.9,0-5.9,0-10.5 M-112.3-2725.6
			c0-4,0-7.9,0-10.5 M-112.3-2736.1c0-2.6,1.3-3.8,3.9-3.9 M-112.3-2736.1c0-2.6,1.3-3.9,3.9-3.9"/>
	</g>
	<g transform="translate(204.41343970692833 3227.920730664835) rotate(0 281.6103142664797 69.84647605029477)">
		<text transform="matrix(1 0 0 1 -197.5544 -3096.3992)" class="st1 st2 st3">Barometer</text>
	</g>
	<g transform="translate(3991.6940168797737 4748.082569288148) rotate(0 493.81903449571837 493.81903449571746)">
		<path class="st8" d="M-3900.8-4586.7c2.9,0,5.9,0,10.4,0 M-3900.8-4586.7c3.5,0,7,0,10.4,0 M-3890.4-4586.7c3.4,0,5.1,1.7,5.2,5.2
			 M-3890.4-4586.7c3.4,0,5.1,1.8,5.2,5.2 M-3885.2-4581.6c0,3.8,0,7.6,0,10.4 M-3885.2-4581.6c0,3.9,0,7.8,0,10.4 M-3885.2-4571.2
			c0,3.5-1.7,5.1-5.2,5.2 M-3885.2-4571.2c0,3.5-1.8,5.2-5.2,5.2 M-3890.4-4566c-3.9,0-7.7,0-10.4,0 M-3890.4-4566
			c-2.3,0-4.6,0-10.4,0 M-3900.8-4566c-3.5,0-5.2-1.7-5.2-5.2 M-3900.8-4566c-3.4,0-5.2-1.7-5.2-5.2 M-3905.9-4571.2
			c0-3,0-6.1,0-10.4 M-3905.9-4571.2c0-3.1,0-6.1,0-10.4 M-3905.9-4581.6c0-3.4,1.7-5.2,5.2-5.2 M-3905.9-4581.6
			c0-3.5,1.7-5.1,5.2-5.2"/>
	</g>
	<g transform="translate(4025.949931885436 5102.2086516832715) rotate(0 459.563119490158 139.69295210059045)">
		<text transform="matrix(1 0 0 1 -3938.8457 -4931.3931)" class="st9 st2 st3">Apogee detection</text>
		<text transform="matrix(1 0 0 1 -3935.501 -4928.4644)" class="st9 st2 st3">Application</text>
	</g>
	<g transform="translate(10 1251.3099466427884) rotate(0 3198.701673895681 3203.1504940262757)">
		<path class="st4" d="M25.8-1163.3c25.8,0.2,51.5,0.2,67.1,0 M25.8-1163.3c19.3-0.1,38.5-0.1,67.1,0 M92.9-1163.3
			c22.3,0,33.5,11.2,33.5,33.5 M92.9-1163.3c22.3,0,33.6,11.1,33.5,33.5 M126.4-1129.7c0.3,21,0.3,42,0,67.2 M126.4-1129.7
			c0.2,14,0.3,28,0,67.2 M126.4-1062.5c0,22.3-11.2,33.6-33.5,33.5 M126.4-1062.5c0,22.3-11.1,33.6-33.5,33.5 M92.9-1029
			c-23.3,0-46.6,0-67.1,0 M92.9-1029c-14.3-0.1-28.6-0.1-67.1,0 M25.8-1029c-22.4,0-33.5-11.2-33.5-33.5 M25.8-1029
			c-22.4,0-33.5-11.2-33.5-33.5 M-7.7-1062.5c-0.2-25-0.2-50.1,0-67.2 M-7.7-1062.5c0-16.3,0-32.7,0-67.2 M-7.7-1129.7
			c0-22.4,11.2-33.5,33.5-33.5 M-7.7-1129.7c0-22.3,11.2-33.5,33.5-33.5"/>
	</g>
	<g>
		<g transform="translate(186.7146836987231 2008.7469374853936) rotate(0 3025.792201909877 -31.762186487454528)">
			<path class="st4" d="M-180.7-1904.8c21.1-0.2,105.7-1.1,126.8-1.3 M-180.7-1904.8c21.1-0.2,105.7-1.2,126.8-1.4"/>
		</g>
	</g>
	<g transform="translate(2342.071512456372 1501.7785199951322) rotate(0 629.9359286314648 105.43703709503188)">
		<text transform="matrix(1 0 0 1 -2289.8262 -1405.3937)" class="st2 st5">Nucleo L073RZ</text>
	</g>
	<g transform="translate(8538.388190344995 6260.681413689443) rotate(0 369.25207083913847 435.98437279802056)">
		<path class="st0" d="M-8353.4-6067.6c3.1,0,6.1,0,7.7,0 M-8353.4-6067.6c2,0,4,0,7.7,0 M-8345.7-6067.6c2.6,0,3.9,1.3,3.9,3.9
			 M-8345.7-6067.6c2.5,0,3.9,1.3,3.9,3.9 M-8341.8-6063.8c0,3.3,0,6.7,0,10.5 M-8341.8-6063.8c0,2.5,0,5,0,10.5 M-8341.8-6053.2
			c0,2.6-1.3,3.9-3.9,3.9 M-8341.8-6053.2c0,2.6-1.3,3.9-3.9,3.9 M-8345.7-6049.3c-2-0.1-3.9-0.1-7.7,0 M-8345.7-6049.3
			c-1.6,0-3.2,0-7.7,0 M-8353.4-6049.3c-2.6,0-3.9-1.3-3.9-3.9 M-8353.4-6049.3c-2.6,0-3.8-1.3-3.9-3.9 M-8357.3-6053.2
			c0-4,0-7.9,0-10.5 M-8357.3-6053.2c0-4.1,0-8.2,0-10.5 M-8357.3-6063.8c0-2.6,1.3-3.9,3.9-3.9 M-8357.3-6063.8
			c0-2.6,1.3-3.9,3.9-3.9"/>
	</g>
	<g transform="translate(8698.54571504629 6626.8193104371785) rotate(0 209.09454613782873 69.84647605029477)">
		<text transform="matrix(1 0 0 1 -8514.2314 -6424.04)" class="st1 st2 st3">Solenoid</text>
	</g>
	<g transform="translate(8097.954997416353 5753.51591880195) rotate(0 827.4805442901197 1321.299578785839)">
		<path class="st4" d="M-7917.4-5571.1c5.8,0,11.7,0,17.3,0 M-7917.4-5571.1c5.1,0,10.2,0,17.3,0 M-7900.1-5571.1
			c5.8,0,8.6,2.9,8.7,8.7 M-7900.1-5571.1c5.8,0,8.7,2.9,8.7,8.7 M-7891.4-5562.4c0.1,14.3,0.1,28.6,0,38.1 M-7891.4-5562.4
			c0.1,12.3,0.1,24.7,0,38.1 M-7891.4-5524.4c0,5.8-2.9,8.7-8.7,8.7 M-7891.4-5524.4c0,5.8-2.9,8.6-8.7,8.7 M-7900.1-5515.7
			c-3.8-0.1-7.7-0.1-17.3,0 M-7900.1-5515.7c-3.8,0-7.5,0-17.3,0 M-7917.4-5515.7c-5.8,0-8.7-2.9-8.7-8.7 M-7917.4-5515.7
			c-5.7,0-8.6-2.9-8.7-8.7 M-7926.1-5524.4c-0.1-11.3-0.1-22.5,0-38.1 M-7926.1-5524.4c-0.1-9.9-0.1-19.9,0-38.1 M-7926.1-5562.4
			c0-5.8,2.9-8.7,8.7-8.7 M-7926.1-5562.4c0-5.8,2.9-8.7,8.7-8.7"/>
	</g>
	<g>
		<g transform="translate(8106.8960942366975 6171.736517357873) rotate(0 818.1460877802674 4.899663212755513)">
			<path class="st4" d="M-7934.9-5980.5c5.7,0,28.6,0.2,34.3,0.2 M-7934.8-5980.6c5.7,0,28.5,0.1,34.3,0.2"/>
		</g>
	</g>
	<g transform="translate(8211.844792759483 5906.110449281252) rotate(0 695.7954684245997 105.43703709503188)">
		<text transform="matrix(1 0 0 1 -8037.0024 -5717.3887)" class="st2 st5">Arduino MKRZero</text>
	</g>
	<g transform="translate(245.78746692140703 4058.515449046383) rotate(0 369.25207083913847 435.98437279802056)">
		<path class="st0" d="M-234.7-3911.6c2.1,0,4.1,0,7.7,0 M-234.7-3911.6c2.1,0,4.2,0,7.7,0 M-227-3911.6c2.6,0,3.8,1.3,3.9,3.9
			 M-227-3911.6c2.6,0,3.9,1.2,3.9,3.9 M-223.1-3907.8c0,4.2,0,8.3,0,10.5 M-223.1-3907.8c0,2.1,0,4.2,0,10.5 M-223.1-3897.2
			c0,2.6-1.3,3.9-3.9,3.9 M-223.1-3897.2c0,2.5-1.3,3.8-3.9,3.9 M-227-3893.3c-2-0.1-4-0.1-7.7,0 M-227-3893.3c-2.7,0-5.3-0.1-7.7,0
			 M-234.7-3893.3c-2.6,0-3.9-1.3-3.9-3.9 M-234.7-3893.3c-2.5,0-3.8-1.3-3.9-3.9 M-238.6-3897.2c0-3.1,0-6.2,0-10.5 M-238.6-3897.2
			c0-2.4,0-4.9,0-10.5 M-238.6-3907.8c0-2.6,1.3-3.9,3.9-3.9 M-238.6-3907.8c0-2.6,1.3-3.9,3.9-3.9"/>
	</g>
	<g transform="translate(333.42922349399305 4424.653345794111) rotate(0 281.6103142664797 69.84647605029477)">
		<text transform="matrix(1 0 0 1 -323.8656 -4268.042)" class="st1 st2 st3">Barometer</text>
	</g>
	<g transform="translate(1028.7798099056236 2172.215713675363) rotate(0 369.25207083913847 435.98437279802056)">
		<path class="st0" d="M-1001.3-2064.9c2,0,4,0,7.7,0 M-1001.3-2064.9c2,0,4,0,7.7,0 M-993.5-2064.9c2.6,0,3.9,1.3,3.9,3.9
			 M-993.5-2064.9c2.6,0,3.9,1.3,3.9,3.9 M-989.7-2061c0,2.5,0,5,0,10.5 M-989.7-2061c0,3.9,0,7.8,0,10.5 M-989.7-2050.5
			c0,2.6-1.3,3.8-3.9,3.9 M-989.7-2050.5c0,2.5-1.3,3.8-3.9,3.9 M-993.5-2046.6c-1.6,0-3.2,0-7.7,0 M-993.5-2046.6
			c-1.6,0-3.2,0-7.7,0 M-1001.3-2046.6c-2.6,0-3.8-1.3-3.9-3.9 M-1001.3-2046.6c-2.5,0-3.9-1.3-3.9-3.9 M-1005.1-2050.5
			c0-4.1,0-8.2,0-10.5 M-1005.1-2050.5c0-3,0-6.1,0-10.5 M-1005.1-2061c0-2.6,1.3-3.9,3.9-3.9 M-1005.1-2061c0-2.6,1.3-3.9,3.9-3.9"
			/>
	</g>
	<g transform="translate(1116.4215664781805 2538.353610423077) rotate(0 281.6103142664797 69.84647605029477)">
		<text transform="matrix(1 0 0 1 -1090.4424 -2421.2881)" class="st1 st2 st3">Barometer</text>
	</g>
	<g transform="translate(8538.388190344995 7332.847065162134) rotate(0 369.25207083913847 435.98437279802056)">
		<path class="st0" d="M-8353.4-7117.3c2.3,0,4.5,0,7.7,0 M-8353.4-7117.3c2.9,0,5.7,0,7.7,0 M-8345.7-7117.3c2.6,0,3.9,1.3,3.9,3.9
			 M-8345.7-7117.3c2.6,0,3.8,1.3,3.9,3.9 M-8341.8-7113.4c0,3.4,0,6.8,0,10.5 M-8341.8-7113.4c0,2.8,0,5.6,0,10.5 M-8341.8-7102.9
			c0,2.5-1.3,3.8-3.9,3.9 M-8341.8-7102.9c0,2.6-1.3,3.9-3.9,3.9 M-8345.7-7099c-1.7,0-3.4,0-7.7,0 M-8345.7-7099
			c-2.1,0-4.2,0-7.7,0 M-8353.4-7099c-2.6,0-3.8-1.3-3.9-3.9 M-8353.4-7099c-2.6,0-3.8-1.3-3.9-3.9 M-8357.3-7102.9
			c0-2.7,0-5.5,0-10.5 M-8357.3-7102.9c0-3.9,0-7.7,0-10.5 M-8357.3-7113.4c0-2.6,1.3-3.9,3.9-3.9 M-8357.3-7113.4
			c0-2.6,1.2-3.8,3.9-3.9"/>
	</g>
	<g transform="translate(8698.54571504629 7698.984961909859) rotate(0 209.09454613782873 69.84647605029477)">
		<text transform="matrix(1 0 0 1 -8514.2314 -7473.728)" class="st1 st2 st3">Solenoid</text>
	</g>
	<g transform="translate(272.4803877049708 5606.704854492418) rotate(0 369.25207083913847 435.98437279802056)">
		<path class="st0" d="M-260.8-5427.4c1.8,0,3.6,0.1,7.7,0 M-260.8-5427.4c1.8,0,3.5,0,7.7,0 M-253.1-5427.4c2.6,0,3.9,1.3,3.9,3.9
			 M-253.1-5427.4c2.6,0,3.9,1.3,3.9,3.9 M-249.2-5423.5c0,3.7,0,7.5,0,10.5 M-249.2-5423.5c0,3.6,0,7.2,0,10.5 M-249.2-5412.9
			c0,2.5-1.3,3.9-3.9,3.9 M-249.2-5412.9c0,2.6-1.3,3.9-3.9,3.9 M-253.1-5409.1c-2.1,0-4.1,0-7.7,0 M-253.1-5409.1
			c-1.9,0-3.8,0-7.7,0 M-260.8-5409.1c-2.6,0-3.9-1.3-3.9-3.9 M-260.8-5409.1c-2.5,0-3.9-1.3-3.9-3.9 M-264.7-5412.9
			c0-3.1,0-6.2,0-10.5 M-264.7-5412.9c0-3.6,0-7.2,0-10.5 M-264.7-5423.5c0-2.6,1.3-3.9,3.9-3.9 M-264.7-5423.5
			c0-2.5,1.3-3.9,3.9-3.9"/>
	</g>
	<g transform="translate(527.8426632009214 5972.842751240136) rotate(0 113.88979534315877 69.84647605029477)">
		<text transform="matrix(1 0 0 1 -514.7619 -5783.7744)" class="st1 st2 st3">GPS</text>
	</g>
	<g transform="translate(975.3939683385252 6496.468880610821) rotate(0 369.25207083913847 435.98437279802056)">
		<path class="st6" d="M-949-6298.5c1.8,0.1,3.5,0,7.7,0 M-949-6298.5c3.1,0,6.1,0,7.7,0 M-941.3-6298.5c2.6,0,3.8,1.3,3.9,3.9
			 M-941.3-6298.5c2.6,0,3.9,1.2,3.9,3.9 M-937.4-6294.6c0,2.4,0,4.9,0,10.5 M-937.4-6294.6c0,2.6,0,5.2,0,10.5 M-937.4-6284.1
			c0,2.6-1.3,3.9-3.9,3.9 M-937.4-6284.1c0,2.6-1.3,3.9-3.9,3.9 M-941.3-6280.2c-2.6,0-5.1,0-7.7,0 M-941.3-6280.2
			c-2.9,0-5.8,0-7.7,0 M-949-6280.2c-2.6,0-3.8-1.3-3.9-3.9 M-949-6280.2c-2.6,0-3.9-1.3-3.9-3.9 M-952.9-6284.1c0-4,0-8,0-10.5
			 M-952.9-6284.1c0-2.8,0-5.6,0-10.5 M-952.9-6294.6c0-2.6,1.3-3.8,3.9-3.9 M-952.9-6294.6c0-2.6,1.3-3.9,3.9-3.9"/>
	</g>
	<g transform="translate(1230.756243834534 6862.606777358553) rotate(0 113.88979534315877 69.84647605029477)">
		<text transform="matrix(1 0 0 1 -1202.9387 -6654.8853)" class="st7 st2 st3">GPS</text>
	</g>
	<g transform="translate(2060.906080202898 6532.059441655547) rotate(0 369.25207083913847 435.98437279802056)">
		<path class="st0" d="M-2011.8-6333.3c1.7,0,3.5,0,7.7,0 M-2011.8-6333.3c2.5,0,4.9,0,7.7,0 M-2004-6333.3c2.6,0,3.9,1.3,3.9,3.9
			 M-2004-6333.3c2.6,0,3.8,1.3,3.9,3.9 M-2000.1-6329.4c0,2.5,0,5,0,10.5 M-2000.1-6329.4c0,2.7,0,5.4,0,10.5 M-2000.1-6318.9
			c0,2.6-1.3,3.9-3.9,3.9 M-2000.1-6318.9c0,2.6-1.3,3.8-3.9,3.9 M-2004-6315c-2.2,0-4.3,0-7.7,0 M-2004-6315c-2.9,0-5.8,0-7.7,0
			 M-2011.8-6315c-2.5,0-3.9-1.3-3.9-3.9 M-2011.8-6315c-2.6,0-3.8-1.3-3.9-3.9 M-2015.6-6318.9c0-3.1,0-6.3,0-10.5 M-2015.6-6318.9
			c0-2.4,0-4.9,0-10.5 M-2015.6-6329.4c0-2.5,1.3-3.9,3.9-3.9 M-2015.6-6329.4c0-2.6,1.3-3.9,3.9-3.9"/>
	</g>
	<g transform="translate(2316.268355698994 6898.19733840329) rotate(0 113.88979534315877 69.84647605029477)">
		<text transform="matrix(1 0 0 1 -2265.6938 -6689.7305)" class="st1 st2 st3">GPS</text>
	</g>
	<g transform="translate(3582.4025648653624 2243.3968357648228) rotate(0 369.25207083913847 435.98437279802056)">
		<path class="st0" d="M-3501.4-2134.6c2.8,0,5.6,0,7.7,0 M-3501.4-2134.6c2.9,0.1,5.8,0,7.7,0 M-3493.6-2134.6
			c2.6,0,3.9,1.2,3.9,3.9 M-3493.6-2134.6c2.5,0,3.8,1.3,3.9,3.9 M-3489.7-2130.7c0,3.9,0,7.8,0,10.5 M-3489.7-2130.7
			c0,2.3,0,4.7,0,10.5 M-3489.7-2120.2c0,2.6-1.3,3.9-3.9,3.9 M-3489.7-2120.2c0,2.5-1.3,3.9-3.9,3.9 M-3493.6-2116.3
			c-2.3,0-4.5,0.1-7.7,0 M-3493.6-2116.3c-2.3,0-4.6,0-7.7,0 M-3501.4-2116.3c-2.6,0-3.9-1.3-3.9-3.9 M-3501.4-2116.3
			c-2.5,0-3.9-1.3-3.9-3.9 M-3505.2-2120.2c0-2.7,0-5.3,0-10.5 M-3505.2-2120.2c0-3,0-6.1,0-10.5 M-3505.2-2130.7
			c0-2.6,1.3-3.9,3.9-3.9 M-3505.2-2130.7c0-2.6,1.3-3.9,3.9-3.9"/>
	</g>
	<g transform="translate(3610.875013701152 2618.4323727737283) rotate(0 340.7796220033488 69.84647605029477)">
		<text transform="matrix(1 0 0 1 -3531.8093 -2499.6892)" class="st1 st2 st3">Inertial Unit</text>
	</g>
	<g transform="translate(4774.686359864048 2136.6251526306187) rotate(0 369.25207083913847 435.98437279802056)">
		<path class="st0" d="M-4668.6-2030c2.4,0,4.9,0,7.7,0 M-4668.6-2030c1.6,0,3.2,0,7.7,0 M-4660.9-2030c2.6,0,3.8,1.3,3.9,3.9
			 M-4660.9-2030c2.5,0,3.9,1.3,3.9,3.9 M-4657-2026.2c0,3.6,0,7.3,0,10.5 M-4657-2026.2c0,2.3,0,4.5,0,10.5 M-4657-2015.6
			c0,2.6-1.3,3.8-3.9,3.9 M-4657-2015.6c0,2.6-1.3,3.8-3.9,3.9 M-4660.9-2011.7c-2.9,0-5.8,0-7.7,0 M-4660.9-2011.7
			c-1.9,0-3.8,0-7.7,0 M-4668.6-2011.7c-2.6,0-3.8-1.3-3.9-3.9 M-4668.6-2011.7c-2.6,0-3.9-1.3-3.9-3.9 M-4672.5-2015.6
			c0-2.8,0-5.6,0-10.5 M-4672.5-2015.6c0-3.1,0-6.3,0-10.5 M-4672.5-2026.2c0-2.6,1.3-3.9,3.9-3.9 M-4672.5-2026.2
			c0-2.6,1.3-3.8,3.9-3.9"/>
	</g>
	<g transform="translate(4820.954089222127 2502.763049378347) rotate(0 340.7796220033488 69.84647605029477)">
		<text transform="matrix(1 0 0 1 -4716.52 -2386.4436)" class="st1 st2 st3">Inertial Unit</text>
	</g>
	<g transform="translate(5539.8834223260055 3026.3891787490284) rotate(0 369.25207083913847 435.98437279802056)">
		<path class="st0" d="M-5417.8-2901.1c1.9,0,3.8,0,7.7,0 M-5417.8-2901.1c2.9,0,5.7,0,7.7,0 M-5410.1-2901.1c2.6,0,3.8,1.3,3.9,3.9
			 M-5410.1-2901.1c2.6,0,3.9,1.3,3.9,3.9 M-5406.2-2897.3c0,3.2,0,6.3,0,10.5 M-5406.2-2897.3c0,2.6,0,5.3,0,10.5 M-5406.2-2886.7
			c0,2.5-1.3,3.9-3.9,3.9 M-5406.2-2886.7c0,2.6-1.3,3.9-3.9,3.9 M-5410.1-2882.9c-2.7,0.1-5.3,0-7.7,0 M-5410.1-2882.9
			c-1.7,0-3.5,0-7.7,0 M-5417.8-2882.9c-2.5,0-3.9-1.3-3.9-3.9 M-5417.8-2882.9c-2.6,0-3.9-1.3-3.9-3.9 M-5421.7-2886.7
			c0-3,0-6,0-10.5 M-5421.7-2886.7c0-2.8,0-5.7,0-10.5 M-5421.7-2897.3c0-2.6,1.3-3.9,3.9-3.9 M-5421.7-2897.3
			c0-2.5,1.3-3.8,3.9-3.9"/>
	</g>
	<g transform="translate(5568.355871161824 3392.527075496757) rotate(0 340.7796220033488 69.84647605029477)">
		<text transform="matrix(1 0 0 1 -5448.2529 -3257.5544)" class="st1 st2 st3">Inertial Unit</text>
	</g>
	<g transform="translate(1420.2759813976882 3333.357767759884) rotate(0 493.81903449571837 493.81903449571746)">
		<path class="st0" d="M-1383.3-3201.7c3.9,0,7.9,0,10.4,0 M-1383.3-3201.7c2.6,0,5.3,0,10.4,0 M-1372.9-3201.7
			c3.4,0,5.2,1.7,5.2,5.2 M-1372.9-3201.7c3.5,0,5.2,1.7,5.2,5.2 M-1367.7-3196.5c0,2.1,0,4.2,0,10.4 M-1367.7-3196.5
			c0,3.7,0,7.3,0,10.4 M-1367.7-3186.1c0,3.4-1.7,5.2-5.2,5.2 M-1367.7-3186.1c0,3.5-1.7,5.2-5.2,5.2 M-1372.9-3181
			c-3.9,0-7.7,0-10.4,0 M-1372.9-3181c-3,0-6,0-10.4,0 M-1383.3-3181c-3.5,0-5.2-1.7-5.2-5.2 M-1383.3-3181c-3.5,0-5.2-1.8-5.2-5.2
			 M-1388.4-3186.1c0-2.1,0-4.3,0-10.4 M-1388.4-3186.1c0-4.1,0-8.3,0-10.4 M-1388.4-3196.5c0-3.5,1.7-5.1,5.2-5.2 M-1388.4-3196.5
			c0-3.4,1.7-5.2,5.2-5.2"/>
	</g>
	<g transform="translate(1546.6224731065158 3617.6373741047064) rotate(0 367.47254278690525 209.53942815088521)">
		<text transform="matrix(1 0 0 1 -1509.052 -3477.946)" class="st1 st2 st3">Pressure</text>
		<text transform="matrix(1 0 0 1 -1511.6248 -3475.0173)" class="st1 st2 st3">Determination</text>
		<text transform="matrix(1 0 0 1 -1510.0818 -3472.0876)" class="st1 st2 st3">Application</text>
	</g>
	<g transform="translate(3653.5836869548657 3306.664846976324) rotate(0 493.81903449571837 493.81903449571746)">
		<path class="st0" d="M-3569.7-3175.5c3.8-0.1,7.5,0,10.4,0 M-3569.7-3175.5c3.7,0,7.4,0,10.4,0 M-3559.4-3175.5
			c3.5,0,5.2,1.7,5.2,5.2 M-3559.4-3175.5c3.5,0,5.1,1.7,5.2,5.2 M-3554.2-3170.4c0,3.8,0,7.5,0,10.4 M-3554.2-3170.4
			c0,2.8,0,5.7,0,10.4 M-3554.2-3160c0,3.4-1.7,5.2-5.2,5.2 M-3554.2-3160c0,3.5-1.7,5.2-5.2,5.2 M-3559.4-3154.8
			c-3.8,0-7.6,0-10.4,0 M-3559.4-3154.8c-3.9,0-7.7,0-10.4,0 M-3569.7-3154.8c-3.5,0-5.2-1.7-5.2-5.2 M-3569.7-3154.8
			c-3.5,0-5.2-1.7-5.2-5.2 M-3574.9-3160c0-3.9,0-7.7,0-10.4 M-3574.9-3160c0-2.3,0-4.6,0-10.4 M-3574.9-3170.4
			c0-3.4,1.7-5.1,5.2-5.2 M-3574.9-3170.4c0-3.5,1.7-5.1,5.2-5.2"/>
	</g>
	<g transform="translate(3779.930178663577 3590.9444533211536) rotate(0 367.47254278690525 209.53942815088521)">
		<text transform="matrix(1 0 0 1 -3697.2756 -3451.8125)" class="st1 st2 st3">Acceleration</text>
		<text transform="matrix(1 0 0 1 -3698.1116 -3448.8838)" class="st1 st2 st3">Determination</text>
		<text transform="matrix(1 0 0 1 -3696.5696 -3445.9541)" class="st1 st2 st3">Application</text>
	</g>
	<g transform="translate(1660.5122684496455 5006.1141368624885) rotate(0 493.81903449571837 493.81903449571746)">
		<path class="st6" d="M-1618.5-4839.4c4.1,0,8.2,0,10.4,0 M-1618.5-4839.4c2.1,0,4.2,0,10.4,0 M-1608.1-4839.4
			c3.5,0,5.2,1.7,5.2,5.2 M-1608.1-4839.4c3.4,0,5.2,1.7,5.2,5.2 M-1602.9-4834.2c0,2.6,0,5.3,0,10.4 M-1602.9-4834.2
			c0,3.5,0,7.1,0,10.4 M-1602.9-4823.8c0,3.5-1.7,5.2-5.2,5.2 M-1602.9-4823.8c0,3.4-1.7,5.1-5.2,5.2 M-1608.1-4818.7
			c-3.1,0-6.1,0-10.4,0 M-1608.1-4818.7c-2.4,0-4.8,0-10.4,0 M-1618.5-4818.7c-3.5,0-5.2-1.8-5.2-5.2 M-1618.5-4818.7
			c-3.5,0-5.1-1.7-5.2-5.2 M-1623.6-4823.8c0-4,0-8,0-10.4 M-1623.6-4823.8c0-2.4,0-4.8,0-10.4 M-1623.6-4834.2
			c0-3.4,1.7-5.2,5.2-5.2 M-1623.6-4834.2c0-3.4,1.7-5.2,5.2-5.2"/>
	</g>
	<g transform="translate(1786.858760158415 5290.393743207318) rotate(0 367.47254278690525 209.53942815088521)">
		<text transform="matrix(1 0 0 1 -1742.0667 -5115.6318)" class="st7 st2 st3">GPS</text>
		<text transform="matrix(1 0 0 1 -1746.824 -5112.7041)" class="st7 st2 st3">Determination</text>
		<text transform="matrix(1 0 0 1 -1745.282 -5109.7744)" class="st7 st2 st3">Application</text>
	</g>
	<g transform="translate(4036.1822181858006 6064.9333279433995) rotate(0 493.81903449571837 493.81903449571746)">
		<path class="st8" d="M-3944.3-5876c2.5,0,4.9,0,10.4,0 M-3944.3-5876c3.8,0,7.6,0,10.4,0 M-3934-5876c3.5,0,5.1,1.7,5.2,5.2
			 M-3934-5876c3.5,0,5.2,1.7,5.2,5.2 M-3928.8-5870.8c0,2.1,0,4.3,0,10.4 M-3928.8-5870.8c0,2.1,0,4.3,0,10.4 M-3928.8-5860.5
			c0,3.5-1.7,5.2-5.2,5.2 M-3928.8-5860.5c0,3.4-1.7,5.1-5.2,5.2 M-3934-5855.3c-4,0-8.1,0-10.4,0 M-3934-5855.3c-3,0-6,0-10.4,0
			 M-3944.3-5855.3c-3.5,0-5.2-1.7-5.2-5.2 M-3944.3-5855.3c-3.4,0-5.1-1.7-5.2-5.2 M-3949.5-5860.5c-0.1-2.2-0.1-4.4,0-10.4
			 M-3949.5-5860.5c0-2.5,0-4.9,0-10.4 M-3949.5-5870.8c0-3.5,1.7-5.2,5.2-5.2 M-3949.5-5870.8c0-3.4,1.7-5.2,5.2-5.2"/>
	</g>
	<g transform="translate(4255.509050623979 6472.445251905621) rotate(0 265.59456179634435 69.84647605029477)">
		<text transform="matrix(1 0 0 1 -4163.6699 -6272.9033)" class="st9 st2 st3">Telemetry</text>
	</g>
	<g>
		<g transform="translate(1718.393525846841 3008.7245746624067) rotate(0 143.02141737627971 159.90090926264747)">
			<path class="st0" d="M-1680.3-2883.9c0.9,0.5,4.2,1.7,5.2,2.8c1,1.1,0.6,3.2,0.7,3.9 M-1680.3-2883.8c0.9,0.5,4.3,1.6,5.3,2.8
				c1,1.1,0.6,3.3,0.8,3.9"/>
		</g>
	</g>
	<g>
		<g transform="translate(837.6112207258557 3471.3628078842885) rotate(0 279.47138441502466 66.74839989454267)">
			<path class="st0" d="M-818-3336.8c0.7,0.3,2.6,1.2,4.5,1.7s6,1,7.2,1.2 M-818-3336.8c0.7,0.3,2.5,1.2,4.5,1.7
				c2,0.5,6,0.9,7.2,1.1"/>
		</g>
	</g>
	<g>
		<g transform="translate(988.8320448063314 4352.311954398801) rotate(0 213.55946420408145 -164.98321520157515)">
			<path class="st0" d="M-966-4199.2c0.3-0.6,0.6-2.8,2.1-3.9c1.5-1.2,5.8-2.5,6.9-3 M-966-4199.3c0.3-0.6,0.6-2.7,2.1-3.9
				c1.5-1.2,5.7-2.5,6.9-3"/>
		</g>
	</g>
	<g>
		<g transform="translate(1015.4549858245882 5811.512892122661) rotate(0 320.4663109436806 -200.20254104472951)">
			<path class="st0" d="M-992.1-5627.9c0.7-0.7,1.7-3,3.9-4.4c2.2-1.4,7.9-3.3,9.5-3.9 M-992.1-5627.8c0.7-0.7,1.6-3.1,3.9-4.5
				c2.2-1.4,8-3.3,9.5-3.9"/>
		</g>
	</g>
	<g>
		<g transform="translate(1380.2058428875025 6496.54145259615) rotate(0 155.20939931712928 -289.71404652533965)">
			<path class="st6" d="M-1349.2-6298.5c0.1-1.1-0.7-4.7,0.4-6.7s5.3-4.5,6.3-5.4 M-1349.2-6298.6c0.1-1.1-0.8-4.7,0.4-6.7
				c1.1-2,5.3-4.5,6.3-5.4"/>
		</g>
	</g>
	<g>
		<g transform="translate(2412.557950294882 6523.161232640423) rotate(0 -44.59524532548676 -262.04616478357457)">
			<path class="st0" d="M-2359.9-6324.6c0-0.8,0.1-2.8-0.2-4.7s-1.4-5.3-1.7-6.4 M-2359.9-6324.6c0-0.8,0.1-2.9-0.2-4.7
				c-0.3-1.8-1.4-5.2-1.7-6.3"/>
		</g>
	</g>
	<g>
		<g transform="translate(4022.851480413563 3106.499351781911) rotate(0 97.80530911505048 102.42012557101134)">
			<path class="st0" d="M-3936.4-2979.6c0.5,0.3,2.1,1.1,2.8,1.8c0.7,0.7,1.1,2,1.3,2.4 M-3936.4-2979.6c0.5,0.3,2.1,1.2,2.8,1.9
				s1.1,2,1.3,2.4"/>
		</g>
	</g>
	<g>
		<g transform="translate(4903.878931242885 3008.613243798545) rotate(0 -133.07808556291275 213.2112715715275)">
			<path class="st0" d="M-4799-2883.7c-0.1,0.9,0.4,3.7-0.6,5.2c-0.9,1.5-4.2,3.1-5,3.7 M-4799-2883.7c-0.1,0.9,0.4,3.8-0.5,5.3
				c-0.9,1.5-4.3,3.1-5.1,3.7"/>
		</g>
	</g>
	<g>
		<g transform="translate(5562.258084576824 3836.1470145021085) rotate(0 -458.53538239560294 93.03423818972533)">
			<path class="st0" d="M-5443.6-3693.9c-1.5,0.6-5.8,2.7-9,3.4c-3.2,0.7-8.6,0.5-10.3,0.6 M-5443.6-3693.9c-1.5,0.6-5.8,2.7-9,3.3
				c-3.2,0.6-8.5,0.5-10.2,0.5"/>
		</g>
	</g>
	<g>
		<g transform="translate(4200.985451826869 4289.968491656597) rotate(0 -18.11779001547984 235.65458393997596)">
			<path class="st0" d="M-4110.9-4138.2c-0.1,0.9-0.7,3.9-0.7,5.6c0,1.7,0.5,3.6,0.6,4.3 M-4110.8-4138.2c-0.1,0.9-0.8,4-0.8,5.6
				c0,1.6,0.5,3.6,0.6,4.3"/>
		</g>
	</g>
	<g>
		<g transform="translate(2376.9322917040845 4227.631191119803) rotate(0 809.3456133943473 364.39215612611315)">
			<path class="st0" d="M-2325-4077.2c2.3,1.8,7.9,8.1,13.6,10.6c5.7,2.5,17,3.9,20.4,4.7 M-2325.1-4077.2c2.3,1.8,8,8.1,13.7,10.6
				c5.7,2.5,16.9,3.9,20.3,4.7"/>
		</g>
	</g>
	<g>
		<g transform="translate(2652.65973468266 5366.526084856267) rotate(0 672.1491525719466 -46.00563776841682)">
			<path class="st6" d="M-2595-5192.2c1.9,0.1,6.9,0.8,11.6,0.4c4.7-0.4,13.8-2.4,16.6-2.8 M-2594.9-5192.2
				c1.9,0.1,6.9,0.7,11.6,0.3c4.7-0.4,13.8-2.3,16.6-2.8"/>
		</g>
	</g>
	<g>
		<g transform="translate(2626.0367983860488 5891.533515692681) rotate(0 702.0605060557209 320.2568898381942)">
			<path class="st6" d="M-2568.9-5706.2c2.2,2,8.6,9.9,13.5,12.1c4.9,2.2,13.3,0.9,16,1.1 M-2568.9-5706.2c2.2,2,8.5,9.9,13.4,12.1
				c4.9,2.2,13.3,0.9,16,1.1"/>
		</g>
	</g>
	<g>
		<g transform="translate(4592.38890735223 4218.6584611711205) rotate(0 333.7271472733337 951.9218196377924)">
			<path class="st0" d="M-4494.1-4068.4c2.3,1.6,12.5,3,13.8,9.7c1.3,6.6-4.8,25.2-5.8,30.2 M-4494-4068.4
				c2.3,1.6,12.5,3.1,13.8,9.7c1.3,6.7-4.9,25.2-5.8,30.2"/>
		</g>
	</g>
	<g>
		<g transform="translate(2314.519901479769 4289.969041513523) rotate(0 881.322337591293 911.811545798475)">
			<path class="st0" d="M-2263.9-4138.3c2.3,2.9,7.6,11.2,13.8,17.5c6.1,6.4,19.3,17.3,23.1,20.7 M-2263.9-4138.2
				c2.3,2.9,7.6,11.2,13.8,17.5c6.2,6.4,19.3,17.2,23.2,20.7"/>
		</g>
	</g>
	<g>
		<g transform="translate(4530.023227498343 5740.226975825997) rotate(0 -23.673360320317443 159.79401428133588)">
			<path class="st8" d="M-4433-5558.1c-0.2,0.7-0.8,3.2-0.9,4.3c-0.1,1.1,0,2,0,2.4 M-4433-5558c-0.1,0.7-0.8,3.1-0.9,4.2
				c-0.2,1.1,0,2,0,2.4"/>
		</g>
	</g>
	<g transform="translate(10042.089394485025 2456.940202033238) rotate(0 493.81903449571837 493.81903449571746)">
		<path class="st6" d="M-9824.3-2343.6c3.8,0,7.6,0,10.4,0 M-9824.3-2343.6c2.8,0,5.7,0,10.4,0 M-9814-2343.6c3.4,0,5.2,1.8,5.2,5.2
			 M-9814-2343.6c3.5,0,5.2,1.7,5.2,5.2 M-9808.8-2338.5c0,3.8,0,7.6,0,10.4 M-9808.8-2338.5c0,3.9,0,7.7,0,10.4 M-9808.8-2328.1
			c0,3.5-1.7,5.2-5.2,5.2 M-9808.8-2328.1c0,3.4-1.8,5.2-5.2,5.2 M-9814-2322.9c-3.9,0-7.7,0.1-10.4,0 M-9814-2322.9
			c-2.3,0-4.6,0-10.4,0 M-9824.3-2322.9c-3.5,0-5.2-1.7-5.2-5.2 M-9824.3-2322.9c-3.4,0-5.2-1.7-5.2-5.2 M-9829.5-2328.1
			c0-3.4,0-6.7,0-10.4 M-9829.5-2328.1c0-2.1,0-4.2,0-10.4 M-9829.5-2338.5c0-3.5,1.7-5.2,5.2-5.2 M-9829.5-2338.5
			c0-3.4,1.7-5.2,5.2-5.2"/>
	</g>
	<g transform="translate(10168.435886193794 2741.2198083780786) rotate(0 367.47254278690525 209.53942815088521)">
		<text transform="matrix(1 0 0 1 -9949.918 -2619.9014)" class="st7 st2 st3">Flowrate</text>
		<text transform="matrix(1 0 0 1 -9952.6826 -2616.9736)" class="st7 st2 st3">Determination</text>
		<text transform="matrix(1 0 0 1 -9951.1416 -2614.0439)" class="st7 st2 st3">Application</text>
	</g>
	<g transform="translate(8413.821226688422 4623.515605631568) rotate(0 369.25207083913847 435.98437279802056)">
		<path class="st0" d="M-8231.5-4464.8c2,0,4,0,7.7,0 M-8231.5-4464.8c2.7,0,5.3,0,7.7,0 M-8223.7-4464.8c2.6,0,3.9,1.3,3.9,3.9
			 M-8223.7-4464.8c2.6,0,3.9,1.3,3.9,3.9 M-8219.9-4460.9c0,3.1,0,6.2,0,10.5 M-8219.9-4460.9c0,2.5,0,4.9,0,10.5 M-8219.9-4450.4
			c0,2.6-1.3,3.8-3.9,3.9 M-8219.9-4450.4c0,2.6-1.3,3.9-3.9,3.9 M-8223.7-4446.5c-3,0-6,0-7.7,0 M-8223.7-4446.5
			c-1.8,0-3.6,0-7.7,0 M-8231.5-4446.5c-2.6,0-3.9-1.3-3.9-3.9 M-8231.5-4446.5c-2.6,0-3.9-1.3-3.9-3.9 M-8235.4-4450.4
			c0-3,0-6,0-10.5 M-8235.4-4450.4c0-2.3,0-4.5,0-10.5 M-8235.4-4460.9c0-2.6,1.3-3.9,3.9-3.9 M-8235.4-4460.9
			c0-2.6,1.3-3.9,3.9-3.9"/>
	</g>
	<g transform="translate(8501.462983261095 4989.653502379293) rotate(0 281.6103142664797 69.84647605029477)">
		<text transform="matrix(1 0 0 1 -8320.6582 -4821.1973)" class="st1 st2 st3">Barometer</text>
	</g>
	<g transform="translate(9392.56165541851 4641.310886153933) rotate(0 369.25207083913847 435.98437279802056)">
		<path class="st0" d="M-9189.7-4482.2c1.6,0,3.2,0,7.7,0 M-9189.7-4482.2c1.6,0,3.2,0,7.7,0 M-9182-4482.2c2.6,0,3.9,1.3,3.9,3.9
			 M-9182-4482.2c2.6,0,3.9,1.3,3.9,3.9 M-9178.1-4478.3c0,4.1,0,8.3,0,10.5 M-9178.1-4478.3c0,3,0,6.1,0,10.5 M-9178.1-4467.8
			c0,2.6-1.3,3.9-3.9,3.9 M-9178.1-4467.8c0,2.6-1.2,3.9-3.9,3.9 M-9182-4463.9c-1.7,0.1-3.3,0-7.7,0 M-9182-4463.9
			c-1.9,0-3.7,0-7.7,0 M-9189.7-4463.9c-2.6,0-3.9-1.3-3.9-3.9 M-9189.7-4463.9c-2.6,0-3.9-1.3-3.9-3.9 M-9193.6-4467.8
			c0-2.4,0-4.8,0-10.5 M-9193.6-4467.8c0-2.1,0-4.2,0-10.5 M-9193.6-4478.3c0-2.6,1.3-3.9,3.9-3.9 M-9193.6-4478.3
			c0-2.6,1.3-3.9,3.9-3.9"/>
	</g>
	<g transform="translate(9480.203411991271 5007.448782901665) rotate(0 281.6103142664797 69.84647605029477)">
		<text transform="matrix(1 0 0 1 -9278.8789 -4838.6196)" class="st1 st2 st3">Barometer</text>
	</g>
	<g transform="translate(10389.097364671266 4632.413245892756) rotate(0 369.25207083913847 435.98437279802056)">
		<path class="st0" d="M-10165.4-4473.5c1.7,0,3.3,0,7.7,0 M-10165.4-4473.5c2.1,0,4.3,0,7.7,0 M-10157.6-4473.5
			c2.6,0,3.9,1.3,3.9,3.9 M-10157.6-4473.5c2.6,0,3.9,1.3,3.9,3.9 M-10153.7-4469.6c0,2.8,0,5.5,0,10.5 M-10153.7-4469.6
			c0,3.9,0,7.7,0,10.5 M-10153.7-4459.1c0,2.6-1.3,3.9-3.9,3.9 M-10153.7-4459.1c0,2.6-1.3,3.9-3.9,3.9 M-10157.6-4455.2
			c-3.1,0-6.2,0-7.7,0 M-10157.6-4455.2c-1.6,0.1-3.2,0-7.7,0 M-10165.4-4455.2c-2.6,0-3.9-1.3-3.9-3.9 M-10165.4-4455.2
			c-2.6,0-3.9-1.3-3.9-3.9 M-10169.2-4459.1c0-2.9,0-5.7,0-10.5 M-10169.2-4459.1c0-2.9,0-5.9,0-10.5 M-10169.2-4469.6
			c0-2.6,1.3-3.9,3.9-3.9 M-10169.2-4469.6c0-2.6,1.2-3.9,3.9-3.9"/>
	</g>
	<g transform="translate(10485.636761505099 4998.551142640477) rotate(0 281.6103142664797 69.84647605029477)">
		<text transform="matrix(1 0 0 1 -10263.2334 -4829.9087)" class="st1 st2 st3">Barometer</text>
	</g>
	<g transform="translate(10068.782315268618 3524.6570333753443) rotate(0 493.81903449571837 493.81903449571746)">
		<path class="st6" d="M-9850.4-3389c2.8,0,5.5,0,10.4,0 M-9850.4-3389c2.6,0,5.2,0,10.4,0 M-9840.1-3389c3.5,0,5.2,1.7,5.2,5.2
			 M-9840.1-3389c3.5,0,5.2,1.8,5.2,5.2 M-9834.9-3383.8c0,3.1,0,6.1,0,10.4 M-9834.9-3383.8c0,3.5,0,7,0,10.4 M-9834.9-3373.4
			c0,3.4-1.7,5.2-5.2,5.2 M-9834.9-3373.4c0,3.5-1.7,5.1-5.2,5.2 M-9840.1-3368.3c-4,0-7.9,0-10.4,0 M-9840.1-3368.3
			c-4.1,0-8.2,0-10.4,0 M-9850.4-3368.3c-3.4,0-5.2-1.7-5.2-5.2 M-9850.4-3368.3c-3.5,0-5.2-1.8-5.2-5.2 M-9855.6-3373.4
			c0-2.4,0-4.8,0-10.4 M-9855.6-3373.4c0-2.1,0-4.2,0-10.4 M-9855.6-3383.8c0-3.5,1.8-5.2,5.2-5.2 M-9855.6-3383.8
			c0-3.5,1.8-5.2,5.2-5.2"/>
	</g>
	<g transform="translate(10195.128806977358 3808.936639720163) rotate(0 367.47254278690525 209.53942815088521)">
		<text transform="matrix(1 0 0 1 -9976.2451 -3665.2344)" class="st7 st2 st3">Pressure</text>
		<text transform="matrix(1 0 0 1 -9978.8174 -3662.3057)" class="st7 st2 st3">Determination</text>
		<text transform="matrix(1 0 0 1 -9977.2754 -3659.376)" class="st7 st2 st3">Application</text>
	</g>
	<g transform="translate(8049.017975979747 3284.420746323369) rotate(0 493.81903449571837 493.81903449571746)">
		<path class="st6" d="M-7873-3153.8c3.4,0,6.8,0,10.4,0 M-7873-3153.8c3.9,0,7.7,0,10.4,0 M-7862.7-3153.8c3.4,0,5.2,1.7,5.2,5.2
			 M-7862.7-3153.8c3.4,0,5.2,1.7,5.2,5.2 M-7857.5-3148.6c0,3.9,0,7.8,0,10.4 M-7857.5-3148.6c0,2.8,0,5.5,0,10.4 M-7857.5-3138.2
			c0,3.4-1.8,5.2-5.2,5.2 M-7857.5-3138.2c0,3.4-1.7,5.1-5.2,5.2 M-7862.7-3133.1c-3,0-6,0-10.4,0 M-7862.7-3133.1
			c-4.1,0-8.1,0-10.4,0 M-7873-3133.1c-3.5,0-5.2-1.7-5.2-5.2 M-7873-3133.1c-3.5,0-5.2-1.8-5.2-5.2 M-7878.2-3138.2
			c0-3.3,0-6.6,0-10.4 M-7878.2-3138.2c0-3.1,0-6.2,0-10.4 M-7878.2-3148.6c0-3.4,1.7-5.2,5.2-5.2 M-7878.2-3148.6
			c0-3.5,1.8-5.1,5.2-5.2"/>
	</g>
	<g transform="translate(8261.226696209138 3568.7003526681947) rotate(0 281.6103142664797 209.53942815088521)">
		<text transform="matrix(1 0 0 1 -8084.4946 -3430.0344)" class="st7 st2 st3">Flowrate</text>
		<text transform="matrix(1 0 0 1 -8083.7876 -3427.1047)" class="st7 st2 st3">Control</text>
		<text transform="matrix(1 0 0 1 -8085.7173 -3424.177)" class="st7 st2 st3">Application</text>
	</g>
	<g transform="translate(8057.915616240993 2630.444187126326) rotate(0 369.25207083913847 217.99218639901028)">
		<path class="st6" d="M-7884.6-2513.5c3,0,6.1,0,10.9,0 M-7884.6-2513.5c4.1,0,8.2,0,10.9,0 M-7873.7-2513.5c1.6,0,2.3,0.8,2.3,2.3
			 M-7873.7-2513.5c1.5,0,2.3,0.8,2.3,2.3 M-7871.4-2511.2c0,1.3,0,2.7,0,4.6 M-7871.4-2511.2c0,1.1,0,2.1,0,4.6 M-7871.4-2506.6
			c0,1.6-0.7,2.3-2.3,2.3 M-7871.4-2506.6c0,1.5-0.8,2.3-2.3,2.3 M-7873.7-2504.4c-2.9,0-5.8,0-10.9,0 M-7873.7-2504.4
			c-2.7,0-5.5,0-10.9,0 M-7884.6-2504.4c-1.6,0-2.3-0.8-2.3-2.3 M-7884.6-2504.4c-1.6,0-2.3-0.8-2.3-2.3 M-7886.9-2506.6
			c0-1.6,0-3.2,0-4.6 M-7886.9-2506.6c0-1.5,0-3.1,0-4.6 M-7886.9-2511.2c0-1.5,0.8-2.3,2.3-2.3 M-7886.9-2511.2
			c0-1.5,0.8-2.3,2.3-2.3"/>
	</g>
	<g transform="translate(8287.919616992673 2783.0387176056392) rotate(0 139.24807008753123 69.84647605029477)">
		<text transform="matrix(1 0 0 1 -8111.9849 -2660.8445)" class="st7 st2 st3">Valve</text>
	</g>
	<g>
		<g transform="translate(10660.497274825306 2345.685881420175) rotate(0 0.34242028513835976 49.5388596097273)">
			<path class="st0" d="M-10434.9-2234.7c0,0.3,0,1.7,0,2.1 M-10434.9-2234.7c0,0.3,0,1.7,0,2"/>
		</g>
	</g>
	<g>
		<g transform="translate(10696.019683990875 4632.503826750537) rotate(0 -3.7955514990899246 -57.98455050697339)">
			<path class="st0" d="M-10469.7-4473.6c0-0.4-0.2-2-0.2-2.4 M-10469.7-4473.6c0-0.4-0.1-2-0.2-2.4"/>
		</g>
	</g>
	<g>
		<g transform="translate(9868.658518736192 4641.386143893762) rotate(0 106.83675760416372 -128.90868015589604)">
			<path class="st0" d="M-9659.7-4482.3c0.2-0.6,0.2-2.8,0.9-3.8s3-1.4,3.5-1.7 M-9659.7-4482.3c0.2-0.6,0.2-2.8,1-3.7
				c0.8-0.9,3-1.4,3.5-1.7"/>
		</g>
	</g>
	<g>
		<g transform="translate(8765.288088177811 4623.5215873135585) rotate(0 653.5895307639003 -168.65577978776128)">
			<path class="st0" d="M-8579.4-4464.8c2.4-0.9,10-4.2,14.5-5.4c4.6-1.2,10.7-1.4,12.9-1.7 M-8579.5-4464.8
				c2.4-0.9,10-4.3,14.5-5.4c4.6-1.2,10.7-1.4,12.9-1.6"/>
		</g>
	</g>
	<g>
		<g transform="translate(9254.665677712372 2319.1504886358925) rotate(0 409.1851889533573 106.17832337010259)">
			<path class="st6" d="M-9058.6-2208.7c1.4,0.5,5.7,2,8.6,2.8c2.9,0.7,7.1,1.4,8.6,1.7 M-9058.6-2208.8c1.4,0.5,5.7,2.1,8.6,2.8
				c2.9,0.8,7.1,1.4,8.6,1.7"/>
		</g>
	</g>
	<g>
		<g transform="translate(8311.667660745385 2301.2133895616225) rotate(0 867.5082057443287 169.68579944325938)">
			<path class="st0" d="M-8135.3-2191.2c2,0.6,6.1,2.7,12.1,3.9c6.1,1.2,20.2,2.7,24.2,3.2 M-8135.4-2191.2c2,0.7,6.1,2.8,12.2,3.9
				c6.1,1.2,20.2,2.6,24.2,3.1"/>
		</g>
	</g>
	<g>
		<g transform="translate(10073.131125696833 3920.6149005979732) rotate(0 -515.2128403891984 -20.802574885687136)">
			<path class="st6" d="M-9859.9-3776.6c-2.3,0-10.2,0.4-13.8,0.2c-3.6-0.2-6.5-1.1-7.8-1.3 M-9859.9-3776.6
				c-2.3,0-10.2,0.3-13.8,0.2c-3.6-0.2-6.5-1.1-7.8-1.3"/>
		</g>
	</g>
	<g>
		<g transform="translate(10037.744617141987 3208.9151893375347) rotate(0 -498.159889667033 195.48463490848644)">
			<path class="st6" d="M-9825.2-3079.8c-2.2,1.2-10,5.9-13.4,7.3c-3.5,1.4-6.2,0.7-7.4,0.9 M-9825.2-3079.9
				c-2.2,1.2-9.9,5.9-13.4,7.3c-3.5,1.4-6.3,0.8-7.5,1"/>
		</g>
	</g>
	<g>
		<g transform="translate(8516.307429918554 3297.8763574500827) rotate(0 -45.256198823743034 -119.99700891212069)">
			<path class="st6" d="M-8335.7-3167c-0.2-0.2-1.2-0.6-1.5-1.5c-0.3-0.8-0.3-2.9-0.4-3.5 M-8335.7-3166.9c-0.3-0.2-1.1-0.6-1.4-1.5
				s-0.4-3-0.4-3.6"/>
		</g>
	</g>
	<g>
		<g transform="translate(10064.268824150175 4142.973877496934) rotate(0 -2521.7782393888483 1068.6422918295657)">
			<path class="st8" d="M-9851.2-3994.3c-11.3,2.7-50.4,8.9-68.1,16.4s-31.4,23.6-37.7,28.4 M-9851.2-3994.3
				c-11.3,2.7-50.5,9-68.1,16.4c-17.6,7.5-31.4,23.6-37.6,28.4"/>
		</g>
	</g>
	<g>
		<g transform="translate(10028.639899841728 2808.447141945262) rotate(0 -2508.1187166495074 1446.7934930870397)">
			<path class="st6" d="M-9816.3-2687.8c-8.4-1.5-39.4-8.8-50.4-8.9c-11-0.2-6.5-5.3-15.7,8c-9.1,13.3-32.6,59.7-39.2,71.6
				 M-9816.3-2687.8c-8.4-1.5-39.4-8.8-50.4-8.9s-6.5-5.2-15.7,8c-9.1,13.3-32.6,59.7-39.1,71.6"/>
		</g>
	</g>
	<g>
		<g transform="translate(4983.96139087074 5282.135180857529) rotate(0 1775.0905776472428 733.6418374391378)">
			<path class="st0" d="M-4877.4-5109.6c8.3,4.4,37.4,21.4,49.8,26.5c12.4,5.1,20.5,3.6,24.6,4.3 M-4877.4-5109.6
				c8.3,4.4,37.4,21.4,49.8,26.6c12.4,5.1,20.5,3.5,24.6,4.2"/>
		</g>
	</g>
	<g>
		<g transform="translate(4974.9350249073905 5468.757615127894) rotate(0 1779.7606218922228 1270.7806636317282)">
			<path class="st0" d="M-4868.6-5292.3c9.9,8,46.7,38.9,59.1,47.7c12.4,8.8,12.9,4.2,15.5,5.1 M-4868.5-5292.3
				c9.8,8,46.6,39,59.1,47.8c12.4,8.8,12.9,4.2,15.5,5.1"/>
		</g>
	</g>
	<g transform="translate(11928.722791365886 2919.6174956148207) rotate(0 93.42522274242947 88.97640261184097)">
		<path class="st1" d="M-11675.6-2796.6l2.3,0l0.3,0.2l0.2,0.2l0.1,0.1l0,0.4l0,2.1l-0.1,0.4l-0.2,0.2l-0.2,0.1l-0.4,0l-2.3,0
			l-0.3-0.2l-0.2-0.2l0-0.2l-0.1-0.4l0-1.8l0.1-0.4l0.2-0.3l0.1-0.1l0.1-0.1L-11675.6-2796.6"/>
		<path class="st0" d="M-11675.6-2796.6c0.5,0,1,0,2.1,0 M-11675.6-2796.6c0.4,0,0.8,0,2.1,0 M-11673.6-2796.6c0.7,0,1,0.3,0.9,0.9
			 M-11673.6-2796.6c0.6,0,0.9,0.3,0.9,0.9 M-11672.7-2795.7c0,0.4,0,0.8,0,1.9 M-11672.7-2795.7c0,0.7,0,1.4,0,1.9
			 M-11672.7-2793.8c0,0.6-0.3,0.9-0.9,0.9 M-11672.7-2793.8c0,0.6-0.4,1-0.9,0.9 M-11673.6-2792.9c-0.6,0-1.3,0-2.1,0
			 M-11673.6-2792.9c-0.6,0-1.1,0-2.1,0 M-11675.6-2792.9c-0.7,0-0.9-0.3-0.9-0.9 M-11675.6-2792.9c-0.6,0-0.9-0.3-0.9-0.9
			 M-11676.6-2793.8c0-0.6,0-1.2,0-1.9 M-11676.6-2793.8c0-0.4,0-0.8,0-1.9 M-11676.6-2795.7c0-0.7,0.3-0.9,0.9-0.9
			 M-11676.6-2795.7c0-0.6,0.3-0.9,0.9-0.9"/>
	</g>
	<g transform="translate(12250.038825297903 2947.645062437543) rotate(0 950.7128619075229 69.84647605029477)">
		<text transform="matrix(1 0 0 1 -11988.9639 -2821.9985)" class="st1 st2 st3">No need to develop if we use Luos</text>
	</g>
	<g transform="translate(11928.722791365886 3213.2396242338727) rotate(0 93.42522274242947 88.97640261184097)">
		<path class="st9" d="M-11675.6-3084.1l2.3,0l0.3,0.1l0.2,0.3l0.1,0.1l0.1,0.4l0,2.1l-0.2,0.4l-0.2,0.2l-0.1,0.1l-0.4,0.1l-2.3,0
			l-0.4-0.1l-0.2-0.2l-0.1-0.1l-0.1-0.4l0-1.8l0-0.5l0.2-0.2l0.2-0.1l0.1-0.1L-11675.6-3084.1"/>
		<path class="st8" d="M-11675.6-3084.1c0.7,0,1.2,0.1,2.1,0 M-11675.6-3084.1c0.5,0,1,0,2.1,0 M-11673.6-3084.1
			c0.6,0,1,0.3,0.9,0.9 M-11673.6-3084.1c0.6,0,0.9,0.3,0.9,0.9 M-11672.7-3083.1c0,0.4,0,0.8,0,1.9 M-11672.7-3083.1
			c0,0.5,0,1,0,1.9 M-11672.7-3081.3c0,0.6-0.3,1-0.9,0.9 M-11672.7-3081.3c0,0.6-0.3,0.9-0.9,0.9 M-11673.6-3080.3
			c-0.8,0-1.6,0-2.1,0 M-11673.6-3080.3c-0.4,0-0.9,0-2.1,0 M-11675.6-3080.3c-0.6,0-0.9-0.3-0.9-0.9 M-11675.6-3080.3
			c-0.6,0-0.9-0.3-0.9-0.9 M-11676.6-3081.3c0-0.5,0-1.1,0-1.9 M-11676.6-3081.3c0-0.5,0-1,0-1.9 M-11676.6-3083.1
			c0-0.6,0.3-0.9,0.9-0.9 M-11676.6-3083.1c0-0.6,0.4-0.9,0.9-0.9"/>
	</g>
	<g transform="translate(12222.233699481658 3241.2671910566132) rotate(0 979.1853107433126 69.84647605029477)">
		<text transform="matrix(1 0 0 1 -11961.2744 -3109.4653)" class="st9 st2 st3">Need to be updated if we use Luos</text>
	</g>
	<g transform="translate(11928.722791365886 3524.6570333753443) rotate(0 93.42522274242947 88.97640261184097)">
		<path class="st7" d="M-11675.7-3389l2.3,0l0.4,0.1l0.2,0.2l0.1,0.2l0,0.4l0.1,2l-0.1,0.4l-0.3,0.3l-0.1,0l-0.4,0.1l-2.3,0
			l-0.3-0.1l-0.3-0.2l-0.1-0.1l-0.1-0.5l0.1-1.8l0-0.4l0.1-0.3l0.1,0l0.2-0.1L-11675.7-3389"/>
		<path class="st6" d="M-11675.6-3389c0.8,0,1.6,0,2.1,0 M-11675.6-3389c0.8,0,1.6,0,2.1,0 M-11673.6-3389c0.6,0,1,0.3,0.9,0.9
			 M-11673.6-3389c0.7,0,1,0.3,0.9,0.9 M-11672.7-3388c0,0.7,0,1.4,0,1.9 M-11672.7-3388c0,0.4,0,0.8,0,1.9 M-11672.7-3386.2
			c0,0.6-0.3,0.9-0.9,0.9 M-11672.7-3386.2c0,0.6-0.3,0.9-0.9,0.9 M-11673.6-3385.2c-0.6,0-1.2,0-2.1,0 M-11673.6-3385.2
			c-0.5,0-1.1,0-2.1,0 M-11675.6-3385.2c-0.6,0-0.9-0.3-0.9-0.9 M-11675.6-3385.2c-0.6,0-0.9-0.3-0.9-0.9 M-11676.6-3386.2
			c0-0.7,0-1.3,0-1.9 M-11676.6-3386.2c0-0.6,0-1.2,0-1.9 M-11676.6-3388c0-0.7,0.3-1,0.9-0.9 M-11676.6-3388c0-0.6,0.3-1,0.9-0.9"
			/>
	</g>
	<g transform="translate(12187.088020450014 3552.6846001980703) rotate(0 1014.3309897749859 69.84647605029477)">
		<text transform="matrix(1 0 0 1 -11927.2861 -3414.3545)" class="st7 st2 st3">Need to be developed if we use Luos</text>
	</g>
	<g transform="translate(3088.4999999999854 10) rotate(0 3426.5 183.5)">
		<text transform="matrix(1 0 0 1 -3001.0906 57.399)" class="st2 st10">Potential electronic system of ESL-2 with Luos</text>
	</g>
</g>
</svg>
