<?xml version="1.0" encoding="utf-8"?>
<!-- Generator: Adobe Illustrator 26.5.0, SVG Export Plug-In . SVG Version: 6.00 Build 0)  -->
<svg version="1.1" id="Calque_1" xmlns="http://www.w3.org/2000/svg" xmlns:xlink="http://www.w3.org/1999/xlink" x="0px" y="0px"
	 viewBox="0 0 300 300" style="enable-background:new 0 0 300 300;" xml:space="preserve">
<style type="text/css">
	.st0{fill:none;stroke:#000000;stroke-linecap:round;stroke-miterlimit:12;}
	.st1{font-family:'ArialMT';}
	.st2{font-size:4.5307px;}
	.st3{font-size:6.8393px;}
	.st4{fill:none;stroke:#C92A2A;stroke-linecap:round;stroke-miterlimit:12;}
	.st5{font-size:11.4385px;}
</style>
<g>
	<g transform="translate(200.26655988655693 2198) rotate(0 415 490)">
		<path class="st0" d="M-183.7-2056.1c3.2,0.1,6.5,0.1,15.2,0 M-183.7-2056.1c4.9,0,9.7,0,15.2,0 M-168.6-2056.1
			c5.1,0,7.6,2.5,7.6,7.6 M-168.6-2056.1c5,0,7.5,2.5,7.6,7.6 M-161-2048.5c0.1,4.6,0.1,9.1,0,20.6 M-161-2048.5
			c0,5.4-0.1,10.7,0,20.6 M-161-2027.8c0.1,5-2.6,7.5-7.6,7.6 M-161-2027.8c0.1,5.1-2.5,7.6-7.6,7.6 M-168.6-2020.3
			c-5,0-10.2,0-15.2,0 M-168.6-2020.3c-5.6,0-11.2,0-15.2,0 M-183.7-2020.3c-5,0-7.6-2.5-7.6-7.6 M-183.7-2020.3
			c-5.1-0.1-7.6-2.6-7.6-7.6 M-191.3-2027.8c-0.1-5.8,0-11.7,0-20.6 M-191.3-2027.8c-0.1-4.8-0.1-9.6,0-20.6 M-191.3-2048.5
			c0-5,2.5-7.6,7.6-7.6 M-191.3-2048.5c-0.1-5,2.5-7.6,7.6-7.6"/>
	</g>
	<g transform="translate(298.76655988655693 2609.5) rotate(0 316.5 78.5)">
		<text transform="matrix(1 0 0 1 -285.231 -2448.5173)" class="st1 st2">Barometer</text>
	</g>
	<g transform="translate(2075.266559886557 3198) rotate(0 555 555)">
		<path class="st0" d="M-1987.7-3019.5c5,0,9.9-0.1,20.3,0 M-1987.7-3019.5c8.1,0.1,16.1,0.1,20.3,0 M-1967.4-3019.5
			c6.8,0,10.2,3.3,10.1,10.1 M-1967.4-3019.5c6.8,0,10.1,3.3,10.1,10.1 M-1957.3-3009.4c0.1,4.6,0,9.1,0,20.3 M-1957.3-3009.4
			c0,4.4,0,8.7,0,20.3 M-1957.3-2989.1c-0.1,6.7-3.4,10.2-10.1,10.1 M-1957.3-2989.1c-0.1,6.8-3.4,10.2-10.1,10.1 M-1967.4-2979
			c-7.9,0-15.8,0-20.3,0 M-1967.4-2979c-6.7,0.1-13.4,0.1-20.3,0 M-1987.7-2979c-6.7,0-10.1-3.3-10.1-10.1 M-1987.7-2979
			c-6.8-0.1-10.2-3.4-10.1-10.1 M-1997.8-2989.1c0.1-4.3,0.1-8.6,0-20.3 M-1997.8-2989.1c0-5.4,0-10.8,0-20.3 M-1997.8-3009.4
			c0-6.8,3.4-10.1,10.1-10.1 M-1997.8-3009.4c0-6.7,3.3-10.1,10.1-10.1"/>
	</g>
	<g transform="translate(2113.766559886557 3596) rotate(0 516.5 157)">
		<text transform="matrix(1 0 0 1 -2033.6656 -3398.9719)" class="st1 st2">Apogee detection</text>
		<text transform="matrix(1 0 0 1 -2027.1149 -3393.2356)" class="st1 st2">Application</text>
	</g>
	<g transform="translate(10.266559886556934 988) rotate(0 1675 1805)">
		<path class="st0" d="M22.3-890.3c20.8,0.1,41.7,0.1,61.2,0 M22.3-890.3c23,0.2,46,0.2,61.2,0 M83.5-890.3
			c20.4,0,30.6,10.1,30.6,30.6 M83.5-890.3c20.4-0.1,30.6,10.2,30.6,30.6 M114.1-859.7c0.2,19.3,0.2,38.6,0,70.7 M114.1-859.7
			c0.3,19.7,0.3,39.3,0,70.7 M114.1-789c0,20.4-10.3,30.7-30.6,30.6 M114.1-789c0,20.4-10.3,30.5-30.6,30.6 M83.5-758.4
			c-16.6-0.1-33.2,0-61.2,0 M83.5-758.4c-19.4-0.2-38.8-0.2-61.2,0 M22.3-758.4c-20.5,0-30.6-10.2-30.6-30.6 M22.3-758.4
			C1.9-758.3-8.2-768.5-8.3-789 M-8.3-789c0-25.4,0-50.9,0-70.7 M-8.3-789c0.2-23.1,0.2-46.2,0-70.7 M-8.3-859.7
			c0-20.4,10.2-30.6,30.6-30.6 M-8.3-859.7C-8.3-880,2-890.2,22.3-890.3"/>
	</g>
	<g>
		<g transform="translate(10.266559886556934 1648) rotate(0 1674.7330948773779 5.075496665397736)">
			<path class="st0" d="M-8.3-1526.2c20.4,0.1,102,0.3,122.4,0.4 M-8.2-1526.1c20.4,0.1,101.9,0.3,122.3,0.3"/>
		</g>
	</g>
	<g transform="translate(967.2474516063012 1219.5) rotate(0 702 118.5)">
		<text transform="matrix(1 0 0 1 -928.7656 -1107.2596)" class="st1 st3">Nucleo F072RB</text>
	</g>
	<g transform="translate(6785.266559886557 2208) rotate(0 415 490)">
		<path class="st0" d="M-6528.1-2065.7c4.8,0.1,9.5,0.1,15.2,0 M-6528.1-2065.7c3.2,0,6.3,0,15.2,0 M-6513-2065.7
			c5.1-0.1,7.5,2.5,7.6,7.6 M-6513-2065.7c5.1,0,7.6,2.6,7.6,7.6 M-6505.4-2058.1c-0.1,8.1,0,16.2,0,20.6 M-6505.4-2058.1
			c0,7.8,0,15.7,0,20.6 M-6505.4-2037.5c0,5.1-2.5,7.6-7.6,7.6 M-6505.4-2037.5c-0.1,5.1-2.6,7.6-7.6,7.6 M-6513-2029.9
			c-5.5,0.1-11.1,0-15.2,0 M-6513-2029.9c-4.7-0.1-9.3-0.1-15.2,0 M-6528.1-2029.9c-5.1-0.1-7.6-2.6-7.6-7.6 M-6528.1-2029.9
			c-5.1-0.1-7.7-2.5-7.6-7.6 M-6535.7-2037.5c0-6.3,0-12.7,0-20.6 M-6535.7-2037.5c0.1-6.4,0.1-12.9,0-20.6 M-6535.7-2058.1
			c0-5.1,2.6-7.6,7.6-7.6 M-6535.7-2058.1c0-5,2.5-7.6,7.6-7.6"/>
	</g>
	<g transform="translate(6965.266559886557 2619.5) rotate(0 235 78.5)">
		<text transform="matrix(1 0 0 1 -6709.3721 -2458.1511)" class="st1 st2">Solenoid</text>
	</g>
	<g transform="translate(6260.266559886557 1288) rotate(0 920 1765)">
		<path class="st0" d="M-6013.1-1179.3c9.8,0.1,19.5,0.1,33.6,0 M-6013.1-1179.3c10.7,0.1,21.4,0.1,33.6,0 M-5979.5-1179.3
			c11.2,0,16.8,5.6,16.8,16.8 M-5979.5-1179.3c11.2,0.1,16.9,5.7,16.8,16.8 M-5962.7-1162.5c0.2,30.1,0.2,60.2,0,95.4
			 M-5962.7-1162.5c-0.3,22.7-0.3,45.3,0,95.4 M-5962.7-1067.2c0,11.1-5.6,16.7-16.8,16.8 M-5962.7-1067.2
			c-0.1,11.3-5.6,16.7-16.8,16.8 M-5979.5-1050.3c-9.9-0.1-20-0.1-33.6,0 M-5979.5-1050.3c-11.1,0-22.2,0-33.6,0 M-6013.1-1050.3
			c-11.2,0-16.8-5.5-16.8-16.8 M-6013.1-1050.3c-11.3,0-16.8-5.6-16.8-16.8 M-6029.9-1067.2c0.2-19.3,0.2-38.5,0-95.4
			 M-6029.9-1067.2c-0.2-26.4-0.2-52.8,0-95.4 M-6029.9-1162.5c-0.1-11.2,5.6-16.8,16.8-16.8 M-6029.9-1162.5
			c0-11.2,5.5-16.8,16.8-16.8"/>
	</g>
	<g>
		<g transform="translate(6270.266559886557 1668) rotate(0 920.2332780758952 4.826001495728292)">
			<path class="st0" d="M-6039.5-1545.4c11.2,0.1,56,0.3,67.3,0.4 M-6039.6-1545.5c11.2,0,56.1,0.3,67.3,0.3"/>
		</g>
	</g>
	<g transform="translate(6388.26655988655 1369.5) rotate(0 782 118.5)">
		<text transform="matrix(1 0 0 1 -6152.0186 -1251.7782)" class="st1 st3">Arduino MKRZero</text>
	</g>
	<g>
		<g transform="translate(1030.266559886557 2718) rotate(0 600.1863770183154 230.7726417433302)">
			<path class="st4" d="M-991-2557.1c3.4,0.1,13.2-2.6,20.5,0.4c7.3,3,19.5,14.7,23.4,17.6 M-990.9-2557.1
				c3.4,0.1,13.1-2.5,20.4,0.5c7.3,3,19.5,14.6,23.4,17.5"/>
		</g>
	</g>
	<g>
		<g transform="translate(3140.266559886557 3278) rotate(0 1820.8892361102626 -335.19650030098853)">
			<path class="st4" d="M-3023.9-3096.6c3.1-2.7-3.6-12,18.6-16.1c22.2-4.1,95.3-7,114.4-8.4 M-3023.9-3096.6
				c3.1-2.7-3.5-12,18.7-16c22.2-4.1,95.3-7,114.4-8.4"/>
		</g>
	</g>
	<g transform="translate(1842.2665598865642 10) rotate(0 2788 198)">
		<text transform="matrix(1 0 0 1 -1783.8109 62.1418)" class="st1 st5">Proof Of Concept: electronic system</text>
	</g>
</g>
</svg>
