<?xml version="1.0" encoding="utf-8"?>
<!-- Generator: Adobe Illustrator 26.5.0, SVG Export Plug-In . SVG Version: 6.00 Build 0)  -->
<svg version="1.1" id="Calque_1" xmlns="http://www.w3.org/2000/svg" xmlns:xlink="http://www.w3.org/1999/xlink" x="0px" y="0px"
	 viewBox="0 0 300 300" style="enable-background:new 0 0 300 300;" xml:space="preserve">
<style type="text/css">
	.st0{fill:none;stroke:#FFFFFF;stroke-linecap:round;stroke-miterlimit:12;}
	.st1{fill:#FFFFFF;}
	.st2{font-family:'ArialMT';}
	.st3{font-size:4.3095px;}
	.st4{font-size:6.5055px;}
	.st5{fill:none;stroke:#C92A2A;stroke-linecap:round;stroke-miterlimit:12;}
	.st6{font-size:10.8802px;}
</style>
<g>
	<g transform="translate(200.26655988655693 2198) rotate(0 415 490)">
		<path class="st0" d="M-177.2-2055.7c3.1,0.1,6.2,0.1,14.4,0 M-177.2-2055.7c4.6,0,9.2,0,14.4,0 M-162.8-2055.7
			c4.8,0,7.2,2.4,7.2,7.2 M-162.8-2055.7c4.8,0,7.1,2.3,7.2,7.2 M-155.6-2048.5c0.1,4.4,0.1,8.7,0,19.6 M-155.6-2048.5
			c0,5.1-0.1,10.2,0,19.6 M-155.6-2028.8c0.1,4.8-2.4,7.2-7.2,7.2 M-155.6-2028.8c0.1,4.8-2.4,7.3-7.2,7.2 M-162.8-2021.6
			c-4.8,0-9.7,0-14.4,0 M-162.8-2021.6c-5.3,0-10.6,0-14.4,0 M-177.2-2021.6c-4.7,0-7.3-2.4-7.2-7.2 M-177.2-2021.6
			c-4.8-0.1-7.2-2.5-7.2-7.2 M-184.4-2028.8c-0.1-5.5,0-11.1,0-19.6 M-184.4-2028.8c-0.1-4.6-0.1-9.1,0-19.6 M-184.4-2048.5
			c0-4.8,2.4-7.3,7.2-7.2 M-184.4-2048.5c0-4.8,2.4-7.2,7.2-7.2"/>
	</g>
	<g transform="translate(298.76655988655693 2609.5) rotate(0 316.5 78.5)">
		<text transform="matrix(1 0 0 1 -278.5692 -2449.0532)" class="st1 st2 st3">Barometer</text>
	</g>
	<g transform="translate(2075.266559886557 3198) rotate(0 555 555)">
		<path class="st0" d="M-1984.6-3020.9c4.7,0,9.4-0.1,19.3,0 M-1984.6-3020.9c7.7,0.1,15.3,0.1,19.3,0 M-1965.3-3020.9
			c6.5,0,9.7,3.2,9.6,9.6 M-1965.3-3020.9c6.5,0,9.6,3.2,9.6,9.6 M-1955.7-3011.3c0.1,4.3,0,8.7,0,19.3 M-1955.7-3011.3
			c0,4.1,0,8.3,0,19.3 M-1955.7-2992c0,6.4-3.3,9.7-9.6,9.6 M-1955.7-2992c-0.1,6.4-3.2,9.7-9.6,9.6 M-1965.3-2982.3
			c-7.5,0-15,0-19.3,0 M-1965.3-2982.3c-6.4,0.1-12.7,0.1-19.3,0 M-1984.6-2982.3c-6.4,0-9.6-3.2-9.6-9.6 M-1984.6-2982.3
			c-6.4-0.1-9.7-3.2-9.6-9.6 M-1994.3-2992c0.1-4.1,0.1-8.1,0-19.3 M-1994.3-2992c0-5.1,0-10.3,0-19.3 M-1994.3-3011.3
			c0-6.4,3.2-9.6,9.6-9.6 M-1994.3-3011.3c0-6.4,3.2-9.6,9.6-9.6"/>
	</g>
	<g transform="translate(2113.766559886557 3596) rotate(0 516.5 157)">
		<text transform="matrix(1 0 0 1 -2030.2538 -3401.2686)" class="st1 st2 st3">Apogee detection</text>
		<text transform="matrix(1 0 0 1 -2024.0223 -3395.8115)" class="st1 st2 st3">Application</text>
	</g>
	<g transform="translate(10.266559886556934 988) rotate(0 1675 1805)">
		<path class="st0" d="M28.1-887.7c19.8,0.1,39.6,0.1,58.2,0 M28.1-887.7c21.9,0.2,43.8,0.2,58.2,0 M86.3-887.7
			c19.4,0,29.1,9.6,29.1,29.1 M86.3-887.7c19.4-0.1,29.1,9.7,29.1,29.1 M115.4-858.6c0.2,18.3,0.2,36.7,0,67.2 M115.4-858.6
			c0.3,18.7,0.2,37.4,0,67.2 M115.4-791.4c0,19.4-9.8,29.2-29.1,29.1 M115.4-791.4c0,19.4-9.8,29.1-29.1,29.1 M86.3-762.3
			c-15.8-0.1-31.6,0-58.2,0 M86.3-762.3c-18.4-0.2-36.9-0.2-58.2,0 M28.1-762.3C8.6-762.3-1-772-1-791.4 M28.1-762.3
			C8.7-762.2-1-771.9-1-791.4 M-1-791.4c0-24.2,0-48.4,0-67.2 M-1-791.4c0.2-22,0.2-44,0-67.2 M-1-858.6c0-19.4,9.7-29.1,29.1-29.1
			 M-1-858.6c-0.1-19.4,9.7-29.1,29.1-29.1"/>
	</g>
	<g>
		<g transform="translate(10.266559886556934 1648) rotate(0 1674.7330948773779 5.075496665397736)">
			<path class="st0" d="M-1-1524.8c19.4,0.1,97,0.3,116.4,0.4 M-1-1524.7c19.4,0.1,96.9,0.3,116.3,0.3"/>
		</g>
	</g>
	<g transform="translate(967.2474516063012 1219.5) rotate(0 702 118.5)">
		<text transform="matrix(1 0 0 1 -923.3216 -1105.4155)" class="st1 st2 st4">Nucleo F072RB</text>
	</g>
	<g transform="translate(6785.266559886557 2208) rotate(0 415 490)">
		<path class="st0" d="M-6533.4-2065.3c4.6,0.1,9,0.1,14.4,0 M-6533.4-2065.3c3,0,6,0,14.4,0 M-6518.9-2065.3
			c4.9-0.1,7.2,2.4,7.2,7.2 M-6518.9-2065.3c4.8,0,7.3,2.5,7.2,7.2 M-6511.7-2058.1c-0.1,7.7,0,15.4,0,19.6 M-6511.7-2058.1
			c0,7.4,0,14.9,0,19.6 M-6511.7-2038.5c0,4.8-2.4,7.3-7.2,7.2 M-6511.7-2038.5c-0.1,4.8-2.4,7.2-7.2,7.2 M-6518.9-2031.3
			c-5.3,0.1-10.5,0-14.4,0 M-6518.9-2031.3c-4.4-0.1-8.9-0.1-14.4,0 M-6533.4-2031.3c-4.9-0.1-7.2-2.4-7.2-7.2 M-6533.4-2031.3
			c-4.9,0-7.3-2.4-7.2-7.2 M-6540.6-2038.5c0-6,0-12.1,0-19.6 M-6540.6-2038.5c0.1-6.1,0.1-12.3,0-19.6 M-6540.6-2058.1
			c0-4.9,2.4-7.3,7.2-7.2 M-6540.6-2058.1c0-4.7,2.3-7.2,7.2-7.2"/>
	</g>
	<g transform="translate(6965.266559886557 2619.5) rotate(0 235 78.5)">
		<text transform="matrix(1 0 0 1 -6714.54 -2458.7056)" class="st1 st2 st3">Solenoid</text>
	</g>
	<g transform="translate(6260.266559886557 1288) rotate(0 920 1765)">
		<path class="st0" d="M-6017.8-1177.3c9.3,0.1,18.6,0.1,32,0 M-6017.8-1177.3c10.2,0.1,20.3,0.1,32,0 M-5985.9-1177.3
			c10.7,0,16,5.4,16,16 M-5985.9-1177.3c10.7,0.1,16,5.4,16,16 M-5969.9-1161.3c0.2,28.6,0.2,57.2,0,90.7 M-5969.9-1161.3
			c-0.3,21.6-0.3,43.1,0,90.7 M-5969.9-1070.6c0,10.6-5.4,15.9-16,16 M-5969.9-1070.6c-0.1,10.7-5.3,15.9-16,16 M-5985.9-1054.6
			c-9.5-0.1-19-0.1-32,0 M-5985.9-1054.6c-10.6,0-21.1,0-32,0 M-6017.8-1054.6c-10.7,0-16-5.3-16-16 M-6017.8-1054.6
			c-10.7,0-15.9-5.3-16-16 M-6033.8-1070.6c0.2-18.3,0.2-36.7,0-90.7 M-6033.8-1070.6c-0.2-25.1-0.2-50.2,0-90.7 M-6033.8-1161.3
			c-0.1-10.7,5.3-16,16-16 M-6033.8-1161.3c0-10.6,5.3-15.9,16-16"/>
	</g>
	<g>
		<g transform="translate(6270.266559886557 1668) rotate(0 920.2332780758952 4.826001495728292)">
			<path class="st0" d="M-6043.5-1544.1c10.7,0.1,53.3,0.3,64,0.4 M-6043.5-1544.1c10.7,0,53.3,0.3,64,0.3"/>
		</g>
	</g>
	<g transform="translate(6388.26655988655 1369.5) rotate(0 782 118.5)">
		<text transform="matrix(1 0 0 1 -6156.2275 -1250.2017)" class="st1 st2 st4">Arduino MKRZero</text>
	</g>
	<g>
		<g transform="translate(1030.266559886557 2718) rotate(0 600.1863770183154 230.7726417433302)">
			<path class="st5" d="M-985.6-2557.6c3.2,0.1,12.5-2.5,19.5,0.3s18.5,14,22.3,16.7 M-985.5-2557.7c3.2,0.1,12.4-2.4,19.4,0.4
				c6.9,2.8,18.6,13.8,22.3,16.6"/>
		</g>
	</g>
	<g>
		<g transform="translate(3140.266559886557 3278) rotate(0 1820.8892361102626 -335.19650030098853)">
			<path class="st5" d="M-3022.2-3098.1c3-2.6-3.4-11.4,17.7-15.3c21.1-3.9,90.7-6.7,108.8-8 M-3022.3-3098.2
				c3-2.6-3.3-11.4,17.8-15.3c21.1-3.9,90.7-6.7,108.8-8"/>
		</g>
	</g>
	<g transform="translate(1842.2665598865642 10) rotate(0 2788 198)">
		<text transform="matrix(1 0 0 1 -1779.3427 65.9419)" class="st1 st2 st6">Proof Of Concept: electronic system</text>
	</g>
</g>
</svg>
