<svg version="1.1" xmlns="http://www.w3.org/2000/svg" viewBox="0 0 1405.992816448983 264.9146666865381" width="2811.985632897966" height="529.8293333730762" filter="invert(93%) hue-rotate(180deg)">
  <!-- svg-source:excalidraw -->
  
  <defs>
    <style>
      @font-face {
        font-family: "Virgil";
        src: url("https://excalidraw.com/Virgil.woff2");
      }
      @font-face {
        font-family: "Cascadia";
        src: url("https://excalidraw.com/Cascadia.woff2");
      }
    </style>
  </defs>
  <g stroke-linecap="round"><g transform="translate(10.197203582897771 105.12729360560388) rotate(0 692.7992046415936 -2.1608711506141844)"><path d="M0.62 -0.56 C537.47 -4.57, 1073.05 -4.58, 1385.22 -1.09 M-0.2 -0.01 C326.12 -5.54, 652.19 -5.48, 1385.8 -1.29" stroke="#000000" stroke-width="2" fill="none"></path></g><g transform="translate(10.197203582897771 105.12729360560388) rotate(0 692.7992046415936 -2.1608711506141844)"><path d="M1385.85 -0.05 L1370.76 4.26 L1370.69 -9.21 L1384.19 -2.43" stroke="none" stroke-width="0" fill="#000000" fill-rule="evenodd"></path><path d="M1386.96 -2.33 C1381.89 1.07, 1374.38 4.3, 1371.44 5.08 M1385.43 -1.31 C1382.94 -0.28, 1379.94 1.82, 1372.52 4.73 M1371.46 4.07 C1371.36 1.09, 1373.1 -1.07, 1373.46 -7.07 M1371.74 5.15 C1371.74 0.63, 1371.75 -2.02, 1372.16 -7.7 M1372.96 -7.49 C1378.12 -5.13, 1382.16 -2.92, 1387.17 -1.92 M1372.55 -7.16 C1377.04 -5.84, 1381.85 -3.47, 1386.06 -1.54 M1385.8 -1.29 C1385.8 -1.29, 1385.8 -1.29, 1385.8 -1.29 M1385.8 -1.29 C1385.8 -1.29, 1385.8 -1.29, 1385.8 -1.29" stroke="#000000" stroke-width="2" fill="none"></path></g></g><g stroke-linecap="round"><g transform="translate(10.197203582897657 105.12729360560479) rotate(0 27.420328838671793 0.3316500832429483)"><path d="M0.93 -0.84 C9.91 -1.01, 46.18 -0.37, 54.88 -0.14 M-0.04 1.34 C8.79 1.28, 45.21 1.81, 54.48 1.32" stroke="#000000" stroke-width="1" fill="none"></path></g><g transform="translate(10.197203582897657 105.12729360560479) rotate(0 27.420328838671793 0.3316500832429483)"><path d="M0.04 -14.52 C0.96 -11.01, 1.7 -5.09, 1.03 -1.81 M1.06 -15.53 C0.57 -9.76, 1.14 -4.36, 0.67 -1.37" stroke="#000000" stroke-width="1" fill="none"></path></g><g transform="translate(10.197203582897657 105.12729360560479) rotate(0 27.420328838671793 0.3316500832429483)"><path d="M-0.27 15.48 C0.55 7.51, 1.41 1.95, 1.03 -1.81 M0.75 14.47 C0.11 9.11, 0.79 3.39, 0.67 -1.37" stroke="#000000" stroke-width="1" fill="none"></path></g><g transform="translate(10.197203582897657 105.12729360560479) rotate(0 27.420328838671793 0.3316500832429483)"><path d="M53.65 17.64 C54.33 9.67, 55.05 4.11, 54.58 0.35 M54.68 16.62 C53.89 11.27, 54.44 5.54, 54.22 0.79" stroke="#000000" stroke-width="1" fill="none"></path></g><g transform="translate(10.197203582897657 105.12729360560479) rotate(0 27.420328838671793 0.3316500832429483)"><path d="M53.22 -12.36 C54.28 -8.86, 55.16 -2.94, 54.58 0.35 M54.24 -13.37 C53.88 -7.6, 54.59 -2.2, 54.22 0.79" stroke="#000000" stroke-width="1" fill="none"></path></g></g><g stroke-linecap="round"><g transform="translate(119.55714178531105 105.12729360560479) rotate(0 26.420530705782824 0.16169083826252972)"><path d="M-0.84 1.05 C7.96 0.78, 44.49 -0.46, 53.68 -0.73 M0.92 0.56 C9.48 0.34, 43.84 0.44, 52.66 0.42" stroke="#000000" stroke-width="1" fill="none"></path></g><g transform="translate(119.55714178531105 105.12729360560479) rotate(0 26.420530705782824 0.16169083826252972)"><path d="M-0.01 -14.12 C-1.95 -7.72, -1.58 -2.66, -1.81 2.12 M-1.03 -14.53 C-0.7 -8.07, -0.67 -2.52, -1.37 1.74" stroke="#000000" stroke-width="1" fill="none"></path></g><g transform="translate(119.55714178531105 105.12729360560479) rotate(0 26.420530705782824 0.16169083826252972)"><path d="M0.98 15.87 C-1.56 11.08, -1.56 4.96, -1.81 2.12 M-0.04 15.45 C0.05 10.24, -0.3 4.11, -1.37 1.74" stroke="#000000" stroke-width="1" fill="none"></path></g><g transform="translate(119.55714178531105 105.12729360560479) rotate(0 26.420530705782824 0.16169083826252972)"><path d="M53.97 15.24 C51.62 10.46, 51.81 4.33, 51.68 1.49 M52.96 14.83 C53.24 9.61, 53.08 3.48, 52.13 1.11" stroke="#000000" stroke-width="1" fill="none"></path></g><g transform="translate(119.55714178531105 105.12729360560479) rotate(0 26.420530705782824 0.16169083826252972)"><path d="M53.97 -14.76 C51.86 -8.36, 52.04 -3.3, 51.68 1.49 M52.96 -15.17 C53.09 -8.7, 52.93 -3.16, 52.13 1.11" stroke="#000000" stroke-width="1" fill="none"></path></g></g><g stroke-linecap="round"><g transform="translate(234.07016608103197 105.12729360560479) rotate(0 27.783547141361282 -0.5253948510630835)"><path d="M1.05 -0.14 C9.75 0.08, 44.39 0.46, 53.09 0.5 M0.15 -1.26 C9.15 -1.33, 46.75 -1.81, 55.42 -1.36" stroke="#000000" stroke-width="1" fill="none"></path></g><g transform="translate(234.07016608103197 105.12729360560479) rotate(0 27.783547141361282 -0.5253948510630835)"><path d="M1.08 -16.06 C1.7 -10.2, 1.09 -4.78, 2.12 1.2 M0.67 -14.63 C1.24 -11.03, 0.89 -8.15, 1.74 -0.45" stroke="#000000" stroke-width="1" fill="none"></path></g><g transform="translate(234.07016608103197 105.12729360560479) rotate(0 27.783547141361282 -0.5253948510630835)"><path d="M0.67 13.94 C1.66 8.46, 1.2 2.55, 2.12 1.2 M0.25 15.37 C0.94 11.45, 0.69 6.8, 1.74 -0.45" stroke="#000000" stroke-width="1" fill="none"></path></g><g transform="translate(234.07016608103197 105.12729360560479) rotate(0 27.783547141361282 -0.5253948510630835)"><path d="M55.04 12.72 C56.02 7.24, 55.57 1.33, 56.48 -0.02 M54.62 14.15 C55.3 10.23, 55.06 5.59, 56.11 -1.66" stroke="#000000" stroke-width="1" fill="none"></path></g><g transform="translate(234.07016608103197 105.12729360560479) rotate(0 27.783547141361282 -0.5253948510630835)"><path d="M55.44 -17.27 C56.06 -11.42, 55.46 -6, 56.48 -0.02 M55.02 -15.85 C55.6 -12.25, 55.25 -9.37, 56.11 -1.66" stroke="#000000" stroke-width="1" fill="none"></path></g></g><g stroke-linecap="round"><g transform="translate(352.01858110562455 101.69190287673337) rotate(0 26.32198386081052 0.38340391294195797)"><path d="M-0.14 -0.73 C9.05 -1, 45.31 -0.58, 54.32 -0.59 M-1.68 1.5 C7.48 1.9, 44.49 0.87, 53.63 0.65" stroke="#000000" stroke-width="1" fill="none"></path></g><g transform="translate(352.01858110562455 101.69190287673337) rotate(0 26.32198386081052 0.38340391294195797)"><path d="M-1.03 -15.11 C-0.72 -12.18, -0.97 -7.76, 1.2 -1.47 M0.39 -15.7 C0.29 -11.55, -0.6 -6.15, -0.45 -1.15" stroke="#000000" stroke-width="1" fill="none"></path></g><g transform="translate(352.01858110562455 101.69190287673337) rotate(0 26.32198386081052 0.38340391294195797)"><path d="M-1.08 14.89 C-1.02 10.91, -1.26 8.43, 1.2 -1.47 M0.34 14.3 C0.13 9.56, -0.74 6.06, -0.45 -1.15" stroke="#000000" stroke-width="1" fill="none"></path></g><g transform="translate(352.01858110562455 101.69190287673337) rotate(0 26.32198386081052 0.38340391294195797)"><path d="M53.1 16.26 C53.06 12.28, 52.74 9.8, 54.98 -0.09 M54.53 15.67 C54.19 10.93, 53.2 7.44, 53.33 0.22" stroke="#000000" stroke-width="1" fill="none"></path></g><g transform="translate(352.01858110562455 101.69190287673337) rotate(0 26.32198386081052 0.38340391294195797)"><path d="M52.34 -13.73 C52.74 -10.8, 52.59 -6.38, 54.98 -0.09 M53.77 -14.32 C53.78 -10.16, 53.01 -4.77, 53.33 0.22" stroke="#000000" stroke-width="1" fill="none"></path></g></g><g stroke-linecap="round"><g transform="translate(467.67673564430265 100.54677263377562) rotate(0 27.454710945035572 0.6875637145963083)"><path d="M-0.73 0.5 C7.97 0.54, 44.27 0.02, 53.24 0.08 M1.09 -0.28 C10.09 -0.02, 46.57 1.78, 55.64 1.65" stroke="#000000" stroke-width="1" fill="none"></path></g><g transform="translate(467.67673564430265 100.54677263377562) rotate(0 27.454710945035572 0.6875637145963083)"><path d="M-0.24 -15.23 C-0.74 -9.65, 0.28 -1.52, -1.47 0.45 M-0.83 -14.15 C-1.2 -9.92, -0.2 -4.59, -1.15 -0.04" stroke="#000000" stroke-width="1" fill="none"></path></g><g transform="translate(467.67673564430265 100.54677263377562) rotate(0 27.454710945035572 0.6875637145963083)"><path d="M0.02 14.77 C-0.54 8.71, 0.38 5.2, -1.47 0.45 M-0.57 15.85 C-0.79 9.86, 0.12 4.98, -1.15 -0.04" stroke="#000000" stroke-width="1" fill="none"></path></g><g transform="translate(467.67673564430265 100.54677263377562) rotate(0 27.454710945035572 0.6875637145963083)"><path d="M55.93 15.92 C55.55 9.86, 56.65 6.36, 54.9 1.6 M55.34 17 C55.28 11.01, 56.34 6.13, 55.22 1.11" stroke="#000000" stroke-width="1" fill="none"></path></g><g transform="translate(467.67673564430265 100.54677263377562) rotate(0 27.454710945035572 0.6875637145963083)"><path d="M56.6 -14.08 C55.92 -8.5, 56.76 -0.37, 54.9 1.6 M56.01 -12.99 C55.48 -8.76, 56.32 -3.43, 55.22 1.11" stroke="#000000" stroke-width="1" fill="none"></path></g></g><g stroke-linecap="round"><g transform="translate(583.3348901829806 101.69190287673337) rotate(0 26.59965338580804 0.43923988778169587)"><path d="M0.5 -0.59 C9.51 -0.59, 44.87 -1.05, 53.9 -0.78 M-0.7 1.72 C8.17 1.91, 43.81 0.76, 52.99 0.35" stroke="#000000" stroke-width="1" fill="none"></path></g><g transform="translate(583.3348901829806 101.69190287673337) rotate(0 26.59965338580804 0.43923988778169587)"><path d="M-0.34 -15.49 C-0.64 -10.2, 1.7 -7.68, 0.45 0.02 M0.75 -15.85 C-0.01 -11.59, 0.24 -9.39, -0.04 -1" stroke="#000000" stroke-width="1" fill="none"></path></g><g transform="translate(583.3348901829806 101.69190287673337) rotate(0 26.59965338580804 0.43923988778169587)"><path d="M-0.13 14.51 C-0.31 11.16, 1.98 5.03, 0.45 0.02 M0.96 14.15 C-0.05 11.79, 0.15 7.37, -0.04 -1" stroke="#000000" stroke-width="1" fill="none"></path></g><g transform="translate(583.3348901829806 101.69190287673337) rotate(0 26.59965338580804 0.43923988778169587)"><path d="M52.81 15.44 C52.5 12.09, 54.65 5.97, 52.94 0.96 M53.89 15.08 C52.78 12.72, 52.89 8.31, 52.44 -0.07" stroke="#000000" stroke-width="1" fill="none"></path></g><g transform="translate(583.3348901829806 101.69190287673337) rotate(0 26.59965338580804 0.43923988778169587)"><path d="M51.71 -14.54 C51.54 -9.26, 54.01 -6.74, 52.94 0.96 M52.79 -14.9 C52.13 -10.64, 52.48 -8.45, 52.44 -0.07" stroke="#000000" stroke-width="1" fill="none"></path></g></g><g stroke-linecap="round"><g transform="translate(692.1222632639156 101.69190287673246) rotate(0 27.381518322522993 -0.11739486828537338)"><path d="M-0.59 0.08 C8.38 0.13, 43.8 0.96, 53.04 0.85 M1.31 -0.93 C10.72 -1.25, 46.45 -1.05, 55.35 -0.83" stroke="#000000" stroke-width="1" fill="none"></path></g><g transform="translate(692.1222632639156 101.69190287673246) rotate(0 27.381518322522993 -0.11739486828537338)"><path d="M-0.24 -15.89 C0.73 -10, -1.13 -7.81, 0.02 -1.11 M-0.6 -15.45 C0.27 -9.7, -0.93 -4.42, -1 -0.51" stroke="#000000" stroke-width="1" fill="none"></path></g><g transform="translate(692.1222632639156 101.69190287673246) rotate(0 27.381518322522993 -0.11739486828537338)"><path d="M-0.74 14.1 C0.22 12.83, -1.52 7.85, 0.02 -1.11 M-1.1 14.54 C-0.06 9.25, -1.08 3.48, -1 -0.51" stroke="#000000" stroke-width="1" fill="none"></path></g><g transform="translate(692.1222632639156 101.69190287673246) rotate(0 27.381518322522993 -0.11739486828537338)"><path d="M55.25 13.2 C56.2 11.93, 54.44 6.95, 55.96 -2.02 M54.89 13.64 C55.91 8.35, 54.87 2.58, 54.93 -1.42" stroke="#000000" stroke-width="1" fill="none"></path></g><g transform="translate(692.1222632639156 101.69190287673246) rotate(0 27.381518322522993 -0.11739486828537338)"><path d="M55.64 -16.8 C56.62 -10.9, 54.77 -8.71, 55.96 -2.02 M55.28 -16.35 C56.17 -10.6, 54.98 -5.32, 54.93 -1.42" stroke="#000000" stroke-width="1" fill="none"></path></g></g><g stroke-linecap="round"><g transform="translate(806.6352875596364 101.69190287673246) rotate(0 26.66375022270273 0.3262266493829884)"><path d="M0.08 -0.78 C9.1 -0.5, 45.81 0.95, 54.67 1.07 M-1.34 1.43 C7.56 1.45, 45.25 -0.46, 54.17 -0.49" stroke="#000000" stroke-width="1" fill="none"></path></g><g transform="translate(806.6352875596364 101.69190287673246) rotate(0 26.66375022270273 0.3262266493829884)"><path d="M-0.36 -14.7 C1.7 -11.39, 0.12 -4.92, -1.11 0.25 M0.08 -15.08 C0.21 -11.63, -0.19 -7.06, -0.51 -0.18" stroke="#000000" stroke-width="1" fill="none"></path></g><g transform="translate(806.6352875596364 101.69190287673246) rotate(0 26.66375022270273 0.3262266493829884)"><path d="M-1.43 15.28 C1.14 8.35, -0.07 4.58, -1.11 0.25 M-0.99 14.9 C-0.67 9.23, -0.75 4.67, -0.51 -0.18" stroke="#000000" stroke-width="1" fill="none"></path></g><g transform="translate(806.6352875596364 101.69190287673246) rotate(0 26.66375022270273 0.3262266493829884)"><path d="M53.65 15.57 C55.88 8.64, 54.33 4.87, 52.98 0.54 M54.09 15.2 C54.11 9.52, 53.73 4.96, 53.58 0.11" stroke="#000000" stroke-width="1" fill="none"></path></g><g transform="translate(806.6352875596364 101.69190287673246) rotate(0 26.66375022270273 0.3262266493829884)"><path d="M52.75 -14.42 C55.14 -11.1, 53.9 -4.63, 52.98 0.54 M53.19 -14.79 C53.62 -11.34, 53.52 -6.77, 53.58 0.11" stroke="#000000" stroke-width="1" fill="none"></path></g></g><g stroke-linecap="round"><g transform="translate(915.4226606405715 101.69190287673246) rotate(0 27.05832913059305 0.1294548500327437)"><path d="M-0.78 0.85 C8.47 0.74, 45.8 -0.53, 54.89 -0.59 M1.02 0.25 C10.25 0.29, 45.85 0.94, 54.51 0.64" stroke="#000000" stroke-width="1" fill="none"></path></g><g transform="translate(915.4226606405715 101.69190287673246) rotate(0 27.05832913059305 0.1294548500327437)"><path d="M-0.12 -12.8 C-1.81 -10.43, -0.36 -7.8, 0.25 0.92 M-0.49 -14.45 C-1.52 -9.48, -1.37 -4.33, -0.18 0.7" stroke="#000000" stroke-width="1" fill="none"></path></g><g transform="translate(915.4226606405715 101.69190287673246) rotate(0 27.05832913059305 0.1294548500327437)"><path d="M0.69 17.19 C-1.22 12.02, 0.03 7.12, 0.25 0.92 M0.32 15.54 C-0.88 10.1, -1.02 4.85, -0.18 0.7" stroke="#000000" stroke-width="1" fill="none"></path></g><g transform="translate(915.4226606405715 101.69190287673246) rotate(0 27.05832913059305 0.1294548500327437)"><path d="M55.64 16.98 C53.81 11.81, 55.14 6.91, 55.53 0.7 M55.26 15.33 C54.18 9.89, 54.16 4.63, 55.11 0.49" stroke="#000000" stroke-width="1" fill="none"></path></g><g transform="translate(915.4226606405715 101.69190287673246) rotate(0 27.05832913059305 0.1294548500327437)"><path d="M55.51 -13.02 C53.73 -10.65, 55.09 -8.02, 55.53 0.7 M55.13 -14.67 C53.99 -9.7, 54.02 -4.54, 55.11 0.49" stroke="#000000" stroke-width="1" fill="none"></path></g></g><g stroke-linecap="round"><g transform="translate(1026.5002942074202 101.69190287673337) rotate(0 27.734387259311234 0.722874250689074)"><path d="M0.85 1.07 C9.71 1.2, 44.32 0.3, 53.23 -0.04 M-0.16 0.59 C9.09 0.98, 46.64 1.59, 55.63 1.47" stroke="#000000" stroke-width="1" fill="none"></path></g><g transform="translate(1026.5002942074202 101.69190287673337) rotate(0 27.734387259311234 0.722874250689074)"><path d="M1.92 -14.66 C0.51 -8.72, -0.54 -3.72, 0.92 1.78 M0.28 -14.35 C0 -10.37, 0.03 -5.38, 0.7 1.8" stroke="#000000" stroke-width="1" fill="none"></path></g><g transform="translate(1026.5002942074202 101.69190287673337) rotate(0 27.734387259311234 0.722874250689074)"><path d="M2.46 15.33 C1.08 12.09, -0.14 7.91, 0.92 1.78 M0.82 15.65 C0.61 11.68, 0.49 8.73, 0.7 1.8" stroke="#000000" stroke-width="1" fill="none"></path></g><g transform="translate(1026.5002942074202 101.69190287673337) rotate(0 27.734387259311234 0.722874250689074)"><path d="M56.9 15.73 C55.63 12.49, 54.51 8.31, 55.7 2.18 M55.26 16.05 C55.14 12.08, 55.12 9.12, 55.48 2.2" stroke="#000000" stroke-width="1" fill="none"></path></g><g transform="translate(1026.5002942074202 101.69190287673337) rotate(0 27.734387259311234 0.722874250689074)"><path d="M57.04 -14.27 C55.53 -8.32, 54.37 -3.31, 55.7 2.18 M55.39 -13.95 C55.03 -9.97, 54.97 -4.98, 55.48 2.2" stroke="#000000" stroke-width="1" fill="none"></path></g></g><g stroke-linecap="round"><g transform="translate(1136.4327975313113 102.8370331196902) rotate(0 26.97761007368115 0.16654729887841313)"><path d="M1.07 -0.59 C10.17 -0.65, 45.15 0.25, 53.78 0.49 M0.18 1.71 C9.18 1.21, 43.63 -0.91, 52.81 -1.38" stroke="#000000" stroke-width="1" fill="none"></path></g><g transform="translate(1136.4327975313113 102.8370331196902) rotate(0 26.97761007368115 0.16654729887841313)"><path d="M0.61 -15.64 C2 -13.25, 2.35 -8.47, 1.78 -1.12 M0.93 -16.13 C1.01 -12.74, 1.96 -8.86, 1.8 -0.23" stroke="#000000" stroke-width="1" fill="none"></path></g><g transform="translate(1136.4327975313113 102.8370331196902) rotate(0 26.97761007368115 0.16654729887841313)"><path d="M0.05 14.35 C1.36 9.68, 1.84 7.41, 1.78 -1.12 M0.37 13.86 C0.3 10.38, 1.38 7.38, 1.8 -0.23" stroke="#000000" stroke-width="1" fill="none"></path></g><g transform="translate(1136.4327975313113 102.8370331196902) rotate(0 26.97761007368115 0.16654729887841313)"><path d="M52.92 13.54 C53.96 8.89, 54.18 6.62, 53.51 -1.91 M53.24 13.05 C52.91 9.57, 53.73 6.58, 53.54 -1.01" stroke="#000000" stroke-width="1" fill="none"></path></g><g transform="translate(1136.4327975313113 102.8370331196902) rotate(0 26.97761007368115 0.16654729887841313)"><path d="M51.22 -16.41 C52.87 -14.03, 53.49 -9.25, 53.51 -1.91 M51.53 -16.9 C51.87 -13.51, 53.08 -9.63, 53.54 -1.01" stroke="#000000" stroke-width="1" fill="none"></path></g></g><g stroke-linecap="round"><g transform="translate(1244.0750403692882 102.8370331196902) rotate(0 26.858519165846815 -0.5125533057935172)"><path d="M-0.59 -0.04 C8.32 -0.38, 45.1 -0.97, 54.31 -0.95 M1.3 -1.11 C10.02 -0.81, 44.78 -0.33, 53.62 0.09" stroke="#000000" stroke-width="1" fill="none"></path></g><g transform="translate(1244.0750403692882 102.8370331196902) rotate(0 26.858519165846815 -0.5125533057935172)"><path d="M-0.93 -14.43 C-1.83 -8.45, -0.47 -3.21, -1.12 -1.1 M-1.42 -15.46 C-1.42 -8.56, -0.86 -2.55, -0.23 -0.05" stroke="#000000" stroke-width="1" fill="none"></path></g><g transform="translate(1244.0750403692882 102.8370331196902) rotate(0 26.858519165846815 -0.5125533057935172)"><path d="M-0.36 15.56 C-1.73 10.42, -0.59 4.53, -1.12 -1.1 M-0.85 14.54 C-0.95 9.67, -0.62 3.93, -0.23 -0.05" stroke="#000000" stroke-width="1" fill="none"></path></g><g transform="translate(1244.0750403692882 102.8370331196902) rotate(0 26.858519165846815 -0.5125533057935172)"><path d="M53.14 15.69 C52.02 10.54, 53.44 4.66, 53.09 -0.98 M52.65 14.66 C52.83 9.8, 53.44 4.06, 53.98 0.07" stroke="#000000" stroke-width="1" fill="none"></path></g><g transform="translate(1244.0750403692882 102.8370331196902) rotate(0 26.858519165846815 -0.5125533057935172)"><path d="M53.99 -14.3 C52.83 -8.33, 53.93 -3.08, 53.09 -0.98 M53.5 -15.33 C53.23 -8.43, 53.5 -2.43, 53.98 0.07" stroke="#000000" stroke-width="1" fill="none"></path></g></g><g stroke-linecap="round" transform="translate(10.952303001581072 10) rotate(0 313.01058715159195 31)"><path d="M-0.28 -0.57 C231.27 -1.5, 460.62 -1.76, 625.57 -0.63 M0.19 -0.01 C237.99 -2.28, 475.49 -2.34, 625.76 -0.36 M625.98 1.8 C626.87 14.46, 627.54 29.16, 626.8 62.08 M625.6 0.63 C626.57 14.9, 626.35 32.37, 625.81 61.19 M625.75 62.38 C461.03 62.96, 297.12 62.46, 0.23 62.42 M625.98 62.06 C486.44 60.35, 346.78 59.97, 0.04 61.71 M1.57 62.05 C1.62 41.59, -0.34 22.46, -1.52 -1.61 M-0.58 61.29 C-0.6 46.6, 0 32.78, 0.14 0.45" stroke="#000000" stroke-width="1" fill="none"></path></g><g transform="translate(251.81968484686865 28.564609271128575) rotate(0 56.5 12.5)"><text x="0" y="18" font-family="Virgil, Segoe UI Emoji" font-size="20px" fill="#000000" text-anchor="start" style="white-space: pre;" direction="ltr">Luos Frame</text></g><g stroke-linecap="round"><g transform="translate(62.87319475892923 137.19094040840537) rotate(0 -0.5540783543746386 28.178047383689318)"><path d="M-0.18 1.1 C-0.08 10.47, 0.29 46.94, 0.63 55.73 M-1.73 0.63 C-1.84 9.71, -1.13 45.02, -0.58 54" stroke="#000000" stroke-width="2" fill="none"></path></g><g transform="translate(62.87319475892923 137.19094040840537) rotate(0 -0.5540783543746386 28.178047383689318)"><path d="M11.37 25.96 C7.97 20.25, 1.87 12.01, 1.23 0.68 M9.89 26.48 C7.98 20.38, 5.48 15.36, -0.7 1.39" stroke="#000000" stroke-width="2" fill="none"></path></g><g transform="translate(62.87319475892923 137.19094040840537) rotate(0 -0.5540783543746386 28.178047383689318)"><path d="M-7.43 26.19 C-5.12 20.44, -5.5 12.13, 1.23 0.68 M-8.91 26.71 C-6.7 20.7, -5.09 15.63, -0.7 1.39" stroke="#000000" stroke-width="2" fill="none"></path></g></g><g transform="translate(28.519287470212987 204.9146666865381) rotate(0 70.5 25)"><text x="0" y="18" font-family="Virgil, Segoe UI Emoji" font-size="20px" fill="#000000" text-anchor="start" style="white-space: pre;" direction="ltr">Byte received</text><text x="0" y="43" font-family="Virgil, Segoe UI Emoji" font-size="20px" fill="#000000" text-anchor="start" style="white-space: pre;" direction="ltr">Timeout reset</text></g><g stroke-linecap="round"><g transform="translate(118.41201154235387 134.9006799224917) rotate(0 0.6990223704792982 26.306152670644224)"><path d="M-0.51 0.76 C-0.16 9.17, 1.55 42.76, 1.91 51.55 M1.42 0.12 C1.69 9.14, 1.41 43.91, 1.36 52.5" stroke="#000000" stroke-width="2" fill="none"></path></g><g transform="translate(118.41201154235387 134.9006799224917) rotate(0 0.6990223704792982 26.306152670644224)"><path d="M10.95 26.33 C4.67 18.93, 5.05 10.74, -2.13 0.01 M10.15 24.32 C7.4 19.44, 4.49 14.4, 0.02 -0.01" stroke="#000000" stroke-width="2" fill="none"></path></g><g transform="translate(118.41201154235387 134.9006799224917) rotate(0 0.6990223704792982 26.306152670644224)"><path d="M-7.05 27.19 C-8.2 19.62, -2.69 11.19, -2.13 0.01 M-7.85 25.19 C-6.56 20.18, -5.43 14.93, 0.02 -0.01" stroke="#000000" stroke-width="2" fill="none"></path></g></g><g stroke-linecap="round"><g transform="translate(154.48361419550594 163.52893599642084) rotate(0 242.01291289672014 0.6619152161792954)"><path d="M0.76 0.76 C81.12 0.93, 402.52 0.67, 483.26 0.5" stroke="#000000" stroke-width="2.5" fill="none" stroke-dasharray="1.5 8"></path></g></g><g stroke-linecap="round"><g transform="translate(749.8116416787085 132.03918269097267) rotate(0 0.6779147178914968 26.19667112266643)"><path d="M0.76 -1.13 C1.12 7.67, 1.63 44.71, 1.65 53.52 M-0.29 0.9 C0 9.29, 0.92 43.24, 0.97 51.84" stroke="#000000" stroke-width="2" fill="none"></path></g><g transform="translate(749.8116416787085 132.03918269097267) rotate(0 0.6779147178914968 26.19667112266643)"><path d="M8.36 24.3 C9.04 16.77, 3.58 10.11, -0.74 -0.42 M10.33 23.34 C7.07 17.13, 5.6 9.52, 0.15 -1.78" stroke="#000000" stroke-width="2" fill="none"></path></g><g transform="translate(749.8116416787085 132.03918269097267) rotate(0 0.6779147178914968 26.19667112266643)"><path d="M-9.66 24.63 C-4.34 16.91, -5.17 10.16, -0.74 -0.42 M-7.69 23.67 C-6.15 17.5, -2.82 9.8, 0.15 -1.78" stroke="#000000" stroke-width="2" fill="none"></path></g></g><g transform="translate(689.0452487438448 204.37525334233578) rotate(0 65.5 25)"><text x="0" y="18" font-family="Virgil, Segoe UI Emoji" font-size="20px" fill="#000000" text-anchor="start" style="white-space: pre;" direction="ltr">Timeout end</text><text x="0" y="43" font-family="Virgil, Segoe UI Emoji" font-size="20px" fill="#000000" text-anchor="start" style="white-space: pre;" direction="ltr">End of frame</text></g></svg>