<svg version="1.1" xmlns="http://www.w3.org/2000/svg" viewBox="0 0 1462.046322372925 502.6742316267673" width="2924.09264474585" height="1005.3484632535346">
  <!-- svg-source:excalidraw -->
  
  <defs>
    <style>
      @font-face {
        font-family: "Virgil";
        src: url("https://excalidraw.com/Virgil.woff2");
      }
      @font-face {
        font-family: "Cascadia";
        src: url("https://excalidraw.com/Cascadia.woff2");
      }
    </style>
  </defs>
  <g stroke-linecap="round"><g transform="translate(19.356057355794576 98.35950101092112) rotate(0 1.339183335989219 41.195866067289444)"><path d="M1.84 -0.81 C-1.02 27.57, -0.61 56.45, 2.74 83.2" stroke="#000000" stroke-width="4.5" fill="none" stroke-dasharray="1.5 10"></path></g></g><g stroke-linecap="round"><g transform="translate(122.41777922194336 93.77898003909195) rotate(0 -0.31623078827971085 47.359814842611286)"><path d="M-0.81 -1.13 C-1.81 23.75, -1.63 51.34, 0.75 95.85" stroke="#000000" stroke-width="4.5" fill="none" stroke-dasharray="1.5 10"></path></g></g><g stroke-linecap="round"><g transform="translate(234.64054303174981 90.34358931022052) rotate(0 1.554605124323075 46.13977325289761)"><path d="M-1.13 -1.45 C0.26 19.7, 3.5 42.15, 4.24 93.73" stroke="#000000" stroke-width="4.5" fill="none" stroke-dasharray="1.5 10"></path></g></g><g transform="translate(41.11353197198156 161.5027063172256) rotate(0 26.5 12.5)"><text x="0" y="18" font-family="Virgil, Segoe UI Emoji" font-size="20px" fill="#000000" text-anchor="start" style="white-space: pre;" direction="ltr">8bits</text></g><g transform="translate(156.60968209867542 162.58322728905387) rotate(0 26.5 12.5)"><text x="0" y="18" font-family="Virgil, Segoe UI Emoji" font-size="20px" fill="#000000" text-anchor="start" style="white-space: pre;" direction="ltr">8bits</text></g><g stroke-linecap="round"><g transform="translate(346.8633068415563 94.35154516057082) rotate(0 0.6395925523623873 47.56791213854467)"><path d="M-1.57 1.6 C-0.51 24.56, 1.42 45.19, 2.85 93.54" stroke="#000000" stroke-width="4.5" fill="none" stroke-dasharray="1.5 10"></path></g></g><g transform="translate(265.39705517961016 154.56731558835327) rotate(0 26.5 12.5)"><text x="0" y="18" font-family="Virgil, Segoe UI Emoji" font-size="20px" fill="#000000" text-anchor="start" style="white-space: pre;" direction="ltr">8bits</text></g><g stroke-linecap="round"><g transform="translate(388.0879955880157 146.4549712151238) rotate(0 444.530119108208 -2.3739537103811017)"><path d="M-0.16 0.78 C217.67 -4.26, 434.76 -5.33, 889.22 -5.53" stroke="#000000" stroke-width="4.5" fill="none" stroke-dasharray="1.5 10"></path></g><g transform="translate(388.0879955880157 146.4549712151238) rotate(0 444.530119108208 -2.3739537103811017)"><path d="M889.8 -4.47 L874.09 -0.4 L874.3 -12.06 L889.5 -5.16" stroke="none" stroke-width="0" fill="#000000" fill-rule="evenodd"></path><path d="M888.92 -4.07 C886.58 -3.89, 882.96 -1.73, 874.6 1.21 M876.74 0.69 C875.72 -1.01, 875.93 -5.13, 876.23 -11.68 M875.39 -10.47 C879.59 -8.69, 885.8 -8.91, 889.85 -4.47 M889.22 -5.53 C889.22 -5.53, 889.22 -5.53, 889.22 -5.53" stroke="#000000" stroke-width="4.5" fill="none"></path></g></g><g stroke-linecap="round" transform="translate(840.4144415561134 256.3874745390158) rotate(0 105.9245474735418 87.60246358622635)"><path d="M1.71 0.86 C46.85 0.86, 94.45 -0.84, 212.29 -1.14 M-0.1 -0.02 C45.06 -1.5, 88.54 -1.2, 211.96 0.34 M213.68 -0.85 C212.34 54.53, 209.19 107.35, 213.25 174.79 M212.2 -0.33 C211.67 37.61, 211.29 76.56, 211.32 175.49 M210.69 175.02 C137.32 174.38, 62.26 174.36, -1.69 175.37 M212.35 175.9 C163.82 174.58, 115.14 173.72, -0.68 174.54 M-0.51 174.05 C-0.42 136.29, 0.29 99.03, 1.73 0.28 M-0.19 175.93 C-1 115.01, -0.53 53.21, 0.98 -0.94" stroke="#000000" stroke-width="1" fill="none"></path></g><g transform="translate(896.5258234610167 320.6758100882771) rotate(0 54.5 25)"><text x="0" y="18" font-family="Virgil, Segoe UI Emoji" font-size="20px" fill="#000000" text-anchor="start" style="white-space: pre;" direction="ltr">   CRC</text><text x="0" y="43" font-family="Virgil, Segoe UI Emoji" font-size="20px" fill="#000000" text-anchor="start" style="white-space: pre;" direction="ltr">Calculation</text></g><g stroke-linecap="round"><g transform="translate(69.74178804591173 209.43713457776994) rotate(0 361.440389004216 93.67763964990172)"><path d="M0.58 -0.02 C9.27 13.99, -71.19 54.05, 51.87 85.21 C174.93 116.37, 624.41 170.23, 738.93 186.96 M-0.57 -1.08 C8.01 13.07, -72.56 51.75, 51.1 83.33 C174.76 114.92, 626.77 171.3, 741.39 188.43" stroke="#000000" stroke-width="1" fill="none"></path></g><g transform="translate(69.74178804591173 209.43713457776994) rotate(0 361.440389004216 93.67763964990172)"><path d="M742.21 186.94 L726.83 192.81 L728.84 180.53 L740.71 190.1" stroke="none" stroke-width="0" fill="#000000" fill-rule="evenodd"></path><path d="M741.37 188.85 C738.01 188.71, 733.78 190.01, 725.7 191.85 M742.07 188.55 C735.84 190.51, 730.38 192.15, 727.09 192.52 M727.87 193.66 C726.25 189.81, 728.82 185.43, 727.76 179.82 M727.36 192.39 C727.47 189.96, 727.46 187.4, 729.13 179.81 M729 180.57 C731.71 182.5, 733.3 184.33, 740.3 188.53 M728.81 180.76 C731.3 181.86, 734.25 183.49, 740.79 188 M741.39 188.43 C741.39 188.43, 741.39 188.43, 741.39 188.43 M741.39 188.43 C741.39 188.43, 741.39 188.43, 741.39 188.43" stroke="#000000" stroke-width="1" fill="none"></path></g></g><g stroke-linecap="round"><g transform="translate(180.819421612761 206.0017438488985) rotate(0 298.0614350388671 70.79857046362667)"><path d="M-0.02 0.34 C2.35 9.07, -90.05 29.52, 15.35 53 C120.76 76.48, 529.8 126.52, 632.41 141.22 M-1.49 -0.53 C0.66 8.29, -90.9 30.33, 14.65 54.1 C120.2 77.88, 529.13 127.5, 631.8 142.13" stroke="#000000" stroke-width="1" fill="none"></path></g><g transform="translate(180.819421612761 206.0017438488985) rotate(0 298.0614350388671 70.79857046362667)"><path d="M630.31 141.9 L617.45 146.68 L619.39 133.38 L633.47 143.4" stroke="none" stroke-width="0" fill="#000000" fill-rule="evenodd"></path><path d="M632.23 142.71 C625.11 144.29, 619.49 144.34, 616.49 147.94 M631.92 142.13 C628.03 143.66, 623.83 144.89, 617.16 146.52 M618.3 145.44 C618.73 142.59, 618.58 135.75, 618.68 133.11 M617.03 146.69 C618.02 142.08, 618.83 138.53, 618.67 133.67 M619.43 134.03 C622.37 134.49, 625.22 136.73, 631.9 141.19 M619.62 133.53 C623.46 136.36, 627.68 139.21, 631.37 142.58 M631.8 142.13 C631.8 142.13, 631.8 142.13, 631.8 142.13 M631.8 142.13 C631.8 142.13, 631.8 142.13, 631.8 142.13" stroke="#000000" stroke-width="1" fill="none"></path></g></g><g stroke-linecap="round"><g transform="translate(297.6227063943963 203.71148336298393) rotate(0 236.00774386681633 45.46519127495367)"><path d="M0.34 0.47 C-1.23 4.15, -94.54 7.05, -8.84 22.06 C76.86 37.07, 427.31 78.75, 514.53 90.52 M-0.94 -0.33 C-2.19 2.97, -92.89 4.83, -6.56 20.09 C79.77 35.36, 430.2 79.5, 517.02 91.26" stroke="#000000" stroke-width="1" fill="none"></path></g><g transform="translate(297.6227063943963 203.71148336298393) rotate(0 236.00774386681633 45.46519127495367)"><path d="M516.79 91.21 L502.77 96.01 L503.68 84.88 L518.29 90.04" stroke="none" stroke-width="0" fill="#000000" fill-rule="evenodd"></path><path d="M517.6 90.23 C512.4 91.91, 505.68 93.45, 504.03 95.62 M517.02 91.63 C512.89 92.93, 508.56 93.64, 502.6 96.47 M501.53 96.32 C503.95 92.27, 502.45 88.83, 503.4 83.66 M502.78 95.71 C502.76 92.63, 503.87 88.61, 503.97 82.8 M504.33 83.47 C506.59 85.66, 510.6 87.95, 516.08 92.12 M503.83 82.94 C508.58 85.61, 513.35 88.8, 517.47 91.07 M517.02 91.26 C517.02 91.26, 517.02 91.26, 517.02 91.26 M517.02 91.26 C517.02 91.26, 517.02 91.26, 517.02 91.26" stroke="#000000" stroke-width="1" fill="none"></path></g></g><g stroke-linecap="round" transform="translate(1140.621099508107 312.9899381252426) rotate(0 67.5 30)"><path d="M-1.37 0.5 C38.98 -2.35, 79.22 1.22, 134.78 -0.04 M0.49 0.13 C53.07 0.03, 104.9 -0.15, 135.91 -0.43 M135.84 1.41 C134.96 20.18, 134.63 42.11, 135.71 59.33 M134.88 -0.53 C134.85 21.36, 133.79 41.05, 134.34 59.9 M135.34 58.08 C92.81 58.51, 50.36 58.73, 1.14 61.57 M134.64 59.23 C93.4 58.24, 52.75 59.65, -0.25 59.42 M0.75 61.73 C0.41 47.18, 1.48 31.18, -0.37 1.46 M-0.98 60.98 C-1.13 40.19, 0.72 22.32, -0.75 -0.11" stroke="#000000" stroke-width="1" fill="none"></path></g><g transform="translate(1145.621099508107 330.4899381252426) rotate(0 62.5 12.5)"><text x="62.5" y="18" font-family="Virgil, Segoe UI Emoji" font-size="20px" fill="#000000" text-anchor="middle" style="white-space: pre;" direction="ltr">CRC</text></g><g stroke-linecap="round"><g transform="translate(1074.021011119384 356.0138056762926) rotate(0 23.953826780407667 -19.597133485433005)"><path d="M0.3 -0.78 C7.48 -0.01, 35.04 8.44, 43.57 3.78 C52.09 -0.89, 55.46 -20.87, 51.44 -28.76 C47.42 -36.65, 28.75 -42.26, 19.44 -43.58 C10.14 -44.89, -0.49 -37.82, -4.4 -36.64 M-1 1.43 C6.5 2.4, 37 9.72, 45.71 4.89 C54.41 0.07, 55.56 -19.1, 51.22 -27.51 C46.88 -35.92, 29.18 -44.11, 19.68 -45.57 C10.18 -47.02, -1.5 -37.6, -5.77 -36.25" stroke="#000000" stroke-width="2" fill="none"></path></g><g transform="translate(1074.021011119384 356.0138056762926) rotate(0 23.953826780407667 -19.597133485433005)"><path d="M-5.54 -36.93 L5.06 -46.85 L7.99 -38.16 L-5.57 -37.72" stroke="none" stroke-width="0" fill="#000000" fill-rule="evenodd"></path><path d="M-6.74 -37.61 C-3.59 -38.98, 0.36 -44.35, 4.75 -47.89 M-5.48 -36.22 C-3.41 -39.94, 0.37 -43.71, 3.87 -47.64 M3.13 -49.15 C4.17 -46.79, 6.29 -43.94, 9.82 -37.78 M3.58 -47.78 C4.7 -44.99, 6.57 -41.18, 9.31 -36.74 M9.36 -37.95 C4.85 -37.75, 1.14 -35.45, -5.73 -35.32 M8.65 -37.46 C5.34 -36.38, 2.14 -37.12, -6.31 -36.42 M-5.77 -36.25 C-5.77 -36.25, -5.77 -36.25, -5.77 -36.25 M-5.77 -36.25 C-5.77 -36.25, -5.77 -36.25, -5.77 -36.25" stroke="#000000" stroke-width="2" fill="none"></path></g></g><g stroke-linecap="round" transform="translate(10 12.616845792686945) rotate(0 703.5000000000001 31)"><path d="M-0.73 -0.54 C326.36 3.56, 651.31 4.37, 1407.12 0 M0.02 -0.18 C490.71 -1.84, 981.36 -1.95, 1407.25 -0.38 M1405.38 -0.75 C1405.93 21.91, 1406.77 43.36, 1405.54 62.19 M1407.53 -0.77 C1406.06 17.19, 1406.57 35.83, 1407.18 61.98 M1406.41 62.05 C960.5 62.99, 515.63 62.56, 0.49 61.44 M1406.68 61.77 C1036.42 57.63, 665.14 57.44, -0.09 61.86 M0.91 63.34 C-1.91 40.7, 0.92 20.5, 0.63 1.3 M-0.77 62.91 C-0.2 48.72, -0.72 36.92, 0.03 0.12" stroke="#000000" stroke-width="1" fill="none"></path></g><g stroke-linecap="round"><g transform="translate(1279.1320212440858 13.854062876106582) rotate(0 -0.02099123485390919 31.766046164743784)"><path d="M-1.09 -0.8 C-0.97 9.8, 0.87 52.05, 1.05 62.87 M0.53 1.39 C0.57 12.26, 0.88 54.18, 0.65 64.34" stroke="#000000" stroke-width="1" fill="none"></path></g></g><g transform="translate(966.8763629124669 32.35406287610658) rotate(0 27 12.5)"><text x="0" y="18" font-family="Virgil, Segoe UI Emoji" font-size="20px" fill="#000000" text-anchor="start" style="white-space: pre;" direction="ltr">Data</text></g><g transform="translate(1326.7740995798194 36.3029312097824) rotate(0 19.5 12.5)"><text x="0" y="18" font-family="Virgil, Segoe UI Emoji" font-size="20px" fill="#000000" text-anchor="start" style="white-space: pre;" direction="ltr">CRC</text></g><g stroke-linecap="round"><g transform="translate(1366.2242384856092 91.65203290863155) rotate(0 2.1421196111807603 165.26694565985645)"><path d="M-0.13 -0.02 C0.99 54.8, 5.11 274.91, 5.95 329.98 M-1.66 -1.08 C-0.53 54.48, 4.6 276.71, 5.57 331.62" stroke="#000000" stroke-width="2" fill="none"></path></g><g transform="translate(1366.2242384856092 91.65203290863155) rotate(0 2.1421196111807603 165.26694565985645)"><path d="M4.26 331.81 L-2.53 318.8 L12.56 316.71 L5.92 332.99" stroke="none" stroke-width="0" fill="#000000" fill-rule="evenodd"></path><path d="M5.54 332.97 C4.13 328.48, 3.09 325.53, -0.47 318.21 M5.25 332.09 C4.37 327.53, 2.52 325.33, -1.21 317.55 M-1.48 318.75 C1.35 318.16, 5.45 317.31, 11.99 318.56 M-1.12 318.24 C1.89 318.17, 4.71 317.51, 11.68 317.43 M12.8 317.93 C10.61 321.08, 7.28 325.19, 4.43 330.41 M11.19 317.36 C10.06 320.94, 9.05 325.18, 5.67 331.96 M5.57 331.62 C5.57 331.62, 5.57 331.62, 5.57 331.62 M5.57 331.62 C5.57 331.62, 5.57 331.62, 5.57 331.62" stroke="#000000" stroke-width="2" fill="none"></path></g></g><g stroke-linecap="round" transform="translate(1317.046322372925 428.8114060193748) rotate(0 67.5 30)"><path d="M1.8 0.31 C52.33 1, 104.9 0.81, 135.08 -0.89 M0.63 0.64 C37.56 1, 77.69 0.37, 134.19 -0.37 M135.94 -1.46 C135.4 13.23, 134.16 27.53, 136.06 58.46 M135.14 0.18 C134.59 14.47, 133.64 28.71, 134.27 60.06 M135.05 61.23 C101.52 60.33, 69.32 59.55, -1.61 58.85 M134.29 59.77 C86.08 59.6, 38.73 59.36, 0.45 60.67 M0.35 60.63 C1.41 44.15, 2.06 30.34, -1.53 1.81 M-0.02 60.03 C0.56 39.23, 1.28 19.77, -0.61 -0.65" stroke="#000000" stroke-width="1" fill="none"></path></g><g transform="translate(1322.046322372925 433.8114060193748) rotate(0 62.5 25)"><text x="62.5" y="18" font-family="Virgil, Segoe UI Emoji" font-size="20px" fill="#000000" text-anchor="middle" style="white-space: pre;" direction="ltr">CRC</text><text x="62.5" y="43" font-family="Virgil, Segoe UI Emoji" font-size="20px" fill="#000000" text-anchor="middle" style="white-space: pre;" direction="ltr">receive</text></g><g stroke-linecap="round" transform="translate(1146.4219161723006 432.6742316267673) rotate(0 67.5 30)"><path d="M0.01 0.98 C40.49 0.58, 80.55 -1.1, 134.7 1.83 M-0.94 0.42 C35.45 -1.07, 68.69 -1.23, 134.25 0.35 M135.19 -0.24 C134.23 16.57, 136.34 30.44, 133.77 58.69 M134.98 0.17 C134.12 17.47, 134.35 34.81, 134.38 60.57 M133.59 59.27 C82.34 59.31, 31.14 59.68, 1.19 59.49 M134.64 60.37 C103.13 59.83, 69.99 60.36, -0.69 59.81 M1.3 58.04 C1.85 35.75, -1.63 17.08, 0.81 -1.49 M0.12 59.66 C0.85 43.32, -0.6 24.71, 0.1 -0.74" stroke="#000000" stroke-width="1" fill="none"></path></g><g transform="translate(1151.4219161723006 437.6742316267673) rotate(0 62.5 25)"><text x="62.5" y="18" font-family="Virgil, Segoe UI Emoji" font-size="20px" fill="#000000" text-anchor="middle" style="white-space: pre;" direction="ltr">CRC</text><text x="62.5" y="43" font-family="Virgil, Segoe UI Emoji" font-size="20px" fill="#000000" text-anchor="middle" style="white-space: pre;" direction="ltr">calculate</text></g><g stroke-linecap="round"><g transform="translate(1214.4944812937792 377.3620285264551) rotate(0 0.5245998802921576 25.02130358686145)"><path d="M0.59 0.16 C0.82 8.37, 1.61 41.14, 1.62 49.29 M-0.57 -0.81 C-0.46 7.61, 0.89 42.33, 0.91 50.85" stroke="#000000" stroke-width="2" fill="none"></path></g><g transform="translate(1214.4944812937792 377.3620285264551) rotate(0 0.5245998802921576 25.02130358686145)"><path d="M-0.27 51.2 L-4.36 37.97 L7.77 36.86 L0.46 52.42" stroke="none" stroke-width="0" fill="#000000" fill-rule="evenodd"></path><path d="M1.11 51.44 C-1.13 45.97, -3.51 43.78, -6.38 38.36 M1.44 50.69 C-1.99 45.71, -4.36 41.36, -5.99 37.76 M-6.4 37.77 C-2.19 36.38, -0.77 36.46, 6.8 37.29 M-6.35 37.47 C-2.17 37.33, 1.94 37.56, 7.44 37.13 M5.78 35.97 C3.45 41.2, 3.38 46.65, 0.05 49.78 M7.58 37.22 C5.56 41.45, 3.03 44.61, 1.46 50.98 M0.91 50.85 C0.91 50.85, 0.91 50.85, 0.91 50.85 M0.91 50.85 C0.91 50.85, 0.91 50.85, 0.91 50.85" stroke="#000000" stroke-width="2" fill="none"></path></g></g><g transform="translate(1292.9359029363477 441.07779895423846) rotate(0 6.5 12.5)"><text x="0" y="18" font-family="Virgil, Segoe UI Emoji" font-size="20px" fill="#000000" text-anchor="start" style="white-space: pre;" direction="ltr">=</text></g><g stroke-linecap="round"><g transform="translate(222.18791344126276 16.641811854871776) rotate(0 0.42421081626969226 29.705902753053124)"><path d="M0.64 -0.92 C0.62 8.89, -0.61 49.03, -0.74 59.21 M-0.49 1.21 C-0.07 11.12, 1.66 50.27, 1.58 60.33" stroke="#000000" stroke-width="1" fill="none"></path></g></g><g stroke-linecap="round"><g transform="translate(85.48827852602142 13.301172252384276) rotate(0 0.7935879594501785 30.303354406915332)"><path d="M-0.92 -0.74 C-0.95 9.13, -0.14 49.71, 0.21 59.87 M0.79 1.49 C1.12 11.5, 2.56 51.32, 2.51 61.35" stroke="#000000" stroke-width="1" fill="none"></path></g></g><g stroke-linecap="round"><g transform="translate(432.50130421556173 13.581385453213443) rotate(0 -0.032949341665954535 32.00213799747644)"><path d="M-0.74 -0.79 C-0.87 9.89, -0.29 52.54, -0.13 63.17 M1.07 1.41 C0.72 12.39, -0.89 54.31, -1.14 64.79" stroke="#000000" stroke-width="1" fill="none"></path></g></g><g transform="translate(123.03786657412246 28.245805166056016) rotate(0 35 12.5)"><text x="0" y="18" font-family="Virgil, Segoe UI Emoji" font-size="20px" fill="#000000" text-anchor="start" style="white-space: pre;" direction="ltr">Target</text></g><g transform="translate(338.64019310445065 29.859163230991726) rotate(0 32 12.5)"><text x="0" y="18" font-family="Virgil, Segoe UI Emoji" font-size="20px" fill="#000000" text-anchor="start" style="white-space: pre;" direction="ltr">Source</text></g><g transform="translate(471.3901931044504 28.359163230991726) rotate(0 17 12.5)"><text x="0" y="18" font-family="Virgil, Segoe UI Emoji" font-size="20px" fill="#000000" text-anchor="start" style="white-space: pre;" direction="ltr">cmd</text></g><g stroke-linecap="round"><g transform="translate(680.2513042155614 11.081385453213443) rotate(0 -0.4418591786488264 30.847994570564424)"><path d="M0.22 -0.02 C0.28 10.26, 0.22 51.49, 0.2 61.85 M-1.12 -1.08 C-1.2 9.29, -0.73 52.1, -0.64 62.78" stroke="#000000" stroke-width="1" fill="none"></path></g></g><g transform="translate(594.2513042155614 30.081385453213443) rotate(0 19.5 12.5)"><text x="0" y="18" font-family="Virgil, Segoe UI Emoji" font-size="20px" fill="#000000" text-anchor="start" style="white-space: pre;" direction="ltr">Size</text></g><g stroke-linecap="round"><g transform="translate(303.0436596441641 12.831385453213443) rotate(0 -0.4934347767192264 31.021837201891685)"><path d="M0.2 -1.15 C0.19 9.2, 0.14 51.55, 0.11 62.12 M-1.15 0.85 C-1.33 11.34, -0.86 52.81, -0.77 63.2" stroke="#000000" stroke-width="1" fill="none"></path></g></g><g transform="translate(237.2181266420912 29.56627885279977) rotate(0 24.5 12.5)"><text x="0" y="18" font-family="Virgil, Segoe UI Emoji" font-size="20px" fill="#000000" text-anchor="start" style="white-space: pre;" direction="ltr">Mode</text></g><g transform="translate(33.798704927679125 31.36159865404261) rotate(0 16.5 12.5)"><text x="0" y="18" font-family="Virgil, Segoe UI Emoji" font-size="20px" fill="#000000" text-anchor="start" style="white-space: pre;" direction="ltr">Cfg</text></g><g stroke-linecap="round"><g transform="translate(539.751304215561 13.331385453213443) rotate(0 0.33312515503183704 31.378306375555894)"><path d="M-0.88 0.08 C-0.81 10.67, -1.05 53.19, -0.75 63.68 M0.86 -0.93 C1.42 9.31, 1.6 51.04, 1.57 61.92" stroke="#000000" stroke-width="1" fill="none"></path></g></g></svg>