<svg version="1.1" xmlns="http://www.w3.org/2000/svg" viewBox="0 0 1406.1969821518642 267.2049271724536" width="2812.3939643037284" height="534.4098543449072">
  <!-- svg-source:excalidraw -->
  
  <defs>
    <style>
      @font-face {
        font-family: "Virgil";
        src: url("https://excalidraw.com/Virgil.woff2");
      }
      @font-face {
        font-family: "Cascadia";
        src: url("https://excalidraw.com/Cascadia.woff2");
      }
    </style>
  </defs>
  <g stroke-linecap="round"><g transform="translate(10.220333894165236 107.41755409152029) rotate(0 692.9606698792559 -1.690958738860445)"><path d="M0.54 0.55 C400.52 0.65, 801.01 0.55, 1385.93 -1.86 M-0.06 -0.2 C418.97 -5.11, 838.34 -5.06, 1385.98 -0.93" stroke="#000000" stroke-width="2" fill="none"></path></g><g transform="translate(10.220333894165236 107.41755409152029) rotate(0 692.9606698792559 -1.690958738860445)"><path d="M1385.24 -2.04 L1372.07 4.66 L1372.98 -7.99 L1386.35 -2.53" stroke="none" stroke-width="0" fill="#000000" fill-rule="evenodd"></path><path d="M1386.99 0.11 C1382.06 1.19, 1378.13 3.43, 1372.95 3.99 M1385.87 -1.29 C1381.2 0.67, 1377.17 3.31, 1373.04 5.75 M1372.93 5.23 C1372.35 2.4, 1371.94 -1.1, 1372.38 -6.21 M1372.02 5.35 C1372.63 0.79, 1372.23 -3.47, 1372.36 -7.27 M1372.36 -8.37 C1376.38 -7.45, 1379.19 -3.77, 1385.8 -1.16 M1372.54 -6.71 C1377.86 -4.3, 1383.35 -2.35, 1386.34 -0.42 M1385.98 -0.93 C1385.98 -0.93, 1385.98 -0.93, 1385.98 -0.93 M1385.98 -0.93 C1385.98 -0.93, 1385.98 -0.93, 1385.98 -0.93" stroke="#000000" stroke-width="2" fill="none"></path></g></g><g stroke-linecap="round"><g transform="translate(10.220333894165236 107.41755409152029) rotate(0 26.819811814623193 -0.4461001354129621)"><path d="M0.81 0.83 C9.86 0.9, 45.02 0.3, 53.86 0.26 M-0.22 0.22 C8.71 -0.07, 44.04 -1.46, 52.93 -1.73" stroke="#000000" stroke-width="1" fill="none"></path></g><g transform="translate(10.220333894165236 107.41755409152029) rotate(0 26.819811814623193 -0.4461001354129621)"><path d="M1.69 -14.12 C0.99 -10.15, 1.47 -5.64, -0.53 0.87 M0.28 -14.83 C0.41 -9.92, 1.21 -3.84, 1.22 0.39" stroke="#000000" stroke-width="1" fill="none"></path></g><g transform="translate(10.220333894165236 107.41755409152029) rotate(0 26.819811814623193 -0.4461001354129621)"><path d="M2.01 15.88 C1.27 11.92, 1.66 8.5, -0.53 0.87 M0.6 15.17 C0.39 10.45, 1.08 6.89, 1.22 0.39" stroke="#000000" stroke-width="1" fill="none"></path></g><g transform="translate(10.220333894165236 107.41755409152029) rotate(0 26.819811814623193 -0.4461001354129621)"><path d="M54.5 13.31 C53.67 9.36, 53.96 5.94, 51.59 -1.69 M53.1 12.6 C52.76 7.88, 53.33 4.33, 53.34 -2.17" stroke="#000000" stroke-width="1" fill="none"></path></g><g transform="translate(10.220333894165236 107.41755409152029) rotate(0 26.819811814623193 -0.4461001354129621)"><path d="M53.44 -16.67 C52.84 -12.7, 53.41 -8.2, 51.59 -1.69 M52.03 -17.38 C52.28 -12.47, 53.2 -6.4, 53.34 -2.17" stroke="#000000" stroke-width="1" fill="none"></path></g></g><g stroke-linecap="round"><g transform="translate(119.5802720965786 107.41755409152029) rotate(0 26.943888989193596 0.31141483387864355)"><path d="M0.83 0.04 C9.87 -0.09, 45.15 -0.03, 54.08 0.05 M-0.19 -0.99 C8.73 -0.98, 44.24 1.71, 53.27 1.61" stroke="#000000" stroke-width="1" fill="none"></path></g><g transform="translate(119.5802720965786 107.41755409152029) rotate(0 26.943888989193596 0.31141483387864355)"><path d="M0.86 -14.64 C0.98 -9.93, 1.53 -7.75, 0.87 0.35 M0.15 -15.37 C0.23 -8.9, 1.5 -3.09, 0.39 -0.05" stroke="#000000" stroke-width="1" fill="none"></path></g><g transform="translate(119.5802720965786 107.41755409152029) rotate(0 26.943888989193596 0.31141483387864355)"><path d="M0.9 15.36 C0.8 11.51, 1.34 5.13, 0.87 0.35 M0.19 14.63 C0.3 9.64, 1.55 3.99, 0.39 -0.05" stroke="#000000" stroke-width="1" fill="none"></path></g><g transform="translate(119.5802720965786 107.41755409152029) rotate(0 26.943888989193596 0.31141483387864355)"><path d="M52.76 16.92 C52.82 13.07, 53.53 6.69, 53.31 1.92 M52.05 16.18 C52.38 11.21, 53.85 5.56, 52.82 1.52" stroke="#000000" stroke-width="1" fill="none"></path></g><g transform="translate(119.5802720965786 107.41755409152029) rotate(0 26.943888989193596 0.31141483387864355)"><path d="M53.87 -13.06 C53.82 -8.35, 54.21 -6.17, 53.31 1.92 M53.16 -13.8 C53.02 -7.33, 54.07 -1.52, 52.82 1.52" stroke="#000000" stroke-width="1" fill="none"></path></g></g><g stroke-linecap="round"><g transform="translate(234.09329639229952 107.41755409152029) rotate(0 26.23318267752441 -0.2811532383834674)"><path d="M0.04 0.26 C8.88 0.22, 44.82 0.83, 53.87 0.6 M-1.4 -0.65 C7.22 -1.12, 43.74 -1.26, 52.94 -1.2" stroke="#000000" stroke-width="1" fill="none"></path></g><g transform="translate(234.09329639229952 107.41755409152029) rotate(0 26.23318267752441 -0.2811532383834674)"><path d="M0.5 -14.69 C0.98 -8.62, -1.17 -3.67, 0.35 1.49 M-0.24 -15.31 C0.4 -9.76, 0.43 -6.6, -0.05 0.06" stroke="#000000" stroke-width="1" fill="none"></path></g><g transform="translate(234.09329639229952 107.41755409152029) rotate(0 26.23318267752441 -0.2811532383834674)"><path d="M0.22 15.31 C0.6 10.34, -1.45 4.27, 0.35 1.49 M-0.51 14.69 C0.35 11.66, 0.47 6.23, -0.05 0.06" stroke="#000000" stroke-width="1" fill="none"></path></g><g transform="translate(234.09329639229952 107.41755409152029) rotate(0 26.23318267752441 -0.2811532383834674)"><path d="M53.27 13.85 C53.6 8.88, 51.49 2.81, 53.26 0.03 M52.54 13.23 C53.35 10.2, 53.43 4.77, 52.86 -1.4" stroke="#000000" stroke-width="1" fill="none"></path></g><g transform="translate(234.09329639229952 107.41755409152029) rotate(0 26.23318267752441 -0.2811532383834674)"><path d="M53.26 -16.15 C53.79 -10.09, 51.7 -5.13, 53.26 0.03 M52.52 -16.77 C53.2 -11.22, 53.28 -8.06, 52.86 -1.4" stroke="#000000" stroke-width="1" fill="none"></path></g></g><g stroke-linecap="round"><g transform="translate(352.0417114168921 103.98216336264886) rotate(0 26.678812093539392 -0.52384708213458)"><path d="M0.26 0.05 C9.19 0.12, 45.68 0.48, 54.42 0.48 M-1.07 -0.98 C7.69 -1.27, 44.44 -1.78, 53.79 -1.39" stroke="#000000" stroke-width="1" fill="none"></path></g><g transform="translate(352.0417114168921 103.98216336264886) rotate(0 26.678812093539392 -0.52384708213458)"><path d="M0.45 -14.2 C0.95 -10.76, 0.34 -3.56, 1.49 -0.16 M-0.18 -14.62 C0.92 -10.78, -0.25 -7.52, 0.06 0.39" stroke="#000000" stroke-width="1" fill="none"></path></g><g transform="translate(352.0417114168921 103.98216336264886) rotate(0 26.678812093539392 -0.52384708213458)"><path d="M0.18 15.8 C0.77 8.16, 0.26 4.28, 1.49 -0.16 M-0.44 15.38 C0.98 11.69, -0.12 7.43, 0.06 0.39" stroke="#000000" stroke-width="1" fill="none"></path></g><g transform="translate(352.0417114168921 103.98216336264886) rotate(0 26.678812093539392 -0.52384708213458)"><path d="M53.7 14.37 C54.3 6.73, 53.79 2.85, 55.02 -1.6 M53.08 13.94 C54.51 10.26, 53.41 6, 53.6 -1.04" stroke="#000000" stroke-width="1" fill="none"></path></g><g transform="translate(352.0417114168921 103.98216336264886) rotate(0 26.678812093539392 -0.52384708213458)"><path d="M53.99 -15.63 C54.49 -12.19, 53.87 -4.99, 55.02 -1.6 M53.37 -16.05 C54.46 -12.21, 53.29 -8.95, 53.6 -1.04" stroke="#000000" stroke-width="1" fill="none"></path></g></g><g stroke-linecap="round"><g transform="translate(467.6998659555702 102.83703311969111) rotate(0 26.45635255356342 -0.2373297281565101)"><path d="M0.05 0.6 C9.09 0.38, 45.34 -1.02, 54.3 -1.08 M-1.39 -0.13 C7.53 -0.26, 44.53 -0.41, 53.61 -0.11" stroke="#000000" stroke-width="1" fill="none"></path></g><g transform="translate(467.6998659555702 102.83703311969111) rotate(0 26.45635255356342 -0.2373297281565101)"><path d="M0.3 -13.79 C-1.62 -9.8, 0.2 -4.07, -0.16 -0.13 M-0.12 -13.7 C-0.02 -11.66, -0.41 -8.24, 0.39 0.54" stroke="#000000" stroke-width="1" fill="none"></path></g><g transform="translate(467.6998659555702 102.83703311969111) rotate(0 26.45635255356342 -0.2373297281565101)"><path d="M1.29 16.2 C-0.99 11.09, 0.52 7.73, -0.16 -0.13 M0.87 16.29 C0.93 11.98, 0.33 9.05, 0.39 0.54" stroke="#000000" stroke-width="1" fill="none"></path></g><g transform="translate(467.6998659555702 102.83703311969111) rotate(0 26.45635255356342 -0.2373297281565101)"><path d="M54.19 15.5 C52.11 10.38, 53.82 7.03, 53.4 -0.84 M53.77 15.59 C53.96 11.28, 53.5 8.35, 53.96 -0.17" stroke="#000000" stroke-width="1" fill="none"></path></g><g transform="translate(467.6998659555702 102.83703311969111) rotate(0 26.45635255356342 -0.2373297281565101)"><path d="M54.54 -14.5 C52.41 -10.52, 54.02 -4.78, 53.4 -0.84 M54.11 -14.41 C54.07 -12.38, 53.54 -8.95, 53.96 -0.17" stroke="#000000" stroke-width="1" fill="none"></path></g></g><g stroke-linecap="round"><g transform="translate(583.3580204942482 103.98216336264886) rotate(0 27.17504077757269 0.6389610759320021)"><path d="M0.6 0.48 C9.35 0.48, 43.83 -0.05, 52.74 0.03 M-0.54 -0.31 C8.54 -0.11, 45.89 1.67, 54.89 1.59" stroke="#000000" stroke-width="1" fill="none"></path></g><g transform="translate(583.3580204942482 103.98216336264886) rotate(0 27.17504077757269 0.6389610759320021)"><path d="M1.05 -15.86 C0.54 -9.38, 1.78 -5.08, -0.13 -0.84 M1.14 -14.11 C-0.07 -10.93, 0.22 -6.82, 0.54 0.47" stroke="#000000" stroke-width="1" fill="none"></path></g><g transform="translate(583.3580204942482 103.98216336264886) rotate(0 27.17504077757269 0.6389610759320021)"><path d="M1.36 14.13 C0.74 10.98, 1.88 5.63, -0.13 -0.84 M1.45 15.89 C0.39 11.72, 0.6 8.48, 0.54 0.47" stroke="#000000" stroke-width="1" fill="none"></path></g><g transform="translate(583.3580204942482 103.98216336264886) rotate(0 27.17504077757269 0.6389610759320021)"><path d="M55.14 15.23 C54.69 12.07, 55.99 6.73, 54.15 0.26 M55.23 16.99 C54.3 12.82, 54.63 9.58, 54.83 1.57" stroke="#000000" stroke-width="1" fill="none"></path></g><g transform="translate(583.3580204942482 103.98216336264886) rotate(0 27.17504077757269 0.6389610759320021)"><path d="M55.84 -14.76 C55.17 -8.27, 56.25 -3.97, 54.15 0.26 M55.93 -13 C54.6 -9.82, 54.76 -5.71, 54.83 1.57" stroke="#000000" stroke-width="1" fill="none"></path></g></g><g stroke-linecap="round"><g transform="translate(692.1453935751831 103.98216336264886) rotate(0 26.56417099108012 -0.38313235026635084)"><path d="M0.48 -1.08 C9.45 -1.14, 44.8 0.1, 53.85 0.25 M-0.72 0.97 C8.08 0.48, 43.71 -1.75, 52.92 -1.74" stroke="#000000" stroke-width="1" fill="none"></path></g><g transform="translate(692.1453935751831 103.98216336264886) rotate(0 26.56417099108012 -0.38313235026635084)"><path d="M-0.5 -16.03 C1.13 -10.29, 0.49 -7.7, -0.84 -1.9 M1.26 -16.52 C0.75 -12.9, 1.1 -9.4, 0.47 -1.01" stroke="#000000" stroke-width="1" fill="none"></path></g><g transform="translate(692.1453935751831 103.98216336264886) rotate(0 26.56417099108012 -0.38313235026635084)"><path d="M-1.23 13.96 C0.47 10.59, 0.06 4.07, -0.84 -1.9 M0.53 13.48 C0.05 10.35, 0.56 7.12, 0.47 -1.01" stroke="#000000" stroke-width="1" fill="none"></path></g><g transform="translate(692.1453935751831 103.98216336264886) rotate(0 26.56417099108012 -0.38313235026635084)"><path d="M52.09 13.29 C53.52 9.93, 52.84 3.41, 51.59 -2.56 M53.85 12.81 C53.17 9.7, 53.49 6.47, 52.91 -1.67" stroke="#000000" stroke-width="1" fill="none"></path></g><g transform="translate(692.1453935751831 103.98216336264886) rotate(0 26.56417099108012 -0.38313235026635084)"><path d="M51.05 -16.69 C52.95 -10.95, 52.59 -8.36, 51.59 -2.56 M52.81 -17.17 C52.5 -13.56, 53.05 -10.06, 52.91 -1.67" stroke="#000000" stroke-width="1" fill="none"></path></g></g><g stroke-linecap="round"><g transform="translate(806.6584178709039 103.98216336264886) rotate(0 26.498099970328838 -0.04911180008775773)"><path d="M-1.08 0.03 C7.83 0.12, 44.95 1.09, 54.07 0.98 M0.56 -1 C9.28 -1.28, 44.55 -0.86, 53.26 -0.62" stroke="#000000" stroke-width="1" fill="none"></path></g><g transform="translate(806.6584178709039 103.98216336264886) rotate(0 26.498099970328838 -0.04911180008775773)"><path d="M-0.74 -14.65 C0.41 -9.92, -1.67 -5.79, -1.9 -1.1 M-1.22 -15.05 C-0.94 -9.45, -0.91 -4.65, -1.01 -0.24" stroke="#000000" stroke-width="1" fill="none"></path></g><g transform="translate(806.6584178709039 103.98216336264886) rotate(0 26.498099970328838 -0.04911180008775773)"><path d="M-1.33 15.34 C-0.1 9.57, -1.96 3.2, -1.9 -1.1 M-1.82 14.94 C-1.6 10.21, -1.37 4.68, -1.01 -0.24" stroke="#000000" stroke-width="1" fill="none"></path></g><g transform="translate(806.6584178709039 103.98216336264886) rotate(0 26.498099970328838 -0.04911180008775773)"><path d="M53.04 14.69 C54.26 8.92, 52.38 2.55, 52.43 -1.75 M52.55 14.29 C52.75 9.56, 52.98 4.03, 53.33 -0.89" stroke="#000000" stroke-width="1" fill="none"></path></g><g transform="translate(806.6584178709039 103.98216336264886) rotate(0 26.498099970328838 -0.04911180008775773)"><path d="M53.56 -15.3 C54.72 -10.58, 52.66 -6.44, 52.43 -1.75 M53.08 -15.71 C53.38 -10.11, 53.42 -5.3, 53.33 -0.89" stroke="#000000" stroke-width="1" fill="none"></path></g></g><g stroke-linecap="round"><g transform="translate(915.4457909518391 103.98216336264886) rotate(0 26.69692699153927 0.31195777234643174)"><path d="M0.03 0.25 C9.09 0.4, 45.94 0.05, 54.8 -0.17 M-1.41 -0.66 C7.53 -0.22, 45.45 1.22, 54.37 1.28" stroke="#000000" stroke-width="1" fill="none"></path></g><g transform="translate(915.4457909518391 103.98216336264886) rotate(0 26.69692699153927 0.31195777234643174)"><path d="M0.27 -13.52 C-0.36 -10.38, -1.45 -5.37, -1.1 0.92 M-0.13 -14.94 C0.42 -8.92, 0.08 -2.91, -0.24 0.06" stroke="#000000" stroke-width="1" fill="none"></path></g><g transform="translate(915.4457909518391 103.98216336264886) rotate(0 26.69692699153927 0.31195777234643174)"><path d="M0.42 16.48 C0.01 9.41, -1.14 4.22, -1.1 0.92 M0.02 15.06 C0.34 9.31, -0.05 3.55, -0.24 0.06" stroke="#000000" stroke-width="1" fill="none"></path></g><g transform="translate(915.4457909518391 103.98216336264886) rotate(0 26.69692699153927 0.31195777234643174)"><path d="M54.31 17.51 C54.05 10.44, 53.06 5.25, 53.24 1.95 M53.91 16.09 C54.41 10.34, 54.19 4.59, 54.1 1.09" stroke="#000000" stroke-width="1" fill="none"></path></g><g transform="translate(915.4457909518391 103.98216336264886) rotate(0 26.69692699153927 0.31195777234643174)"><path d="M55.07 -12.48 C54.28 -9.35, 53.03 -4.33, 53.24 1.95 M54.67 -13.9 C55.04 -7.89, 54.52 -1.88, 54.1 1.09" stroke="#000000" stroke-width="1" fill="none"></path></g></g><g stroke-linecap="round"><g transform="translate(1026.5234245186875 103.98216336264886) rotate(0 26.290593907339712 0.1970497079191773)"><path d="M0.25 0.98 C9.37 0.88, 44.9 -0.32, 53.66 -0.59 M-1.07 0.45 C7.97 0.5, 43.26 0.66, 52.62 0.64" stroke="#000000" stroke-width="1" fill="none"></path></g><g transform="translate(1026.5234245186875 103.98216336264886) rotate(0 26.290593907339712 0.1970497079191773)"><path d="M1.05 -14.22 C-0.82 -12.19, -0.82 -8.84, 0.92 2.37 M-0.37 -13.66 C-0.17 -8.7, 0.11 -3.64, 0.06 0.96" stroke="#000000" stroke-width="1" fill="none"></path></g><g transform="translate(1026.5234245186875 103.98216336264886) rotate(0 26.290593907339712 0.1970497079191773)"><path d="M1.91 15.77 C-0.15 11.5, -0.33 8.54, 0.92 2.37 M0.49 16.33 C0.56 10.64, 0.53 5.07, 0.06 0.96" stroke="#000000" stroke-width="1" fill="none"></path></g><g transform="translate(1026.5234245186875 103.98216336264886) rotate(0 26.290593907339712 0.1970497079191773)"><path d="M53.83 15.43 C51.86 11.16, 51.78 8.2, 53.29 2.02 M52.4 15.99 C52.63 10.3, 52.77 4.73, 52.43 0.62" stroke="#000000" stroke-width="1" fill="none"></path></g><g transform="translate(1026.5234245186875 103.98216336264886) rotate(0 26.290593907339712 0.1970497079191773)"><path d="M53.87 -14.57 C51.9 -12.54, 51.81 -9.19, 53.29 2.02 M52.45 -14.01 C52.49 -9.05, 52.61 -3.99, 52.43 0.62" stroke="#000000" stroke-width="1" fill="none"></path></g></g><g stroke-linecap="round"><g transform="translate(1136.4559278425786 105.12729360560479) rotate(0 27.837469417588068 -0.6948584631650192)"><path d="M0.98 -0.17 C9.85 -0.38, 44.54 -0.94, 53.23 -1.06 M0.04 -1.3 C9.31 -1.43, 46.97 -0.29, 55.63 -0.08" stroke="#000000" stroke-width="1" fill="none"></path></g><g transform="translate(1136.4559278425786 105.12729360560479) rotate(0 27.837469417588068 -0.6948584631650192)"><path d="M0.51 -15.9 C-0.5 -11.45, -0.22 -5.42, 2.37 0.66 M1.07 -15.22 C0.75 -11.48, 0.56 -8.13, 0.96 0.5" stroke="#000000" stroke-width="1" fill="none"></path></g><g transform="translate(1136.4559278425786 105.12729360560479) rotate(0 27.837469417588068 -0.6948584631650192)"><path d="M1.04 14.09 C-0.19 9.47, -0.08 6.42, 2.37 0.66 M1.6 14.77 C1.19 11.29, 0.87 7.41, 0.96 0.5" stroke="#000000" stroke-width="1" fill="none"></path></g><g transform="translate(1136.4559278425786 105.12729360560479) rotate(0 27.837469417588068 -0.6948584631650192)"><path d="M55.02 14.18 C53.99 9.55, 54.31 6.5, 57.02 0.74 M55.58 14.85 C55.33 11.37, 55.17 7.5, 55.61 0.59" stroke="#000000" stroke-width="1" fill="none"></path></g><g transform="translate(1136.4559278425786 105.12729360560479) rotate(0 27.837469417588068 -0.6948584631650192)"><path d="M55.83 -15.81 C54.62 -11.36, 54.69 -5.33, 57.02 0.74 M56.38 -15.14 C55.91 -11.39, 55.56 -8.04, 55.61 0.59" stroke="#000000" stroke-width="1" fill="none"></path></g></g><g stroke-linecap="round"><g transform="translate(1244.0981706805555 105.12729360560479) rotate(0 26.60130635047824 0.4583177864365098)"><path d="M-0.17 -0.59 C8.59 -0.86, 43.91 -0.85, 52.76 -0.66 M-1.71 1.72 C7.38 1.5, 45.41 1.07, 54.91 0.53" stroke="#000000" stroke-width="1" fill="none"></path></g><g transform="translate(1244.0981706805555 105.12729360560479) rotate(0 26.60130635047824 0.4583177864365098)"><path d="M-0.98 -16.92 C-0.92 -11.91, 0.6 -4.57, 0.66 -1.48 M-0.3 -15.6 C-0.19 -11.53, -0.43 -6.95, 0.5 -0.12" stroke="#000000" stroke-width="1" fill="none"></path></g><g transform="translate(1244.0981706805555 105.12729360560479) rotate(0 26.60130635047824 0.4583177864365098)"><path d="M-0.83 13.08 C-1.06 8.46, 0.4 6.16, 0.66 -1.48 M-0.15 14.4 C-0.01 9.81, -0.29 5.73, 0.5 -0.12" stroke="#000000" stroke-width="1" fill="none"></path></g><g transform="translate(1244.0981706805555 105.12729360560479) rotate(0 26.60130635047824 0.4583177864365098)"><path d="M54.64 14.2 C54.28 9.58, 55.62 7.28, 55.74 -0.36 M55.32 15.51 C55.35 10.93, 54.96 6.85, 55.58 1" stroke="#000000" stroke-width="1" fill="none"></path></g><g transform="translate(1244.0981706805555 105.12729360560479) rotate(0 26.60130635047824 0.4583177864365098)"><path d="M53.71 -15.79 C53.9 -10.78, 55.54 -3.45, 55.74 -0.36 M54.39 -14.48 C54.62 -10.41, 54.49 -5.83, 55.58 1" stroke="#000000" stroke-width="1" fill="none"></path></g></g><g stroke-linecap="round" transform="translate(10.975433312848594 12.290260485915496) rotate(0 313.01058715159195 31)"><path d="M-0.71 -0.44 C238.53 1.59, 479 1.67, 625.55 -0.09 M-0.01 0.04 C171.52 0.1, 343.31 0.56, 626.27 -0.3 M626.53 0.13 C624.86 20.95, 625.52 39.76, 624.71 60.27 M626.58 -1 C626.31 24.17, 625.88 47.27, 627 62.11 M626.07 62.56 C426.14 64.01, 226.33 64.64, -0.36 61.39 M625.63 61.77 C442.16 60.09, 257.97 60.31, -0.1 62.38 M0.02 60.69 C-0.22 42.99, -1.04 23.94, -0.74 -1.11 M-0.32 62.18 C-0.6 43.66, -0.73 25.99, -0.94 0.83" stroke="#000000" stroke-width="1" fill="none"></path></g><g transform="translate(251.8428151581362 30.85486975704407) rotate(0 56.5 12.5)"><text x="0" y="18" font-family="Virgil, Segoe UI Emoji" font-size="20px" fill="#000000" text-anchor="start" style="white-space: pre;" direction="ltr">Luos Frame</text></g><g stroke-linecap="round"><g transform="translate(62.896325070196895 139.48120089432086) rotate(0 0.508876790381251 27.58369543009485)"><path d="M-0.66 -0.91 C-0.28 8.62, 1.27 46.88, 1.68 56.07 M1.19 1.23 C1.51 10.54, 0.98 45.54, 1.01 54.53" stroke="#000000" stroke-width="2" fill="none"></path></g><g transform="translate(62.896325070196895 139.48120089432086) rotate(0 0.508876790381251 27.58369543009485)"><path d="M8.27 25.41 C9.23 19.18, 3.59 11.48, -1.18 0.02 M9.42 24.27 C6.71 18, 4.31 8.95, -0.47 -1.43" stroke="#000000" stroke-width="2" fill="none"></path></g><g transform="translate(62.896325070196895 139.48120089432086) rotate(0 0.508876790381251 27.58369543009485)"><path d="M-10.52 26.17 C-4.84 19.86, -5.77 11.96, -1.18 0.02 M-9.36 25.03 C-6.59 18.52, -3.51 9.25, -0.47 -1.43" stroke="#000000" stroke-width="2" fill="none"></path></g></g><g transform="translate(28.542417781480566 207.2049271724536) rotate(0 70.50000000000001 25)"><text x="0" y="18" font-family="Virgil, Segoe UI Emoji" font-size="20px" fill="#000000" text-anchor="start" style="white-space: pre;" direction="ltr">Byte received</text><text x="0" y="43" font-family="Virgil, Segoe UI Emoji" font-size="20px" fill="#000000" text-anchor="start" style="white-space: pre;" direction="ltr">Timeout reset</text></g><g stroke-linecap="round"><g transform="translate(118.43514185362153 137.1909404084072) rotate(0 0.5779919234572333 26.88788454751466)"><path d="M0.53 1.11 C0.94 9.92, 1.72 43.42, 1.8 51.97 M-0.65 0.64 C-0.28 9.68, 1.06 44.32, 1.2 53.13" stroke="#000000" stroke-width="2" fill="none"></path></g><g transform="translate(118.43514185362153 137.1909404084072) rotate(0 0.5779919234572333 26.88788454751466)"><path d="M12.07 26.7 C6.85 19.42, 5.14 14.57, 0.37 1.07 M10.19 26.5 C7.93 17.27, 4.51 9.91, 0.56 1.36" stroke="#000000" stroke-width="2" fill="none"></path></g><g transform="translate(118.43514185362153 137.1909404084072) rotate(0 0.5779919234572333 26.88788454751466)"><path d="M-5.95 27.2 C-6.75 19.71, -4.04 14.75, 0.37 1.07 M-7.82 26.99 C-4.51 17.66, -2.37 10.15, 0.56 1.36" stroke="#000000" stroke-width="2" fill="none"></path></g></g><g stroke-linecap="round"><g transform="translate(154.50674450677354 165.81919648233634) rotate(0 242.39437642253694 0.2602202363309516)"><path d="M1.11 0.66 C81.87 0.55, 403.19 -0.12, 483.68 -0.14" stroke="#000000" stroke-width="2.5" fill="none" stroke-dasharray="1.5 8"></path></g></g><g stroke-linecap="round"><g transform="translate(860.4795392898931 131.46528919362026) rotate(0 0.2586317607301112 26.516507804658886)"><path d="M0.66 -0.71 C0.74 7.83, 0.83 43.49, 1.01 52.37 M-0.46 1.53 C-0.59 10.77, -0.29 45.02, -0.01 53.74" stroke="#000000" stroke-width="2" fill="none"></path></g><g transform="translate(860.4795392898931 131.46528919362026) rotate(0 0.2586317607301112 26.516507804658886)"><path d="M8.62 23.77 C5.91 16.47, 3.11 6.99, 0.84 -1.42 M10.42 23.26 C7.49 16.78, 4.82 10.77, 0.72 -1.13" stroke="#000000" stroke-width="2" fill="none"></path></g><g transform="translate(860.4795392898931 131.46528919362026) rotate(0 0.2586317607301112 26.516507804658886)"><path d="M-9.4 23.87 C-5.91 16.43, -2.49 6.92, 0.84 -1.42 M-7.6 23.36 C-5.59 16.69, -3.31 10.65, 0.72 -1.13" stroke="#000000" stroke-width="2" fill="none"></path></g></g><g transform="translate(799.7131463550294 203.80135984498338) rotate(0 65.5 25)"><text x="0" y="18" font-family="Virgil, Segoe UI Emoji" font-size="20px" fill="#000000" text-anchor="start" style="white-space: pre;" direction="ltr">Timeout end</text><text x="0" y="43" font-family="Virgil, Segoe UI Emoji" font-size="20px" fill="#000000" text-anchor="start" style="white-space: pre;" direction="ltr">End of frame</text></g><g stroke-linecap="round" transform="translate(686.6022766576015 10) rotate(0 28 31)"><path d="M-0.52 0.93 C19.71 0.03, 39.92 -0.65, 55.49 -0.06 M0.19 -0.52 C21.83 0.67, 43.67 -0.01, 56.59 -0.09 M57.65 -0.07 C54.23 20.44, 53.59 39.27, 56.91 61.76 M56.2 0.17 C57.44 17.69, 57.3 35.45, 55.89 62.48 M55.88 61.02 C33.95 59.62, 13.69 62.92, -0.43 63.1 M56.17 62.48 C37.64 62.54, 17.88 62.57, 0.32 61.63 M-0.28 61.33 C0.79 38.87, 0.6 15.43, -1.19 -1.88 M-0.27 62.01 C0.76 47.47, 0.49 30.82, 0.58 -0.04" stroke="#000000" stroke-width="1" fill="none"></path></g><g transform="translate(691.6022766576015 28.5) rotate(0 23 12.5)"><text x="23" y="18" font-family="Virgil, Segoe UI Emoji" font-size="20px" fill="#000000" text-anchor="middle" style="white-space: pre;" direction="ltr">Ack</text></g></svg>