<svg version="1.1" xmlns="http://www.w3.org/2000/svg" viewBox="0 0 1443.4395482674188 432.1698496509316" width="2886.8790965348376" height="864.3396993018632" filter="invert(93%) hue-rotate(180deg)">
  <!-- svg-source:excalidraw -->
  
  <defs>
    <style>
      @font-face {
        font-family: "Virgil";
        src: url("https://excalidraw.com/Virgil.woff2");
      }
      @font-face {
        font-family: "Cascadia";
        src: url("https://excalidraw.com/Cascadia.woff2");
      }
    </style>
  </defs>
  <g stroke-linecap="round" transform="translate(10.989963266835787 10.459328411329807) rotate(0 635.9373156655248 31)"><path d="M-0.16 -0.24 C331.3 -4.56, 663.86 -4.49, 1271.66 -0.02 M0.29 0.35 C302.2 2.32, 604.05 1.75, 1272.23 -0.05 M1272 -1.3 C1273.55 16.61, 1271.15 29.57, 1272.69 60.41 M1271.52 -0.71 C1272.82 22.43, 1271.34 44.94, 1271.32 61.21 M1272.26 61.99 C788.8 67.26, 304.73 67.15, -0.52 61.27 M1271.87 62.36 C975.52 61.44, 679.24 61.49, 0.16 62.02 M-0.85 63.27 C1.37 44.29, 0.93 31.74, -0.42 -1.62 M-0.33 62.47 C-0.26 45.81, 0.35 28.91, 0.29 0.53" stroke="#000000" stroke-width="1" fill="none"></path></g><g transform="translate(967.8663261793026 30.196545494748534) rotate(0 27 12.5)"><text x="0" y="18" font-family="Virgil, Segoe UI Emoji" font-size="20px" fill="#000000" text-anchor="start" style="white-space: pre;" direction="ltr">Data</text></g><g stroke-linecap="round"><g transform="translate(10.797755690291524 88.93694895038425) rotate(0 -0.0653436893716588 41.76548277619395)"><path d="M-0.8 -0.46 C1.83 32.01, 0.18 64.51, -0.11 84" stroke="#000000" stroke-width="4.5" fill="none" stroke-dasharray="1.5 10"></path></g></g><g stroke-linecap="round"><g transform="translate(113.85947755644031 84.35642797855508) rotate(0 0.5407940297343146 47.32797037196133)"><path d="M-0.46 1.55 C-0.22 25.73, 0.32 51.25, 1.55 93.1" stroke="#000000" stroke-width="4.5" fill="none" stroke-dasharray="1.5 10"></path></g></g><g stroke-linecap="round"><g transform="translate(226.08224136624676 80.92103724968365) rotate(0 0.8426349022504667 46.97533050879156)"><path d="M1.55 -0.27 C-0.28 25.05, -0.38 50.58, 1.49 94.22" stroke="#000000" stroke-width="4.5" fill="none" stroke-dasharray="1.5 10"></path></g></g><g transform="translate(32.55523030647851 152.08015425668873) rotate(0 26.5 12.5)"><text x="0" y="18" font-family="Virgil, Segoe UI Emoji" font-size="20px" fill="#000000" text-anchor="start" style="white-space: pre;" direction="ltr">8bits</text></g><g transform="translate(148.05138043317237 153.160675228517) rotate(0 26.5 12.5)"><text x="0" y="18" font-family="Virgil, Segoe UI Emoji" font-size="20px" fill="#000000" text-anchor="start" style="white-space: pre;" direction="ltr">8bits</text></g><g stroke-linecap="round"><g transform="translate(338.3050051760534 84.92899310003395) rotate(0 1.9490104297086646 46.478269520693175)"><path d="M-0.04 -1.25 C1.14 34.24, 3.07 71.82, 3.94 94.21" stroke="#000000" stroke-width="4.5" fill="none" stroke-dasharray="1.5 10"></path></g></g><g transform="translate(256.8387535141071 145.1447635278164) rotate(0 26.5 12.5)"><text x="0" y="18" font-family="Virgil, Segoe UI Emoji" font-size="20px" fill="#000000" text-anchor="start" style="white-space: pre;" direction="ltr">8bits</text></g><g stroke-linecap="round"><g transform="translate(379.52969392251276 137.03241915458693) rotate(0 448.7099873132592 -2.289005301512134)"><path d="M0.16 -0.32 C245.89 1.69, 491.26 0.32, 897.26 -5.14" stroke="#000000" stroke-width="4.5" fill="none" stroke-dasharray="1.5 10"></path></g><g transform="translate(379.52969392251276 137.03241915458693) rotate(0 448.7099873132592 -2.289005301512134)"><path d="M895.96 -6.96 L882.4 3.11 L883.37 -11.36 L899.06 -4.83" stroke="none" stroke-width="0" fill="#000000" fill-rule="evenodd"></path><path d="M897.56 -5.74 C894.65 -2.13, 891.1 -0.58, 884.91 0.31 M884.27 0.74 C883.78 -4.38, 884.54 -7.34, 882.97 -11.36 M883.66 -10.61 C887.67 -10.37, 894.23 -7.81, 896.42 -6.23 M897.26 -5.14 C897.26 -5.14, 897.26 -5.14, 897.26 -5.14" stroke="#000000" stroke-width="4.5" fill="none"></path></g></g><g stroke-linecap="round" transform="translate(831.8561398906102 246.9649224784789) rotate(0 105.9245474735418 87.60246358622635)"><path d="M-0.7 1.29 C64.63 1.08, 127.46 1, 210.62 1.55 M-0.43 0.06 C60.47 -0.15, 122.86 -1.21, 211.82 0.36 M212.79 -0.7 C211.63 40.5, 212.24 76.19, 210.4 174.09 M212.82 0.49 C213.23 39.05, 213.64 76.86, 212.1 174.56 M211.65 175.17 C169.17 177.11, 123.32 177.7, 0.23 175.89 M212.65 174.83 C148.02 175.49, 82.24 175.3, 0.62 175.02 M0.71 174.54 C1.6 135.4, 0.85 98.28, -1.05 0.58 M-0.66 175.1 C1.49 113.55, 1.33 51.69, -0.96 0.1" stroke="#000000" stroke-width="1" fill="none"></path></g><g transform="translate(887.9675217955134 311.25325802774023) rotate(0 54.5 25)"><text x="0" y="18" font-family="Virgil, Segoe UI Emoji" font-size="20px" fill="#000000" text-anchor="start" style="white-space: pre;" direction="ltr">   CRC</text><text x="0" y="43" font-family="Virgil, Segoe UI Emoji" font-size="20px" fill="#000000" text-anchor="start" style="white-space: pre;" direction="ltr">Calculation</text></g><g stroke-linecap="round"><g transform="translate(61.18348638040868 200.01458251723307) rotate(0 361.5263246726954 93.62521014522827)"><path d="M0.88 1.05 C9.59 15.4, -70.78 54.82, 52.52 85.61 C175.82 116.41, 625.97 169, 740.69 185.82 M-0.12 0.55 C8.5 14.61, -71.33 52.92, 52.09 83.95 C175.52 114.97, 626.1 169.43, 740.41 186.7" stroke="#000000" stroke-width="1" fill="none"></path></g><g transform="translate(61.18348638040868 200.01458251723307) rotate(0 361.5263246726954 93.62521014522827)"><path d="M739.16 187.84 L727.66 191.19 L729.03 177.17 L739.68 185.16" stroke="none" stroke-width="0" fill="#000000" fill-rule="evenodd"></path><path d="M741.72 187.94 C736.9 189.39, 730.18 190.97, 725.91 190.23 M739.93 187.23 C736.17 187.85, 730.58 190.05, 725.49 191.65 M725.19 192.31 C726.04 186.61, 726.15 182.8, 726.8 179.59 M726.08 191.32 C726.69 187.18, 727.08 183.68, 727.22 178.16 M729.15 178.81 C732.68 182.46, 737.76 185.46, 740.47 186.03 M728.27 179.06 C730.77 181.26, 735.59 183.11, 739.8 186.42 M740.41 186.7 C740.41 186.7, 740.41 186.7, 740.41 186.7 M740.41 186.7 C740.41 186.7, 740.41 186.7, 740.41 186.7" stroke="#000000" stroke-width="1" fill="none"></path></g></g><g stroke-linecap="round"><g transform="translate(172.26111994725795 196.57919178836164) rotate(0 299.23724914927544 71.75831102072925)"><path d="M1.05 0.99 C3.76 9.97, -89.28 31.08, 15.76 54.75 C120.8 78.43, 528.57 128.63, 631.27 143.05 M0.14 0.47 C2.81 9.04, -90.33 29.66, 15.27 53.12 C120.87 76.59, 530.92 126.45, 633.73 141.26" stroke="#000000" stroke-width="1" fill="none"></path></g><g transform="translate(172.26111994725795 196.57919178836164) rotate(0 299.23724914927544 71.75831102072925)"><path d="M634.87 142.84 L619.47 146.99 L619.68 132.46 L632.19 139.74" stroke="none" stroke-width="0" fill="#000000" fill-rule="evenodd"></path><path d="M634.97 142.35 C631.21 141.51, 627.64 143.55, 618.5 146.38 M634.26 141.93 C629.77 142.27, 626.85 142.83, 619.93 145.79 M620.58 145.24 C619.33 140.49, 619.91 136.05, 622.1 132.94 M619.6 146 C619.59 140.92, 620.27 135.19, 620.66 133.74 M621.32 133.19 C625.47 135.6, 628.98 137.8, 633.06 141.04 M621.57 132.48 C626.32 136.79, 630.79 138.82, 633.45 140.7 M633.73 141.26 C633.73 141.26, 633.73 141.26, 633.73 141.26 M633.73 141.26 C633.73 141.26, 633.73 141.26, 633.73 141.26" stroke="#000000" stroke-width="1" fill="none"></path></g></g><g stroke-linecap="round"><g transform="translate(289.06440472889324 194.28893130244705) rotate(0 236.08206430348935 46.497611442001016)"><path d="M0.99 0.87 C-0.34 4.18, -92.98 5.82, -7.08 20.92 C78.81 36.02, 429.42 79.6, 516.36 91.47 M0.05 0.28 C-1.43 4.25, -93.56 6.61, -7.54 22.02 C78.48 37.42, 429.15 81.41, 516.15 92.71" stroke="#000000" stroke-width="1" fill="none"></path></g><g transform="translate(289.06440472889324 194.28893130244705) rotate(0 236.08206430348935 46.497611442001016)"><path d="M517.73 92.76 L503.09 95.86 L502.74 83.16 L514.63 91.1" stroke="none" stroke-width="0" fill="#000000" fill-rule="evenodd"></path><path d="M517.24 93.88 C509.81 95.85, 505.35 95.31, 502.49 96.54 M516.82 92.34 C511.72 94.51, 506.77 96.12, 501.89 97.62 M501.35 96.56 C501.46 93.21, 501.81 91.6, 503.22 85.93 M502.11 96.83 C502.58 92.47, 502.41 88.07, 504.03 84.62 M503.48 85.43 C507.52 87.65, 511.16 88.78, 515.93 94.08 M502.77 85.01 C507.31 86.52, 509.44 88.46, 515.59 92.97 M516.15 92.71 C516.15 92.71, 516.15 92.71, 516.15 92.71 M516.15 92.71 C516.15 92.71, 516.15 92.71, 516.15 92.71" stroke="#000000" stroke-width="1" fill="none"></path></g></g><g stroke-linecap="round" transform="translate(1298.6792481928776 14.421999718009829) rotate(0 67.3801500372706 26.9920441496497)"><path d="M0.81 -1.59 C53.84 0.13, 105.89 -0.65, 133.35 1.84 M133.64 -1.57 C136.06 13.62, 136.4 29, 134.73 54.55 M133.46 52.16 C87.73 56.07, 43.17 54.28, 1.8 54.29 M0.78 54.06 C-1.16 37.47, 1.57 20.7, 1.27 1.27" stroke="#000000" stroke-width="1.5" fill="none" stroke-dasharray="1.5 7"></path></g><g stroke-linecap="round" transform="translate(1132.0627978426037 302.42225582174797) rotate(0 67.5 26.9920441496497)"><path d="M-1.59 1.37 C33.93 0.39, 66.99 -1.96, 136.84 -0.81 M-0.79 0.8 C32.7 1.73, 66.29 0.74, 135.28 0.39 M133.18 -1.34 C136.89 12.27, 135.1 26.79, 135.31 53.99 M135.04 -0.45 C134.92 19.74, 134.64 38.29, 135.64 53.05 M133.38 53.24 C87.31 54.41, 41.97 54.65, -1.46 54.18 M135.53 53.21 C95.52 53.72, 57.17 54.51, 0.18 53.96 M-1.46 54.11 C-0.73 38.01, 2.09 19.81, 1.23 -1.41 M-0.8 53.41 C1.01 39.5, -0.16 24.82, -0.23 -0.36" stroke="#000000" stroke-width="1" fill="none"></path></g><g transform="translate(1137.0627978426037 316.91429997139767) rotate(0 62.5 12.5)"><text x="62.5" y="18" font-family="Virgil, Segoe UI Emoji" font-size="20px" fill="#000000" text-anchor="middle" style="white-space: pre;" direction="ltr">CRC</text></g><g stroke-linecap="round"><g transform="translate(1065.4627094538807 346.5912536157557) rotate(0 24.230331978659592 -19.41190764453495)"><path d="M0.82 0.05 C8.28 0.9, 37.1 8.76, 45.22 4.16 C53.34 -0.44, 53.91 -19.28, 49.54 -27.52 C45.16 -35.77, 28.15 -43.7, 18.98 -45.34 C9.82 -46.97, -1.37 -38.92, -5.45 -37.31 M-0.21 -0.97 C7.09 0.14, 35.87 10.2, 44.57 5.48 C53.27 0.76, 56.25 -20.94, 51.99 -29.29 C47.72 -37.63, 28.26 -43.26, 18.97 -44.59 C9.69 -45.92, 0.21 -38.67, -3.72 -37.28" stroke="#000000" stroke-width="2" fill="none"></path></g><g transform="translate(1065.4627094538807 346.5912536157557) rotate(0 24.230331978659592 -19.41190764453495)"><path d="M-3.44 -36.37 L6.94 -50.4 L10.91 -36.24 L-3.37 -36.64" stroke="none" stroke-width="0" fill="#000000" fill-rule="evenodd"></path><path d="M-3.65 -36.57 C-0.98 -42.4, 4.1 -45.96, 4.75 -50.12 M-3.87 -36.55 C-0.99 -40.23, 1.13 -42.8, 5.08 -48.85 M6.71 -49.17 C6.8 -45.19, 8.36 -43.66, 11.9 -37.53 M5.5 -48.45 C7.26 -44.76, 9.86 -41.91, 11.54 -37.25 M10.15 -37.17 C6.59 -36.93, 1.81 -37.37, -3.9 -38.06 M10.81 -38.19 C6.27 -37.57, 1.55 -37.55, -3.59 -38 M-3.72 -37.28 C-3.72 -37.28, -3.72 -37.28, -3.72 -37.28 M-3.72 -37.28 C-3.72 -37.28, -3.72 -37.28, -3.72 -37.28" stroke="#000000" stroke-width="2" fill="none"></path></g></g><g stroke-linecap="round"><g transform="translate(1287.6179765875793 330.5594302143554) rotate(0 50.31965148324048 -123.25412578570831)"><path d="M0.05 0.56 C10.26 -6.97, 43.68 -10.6, 60.27 -44.36 C76.86 -78.13, 93.33 -168.24, 99.58 -202.03 C105.84 -235.81, 98.1 -239.55, 97.81 -247.07 M-1.38 -0.19 C8.71 -7.66, 42.31 -9.81, 59.1 -43.27 C75.9 -76.74, 92.97 -167.11, 99.4 -200.97 C105.83 -234.82, 97.66 -238.71, 97.7 -246.42" stroke="#000000" stroke-width="2" fill="none"></path></g><g transform="translate(1287.6179765875793 330.5594302143554) rotate(0 50.31965148324048 -123.25412578570831)"><path d="M98.61 -245.08 L105.55 -234.96 L96.01 -231.41 L98.33 -245.12" stroke="none" stroke-width="0" fill="#000000" fill-rule="evenodd"></path><path d="M98.4 -246.95 C98.75 -242.44, 101.24 -242.05, 105.83 -235.43 M98.43 -246.06 C99.82 -243.58, 102.17 -241.68, 107.1 -235.08 M106.78 -234.62 C105.46 -233.7, 101.74 -232.68, 94.72 -231.26 M107.5 -234.86 C103.55 -233.34, 98.8 -232.62, 95 -231.89 M95.09 -232.26 C96.01 -236.04, 96.13 -238.34, 96.91 -245.99 M94.07 -231.84 C95.88 -236.78, 96.87 -241.96, 96.98 -246.35 M97.7 -246.42 C97.7 -246.42, 97.7 -246.42, 97.7 -246.42 M97.7 -246.42 C97.7 -246.42, 97.7 -246.42, 97.7 -246.42" stroke="#000000" stroke-width="2" fill="none"></path></g></g><g stroke-linecap="round"><g transform="translate(210.48631525923702 16.438466726182014) rotate(0 0.09278144912792641 29.591784414527865)"><path d="M-0.25 -0.97 C-0.41 8.73, -0.56 49, -0.45 59.1 M1.82 1.13 C1.42 10.89, -1.31 50.23, -1.63 60.16" stroke="#000000" stroke-width="1" fill="none"></path></g></g><g stroke-linecap="round"><g transform="translate(73.78668034399561 13.097827123694515) rotate(0 0.6804676775225147 29.346702473424557)"><path d="M-0.97 -0.45 C-1.1 9.66, -0.17 50.25, 0.1 60.42 M0.72 -1.73 C0.89 8.04, 2.51 48.48, 2.33 58.52" stroke="#000000" stroke-width="1" fill="none"></path></g></g><g stroke-linecap="round"><g transform="translate(420.79970603353587 13.378040324523681) rotate(0 0.5341323350206721 31.509884006409266)"><path d="M-0.45 -0.9 C-0.34 9.69, 0.25 52.09, 0.42 62.6 M1.52 1.23 C1.53 12.08, -0.07 53.63, -0.3 63.92" stroke="#000000" stroke-width="1" fill="none"></path></g></g><g transform="translate(111.33626839209666 28.042460037365345) rotate(0 35 12.5)"><text x="0" y="18" font-family="Virgil, Segoe UI Emoji" font-size="20px" fill="#000000" text-anchor="start" style="white-space: pre;" direction="ltr">Target</text></g><g transform="translate(326.9385949224248 29.655818102301964) rotate(0 32 12.5)"><text x="0" y="18" font-family="Virgil, Segoe UI Emoji" font-size="20px" fill="#000000" text-anchor="start" style="white-space: pre;" direction="ltr">Source</text></g><g transform="translate(459.68859492242456 28.155818102301964) rotate(0 17 12.5)"><text x="0" y="18" font-family="Virgil, Segoe UI Emoji" font-size="20px" fill="#000000" text-anchor="start" style="white-space: pre;" direction="ltr">cmd</text></g><g stroke-linecap="round"><g transform="translate(668.5497060335356 10.878040324523681) rotate(0 -0.10256699460558139 31.71860339376144)"><path d="M0.57 -0.88 C0.52 9.66, 0.31 52.15, 0.12 62.85 M-0.59 1.28 C-0.83 12.04, -0.58 54.33, -0.77 64.32" stroke="#000000" stroke-width="1" fill="none"></path></g></g><g transform="translate(582.5497060335356 29.87804032452368) rotate(0 19.5 12.5)"><text x="0" y="18" font-family="Virgil, Segoe UI Emoji" font-size="20px" fill="#000000" text-anchor="start" style="white-space: pre;" direction="ltr">Size</text></g><g stroke-linecap="round"><g transform="translate(291.34206146213836 12.628040324523681) rotate(0 0.23399472193793258 31.039486716566444)"><path d="M0.12 -0.15 C-0.08 10.56, -0.72 52.98, -0.63 63.35 M-1.28 -1.27 C-1.14 9.14, 1.5 50.71, 1.75 61.41" stroke="#000000" stroke-width="1" fill="none"></path></g></g><g transform="translate(225.51652846006544 29.362933724109098) rotate(0 24.5 12.5)"><text x="0" y="18" font-family="Virgil, Segoe UI Emoji" font-size="20px" fill="#000000" text-anchor="start" style="white-space: pre;" direction="ltr">Mode</text></g><g transform="translate(22.09710674565332 31.158253525352848) rotate(0 16.5 12.5)"><text x="0" y="18" font-family="Virgil, Segoe UI Emoji" font-size="20px" fill="#000000" text-anchor="start" style="white-space: pre;" direction="ltr">Cfg</text></g><g stroke-linecap="round"><g transform="translate(528.0497060335354 13.128040324523681) rotate(0 0.18701823100445836 31.667028817087612)"><path d="M0.35 0.64 C0.22 11.12, -0.73 51.89, -0.92 62.26 M-0.93 -0.08 C-0.68 10.6, 0.87 52.71, 1.3 63.41" stroke="#000000" stroke-width="1" fill="none"></path></g></g></svg>