<svg version="1.1" xmlns="http://www.w3.org/2000/svg" viewBox="0 0 1739.6207354136775 225.8163565414343" width="3479.241470827355" height="451.6327130828686">
  <!-- svg-source:excalidraw -->
  
  <defs>
    <style>
      @font-face {
        font-family: "Virgil";
        src: url("https://excalidraw.com/Virgil.woff2");
      }
      @font-face {
        font-family: "Cascadia";
        src: url("https://excalidraw.com/Cascadia.woff2");
      }
    </style>
  </defs>
  <g stroke-linecap="round" transform="translate(11.73680508381591 42.03132222129716) rotate(0 703.5000000000001 31)"><path d="M0.38 -0.26 C475.08 -0.2, 949.07 0.4, 1407.52 -0.49 M-0.03 -0.04 C467.03 -3.41, 933.17 -3.43, 1406.91 -0.17 M1408.07 1.75 C1406.52 13.39, 1409.02 26.76, 1406.41 61.2 M1406.74 -0.02 C1406.86 17.36, 1407.08 35.05, 1407.87 62.83 M1407.7 61.9 C882.11 58.41, 357.81 58.12, -0.52 62.57 M1407.16 61.68 C859.41 61.82, 311.47 61.66, -0.28 62.37 M-1.12 60.43 C1.95 45.51, 2.29 30.79, -0.03 0.56 M-0.65 61.09 C-0.24 41.86, 0.31 19.94, 0.9 0.15" stroke="#000000" stroke-width="1" fill="none"></path></g><g stroke-linecap="round"><g transform="translate(216.42341430951785 45.09174862295549) rotate(0 0.06171139883770138 30.084029944986014)"><path d="M0.57 -0.39 C0.8 9.63, 0.72 49.93, 0.52 60.18 M-0.59 -1.64 C-0.4 8.59, 0.03 51.65, -0.15 61.81" stroke="#000000" stroke-width="1" fill="none"></path></g></g><g stroke-linecap="round"><g transform="translate(79.72377939427639 41.75110902046799) rotate(0 0.6102493234788682 30.202256957721147)"><path d="M-0.39 0.52 C-0.2 10.33, 0.77 49.38, 1.18 59.42 M1.61 -0.25 C1.64 9.66, 0.28 50.8, 0.32 60.65" stroke="#000000" stroke-width="1" fill="none"></path></g></g><g stroke-linecap="round"><g transform="translate(426.7368050838165 42.03132222129716) rotate(0 0.5827542082965351 31.648037534169816)"><path d="M0.52 0.18 C0.33 10.92, -0.62 53.72, -0.58 64.07 M-0.66 -0.78 C-0.5 9.69, 1.65 51.85, 1.83 62.51" stroke="#000000" stroke-width="1" fill="none"></path></g></g><g transform="translate(117.27336744237749 56.69574193413882) rotate(0 35 12.5)"><text x="0" y="18" font-family="Virgil, Segoe UI Emoji" font-size="20px" fill="#000000" text-anchor="start" style="white-space: pre;" direction="ltr">Target</text></g><g transform="translate(332.8756939727054 58.30909999907544) rotate(0 32 12.5)"><text x="0" y="18" font-family="Virgil, Segoe UI Emoji" font-size="20px" fill="#000000" text-anchor="start" style="white-space: pre;" direction="ltr">Source</text></g><g transform="translate(465.62569397270516 56.80909999907544) rotate(0 17 12.5)"><text x="0" y="18" font-family="Virgil, Segoe UI Emoji" font-size="20px" fill="#000000" text-anchor="start" style="white-space: pre;" direction="ltr">cmd</text></g><g stroke-linecap="round"><g transform="translate(674.4868050838165 39.53132222129716) rotate(0 0.20828637900848435 31.613773001543905)"><path d="M0.77 -0.73 C0.93 9.53, 0.4 52.01, 0.38 62.62 M-0.28 1.5 C-0.19 12.44, -0.46 53.51, -0.37 63.96" stroke="#000000" stroke-width="1" fill="none"></path></g></g><g transform="translate(588.4868050838165 58.53132222129716) rotate(0 19.5 12.5)"><text x="0" y="18" font-family="Virgil, Segoe UI Emoji" font-size="20px" fill="#000000" text-anchor="start" style="white-space: pre;" direction="ltr">Size</text></g><g stroke-linecap="round"><g transform="translate(1280.8688263279016 43.26853930471589) rotate(0 -0.10978608737980267 31.396645462363722)"><path d="M0.38 -0.38 C0.36 10.23, 0.75 52.17, 0.67 62.92 M-0.88 -1.62 C-1.06 9.25, 0.08 53.75, 0.07 64.42" stroke="#000000" stroke-width="1" fill="none"></path></g></g><g transform="translate(968.6131679962828 61.76853930471589) rotate(0 27 12.5)"><text x="0" y="18" font-family="Virgil, Segoe UI Emoji" font-size="20px" fill="#000000" text-anchor="start" style="white-space: pre;" direction="ltr">Data</text></g><g transform="translate(1328.5109046636353 65.71740763839261) rotate(0 19.5 12.5)"><text x="0" y="18" font-family="Virgil, Segoe UI Emoji" font-size="20px" fill="#000000" text-anchor="start" style="white-space: pre;" direction="ltr">CRC</text></g><g transform="translate(121.65803822068142 11.37985198451861) rotate(0 28.5 12.5)"><text x="0" y="18" font-family="Virgil, Segoe UI Emoji" font-size="20px" fill="#000000" text-anchor="start" style="white-space: pre;" direction="ltr">12bits</text></g><g transform="translate(454.1812495282607 12.213140403115176) rotate(0 26.5 12.5)"><text x="0" y="18" font-family="Virgil, Segoe UI Emoji" font-size="20px" fill="#000000" text-anchor="start" style="white-space: pre;" direction="ltr">8bits</text></g><g transform="translate(583.5549869019985 12.667685857661127) rotate(0 28 12.5)"><text x="0" y="18" font-family="Virgil, Segoe UI Emoji" font-size="20px" fill="#000000" text-anchor="start" style="white-space: pre;" direction="ltr">16bits</text></g><g transform="translate(918.6571750776445 13.826795556002253) rotate(0 93 12.5)"><text x="0" y="18" font-family="Virgil, Segoe UI Emoji" font-size="20px" fill="#000000" text-anchor="start" style="white-space: pre;" direction="ltr">N (Max 128 bytes)</text></g><g stroke-linecap="round"><g transform="translate(297.2791605124191 41.28132222129716) rotate(0 0.11477770702913404 31.44841632622274)"><path d="M-0.41 -0.88 C-0.64 9.67, -0.17 51.76, -0.27 62.5 M1.58 1.27 C1.07 12.06, -1.32 53.73, -1.35 63.78" stroke="#000000" stroke-width="1" fill="none"></path></g></g><g transform="translate(23.447548772064465 14.205519730802735) rotate(0 25.5 12.5)"><text x="0" y="18" font-family="Virgil, Segoe UI Emoji" font-size="20px" fill="#000000" text-anchor="start" style="white-space: pre;" direction="ltr">4bits</text></g><g transform="translate(231.4536275103464 58.016215620882576) rotate(0 24.5 12.5)"><text x="0" y="18" font-family="Virgil, Segoe UI Emoji" font-size="20px" fill="#000000" text-anchor="start" style="white-space: pre;" direction="ltr">Mode</text></g><g transform="translate(28.0342057959341 59.811535422126326) rotate(0 16.5 12.5)"><text x="0" y="18" font-family="Virgil, Segoe UI Emoji" font-size="20px" fill="#000000" text-anchor="start" style="white-space: pre;" direction="ltr">Cfg</text></g><g stroke-linecap="round"><g transform="translate(533.9868050838161 41.78132222129716) rotate(0 -0.12144338743462413 31.743141018329425)"><path d="M-0.97 0.58 C-0.81 11.27, 0.35 53.32, 0.68 63.64 M0.72 -0.16 C0.8 10.23, 0.07 51.23, 0.09 61.86" stroke="#000000" stroke-width="1" fill="none"></path></g></g><g stroke-linecap="round"><g transform="translate(10.558233655244123 120.6251541357833) rotate(0 329.87077478888875 21.296184967286536)"><path d="M1.14 1.07 C1.41 10, -0.54 23.28, -0.41 41.13 M-0.13 -0.26 C-0.12 10.22, 0.1 21.3, 0.73 42.59 M-0.56 42.42 C251.76 39.18, 504.04 39.28, 658.35 41.2 M-0.01 41.88 C243.83 43.29, 488.32 43.2, 658.16 41.43 M656.85 40.6 C657.29 28.04, 658.87 13.11, 660.3 2.71 M658.55 41.07 C657.58 28.26, 659.7 16.03, 659.31 3.64" stroke="#364fc7" stroke-width="4" fill="none"></path></g></g><g stroke-linecap="round"><g transform="translate(688.8580787226783 125.20195825388055) rotate(0 296.4880570521956 19.09563303230152)"><path d="M1.07 1.75 C-0.61 7.86, 1.9 15.7, -0.59 35.97 M-0.26 -0.02 C-0.34 10.38, -0.11 21.08, 0.87 37.59 M0.7 36.67 C220.05 38.75, 440.7 38.47, 591.21 37.33 M0.16 36.45 C230.68 36.87, 461.01 36.71, 591.45 37.14 M590.61 35.19 C593.75 27.93, 594.34 20.84, 592.62 4.76 M591.08 35.86 C591.6 26.6, 592.47 14.66, 593.55 4.36" stroke="#c92a2a" stroke-width="4" fill="none"></path></g></g><g transform="translate(266.14535778723933 125.91469325454545) rotate(0 61.5 12.5)"><text x="0" y="18" font-family="Virgil, Segoe UI Emoji" font-size="20px" fill="#364fc7" text-anchor="start" style="white-space: pre;" direction="ltr">Luos Header</text></g><g transform="translate(952.3678485026933 124.74404680817588) rotate(0 55 12.5)"><text x="0" y="18" font-family="Virgil, Segoe UI Emoji" font-size="20px" fill="#c92a2a" text-anchor="start" style="white-space: pre;" direction="ltr">Luos Data</text></g><g stroke-linecap="round"><g transform="translate(1293.8294275239214 125.71567887646324) rotate(0 61.40037122358933 19.207363354122663)"><path d="M-0.2 1.72 C-0.09 12.44, -0.48 25.6, 1.55 36.6 M0.2 -0.4 C0.72 10.96, 0.82 20.9, 0.78 36.17 M0.83 35.89 C47.5 36.32, 96.16 39.4, 121.14 36.8 M0.04 37.34 C41.25 35.33, 84.12 35.63, 121.56 36.14 M121.73 38.81 C123.4 28.86, 123.04 21.7, 120.95 4.71 M123 36.76 C122.45 30.09, 122.67 21.51, 122.8 4.34" stroke="#2b8a3e" stroke-width="4" fill="none"></path></g></g><g transform="translate(1302.6393718772063 129.93891217762848) rotate(0 53.5 12.5)"><text x="0" y="18" font-family="Virgil, Segoe UI Emoji" font-size="20px" fill="#2b8a3e" text-anchor="start" style="white-space: pre;" direction="ltr">Robus CRC</text></g><g transform="translate(233.2840142173635 11.290260485914587) rotate(0 25.5 12.5)"><text x="0" y="18" font-family="Virgil, Segoe UI Emoji" font-size="20px" fill="#000000" text-anchor="start" style="white-space: pre;" direction="ltr">4bits</text></g><g transform="translate(331.05547559759776 10) rotate(0 28.5 12.5)"><text x="0" y="18" font-family="Virgil, Segoe UI Emoji" font-size="20px" fill="#000000" text-anchor="start" style="white-space: pre;" direction="ltr">12bits</text></g><g transform="translate(1325.5285264844551 12.145130242956839) rotate(0 28 12.5)"><text x="0" y="18" font-family="Virgil, Segoe UI Emoji" font-size="20px" fill="#000000" text-anchor="start" style="white-space: pre;" direction="ltr">16bits</text></g><g stroke-linecap="round"><g transform="translate(21.291094459643602 213.4287269189217) rotate(0 853.9151017636292 0.31376272017314477)"><path d="M-0.5 0.46 C529.4 -0.78, 1058.03 -1.71, 1707.89 -1.76 M0.24 -0.1 C382.62 3.38, 765.6 3.27, 1708.33 -0.8" stroke="#000000" stroke-width="2" fill="none"></path></g><g transform="translate(21.291094459643602 213.4287269189217) rotate(0 853.9151017636292 0.31376272017314477)"><path d="M1706.58 0.38 L1696.62 4.01 L1694.86 -9.05 L1707.2 0.19" stroke="none" stroke-width="0" fill="#000000" fill-rule="evenodd"></path><path d="M1707.39 0.06 C1705.26 1.22, 1700.81 2.11, 1694.21 4.44 M1708.78 -0.99 C1704.81 0.02, 1702.02 1.72, 1695.04 6.24 M1693.89 5.35 C1695.61 1.83, 1695.07 -1.54, 1693.47 -5.85 M1695.02 5.12 C1694.77 2.96, 1694.85 0.44, 1694.5 -6.56 M1694.86 -8.19 C1700.11 -4.01, 1703.69 -2.16, 1709.36 -0.38 M1695.3 -7.24 C1699.43 -5.38, 1703.79 -2.6, 1708.93 -0.19 M1708.33 -0.8 C1708.33 -0.8, 1708.33 -0.8, 1708.33 -0.8 M1708.33 -0.8 C1708.33 -0.8, 1708.33 -0.8, 1708.33 -0.8" stroke="#000000" stroke-width="2" fill="none"></path></g></g><g stroke-linecap="round"><g transform="translate(21.29109445964349 213.42872691892262) rotate(0 27.00829137701099 0.7904144851863748)"><path d="M-0.75 0.68 C8.52 0.68, 45.55 0.28, 54.77 0.03 M1.06 0 C10.33 0.19, 45.46 1.58, 54.31 1.58" stroke="#000000" stroke-width="1" fill="none"></path></g><g transform="translate(21.29109445964349 213.42872691892262) rotate(0 27.00829137701099 0.7904144851863748)"><path d="M-0.04 -13.13 C-0.81 -9.99, -1.88 -8.06, -1.9 -0.45 M-1.09 -14.75 C-1.48 -11.19, -1.19 -7.45, -0.1 0.79" stroke="#000000" stroke-width="1" fill="none"></path></g><g transform="translate(21.29109445964349 213.42872691892262) rotate(0 27.00829137701099 0.7904144851863748)"><path d="M0.25 16.86 C-0.61 13.21, -1.74 8.33, -1.9 -0.45 M-0.79 15.25 C-1.08 12.22, -0.85 9.38, -0.1 0.79" stroke="#000000" stroke-width="1" fill="none"></path></g><g transform="translate(21.29109445964349 213.42872691892262) rotate(0 27.00829137701099 0.7904144851863748)"><path d="M54.83 17.76 C54.08 14.11, 53.06 9.23, 53.16 0.45 M53.78 16.15 C53.6 13.11, 53.94 10.27, 54.96 1.69" stroke="#000000" stroke-width="1" fill="none"></path></g><g transform="translate(21.29109445964349 213.42872691892262) rotate(0 27.00829137701099 0.7904144851863748)"><path d="M55.51 -12.23 C54.62 -9.09, 53.45 -7.16, 53.16 0.45 M54.46 -13.84 C53.96 -10.29, 54.15 -6.55, 54.96 1.69" stroke="#000000" stroke-width="1" fill="none"></path></g></g><g stroke-linecap="round"><g transform="translate(130.65103266205688 213.42872691892262) rotate(0 26.717582056601785 0.029212949327757087)"><path d="M0.68 0.94 C9.65 1.19, 45.14 0.97, 53.85 0.74 M-0.42 0.39 C8.38 0.37, 43.61 -1.04, 52.92 -0.99" stroke="#000000" stroke-width="1" fill="none"></path></g><g transform="translate(130.65103266205688 213.42872691892262) rotate(0 26.717582056601785 0.029212949327757087)"><path d="M1.86 -14.02 C1.51 -10.51, 0.04 -6.01, -0.45 -0.26 M0.25 -14.59 C0.6 -10.69, 1.05 -6.13, 0.79 1.28" stroke="#000000" stroke-width="1" fill="none"></path></g><g transform="translate(130.65103266205688 213.42872691892262) rotate(0 26.717582056601785 0.029212949327757087)"><path d="M1.87 15.98 C1.71 10.29, 0.23 5.6, -0.45 -0.26 M0.26 15.41 C0.43 12.04, 0.88 9.31, 0.79 1.28" stroke="#000000" stroke-width="1" fill="none"></path></g><g transform="translate(130.65103266205688 213.42872691892262) rotate(0 26.717582056601785 0.029212949327757087)"><path d="M54.4 14.04 C54.14 8.35, 52.58 3.66, 51.78 -2.2 M52.78 13.47 C52.88 10.09, 53.26 7.37, 53.02 -0.65" stroke="#000000" stroke-width="1" fill="none"></path></g><g transform="translate(130.65103266205688 213.42872691892262) rotate(0 26.717582056601785 0.029212949327757087)"><path d="M53.8 -15.95 C53.54 -12.45, 52.16 -7.95, 51.78 -2.2 M52.19 -16.53 C52.61 -12.62, 53.14 -8.07, 53.02 -0.65" stroke="#000000" stroke-width="1" fill="none"></path></g></g><g stroke-linecap="round"><g transform="translate(245.16405695777775 213.42872691892262) rotate(0 27.27123953714525 -0.38444765856138474)"><path d="M0.94 0.03 C10.16 -0.22, 45.82 -0.69, 54.56 -0.84 M-0.02 -1 C9.17 -1.18, 45.27 0.1, 54 0.25" stroke="#000000" stroke-width="1" fill="none"></path></g><g transform="translate(245.16405695777775 213.42872691892262) rotate(0 27.27123953714525 -0.38444765856138474)"><path d="M0.73 -14.04 C-0.22 -11.95, -0.25 -8.98, -0.26 -0.83 M0.16 -15.14 C0.48 -9.29, 1.48 -4.07, 1.28 0.53" stroke="#000000" stroke-width="1" fill="none"></path></g><g transform="translate(245.16405695777775 213.42872691892262) rotate(0 27.27123953714525 -0.38444765856138474)"><path d="M1.23 15.95 C-0.01 10.92, -0.16 6.77, -0.26 -0.83 M0.66 14.86 C0.87 9.91, 1.7 4.34, 1.28 0.53" stroke="#000000" stroke-width="1" fill="none"></path></g><g transform="translate(245.16405695777775 213.42872691892262) rotate(0 27.27123953714525 -0.38444765856138474)"><path d="M53.64 16.17 C52.55 11.13, 52.55 6.98, 52.79 -0.61 M53.06 15.07 C53.51 10.13, 54.57 4.56, 54.34 0.75" stroke="#000000" stroke-width="1" fill="none"></path></g><g transform="translate(245.16405695777775 213.42872691892262) rotate(0 27.27123953714525 -0.38444765856138474)"><path d="M54.44 -13.82 C53.34 -11.73, 53.15 -8.76, 52.79 -0.61 M53.87 -14.92 C53.95 -9.07, 54.72 -3.86, 54.34 0.75" stroke="#000000" stroke-width="1" fill="none"></path></g></g><g stroke-linecap="round"><g transform="translate(363.1124719823703 209.9933361900512) rotate(0 26.915650651878906 0.2167480950015488)"><path d="M0.03 0.74 C8.75 0.51, 44.16 -0.16, 52.98 -0.44 M-1.41 0.08 C7.62 -0.06, 45.79 0.9, 55.24 0.87" stroke="#000000" stroke-width="1" fill="none"></path></g><g transform="translate(363.1124719823703 209.9933361900512) rotate(0 26.915650651878906 0.2167480950015488)"><path d="M0.63 -15.31 C-0.61 -10.06, -1.08 -4.76, -0.83 1.64 M-0.46 -14.53 C-0.01 -9.49, -0.1 -5.68, 0.53 0.23" stroke="#000000" stroke-width="1" fill="none"></path></g><g transform="translate(363.1124719823703 209.9933361900512) rotate(0 26.915650651878906 0.2167480950015488)"><path d="M1.28 14.68 C-0.43 9.23, -1.13 3.82, -0.83 1.64 M0.18 15.47 C0.63 12.26, 0.37 7.84, 0.53 0.23" stroke="#000000" stroke-width="1" fill="none"></path></g><g transform="translate(363.1124719823703 209.9933361900512) rotate(0 26.915650651878906 0.2167480950015488)"><path d="M55.98 14.81 C54.46 9.36, 53.93 3.95, 54.38 1.77 M54.88 15.6 C55.47 12.4, 55.35 7.98, 55.75 0.36" stroke="#000000" stroke-width="1" fill="none"></path></g><g transform="translate(363.1124719823703 209.9933361900512) rotate(0 26.915650651878906 0.2167480950015488)"><path d="M56.36 -15.18 C54.94 -9.93, 54.28 -4.63, 54.38 1.77 M55.26 -14.4 C55.58 -9.36, 55.35 -5.55, 55.75 0.36" stroke="#000000" stroke-width="1" fill="none"></path></g></g><g stroke-linecap="round"><g transform="translate(478.7706265210484 208.84820594709345) rotate(0 26.5265069642619 0.19485497995447076)"><path d="M0.74 -0.84 C9.48 -1, 44.69 -0.9, 53.38 -0.92 M-0.33 1.33 C8.13 1.29, 42.93 0.38, 52.21 0.13" stroke="#000000" stroke-width="1" fill="none"></path></g><g transform="translate(478.7706265210484 208.84820594709345) rotate(0 26.5265069642619 0.19485497995447076)"><path d="M-0.35 -16.39 C-0.43 -11.3, -0.47 -5.34, 1.64 -1.23 M0.44 -15.56 C1.26 -12.1, 0.96 -8.07, 0.23 -0.98" stroke="#000000" stroke-width="1" fill="none"></path></g><g transform="translate(478.7706265210484 208.84820594709345) rotate(0 26.5265069642619 0.19485497995447076)"><path d="M-0.28 13.61 C-0.4 7.34, -0.46 1.93, 1.64 -1.23 M0.5 14.44 C1.52 10.62, 1.2 7.38, 0.23 -0.98" stroke="#000000" stroke-width="1" fill="none"></path></g><g transform="translate(478.7706265210484 208.84820594709345) rotate(0 26.5265069642619 0.19485497995447076)"><path d="M51.54 14.58 C51.29 8.31, 51.09 2.91, 53.1 -0.25 M52.33 15.41 C53.26 11.59, 52.85 8.36, 51.69 -0.01" stroke="#000000" stroke-width="1" fill="none"></path></g><g transform="translate(478.7706265210484 208.84820594709345) rotate(0 26.5265069642619 0.19485497995447076)"><path d="M50.76 -15.41 C50.81 -10.33, 50.91 -4.37, 53.1 -0.25 M51.55 -14.58 C52.45 -11.12, 52.24 -7.09, 51.69 -0.01" stroke="#000000" stroke-width="1" fill="none"></path></g></g><g stroke-linecap="round"><g transform="translate(594.4287810597264 209.9933361900512) rotate(0 27.14066731043647 -0.7910321275394381)"><path d="M-0.84 -0.44 C7.97 -0.71, 43.95 -0.87, 52.9 -0.91 M0.91 -1.71 C10.09 -1.93, 46.07 -0.18, 55.13 0.15" stroke="#000000" stroke-width="1" fill="none"></path></g><g transform="translate(594.4287810597264 209.9933361900512) rotate(0 27.14066731043647 -0.7910321275394381)"><path d="M-1.54 -16.59 C-2 -12.11, -1.67 -5.46, -1.23 -1.3 M-0.72 -14.79 C-0.89 -11.67, -0.46 -9.09, -0.98 0.11" stroke="#000000" stroke-width="1" fill="none"></path></g><g transform="translate(594.4287810597264 209.9933361900512) rotate(0 27.14066731043647 -0.7910321275394381)"><path d="M-1.24 13.41 C-1.97 8.82, -1.74 6.38, -1.23 -1.3 M-0.41 15.21 C-0.59 11.47, -0.22 7.19, -0.98 0.11" stroke="#000000" stroke-width="1" fill="none"></path></g><g transform="translate(594.4287810597264 209.9933361900512) rotate(0 27.14066731043647 -0.7910321275394381)"><path d="M53.95 13.98 C53.46 9.4, 53.92 6.97, 54.74 -0.71 M54.78 15.78 C54.78 12.05, 55.32 7.77, 54.99 0.69" stroke="#000000" stroke-width="1" fill="none"></path></g><g transform="translate(594.4287810597264 209.9933361900512) rotate(0 27.14066731043647 -0.7910321275394381)"><path d="M55.21 -15.99 C54.52 -11.52, 54.61 -4.88, 54.74 -0.71 M56.04 -14.19 C55.68 -11.07, 55.94 -8.5, 54.99 0.69" stroke="#000000" stroke-width="1" fill="none"></path></g></g><g stroke-linecap="round"><g transform="translate(703.2161541406613 209.9933361900503) rotate(0 27.353559427704 0.0743363204464913)"><path d="M-0.44 -0.92 C8.26 -0.94, 43.98 -1.24, 52.91 -0.97 M1.53 1.21 C10.54 1.38, 46.73 0.47, 55.14 0.06" stroke="#000000" stroke-width="1" fill="none"></path></g><g transform="translate(703.2161541406613 209.9933361900503) rotate(0 27.353559427704 0.0743363204464913)"><path d="M-1.65 -17.06 C-1.79 -11.36, 0.34 -5.45, -1.3 -1.99 M0.15 -15.82 C-0.19 -11.26, -1.03 -7.75, 0.11 -0.79" stroke="#000000" stroke-width="1" fill="none"></path></g><g transform="translate(703.2161541406613 209.9933361900503) rotate(0 27.353559427704 0.0743363204464913)"><path d="M-1.53 12.94 C-1.5 7.79, 0.58 2.85, -1.3 -1.99 M0.27 14.18 C0 10.42, -0.87 5.62, 0.11 -0.79" stroke="#000000" stroke-width="1" fill="none"></path></g><g transform="translate(703.2161541406613 209.9933361900503) rotate(0 27.353559427704 0.0743363204464913)"><path d="M54.5 13.92 C54.37 8.77, 56.29 3.83, 54.28 -1 M56.3 15.16 C55.91 11.41, 54.91 6.61, 55.69 0.19" stroke="#000000" stroke-width="1" fill="none"></path></g><g transform="translate(703.2161541406613 209.9933361900503) rotate(0 27.353559427704 0.0743363204464913)"><path d="M53.48 -16.06 C53.51 -10.36, 55.79 -4.46, 54.28 -1 M55.28 -14.82 C55.06 -10.27, 54.35 -6.76, 55.69 0.19" stroke="#000000" stroke-width="1" fill="none"></path></g></g><g stroke-linecap="round"><g transform="translate(817.7291784363822 209.9933361900503) rotate(0 27.06895204596708 0.16238071140969623)"><path d="M-0.92 -0.91 C8.03 -0.95, 43.61 -0.79, 52.86 -0.69 M0.79 1.23 C10.19 1.37, 46.17 0.55, 55.06 0.49" stroke="#000000" stroke-width="1" fill="none"></path></g><g transform="translate(817.7291784363822 209.9933361900503) rotate(0 27.06895204596708 0.16238071140969623)"><path d="M-2.01 -17.12 C-1.8 -11.57, -1.33 -9.89, -1.99 -1.25 M-0.77 -15.57 C-0.33 -12.46, -0.98 -7.44, -0.79 -0.67" stroke="#000000" stroke-width="1" fill="none"></path></g><g transform="translate(817.7291784363822 209.9933361900503) rotate(0 27.06895204596708 0.16238071140969623)"><path d="M-2.11 12.88 C-1.76 11.54, -1.27 6.34, -1.99 -1.25 M-0.86 14.43 C-0.51 9.61, -1.14 6.71, -0.79 -0.67" stroke="#000000" stroke-width="1" fill="none"></path></g><g transform="translate(817.7291784363822 209.9933361900503) rotate(0 27.06895204596708 0.16238071140969623)"><path d="M54.15 14.28 C54.43 12.94, 54.86 7.73, 53.99 0.15 M55.4 15.83 C55.68 11.01, 54.97 8.11, 55.19 0.72" stroke="#000000" stroke-width="1" fill="none"></path></g><g transform="translate(817.7291784363822 209.9933361900503) rotate(0 27.06895204596708 0.16238071140969623)"><path d="M53.69 -15.72 C53.97 -10.17, 54.5 -8.49, 53.99 0.15 M54.93 -14.17 C55.45 -11.07, 54.87 -6.05, 55.19 0.72" stroke="#000000" stroke-width="1" fill="none"></path></g></g><g stroke-linecap="round"><g transform="translate(926.5165515173171 209.9933361900503) rotate(0 27.286028226013514 0.05621085422899341)"><path d="M-0.91 -0.97 C8.02 -0.69, 44.06 0.67, 53.13 0.72 M0.81 1.14 C10.17 1.15, 46.85 -0.88, 55.48 -1.03" stroke="#000000" stroke-width="1" fill="none"></path></g><g transform="translate(926.5165515173171 209.9933361900503) rotate(0 27.286028226013514 0.05621085422899341)"><path d="M-1.61 -16.82 C0.24 -12.39, -1.65 -9.13, -1.25 -1.51 M-0.06 -15.45 C-0.96 -11.04, -0.07 -5.71, -0.67 -0.48" stroke="#000000" stroke-width="1" fill="none"></path></g><g transform="translate(926.5165515173171 209.9933361900503) rotate(0 27.286028226013514 0.05621085422899341)"><path d="M-2.62 13.16 C-0.27 9.7, -1.9 5.06, -1.25 -1.51 M-1.08 14.53 C-1.89 8.83, -0.66 4.04, -0.67 -0.48" stroke="#000000" stroke-width="1" fill="none"></path></g><g transform="translate(926.5165515173171 209.9933361900503) rotate(0 27.286028226013514 0.05621085422899341)"><path d="M54.86 13.1 C56.92 9.62, 55.01 4.99, 55.14 -1.57 M56.4 14.46 C55.22 8.76, 56.09 3.97, 55.72 -0.54" stroke="#000000" stroke-width="1" fill="none"></path></g><g transform="translate(926.5165515173171 209.9933361900503) rotate(0 27.286028226013514 0.05621085422899341)"><path d="M53.7 -16.88 C55.84 -12.45, 54.23 -9.18, 55.14 -1.57 M55.24 -15.51 C54.71 -11.1, 55.97 -5.77, 55.72 -0.54" stroke="#000000" stroke-width="1" fill="none"></path></g></g><g stroke-linecap="round"><g transform="translate(1037.5941850841657 209.9933361900512) rotate(0 26.786152737471525 0.49355851005202567)"><path d="M-0.97 -0.69 C8.28 -0.59, 45.52 -0.28, 54.54 -0.31 M0.73 1.56 C9.96 1.92, 45.42 1.33, 53.97 1.07" stroke="#000000" stroke-width="1" fill="none"></path></g><g transform="translate(1037.5941850841657 209.9933361900512) rotate(0 26.786152737471525 0.49355851005202567)"><path d="M-1.71 -14.79 C-1.37 -13.21, -2.08 -9.34, -1.51 -0.13 M-0.34 -16.2 C-1.01 -9.35, -0.79 -3.86, -0.48 -1.42" stroke="#000000" stroke-width="1" fill="none"></path></g><g transform="translate(1037.5941850841657 209.9933361900512) rotate(0 26.786152737471525 0.49355851005202567)"><path d="M-1.95 15.21 C-1.33 10.1, -1.99 7.28, -1.51 -0.13 M-0.58 13.8 C-1.2 9.06, -0.88 2.96, -0.48 -1.42" stroke="#000000" stroke-width="1" fill="none"></path></g><g transform="translate(1037.5941850841657 209.9933361900512) rotate(0 26.786152737471525 0.49355851005202567)"><path d="M53.42 16.96 C53.95 11.86, 53.19 9.03, 53.43 1.63 M54.79 15.55 C54 10.82, 54.15 4.72, 54.45 0.34" stroke="#000000" stroke-width="1" fill="none"></path></g><g transform="translate(1037.5941850841657 209.9933361900512) rotate(0 26.786152737471525 0.49355851005202567)"><path d="M52.79 -13.03 C53.22 -11.44, 52.61 -7.57, 53.43 1.63 M54.15 -14.44 C53.65 -7.59, 54.04 -2.1, 54.45 0.34" stroke="#000000" stroke-width="1" fill="none"></path></g></g><g stroke-linecap="round"><g transform="translate(1147.5266884080568 211.13846643300803) rotate(0 26.41334319252087 0.013836332687787944)"><path d="M-0.69 0.72 C8.38 0.76, 44.57 -0.53, 53.52 -0.69 M1.15 0.05 C10.12 0.32, 43.36 0.34, 52.41 0.48" stroke="#000000" stroke-width="1" fill="none"></path></g><g transform="translate(1147.5266884080568 211.13846643300803) rotate(0 26.41334319252087 0.013836332687787944)"><path d="M-0.17 -14.66 C-1.97 -11.98, -1.36 -8.09, -0.13 2.01 M-1.58 -14.42 C-0.34 -9.44, -0.52 -4.38, -1.42 1.45" stroke="#000000" stroke-width="1" fill="none"></path></g><g transform="translate(1147.5266884080568 211.13846643300803) rotate(0 26.41334319252087 0.013836332687787944)"><path d="M0.59 15.33 C-1.14 11.28, -0.7 8.45, -0.13 2.01 M-0.82 15.57 C0.05 11.14, -0.38 6.79, -1.42 1.45" stroke="#000000" stroke-width="1" fill="none"></path></g><g transform="translate(1147.5266884080568 211.13846643300803) rotate(0 26.41334319252087 0.013836332687787944)"><path d="M53.19 15.1 C51.57 11.05, 52.12 8.22, 52.97 1.78 M51.78 15.34 C52.8 10.91, 52.53 6.56, 51.67 1.22" stroke="#000000" stroke-width="1" fill="none"></path></g><g transform="translate(1147.5266884080568 211.13846643300803) rotate(0 26.41334319252087 0.013836332687787944)"><path d="M53.42 -14.9 C51.51 -12.22, 52.01 -8.33, 52.97 1.78 M52.01 -14.65 C53.1 -9.68, 52.76 -4.61, 51.67 1.22" stroke="#000000" stroke-width="1" fill="none"></path></g></g><g stroke-linecap="round"><g transform="translate(1255.1689312460337 211.13846643300803) rotate(0 27.557156817144914 -0.639287600386524)"><path d="M0.72 -0.31 C9.73 -0.33, 44.33 -0.83, 53.13 -0.86 M-0.37 -1.51 C9.13 -1.35, 46.65 -0.13, 55.48 0.23" stroke="#000000" stroke-width="1" fill="none"></path></g><g transform="translate(1255.1689312460337 211.13846643300803) rotate(0 27.557156817144914 -0.639287600386524)"><path d="M0.17 -16.17 C-0.57 -12.35, 0 -8.16, 2.01 -0.1 M0.41 -14.76 C0.84 -9.89, 1.25 -5.68, 1.45 -1.01" stroke="#000000" stroke-width="1" fill="none"></path></g><g transform="translate(1255.1689312460337 211.13846643300803) rotate(0 27.557156817144914 -0.639287600386524)"><path d="M0.5 13.83 C-0.14 11.06, 0.36 8.67, 2.01 -0.1 M0.74 15.24 C0.85 9.75, 1.16 3.6, 1.45 -1.01" stroke="#000000" stroke-width="1" fill="none"></path></g><g transform="translate(1255.1689312460337 211.13846643300803) rotate(0 27.557156817144914 -0.639287600386524)"><path d="M54.56 14.36 C54.08 11.59, 54.73 9.2, 56.78 0.44 M54.81 15.77 C55.16 10.29, 55.7 4.14, 56.21 -0.47" stroke="#000000" stroke-width="1" fill="none"></path></g><g transform="translate(1255.1689312460337 211.13846643300803) rotate(0 27.557156817144914 -0.639287600386524)"><path d="M55.63 -15.62 C54.74 -11.81, 55.16 -7.61, 56.78 0.44 M55.88 -14.21 C56.06 -9.35, 56.23 -5.14, 56.21 -0.47" stroke="#000000" stroke-width="1" fill="none"></path></g></g><g stroke-linecap="round"><g transform="translate(1366.944293569355 210.38729917140608) rotate(0 27.461556857521828 0.4157366251888561)"><path d="M-0.31 -0.69 C8.64 -0.86, 44.02 -0.46, 52.97 -0.27 M1.73 1.56 C11.11 1.51, 46.78 1.66, 55.23 1.12" stroke="#000000" stroke-width="1" fill="none"></path></g><g transform="translate(1366.944293569355 210.38729917140608) rotate(0 27.461556857521828 0.4157366251888561)"><path d="M-1.09 -16.76 C-0.5 -12.59, 0.39 -7.12, -0.1 -0.01 M0.32 -15.56 C-0.12 -9.7, -1.12 -3.94, -1.01 -1.26" stroke="#000000" stroke-width="1" fill="none"></path></g><g transform="translate(1366.944293569355 210.38729917140608) rotate(0 27.461556857521828 0.4157366251888561)"><path d="M-1.25 13.24 C-0.8 10.13, 0.13 8.33, -0.1 -0.01 M0.16 14.44 C-0.02 9.29, -0.96 4.03, -1.01 -1.26" stroke="#000000" stroke-width="1" fill="none"></path></g><g transform="translate(1366.944293569355 210.38729917140608) rotate(0 27.461556857521828 0.4157366251888561)"><path d="M54.72 15.05 C55.07 11.94, 55.89 10.13, 55.44 1.8 M56.13 16.25 C55.8 11.1, 54.69 5.84, 54.52 0.55" stroke="#000000" stroke-width="1" fill="none"></path></g><g transform="translate(1366.944293569355 210.38729917140608) rotate(0 27.461556857521828 0.4157366251888561)"><path d="M54.01 -14.94 C54.71 -10.78, 55.7 -5.3, 55.44 1.8 M55.42 -13.75 C55.14 -7.88, 54.3 -2.13, 54.52 0.55" stroke="#000000" stroke-width="1" fill="none"></path></g></g><g stroke-linecap="round"><g transform="translate(1483.7124636538463 211.84690129746286) rotate(0 26.42866799149226 0.2537491660068554)"><path d="M-0.69 -0.86 C8.11 -0.88, 44.39 -0.75, 53.55 -0.43 M1.15 1.31 C9.71 1.48, 43.69 1.22, 52.46 0.88" stroke="#000000" stroke-width="1" fill="none"></path></g><g transform="translate(1483.7124636538463 211.84690129746286) rotate(0 26.42866799149226 0.2537491660068554)"><path d="M-1.69 -16.2 C-1.22 -9.9, 0.59 -4.86, -0.01 0.15 M-0.49 -15.62 C-0.18 -13.12, 0.05 -9.61, -1.26 -0.17" stroke="#000000" stroke-width="1" fill="none"></path></g><g transform="translate(1483.7124636538463 211.84690129746286) rotate(0 26.42866799149226 0.2537491660068554)"><path d="M-1.83 13.8 C-1.24 9.31, 0.62 3.56, -0.01 0.15 M-0.63 14.38 C-0.23 9.94, 0.03 6.49, -1.26 -0.17" stroke="#000000" stroke-width="1" fill="none"></path></g><g transform="translate(1483.7124636538463 211.84690129746286) rotate(0 26.42866799149226 0.2537491660068554)"><path d="M51.7 15.53 C52.16 11.04, 53.88 5.29, 53.14 1.89 M52.9 16.11 C53.21 11.67, 53.38 8.23, 51.88 1.56" stroke="#000000" stroke-width="1" fill="none"></path></g><g transform="translate(1483.7124636538463 211.84690129746286) rotate(0 26.42866799149226 0.2537491660068554)"><path d="M51.07 -14.46 C51.68 -8.16, 53.63 -3.12, 53.14 1.89 M52.27 -13.88 C52.68 -11.38, 52.99 -7.88, 51.88 1.56" stroke="#000000" stroke-width="1" fill="none"></path></g></g><g stroke-linecap="round"><g transform="translate(1599.0210316122811 210.387299171407) rotate(0 26.26717002529199 -0.6238332825523685)"><path d="M-0.86 -0.27 C8.09 -0.08, 44.1 0.38, 53.39 0.45 M0.9 -1.46 C9.68 -1.58, 43.26 -1.94, 52.22 -1.44" stroke="#000000" stroke-width="1" fill="none"></path></g><g transform="translate(1599.0210316122811 210.387299171407) rotate(0 26.26717002529199 -0.6238332825523685)"><path d="M-0.98 -15.81 C-0.22 -9.86, -0.64 -6.36, 0.15 -1.3 M-0.4 -14.78 C-1.33 -10.32, -1.36 -7.4, -0.17 0.03" stroke="#000000" stroke-width="1" fill="none"></path></g><g transform="translate(1599.0210316122811 210.387299171407) rotate(0 26.26717002529199 -0.6238332825523685)"><path d="M-1.41 14.19 C-0.36 11.9, -0.66 7.17, 0.15 -1.3 M-0.83 15.21 C-1.85 11.24, -1.76 5.71, -0.17 0.03" stroke="#000000" stroke-width="1" fill="none"></path></g><g transform="translate(1599.0210316122811 210.387299171407) rotate(0 26.26717002529199 -0.6238332825523685)"><path d="M51.59 13.02 C52.66 10.74, 52.38 6.01, 53.22 -2.46 M52.17 14.05 C51.17 10.07, 51.28 4.54, 52.9 -1.13" stroke="#000000" stroke-width="1" fill="none"></path></g><g transform="translate(1599.0210316122811 210.387299171407) rotate(0 26.26717002529199 -0.6238332825523685)"><path d="M52.15 -16.97 C52.89 -11.02, 52.46 -7.52, 53.22 -2.46 M52.73 -15.95 C51.79 -11.48, 51.74 -8.57, 52.9 -1.13" stroke="#000000" stroke-width="1" fill="none"></path></g></g><g stroke-linecap="round" transform="translate(1485.809788220386 43.99265680100598) rotate(0 32.11124677323505 27.002639332038598)"><path d="M-0.72 0.75 C17.3 0.42, 32.05 1.49, 62.85 -0.37 M0.65 -0.98 C24.92 -1.14, 47.11 0.7, 64.63 -0.75 M64.45 -0.68 C65.88 16.86, 62.98 29.86, 64.42 52.53 M64.4 0.69 C64.76 18.36, 64.35 35.65, 65.01 53.8 M64.65 55.61 C45.95 52.78, 23.23 52.22, -0.19 54.69 M63.42 53.85 C51.35 53.02, 39.05 54.62, 0.11 54.25 M-0.72 52.18 C-1.49 34.39, 1.68 20.14, -1.58 0.15 M-0.29 54.39 C1.25 43.77, -0.6 32.79, -0.48 -0.39" stroke="#000000" stroke-width="1" fill="none"></path></g><g transform="translate(1490.809788220386 58.495296133044576) rotate(0 27 12.5)"><text x="27" y="18" font-family="Virgil, Segoe UI Emoji" font-size="20px" fill="#000000" text-anchor="middle" style="white-space: pre;" direction="ltr">Ack</text></g><g stroke-linecap="round"><g transform="translate(1483.0357530910785 129.18974128727223) rotate(0 40.29098544104522 17.702525023849375)"><path d="M1.73 0.28 C1.19 10.75, -0.68 18.45, 2.91 34.3 M0.98 -0.94 C-0.06 12.18, 1.59 21.79, 1.35 33.93 M3.13 35.22 C23.5 33.35, 48.19 33.62, 78.98 36.34 M1.74 34.37 C19.87 33.54, 39.31 33.92, 78.43 34.78 M79.95 34.38 C77.08 24.61, 78.18 17.69, 76.56 2.77 M78.41 34.42 C79.39 25.72, 78.84 15.07, 78.84 0.36" stroke="#5f3dc4" stroke-width="4" fill="none"></path></g></g><g transform="translate(1497.6841059485878 110.059340571539) rotate(0 33.5 25)"><text x="0" y="18" font-family="Virgil, Segoe UI Emoji" font-size="20px" fill="#5f3dc4" text-anchor="start" style="white-space: pre;" direction="ltr">Robus </text><text x="0" y="43" font-family="Virgil, Segoe UI Emoji" font-size="20px" fill="#5f3dc4" text-anchor="start" style="white-space: pre;" direction="ltr">ACK</text></g><g stroke-linecap="round"><g transform="translate(1655.1236348428986 184.11446090239588) rotate(0 -0.5674483160081536 -25.681872295263474)"><path d="M0.17 0.54 C-0.02 -8.28, -0.35 -43.45, -0.65 -51.91 M-1.21 -0.22 C-1.52 -8.39, -0.95 -42.16, -1.18 -50.8" stroke="#e67700" stroke-width="1" fill="none"></path></g><g transform="translate(1655.1236348428986 184.11446090239588) rotate(0 -0.5674483160081536 -25.681872295263474)"><path d="M-8 -22 C-7.01 -15.67, -1.12 -6.89, 0.8 1.85 M-9.67 -22.44 C-6.43 -19.18, -5.12 -13.63, 0.19 0.66" stroke="#e67700" stroke-width="1" fill="none"></path></g><g transform="translate(1655.1236348428986 184.11446090239588) rotate(0 -0.5674483160081536 -25.681872295263474)"><path d="M9.48 -22.24 C4.57 -15.8, 4.56 -6.94, 0.8 1.85 M7.81 -22.68 C7.51 -19.54, 5.3 -13.94, 0.19 0.66" stroke="#e67700" stroke-width="1" fill="none"></path></g></g><g transform="translate(1638.613687994302 81.11912908691556) rotate(0 39.5 25)"><text x="0" y="18" font-family="Virgil, Segoe UI Emoji" font-size="20px" fill="#e67700" text-anchor="start" style="white-space: pre;" direction="ltr">Robus</text><text x="0" y="43" font-family="Virgil, Segoe UI Emoji" font-size="20px" fill="#e67700" text-anchor="start" style="white-space: pre;" direction="ltr">Timeout</text></g></svg>