<?xml version="1.0" encoding="utf-8"?>
<!-- Generator: Adobe Illustrator 26.1.0, SVG Export Plug-In . SVG Version: 6.00 Build 0)  -->
<svg version="1.1" id="a" xmlns="http://www.w3.org/2000/svg" xmlns:xlink="http://www.w3.org/1999/xlink" x="0px" y="0px"
	 viewBox="0 0 100 100" style="enable-background:new 0 0 100 100;" xml:space="preserve">
<style type="text/css">
	.st0{fill:#FFFFFF;stroke:#28D634;stroke-width:4;}
	.st1{fill:#65FF65;}
</style>
<g id="b" transform="translate(-225.25658,-272.37693)">
	<path id="c" class="st0" d="M231.1,304.9h88.3c2,0,3.6,1.4,3.6,3.1v28.7c0,1.8-1.6,3.1-3.6,3.1h-88.3c-2,0-3.6-1.4-3.6-3.1V308
		C227.4,306.3,229,304.9,231.1,304.9z"/>
	<g>
		<path class="st1" d="M245.1,329.3v-20.8h8.4c2.1,0,3.7,0.2,4.7,0.5c1,0.4,1.7,1.1,2.3,2c0.5,1,0.9,2.1,0.9,3.3
			c0,1.5-0.5,2.9-1.3,3.8c-0.9,1-2.1,1.6-3.9,1.9c0.9,0.5,1.6,1.1,2.1,1.7s1.3,1.8,2.2,3.4l2.4,4h-4.7l-2.9-4.5
			c-1-1.6-1.7-2.6-2.1-3c-0.4-0.5-0.8-0.7-1.2-0.9c-0.4-0.2-1.1-0.3-2.1-0.3h-0.8v8.7L245.1,329.3L245.1,329.3L245.1,329.3z
			 M249.1,317.4h2.9c1.9,0,3.1-0.1,3.6-0.3c0.5-0.2,0.9-0.4,1.2-0.9s0.5-0.9,0.5-1.5c0-0.7-0.2-1.2-0.5-1.7
			c-0.4-0.5-0.9-0.7-1.5-0.8c-0.4-0.1-1.3-0.1-2.9-0.1h-3.1V317.4L249.1,317.4z"/>
		<path class="st1" d="M269.5,329.3V312h-5.9v-3.5h15.7v3.5h-5.9v17.3H269.5L269.5,329.3z"/>
		<path class="st1" d="M280.7,319.1c0-2.1,0.3-3.8,0.9-5.3c0.5-1.1,1.1-2,1.9-2.9c0.8-0.8,1.6-1.4,2.6-1.9c1.2-0.5,2.7-0.8,4.3-0.8
			c2.9,0,5.3,1,7,2.9c1.8,1.9,2.6,4.6,2.6,7.9s-0.9,6-2.6,7.9c-1.7,1.9-4,2.9-7,2.9s-5.3-1-7.1-2.9
			C281.6,325,280.7,322.4,280.7,319.1z M284.8,318.9c0,2.3,0.5,4.1,1.5,5.4c1.1,1.2,2.3,1.8,3.9,1.8c1.6,0,2.9-0.6,3.9-1.8
			c1-1.2,1.5-3,1.5-5.4c0-2.4-0.5-4.1-1.5-5.3c-1-1.2-2.3-1.8-3.9-1.8c-1.6,0-3,0.6-4,1.8C285.4,314.8,284.8,316.6,284.8,318.9
			L284.8,318.9z"/>
		<path class="st1" d="M302,322.6l3.9-0.4c0.3,1.3,0.7,2.4,1.4,3s1.7,1,2.9,1c1.2,0,2.2-0.3,2.9-0.9c0.6-0.5,1-1.2,1-2
			c0-0.5-0.2-0.9-0.5-1.2c-0.3-0.4-0.7-0.6-1.4-0.9c-0.4-0.2-1.5-0.5-3.2-0.9c-2.1-0.5-3.7-1.2-4.5-2.1c-1.2-1.2-1.8-2.5-1.8-4.2
			c0-1.1,0.3-2.1,0.9-2.9c0.6-0.9,1.4-1.6,2.5-2.1c1.1-0.5,2.4-0.7,3.9-0.7c2.5,0,4.4,0.5,5.6,1.7s1.9,2.7,2,4.6l-4,0.2
			c-0.2-1.1-0.5-1.8-1.1-2.3c-0.5-0.5-1.4-0.7-2.5-0.7c-1.2,0-2.1,0.3-2.8,0.7c-0.5,0.4-0.6,0.7-0.6,1.2c0,0.4,0.2,0.9,0.6,1.2
			c0.5,0.4,1.7,0.9,3.7,1.4s3.4,1,4.3,1.5c0.9,0.5,1.7,1.2,2.1,2.2c0.5,0.9,0.8,2,0.8,3.3c0,1.2-0.4,2.3-1,3.3
			c-0.6,1.1-1.5,1.8-2.7,2.3s-2.6,0.7-4.3,0.7c-2.5,0-4.5-0.6-5.8-1.8S302.3,324.9,302,322.6z"/>
	</g>
	<g>
		<path d="M233.8,334.9v-1.1h-0.6c-0.7,0-1.2-0.1-1.6-0.2s-0.6-0.4-0.8-0.7c-0.2-0.4-0.4-0.8-0.4-1.3c0-0.5,0.1-1.1,0.3-1.6l1.5,0.3
			c-0.1,0.3-0.1,0.6-0.1,0.9s0.1,0.5,0.3,0.6c0.2,0.1,0.4,0.2,0.9,0.2h0.6v-1.4h1.7v1.4h6.6v2h-6.6v1.1L233.8,334.9
			C233.8,334.9,233.8,334.9,233.8,334.9z"/>
		<path d="M242.2,327.4v2h-8.4v-1.8h1.2c-0.5-0.3-0.9-0.6-1.1-0.8c-0.2-0.2-0.3-0.5-0.3-0.8c0-0.5,0.2-0.9,0.4-1.2l2,0.6
			c-0.3,0.4-0.4,0.6-0.4,0.9c0,0.3,0.1,0.5,0.3,0.7c0.2,0.2,0.4,0.4,0.9,0.5s1.3,0.2,2.8,0.2h2.6L242.2,327.4L242.2,327.4z"/>
		<path d="M239.5,319.6l0.4-2c0.8,0.3,1.4,0.6,1.9,1.2c0.4,0.5,0.6,1.2,0.6,2.1c0,1.2-0.4,2.2-1.4,2.9c-0.8,0.5-1.7,0.7-2.9,0.7
			c-1.4,0-2.5-0.4-3.2-1c-0.8-0.6-1.2-1.4-1.2-2.4c0-1.1,0.4-2,1.2-2.6c0.8-0.6,2.1-0.9,3.8-0.9v4.8c0.6,0,1.2-0.2,1.5-0.5
			s0.5-0.7,0.5-1.2c0-0.3-0.1-0.5-0.3-0.8C240.2,319.9,239.9,319.7,239.5,319.6L239.5,319.6z M237.2,319.5c-0.6,0-1.2,0.2-1.4,0.4
			c-0.4,0.3-0.5,0.6-0.5,1c0,0.5,0.2,0.8,0.5,1.1c0.4,0.3,0.8,0.4,1.4,0.4V319.5z"/>
		<path d="M239.5,311.7l0.4-2c0.8,0.3,1.4,0.6,1.9,1.2c0.4,0.5,0.6,1.2,0.6,2.1c0,1.2-0.4,2.2-1.4,2.9c-0.8,0.5-1.7,0.7-2.9,0.7
			c-1.4,0-2.5-0.4-3.2-1c-0.8-0.6-1.2-1.4-1.2-2.4c0-1.1,0.4-2,1.2-2.6c0.8-0.6,2.1-0.9,3.8-0.9v4.8c0.6,0,1.2-0.2,1.5-0.5
			s0.5-0.7,0.5-1.2c0-0.3-0.1-0.5-0.3-0.8C240.2,312,239.9,311.8,239.5,311.7L239.5,311.7z M237.2,311.6c-0.6,0-1.2,0.2-1.4,0.4
			c-0.4,0.3-0.5,0.6-0.5,1c0,0.5,0.2,0.8,0.5,1.1c0.4,0.3,0.8,0.4,1.4,0.4V311.6z"/>
	</g>
	<rect id="d" x="244.7" y="332.4" width="73.6" height="2.8"/>
</g>
</svg>
