<svg width="80" height="80" viewBox="0 0 80 80" fill="none" xmlns="http://www.w3.org/2000/svg">
<g clip-path="url(#clip0_8619_71810)">
<path d="M78.348 33.3074H55.5592L71.6674 17.1911C69.1353 13.6319 66.0219 10.5265 62.4627 7.99438L46.3465 24.1106V1.31379C44.2045 0.955478 42.0387 0.772339 39.8649 0.772339H39.8251C37.6115 0.772339 35.4457 0.96344 33.3356 1.31379V24.1026L17.2274 7.99438C15.4517 9.26043 13.7876 10.6698 12.2508 12.2066C10.714 13.7513 9.30464 15.4234 8.0386 17.1911L24.1548 33.2994H1.35005C1.35005 33.2994 0.808594 37.5832 0.808594 39.7968V39.8207C0.808594 42.0343 0.999695 44.2001 1.35005 46.3102H24.1469L8.03063 62.4185C10.5627 65.9777 13.6761 69.0831 17.2354 71.6232L33.3516 55.5149V78.3038C35.4617 78.6541 37.6195 78.8452 39.8251 78.8452H39.8809C42.0546 78.8452 44.2205 78.6621 46.3544 78.3038V55.5149L62.4706 71.6311C64.2463 70.3651 65.9105 68.9557 67.4552 67.4189C68.992 65.8742 70.4014 64.21 71.6674 62.4344L55.5592 46.3182H78.348C78.6983 44.2081 78.8894 42.0502 78.8894 39.8366V39.7809C78.8894 37.6071 78.7063 35.4413 78.348 33.3074Z" fill="#E94E1E"/>
</g>
<defs>
<clipPath id="clip0_8619_71810">
<rect width="79.6256" height="79.6256" fill="white" transform="translate(0.0361328)"/>
</clipPath>
</defs>
</svg>
