<svg width="82" height="83" viewBox="0 0 82 83" fill="none" xmlns="http://www.w3.org/2000/svg">
<path d="M49.9129 64.8852C48.1189 64.8852 46.631 64.3666 45.4578 63.3379C44.2845 62.3091 43.6893 60.3366 43.6893 57.4119V10.9646H22.621V20.249H32.2709V56.5956C32.2709 62.4876 33.4782 66.9683 35.8928 70.029C38.3074 73.0983 42.1419 74.6287 47.3962 74.6287C49.3092 74.6287 51.0267 74.5012 52.5485 74.2631C54.0704 74.0166 55.3458 73.7275 56.4 73.3959C57.3268 73.1068 58.0919 72.8263 58.7041 72.5457V62.7767C58.2195 62.9553 57.1992 63.3549 55.6518 63.9585C54.1129 64.5707 52.183 64.8682 49.9044 64.8682L49.9129 64.8852Z" fill="white"/>
<path d="M22.9951 10.616V9.35767C22.9951 8.73702 22.4935 8.24389 21.8813 8.24389H20.623V6.22888H20.1129V8.24389H19.0076V6.22888H18.4975V8.24389H17.3922V6.22888H16.8821V8.24389H15.7768V6.22888H15.2667V8.24389H14.1614V6.22888H13.6513V8.24389H12.546V6.22888H12.0358V8.24389H10.9306V6.22888H10.4204V8.24389H9.16212C8.54146 8.24389 8.04834 8.74552 8.04834 9.35767V10.616H6.03333V11.1261H8.04834V12.2314H6.03333V12.7415H8.04834V13.8468H6.03333V14.3569H8.04834V15.4622H6.03333V15.9723H8.04834V17.0776H6.03333V17.5878H8.04834V18.693H6.03333V19.2032H8.04834V20.3084H6.03333V20.8186H8.04834V22.0769C8.04834 22.6975 8.54996 23.1907 9.16212 23.1907H10.4204V25.2057H10.9306V23.1907H12.0358V25.2057H12.546V23.1907H13.6513V25.2057H14.1614V23.1907H15.2667V25.2057H15.7768V23.1907H16.8821V25.2057H17.3922V23.1907H18.4975V25.2057H19.0076V23.1907H20.1129V25.2057H20.623V23.1907H21.8813C22.502 23.1907 22.9951 22.689 22.9951 22.0769V19.2032H25.0101V18.693H22.9951V17.5878H25.0101V17.0776H22.9951V15.9723H25.0101V15.4622H22.9951V14.3569H25.0101V13.8468H22.9951V12.7415H25.0101V12.2314H22.9951V10.616Z" fill="white"/>
<path d="M12.0443 11.8488H11.8147V15.5217H12.0443V11.8488Z" fill="#323334"/>
<path d="M10.5056 11.8488H10.276V15.5217H10.5056V11.8488Z" fill="#323334"/>
<path d="M10.0889 9.16211H12.2314C12.4865 9.16211 12.6905 9.36616 12.6905 9.62123V13.2942C12.6905 13.5492 12.4865 13.7533 12.2314 13.7533H10.0889C9.83381 13.7533 9.62976 13.5492 9.62976 13.2942V9.62123C9.62976 9.36616 9.83381 9.16211 10.0889 9.16211Z" fill="#323334"/>
<path d="M12.6905 12.6139H9.62976V13.8382H12.6905V12.6139Z" fill="#1E1E1E"/>
<path d="M12.9965 13.2262H9.32361V13.8384H12.9965V13.2262Z" fill="#1E1E1E"/>
<path d="M15.2071 19.7642H14.6799V21.4476H15.2071V19.7642Z" fill="#A6A29F"/>
<path d="M17.1031 19.118C17.1031 19.9342 16.44 19.7472 15.6322 19.7472C14.8245 19.7472 14.1614 19.9257 14.1614 19.118V17.018C14.1614 16.2018 14.816 15.5471 15.6322 15.5471C16.4485 15.5471 17.1031 16.2018 17.1031 17.018V19.118Z" fill="#7EBFB7"/>
<path d="M17.5197 18.9224H13.7362V19.7641H17.5197V18.9224Z" fill="#7EBFB7"/>
<path d="M16.5758 19.7642H16.0487V21.4476H16.5758V19.7642Z" fill="#A6A29F"/>
<g style="mix-blend-mode:multiply" opacity="0.4">
<path d="M15.2071 17.6642H14.6799V18.9225H15.2071V17.6642Z" fill="#A6A29F"/>
</g>
<g style="mix-blend-mode:multiply" opacity="0.4">
<path d="M16.5758 17.6642H16.0487V18.9225H16.5758V17.6642Z" fill="#A6A29F"/>
</g>
<path d="M14.9945 19.7642H14.6799V23.165H14.9945V19.7642Z" fill="#A6A29F"/>
<path d="M16.5759 19.7642H16.2614V23.165H16.5759V19.7642Z" fill="#A6A29F"/>
<path d="M20.3594 19.7727H19.8323V21.4561H20.3594V19.7727Z" fill="#A6A29F"/>
<path d="M22.2469 19.1266C22.2469 19.9428 21.5838 19.7557 20.776 19.7557C19.9683 19.7557 19.3052 19.9343 19.3052 19.1266V17.0265C19.3052 16.2103 19.9598 15.5557 20.776 15.5557C21.5923 15.5557 22.2469 16.2103 22.2469 17.0265V19.1266Z" fill="#A797C4"/>
<path d="M22.6636 18.9395H18.8801V19.7812H22.6636V18.9395Z" fill="#A797C4"/>
<path d="M21.7198 19.7727H21.1926V21.4561H21.7198V19.7727Z" fill="#A6A29F"/>
<g style="mix-blend-mode:multiply" opacity="0.4">
<path d="M20.3594 17.6727H19.8323V18.931H20.3594V17.6727Z" fill="#A6A29F"/>
</g>
<g style="mix-blend-mode:multiply" opacity="0.4">
<path d="M21.7198 17.6727H21.1926V18.931H21.7198V17.6727Z" fill="#A6A29F"/>
</g>
<path d="M20.1469 19.7727H19.8323V23.1736H20.1469V19.7727Z" fill="#A6A29F"/>
<path d="M21.7199 19.7727H21.4053V23.1736H21.7199V19.7727Z" fill="#A6A29F"/>
<path d="M15.5217 30.0434C23.5418 30.0434 30.0434 23.5418 30.0434 15.5217C30.0434 7.50158 23.5418 1 15.5217 1C7.50158 1 1 7.50158 1 15.5217C1 23.5418 7.50158 30.0434 15.5217 30.0434Z" stroke="#A798C5" stroke-width="2" stroke-miterlimit="10"/>
<path d="M75.6064 62.8532V62.343H73.5914V61.0847C73.5914 60.4641 73.0898 59.9709 72.4777 59.9709H71.2193V57.9559H70.7092V59.9709H69.6039V57.9559H69.0938V59.9709H67.9885V57.9559H67.4784V59.9709H66.3731V57.9559H65.863V59.9709H64.7577V57.9559H64.2476V59.9709H63.1423V57.9559H62.6322V59.9709H61.5269V57.9559H61.0168V59.9709H59.7584C59.1378 59.9709 58.6447 60.4726 58.6447 61.0847V63.9585H56.6296V64.4686H58.6447V65.5739H56.6296V66.084H58.6447V67.1893H56.6296V67.6994H58.6447V68.8047H56.6296V69.3148H58.6447V70.4201H56.6296V70.9302H58.6447V72.0355H56.6296V72.5456H58.6447V73.8039C58.6447 74.4246 59.1463 74.9177 59.7584 74.9177H61.0168V76.9327H61.5269V74.9177H62.6322V76.9327H63.1423V74.9177H64.2476V76.9327H64.7577V74.9177H65.863V76.9327H66.3731V74.9177H67.4784V76.9327H67.9885V74.9177H69.0938V76.9327H69.6039V74.9177H70.7092V76.9327H71.2193V74.9177H72.4777C73.0983 74.9177 73.5914 74.4161 73.5914 73.8039V72.5456H75.6064V72.0355H73.5914V70.9302H75.6064V70.4201H73.5914V69.3148H75.6064V68.8047H73.5914V67.6994H75.6064V67.1893H73.5914V66.084H75.6064V65.5739H73.5914V64.4686H75.6064V63.9585H73.5914V62.8532H75.6064Z" fill="white"/>
<path fill-rule="evenodd" clip-rule="evenodd" d="M68.969 64.0095C68.2293 64.0095 67.5661 64.3581 67.141 64.9022H66.7414C66.1207 64.9022 65.6106 65.4124 65.6106 66.033V66.7132C65.6106 67.3339 66.1207 67.844 66.7414 67.844H67.209C67.6341 68.3371 68.2633 68.6432 68.9604 68.6432C69.6576 68.6432 70.2868 68.3286 70.7119 67.844H71.1625C71.7832 67.844 72.2933 67.3339 72.2933 66.7132V66.033C72.2933 65.4124 71.7832 64.9022 71.1625 64.9022H70.7799C70.3548 64.3581 69.6916 64.0095 68.9519 64.0095H68.969Z" fill="#010101"/>
<path d="M69.1135 66.7132V66.033C69.1135 65.5314 69.5216 65.1233 70.0232 65.1233H71.171C71.6726 65.1233 72.0807 65.5314 72.0807 66.033V66.7132C72.0807 67.2148 71.6726 67.6229 71.171 67.6229H68.6459C68.9264 67.4189 69.1135 67.0873 69.1135 66.7132Z" fill="white"/>
<path d="M67.6257 67.0618H67.2516L67.1836 66.7387C67.1326 66.5092 67.0901 66.2371 67.0816 66.1266C67.0731 66.2371 67.0306 66.5092 66.9795 66.7387L66.9115 67.0618H66.5374L66.1888 65.5909H66.6055L66.648 65.8375C66.682 66.0415 66.7245 66.3051 66.733 66.4752C66.75 66.3051 66.7925 66.0501 66.8435 65.8375L66.8945 65.5909H67.2686L67.3196 65.8375C67.3621 66.0501 67.4132 66.3051 67.4302 66.4752C67.4472 66.2966 67.4812 66.0415 67.5152 65.8375L67.5577 65.5909H67.9743L67.6257 67.0618Z" fill="white"/>
<path d="M68.3483 65.88C68.2208 65.88 68.1357 65.8119 68.1357 65.6929C68.1357 65.5824 68.2293 65.5059 68.3483 65.5059C68.4673 65.5059 68.5694 65.5824 68.5694 65.6929C68.5694 65.8119 68.4758 65.88 68.3483 65.88ZM68.1612 67.0618V65.9905H68.5438V67.0618H68.1612Z" fill="white"/>
<path d="M70.0318 65.9393V66.2709H70.814V66.6195H70.0318V67.0701H69.6237V65.5992H70.899V65.9478H70.0318V65.9393Z" fill="#010101"/>
<path d="M71.3241 65.88C71.1966 65.88 71.1116 65.8119 71.1116 65.6929C71.1116 65.5824 71.2051 65.5059 71.3241 65.5059C71.4517 65.5059 71.5452 65.5824 71.5452 65.6929C71.5452 65.8119 71.4517 65.88 71.3241 65.88ZM71.1371 67.0618V65.9905H71.5112V67.0618H71.1371Z" fill="#010101"/>
<path d="M59.2567 73.7615C59.2567 72.3671 59.2567 70.9728 59.2567 69.5784C59.2567 69.5274 59.2652 69.5189 59.3162 69.5189C62.0794 69.5189 64.8426 69.5189 67.6058 69.5189C67.6568 69.5189 67.6653 69.5274 67.6653 69.5784C67.6653 70.9558 67.6653 72.3331 67.6653 73.702C67.6653 73.753 67.6568 73.7615 67.6058 73.7615C64.8256 73.7615 62.0454 73.7615 59.2567 73.7615Z" fill="white"/>
<path d="M60.9741 71.3979V71.2023C60.9741 71.0918 61.0081 71.0663 61.1102 71.0068C61.1782 70.9642 61.2292 70.9557 61.2972 70.9557C61.3397 70.9557 61.3312 70.9217 61.3312 70.8962C61.3312 70.7007 61.3312 70.4966 61.3312 70.3011C61.3312 70.199 61.3737 70.1225 61.4332 70.08C61.4843 70.046 61.5523 69.995 61.6373 69.995C62.8701 69.995 64.0944 69.995 65.3272 69.995C65.5908 69.995 65.8629 69.995 66.1264 69.995C66.1774 69.995 66.22 70.0035 66.2455 70.0545C66.2455 70.0715 66.2285 70.08 66.2114 70.08C66.1944 70.08 66.1689 70.08 66.1519 70.063C65.8884 70.063 65.6248 70.0545 65.3612 70.063C65.3527 70.063 65.3442 70.063 65.3357 70.063C64.9361 70.063 64.545 70.063 64.1454 70.063C63.3122 70.063 62.4705 70.063 61.6373 70.063C61.4758 70.063 61.3652 70.1735 61.3652 70.3351C61.3652 70.5221 61.3652 70.7007 61.3652 70.8877C61.3652 71.0067 61.3482 71.0238 61.2292 71.0238C61.1442 71.0238 61.0847 71.0578 61.0251 71.1173C61.0081 71.1428 61.0081 71.1683 61.0081 71.1938C61.0081 71.2533 61.0166 71.3128 60.9996 71.3723C60.9996 71.3723 60.9826 71.3808 60.9741 71.3808V71.3979Z" fill="#FDFAF3"/>
<path d="M61.0591 72.3331L61.0421 72.3161C60.9911 72.2906 60.9741 72.2566 60.9741 72.2055C60.9741 72.129 60.9741 72.044 60.9741 71.9675C60.9741 71.9505 60.9741 71.942 60.9911 71.9335C61.0421 71.9845 61.0081 72.0525 61.0166 72.112C61.0166 72.163 61.0166 72.2055 61.0591 72.2481C61.1102 72.3076 61.1697 72.3501 61.2547 72.3416C61.3652 72.3416 61.3907 72.3586 61.3907 72.4776C61.3907 72.6477 61.3907 72.8262 61.3907 72.9962C61.3907 73.0643 61.4077 73.1323 61.4417 73.1918C61.4843 73.2683 61.5523 73.3108 61.6458 73.3108C61.8753 73.3108 62.0964 73.3108 62.326 73.3108C63.2867 73.3108 64.256 73.3108 65.2167 73.3108C65.2592 73.3108 65.2932 73.3023 65.3357 73.3278C65.3357 73.3278 65.3357 73.3448 65.3357 73.3533C65.3187 73.3788 65.2932 73.3618 65.2677 73.3618C64.0519 73.3618 62.8276 73.3618 61.6118 73.3618C61.5948 73.3618 61.5693 73.3618 61.5523 73.3618C61.4757 73.3363 61.4162 73.2938 61.3992 73.2088C61.3567 73.1833 61.3482 73.1493 61.3482 73.1068C61.3397 72.9027 61.3482 72.6987 61.3482 72.4946C61.3482 72.4691 61.3482 72.4351 61.3312 72.4096C61.2717 72.4096 61.2037 72.4096 61.1442 72.4096C61.1187 72.4011 61.1017 72.3756 61.0761 72.3586L61.0591 72.3416V72.3331Z" fill="#FAEBCB"/>
<path d="M60.9742 71.9674C60.9147 71.9674 60.8552 71.9674 60.7957 71.9674C60.7617 71.9674 60.7447 71.9759 60.7447 72.0184C60.7447 72.0694 60.7447 72.1204 60.7447 72.163C60.7447 72.214 60.7277 72.2395 60.6682 72.2565C60.5831 72.2735 60.4981 72.2565 60.4046 72.265C60.2516 72.265 60.09 72.265 59.937 72.265C59.9285 72.265 59.92 72.265 59.9115 72.265C59.7244 72.265 59.6819 72.214 59.6989 72.0354C59.6989 71.9844 59.6989 71.9674 59.6394 71.9674C59.5459 71.9674 59.4949 71.8994 59.4949 71.8059C59.4949 71.7379 59.4949 71.6613 59.4949 71.5933C59.4949 71.4998 59.5374 71.4488 59.6224 71.4403C59.6819 71.4403 59.6904 71.4148 59.6904 71.3638C59.6904 71.3298 59.6904 71.2872 59.6904 71.2532C59.6904 71.2022 59.7159 71.1682 59.7754 71.1767C59.7329 71.2362 59.7414 71.3043 59.7414 71.3723C59.7414 71.4573 59.7159 71.4828 59.6309 71.4913C59.5969 71.4913 59.5714 71.5083 59.5629 71.5423C59.5374 71.6528 59.5289 71.7549 59.5629 71.8654C59.5714 71.9079 59.5969 71.9249 59.6394 71.9249C59.6819 71.9249 59.7329 71.9249 59.7499 71.9929C59.7499 72.0184 59.7499 72.0439 59.7499 72.0694C59.7499 72.1035 59.7499 72.146 59.7669 72.18C59.7754 72.2055 59.801 72.214 59.8265 72.2225C60.09 72.2225 60.3621 72.2225 60.6257 72.2225C60.6937 72.2225 60.7107 72.197 60.7192 72.129C60.7192 72.0864 60.7192 72.0439 60.7192 72.0014C60.7192 71.9504 60.7447 71.9249 60.7957 71.9249C60.8382 71.9249 60.8892 71.9249 60.9317 71.9249C60.9572 71.9249 60.9828 71.9249 60.9828 71.9589L60.9742 71.9674Z" fill="#E2E1E1"/>
<path d="M61.5524 73.3534C62.7852 73.3534 64.018 73.3534 65.2508 73.3534C65.2763 73.3534 65.3103 73.3619 65.3358 73.3449C65.3613 73.3364 65.3783 73.3449 65.4038 73.3449C65.5994 73.3449 65.7949 73.3449 65.9905 73.3449C66.084 73.3449 66.186 73.3449 66.2711 73.3024H66.2796C66.2711 73.3704 66.2286 73.3789 66.1775 73.3789C65.8715 73.3789 65.5654 73.3789 65.2593 73.3789C64.052 73.3789 62.8447 73.3789 61.6374 73.3789C61.6119 73.3789 61.5779 73.3874 61.5524 73.3704V73.3534Z" fill="#E5E3E0"/>
<path d="M59.5542 71.8655C59.5032 71.7804 59.5202 71.6784 59.5287 71.5934C59.5372 71.4829 59.5457 71.4829 59.6563 71.4744C59.6988 71.4744 59.7158 71.4404 59.7158 71.4063C59.7158 71.3723 59.7158 71.3383 59.7158 71.3043C59.7158 71.2533 59.7243 71.2108 59.7753 71.1768C59.7753 71.1768 59.8603 71.1598 59.9028 71.1598C60.1324 71.1598 60.3704 71.1598 60.6 71.1598C60.634 71.1598 60.668 71.1598 60.702 71.1768C60.719 71.1768 60.7275 71.1938 60.7275 71.2023C60.7445 71.2788 60.7275 71.3553 60.7445 71.4234L60.7615 71.4404C60.8296 71.4659 60.8891 71.4574 60.9571 71.4404C60.9571 71.4404 60.9741 71.4404 60.9826 71.4404C60.9996 71.4489 60.9996 71.4659 60.9911 71.4829C60.9911 71.4829 60.9826 71.4999 60.9741 71.4999C60.9061 71.5169 60.8381 71.4999 60.77 71.4999C60.719 71.4999 60.6935 71.4659 60.685 71.4149C60.685 71.3808 60.685 71.3468 60.685 71.3128C60.685 71.2278 60.668 71.2108 60.583 71.2108C60.532 71.2108 60.481 71.2108 60.4385 71.2108C60.2684 71.2108 60.0899 71.2108 59.9198 71.2108C59.8943 71.2108 59.8603 71.2108 59.8348 71.2108C59.8093 71.2193 59.8008 71.2448 59.8008 71.2703C59.8008 71.3043 59.8008 71.3383 59.8008 71.3723C59.8008 71.4744 59.7753 71.4914 59.6818 71.4999C59.6563 71.4999 59.6308 71.4999 59.6137 71.5254C59.5797 71.5764 59.5967 71.6359 59.5882 71.6869C59.5882 71.7379 59.5882 71.7804 59.5882 71.8315C59.5882 71.84 59.5882 71.857 59.5712 71.8655H59.5542Z" fill="#D1D1D1"/>
<path d="M66.8662 71.4148C67.0108 71.3893 67.1638 71.4063 67.3083 71.3978C67.3934 71.3978 67.4699 71.4233 67.5294 71.4743C67.5549 71.4913 67.5549 71.5169 67.5549 71.5424C67.5549 71.6359 67.5549 71.7209 67.5549 71.8144C67.5549 71.8654 67.5464 71.891 67.4954 71.908C67.4699 71.8739 67.4954 71.8484 67.4954 71.8144C67.4954 71.7294 67.4954 71.6444 67.4954 71.5594C67.4954 71.4998 67.4529 71.4743 67.3849 71.4743C67.2488 71.4743 67.1043 71.4743 66.9683 71.4743C66.9343 71.4743 66.9002 71.4743 66.8662 71.4743C66.8662 71.4743 66.8492 71.4743 66.8407 71.4658C66.8322 71.4488 66.8322 71.4318 66.8407 71.4233L66.8662 71.4148Z" fill="#F1F1F1"/>
<path d="M66.4325 70.335C66.4325 70.4625 66.4325 70.5986 66.4325 70.7261C66.4325 70.7686 66.4495 70.7856 66.492 70.7856C66.594 70.7856 66.6876 70.7771 66.7896 70.7941C66.8406 70.8111 66.8576 70.8451 66.8576 70.8961C66.8576 71.0152 66.8576 71.1427 66.8576 71.2617C66.8576 71.3213 66.8576 71.3893 66.8831 71.4488V71.4658C66.8236 71.4658 66.8321 71.4148 66.8321 71.3723C66.8321 71.2702 66.8321 71.1682 66.8321 71.0662C66.8321 71.0322 66.8321 70.9982 66.8321 70.9642C66.8151 70.8366 66.8066 70.8196 66.6876 70.8196C66.6536 70.8196 66.611 70.8196 66.577 70.8196C66.424 70.8196 66.4155 70.8111 66.4155 70.6496C66.4155 70.5561 66.4155 70.471 66.4155 70.3775C66.4155 70.2925 66.3985 70.2245 66.339 70.1565C66.3305 70.1395 66.3135 70.131 66.3135 70.1054C66.339 70.0714 66.356 70.0969 66.373 70.1054C66.4155 70.165 66.458 70.2245 66.458 70.301L66.4325 70.335Z" fill="#DBD7D4"/>
<path d="M59.8093 71.1598C59.8093 71.1598 59.8518 71.1173 59.8943 71.1173C60.1409 71.1173 60.379 71.1173 60.6255 71.1173C60.6595 71.1173 60.6935 71.1258 60.702 71.1598C60.6765 71.1683 60.6425 71.1598 60.617 71.1598C60.3705 71.1598 60.1239 71.1598 59.8773 71.1598C59.8518 71.1598 59.8263 71.1598 59.8093 71.1598Z" fill="#F5F4F5"/>
<path d="M66.8662 71.4659V71.4489C67.0448 71.4489 67.2233 71.4489 67.3933 71.4489C67.4954 71.4489 67.5294 71.4829 67.5294 71.5849C67.5294 71.6189 67.5294 71.6614 67.5294 71.6954C67.5294 71.7634 67.5294 71.8314 67.5039 71.8995L67.4784 71.942C67.3678 71.959 67.2573 71.942 67.1468 71.942C67.0533 71.942 66.9682 71.942 66.8747 71.942C66.8747 71.891 66.9087 71.908 66.9342 71.8995C67.0618 71.8995 67.1808 71.8995 67.3083 71.8995C67.4784 71.8995 67.4869 71.8995 67.4869 71.7209C67.4869 71.6699 67.4869 71.6189 67.4869 71.5679C67.4869 71.5424 67.4869 71.5169 67.4614 71.4999C67.4359 71.4744 67.4018 71.4744 67.3678 71.4744C67.2318 71.4744 67.0958 71.4744 66.9512 71.4744C66.9257 71.4744 66.8917 71.4744 66.8662 71.4574V71.4659Z" fill="#E4E4E3"/>
<path d="M66.8577 71.9674C66.8577 72.129 66.8577 72.2905 66.8577 72.4521C66.8577 72.5881 66.7982 72.6476 66.6622 72.6391C66.5857 72.6391 66.5091 72.6476 66.4326 72.6391C66.4326 72.6391 66.4581 72.5966 66.4751 72.5966C66.5346 72.5966 66.5942 72.5796 66.6537 72.5966C66.7472 72.6136 66.8237 72.5456 66.8237 72.4521C66.8237 72.3245 66.8237 72.197 66.8237 72.061C66.8237 72.0354 66.8237 72.0014 66.8322 71.9759C66.8322 71.9759 66.8492 71.9504 66.8577 71.9759V71.9674Z" fill="#E5E3E0"/>
<path d="M61.3314 72.3926C61.3314 72.3926 61.3569 72.4436 61.3569 72.4691C61.3569 72.6646 61.3569 72.8687 61.3569 73.0642C61.3569 73.1153 61.3569 73.1578 61.3994 73.2003C61.3569 73.2003 61.3484 73.1663 61.3398 73.1238C61.3228 72.9792 61.3314 72.8262 61.3314 72.6816C61.3314 72.5881 61.3314 72.4946 61.3314 72.4096C61.3314 72.4096 61.3314 72.4096 61.3314 72.4011V72.3926Z" fill="#FAF0D8"/>
<path d="M66.8577 71.9674H66.8492V71.9419C66.8662 71.8994 66.9003 71.9079 66.9343 71.9079C67.0788 71.9079 67.2148 71.9079 67.3594 71.9079C67.4444 71.9079 67.4699 71.8824 67.4784 71.7973C67.4784 71.7123 67.4784 71.6358 67.4784 71.5508C67.4784 71.5338 67.4784 71.5168 67.4784 71.4998C67.4954 71.4998 67.5039 71.5168 67.5039 71.5338C67.5039 71.6443 67.5209 71.7548 67.5039 71.8653C67.4954 71.9249 67.4614 71.9504 67.4019 71.9419C67.2403 71.9419 67.0873 71.9419 66.9258 71.9419C66.9088 71.9419 66.8918 71.9419 66.8747 71.9589C66.8833 71.9589 66.8747 71.9674 66.8747 71.9674H66.8662H66.8577Z" fill="#C8C3BE"/>
<path d="M59.8094 71.1598H60.7022V71.1768H59.7839C59.7839 71.1768 59.8009 71.1598 59.8094 71.1598Z" fill="#E2E1E1"/>
<path d="M66.4325 72.6306C66.4325 72.7922 66.4325 72.9537 66.4325 73.1067C66.4325 73.1748 66.356 73.2768 66.288 73.2938C66.288 73.2513 66.322 73.2173 66.3475 73.1918C66.39 73.1237 66.3985 73.0557 66.3985 72.9877C66.3985 72.8942 66.3985 72.8007 66.3985 72.7071C66.3985 72.6816 66.39 72.6476 66.4325 72.6306Z" fill="#E5E3E0"/>
<path d="M66.8661 71.4573C66.8661 71.4573 66.8406 71.3723 66.8406 71.3298C66.8406 71.1937 66.8406 71.0662 66.8406 70.9301C66.8406 70.8791 66.8321 70.8366 66.7811 70.8026C66.8406 70.8026 66.8491 70.8366 66.8491 70.8876C66.8491 71.0237 66.8491 71.1682 66.8491 71.3042C66.8491 71.3383 66.8491 71.3808 66.8661 71.4148V71.4573Z" fill="#E4E4E3"/>
<path d="M60.7446 71.4573V71.4403C60.7446 71.4403 60.7446 71.4233 60.7446 71.4148C60.8211 71.4148 60.8977 71.4318 60.9742 71.3978H60.9912C60.9912 71.3978 60.9912 71.4318 60.9742 71.4403V71.4573C60.8977 71.4658 60.8211 71.4658 60.7446 71.4573Z" fill="#EAE9E9"/>
<path d="M60.9826 71.9674C60.9826 72.0269 60.9826 72.0864 60.9826 72.1545C60.9826 72.2225 60.9826 72.282 61.0421 72.3245C60.9826 72.3245 60.9741 72.282 60.9741 72.2395C60.9741 72.1459 60.9741 72.0609 60.9741 71.9674H60.9826Z" fill="#FDF7EB"/>
<path d="M61.3314 72.3926V72.4096C61.2719 72.4096 61.2124 72.4096 61.1528 72.4096C61.1103 72.4096 61.0593 72.4096 61.0593 72.3416H61.0763C61.0763 72.3416 61.1103 72.3756 61.1358 72.3841C61.2039 72.4096 61.2719 72.3841 61.3314 72.4011V72.3926Z" fill="#FDF7EB"/>
<path d="M66.3476 70.131L66.2881 70.114C66.2881 70.114 66.2711 70.097 66.2626 70.0885C66.2456 70.0714 66.2286 70.0714 66.2201 70.0544H66.2541C66.3051 70.0544 66.3561 70.0544 66.3561 70.131H66.3476Z" fill="#E7E6E4"/>
<path d="M66.4326 70.3351C66.4326 70.2586 66.3645 70.2075 66.3475 70.1395C66.4241 70.1905 66.4411 70.2586 66.4326 70.3351Z" fill="#E7E6E4"/>
<path d="M60.7445 71.4148V71.4403C60.7105 71.3638 60.7445 71.2788 60.7275 71.2023C60.7615 71.2703 60.7275 71.3468 60.7445 71.4148Z" fill="#E2E1E1"/>
<path d="M60.9828 71.3979C60.9828 71.3469 60.9828 71.3043 60.9828 71.2533C60.9828 71.0833 61.0508 71.0153 61.2208 71.0153C61.3314 71.0153 61.3314 71.0153 61.3314 70.8962C61.3314 70.7007 61.3314 70.5051 61.3314 70.3096C61.3314 70.1736 61.4589 70.046 61.5864 70.046C62.8278 70.046 64.0776 70.046 65.3189 70.046C65.3189 70.0545 65.3189 70.063 65.3189 70.0715C65.2849 70.0885 65.2424 70.08 65.2084 70.08C64.0181 70.08 62.8278 70.08 61.646 70.08C61.5439 70.08 61.4759 70.114 61.4249 70.1991C61.4249 70.2161 61.4249 70.2246 61.4079 70.2331C61.3739 70.2756 61.3654 70.3181 61.3654 70.3691C61.3654 70.5477 61.3654 70.7262 61.3654 70.9047C61.3654 71.0238 61.3569 71.0323 61.2379 71.0323C61.2209 71.0323 61.1953 71.0323 61.1783 71.0323C61.1613 71.0323 61.1528 71.0408 61.1358 71.0493H61.1188C61.0508 71.1003 61.0083 71.1598 61.0168 71.2448C61.0168 71.2873 61.0253 71.3299 61.0083 71.3724C61.0083 71.3724 60.9998 71.3724 60.9913 71.3724L60.9828 71.3979Z" fill="#FAECCF"/>
<path d="M65.3358 70.063V70.046H65.3528C65.3528 70.046 65.4208 70.046 65.4463 70.046C65.6674 70.046 65.88 70.046 66.101 70.046C66.1265 70.046 66.152 70.046 66.169 70.046H66.2115C66.2115 70.046 66.2625 70.063 66.271 70.0885C66.2625 70.097 66.2455 70.1055 66.237 70.1055C66.1605 70.0885 66.084 70.1055 66.0075 70.1055C65.8204 70.1055 65.6334 70.1055 65.4378 70.1055C65.4038 70.1055 65.3783 70.1055 65.3443 70.097C65.3443 70.097 65.3358 70.08 65.3358 70.0715V70.063Z" fill="#D2CFCB"/>
<path d="M66.1775 70.0459H65.3528C65.3528 70.0459 65.3868 70.0289 65.4038 70.0289C65.6419 70.0289 65.8799 70.0289 66.118 70.0289C66.135 70.0289 66.152 70.0289 66.169 70.0459H66.1775Z" fill="#DEDCDA"/>
<path d="M65.3358 73.3278C65.3358 73.3278 65.2593 73.3278 65.2253 73.3278C64.035 73.3278 62.8532 73.3278 61.6629 73.3278C61.5013 73.3278 61.3738 73.2003 61.3738 73.0387C61.3738 72.8432 61.3738 72.6561 61.3738 72.4606C61.3738 72.3671 61.3653 72.3585 61.2718 72.3585C61.1017 72.3585 60.9997 72.265 60.9997 72.095C60.9997 72.044 61.0167 71.9845 60.9912 71.9334V71.9164C61.0082 71.8994 61.0167 71.8994 61.0337 71.9164C61.0762 71.9845 61.0507 72.061 61.0592 72.1375C61.0592 72.197 61.1017 72.231 61.1357 72.2735C61.1783 72.2905 61.2293 72.3075 61.2803 72.3075C61.3993 72.3075 61.4588 72.3671 61.4588 72.4946C61.4588 72.6646 61.4588 72.8347 61.4588 73.0047C61.4588 73.0557 61.4588 73.1152 61.4843 73.1663C61.4843 73.1663 61.4843 73.1833 61.4843 73.1918C61.5183 73.2683 61.5949 73.2768 61.6629 73.2938C61.6884 73.2938 61.7224 73.2938 61.7479 73.2938C62.9042 73.2938 64.052 73.2938 65.2083 73.2938C65.2423 73.2938 65.2763 73.2938 65.3103 73.2938C65.3273 73.2938 65.3443 73.3108 65.3443 73.3278H65.3358Z" fill="#F6D38F"/>
<path d="M66.4326 72.6306C66.4326 72.6306 66.4241 72.6816 66.4156 72.7071C66.4156 72.8176 66.4156 72.9281 66.4156 73.0387C66.4156 73.1492 66.3561 73.2257 66.2881 73.3022C66.2115 73.3618 66.118 73.3618 66.0245 73.3618C65.8289 73.3618 65.6334 73.3618 65.4293 73.3618C65.3953 73.3618 65.3698 73.3618 65.3358 73.3533V73.3362C65.3358 73.3362 65.3613 73.3192 65.3698 73.3192C65.6164 73.3192 65.8629 73.3192 66.1095 73.3192C66.1945 73.3192 66.2711 73.2852 66.3051 73.2002C66.3051 73.2002 66.3051 73.1832 66.3136 73.1747C66.3476 73.1407 66.3561 73.0982 66.3561 73.0472C66.3561 72.9451 66.3561 72.8346 66.3561 72.7326C66.3561 72.6136 66.3816 72.5881 66.4921 72.5711C66.5431 72.5626 66.5856 72.5626 66.6366 72.5711C66.7217 72.5881 66.7727 72.537 66.7727 72.452C66.7727 72.333 66.7727 72.2055 66.7727 72.0864C66.7727 72.0524 66.7727 72.0269 66.7727 71.9929C66.7727 71.9759 66.7897 71.9674 66.8152 71.9674V72.452C66.8152 72.5711 66.7217 72.6476 66.6111 72.6136C66.5431 72.5966 66.4836 72.6221 66.4156 72.6221C66.4156 72.6221 66.4071 72.6391 66.3986 72.6476L66.4326 72.6306Z" fill="#C8C3BE"/>
<path d="M60.9912 71.9249V71.9675H60.9742C60.9572 71.9164 60.9147 71.942 60.8892 71.942C60.7107 71.942 60.7362 71.9164 60.7362 72.095C60.7362 72.2225 60.7192 72.2395 60.5916 72.2395C60.3536 72.2395 60.107 72.2395 59.8689 72.2395C59.8434 72.2395 59.8179 72.248 59.7924 72.2225C59.7754 72.214 59.7584 72.197 59.7499 72.18C59.7159 72.146 59.7244 72.1035 59.7244 72.0695C59.7414 72.044 59.7244 72.0185 59.7414 72.0015C59.7244 71.942 59.6819 71.9505 59.6394 71.9505C59.5884 71.9505 59.5629 71.9335 59.5629 71.8824V71.8569C59.5629 71.8569 59.5884 71.8739 59.6054 71.8824C59.6139 71.8994 59.6309 71.9164 59.6564 71.9164C59.7924 71.9249 59.8009 71.9419 59.8009 72.078C59.8009 72.1885 59.8179 72.2055 59.9285 72.2055C60.158 72.2055 60.3876 72.2055 60.6171 72.2055C60.6937 72.2055 60.7192 72.18 60.7107 72.1035C60.7107 72.078 60.7107 72.061 60.7107 72.0355C60.7107 71.959 60.7447 71.9249 60.8212 71.9249C60.8892 71.9249 60.9487 71.9079 61.0167 71.942L60.9912 71.9249Z" fill="#C7C7C9"/>
<path d="M61.1265 72.3751C61.1265 72.3751 61.0845 72.3583 61.0677 72.3331C61.0929 72.3331 61.1097 72.3499 61.1265 72.3751Z" fill="#FAF0D8"/>
<path d="M59.7583 72.1801C59.7583 72.1801 59.7923 72.2056 59.8008 72.2226C59.7753 72.2226 59.7583 72.2056 59.7583 72.1801Z" fill="#D3D3D4"/>
<path d="M59.7412 71.9929C59.7412 71.9929 59.7496 72.0433 59.7244 72.0601C59.7244 72.0349 59.716 72.0097 59.7412 71.9929Z" fill="#D3D3D4"/>
<path d="M59.8094 71.1937C59.8094 71.1937 59.852 71.1852 59.869 71.1852C60.107 71.1852 60.3366 71.1852 60.5746 71.1852C60.6937 71.1852 60.7022 71.1852 60.7022 71.3127C60.7022 71.4913 60.7022 71.4828 60.8722 71.4828C60.9062 71.4828 60.9487 71.4828 60.9827 71.4828H60.9998C60.9998 71.4998 60.9998 71.5083 60.9912 71.5168C60.9827 71.5168 60.9657 71.5253 60.9572 71.5253C60.8807 71.5253 60.8127 71.5253 60.7362 71.5253C60.6767 71.5083 60.6512 71.4658 60.6512 71.4147C60.6512 71.3722 60.6512 71.3297 60.6512 71.2872C60.6512 71.2447 60.6512 71.2362 60.6086 71.2362C60.3621 71.2362 60.107 71.2362 59.8605 71.2362C59.8434 71.2362 59.8264 71.2362 59.8094 71.2277C59.8094 71.2277 59.8009 71.2107 59.8094 71.2022V71.1937Z" fill="#8C8C8C"/>
<path d="M59.8095 71.1937V71.2107V71.2362C59.8095 71.2362 59.8095 71.2958 59.8095 71.3213C59.8095 71.3553 59.8095 71.3808 59.8095 71.4148C59.8095 71.4658 59.784 71.5083 59.7245 71.5083C59.6904 71.5083 59.6649 71.5083 59.6309 71.5083H59.6139C59.6139 71.5083 59.5969 71.5593 59.5714 71.5423C59.5714 71.5253 59.5714 71.5168 59.5714 71.4998C59.5884 71.4658 59.6309 71.4743 59.6564 71.4743C59.733 71.4743 59.75 71.4573 59.75 71.3808C59.75 71.3383 59.75 71.2958 59.75 71.2532C59.75 71.2192 59.75 71.1937 59.7925 71.1937H59.8095Z" fill="#939393"/>
<path d="M60.9998 71.4827H60.9828V71.4657C60.9828 71.4657 60.9828 71.4147 60.9998 71.3977C60.9998 71.3297 60.9998 71.2702 60.9998 71.2022C60.9998 71.1511 61.0763 71.0661 61.1273 71.0576C61.1273 71.0576 61.1273 71.0746 61.1273 71.0831C61.0338 71.1766 61.0168 71.2957 61.0253 71.4232C61.0253 71.4487 61.0253 71.4742 60.9913 71.4827H60.9998Z" fill="#F7DCA2"/>
<path d="M59.5884 71.5084V71.5509C59.6224 71.6105 59.6054 71.67 59.6054 71.7295C59.6054 71.772 59.6054 71.806 59.6054 71.8485C59.6054 71.8485 59.5969 71.8655 59.5884 71.8655L59.5629 71.8315C59.5629 71.7465 59.5629 71.67 59.5629 71.5849C59.5629 71.5594 59.5629 71.5254 59.5884 71.5084Z" fill="#A1A1A1"/>
<path d="M60.7446 71.4574H60.9742C60.8977 71.4829 60.8211 71.4829 60.7446 71.4574Z" fill="#E2E1E1"/>
<path d="M60.9993 71.3978C60.9993 71.3978 61.0077 71.4482 60.9909 71.465L60.9741 71.4398L60.9909 71.3978H61.0077H60.9993Z" fill="#F9E1B4"/>
<path d="M66.8407 71.9506L66.8152 71.9676C66.8152 71.9676 66.8067 71.9421 66.8152 71.9336C66.8492 71.8825 66.8917 71.8825 66.9427 71.8825C67.0787 71.8825 67.2233 71.8825 67.3593 71.8825C67.3848 71.8825 67.4188 71.8825 67.4358 71.857C67.4613 71.7635 67.4443 71.6615 67.4443 71.568C67.4443 71.5255 67.4018 71.5255 67.3678 71.5255C67.2318 71.5255 67.0872 71.5255 66.9512 71.5255C66.9257 71.5255 66.9002 71.5255 66.8832 71.5255C66.8067 71.5255 66.7727 71.4829 66.7727 71.4064C66.7727 71.2789 66.7727 71.1514 66.7727 71.0238C66.7727 70.9728 66.7727 70.9218 66.7472 70.8793C66.7472 70.8793 66.7387 70.8708 66.7302 70.8623C66.6536 70.8453 66.5686 70.8623 66.4921 70.8623C66.4071 70.8623 66.3901 70.8453 66.3731 70.7603C66.3476 70.6412 66.3646 70.5137 66.3646 70.3947C66.3646 70.3352 66.3646 70.2756 66.3221 70.2246C66.3221 70.2161 66.3136 70.2076 66.305 70.1991C66.288 70.1651 66.237 70.1566 66.254 70.1056H66.2795L66.2965 70.1311C66.3901 70.2246 66.4241 70.3351 66.4156 70.4627C66.4071 70.5562 66.4156 70.6497 66.4156 70.7433C66.4156 70.8028 66.4411 70.8283 66.4921 70.8283C66.5686 70.8283 66.6366 70.8283 66.7131 70.8283C66.7727 70.8283 66.8152 70.8453 66.8322 70.9218C66.8492 71.0748 66.8322 71.2364 66.8407 71.3894C66.8407 71.4234 66.8407 71.4659 66.8832 71.4829C67.0532 71.4829 67.2318 71.4829 67.4018 71.4829C67.4358 71.4829 67.4698 71.4829 67.4954 71.5085C67.5124 71.6275 67.5209 71.7465 67.4954 71.874C67.4869 71.9166 67.4613 71.9421 67.4103 71.9336C67.2573 71.9336 67.0958 71.9336 66.9427 71.9336C66.9087 71.9336 66.8832 71.9336 66.8577 71.9591L66.8407 71.9506Z" fill="#B0A99F"/>
<path d="M65.3358 70.063V70.08C65.3358 70.08 65.2593 70.1055 65.2253 70.1055C64.052 70.1055 62.8787 70.1055 61.7054 70.1055C61.6714 70.1055 61.6289 70.1055 61.5948 70.1055C61.5438 70.1055 61.5183 70.1395 61.4928 70.1735C61.4758 70.1905 61.4588 70.216 61.4248 70.216C61.4673 70.1055 61.5183 70.0715 61.6289 70.0715C62.8702 70.0715 64.103 70.0715 65.3443 70.0715L65.3358 70.063Z" fill="#F9E3B6"/>
<path d="M61.4163 70.2076L61.4759 70.165C61.4759 70.165 61.4759 70.1905 61.4759 70.199C61.4419 70.3011 61.4419 70.4031 61.4419 70.5136C61.4419 70.6497 61.4419 70.7857 61.4419 70.9217C61.4419 70.9897 61.4248 71.0493 61.3483 71.0833C61.2888 71.1003 61.2293 71.0833 61.1698 71.0833C61.1528 71.0833 61.1358 71.0833 61.1188 71.0663V71.0493C61.1868 71.0238 61.2548 71.0493 61.3228 71.0323C61.3738 71.0068 61.3653 70.9557 61.3653 70.9132C61.3653 70.7262 61.3653 70.5391 61.3653 70.3521C61.3653 70.3096 61.3653 70.2586 61.4078 70.2246V70.199L61.4163 70.2076Z" fill="#F6D38D"/>
<path d="M61.4164 70.233C61.4164 70.233 61.3909 70.2925 61.3909 70.3351C61.3909 70.5306 61.3909 70.7262 61.3909 70.9132C61.3909 70.9642 61.3994 71.0237 61.3398 71.0407C61.2803 71.0492 61.2293 71.0492 61.1698 71.0407C61.2123 71.0152 61.2548 71.0237 61.2888 71.0322C61.3483 71.0322 61.3653 71.0067 61.3653 70.9557C61.3653 70.7602 61.3653 70.5646 61.3653 70.3691C61.3653 70.3181 61.3568 70.267 61.4164 70.2415V70.233Z" fill="#F9E1B4"/>
<path d="M61.1612 71.0408H61.3313C61.2633 71.0663 61.1953 71.0408 61.1357 71.0578C61.1357 71.0493 61.1527 71.0408 61.1612 71.0408Z" fill="#F7DCA2"/>
<path d="M66.2455 70.0885C66.2455 70.0885 66.288 70.1395 66.305 70.1735C66.2455 70.2075 66.237 70.1395 66.203 70.1225C66.1775 70.1055 66.1435 70.114 66.1095 70.114C65.8629 70.114 65.6163 70.114 65.3698 70.114C65.3613 70.114 65.3528 70.114 65.3443 70.114C65.3358 70.114 65.3358 70.097 65.3443 70.0885C65.6078 70.0885 65.8799 70.0885 66.1435 70.0885C66.1775 70.0885 66.2115 70.0885 66.2455 70.1055V70.0885Z" fill="#9A9186"/>
<path d="M61.3568 71.0747C61.4163 71.0407 61.4249 70.9897 61.4249 70.9217C61.4249 70.7432 61.4249 70.5646 61.4249 70.3946C61.4249 70.318 61.4419 70.25 61.4674 70.182C61.4844 70.165 61.5099 70.148 61.5184 70.1225C61.5269 70.114 61.5439 70.1055 61.5609 70.114C61.5779 70.114 61.5864 70.114 61.5949 70.131C61.6119 70.1565 61.6374 70.1565 61.6544 70.1565C61.6799 70.1565 61.7054 70.1565 61.7224 70.1565C62.8617 70.1565 64.0095 70.1565 65.1488 70.1565C65.1998 70.1565 65.2508 70.1395 65.3018 70.1565C65.3188 70.1735 65.3188 70.199 65.3188 70.2245C65.3188 70.6156 65.3188 71.0067 65.3188 71.3978C65.3188 71.4063 65.3188 71.4233 65.3188 71.4318C65.3018 71.4743 65.2678 71.4658 65.2338 71.4743H65.2168C65.1828 71.4743 65.1488 71.4828 65.1318 71.5169C65.1233 71.5339 65.1063 71.5509 65.0893 71.5594C65.0213 71.5764 65.0128 71.6189 65.0128 71.6784C65.0128 71.7294 65.0383 71.7634 65.0638 71.8059C65.0893 71.8569 65.1403 71.8314 65.1828 71.8569C65.2168 71.8739 65.2593 71.8569 65.2933 71.8739C65.3103 71.8739 65.3188 71.8824 65.3188 71.8994C65.3188 71.9165 65.3188 71.942 65.3188 71.959C65.3188 72.3671 65.3188 72.7752 65.3188 73.1833C65.3188 73.2003 65.3188 73.2088 65.3103 73.2258C65.2933 73.2598 65.2678 73.2683 65.2338 73.2683C65.2168 73.2683 65.1913 73.2683 65.1743 73.2683C64.0095 73.2683 62.8447 73.2683 61.6799 73.2683C61.6374 73.2683 61.5949 73.2683 61.5524 73.2513C61.5354 73.2513 61.5269 73.2343 61.5269 73.2173C61.5694 73.1833 61.6204 73.1918 61.6629 73.1918C62.7512 73.1918 63.8395 73.1918 64.9362 73.1918C65.0213 73.1918 65.1063 73.1918 65.1913 73.1918C65.1573 73.1748 65.1233 73.1748 65.0893 73.1748C64.5706 73.1748 64.052 73.1748 63.5419 73.1748C62.8872 73.1748 62.2411 73.1748 61.5864 73.1748C61.5184 73.1748 61.4929 73.1493 61.4929 73.0728C61.4929 72.8942 61.4929 72.7157 61.4929 72.5371C61.4929 72.5031 61.4929 72.4691 61.4759 72.4266C61.4589 72.4521 61.4674 72.4776 61.4674 72.4946C61.4674 72.6817 61.4674 72.8687 61.4674 73.0557C61.4674 73.0898 61.4674 73.1238 61.4419 73.1578C61.4163 73.1153 61.4163 73.0727 61.4163 73.0302C61.4163 72.8432 61.4163 72.6561 61.4163 72.4691C61.4163 72.3756 61.3653 72.3161 61.2718 72.3246C61.2038 72.3246 61.1443 72.3161 61.0933 72.282H61.1018C61.1018 72.282 61.1528 72.265 61.1868 72.265C61.2378 72.265 61.2803 72.265 61.3313 72.265C61.3738 72.248 61.3568 72.214 61.3568 72.1885C61.3568 71.8909 61.3568 71.5849 61.3568 71.2873C61.3568 71.2363 61.3568 71.1938 61.3653 71.1513C61.3653 71.1258 61.3653 71.1087 61.3483 71.0917L61.3568 71.0747Z" fill="#F4C76E"/>
<path d="M61.3398 72.2736H61.1868C61.1868 72.2736 61.1442 72.214 61.1017 72.2225C61.0677 72.214 61.0507 72.18 61.0337 72.146C61.0337 72.0695 61.0507 71.9845 61.0167 71.908C60.9997 71.8995 60.9912 71.8825 60.9912 71.8569C60.9912 71.8569 60.9912 71.8399 60.9912 71.8314C60.9997 71.7294 60.9912 71.6189 60.9997 71.5169C61.0337 71.4573 61.0252 71.3893 61.0167 71.3298C61.0167 71.2448 61.0337 71.1853 61.0932 71.1343C61.1187 71.1258 61.1357 71.1088 61.1442 71.0833C61.1442 71.0833 61.1527 71.0833 61.1613 71.0833C61.1613 71.0833 61.1698 71.0833 61.1783 71.0918C61.2123 71.1173 61.2548 71.1003 61.2973 71.1088C61.3228 71.1088 61.3483 71.1003 61.3568 71.1343C61.3568 71.4828 61.3568 71.8314 61.3568 72.18C61.3568 72.214 61.3568 72.248 61.3398 72.2821V72.2736Z" fill="#F2C268"/>
<path d="M61.4589 73.1578C61.4589 72.9112 61.4589 72.6731 61.4589 72.4266C61.4589 72.4096 61.4504 72.3756 61.4759 72.3671C61.5014 72.3671 61.5099 72.3926 61.5269 72.4096C61.5354 72.4266 61.5354 72.4521 61.5354 72.4691C61.5354 72.6731 61.5354 72.8772 61.5354 73.0812C61.5354 73.1237 61.5354 73.1663 61.6034 73.1493C61.6204 73.1493 61.6459 73.1493 61.6629 73.1493C62.8192 73.1493 63.9755 73.1493 65.1318 73.1493C65.1658 73.1493 65.1998 73.1493 65.2253 73.1578C65.2423 73.1578 65.2678 73.1663 65.2678 73.2003C65.2678 73.2258 65.2423 73.2173 65.2253 73.2173C65.2083 73.2173 65.1913 73.2173 65.1743 73.2173H61.5439C61.4929 73.2343 61.4844 73.1918 61.4589 73.1578C61.4589 73.1578 61.4589 73.1493 61.4589 73.1408V73.1578Z" fill="#F3C66B"/>
<path d="M61.4588 73.1663C61.4588 73.1663 61.5013 73.2258 61.5438 73.2258C61.5523 73.2683 61.5948 73.2513 61.6203 73.2513C61.9774 73.2513 62.3345 73.2513 62.6916 73.2513C63.5333 73.2513 64.3751 73.2513 65.2168 73.2513C65.2508 73.2513 65.2848 73.2513 65.3103 73.2258C65.3273 73.2343 65.3273 73.2513 65.3358 73.2683C65.3358 73.2768 65.3358 73.2853 65.3273 73.2938C64.1115 73.2938 62.8957 73.2938 61.6799 73.2938C61.6033 73.2938 61.5438 73.2683 61.4843 73.2258C61.4673 73.2088 61.4503 73.1918 61.4588 73.1663Z" fill="#F5CB79"/>
<path d="M60.9997 71.8655L61.0167 71.908L60.9912 71.925C60.9317 71.925 60.8637 71.925 60.8042 71.925C60.7361 71.925 60.7106 71.959 60.7106 72.0185C60.7106 72.0695 60.7361 72.112 60.7106 72.1631C60.6936 72.1886 60.6851 72.2056 60.6511 72.2056C60.3875 72.2056 60.124 72.2056 59.8689 72.2056C59.8094 72.2056 59.7839 72.1631 59.7839 72.112C59.7839 72.078 59.7839 72.0525 59.7839 72.0185C59.7839 71.9335 59.7669 71.925 59.6904 71.9165C59.6734 71.9165 59.6479 71.9165 59.6309 71.8995C59.7159 71.857 59.7754 71.874 59.8264 71.9505C59.8349 71.9845 59.8349 72.0185 59.8264 72.044C59.8264 72.078 59.8179 72.112 59.8519 72.1375C59.8774 72.1546 59.9029 72.1546 59.9284 72.1546C60.141 72.1546 60.362 72.1546 60.5746 72.1546C60.6851 72.1546 60.6936 72.1461 60.6936 72.0355C60.6936 72.0185 60.6936 72.0015 60.6936 71.976C60.6936 71.8995 60.7276 71.874 60.8042 71.8655C60.8807 71.8655 60.9487 71.8655 61.0252 71.8655H60.9997Z" fill="#A1A1A1"/>
<path d="M61.0337 72.146C61.0337 72.146 61.0677 72.2055 61.1017 72.214C61.1187 72.231 61.1187 72.248 61.1017 72.2735C61.0847 72.231 61.0252 72.2055 61.0337 72.146Z" fill="#F4C76E"/>
<path d="M65.3273 73.2938V73.2683C65.3273 73.2683 65.3273 73.2428 65.3273 73.2258C65.3613 73.2173 65.3613 73.2428 65.3698 73.2598C65.3698 73.2768 65.3868 73.3023 65.3698 73.3193H65.3443L65.3273 73.2938Z" fill="#C3AB80"/>
<path d="M67.4529 71.8653C67.4529 71.8653 67.4104 71.8908 67.3933 71.8908C67.2403 71.8908 67.0873 71.8908 66.9427 71.8908C66.8917 71.8908 66.8577 71.8993 66.8237 71.9333C66.8067 71.9588 66.8067 71.9843 66.8067 72.0183C66.8067 72.1544 66.8067 72.2989 66.8067 72.435C66.8067 72.5285 66.7557 72.571 66.6707 72.554C66.6027 72.537 66.5431 72.554 66.4751 72.554C66.4241 72.554 66.3901 72.605 66.3901 72.6645C66.3901 72.7835 66.3901 72.9026 66.3901 73.0216C66.3901 73.0726 66.3731 73.1236 66.3391 73.1661C66.3391 73.1661 66.3391 73.1661 66.3391 73.1746C66.3221 73.1916 66.3306 73.2341 66.2881 73.2256C66.2711 73.2001 66.2966 73.1831 66.3051 73.1576V73.1321C66.3306 73.0811 66.3221 73.0386 66.3221 72.9876C66.3221 72.8856 66.3221 72.792 66.3221 72.69C66.3221 72.5625 66.3986 72.4945 66.5261 72.486C66.5856 72.486 66.6367 72.486 66.6962 72.486C66.7132 72.486 66.7217 72.486 66.7387 72.469C66.7642 72.4434 66.7472 72.4179 66.7557 72.3924C66.7557 72.2394 66.7472 72.0949 66.7557 71.9418C66.8067 71.8653 66.8662 71.8313 66.9597 71.8313C67.0958 71.8313 67.2403 71.8313 67.3763 71.8313C67.4104 71.8313 67.4359 71.8313 67.4614 71.8483L67.4529 71.8653Z" fill="#92897D"/>
<path d="M66.3306 73.1747C66.3816 73.0897 66.3731 72.9962 66.3731 72.9026C66.3731 72.8261 66.3731 72.7496 66.3731 72.6731C66.3731 72.5966 66.4156 72.5626 66.4921 72.5541C66.5601 72.5541 66.6196 72.5541 66.6877 72.5541C66.7557 72.5541 66.7897 72.5285 66.7897 72.4605C66.7897 72.316 66.7897 72.1714 66.7897 72.0184C66.7897 71.9929 66.7897 71.9589 66.8152 71.9419V71.9674C66.8152 72.1289 66.8152 72.282 66.8152 72.4435C66.8152 72.537 66.7472 72.5966 66.6621 72.5796C66.5941 72.5626 66.5261 72.5796 66.4581 72.5796C66.4071 72.5796 66.3901 72.6391 66.3901 72.6901C66.3901 72.8091 66.3901 72.9366 66.3901 73.0557C66.3901 73.1067 66.3901 73.1492 66.3306 73.1747Z" fill="#A69F96"/>
<path d="M66.271 73.2257C66.271 73.2257 66.305 73.2002 66.3305 73.1832C66.322 73.2512 66.22 73.3278 66.1434 73.3278C65.8799 73.3278 65.6248 73.3278 65.3612 73.3278L65.3442 73.2768H65.3527C65.3527 73.2768 65.4123 73.2768 65.4463 73.2768C65.6503 73.2768 65.8629 73.2768 66.0669 73.2768C66.1179 73.2768 66.1605 73.2768 66.203 73.2512C66.22 73.2512 66.237 73.2257 66.2625 73.2257H66.271Z" fill="#9F968B"/>
<path d="M59.8009 71.9675C59.7584 71.8909 59.6819 71.9165 59.6138 71.908C59.5968 71.908 59.5883 71.8824 59.5798 71.8654C59.6393 71.8484 59.6989 71.8654 59.7584 71.8824C59.7924 71.8995 59.8179 71.925 59.7924 71.9675H59.8009Z" fill="#939393"/>
<path d="M60.7361 71.5083H60.9742V71.5253C60.9571 71.5338 60.9401 71.5338 60.9146 71.5338C60.8636 71.5338 60.8211 71.5338 60.7701 71.5338C60.7616 71.5338 60.7446 71.5338 60.7361 71.5338C60.7021 71.5593 60.6596 71.5678 60.6086 71.5678C60.379 71.5678 60.1494 71.5678 59.9199 71.5678C59.8604 71.5678 59.8094 71.5423 59.7583 71.5253C59.7413 71.5253 59.7243 71.5253 59.7073 71.5253C59.6818 71.5253 59.6478 71.5253 59.6223 71.5083C59.6223 71.5083 59.6138 71.4998 59.6223 71.4913C59.6223 71.4913 59.6903 71.4913 59.7243 71.4913C59.8094 71.4913 59.8094 71.4828 59.8179 71.3978C59.8179 71.3468 59.8009 71.2958 59.8179 71.2448C59.8774 71.2703 59.8434 71.3213 59.8519 71.3638C59.8519 71.3808 59.8519 71.3978 59.8519 71.4233C59.8519 71.4318 59.8519 71.4403 59.8519 71.4488C59.9029 71.4148 59.9624 71.4063 60.0219 71.4063C60.192 71.4063 60.362 71.4063 60.532 71.4063C60.5575 71.4063 60.5831 71.4063 60.6001 71.4063H60.6171H60.6341C60.6511 71.4573 60.6681 71.4998 60.7276 71.4998L60.7361 71.5083Z" fill="#6B6B6D"/>
<path d="M60.9742 71.5254V71.5084H61.0082C61.0082 71.6275 61.0167 71.738 61.0082 71.8485V71.8655C61.0082 71.8655 60.9657 71.891 60.9402 71.891C60.8977 71.891 60.8552 71.891 60.8127 71.891C60.7191 71.891 60.7021 71.908 60.7021 72.0101C60.7021 72.0271 60.7021 72.0441 60.7021 72.0696C60.7021 72.1631 60.6851 72.1801 60.5916 72.1801C60.3876 72.1801 60.1835 72.1801 59.9795 72.1801H59.8774C59.8774 72.1801 59.8349 72.1801 59.8264 72.1546H59.8349C59.8774 72.1376 59.9199 72.1376 59.971 72.1376C60.192 72.1376 60.4046 72.1376 60.6256 72.1376C60.6256 72.1376 60.6426 72.1376 60.6426 72.1291C60.6681 72.1036 60.6511 72.0781 60.6426 72.0526C60.6256 71.908 60.6766 71.8485 60.8212 71.8485C60.8637 71.8485 60.9147 71.8485 60.9572 71.8485C60.9572 71.8485 60.9657 71.84 60.9742 71.8315C60.9912 71.738 60.9742 71.6445 60.9827 71.5594L60.9742 71.5254Z" fill="#7E7D7E"/>
<path d="M60.6341 71.4148H60.6171C60.6171 71.4148 60.6001 71.3978 60.6001 71.3808C60.6001 71.3553 60.6001 71.3383 60.6001 71.3128C60.6001 71.2617 60.5831 71.2362 60.5321 71.2532C60.3366 71.2532 60.141 71.2532 59.9455 71.2532C59.9114 71.2447 59.8689 71.2617 59.8519 71.2192H60.6341C60.6766 71.2617 60.6766 71.3723 60.6341 71.4148Z" fill="#646465"/>
<path d="M61.1272 71.1426C61.0676 71.1937 61.0166 71.2362 61.0251 71.3212C61.0251 71.3807 61.0421 71.4487 61.0166 71.5082C61.0166 71.5082 61.0166 71.5082 60.9996 71.5082V71.4742C61.0336 71.4232 61.0251 71.3722 61.0166 71.3212C61.0081 71.2107 61.0506 71.1256 61.1357 71.0576H61.1782C61.1782 71.0576 61.1782 71.0576 61.1782 71.0661H61.1612C61.1612 71.0661 61.1442 71.1086 61.1357 71.1256L61.1272 71.1426Z" fill="#F3C771"/>
<path d="M60.6342 71.4148C60.6597 71.3468 60.6597 71.2788 60.6342 71.2192C60.6767 71.2192 60.6937 71.2277 60.6852 71.2788C60.6682 71.3298 60.6852 71.3893 60.6852 71.4403C60.6852 71.4828 60.7107 71.4998 60.7447 71.5168C60.6512 71.5168 60.6512 71.5083 60.6427 71.4148H60.6342Z" fill="#767677"/>
<path d="M59.8519 71.2108C59.8519 71.2108 59.9114 71.2193 59.9369 71.2278C59.8944 71.2703 59.8689 71.3383 59.8264 71.3809C59.8264 71.3383 59.8434 71.2958 59.8094 71.2533C59.8009 71.2363 59.8009 71.2278 59.8094 71.2108H59.8519Z" fill="#585858"/>
<path d="M59.6138 71.5084C59.6138 71.5084 59.6138 71.5169 59.6138 71.5254C59.6394 71.5509 59.6309 71.5934 59.6309 71.6275C59.6309 71.687 59.6309 71.755 59.6309 71.8145C59.6564 71.84 59.6904 71.8315 59.7159 71.8315C59.7839 71.8315 59.8179 71.8655 59.8179 71.942C59.8179 72.01 59.8349 72.0866 59.8009 72.1461C59.8009 72.1461 59.7669 72.0951 59.7754 72.0611C59.7754 72.0271 59.7839 71.993 59.7839 71.9675C59.7839 71.8825 59.7159 71.891 59.6734 71.8825C59.6394 71.8825 59.6053 71.8825 59.5798 71.8655V71.5509L59.6053 71.5084H59.6138Z" fill="#7B7B7B"/>
<path d="M59.8094 71.2108V71.2533C59.8094 71.3043 59.8094 71.3553 59.8094 71.4063C59.8094 71.4743 59.7754 71.5083 59.7074 71.5083C59.7074 71.5083 59.7074 71.5083 59.7074 71.4998C59.7669 71.4998 59.7924 71.4658 59.7924 71.4063C59.7924 71.3723 59.7924 71.3383 59.7924 71.3043C59.7839 71.2788 59.7839 71.2448 59.7924 71.2193L59.8094 71.2023V71.2108Z" fill="#7B7B7B"/>
<path d="M59.7159 71.4998V71.5168H59.6139C59.6139 71.5168 59.6819 71.5083 59.7159 71.4998Z" fill="#8C8C8C"/>
<path d="M59.8009 71.2279V71.3129C59.8009 71.3129 59.7839 71.2534 59.8009 71.2279Z" fill="#8C8C8C"/>
<path d="M67.4528 71.8654C67.2997 71.8654 67.1467 71.8654 66.9937 71.8654C66.9001 71.8654 66.8236 71.8824 66.7641 71.9504C66.7641 71.8909 66.7811 71.8569 66.8576 71.8229C66.8576 71.8229 66.8746 71.8229 66.8831 71.8229C67.0362 71.8229 67.1892 71.8229 67.3423 71.8229C67.4358 71.8229 67.4358 71.8229 67.4358 71.7209C67.4358 71.5338 67.4528 71.5593 67.2657 71.5508C67.1297 71.5508 67.0022 71.5508 66.8661 71.5508C66.8576 71.5508 66.8491 71.5508 66.8406 71.5508C66.8406 71.5508 66.8236 71.5508 66.8151 71.5423C66.7556 71.5083 66.7301 71.4573 66.7301 71.3893C66.7301 71.2192 66.7301 71.0577 66.7301 70.8876C66.7301 70.8706 66.7301 70.8621 66.7301 70.8536C66.7811 70.8876 66.7726 70.9472 66.7726 70.9982C66.7726 71.1257 66.7726 71.2532 66.7726 71.3893C66.7726 71.4913 66.7981 71.5083 66.9001 71.5083C67.0617 71.5083 67.2147 71.5083 67.3763 71.5083C67.4358 71.5083 67.4613 71.5253 67.4613 71.5933C67.4528 71.6868 67.4783 71.7889 67.4443 71.8824L67.4528 71.8654Z" fill="#707071"/>
<path d="M66.7387 70.8452V70.8707H66.7302C66.7302 70.8707 66.7047 70.8707 66.6962 70.8707C66.6792 70.8707 66.6621 70.8707 66.6536 70.8707C66.5431 70.8707 66.4326 70.8962 66.3221 70.8452C66.2881 70.8197 66.2966 70.7772 66.2966 70.7432C66.2966 70.6071 66.2966 70.4711 66.2966 70.3351C66.2796 70.2926 66.3136 70.2245 66.237 70.199C66.203 70.182 66.186 70.1565 66.186 70.114C66.1945 70.114 66.203 70.114 66.22 70.114C66.2541 70.131 66.2541 70.182 66.3051 70.1735L66.3221 70.1905C66.3816 70.3096 66.3646 70.4456 66.3646 70.5731C66.3646 70.6326 66.3646 70.6922 66.3646 70.7517C66.3816 70.8197 66.3986 70.8367 66.4666 70.8367C66.5601 70.8367 66.6452 70.8367 66.7387 70.8367V70.8452Z" fill="#796E5F"/>
<path d="M66.7386 70.8451C66.6451 70.8451 66.543 70.8451 66.4495 70.8451C66.3815 70.8451 66.3475 70.8026 66.339 70.7431C66.339 70.5561 66.3475 70.3775 66.3135 70.199C66.356 70.25 66.373 70.3095 66.373 70.3775C66.373 70.5051 66.3645 70.6326 66.3815 70.7686C66.39 70.8281 66.424 70.8451 66.475 70.8451C66.543 70.8451 66.6025 70.8451 66.6706 70.8451C66.6961 70.8451 66.7216 70.8451 66.7386 70.8621V70.8451Z" fill="#988E82"/>
<path d="M61.5864 70.1225H61.5609C61.5609 70.1225 61.5609 70.1055 61.5609 70.097C61.5864 70.0885 61.6034 70.08 61.6289 70.08C62.8702 70.08 64.1031 70.08 65.3444 70.08V70.097C65.3444 70.097 65.3189 70.131 65.2934 70.1395C65.2593 70.148 65.2168 70.1395 65.1828 70.1395C64.0265 70.1395 62.8702 70.1395 61.714 70.1395C61.6714 70.1395 61.6204 70.148 61.5864 70.114V70.1225Z" fill="#F6D28A"/>
<path d="M61.5523 70.0884V70.1139C61.5523 70.1139 61.5268 70.1139 61.5268 70.1309C61.5098 70.1479 61.5013 70.1734 61.4673 70.1564C61.4673 70.1564 61.5013 70.0799 61.5523 70.0884Z" fill="#F6D38D"/>
<path d="M61.1698 71.0833V71.0663H61.3568C61.3568 71.0663 61.4334 71.0663 61.3994 71.1258C61.3823 71.1513 61.3909 71.1768 61.3909 71.2023C61.3909 71.5339 61.3909 71.8655 61.3909 72.1971C61.3909 72.2311 61.3994 72.2736 61.3483 72.2821C61.3483 71.9335 61.3483 71.5849 61.3483 71.2363C61.3483 71.1938 61.3483 71.1598 61.3653 71.1173C61.3313 71.0918 61.2973 71.1173 61.2633 71.1173C61.2378 71.1173 61.2038 71.1173 61.1783 71.1003L61.1698 71.0833Z" fill="#F3C56A"/>
<path d="M61.4673 70.1647C61.4673 70.1647 61.5009 70.1479 61.5261 70.1395C61.5261 70.1731 61.5009 70.1815 61.4673 70.1815V70.1647Z" fill="#F6D28A"/>
<path d="M65.3104 70.1224C65.3104 70.1224 65.3189 70.0969 65.3359 70.0969H65.3529C65.3529 70.0969 65.3699 70.1224 65.3699 70.1309C65.3699 70.1479 65.3699 70.1649 65.3699 70.1819C65.3699 70.5815 65.3699 70.9811 65.3699 71.3892C65.3699 71.4148 65.3699 71.4488 65.3699 71.4743C65.3699 71.5253 65.3444 71.5678 65.2848 71.5763C65.2423 71.5763 65.2253 71.6018 65.2338 71.6443C65.2338 71.7038 65.2253 71.7633 65.2423 71.8229C65.2848 71.8484 65.3529 71.8314 65.3699 71.8994C65.3784 71.9929 65.3699 72.0779 65.3699 72.1714C65.3699 72.503 65.3699 72.8431 65.3699 73.1747C65.3699 73.2087 65.3699 73.2427 65.3529 73.2767L65.3274 73.2342C65.3274 73.2342 65.3274 73.2087 65.3274 73.1917C65.3274 72.7836 65.3274 72.3755 65.3274 71.9674C65.3274 71.9419 65.3359 71.9164 65.3274 71.8994H65.3018C65.1913 71.8824 65.1828 71.8739 65.1743 71.7633C65.1743 71.7038 65.1743 71.6528 65.1743 71.5933C65.1828 71.5338 65.2168 71.4913 65.2848 71.4828C65.3274 71.4828 65.3359 71.4573 65.3359 71.4233C65.3359 71.0152 65.3359 70.607 65.3359 70.1989C65.3359 70.1819 65.3359 70.1649 65.3274 70.1394V70.1224H65.3104Z" fill="#BB9B5F"/>
<path d="M65.3527 70.1224V70.0969C65.6163 70.0969 65.8884 70.0969 66.152 70.0969C66.1775 70.0969 66.203 70.0884 66.2115 70.1224H66.186C66.186 70.1224 66.169 70.1309 66.1605 70.1394C66.0669 70.1564 65.9734 70.1394 65.8799 70.1394C65.7098 70.1394 65.5398 70.1479 65.3698 70.1394C65.3612 70.1394 65.3527 70.1394 65.3442 70.1224H65.3527Z" fill="#908677"/>
<path d="M61.5863 70.1224H65.3102C65.3102 70.1224 65.3187 70.1479 65.3102 70.1649C65.2422 70.1819 65.1742 70.1819 65.0977 70.1819C63.9584 70.1819 62.8191 70.1819 61.6713 70.1819C61.6288 70.1819 61.5863 70.1819 61.5778 70.1224H61.5863Z" fill="#F3C467"/>
<path d="M62.4451 71.6954C62.4451 71.7974 62.4451 71.8994 62.4451 72.0099C62.4451 72.0695 62.4281 72.1035 62.3771 72.1205C62.3261 72.1375 62.2836 72.163 62.2241 72.1715C62.139 72.1715 62.0795 72.129 62.003 72.1035C61.969 72.0865 61.969 72.0524 61.9775 72.0184C62.003 71.8314 61.9945 71.6443 61.9775 71.4658C61.9775 71.4233 61.9775 71.3723 61.9775 71.3213C61.9775 71.2703 62.02 71.2448 62.071 71.2448C62.156 71.2448 62.2411 71.2448 62.3261 71.2448C62.4196 71.2448 62.4451 71.2703 62.4451 71.3638C62.4451 71.4743 62.4451 71.5848 62.4451 71.6954Z" fill="#F3C56A"/>
<path d="M65.3103 70.1649V70.1224C65.3103 70.1224 65.3273 70.1649 65.3273 70.1904C65.3273 70.5986 65.3273 71.0067 65.3273 71.4148C65.3273 71.4658 65.3273 71.4998 65.2593 71.4998C65.2168 71.4998 65.1998 71.5253 65.1913 71.5678C65.1658 71.6528 65.1743 71.7463 65.1913 71.8314C65.1998 71.8909 65.2593 71.8654 65.2933 71.8909C65.2593 71.8909 65.2168 71.9079 65.1828 71.8739C65.1658 71.8484 65.1318 71.8399 65.1233 71.8059C65.1148 71.7293 65.1233 71.6528 65.1233 71.5848C65.1233 71.5848 65.1233 71.5678 65.1233 71.5593C65.1403 71.5083 65.1743 71.4828 65.2168 71.4658H65.2338C65.2338 71.4658 65.2933 71.4658 65.3188 71.4488V70.1564L65.3103 70.1649Z" fill="#EABC66"/>
<path d="M65.1232 71.5509V71.5679C65.0637 71.6359 65.0892 71.7124 65.0892 71.7889C65.0892 71.8144 65.1062 71.8229 65.1232 71.8229C65.1487 71.8314 65.1657 71.8484 65.1657 71.8824C65.1317 71.8654 65.0807 71.8994 65.0467 71.8399C65.0127 71.7719 64.9872 71.7124 64.9957 71.6359C64.9957 71.5934 65.0212 71.5594 65.0637 71.5594C65.0977 71.5594 65.1062 71.5339 65.1232 71.5168C65.1317 71.5339 65.1317 71.5423 65.1232 71.5594V71.5509Z" fill="#F2C46A"/>
<path d="M65.3103 71.891C65.3103 71.891 65.3273 71.9165 65.3273 71.925C65.3273 72.3501 65.3273 72.7667 65.3273 73.1918C65.3273 73.1918 65.3188 73.1918 65.3103 73.1918V71.891Z" fill="#EABC66"/>
<path d="M61.1017 72.2736V72.2141C61.1102 72.1631 61.1357 72.1971 61.1442 72.2141C61.1612 72.2311 61.1867 72.2396 61.1867 72.2736H61.1017Z" fill="#F2C163"/>
<path d="M65.1233 71.5508V71.5083C65.1233 71.5083 65.1743 71.4658 65.2083 71.4658C65.1743 71.4913 65.1488 71.5168 65.1233 71.5508Z" fill="#EFC66D"/>
<path d="M65.3104 71.4574C65.3104 71.4574 65.2508 71.4659 65.2253 71.4744C65.2508 71.4489 65.2849 71.4659 65.3104 71.4574Z" fill="#EFC66D"/>
<path d="M65.3103 73.2003C65.3103 73.2003 65.3187 73.2003 65.3271 73.2003V73.2675C65.3271 73.2675 65.3103 73.2423 65.3103 73.2255V73.2003Z" fill="#EEC66D"/>
<path d="M61.1698 71.0833C61.2123 71.0833 61.2548 71.0833 61.2973 71.0833C61.3228 71.0833 61.3483 71.0833 61.3483 71.1088C61.2973 71.1258 61.2548 71.1258 61.2038 71.1258C61.1698 71.1258 61.1613 71.1088 61.1613 71.0833H61.1698Z" fill="#F2C060"/>
<path d="M60.9996 71.5168H61.0166C61.0166 71.6019 61.0166 71.6954 61.0166 71.7804C61.0166 71.8059 61.0251 71.8314 61.0081 71.8484V71.5168H60.9996Z" fill="#8C8C8C"/>
<path d="M61.1273 71.142C61.1273 71.142 61.1357 71.1 61.1525 71.0833C61.1525 71.1084 61.1525 71.1252 61.1273 71.142Z" fill="#F3C56A"/>
<path d="M66.2711 73.2258C66.2711 73.2258 66.2541 73.2598 66.2285 73.2513C66.1775 73.2683 66.118 73.2768 66.0585 73.2768C65.8545 73.2768 65.6504 73.2768 65.4463 73.2768C65.3613 73.2768 65.3613 73.2768 65.3613 73.1918C65.3613 72.8007 65.3613 72.4011 65.3613 72.01C65.3613 72.0015 65.3613 71.993 65.3613 71.9845H65.3783C65.3783 71.9845 65.3953 71.9845 65.3953 72.0015C65.4123 72.0355 65.4378 72.027 65.4634 72.027C65.7269 72.027 65.9905 72.027 66.2456 72.027C66.2626 72.027 66.2881 72.027 66.3051 72.027C66.3731 72.0015 66.3816 72.01 66.3816 72.078C66.3816 72.2141 66.4071 72.3501 66.3561 72.4861C66.3476 72.5116 66.3561 72.5116 66.3816 72.5116C66.3816 72.5116 66.3986 72.5116 66.4071 72.5116C66.4751 72.5116 66.5516 72.5116 66.6196 72.5116C66.6451 72.5116 66.6707 72.5116 66.6877 72.5371C66.6281 72.5626 66.5601 72.5456 66.4921 72.5456C66.3816 72.5456 66.3136 72.6137 66.3136 72.7242C66.3136 72.8432 66.3136 72.9707 66.3136 73.0898C66.3136 73.1238 66.3136 73.1663 66.2881 73.1918C66.2626 73.1578 66.2626 73.1238 66.2626 73.0898C66.2626 72.9622 66.2626 72.8347 66.2626 72.7157C66.2626 72.8347 66.2711 72.9622 66.2541 73.0813C66.237 73.1833 66.2115 73.2088 66.1095 73.2088C65.9055 73.2088 65.7099 73.2088 65.5059 73.2088C65.4804 73.2088 65.4463 73.2088 65.4123 73.2088C65.4463 73.2173 65.4634 73.2173 65.4889 73.2173C65.6929 73.2173 65.897 73.2173 66.0925 73.2173C66.135 73.2173 66.186 73.2173 66.22 73.1833C66.2371 73.1663 66.2626 73.1663 66.2796 73.1833C66.2796 73.2088 66.2626 73.2173 66.2541 73.2428L66.2711 73.2258Z" fill="#796C5B"/>
<path d="M66.7047 72.5031H66.4072C66.3902 72.4436 66.4327 72.4266 66.4752 72.4181C66.5092 72.4096 66.5432 72.4181 66.5772 72.4181C66.6622 72.4181 66.6707 72.4096 66.6707 72.3331C66.6707 72.2395 66.6707 72.1375 66.6707 72.044C66.6707 72.0185 66.6707 71.993 66.6707 71.976C66.6707 71.9505 66.6877 71.9335 66.7047 71.9335C66.7302 71.9335 66.7387 71.9505 66.7472 71.9675C66.7472 72.1205 66.7472 72.2736 66.7472 72.4266C66.7472 72.4606 66.7472 72.4861 66.7472 72.5201H66.7047V72.5031Z" fill="#6D604F"/>
<path d="M66.7386 72.4182V71.9505C66.7386 71.9505 66.7216 71.8825 66.7471 71.857C66.8066 71.806 66.8066 71.7465 66.7981 71.6785C66.7981 71.6275 66.7811 71.5849 66.7981 71.5339C66.7981 71.5339 66.8151 71.5254 66.8151 71.5339H66.8321C66.8661 71.636 66.9086 71.738 66.8321 71.8485C66.7896 71.874 66.7556 71.908 66.7471 71.959V72.4267C66.7471 72.4267 66.7386 72.4267 66.7301 72.4267L66.7386 72.4182Z" fill="#6D665D"/>
<path d="M66.7386 72.4181C66.7386 72.4181 66.7471 72.4181 66.7556 72.4181C66.7556 72.4436 66.7727 72.4776 66.7386 72.5031V72.4181Z" fill="#726657"/>
<path d="M65.3698 71.9759C65.3698 72.3755 65.3698 72.7751 65.3698 73.1747C65.3698 73.2342 65.3868 73.2513 65.4463 73.2513C65.7099 73.2513 65.9734 73.2513 66.237 73.2513C66.1945 73.2853 66.135 73.2938 66.0755 73.2938C65.8629 73.2938 65.6504 73.2938 65.4378 73.2938C65.4038 73.2938 65.3783 73.2938 65.3528 73.2683C65.3528 72.8006 65.3528 72.3415 65.3528 71.8739C65.3613 71.8739 65.3698 71.8739 65.3698 71.8739C65.3868 71.9079 65.3868 71.9419 65.3698 71.9674V71.9759Z" fill="#85796B"/>
<path d="M59.7414 71.5253C60.0135 71.6103 60.294 71.5508 60.5746 71.5678C60.6341 71.5678 60.6936 71.5678 60.7361 71.5253C60.7702 71.5508 60.8127 71.5678 60.8637 71.5593C60.9147 71.5593 60.9402 71.5848 60.9402 71.6358C60.9402 71.6443 60.9402 71.6528 60.9402 71.6613C60.9402 71.7123 60.9402 71.7718 60.8977 71.7888C60.8382 71.8058 60.7702 71.8228 60.7106 71.7633C60.6851 71.7378 60.6596 71.7293 60.6341 71.7293C60.3876 71.7293 60.141 71.7293 59.8944 71.7293C59.8859 71.7293 59.8774 71.7293 59.8604 71.7463C59.8944 71.7633 59.9199 71.7548 59.9455 71.7548C60.1495 71.7548 60.3621 71.7548 60.5661 71.7548C60.6766 71.7548 60.7872 71.8143 60.8977 71.7973C60.9147 71.7973 60.9232 71.8058 60.9232 71.8228C60.5661 71.8568 60.2005 71.8398 59.8434 71.8398C59.8009 71.8398 59.7584 71.8228 59.7074 71.8228C59.6224 71.7463 59.6394 71.5763 59.7414 71.4998V71.5253Z" fill="#666666"/>
<path d="M60.9147 71.84C60.9147 71.84 60.8977 71.8315 60.8807 71.823C60.6256 71.789 60.3705 71.7975 60.107 71.7975C60.022 71.7975 59.9454 71.7975 59.8604 71.7975C59.8264 71.7975 59.8009 71.789 59.8009 71.755C59.8009 71.7209 59.8349 71.7294 59.8604 71.7294C60.124 71.7294 60.3875 71.7294 60.6426 71.7294C60.6766 71.7294 60.6936 71.7294 60.7106 71.772C60.7446 71.8315 60.8042 71.7975 60.8552 71.7975C60.8977 71.7975 60.8892 71.755 60.8977 71.7294C60.8977 71.7124 60.8977 71.6954 60.8977 71.6784C60.9062 71.6104 60.8892 71.5679 60.8042 71.5849C60.7616 71.5849 60.7276 71.5764 60.7106 71.5254H60.7361C60.7872 71.5424 60.8382 71.5679 60.8892 71.5254H60.9487C60.9572 71.6274 60.9572 71.7294 60.9487 71.84C60.9487 71.84 60.9147 71.8485 60.8892 71.84H60.9147Z" fill="#626264"/>
<path d="M59.8264 71.3809C59.8434 71.3129 59.8689 71.2534 59.9369 71.2279H60.5491C60.5491 71.2279 60.6001 71.2789 60.6086 71.3214C60.6086 71.3469 60.6086 71.3724 60.6256 71.3894V71.415C60.6256 71.415 60.6001 71.4405 60.5831 71.4235H60.5746C60.5321 71.3299 60.4471 71.3384 60.3706 71.3384C60.2515 71.3384 60.1325 71.3384 60.0135 71.3384C59.971 71.3384 59.9284 71.3384 59.9114 71.398C59.9029 71.4235 59.8774 71.4575 59.8349 71.449V71.3894L59.8264 71.3809Z" fill="#605F61"/>
<path d="M59.8264 71.4402C59.8264 71.4402 59.8944 71.3892 59.8944 71.3382C59.8944 71.3042 59.9199 71.3127 59.9369 71.3127C60.124 71.3127 60.311 71.3127 60.498 71.3127C60.5236 71.3127 60.5491 71.3127 60.5406 71.3467C60.5406 71.3807 60.5831 71.3892 60.5831 71.4232C60.3875 71.4062 60.1835 71.4232 59.9879 71.4232C59.9369 71.4232 59.8859 71.4232 59.8519 71.4657C59.8519 71.4743 59.8349 71.4743 59.8179 71.4657V71.4402H59.8264Z" fill="#616163"/>
<path d="M59.8264 71.4659C59.8774 71.3979 59.9539 71.3894 60.0304 71.3979C60.158 71.3979 60.294 71.3979 60.4215 71.3979C60.481 71.3979 60.5321 71.3979 60.5831 71.4234L60.6086 71.4064C60.6001 71.4489 60.5661 71.4319 60.5406 71.4319C60.3535 71.4319 60.158 71.4319 59.9709 71.4319C59.9284 71.4319 59.8859 71.4319 59.8604 71.4744C59.8519 71.4999 59.8179 71.5084 59.8179 71.4574L59.8264 71.4659Z" fill="#666667"/>
<path d="M59.7413 71.5254C59.7158 71.5764 59.6478 71.6189 59.6648 71.6954C59.6648 71.7294 59.6648 71.7635 59.6903 71.789C59.7158 71.8145 59.6903 71.823 59.6818 71.84C59.6648 71.8485 59.6478 71.84 59.6223 71.84C59.6308 71.772 59.6223 71.7039 59.6223 71.6359C59.6223 71.5764 59.6393 71.5424 59.6903 71.5254H59.7328H59.7413Z" fill="#636362"/>
<path d="M59.6989 71.5253C59.6139 71.5849 59.6394 71.6784 59.6479 71.7549C59.6479 71.7889 59.6479 71.8144 59.6309 71.8314C59.6309 71.8314 59.6224 71.8314 59.6139 71.8314V71.5168H59.6989V71.5253Z" fill="#5F5F5E"/>
<path d="M60.9148 71.5254C60.8978 71.5849 60.8212 71.5849 60.7617 71.5254H60.9148Z" fill="#626261"/>
<path d="M59.6139 71.8398C59.6139 71.8398 59.6224 71.8398 59.6309 71.8398H60.9742C60.9232 71.8738 60.8637 71.8483 60.8127 71.8568C60.6682 71.8568 60.6257 71.9163 60.6597 72.0524C60.6597 72.0864 60.6937 72.1204 60.6427 72.1374C60.6171 72.1119 60.6342 72.0694 60.6172 72.0354V72.0183C60.6172 72.0183 60.6086 71.9843 60.6086 71.9673C60.6086 71.9673 60.6087 71.9588 60.6001 71.9503C60.4301 71.9588 60.2601 71.9503 60.0985 71.9503C60.022 71.9503 59.9455 71.9503 59.869 71.9418C59.869 71.9418 59.869 71.9588 59.8605 71.9673C59.8605 72.0013 59.8605 72.0268 59.8605 72.0609C59.8605 72.0779 59.8605 72.1034 59.886 72.1119C59.903 72.1119 59.92 72.1119 59.9285 72.1119C60.1325 72.1119 60.3451 72.1119 60.5491 72.1119C60.5831 72.1119 60.6171 72.1119 60.6427 72.1289C60.6257 72.1544 60.5916 72.1459 60.5661 72.1459C60.3536 72.1459 60.141 72.1459 59.937 72.1459C59.8945 72.1459 59.8605 72.1714 59.8179 72.1459C59.8179 72.0779 59.8179 72.0013 59.8179 71.9333C59.8179 71.8738 59.7839 71.8483 59.7329 71.8483C59.6904 71.8483 59.6564 71.8653 59.6139 71.8313V71.8398Z" fill="#6A696B"/>
<path d="M60.9741 71.84V71.5254C60.9996 71.6274 60.9996 71.7294 60.9741 71.84Z" fill="#676666"/>
<path d="M60.6171 71.3808C60.6171 71.3808 60.5916 71.3638 60.5916 71.3383C60.5916 71.2958 60.5746 71.2532 60.5491 71.2192C60.6001 71.2192 60.6256 71.2192 60.6171 71.2873C60.6171 71.3128 60.6171 71.3468 60.6171 71.3808Z" fill="#585858"/>
<path d="M66.8577 71.5254C67.0362 71.5254 67.2062 71.5254 67.3848 71.5254C67.4358 71.5254 67.4528 71.5424 67.4528 71.5934C67.4528 71.6359 67.4528 71.6784 67.4528 71.7294C67.4528 71.857 67.4698 71.84 67.3423 71.84C67.2233 71.823 67.0957 71.84 66.9767 71.84C66.9512 71.84 66.9257 71.8485 66.9002 71.8315C66.9002 71.806 66.9087 71.789 66.9342 71.7805C67.0532 71.7805 67.1722 71.7805 67.2828 71.7805C67.3508 71.7805 67.3593 71.7635 67.3593 71.6954C67.3593 71.6189 67.3593 71.6104 67.2828 71.6104C67.1807 71.6104 67.0872 71.6104 66.9852 71.6104C66.9427 71.6104 66.9087 71.6104 66.8662 71.5849C66.8492 71.5679 66.8407 71.5509 66.8577 71.5254Z" fill="#636363"/>
<path d="M66.8577 71.5253C66.8577 71.5253 66.8577 71.5594 66.8747 71.5679C66.9258 71.6274 66.9853 71.6869 66.9343 71.7804C66.9173 71.7804 66.9088 71.7974 66.9088 71.8059C66.9003 71.8229 66.8747 71.8229 66.8662 71.8314H66.8492C66.8918 71.7294 66.8492 71.6274 66.8492 71.5168H66.8662L66.8577 71.5253Z" fill="#686563"/>
<path d="M66.8237 71.5254H66.8067C66.7557 71.5339 66.7217 71.5169 66.7217 71.4659C66.7132 71.2788 66.7132 71.0833 66.7217 70.8962C66.7217 70.8877 66.7217 70.8792 66.7387 70.8707C66.7387 70.8707 66.7557 70.9217 66.7557 70.9473C66.7557 71.0833 66.7557 71.2193 66.7557 71.3468C66.7557 71.4234 66.7557 71.4829 66.8237 71.5254Z" fill="#796E5F"/>
<path d="M66.8577 71.84C66.8577 71.84 66.8832 71.8145 66.9002 71.8145C66.9257 71.84 66.9512 71.8315 66.9767 71.8315C67.0787 71.8315 67.1722 71.8315 67.2743 71.8315C67.2998 71.8315 67.3253 71.8315 67.3423 71.8485H66.8577V71.84Z" fill="#666666"/>
<path d="M66.1775 70.1224H66.1945L66.237 70.1904C66.2965 70.284 66.288 70.386 66.288 70.488C66.288 70.5731 66.288 70.6496 66.288 70.7346C66.288 70.6241 66.288 70.5135 66.288 70.403C66.288 70.369 66.288 70.3435 66.305 70.318C66.3305 70.335 66.322 70.369 66.322 70.3945C66.322 70.522 66.322 70.6411 66.322 70.7686C66.322 70.7941 66.322 70.8281 66.339 70.8536C66.4411 70.9897 66.3985 71.1512 66.3985 71.2957C66.3985 71.3382 66.373 71.3467 66.3305 71.3467C66.0415 71.3297 65.7609 71.3467 65.4718 71.3467C65.4548 71.3467 65.4293 71.3467 65.4123 71.3637C65.4123 71.3723 65.4123 71.3893 65.4123 71.3978C65.4123 71.4488 65.4123 71.4998 65.3953 71.5593C65.3953 71.5848 65.3783 71.6103 65.3443 71.6188C65.3358 71.6188 65.3188 71.6188 65.3103 71.6188C65.2848 71.6188 65.2593 71.5933 65.2508 71.6358C65.2508 71.7038 65.2508 71.7633 65.2508 71.8314C65.2508 71.8314 65.2508 71.8484 65.2337 71.8484C65.1997 71.7634 65.2252 71.6783 65.2252 71.5933C65.2252 71.5763 65.2508 71.5593 65.2678 71.5678C65.3528 71.5763 65.3698 71.5253 65.3613 71.4573C65.3613 71.4403 65.3613 71.4233 65.3613 71.4063C65.3613 71.3893 65.3613 71.3808 65.3613 71.3637C65.3613 70.9812 65.3613 70.5986 65.3613 70.216C65.3613 70.199 65.3613 70.1905 65.3613 70.1734V70.1309H65.3698C65.4038 70.1564 65.4378 70.1649 65.4803 70.1649C65.6759 70.1649 65.8714 70.1649 66.067 70.1649C66.1095 70.1649 66.152 70.1649 66.1775 70.1309V70.1224Z" fill="#796C5B"/>
<path d="M65.3273 71.5934C65.4038 71.5764 65.3613 71.4998 65.3783 71.4573C65.3868 71.4403 65.3783 71.4063 65.3783 71.3808C65.3953 71.3638 65.4293 71.3638 65.4548 71.3638C65.7099 71.3638 65.9649 71.3638 66.22 71.3638C66.271 71.3638 66.3135 71.3808 66.322 71.4403C66.322 71.4658 66.339 71.4998 66.373 71.4913C66.4155 71.4913 66.4155 71.4488 66.4155 71.4233C66.4155 71.3043 66.4155 71.1853 66.4155 71.0577C66.4155 70.9132 66.4155 70.9047 66.5686 70.9132C66.6281 70.9132 66.6706 70.8877 66.7046 70.8622L66.7301 70.8792C66.7301 71.0577 66.7301 71.2448 66.7301 71.4233C66.7301 71.4828 66.7386 71.5168 66.7981 71.5339C66.7981 71.6019 66.8066 71.6699 66.8151 71.7464C66.8151 71.7974 66.8151 71.8399 66.7556 71.8739C66.7216 71.8909 66.7301 71.9335 66.7301 71.959C66.7131 71.959 66.7131 71.925 66.6876 71.942C66.6706 71.9505 66.6706 71.976 66.6706 71.993C66.6706 72.112 66.6706 72.2395 66.6706 72.3586C66.6706 72.4266 66.6451 72.4521 66.5771 72.4436C66.5431 72.4436 66.5091 72.4436 66.475 72.4436C66.424 72.4436 66.39 72.4606 66.3815 72.5116H66.3645C66.322 72.4606 66.3645 72.4351 66.39 72.4011C66.407 72.3756 66.3985 72.3416 66.3985 72.3076C66.407 72.095 66.373 71.8824 66.3815 71.6699C66.3815 71.6614 66.3815 71.6529 66.3815 71.6444C66.3815 71.6274 66.3815 71.6019 66.356 71.6019C66.3305 71.6019 66.322 71.6274 66.322 71.6444C66.322 71.7039 66.322 71.7549 66.322 71.8144C66.322 71.8484 66.322 71.8739 66.322 71.908C66.322 71.9845 66.2965 72.01 66.22 72.01C66.0414 72.01 65.8544 72.01 65.6758 72.01C65.5993 72.01 65.5228 72.01 65.4463 72.01C65.4208 72.01 65.3868 72.01 65.3698 71.993C65.3698 71.993 65.3698 71.9165 65.3528 71.8824C65.3358 71.8569 65.2933 71.8569 65.2762 71.8229C65.2677 71.7464 65.2507 71.6699 65.3188 71.6019L65.3273 71.5934Z" fill="#726657"/>
<path d="M65.3783 71.3553C65.3783 71.3553 65.3953 71.3128 65.4293 71.3128C65.7099 71.3128 65.999 71.3128 66.2795 71.3128C66.2965 71.3128 66.3135 71.3128 66.3305 71.3213C66.356 71.3213 66.373 71.3213 66.373 71.2873C66.373 71.1768 66.373 71.0663 66.373 70.9642C66.373 70.9387 66.356 70.9302 66.3475 70.9217C66.3305 70.8962 66.305 70.8792 66.3305 70.8452C66.4411 70.8707 66.5601 70.8537 66.6706 70.8622C66.6706 70.9047 66.6451 70.9132 66.6196 70.9217C66.6026 70.9217 66.5941 70.9217 66.5771 70.9217C66.4807 70.9217 66.4326 70.9699 66.4326 71.0663C66.4326 71.1768 66.4326 71.2788 66.4326 71.3894C66.4326 71.4064 66.4326 71.4234 66.4326 71.4404C66.4326 71.4744 66.4156 71.4999 66.373 71.4999C66.339 71.4999 66.322 71.4744 66.322 71.4404C66.322 71.3638 66.2795 71.3638 66.2285 71.3638C65.9734 71.3638 65.7269 71.3638 65.4718 71.3638C65.4378 71.3638 65.4123 71.3638 65.3868 71.3468L65.3783 71.3553Z" fill="#776B5B"/>
<path d="M65.3784 71.3553C65.6844 71.3553 65.9905 71.3553 66.2881 71.3553C66.3221 71.3553 66.3306 71.3553 66.3306 71.3978C66.3306 71.4063 66.3306 71.4148 66.3306 71.4233C66.3306 71.4573 66.3306 71.4913 66.3731 71.4913C66.4071 71.4913 66.4156 71.4573 66.4156 71.4233C66.4156 71.2957 66.4156 71.1682 66.4156 71.0407C66.4156 70.8961 66.3986 70.9132 66.5347 70.9132C66.5857 70.9132 66.6367 70.9132 66.6707 70.8536H66.7132C66.6877 70.9472 66.6112 70.9216 66.5432 70.9216C66.4411 70.9216 66.4411 70.9217 66.4411 71.0237C66.4411 71.1427 66.4411 71.2617 66.4411 71.3808C66.4411 71.3978 66.4411 71.4148 66.4411 71.4318C66.4411 71.4743 66.4156 71.5083 66.3731 71.5168C66.3306 71.5168 66.3051 71.4828 66.2966 71.4488C66.2966 71.3893 66.2626 71.3808 66.2116 71.3808C65.931 71.3808 65.6504 71.3808 65.3699 71.3808V71.3553H65.3784Z" fill="#736757"/>
<path d="M66.305 70.318C66.305 70.4626 66.305 70.6156 66.305 70.7602C66.305 70.7772 66.3135 70.8027 66.288 70.8027C66.2625 70.8027 66.2625 70.7772 66.2625 70.7602C66.2625 70.6156 66.2625 70.4796 66.2625 70.3351C66.2625 70.2925 66.2625 70.25 66.22 70.2245C66.186 70.199 66.2115 70.1905 66.237 70.182C66.2965 70.1735 66.3135 70.199 66.305 70.2585C66.305 70.2755 66.305 70.2925 66.305 70.3095V70.318Z" fill="#766958"/>
<path d="M65.3528 70.165C65.3528 70.165 65.3613 70.2075 65.3613 70.2246C65.3613 70.5986 65.3613 70.9642 65.3613 71.3383C65.3613 71.3553 65.3613 71.3809 65.3528 71.3979V70.165Z" fill="#908677"/>
<path d="M65.2932 71.8229C65.2932 71.8229 65.3527 71.8229 65.3612 71.8654C65.3612 71.8654 65.3612 71.8654 65.3612 71.8739H65.3442C65.3442 71.8739 65.2507 71.8654 65.2167 71.8399V71.8229C65.2167 71.8229 65.2677 71.8059 65.2847 71.8229H65.2932Z" fill="#796C5B"/>
<path d="M66.1776 70.1224C66.1776 70.1649 66.1606 70.1819 66.1181 70.1819C65.8885 70.1819 65.6674 70.1819 65.4379 70.1819C65.3954 70.1819 65.3784 70.1649 65.3699 70.1224H66.1776Z" fill="#736653"/>
<path d="M62.4196 71.6784C62.4196 71.7805 62.4196 71.8825 62.4196 71.9845C62.4196 72.061 62.3941 72.078 62.3176 72.078C62.258 72.078 62.1985 72.078 62.1305 72.078C62.0625 72.078 62.054 72.044 62.0625 71.993C62.088 71.84 62.0625 71.6955 62.071 71.5424C62.071 71.5339 62.071 71.5169 62.0625 71.5084C61.9775 71.4659 62.0285 71.3894 62.0115 71.3214C62.0115 71.2873 62.037 71.2618 62.071 71.2618C62.156 71.2618 62.2495 71.2618 62.3346 71.2618C62.3941 71.2618 62.4111 71.3044 62.4111 71.3554C62.4111 71.4574 62.4111 71.5679 62.4111 71.6699L62.4196 71.6784Z" fill="#F2C268"/>
<path d="M65.1232 71.8229C65.1232 71.8229 65.0722 71.8569 65.0637 71.8059C65.0637 71.7464 65.0637 71.6869 65.0637 71.6274C65.0637 71.5849 65.0977 71.5764 65.1232 71.5679V71.8229Z" fill="#F2C267"/>
<path d="M66.305 73.1662H66.2625C66.2455 73.2342 66.1945 73.2172 66.152 73.2172C65.9309 73.2172 65.7013 73.2172 65.4803 73.2172C65.4633 73.2172 65.4548 73.2172 65.4378 73.2172C65.4208 73.2172 65.3953 73.2172 65.3953 73.1832C65.3953 73.1492 65.4208 73.1577 65.4463 73.1577C65.5398 73.1577 65.6418 73.1577 65.7354 73.1577C65.8799 73.1577 66.0244 73.1577 66.1775 73.1577C66.2285 73.1577 66.254 73.1407 66.2625 73.0812C66.288 72.9451 66.2625 72.8091 66.271 72.6816C66.271 72.6646 66.271 72.6476 66.271 72.6221C66.271 72.6051 66.2795 72.5966 66.2965 72.5966C66.3135 72.5966 66.3135 72.6136 66.3135 72.6221C66.3135 72.6816 66.3135 72.7411 66.3135 72.8091V73.1577L66.305 73.1662Z" fill="#776959"/>
<path d="M65.3783 71.9759C65.6589 71.9759 65.9479 71.9759 66.2285 71.9759C66.2965 71.9759 66.3135 71.9504 66.3135 71.8909C66.3135 71.8058 66.3135 71.7123 66.3135 71.6273C66.3135 71.5848 66.322 71.5508 66.373 71.5508C66.4156 71.5508 66.4241 71.5848 66.4241 71.6273C66.4241 71.8654 66.4496 72.0949 66.4411 72.333C66.4411 72.3585 66.4411 72.3925 66.4156 72.4095C66.39 72.384 66.3986 72.35 66.3986 72.3245C66.3986 72.2224 66.3986 72.1289 66.3986 72.0269C66.3986 71.9504 66.3986 71.9504 66.3305 71.9844C66.2965 72.0014 66.271 72.0014 66.237 72.0014C65.9819 72.0014 65.7269 72.0014 65.4718 72.0014C65.4378 72.0014 65.4123 72.0014 65.3868 71.9844C65.3868 71.9844 65.3868 71.9759 65.3868 71.9674L65.3783 71.9759Z" fill="#736757"/>
<path d="M65.3783 71.993C65.6674 71.993 65.9564 71.993 66.2455 71.993C66.271 71.993 66.305 71.993 66.3305 71.9675C66.339 71.9505 66.356 71.9165 66.3815 71.9335C66.4156 71.942 66.4156 71.976 66.4156 72.0015C66.4156 72.112 66.4156 72.2225 66.4156 72.3331C66.4156 72.3586 66.4156 72.3926 66.4156 72.4181C66.39 72.4436 66.3815 72.4691 66.39 72.5031C66.3815 72.5201 66.3645 72.5371 66.3475 72.5201C66.3305 72.5031 66.3305 72.4861 66.339 72.4691C66.4156 72.3161 66.356 72.163 66.3815 71.993C66.322 72.044 66.2625 72.0355 66.203 72.0355C65.9479 72.0355 65.7014 72.0355 65.4463 72.0355C65.4123 72.0355 65.3783 72.0355 65.3868 71.993H65.3783Z" fill="#766A5A"/>
<path d="M65.3699 71.8825V71.8655C65.3699 71.8655 65.3699 71.942 65.3869 71.976H65.3699V71.874V71.8825Z" fill="#766A5A"/>
<path d="M59.8264 71.9334C59.8264 71.9334 59.8434 71.8994 59.8689 71.9164C59.9029 71.9419 59.9454 71.9334 59.988 71.9334C60.141 71.9334 60.3025 71.9334 60.4556 71.9334C60.4981 71.9334 60.5321 71.9334 60.5746 71.9249C60.5916 71.9249 60.6256 71.9164 60.6256 71.9504C60.5746 72.0099 60.5151 72.0354 60.4386 72.0269C60.2855 72.0269 60.141 72.0269 59.988 72.0269C59.9539 72.0269 59.9114 72.0269 59.8859 71.9929C59.8689 71.9759 59.8519 71.9504 59.8349 71.9334H59.8264Z" fill="#666766"/>
<path d="M59.8264 71.9335C59.8264 71.9335 59.8604 71.9505 59.8859 71.959C59.8859 72.01 59.9199 72.027 59.9625 72.027C60.1325 72.027 60.3025 72.027 60.4726 72.027C60.5151 72.027 60.5491 72.027 60.5746 71.9845C60.5831 71.9675 60.6001 71.959 60.6256 71.959V72.0185C60.5831 72.112 60.5831 72.1205 60.4811 72.1205C60.311 72.1205 60.1495 72.1205 59.9795 72.1205C59.8689 72.1205 59.8519 72.1035 59.8349 71.993C59.8349 71.9845 59.8349 71.976 59.8349 71.9675V71.942L59.8264 71.9335Z" fill="#5F5F60"/>
<path d="M60.617 71.9676C60.5575 72.0611 60.4555 72.0526 60.3619 72.0526C60.2259 72.0526 60.0984 72.0526 59.9623 72.0526C59.8943 72.0526 59.8688 72.0271 59.8773 71.9676C59.8943 72.0016 59.9198 72.0101 59.9538 72.0101C60.1239 72.0101 60.3024 72.0101 60.4725 72.0101C60.532 72.0101 60.5575 71.9506 60.6085 71.9506V71.9676H60.617Z" fill="#626263"/>
<path d="M59.8264 71.9674C59.8264 71.9674 59.8349 71.9929 59.8434 72.0014C59.8689 72.0864 59.8944 72.1034 59.9794 72.1034C60.1155 72.1034 60.26 72.1034 60.396 72.1034C60.481 72.1034 60.5661 72.1034 60.6171 72.0184C60.6171 72.0184 60.6171 72.0524 60.6171 72.0694C60.6171 72.1204 60.6001 72.1289 60.5576 72.1289C60.3535 72.1289 60.158 72.1289 59.9539 72.1289C59.9284 72.1289 59.9029 72.1289 59.8859 72.1289H59.8434C59.8434 72.1289 59.8264 72.0864 59.8179 72.0694V71.9589L59.8264 71.9674Z" fill="#59595A"/>
<path d="M59.8944 72.1375C59.8944 72.1375 59.9454 72.1205 59.9709 72.1205C60.158 72.1205 60.3365 72.1205 60.5236 72.1205C60.5859 72.1205 60.6199 72.0864 60.6256 72.0184C60.6256 72.0184 60.6256 72.095 60.6426 72.129H59.9029L59.8944 72.1375Z" fill="#5F5F60"/>
<path d="M59.8263 72.078C59.8263 72.078 59.8683 72.1032 59.8515 72.1368C59.8095 72.1368 59.8263 72.1032 59.8263 72.078Z" fill="#515151"/>
<path d="M66.9257 71.7804C66.9512 71.6954 66.8917 71.6359 66.8662 71.5679C67.0022 71.5934 67.1383 71.5679 67.2828 71.5849C67.3168 71.5849 67.3678 71.5594 67.3763 71.6104C67.3848 71.6699 67.3933 71.7294 67.3763 71.7804C67.3763 71.7804 67.3593 71.7974 67.3508 71.7974C67.2148 71.7974 67.0703 71.8144 66.9342 71.7889L66.9257 71.7804Z" fill="#666666"/>
<path d="M65.2934 71.8229H65.2253V71.5934C65.2253 71.5934 65.2764 71.5849 65.2934 71.5934H65.3189C65.2849 71.6614 65.2934 71.7464 65.2934 71.8229Z" fill="#6F6456"/>
<path d="M65.2925 71.5933H65.2253C65.2253 71.5933 65.2757 71.5765 65.2925 71.5933Z" fill="#736757"/>
<path fill-rule="evenodd" clip-rule="evenodd" d="M62.7597 60.6341C61.7055 60.6511 60.9743 61.2208 60.8808 62.2325C60.8467 62.5641 60.8212 62.9127 60.8127 63.2443V63.7969C60.8297 64.2985 60.8978 64.7577 61.0423 65.1063C61.3229 65.7779 61.816 66.1775 62.7002 66.1945H62.8363C63.8055 66.169 64.4347 65.897 64.7577 64.7832C65.0808 63.6694 64.8428 62.071 64.5452 61.5098C64.2476 60.9487 63.7885 60.6426 62.8788 60.6256H62.7512L62.7597 60.6341Z" fill="#04549F"/>
<path fill-rule="evenodd" clip-rule="evenodd" d="M64.1199 64.3835L63.1422 63.4057L64.1114 62.4365L62.6745 61.0251V62.9466L61.8668 62.1389L61.5778 62.428L62.5725 63.4228L61.5778 64.4175L61.8668 64.7066L62.683 63.8904V65.8204L64.1199 64.3835ZM63.0571 61.9434L63.5503 62.4535L63.0571 62.9466V61.9434ZM63.0571 63.8649L63.5503 64.375L63.0571 64.8681V63.8649Z" fill="white"/>
<path d="M66.118 82.0001C74.1381 82.0001 80.6397 75.4986 80.6397 67.4785C80.6397 59.4584 74.1381 52.9568 66.118 52.9568C58.0979 52.9568 51.5963 59.4584 51.5963 67.4785C51.5963 75.4986 58.0979 82.0001 66.118 82.0001Z" stroke="#A798C5" stroke-width="2" stroke-miterlimit="10"/>
</svg>
