<?xml version="1.0" encoding="UTF-8"?><svg id="a" xmlns="http://www.w3.org/2000/svg" viewBox="0 0 1593.92 300"><defs><style>.b{fill:#ff5101;}.c{fill:#fff;}.d{fill:#bd99ff;}.e{fill:#76dbc7;}.f{fill:none;stroke:#373737;stroke-miterlimit:10;stroke-width:4px;}</style></defs><g><rect class="f" x="6.34" y="37.94" width="1579.86" height="233.22"/><line class="f" x1="7.57" y1="154.55" x2="1586.2" y2="154.55"/><line class="f" x1="184.55" y1="37.94" x2="184.55" y2="271.16"/><g><path d="M22.6,112.92h8.13v2.3h-10.95v-17.06h2.81v14.77Z"/><path d="M42.12,113.48c-.43,.62-.95,1.11-1.56,1.46s-1.3,.52-2.06,.52c-.66,0-1.26-.1-1.8-.3s-1.01-.53-1.39-.97-.69-1-.9-1.69-.32-1.51-.32-2.47v-7.5h2.8v7.52c0,.61,.04,1.11,.13,1.51s.23,.71,.42,.95,.42,.4,.7,.5,.62,.15,1.01,.15c.75,0,1.36-.15,1.82-.44s.81-.69,1.04-1.19v-9h2.81v12.68h-2.53l-.16-1.73Z"/><path d="M47.87,108.75c0-.91,.13-1.77,.4-2.55s.66-1.47,1.16-2.05,1.12-1.03,1.85-1.36,1.55-.49,2.47-.49,1.76,.16,2.49,.49,1.35,.78,1.85,1.36,.89,1.26,1.15,2.05,.4,1.64,.4,2.55v.25c0,.92-.13,1.78-.4,2.57s-.65,1.47-1.15,2.04-1.12,1.03-1.85,1.35-1.55,.49-2.47,.49-1.76-.16-2.49-.49-1.35-.78-1.85-1.35-.89-1.26-1.16-2.04-.4-1.64-.4-2.57v-.25Zm2.8,.25c0,.58,.06,1.12,.18,1.63s.31,.96,.56,1.34,.58,.69,.97,.91,.86,.33,1.39,.33,.98-.11,1.37-.33,.71-.53,.96-.91,.44-.83,.56-1.34,.18-1.05,.18-1.63v-.25c0-.56-.06-1.1-.18-1.61s-.31-.95-.56-1.34-.57-.69-.96-.91-.85-.34-1.39-.34-.99,.11-1.38,.34-.71,.53-.96,.91-.44,.83-.56,1.34-.18,1.04-.18,1.61v.25Z"/><path d="M71.05,111.78c0-.21-.04-.4-.13-.58s-.24-.34-.46-.48-.53-.28-.91-.4-.88-.25-1.48-.36c-.75-.16-1.43-.34-2.03-.56s-1.12-.48-1.56-.79-.77-.66-1-1.06-.35-.87-.35-1.4,.12-1.01,.36-1.47,.59-.87,1.04-1.22,1-.63,1.64-.84,1.37-.31,2.16-.31c.84,0,1.6,.11,2.27,.32s1.23,.5,1.69,.86,.81,.79,1.06,1.28,.37,1.02,.37,1.58h-2.8c0-.25-.05-.49-.16-.72s-.27-.44-.49-.62-.49-.32-.81-.43-.7-.16-1.12-.16-.79,.04-1.1,.13-.56,.21-.77,.35-.35,.31-.45,.51-.15,.4-.15,.61,.04,.4,.11,.57,.21,.33,.42,.47,.48,.27,.84,.38,.82,.22,1.39,.32c.8,.14,1.51,.32,2.15,.53s1.18,.47,1.63,.77,.79,.67,1.04,1.08,.36,.91,.36,1.47-.13,1.08-.39,1.55-.62,.87-1.1,1.21-1.05,.6-1.72,.79-1.42,.28-2.24,.28c-.92,0-1.73-.12-2.44-.37s-1.29-.57-1.77-.97-.84-.85-1.08-1.36-.37-1.02-.37-1.55h2.72c.02,.39,.12,.72,.3,1s.41,.49,.69,.66,.59,.29,.94,.36,.69,.11,1.04,.11c.87,0,1.53-.15,1.98-.44s.68-.67,.68-1.13Z"/><path d="M97.5,115.45c-.94,0-1.79-.16-2.57-.47s-1.44-.74-1.99-1.29-.98-1.19-1.28-1.94-.46-1.55-.46-2.42v-.48c0-1.01,.16-1.91,.49-2.72s.76-1.49,1.3-2.06,1.18-1.01,1.9-1.31,1.48-.46,2.28-.46c.92,0,1.73,.15,2.44,.46s1.29,.74,1.76,1.3,.83,1.22,1.07,1.99,.36,1.61,.36,2.52v1.18h-8.79c.05,.49,.17,.95,.36,1.37s.45,.79,.77,1.1,.69,.55,1.11,.73,.89,.26,1.4,.26c.71,0,1.37-.14,1.96-.42s1.08-.67,1.46-1.16l1.52,1.43c-.2,.3-.46,.6-.79,.88s-.7,.54-1.12,.76-.91,.4-1.45,.54-1.12,.21-1.75,.21Zm-.34-10.89c-.39,0-.75,.07-1.09,.21s-.64,.35-.9,.62-.49,.6-.67,.98-.31,.83-.39,1.32h5.94v-.21c-.02-.38-.1-.74-.22-1.08s-.3-.66-.53-.93-.53-.49-.88-.66-.77-.25-1.25-.25Z"/><path d="M108.53,102.53l.18,1.76c.46-.63,1.02-1.12,1.67-1.47s1.38-.52,2.17-.52c.65,0,1.24,.09,1.78,.28s1,.48,1.38,.88,.69,.91,.9,1.55,.32,1.39,.32,2.29v7.92h-2.8v-7.88c0-.52-.06-.96-.18-1.31s-.29-.63-.52-.84-.49-.36-.81-.45-.68-.13-1.09-.13c-.62,0-1.15,.14-1.61,.41s-.83,.64-1.11,1.11v9.09h-2.81v-12.68h2.53Z"/><path d="M120.04,108.78c0-.96,.12-1.84,.36-2.64s.58-1.48,1.03-2.05,.98-1.01,1.61-1.32,1.33-.47,2.12-.47,1.41,.13,1.97,.39,1.03,.63,1.43,1.11l.12-1.27h2.54v12.34c0,.85-.14,1.61-.42,2.27s-.67,1.22-1.18,1.67-1.11,.8-1.81,1.04-1.48,.36-2.32,.36c-.34,0-.73-.04-1.17-.11s-.87-.2-1.31-.36-.86-.39-1.25-.66-.74-.6-1.02-.98l1.34-1.68c.48,.56,.99,.96,1.54,1.21s1.12,.36,1.71,.36c.47,0,.89-.07,1.28-.2s.71-.33,.97-.59,.47-.58,.62-.96,.22-.81,.22-1.31v-.86c-.4,.44-.87,.77-1.4,1.01s-1.16,.35-1.87,.35c-.77,0-1.47-.16-2.1-.49s-1.16-.77-1.61-1.34-.79-1.25-1.03-2.03-.36-1.64-.36-2.56v-.25Zm2.81,.25c0,.57,.06,1.11,.18,1.61s.3,.94,.54,1.31,.55,.67,.93,.88,.83,.32,1.34,.32c.65,0,1.18-.13,1.58-.4s.73-.63,.97-1.08v-5.6c-.25-.45-.58-.8-.98-1.07s-.92-.4-1.55-.4c-.52,0-.96,.11-1.34,.33s-.69,.52-.94,.9-.43,.83-.55,1.34-.18,1.05-.18,1.62v.25Z"/><path d="M135.41,102.53h6.76v10.36h3.76v2.32h-10.52v-2.32h3.94v-8.03h-3.94v-2.33Zm3.7-3.28c0-.44,.14-.8,.42-1.08s.68-.43,1.18-.43,.92,.14,1.2,.43,.43,.65,.43,1.08-.14,.8-.43,1.08-.69,.43-1.2,.43-.9-.14-1.18-.43-.42-.65-.42-1.08Z"/><path d="M151.74,102.53l.18,1.76c.46-.63,1.02-1.12,1.67-1.47s1.38-.52,2.17-.52c.65,0,1.24,.09,1.78,.28s1,.48,1.38,.88,.69,.91,.9,1.55,.32,1.39,.32,2.29v7.92h-2.8v-7.88c0-.52-.06-.96-.18-1.31s-.29-.63-.52-.84-.49-.36-.81-.45-.68-.13-1.09-.13c-.62,0-1.15,.14-1.61,.41s-.83,.64-1.11,1.11v9.09h-2.81v-12.68h2.53Z"/><path d="M169.51,115.45c-.94,0-1.79-.16-2.57-.47s-1.44-.74-1.99-1.29-.98-1.19-1.28-1.94-.46-1.55-.46-2.42v-.48c0-1.01,.16-1.91,.49-2.72s.76-1.49,1.3-2.06,1.18-1.01,1.9-1.31,1.48-.46,2.28-.46c.92,0,1.73,.15,2.44,.46s1.29,.74,1.76,1.3,.83,1.22,1.07,1.99,.36,1.61,.36,2.52v1.18h-8.79c.05,.49,.17,.95,.36,1.37s.45,.79,.77,1.1,.69,.55,1.11,.73,.89,.26,1.4,.26c.71,0,1.37-.14,1.96-.42s1.08-.67,1.46-1.16l1.52,1.43c-.2,.3-.46,.6-.79,.88s-.7,.54-1.12,.76-.91,.4-1.45,.54-1.12,.21-1.75,.21Zm-.34-10.89c-.39,0-.75,.07-1.09,.21s-.64,.35-.9,.62-.49,.6-.67,.98-.31,.83-.39,1.32h5.94v-.21c-.02-.38-.1-.74-.22-1.08s-.3-.66-.53-.93-.53-.49-.88-.66-.77-.25-1.25-.25Z"/></g><g><path d="M29.8,220.79h8.13v2.3h-10.95v-17.06h2.81v14.77Z"/><path d="M49.32,221.35c-.43,.62-.95,1.11-1.56,1.46s-1.3,.52-2.06,.52c-.66,0-1.26-.1-1.8-.3s-1.01-.53-1.39-.97-.69-1-.9-1.69-.32-1.51-.32-2.47v-7.5h2.8v7.52c0,.61,.04,1.11,.13,1.51s.23,.71,.42,.95,.42,.4,.7,.5,.62,.15,1.01,.15c.75,0,1.36-.15,1.82-.44s.81-.69,1.04-1.19v-9h2.81v12.68h-2.53l-.16-1.73Z"/><path d="M55.08,216.63c0-.91,.13-1.77,.4-2.55s.66-1.47,1.16-2.05,1.12-1.03,1.85-1.36,1.55-.49,2.47-.49,1.76,.16,2.49,.49,1.35,.78,1.85,1.36,.89,1.26,1.15,2.05,.4,1.64,.4,2.55v.25c0,.92-.13,1.78-.4,2.57s-.65,1.47-1.15,2.04-1.12,1.03-1.85,1.35-1.55,.49-2.47,.49-1.76-.16-2.49-.49-1.35-.78-1.85-1.35-.89-1.26-1.16-2.04-.4-1.64-.4-2.57v-.25Zm2.8,.25c0,.58,.06,1.12,.18,1.63s.31,.96,.56,1.34,.58,.69,.97,.91,.86,.33,1.39,.33,.98-.11,1.37-.33,.71-.53,.96-.91,.44-.83,.56-1.34,.18-1.05,.18-1.63v-.25c0-.56-.06-1.1-.18-1.61s-.31-.95-.56-1.34-.57-.69-.96-.91-.85-.34-1.39-.34-.99,.11-1.38,.34-.71,.53-.96,.91-.44,.83-.56,1.34-.18,1.04-.18,1.61v.25Z"/><path d="M78.25,219.65c0-.21-.04-.4-.13-.58s-.24-.34-.46-.48-.53-.28-.91-.4-.88-.25-1.48-.36c-.75-.16-1.43-.34-2.03-.56s-1.12-.48-1.56-.79-.77-.66-1-1.06-.35-.87-.35-1.4,.12-1.01,.36-1.47,.59-.87,1.04-1.22,1-.63,1.64-.84,1.37-.31,2.16-.31c.84,0,1.6,.11,2.27,.32s1.23,.5,1.69,.86,.81,.79,1.06,1.28,.37,1.02,.37,1.58h-2.8c0-.25-.05-.49-.16-.72s-.27-.44-.49-.62-.49-.32-.81-.43-.7-.16-1.12-.16-.79,.04-1.1,.13-.56,.21-.77,.35-.35,.31-.45,.51-.15,.4-.15,.61,.04,.4,.11,.57,.21,.33,.42,.47,.48,.27,.84,.38,.82,.22,1.39,.32c.8,.14,1.51,.32,2.15,.53s1.18,.47,1.63,.77,.79,.67,1.04,1.08,.36,.91,.36,1.47-.13,1.08-.39,1.55-.62,.87-1.1,1.21-1.05,.6-1.72,.79-1.42,.28-2.24,.28c-.92,0-1.73-.12-2.44-.37s-1.29-.57-1.77-.97-.84-.85-1.08-1.36-.37-1.02-.37-1.55h2.72c.02,.39,.12,.72,.3,1s.41,.49,.69,.66,.59,.29,.94,.36,.69,.11,1.04,.11c.87,0,1.53-.15,1.98-.44s.68-.67,.68-1.13Z"/><path d="M104.41,207.34v3.07h4.79v2.09h-4.79v6.08c0,.48,.06,.87,.17,1.18s.27,.56,.47,.75,.44,.32,.71,.39,.57,.11,.9,.11c.24,0,.49-.01,.76-.04s.52-.06,.76-.09,.47-.07,.68-.12,.38-.08,.52-.12l.32,1.93c-.2,.12-.45,.22-.73,.32s-.6,.18-.93,.24-.69,.11-1.05,.15-.72,.05-1.07,.05c-.63,0-1.21-.09-1.74-.26s-.98-.45-1.36-.82-.68-.85-.89-1.43-.32-1.28-.32-2.09v-6.23h-3.09v-2.09h3.09v-3.07h2.8Z"/><path d="M112.68,216.63c0-.91,.13-1.77,.4-2.55s.66-1.47,1.16-2.05,1.12-1.03,1.85-1.36,1.55-.49,2.47-.49,1.76,.16,2.49,.49,1.35,.78,1.85,1.36,.89,1.26,1.15,2.05,.4,1.64,.4,2.55v.25c0,.92-.13,1.78-.4,2.57s-.65,1.47-1.15,2.04-1.12,1.03-1.85,1.35-1.55,.49-2.47,.49-1.76-.16-2.49-.49-1.35-.78-1.85-1.35-.89-1.26-1.16-2.04-.4-1.64-.4-2.57v-.25Zm2.8,.25c0,.58,.06,1.12,.18,1.63s.31,.96,.56,1.34,.58,.69,.97,.91,.86,.33,1.39,.33,.98-.11,1.37-.33,.71-.53,.96-.91,.44-.83,.56-1.34,.18-1.05,.18-1.63v-.25c0-.56-.06-1.1-.18-1.61s-.31-.95-.56-1.34-.57-.69-.96-.91-.85-.34-1.39-.34-.99,.11-1.38,.34-.71,.53-.96,.91-.44,.83-.56,1.34-.18,1.04-.18,1.61v.25Z"/><path d="M127.09,216.63c0-.91,.13-1.77,.4-2.55s.66-1.47,1.16-2.05,1.12-1.03,1.85-1.36,1.55-.49,2.47-.49,1.76,.16,2.49,.49,1.35,.78,1.85,1.36,.89,1.26,1.15,2.05,.4,1.64,.4,2.55v.25c0,.92-.13,1.78-.4,2.57s-.65,1.47-1.15,2.04-1.12,1.03-1.85,1.35-1.55,.49-2.47,.49-1.76-.16-2.49-.49-1.35-.78-1.85-1.35-.89-1.26-1.16-2.04-.4-1.64-.4-2.57v-.25Zm2.8,.25c0,.58,.06,1.12,.18,1.63s.31,.96,.56,1.34,.58,.69,.97,.91,.86,.33,1.39,.33,.98-.11,1.37-.33,.71-.53,.96-.91,.44-.83,.56-1.34,.18-1.05,.18-1.63v-.25c0-.56-.06-1.1-.18-1.61s-.31-.95-.56-1.34-.57-.69-.96-.91-.85-.34-1.39-.34-.99,.11-1.38,.34-.71,.53-.96,.91-.44,.83-.56,1.34-.18,1.04-.18,1.61v.25Z"/><path d="M142.52,205.09h6.86v15.68h3.87v2.32h-10.72v-2.32h4.03v-13.35h-4.03v-2.33Z"/><path d="M164.67,219.65c0-.21-.04-.4-.13-.58s-.24-.34-.46-.48-.53-.28-.91-.4-.88-.25-1.48-.36c-.75-.16-1.43-.34-2.03-.56s-1.12-.48-1.56-.79-.77-.66-1-1.06-.35-.87-.35-1.4,.12-1.01,.36-1.47,.59-.87,1.04-1.22,1-.63,1.64-.84,1.37-.31,2.16-.31c.84,0,1.6,.11,2.27,.32s1.23,.5,1.69,.86,.81,.79,1.06,1.28,.37,1.02,.37,1.58h-2.8c0-.25-.05-.49-.16-.72s-.27-.44-.49-.62-.49-.32-.81-.43-.7-.16-1.12-.16-.79,.04-1.1,.13-.56,.21-.77,.35-.35,.31-.45,.51-.15,.4-.15,.61,.04,.4,.11,.57,.21,.33,.42,.47,.48,.27,.84,.38,.82,.22,1.39,.32c.8,.14,1.51,.32,2.15,.53s1.18,.47,1.63,.77,.79,.67,1.04,1.08,.36,.91,.36,1.47-.13,1.08-.39,1.55-.62,.87-1.1,1.21-1.05,.6-1.72,.79-1.42,.28-2.24,.28c-.92,0-1.73-.12-2.44-.37s-1.29-.57-1.77-.97-.84-.85-1.08-1.36-.37-1.02-.37-1.55h2.72c.02,.39,.12,.72,.3,1s.41,.49,.69,.66,.59,.29,.94,.36,.69,.11,1.04,.11c.87,0,1.53-.15,1.98-.44s.68-.67,.68-1.13Z"/></g></g><g><rect class="d" x="190.91" y="17.12" width="172.88" height="47.53" rx="12" ry="12"/><g><path class="c" d="M240.37,40.6c0,.58-.05,1.15-.15,1.71s-.25,1.11-.44,1.63-.43,1.01-.73,1.47-.63,.87-1.01,1.22l2.91,2.5-1.86,1.7-3.33-2.92c-.25,.06-.51,.11-.78,.15s-.55,.06-.85,.06c-1.04,0-1.94-.22-2.71-.65s-1.41-1-1.92-1.71-.89-1.51-1.14-2.41-.38-1.82-.39-2.75v-2.18c0-.68,.07-1.35,.18-2s.28-1.27,.5-1.85,.51-1.12,.84-1.6,.73-.9,1.18-1.26,.97-.63,1.54-.83,1.21-.29,1.9-.29c1.05,0,1.96,.21,2.74,.64s1.43,1.01,1.95,1.73,.9,1.56,1.16,2.5,.39,1.93,.4,2.95v2.18Zm-2.84-2.2c0-.66-.05-1.32-.16-1.97s-.29-1.23-.54-1.73-.61-.92-1.05-1.24-.99-.47-1.66-.47-1.21,.16-1.63,.47-.76,.73-1.01,1.24-.42,1.09-.52,1.74-.15,1.3-.15,1.96v2.2c0,.58,.05,1.17,.15,1.78s.27,1.16,.52,1.66,.59,.92,1.01,1.24,.97,.48,1.63,.48,1.23-.16,1.66-.48,.79-.73,1.04-1.23,.44-1.05,.54-1.66,.16-1.2,.16-1.78v-2.2Z"/><path class="c" d="M252.4,41.83h2.14v2.26h-2.14v3.8h-2.8v-3.8h-7.41l-.07-1.7,7.38-11.57h2.89v11Zm-7.39,0h4.59v-7.27l-.3,.55-4.29,6.71Z"/><path class="c" d="M282.84,47.89h-11.46v-1.93l5.55-6.06c.47-.52,.86-.99,1.18-1.39s.57-.77,.76-1.11,.32-.65,.4-.94,.12-.58,.12-.88c0-.39-.06-.75-.18-1.08s-.29-.62-.52-.86-.49-.42-.81-.56-.67-.2-1.06-.2c-1.02,0-1.76,.28-2.24,.83s-.72,1.32-.72,2.3h-2.81c0-.74,.13-1.44,.4-2.1s.66-1.24,1.16-1.73,1.12-.88,1.83-1.17,1.53-.43,2.43-.43c.84,0,1.59,.12,2.25,.36s1.21,.58,1.66,1.01,.8,.95,1.03,1.54,.35,1.25,.35,1.96c0,.53-.09,1.04-.26,1.54s-.41,.99-.71,1.48-.67,.99-1.09,1.48-.88,1.01-1.37,1.53l-3.87,4.15h7.98v2.24Z"/><path class="c" d="M297.33,41.4c0,1.1-.13,2.07-.38,2.91s-.62,1.54-1.1,2.11-1.06,.99-1.75,1.28-1.46,.43-2.32,.43-1.62-.14-2.31-.43-1.27-.72-1.75-1.28-.85-1.27-1.11-2.11-.39-1.81-.39-2.91v-4.08c0-1.1,.13-2.07,.39-2.91s.63-1.54,1.11-2.11,1.06-.99,1.75-1.28,1.45-.43,2.3-.43,1.63,.14,2.32,.43,1.27,.72,1.75,1.28,.85,1.27,1.11,2.11,.39,1.81,.39,2.91v4.08Zm-8.3-1.07l5.46-4.07c-.06-1.16-.32-2.03-.77-2.58s-1.1-.84-1.96-.84c-.91,0-1.6,.32-2.05,.97s-.68,1.64-.68,2.99v3.53Zm5.48-1.86l-5.46,4.07c.14,2.23,1.05,3.35,2.73,3.35,1.82,0,2.73-1.33,2.73-4v-3.42Z"/><path class="c" d="M311.65,47.89h-11.46v-1.93l5.55-6.06c.47-.52,.86-.99,1.18-1.39s.57-.77,.76-1.11,.32-.65,.4-.94,.12-.58,.12-.88c0-.39-.06-.75-.18-1.08s-.29-.62-.52-.86-.49-.42-.81-.56-.67-.2-1.06-.2c-1.02,0-1.76,.28-2.24,.83s-.72,1.32-.72,2.3h-2.81c0-.74,.13-1.44,.4-2.1s.66-1.24,1.16-1.73,1.12-.88,1.83-1.17,1.53-.43,2.43-.43c.84,0,1.59,.12,2.25,.36s1.21,.58,1.66,1.01,.8,.95,1.03,1.54,.35,1.25,.35,1.96c0,.53-.09,1.04-.26,1.54s-.41,.99-.71,1.48-.67,.99-1.09,1.48-.88,1.01-1.37,1.53l-3.87,4.15h7.98v2.24Z"/><path class="c" d="M326.05,47.89h-11.46v-1.93l5.55-6.06c.47-.52,.86-.99,1.18-1.39s.57-.77,.76-1.11,.32-.65,.4-.94,.12-.58,.12-.88c0-.39-.06-.75-.18-1.08s-.29-.62-.52-.86-.49-.42-.81-.56-.67-.2-1.06-.2c-1.02,0-1.76,.28-2.24,.83s-.72,1.32-.72,2.3h-2.81c0-.74,.13-1.44,.4-2.1s.66-1.24,1.16-1.73,1.12-.88,1.83-1.17,1.53-.43,2.43-.43c.84,0,1.59,.12,2.25,.36s1.21,.58,1.66,1.01,.8,.95,1.03,1.54,.35,1.25,.35,1.96c0,.53-.09,1.04-.26,1.54s-.41,.99-.71,1.48-.67,.99-1.09,1.48-.88,1.01-1.37,1.53l-3.87,4.15h7.98v2.24Z"/></g></g><g><rect class="d" x="363.79" y="17.12" width="172.88" height="47.53" rx="12" ry="12"/><g><path class="c" d="M413.25,40.6c0,.58-.05,1.15-.15,1.71s-.25,1.11-.44,1.63-.43,1.01-.73,1.47-.63,.87-1.01,1.22l2.91,2.5-1.86,1.7-3.33-2.92c-.25,.06-.51,.11-.78,.15s-.55,.06-.85,.06c-1.04,0-1.94-.22-2.71-.65s-1.41-1-1.92-1.71-.89-1.51-1.14-2.41-.38-1.82-.39-2.75v-2.18c0-.68,.07-1.35,.18-2s.28-1.27,.5-1.85,.51-1.12,.84-1.6,.73-.9,1.18-1.26,.97-.63,1.54-.83,1.21-.29,1.9-.29c1.05,0,1.96,.21,2.74,.64s1.43,1.01,1.95,1.73,.9,1.56,1.16,2.5,.39,1.93,.4,2.95v2.18Zm-2.84-2.2c0-.66-.05-1.32-.16-1.97s-.29-1.23-.54-1.73-.61-.92-1.05-1.24-.99-.47-1.66-.47-1.21,.16-1.63,.47-.76,.73-1.01,1.24-.42,1.09-.52,1.74-.15,1.3-.15,1.96v2.2c0,.58,.05,1.17,.15,1.78s.27,1.16,.52,1.66,.59,.92,1.01,1.24,.97,.48,1.63,.48,1.23-.16,1.66-.48,.79-.73,1.04-1.23,.44-1.05,.54-1.66,.16-1.2,.16-1.78v-2.2Z"/><path class="c" d="M423.63,47.89h-2.82v-13.61l-4.36,1.59v-2.46l7.01-2.59h.18v17.06Z"/><path class="c" d="M455.72,47.89h-11.46v-1.93l5.55-6.06c.47-.52,.86-.99,1.18-1.39s.57-.77,.76-1.11,.32-.65,.4-.94,.12-.58,.12-.88c0-.39-.06-.75-.18-1.08s-.29-.62-.52-.86-.49-.42-.81-.56-.67-.2-1.06-.2c-1.02,0-1.76,.28-2.24,.83s-.72,1.32-.72,2.3h-2.81c0-.74,.13-1.44,.4-2.1s.66-1.24,1.16-1.73,1.12-.88,1.83-1.17,1.53-.43,2.43-.43c.84,0,1.59,.12,2.25,.36s1.21,.58,1.66,1.01,.8,.95,1.03,1.54,.35,1.25,.35,1.96c0,.53-.09,1.04-.26,1.54s-.41,.99-.71,1.48-.67,.99-1.09,1.48-.88,1.01-1.37,1.53l-3.87,4.15h7.98v2.24Z"/><path class="c" d="M470.21,41.4c0,1.1-.13,2.07-.38,2.91s-.62,1.54-1.1,2.11-1.06,.99-1.75,1.28-1.46,.43-2.32,.43-1.62-.14-2.31-.43-1.27-.72-1.75-1.28-.85-1.27-1.11-2.11-.39-1.81-.39-2.91v-4.08c0-1.1,.13-2.07,.39-2.91s.63-1.54,1.11-2.11,1.06-.99,1.75-1.28,1.45-.43,2.3-.43,1.63,.14,2.32,.43,1.27,.72,1.75,1.28,.85,1.27,1.11,2.11,.39,1.81,.39,2.91v4.08Zm-8.3-1.07l5.46-4.07c-.06-1.16-.32-2.03-.77-2.58s-1.1-.84-1.96-.84c-.91,0-1.6,.32-2.05,.97s-.68,1.64-.68,2.99v3.53Zm5.48-1.86l-5.46,4.07c.14,2.23,1.05,3.35,2.73,3.35,1.82,0,2.73-1.33,2.73-4v-3.42Z"/><path class="c" d="M484.53,47.89h-11.46v-1.93l5.55-6.06c.47-.52,.86-.99,1.18-1.39s.57-.77,.76-1.11,.32-.65,.4-.94,.12-.58,.12-.88c0-.39-.06-.75-.18-1.08s-.29-.62-.52-.86-.49-.42-.81-.56-.67-.2-1.06-.2c-1.02,0-1.76,.28-2.24,.83s-.72,1.32-.72,2.3h-2.81c0-.74,.13-1.44,.4-2.1s.66-1.24,1.16-1.73,1.12-.88,1.83-1.17,1.53-.43,2.43-.43c.84,0,1.59,.12,2.25,.36s1.21,.58,1.66,1.01,.8,.95,1.03,1.54,.35,1.25,.35,1.96c0,.53-.09,1.04-.26,1.54s-.41,.99-.71,1.48-.67,.99-1.09,1.48-.88,1.01-1.37,1.53l-3.87,4.15h7.98v2.24Z"/><path class="c" d="M490.97,38.1h1.68c.49,0,.92-.06,1.29-.19s.67-.31,.91-.54,.42-.51,.54-.84,.18-.68,.18-1.07c0-.83-.22-1.47-.65-1.92s-1.09-.67-1.96-.67c-.38,0-.74,.06-1.06,.17s-.61,.28-.84,.49-.42,.46-.56,.76-.2,.63-.2,1.01h-2.8c0-.67,.13-1.29,.4-1.86s.64-1.06,1.12-1.48,1.05-.75,1.72-.98,1.39-.36,2.18-.36,1.54,.1,2.21,.31,1.25,.51,1.72,.92,.85,.91,1.11,1.52,.4,1.31,.4,2.1c0,.34-.05,.68-.15,1.03s-.26,.69-.46,1.02-.47,.63-.79,.92-.69,.53-1.12,.72c.52,.18,.95,.41,1.3,.69s.64,.6,.86,.94,.38,.72,.47,1.12,.14,.8,.14,1.22c0,.8-.14,1.51-.43,2.13s-.69,1.15-1.2,1.58-1.12,.75-1.81,.97-1.45,.33-2.25,.33c-.74,0-1.45-.1-2.12-.3s-1.26-.51-1.78-.91-.92-.9-1.22-1.5-.46-1.29-.46-2.08h2.8c0,.38,.07,.72,.2,1.04s.32,.59,.57,.81,.54,.4,.88,.52,.73,.19,1.16,.19c.89,0,1.59-.24,2.1-.71s.77-1.16,.77-2.06c0-.49-.07-.92-.22-1.27s-.36-.65-.64-.88-.61-.4-1-.51-.83-.16-1.32-.16h-1.68v-2.2Z"/></g></g><g><rect class="d" x="536.67" y="17.12" width="172.88" height="47.53" rx="12" ry="12"/><g><path class="c" d="M586.14,40.6c0,.58-.05,1.15-.15,1.71s-.25,1.11-.44,1.63-.43,1.01-.73,1.47-.63,.87-1.01,1.22l2.91,2.5-1.86,1.7-3.33-2.92c-.25,.06-.51,.11-.78,.15s-.55,.06-.85,.06c-1.04,0-1.94-.22-2.71-.65s-1.41-1-1.92-1.71-.89-1.51-1.14-2.41-.38-1.82-.39-2.75v-2.18c0-.68,.07-1.35,.18-2s.28-1.27,.5-1.85,.51-1.12,.84-1.6,.73-.9,1.18-1.26,.97-.63,1.54-.83,1.21-.29,1.9-.29c1.05,0,1.96,.21,2.74,.64s1.43,1.01,1.95,1.73,.9,1.56,1.16,2.5,.39,1.93,.4,2.95v2.18Zm-2.84-2.2c0-.66-.05-1.32-.16-1.97s-.29-1.23-.54-1.73-.61-.92-1.05-1.24-.99-.47-1.66-.47-1.21,.16-1.63,.47-.76,.73-1.01,1.24-.42,1.09-.52,1.74-.15,1.3-.15,1.96v2.2c0,.58,.05,1.17,.15,1.78s.27,1.16,.52,1.66,.59,.92,1.01,1.24,.97,.48,1.63,.48,1.23-.16,1.66-.48,.79-.73,1.04-1.23,.44-1.05,.54-1.66,.16-1.2,.16-1.78v-2.2Z"/><path class="c" d="M599.8,47.89h-11.46v-1.93l5.55-6.06c.47-.52,.86-.99,1.18-1.39s.57-.77,.76-1.11,.32-.65,.4-.94,.12-.58,.12-.88c0-.39-.06-.75-.18-1.08s-.29-.62-.52-.86-.49-.42-.81-.56-.67-.2-1.06-.2c-1.02,0-1.76,.28-2.24,.83s-.72,1.32-.72,2.3h-2.81c0-.74,.13-1.44,.4-2.1s.66-1.24,1.16-1.73,1.12-.88,1.83-1.17,1.53-.43,2.43-.43c.84,0,1.59,.12,2.25,.36s1.21,.58,1.66,1.01,.8,.95,1.03,1.54,.35,1.25,.35,1.96c0,.53-.09,1.04-.26,1.54s-.41,.99-.71,1.48-.67,.99-1.09,1.48-.88,1.01-1.37,1.53l-3.87,4.15h7.98v2.24Z"/><path class="c" d="M628.61,47.89h-11.46v-1.93l5.55-6.06c.47-.52,.86-.99,1.18-1.39s.57-.77,.76-1.11,.32-.65,.4-.94,.12-.58,.12-.88c0-.39-.06-.75-.18-1.08s-.29-.62-.52-.86-.49-.42-.81-.56-.67-.2-1.06-.2c-1.02,0-1.76,.28-2.24,.83s-.72,1.32-.72,2.3h-2.81c0-.74,.13-1.44,.4-2.1s.66-1.24,1.16-1.73,1.12-.88,1.83-1.17,1.53-.43,2.43-.43c.84,0,1.59,.12,2.25,.36s1.21,.58,1.66,1.01,.8,.95,1.03,1.54,.35,1.25,.35,1.96c0,.53-.09,1.04-.26,1.54s-.41,.99-.71,1.48-.67,.99-1.09,1.48-.88,1.01-1.37,1.53l-3.87,4.15h7.98v2.24Z"/><path class="c" d="M643.09,41.4c0,1.1-.13,2.07-.38,2.91s-.62,1.54-1.1,2.11-1.06,.99-1.75,1.28-1.46,.43-2.32,.43-1.62-.14-2.31-.43-1.27-.72-1.75-1.28-.85-1.27-1.11-2.11-.39-1.81-.39-2.91v-4.08c0-1.1,.13-2.07,.39-2.91s.63-1.54,1.11-2.11,1.06-.99,1.75-1.28,1.45-.43,2.3-.43,1.63,.14,2.32,.43,1.27,.72,1.75,1.28,.85,1.27,1.11,2.11,.39,1.81,.39,2.91v4.08Zm-8.3-1.07l5.46-4.07c-.06-1.16-.32-2.03-.77-2.58s-1.1-.84-1.96-.84c-.91,0-1.6,.32-2.05,.97s-.68,1.64-.68,2.99v3.53Zm5.48-1.86l-5.46,4.07c.14,2.23,1.05,3.35,2.73,3.35,1.82,0,2.73-1.33,2.73-4v-3.42Z"/><path class="c" d="M657.41,47.89h-11.46v-1.93l5.55-6.06c.47-.52,.86-.99,1.18-1.39s.57-.77,.76-1.11,.32-.65,.4-.94,.12-.58,.12-.88c0-.39-.06-.75-.18-1.08s-.29-.62-.52-.86-.49-.42-.81-.56-.67-.2-1.06-.2c-1.02,0-1.76,.28-2.24,.83s-.72,1.32-.72,2.3h-2.81c0-.74,.13-1.44,.4-2.1s.66-1.24,1.16-1.73,1.12-.88,1.83-1.17,1.53-.43,2.43-.43c.84,0,1.59,.12,2.25,.36s1.21,.58,1.66,1.01,.8,.95,1.03,1.54,.35,1.25,.35,1.96c0,.53-.09,1.04-.26,1.54s-.41,.99-.71,1.48-.67,.99-1.09,1.48-.88,1.01-1.37,1.53l-3.87,4.15h7.98v2.24Z"/><path class="c" d="M663.86,38.1h1.68c.49,0,.92-.06,1.29-.19s.67-.31,.91-.54,.42-.51,.54-.84,.18-.68,.18-1.07c0-.83-.22-1.47-.65-1.92s-1.09-.67-1.96-.67c-.38,0-.74,.06-1.06,.17s-.61,.28-.84,.49-.42,.46-.56,.76-.2,.63-.2,1.01h-2.8c0-.67,.13-1.29,.4-1.86s.64-1.06,1.12-1.48,1.05-.75,1.72-.98,1.39-.36,2.18-.36,1.54,.1,2.21,.31,1.25,.51,1.72,.92,.85,.91,1.11,1.52,.4,1.31,.4,2.1c0,.34-.05,.68-.15,1.03s-.26,.69-.46,1.02-.47,.63-.79,.92-.69,.53-1.12,.72c.52,.18,.95,.41,1.3,.69s.64,.6,.86,.94,.38,.72,.47,1.12,.14,.8,.14,1.22c0,.8-.14,1.51-.43,2.13s-.69,1.15-1.2,1.58-1.12,.75-1.81,.97-1.45,.33-2.25,.33c-.74,0-1.45-.1-2.12-.3s-1.26-.51-1.78-.91-.92-.9-1.22-1.5-.46-1.29-.46-2.08h2.8c0,.38,.07,.72,.2,1.04s.32,.59,.57,.81,.54,.4,.88,.52,.73,.19,1.16,.19c.89,0,1.59-.24,2.1-.71s.77-1.16,.77-2.06c0-.49-.07-.92-.22-1.27s-.36-.65-.64-.88-.61-.4-1-.51-.83-.16-1.32-.16h-1.68v-2.2Z"/></g></g><g><rect class="d" x="709.56" y="17.12" width="172.88" height="47.53" rx="12" ry="12"/><g><path class="c" d="M759.02,40.6c0,.58-.05,1.15-.15,1.71s-.25,1.11-.44,1.63-.43,1.01-.73,1.47-.63,.87-1.01,1.22l2.91,2.5-1.86,1.7-3.33-2.92c-.25,.06-.51,.11-.78,.15s-.55,.06-.85,.06c-1.04,0-1.94-.22-2.71-.65s-1.41-1-1.92-1.71-.89-1.51-1.14-2.41-.38-1.82-.39-2.75v-2.18c0-.68,.07-1.35,.18-2s.28-1.27,.5-1.85,.51-1.12,.84-1.6,.73-.9,1.18-1.26,.97-.63,1.54-.83,1.21-.29,1.9-.29c1.05,0,1.96,.21,2.74,.64s1.43,1.01,1.95,1.73,.9,1.56,1.16,2.5,.39,1.93,.4,2.95v2.18Zm-2.84-2.2c0-.66-.05-1.32-.16-1.97s-.29-1.23-.54-1.73-.61-.92-1.05-1.24-.99-.47-1.66-.47-1.21,.16-1.63,.47-.76,.73-1.01,1.24-.42,1.09-.52,1.74-.15,1.3-.15,1.96v2.2c0,.58,.05,1.17,.15,1.78s.27,1.16,.52,1.66,.59,.92,1.01,1.24,.97,.48,1.63,.48,1.23-.16,1.66-.48,.79-.73,1.04-1.23,.44-1.05,.54-1.66,.16-1.2,.16-1.78v-2.2Z"/><path class="c" d="M764.73,38.1h1.68c.49,0,.92-.06,1.29-.19s.67-.31,.91-.54,.42-.51,.54-.84,.18-.68,.18-1.07c0-.83-.22-1.47-.65-1.92s-1.09-.67-1.96-.67c-.38,0-.74,.06-1.06,.17s-.61,.28-.84,.49-.42,.46-.56,.76-.2,.63-.2,1.01h-2.8c0-.67,.13-1.29,.4-1.86s.64-1.06,1.12-1.48,1.05-.75,1.72-.98,1.39-.36,2.18-.36,1.54,.1,2.21,.31,1.25,.51,1.72,.92,.85,.91,1.11,1.52,.4,1.31,.4,2.1c0,.34-.05,.68-.15,1.03s-.26,.69-.46,1.02-.47,.63-.79,.92-.69,.53-1.12,.72c.52,.18,.95,.41,1.3,.69s.64,.6,.86,.94,.38,.72,.47,1.12,.14,.8,.14,1.22c0,.8-.14,1.51-.43,2.13s-.69,1.15-1.2,1.58-1.12,.75-1.81,.97-1.45,.33-2.25,.33c-.74,0-1.45-.1-2.12-.3s-1.26-.51-1.78-.91-.92-.9-1.22-1.5-.46-1.29-.46-2.08h2.8c0,.38,.07,.72,.2,1.04s.32,.59,.57,.81,.54,.4,.88,.52,.73,.19,1.16,.19c.89,0,1.59-.24,2.1-.71s.77-1.16,.77-2.06c0-.49-.07-.92-.22-1.27s-.36-.65-.64-.88-.61-.4-1-.51-.83-.16-1.32-.16h-1.68v-2.2Z"/><path class="c" d="M801.49,47.89h-11.46v-1.93l5.55-6.06c.47-.52,.86-.99,1.18-1.39s.57-.77,.76-1.11,.32-.65,.4-.94,.12-.58,.12-.88c0-.39-.06-.75-.18-1.08s-.29-.62-.52-.86-.49-.42-.81-.56-.67-.2-1.06-.2c-1.02,0-1.76,.28-2.24,.83s-.72,1.32-.72,2.3h-2.81c0-.74,.13-1.44,.4-2.1s.66-1.24,1.16-1.73,1.12-.88,1.83-1.17,1.53-.43,2.43-.43c.84,0,1.59,.12,2.25,.36s1.21,.58,1.66,1.01,.8,.95,1.03,1.54,.35,1.25,.35,1.96c0,.53-.09,1.04-.26,1.54s-.41,.99-.71,1.48-.67,.99-1.09,1.48-.88,1.01-1.37,1.53l-3.87,4.15h7.98v2.24Z"/><path class="c" d="M815.97,41.4c0,1.1-.13,2.07-.38,2.91s-.62,1.54-1.1,2.11-1.06,.99-1.75,1.28-1.46,.43-2.32,.43-1.62-.14-2.31-.43-1.27-.72-1.75-1.28-.85-1.27-1.11-2.11-.39-1.81-.39-2.91v-4.08c0-1.1,.13-2.07,.39-2.91s.63-1.54,1.11-2.11,1.06-.99,1.75-1.28,1.45-.43,2.3-.43,1.63,.14,2.32,.43,1.27,.72,1.75,1.28,.85,1.27,1.11,2.11,.39,1.81,.39,2.91v4.08Zm-8.3-1.07l5.46-4.07c-.06-1.16-.32-2.03-.77-2.58s-1.1-.84-1.96-.84c-.91,0-1.6,.32-2.05,.97s-.68,1.64-.68,2.99v3.53Zm5.48-1.86l-5.46,4.07c.14,2.23,1.05,3.35,2.73,3.35,1.82,0,2.73-1.33,2.73-4v-3.42Z"/><path class="c" d="M830.29,47.89h-11.46v-1.93l5.55-6.06c.47-.52,.86-.99,1.18-1.39s.57-.77,.76-1.11,.32-.65,.4-.94,.12-.58,.12-.88c0-.39-.06-.75-.18-1.08s-.29-.62-.52-.86-.49-.42-.81-.56-.67-.2-1.06-.2c-1.02,0-1.76,.28-2.24,.83s-.72,1.32-.72,2.3h-2.81c0-.74,.13-1.44,.4-2.1s.66-1.24,1.16-1.73,1.12-.88,1.83-1.17,1.53-.43,2.43-.43c.84,0,1.59,.12,2.25,.36s1.21,.58,1.66,1.01,.8,.95,1.03,1.54,.35,1.25,.35,1.96c0,.53-.09,1.04-.26,1.54s-.41,.99-.71,1.48-.67,.99-1.09,1.48-.88,1.01-1.37,1.53l-3.87,4.15h7.98v2.24Z"/><path class="c" d="M836.74,38.1h1.68c.49,0,.92-.06,1.29-.19s.67-.31,.91-.54,.42-.51,.54-.84,.18-.68,.18-1.07c0-.83-.22-1.47-.65-1.92s-1.09-.67-1.96-.67c-.38,0-.74,.06-1.06,.17s-.61,.28-.84,.49-.42,.46-.56,.76-.2,.63-.2,1.01h-2.8c0-.67,.13-1.29,.4-1.86s.64-1.06,1.12-1.48,1.05-.75,1.72-.98,1.39-.36,2.18-.36,1.54,.1,2.21,.31,1.25,.51,1.72,.92,.85,.91,1.11,1.52,.4,1.31,.4,2.1c0,.34-.05,.68-.15,1.03s-.26,.69-.46,1.02-.47,.63-.79,.92-.69,.53-1.12,.72c.52,.18,.95,.41,1.3,.69s.64,.6,.86,.94,.38,.72,.47,1.12,.14,.8,.14,1.22c0,.8-.14,1.51-.43,2.13s-.69,1.15-1.2,1.58-1.12,.75-1.81,.97-1.45,.33-2.25,.33c-.74,0-1.45-.1-2.12-.3s-1.26-.51-1.78-.91-.92-.9-1.22-1.5-.46-1.29-.46-2.08h2.8c0,.38,.07,.72,.2,1.04s.32,.59,.57,.81,.54,.4,.88,.52,.73,.19,1.16,.19c.89,0,1.59-.24,2.1-.71s.77-1.16,.77-2.06c0-.49-.07-.92-.22-1.27s-.36-.65-.64-.88-.61-.4-1-.51-.83-.16-1.32-.16h-1.68v-2.2Z"/></g></g><g><rect class="d" x="882.44" y="17.12" width="172.88" height="47.53" rx="12" ry="12"/><g><path class="c" d="M931.9,40.6c0,.58-.05,1.15-.15,1.71s-.25,1.11-.44,1.63-.43,1.01-.73,1.47-.63,.87-1.01,1.22l2.91,2.5-1.86,1.7-3.33-2.92c-.25,.06-.51,.11-.78,.15s-.55,.06-.85,.06c-1.04,0-1.94-.22-2.71-.65s-1.41-1-1.92-1.71-.89-1.51-1.14-2.41-.38-1.82-.39-2.75v-2.18c0-.68,.07-1.35,.18-2s.28-1.27,.5-1.85,.51-1.12,.84-1.6,.73-.9,1.18-1.26,.97-.63,1.54-.83,1.21-.29,1.9-.29c1.05,0,1.96,.21,2.74,.64s1.43,1.01,1.95,1.73,.9,1.56,1.16,2.5,.39,1.93,.4,2.95v2.18Zm-2.84-2.2c0-.66-.05-1.32-.16-1.97s-.29-1.23-.54-1.73-.61-.92-1.05-1.24-.99-.47-1.66-.47-1.21,.16-1.63,.47-.76,.73-1.01,1.24-.42,1.09-.52,1.74-.15,1.3-.15,1.96v2.2c0,.58,.05,1.17,.15,1.78s.27,1.16,.52,1.66,.59,.92,1.01,1.24,.97,.48,1.63,.48,1.23-.16,1.66-.48,.79-.73,1.04-1.23,.44-1.05,.54-1.66,.16-1.2,.16-1.78v-2.2Z"/><path class="c" d="M943.92,41.83h2.14v2.26h-2.14v3.8h-2.8v-3.8h-7.41l-.07-1.7,7.38-11.57h2.89v11Zm-7.39,0h4.59v-7.27l-.3,.55-4.29,6.71Z"/><path class="c" d="M974.37,47.89h-11.46v-1.93l5.55-6.06c.47-.52,.86-.99,1.18-1.39s.57-.77,.76-1.11,.32-.65,.4-.94,.12-.58,.12-.88c0-.39-.06-.75-.18-1.08s-.29-.62-.52-.86-.49-.42-.81-.56-.67-.2-1.06-.2c-1.02,0-1.76,.28-2.24,.83s-.72,1.32-.72,2.3h-2.81c0-.74,.13-1.44,.4-2.1s.66-1.24,1.16-1.73,1.12-.88,1.83-1.17,1.53-.43,2.43-.43c.84,0,1.59,.12,2.25,.36s1.21,.58,1.66,1.01,.8,.95,1.03,1.54,.35,1.25,.35,1.96c0,.53-.09,1.04-.26,1.54s-.41,.99-.71,1.48-.67,.99-1.09,1.48-.88,1.01-1.37,1.53l-3.87,4.15h7.98v2.24Z"/><path class="c" d="M988.85,41.4c0,1.1-.13,2.07-.38,2.91s-.62,1.54-1.1,2.11-1.06,.99-1.75,1.28-1.46,.43-2.32,.43-1.62-.14-2.31-.43-1.27-.72-1.75-1.28-.85-1.27-1.11-2.11-.39-1.81-.39-2.91v-4.08c0-1.1,.13-2.07,.39-2.91s.63-1.54,1.11-2.11,1.06-.99,1.75-1.28,1.45-.43,2.3-.43,1.63,.14,2.32,.43,1.27,.72,1.75,1.28,.85,1.27,1.11,2.11,.39,1.81,.39,2.91v4.08Zm-8.3-1.07l5.46-4.07c-.06-1.16-.32-2.03-.77-2.58s-1.1-.84-1.96-.84c-.91,0-1.6,.32-2.05,.97s-.68,1.64-.68,2.99v3.53Zm5.48-1.86l-5.46,4.07c.14,2.23,1.05,3.35,2.73,3.35,1.82,0,2.73-1.33,2.73-4v-3.42Z"/><path class="c" d="M1003.17,47.89h-11.46v-1.93l5.55-6.06c.47-.52,.86-.99,1.18-1.39s.57-.77,.76-1.11,.32-.65,.4-.94,.12-.58,.12-.88c0-.39-.06-.75-.18-1.08s-.29-.62-.52-.86-.49-.42-.81-.56-.67-.2-1.06-.2c-1.02,0-1.76,.28-2.24,.83s-.72,1.32-.72,2.3h-2.81c0-.74,.13-1.44,.4-2.1s.66-1.24,1.16-1.73,1.12-.88,1.83-1.17,1.53-.43,2.43-.43c.84,0,1.59,.12,2.25,.36s1.21,.58,1.66,1.01,.8,.95,1.03,1.54,.35,1.25,.35,1.96c0,.53-.09,1.04-.26,1.54s-.41,.99-.71,1.48-.67,.99-1.09,1.48-.88,1.01-1.37,1.53l-3.87,4.15h7.98v2.24Z"/><path class="c" d="M1009.62,38.1h1.68c.49,0,.92-.06,1.29-.19s.67-.31,.91-.54,.42-.51,.54-.84,.18-.68,.18-1.07c0-.83-.22-1.47-.65-1.92s-1.09-.67-1.96-.67c-.38,0-.74,.06-1.06,.17s-.61,.28-.84,.49-.42,.46-.56,.76-.2,.63-.2,1.01h-2.8c0-.67,.13-1.29,.4-1.86s.64-1.06,1.12-1.48,1.05-.75,1.72-.98,1.39-.36,2.18-.36,1.54,.1,2.21,.31,1.25,.51,1.72,.92,.85,.91,1.11,1.52,.4,1.31,.4,2.1c0,.34-.05,.68-.15,1.03s-.26,.69-.46,1.02-.47,.63-.79,.92-.69,.53-1.12,.72c.52,.18,.95,.41,1.3,.69s.64,.6,.86,.94,.38,.72,.47,1.12,.14,.8,.14,1.22c0,.8-.14,1.51-.43,2.13s-.69,1.15-1.2,1.58-1.12,.75-1.81,.97-1.45,.33-2.25,.33c-.74,0-1.45-.1-2.12-.3s-1.26-.51-1.78-.91-.92-.9-1.22-1.5-.46-1.29-.46-2.08h2.8c0,.38,.07,.72,.2,1.04s.32,.59,.57,.81,.54,.4,.88,.52,.73,.19,1.16,.19c.89,0,1.59-.24,2.1-.71s.77-1.16,.77-2.06c0-.49-.07-.92-.22-1.27s-.36-.65-.64-.88-.61-.4-1-.51-.83-.16-1.32-.16h-1.68v-2.2Z"/></g></g><g><rect class="d" x="1055.32" y="17.12" width="172.88" height="47.53" rx="12" ry="12"/><g><path class="c" d="M1104.78,40.6c0,.58-.05,1.15-.15,1.71s-.25,1.11-.44,1.63-.43,1.01-.73,1.47-.63,.87-1.01,1.22l2.91,2.5-1.86,1.7-3.33-2.92c-.25,.06-.51,.11-.78,.15s-.55,.06-.85,.06c-1.04,0-1.94-.22-2.71-.65s-1.41-1-1.92-1.71-.89-1.51-1.14-2.41-.38-1.82-.39-2.75v-2.18c0-.68,.07-1.35,.18-2s.28-1.27,.5-1.85,.51-1.12,.84-1.6,.73-.9,1.18-1.26,.97-.63,1.54-.83,1.21-.29,1.9-.29c1.05,0,1.96,.21,2.74,.64s1.43,1.01,1.95,1.73,.9,1.56,1.16,2.5,.39,1.93,.4,2.95v2.18Zm-2.84-2.2c0-.66-.05-1.32-.16-1.97s-.29-1.23-.54-1.73-.61-.92-1.05-1.24-.99-.47-1.66-.47-1.21,.16-1.63,.47-.76,.73-1.01,1.24-.42,1.09-.52,1.74-.15,1.3-.15,1.96v2.2c0,.58,.05,1.17,.15,1.78s.27,1.16,.52,1.66,.59,.92,1.01,1.24,.97,.48,1.63,.48,1.23-.16,1.66-.48,.79-.73,1.04-1.23,.44-1.05,.54-1.66,.16-1.2,.16-1.78v-2.2Z"/><path class="c" d="M1115.15,47.89h-2.82v-13.61l-4.36,1.59v-2.46l7.01-2.59h.18v17.06Z"/><path class="c" d="M1147.25,47.89h-11.46v-1.93l5.55-6.06c.47-.52,.86-.99,1.18-1.39s.57-.77,.76-1.11,.32-.65,.4-.94,.12-.58,.12-.88c0-.39-.06-.75-.18-1.08s-.29-.62-.52-.86-.49-.42-.81-.56-.67-.2-1.06-.2c-1.02,0-1.76,.28-2.24,.83s-.72,1.32-.72,2.3h-2.81c0-.74,.13-1.44,.4-2.1s.66-1.24,1.16-1.73,1.12-.88,1.83-1.17,1.53-.43,2.43-.43c.84,0,1.59,.12,2.25,.36s1.21,.58,1.66,1.01,.8,.95,1.03,1.54,.35,1.25,.35,1.96c0,.53-.09,1.04-.26,1.54s-.41,.99-.71,1.48-.67,.99-1.09,1.48-.88,1.01-1.37,1.53l-3.87,4.15h7.98v2.24Z"/><path class="c" d="M1161.74,41.4c0,1.1-.13,2.07-.38,2.91s-.62,1.54-1.1,2.11-1.06,.99-1.75,1.28-1.46,.43-2.32,.43-1.62-.14-2.31-.43-1.27-.72-1.75-1.28-.85-1.27-1.11-2.11-.39-1.81-.39-2.91v-4.08c0-1.1,.13-2.07,.39-2.91s.63-1.54,1.11-2.11,1.06-.99,1.75-1.28,1.45-.43,2.3-.43,1.63,.14,2.32,.43,1.27,.72,1.75,1.28,.85,1.27,1.11,2.11,.39,1.81,.39,2.91v4.08Zm-8.3-1.07l5.46-4.07c-.06-1.16-.32-2.03-.77-2.58s-1.1-.84-1.96-.84c-.91,0-1.6,.32-2.05,.97s-.68,1.64-.68,2.99v3.53Zm5.48-1.86l-5.46,4.07c.14,2.23,1.05,3.35,2.73,3.35,1.82,0,2.73-1.33,2.73-4v-3.42Z"/><path class="c" d="M1176.06,47.89h-11.46v-1.93l5.55-6.06c.47-.52,.86-.99,1.18-1.39s.57-.77,.76-1.11,.32-.65,.4-.94,.12-.58,.12-.88c0-.39-.06-.75-.18-1.08s-.29-.62-.52-.86-.49-.42-.81-.56-.67-.2-1.06-.2c-1.02,0-1.76,.28-2.24,.83s-.72,1.32-.72,2.3h-2.81c0-.74,.13-1.44,.4-2.1s.66-1.24,1.16-1.73,1.12-.88,1.83-1.17,1.53-.43,2.43-.43c.84,0,1.59,.12,2.25,.36s1.21,.58,1.66,1.01,.8,.95,1.03,1.54,.35,1.25,.35,1.96c0,.53-.09,1.04-.26,1.54s-.41,.99-.71,1.48-.67,.99-1.09,1.48-.88,1.01-1.37,1.53l-3.87,4.15h7.98v2.24Z"/><path class="c" d="M1188.82,41.83h2.14v2.26h-2.14v3.8h-2.8v-3.8h-7.41l-.07-1.7,7.38-11.57h2.89v11Zm-7.39,0h4.59v-7.27l-.3,.55-4.29,6.71Z"/></g></g><g><rect class="d" x="1228.2" y="17.12" width="172.88" height="47.53" rx="12" ry="12"/><g><path class="c" d="M1277.66,40.6c0,.58-.05,1.15-.15,1.71s-.25,1.11-.44,1.63-.43,1.01-.73,1.47-.63,.87-1.01,1.22l2.91,2.5-1.86,1.7-3.33-2.92c-.25,.06-.51,.11-.78,.15s-.55,.06-.85,.06c-1.04,0-1.94-.22-2.71-.65s-1.41-1-1.92-1.71-.89-1.51-1.14-2.41-.38-1.82-.39-2.75v-2.18c0-.68,.07-1.35,.18-2s.28-1.27,.5-1.85,.51-1.12,.84-1.6,.73-.9,1.18-1.26,.97-.63,1.54-.83,1.21-.29,1.9-.29c1.05,0,1.96,.21,2.74,.64s1.43,1.01,1.95,1.73,.9,1.56,1.16,2.5,.39,1.93,.4,2.95v2.18Zm-2.84-2.2c0-.66-.05-1.32-.16-1.97s-.29-1.23-.54-1.73-.61-.92-1.05-1.24-.99-.47-1.66-.47-1.21,.16-1.63,.47-.76,.73-1.01,1.24-.42,1.09-.52,1.74-.15,1.3-.15,1.96v2.2c0,.58,.05,1.17,.15,1.78s.27,1.16,.52,1.66,.59,.92,1.01,1.24,.97,.48,1.63,.48,1.23-.16,1.66-.48,.79-.73,1.04-1.23,.44-1.05,.54-1.66,.16-1.2,.16-1.78v-2.2Z"/><path class="c" d="M1291.33,47.89h-11.46v-1.93l5.55-6.06c.47-.52,.86-.99,1.18-1.39s.57-.77,.76-1.11,.32-.65,.4-.94,.12-.58,.12-.88c0-.39-.06-.75-.18-1.08s-.29-.62-.52-.86-.49-.42-.81-.56-.67-.2-1.06-.2c-1.02,0-1.76,.28-2.24,.83s-.72,1.32-.72,2.3h-2.81c0-.74,.13-1.44,.4-2.1s.66-1.24,1.16-1.73,1.12-.88,1.83-1.17,1.53-.43,2.43-.43c.84,0,1.59,.12,2.25,.36s1.21,.58,1.66,1.01,.8,.95,1.03,1.54,.35,1.25,.35,1.96c0,.53-.09,1.04-.26,1.54s-.41,.99-.71,1.48-.67,.99-1.09,1.48-.88,1.01-1.37,1.53l-3.87,4.15h7.98v2.24Z"/><path class="c" d="M1320.13,47.89h-11.46v-1.93l5.55-6.06c.47-.52,.86-.99,1.18-1.39s.57-.77,.76-1.11,.32-.65,.4-.94,.12-.58,.12-.88c0-.39-.06-.75-.18-1.08s-.29-.62-.52-.86-.49-.42-.81-.56-.67-.2-1.06-.2c-1.02,0-1.76,.28-2.24,.83s-.72,1.32-.72,2.3h-2.81c0-.74,.13-1.44,.4-2.1s.66-1.24,1.16-1.73,1.12-.88,1.83-1.17,1.53-.43,2.43-.43c.84,0,1.59,.12,2.25,.36s1.21,.58,1.66,1.01,.8,.95,1.03,1.54,.35,1.25,.35,1.96c0,.53-.09,1.04-.26,1.54s-.41,.99-.71,1.48-.67,.99-1.09,1.48-.88,1.01-1.37,1.53l-3.87,4.15h7.98v2.24Z"/><path class="c" d="M1334.62,41.4c0,1.1-.13,2.07-.38,2.91s-.62,1.54-1.1,2.11-1.06,.99-1.75,1.28-1.46,.43-2.32,.43-1.62-.14-2.31-.43-1.27-.72-1.75-1.28-.85-1.27-1.11-2.11-.39-1.81-.39-2.91v-4.08c0-1.1,.13-2.07,.39-2.91s.63-1.54,1.11-2.11,1.06-.99,1.75-1.28,1.45-.43,2.3-.43,1.63,.14,2.32,.43,1.27,.72,1.75,1.28,.85,1.27,1.11,2.11,.39,1.81,.39,2.91v4.08Zm-8.3-1.07l5.46-4.07c-.06-1.16-.32-2.03-.77-2.58s-1.1-.84-1.96-.84c-.91,0-1.6,.32-2.05,.97s-.68,1.64-.68,2.99v3.53Zm5.48-1.86l-5.46,4.07c.14,2.23,1.05,3.35,2.73,3.35,1.82,0,2.73-1.33,2.73-4v-3.42Z"/><path class="c" d="M1348.94,47.89h-11.46v-1.93l5.55-6.06c.47-.52,.86-.99,1.18-1.39s.57-.77,.76-1.11,.32-.65,.4-.94,.12-.58,.12-.88c0-.39-.06-.75-.18-1.08s-.29-.62-.52-.86-.49-.42-.81-.56-.67-.2-1.06-.2c-1.02,0-1.76,.28-2.24,.83s-.72,1.32-.72,2.3h-2.81c0-.74,.13-1.44,.4-2.1s.66-1.24,1.16-1.73,1.12-.88,1.83-1.17,1.53-.43,2.43-.43c.84,0,1.59,.12,2.25,.36s1.21,.58,1.66,1.01,.8,.95,1.03,1.54,.35,1.25,.35,1.96c0,.53-.09,1.04-.26,1.54s-.41,.99-.71,1.48-.67,.99-1.09,1.48-.88,1.01-1.37,1.53l-3.87,4.15h7.98v2.24Z"/><path class="c" d="M1361.7,41.83h2.14v2.26h-2.14v3.8h-2.8v-3.8h-7.41l-.07-1.7,7.38-11.57h2.89v11Zm-7.39,0h4.59v-7.27l-.3,.55-4.29,6.71Z"/></g></g><g><rect class="d" x="1401.08" y="17.12" width="172.88" height="47.53" rx="12" ry="12"/><g><path class="c" d="M1450.55,40.6c0,.58-.05,1.15-.15,1.71s-.25,1.11-.44,1.63-.43,1.01-.73,1.47-.63,.87-1.01,1.22l2.91,2.5-1.86,1.7-3.33-2.92c-.25,.06-.51,.11-.78,.15s-.55,.06-.85,.06c-1.04,0-1.94-.22-2.71-.65s-1.41-1-1.92-1.71-.89-1.51-1.14-2.41-.38-1.82-.39-2.75v-2.18c0-.68,.07-1.35,.18-2s.28-1.27,.5-1.85,.51-1.12,.84-1.6,.73-.9,1.18-1.26,.97-.63,1.54-.83,1.21-.29,1.9-.29c1.05,0,1.96,.21,2.74,.64s1.43,1.01,1.95,1.73,.9,1.56,1.16,2.5,.39,1.93,.4,2.95v2.18Zm-2.84-2.2c0-.66-.05-1.32-.16-1.97s-.29-1.23-.54-1.73-.61-.92-1.05-1.24-.99-.47-1.66-.47-1.21,.16-1.63,.47-.76,.73-1.01,1.24-.42,1.09-.52,1.74-.15,1.3-.15,1.96v2.2c0,.58,.05,1.17,.15,1.78s.27,1.16,.52,1.66,.59,.92,1.01,1.24,.97,.48,1.63,.48,1.23-.16,1.66-.48,.79-.73,1.04-1.23,.44-1.05,.54-1.66,.16-1.2,.16-1.78v-2.2Z"/><path class="c" d="M1456.25,38.1h1.68c.49,0,.92-.06,1.29-.19s.67-.31,.91-.54,.42-.51,.54-.84,.18-.68,.18-1.07c0-.83-.22-1.47-.65-1.92s-1.09-.67-1.96-.67c-.38,0-.74,.06-1.06,.17s-.61,.28-.84,.49-.42,.46-.56,.76-.2,.63-.2,1.01h-2.8c0-.67,.13-1.29,.4-1.86s.64-1.06,1.12-1.48,1.05-.75,1.72-.98,1.39-.36,2.18-.36,1.54,.1,2.21,.31,1.25,.51,1.72,.92,.85,.91,1.11,1.52,.4,1.31,.4,2.1c0,.34-.05,.68-.15,1.03s-.26,.69-.46,1.02-.47,.63-.79,.92-.69,.53-1.12,.72c.52,.18,.95,.41,1.3,.69s.64,.6,.86,.94,.38,.72,.47,1.12,.14,.8,.14,1.22c0,.8-.14,1.51-.43,2.13s-.69,1.15-1.2,1.58-1.12,.75-1.81,.97-1.45,.33-2.25,.33c-.74,0-1.45-.1-2.12-.3s-1.26-.51-1.78-.91-.92-.9-1.22-1.5-.46-1.29-.46-2.08h2.8c0,.38,.07,.72,.2,1.04s.32,.59,.57,.81,.54,.4,.88,.52,.73,.19,1.16,.19c.89,0,1.59-.24,2.1-.71s.77-1.16,.77-2.06c0-.49-.07-.92-.22-1.27s-.36-.65-.64-.88-.61-.4-1-.51-.83-.16-1.32-.16h-1.68v-2.2Z"/><path class="c" d="M1493.01,47.89h-11.46v-1.93l5.55-6.06c.47-.52,.86-.99,1.18-1.39s.57-.77,.76-1.11,.32-.65,.4-.94,.12-.58,.12-.88c0-.39-.06-.75-.18-1.08s-.29-.62-.52-.86-.49-.42-.81-.56-.67-.2-1.06-.2c-1.02,0-1.76,.28-2.24,.83s-.72,1.32-.72,2.3h-2.81c0-.74,.13-1.44,.4-2.1s.66-1.24,1.16-1.73,1.12-.88,1.83-1.17,1.53-.43,2.43-.43c.84,0,1.59,.12,2.25,.36s1.21,.58,1.66,1.01,.8,.95,1.03,1.54,.35,1.25,.35,1.96c0,.53-.09,1.04-.26,1.54s-.41,.99-.71,1.48-.67,.99-1.09,1.48-.88,1.01-1.37,1.53l-3.87,4.15h7.98v2.24Z"/><path class="c" d="M1507.5,41.4c0,1.1-.13,2.07-.38,2.91s-.62,1.54-1.1,2.11-1.06,.99-1.75,1.28-1.46,.43-2.32,.43-1.62-.14-2.31-.43-1.27-.72-1.75-1.28-.85-1.27-1.11-2.11-.39-1.81-.39-2.91v-4.08c0-1.1,.13-2.07,.39-2.91s.63-1.54,1.11-2.11,1.06-.99,1.75-1.28,1.45-.43,2.3-.43,1.63,.14,2.32,.43,1.27,.72,1.75,1.28,.85,1.27,1.11,2.11,.39,1.81,.39,2.91v4.08Zm-8.3-1.07l5.46-4.07c-.06-1.16-.32-2.03-.77-2.58s-1.1-.84-1.96-.84c-.91,0-1.6,.32-2.05,.97s-.68,1.64-.68,2.99v3.53Zm5.48-1.86l-5.46,4.07c.14,2.23,1.05,3.35,2.73,3.35,1.82,0,2.73-1.33,2.73-4v-3.42Z"/><path class="c" d="M1521.82,47.89h-11.46v-1.93l5.55-6.06c.47-.52,.86-.99,1.18-1.39s.57-.77,.76-1.11,.32-.65,.4-.94,.12-.58,.12-.88c0-.39-.06-.75-.18-1.08s-.29-.62-.52-.86-.49-.42-.81-.56-.67-.2-1.06-.2c-1.02,0-1.76,.28-2.24,.83s-.72,1.32-.72,2.3h-2.81c0-.74,.13-1.44,.4-2.1s.66-1.24,1.16-1.73,1.12-.88,1.83-1.17,1.53-.43,2.43-.43c.84,0,1.59,.12,2.25,.36s1.21,.58,1.66,1.01,.8,.95,1.03,1.54,.35,1.25,.35,1.96c0,.53-.09,1.04-.26,1.54s-.41,.99-.71,1.48-.67,.99-1.09,1.48-.88,1.01-1.37,1.53l-3.87,4.15h7.98v2.24Z"/><path class="c" d="M1534.58,41.83h2.14v2.26h-2.14v3.8h-2.8v-3.8h-7.41l-.07-1.7,7.38-11.57h2.89v11Zm-7.39,0h4.59v-7.27l-.3,.55-4.29,6.71Z"/></g></g><g><rect class="e" x="204.75" y="88.59" width="418.36" height="47.53" rx="12" ry="12"/><g><path class="c" d="M245.61,117.07h8.13v2.3h-10.95v-17.06h2.81v14.77Z"/><path class="c" d="M265.14,117.63c-.43,.62-.95,1.11-1.56,1.46s-1.3,.52-2.06,.52c-.66,0-1.26-.1-1.8-.3s-1.01-.53-1.39-.97-.69-1-.9-1.69-.32-1.51-.32-2.47v-7.5h2.8v7.52c0,.61,.04,1.11,.13,1.51s.23,.71,.42,.95,.42,.4,.7,.5,.62,.15,1.01,.15c.75,0,1.36-.15,1.82-.44s.81-.69,1.04-1.19v-9h2.81v12.68h-2.53l-.16-1.73Z"/><path class="c" d="M270.89,112.91c0-.91,.13-1.77,.4-2.55s.66-1.47,1.16-2.05,1.12-1.03,1.85-1.36,1.55-.49,2.47-.49,1.76,.16,2.49,.49,1.35,.78,1.85,1.36,.89,1.26,1.15,2.05,.4,1.64,.4,2.55v.25c0,.92-.13,1.78-.4,2.57s-.65,1.47-1.15,2.04-1.12,1.03-1.85,1.35-1.55,.49-2.47,.49-1.76-.16-2.49-.49-1.35-.78-1.85-1.35-.89-1.26-1.16-2.04-.4-1.64-.4-2.57v-.25Zm2.8,.25c0,.58,.06,1.12,.18,1.63s.31,.96,.56,1.34,.58,.69,.97,.91,.86,.33,1.39,.33,.98-.11,1.37-.33,.71-.53,.96-.91,.44-.83,.56-1.34,.18-1.05,.18-1.63v-.25c0-.56-.06-1.1-.18-1.61s-.31-.95-.56-1.34-.57-.69-.96-.91-.85-.34-1.39-.34-.99,.11-1.38,.34-.71,.53-.96,.91-.44,.83-.56,1.34-.18,1.04-.18,1.61v.25Z"/><path class="c" d="M294.07,115.93c0-.21-.04-.4-.13-.58s-.24-.34-.46-.48-.53-.28-.91-.4-.88-.25-1.48-.36c-.75-.16-1.43-.34-2.03-.56s-1.12-.48-1.56-.79-.77-.66-1-1.06-.35-.87-.35-1.4,.12-1.01,.36-1.47,.59-.87,1.04-1.22,1-.63,1.64-.84,1.37-.31,2.16-.31c.84,0,1.6,.11,2.27,.32s1.23,.5,1.69,.86,.81,.79,1.06,1.28,.37,1.02,.37,1.58h-2.8c0-.25-.05-.49-.16-.72s-.27-.44-.49-.62-.49-.32-.81-.43-.7-.16-1.12-.16-.79,.04-1.1,.13-.56,.21-.77,.35-.35,.31-.45,.51-.15,.4-.15,.61,.04,.4,.11,.57,.21,.33,.42,.47,.48,.27,.84,.38,.82,.22,1.39,.32c.8,.14,1.51,.32,2.15,.53s1.18,.47,1.63,.77,.79,.67,1.04,1.08,.36,.91,.36,1.47-.13,1.08-.39,1.55-.62,.87-1.1,1.21-1.05,.6-1.72,.79-1.42,.28-2.24,.28c-.92,0-1.73-.12-2.44-.37s-1.29-.57-1.77-.97-.84-.85-1.08-1.36-.37-1.02-.37-1.55h2.72c.02,.39,.12,.72,.3,1s.41,.49,.69,.66,.59,.29,.94,.36,.69,.11,1.04,.11c.87,0,1.53-.15,1.98-.44s.68-.67,.68-1.13Z"/><path class="c" d="M320.52,119.6c-.94,0-1.79-.16-2.57-.47s-1.44-.74-1.99-1.29-.98-1.19-1.28-1.94-.46-1.55-.46-2.42v-.48c0-1.01,.16-1.91,.49-2.72s.76-1.49,1.3-2.06,1.18-1.01,1.9-1.31,1.48-.46,2.28-.46c.92,0,1.73,.15,2.44,.46s1.29,.74,1.76,1.3,.83,1.22,1.07,1.99,.36,1.61,.36,2.52v1.18h-8.79c.05,.49,.17,.95,.36,1.37s.45,.79,.77,1.1,.69,.55,1.11,.73,.89,.26,1.4,.26c.71,0,1.37-.14,1.96-.42s1.08-.67,1.46-1.16l1.52,1.43c-.2,.3-.46,.6-.79,.88s-.7,.54-1.12,.76-.91,.4-1.45,.54-1.12,.21-1.75,.21Zm-.34-10.89c-.39,0-.75,.07-1.09,.21s-.64,.35-.9,.62-.49,.6-.67,.98-.31,.83-.39,1.32h5.94v-.21c-.02-.38-.1-.74-.22-1.08s-.3-.66-.53-.93-.53-.49-.88-.66-.77-.25-1.25-.25Z"/><path class="c" d="M331.55,106.68l.18,1.76c.46-.63,1.02-1.12,1.67-1.47s1.38-.52,2.17-.52c.65,0,1.24,.09,1.78,.28s1,.48,1.38,.88,.69,.91,.9,1.55,.32,1.39,.32,2.29v7.92h-2.8v-7.88c0-.52-.06-.96-.18-1.31s-.29-.63-.52-.84-.49-.36-.81-.45-.68-.13-1.09-.13c-.62,0-1.15,.14-1.61,.41s-.83,.64-1.11,1.11v9.09h-2.81v-12.68h2.53Z"/><path class="c" d="M343.05,112.93c0-.96,.12-1.84,.36-2.64s.58-1.48,1.03-2.05,.98-1.01,1.61-1.32,1.33-.47,2.12-.47,1.41,.13,1.97,.39,1.03,.63,1.43,1.11l.12-1.27h2.54v12.34c0,.85-.14,1.61-.42,2.27s-.67,1.22-1.18,1.67-1.11,.8-1.81,1.04-1.48,.36-2.32,.36c-.34,0-.73-.04-1.17-.11s-.87-.2-1.31-.36-.86-.39-1.25-.66-.74-.6-1.02-.98l1.34-1.68c.48,.56,.99,.96,1.54,1.21s1.12,.36,1.71,.36c.47,0,.89-.07,1.28-.2s.71-.33,.97-.59,.47-.58,.62-.96,.22-.81,.22-1.31v-.86c-.4,.44-.87,.77-1.4,1.01s-1.16,.35-1.87,.35c-.77,0-1.47-.16-2.1-.49s-1.16-.77-1.61-1.34-.79-1.25-1.03-2.03-.36-1.64-.36-2.56v-.25Zm2.81,.25c0,.57,.06,1.11,.18,1.61s.3,.94,.54,1.31,.55,.67,.93,.88,.83,.32,1.34,.32c.65,0,1.18-.13,1.58-.4s.73-.63,.97-1.08v-5.6c-.25-.45-.58-.8-.98-1.07s-.92-.4-1.55-.4c-.52,0-.96,.11-1.34,.33s-.69,.52-.94,.9-.43,.83-.55,1.34-.18,1.05-.18,1.62v.25Z"/><path class="c" d="M358.43,106.68h6.76v10.36h3.76v2.32h-10.52v-2.32h3.94v-8.03h-3.94v-2.33Zm3.7-3.28c0-.44,.14-.8,.42-1.08s.68-.43,1.18-.43,.92,.14,1.2,.43,.43,.65,.43,1.08-.14,.8-.43,1.08-.69,.43-1.2,.43-.9-.14-1.18-.43-.42-.65-.42-1.08Z"/><path class="c" d="M374.75,106.68l.18,1.76c.46-.63,1.02-1.12,1.67-1.47s1.38-.52,2.17-.52c.65,0,1.24,.09,1.78,.28s1,.48,1.38,.88,.69,.91,.9,1.55,.32,1.39,.32,2.29v7.92h-2.8v-7.88c0-.52-.06-.96-.18-1.31s-.29-.63-.52-.84-.49-.36-.81-.45-.68-.13-1.09-.13c-.62,0-1.15,.14-1.61,.41s-.83,.64-1.11,1.11v9.09h-2.81v-12.68h2.53Z"/><path class="c" d="M392.53,119.6c-.94,0-1.79-.16-2.57-.47s-1.44-.74-1.99-1.29-.98-1.19-1.28-1.94-.46-1.55-.46-2.42v-.48c0-1.01,.16-1.91,.49-2.72s.76-1.49,1.3-2.06,1.18-1.01,1.9-1.31,1.48-.46,2.28-.46c.92,0,1.73,.15,2.44,.46s1.29,.74,1.76,1.3,.83,1.22,1.07,1.99,.36,1.61,.36,2.52v1.18h-8.79c.05,.49,.17,.95,.36,1.37s.45,.79,.77,1.1,.69,.55,1.11,.73,.89,.26,1.4,.26c.71,0,1.37-.14,1.96-.42s1.08-.67,1.46-1.16l1.52,1.43c-.2,.3-.46,.6-.79,.88s-.7,.54-1.12,.76-.91,.4-1.45,.54-1.12,.21-1.75,.21Zm-.34-10.89c-.39,0-.75,.07-1.09,.21s-.64,.35-.9,.62-.49,.6-.67,.98-.31,.83-.39,1.32h5.94v-.21c-.02-.38-.1-.74-.22-1.08s-.3-.66-.53-.93-.53-.49-.88-.66-.77-.25-1.25-.25Z"/><path class="c" d="M420.62,115.83l.2,.94,.21-.93,3.07-9.15h2.89l-4.97,12.68h-2.41l-5.02-12.68h2.89l3.13,9.14Z"/><path class="c" d="M432.75,109.57h1.68c.49,0,.92-.06,1.29-.19s.67-.31,.91-.54,.42-.51,.54-.84,.18-.68,.18-1.07c0-.83-.22-1.47-.65-1.92s-1.09-.67-1.96-.67c-.38,0-.74,.06-1.06,.17s-.61,.28-.84,.49-.42,.46-.56,.76-.2,.63-.2,1.01h-2.8c0-.67,.13-1.29,.4-1.86s.64-1.06,1.12-1.48,1.05-.75,1.72-.98,1.39-.36,2.18-.36,1.54,.1,2.21,.31,1.25,.51,1.72,.92,.85,.91,1.11,1.52,.4,1.31,.4,2.1c0,.34-.05,.68-.15,1.03s-.26,.69-.46,1.02-.47,.63-.79,.92-.69,.53-1.12,.72c.52,.18,.95,.41,1.3,.69s.64,.6,.86,.94,.38,.72,.47,1.12,.14,.8,.14,1.22c0,.8-.14,1.51-.43,2.13s-.69,1.15-1.2,1.58-1.12,.75-1.81,.97-1.45,.33-2.25,.33c-.74,0-1.45-.1-2.12-.3s-1.26-.51-1.78-.91-.92-.9-1.22-1.5-.46-1.29-.46-2.08h2.8c0,.38,.07,.72,.2,1.04s.32,.59,.57,.81,.54,.4,.88,.52,.73,.19,1.16,.19c.89,0,1.59-.24,2.1-.71s.77-1.16,.77-2.06c0-.49-.07-.92-.22-1.27s-.36-.65-.64-.88-.61-.4-1-.51-.83-.16-1.32-.16h-1.68v-2.2Z"/></g></g><g><rect class="e" x="626.94" y="88.59" width="240.76" height="47.53" rx="12" ry="12"/><g><path class="c" d="M687.59,102.3l2.12,7.37,2.34-7.37h3.49v17.06h-2.65v-5.86l.16-7.48-2.62,8.18h-1.48l-2.38-7.9,.16,7.2v5.86h-2.65v-17.06h3.49Z"/><path class="c" d="M706.87,117.63c-.43,.62-.95,1.11-1.56,1.46s-1.3,.52-2.06,.52c-.66,0-1.26-.1-1.8-.3s-1.01-.53-1.39-.97-.69-1-.9-1.69-.32-1.51-.32-2.47v-7.5h2.8v7.52c0,.61,.04,1.11,.13,1.51s.23,.71,.42,.95,.42,.4,.7,.5,.62,.15,1.01,.15c.75,0,1.36-.15,1.82-.44s.81-.69,1.04-1.19v-9h2.81v12.68h-2.53l-.16-1.73Z"/><path class="c" d="M713.65,101.36h6.86v15.68h3.87v2.32h-10.72v-2.32h4.03v-13.35h-4.03v-2.33Z"/><path class="c" d="M733.15,103.61v3.07h4.79v2.09h-4.79v6.08c0,.48,.06,.87,.17,1.18s.27,.56,.47,.75,.44,.32,.71,.39,.57,.11,.9,.11c.24,0,.49-.01,.76-.04s.52-.06,.76-.09,.47-.07,.68-.12,.38-.08,.52-.12l.32,1.93c-.2,.12-.45,.22-.73,.32s-.6,.18-.93,.24-.69,.11-1.05,.15-.72,.05-1.07,.05c-.63,0-1.21-.09-1.74-.26s-.98-.45-1.36-.82-.68-.85-.89-1.43-.32-1.28-.32-2.09v-6.23h-3.09v-2.09h3.09v-3.07h2.8Z"/><path class="c" d="M742.55,106.68h6.76v10.36h3.76v2.32h-10.52v-2.32h3.94v-8.03h-3.94v-2.33Zm3.7-3.28c0-.44,.14-.8,.42-1.08s.68-.43,1.18-.43,.92,.14,1.2,.43,.43,.65,.43,1.08-.14,.8-.43,1.08-.69,.43-1.2,.43-.9-.14-1.18-.43-.42-.65-.42-1.08Z"/><path class="c" d="M766.83,113.01h-9.39v-2.26h9.39v2.26Z"/><path class="c" d="M781.84,113.15c0,.92-.11,1.78-.33,2.57s-.54,1.47-.96,2.04-.94,1.02-1.55,1.35-1.32,.49-2.12,.49c-.72,0-1.35-.12-1.9-.35s-1.03-.57-1.42-1.01v6h-2.8v-17.55h2.58l.12,1.28c.41-.48,.89-.86,1.45-1.12s1.21-.39,1.95-.39c.8,0,1.52,.16,2.14,.47s1.14,.75,1.56,1.32,.74,1.25,.96,2.04,.33,1.67,.33,2.63v.25Zm-2.8-.25c0-.57-.06-1.11-.18-1.61s-.3-.95-.54-1.32-.55-.68-.93-.9-.82-.33-1.34-.33c-.62,0-1.14,.13-1.55,.4s-.73,.62-.96,1.07v5.67c.23,.44,.55,.79,.96,1.07s.93,.41,1.58,.41c.52,0,.96-.11,1.34-.34s.68-.53,.92-.91,.41-.83,.53-1.34,.17-1.05,.17-1.62v-.25Z"/><path class="c" d="M787.95,108.44c.44-.62,.97-1.11,1.6-1.46s1.33-.53,2.1-.53c.66,0,1.26,.1,1.81,.29s1.02,.5,1.41,.91,.7,.94,.91,1.58,.33,1.42,.33,2.31v7.82h-2.8v-7.84c0-.48-.06-.9-.18-1.25s-.29-.63-.52-.86-.49-.39-.81-.5-.68-.16-1.09-.16c-.61,0-1.15,.13-1.62,.38s-.85,.6-1.15,1.03v9.21h-2.8v-18h2.8v7.08Z"/><path class="c" d="M804.58,114.29l.48,1.52,3.56-9.13h3.11l-6.42,14.6c-.14,.32-.32,.67-.55,1.04s-.51,.72-.84,1.04-.73,.59-1.19,.8-1,.32-1.62,.32c-.26,0-.52-.02-.78-.06s-.49-.09-.7-.15l.4-2.18c.05,0,.13,0,.22,0s.19,0,.29,.02,.2,.01,.29,.02,.16,0,.22,0c.27,0,.52-.08,.73-.24s.4-.34,.57-.55,.3-.41,.4-.61,.18-.33,.23-.4l.83-1.57-5.39-12.08h3.09l3.06,7.61Z"/></g></g><g><rect class="e" x="871.71" y="88.59" width="263.6" height="47.53" rx="12" ry="12"/><g><path class="c" d="M885.91,117.07h8.13v2.3h-10.95v-17.06h2.81v14.77Z"/><path class="c" d="M905.44,117.63c-.43,.62-.95,1.11-1.56,1.46s-1.3,.52-2.06,.52c-.66,0-1.26-.1-1.8-.3s-1.01-.53-1.39-.97-.69-1-.9-1.69-.32-1.51-.32-2.47v-7.5h2.8v7.52c0,.61,.04,1.11,.13,1.51s.23,.71,.42,.95,.42,.4,.7,.5,.62,.15,1.01,.15c.75,0,1.36-.15,1.82-.44s.81-.69,1.04-1.19v-9h2.81v12.68h-2.53l-.16-1.73Z"/><path class="c" d="M911.19,112.91c0-.91,.13-1.77,.4-2.55s.66-1.47,1.16-2.05,1.12-1.03,1.85-1.36,1.55-.49,2.47-.49,1.76,.16,2.49,.49,1.35,.78,1.85,1.36,.89,1.26,1.15,2.05,.4,1.64,.4,2.55v.25c0,.92-.13,1.78-.4,2.57s-.65,1.47-1.15,2.04-1.12,1.03-1.85,1.35-1.55,.49-2.47,.49-1.76-.16-2.49-.49-1.35-.78-1.85-1.35-.89-1.26-1.16-2.04-.4-1.64-.4-2.57v-.25Zm2.8,.25c0,.58,.06,1.12,.18,1.63s.31,.96,.56,1.34,.58,.69,.97,.91,.86,.33,1.39,.33,.98-.11,1.37-.33,.71-.53,.96-.91,.44-.83,.56-1.34,.18-1.05,.18-1.63v-.25c0-.56-.06-1.1-.18-1.61s-.31-.95-.56-1.34-.57-.69-.96-.91-.85-.34-1.39-.34-.99,.11-1.38,.34-.71,.53-.96,.91-.44,.83-.56,1.34-.18,1.04-.18,1.61v.25Z"/><path class="c" d="M934.37,115.93c0-.21-.04-.4-.13-.58s-.24-.34-.46-.48-.53-.28-.91-.4-.88-.25-1.48-.36c-.75-.16-1.43-.34-2.03-.56s-1.12-.48-1.56-.79-.77-.66-1-1.06-.35-.87-.35-1.4,.12-1.01,.36-1.47,.59-.87,1.04-1.22,1-.63,1.64-.84,1.37-.31,2.16-.31c.84,0,1.6,.11,2.27,.32s1.23,.5,1.69,.86,.81,.79,1.06,1.28,.37,1.02,.37,1.58h-2.8c0-.25-.05-.49-.16-.72s-.27-.44-.49-.62-.49-.32-.81-.43-.7-.16-1.12-.16-.79,.04-1.1,.13-.56,.21-.77,.35-.35,.31-.45,.51-.15,.4-.15,.61,.04,.4,.11,.57,.21,.33,.42,.47,.48,.27,.84,.38,.82,.22,1.39,.32c.8,.14,1.51,.32,2.15,.53s1.18,.47,1.63,.77,.79,.67,1.04,1.08,.36,.91,.36,1.47-.13,1.08-.39,1.55-.62,.87-1.1,1.21-1.05,.6-1.72,.79-1.42,.28-2.24,.28c-.92,0-1.73-.12-2.44-.37s-1.29-.57-1.77-.97-.84-.85-1.08-1.36-.37-1.02-.37-1.55h2.72c.02,.39,.12,.72,.3,1s.41,.49,.69,.66,.59,.29,.94,.36,.69,.11,1.04,.11c.87,0,1.53-.15,1.98-.44s.68-.67,.68-1.13Z"/><path class="c" d="M957.32,115.19l.08,.81,.13-.81,1.82-8.51h1.84l1.84,8.6,.13,.84,.11-.93,1.23-8.52h2.53l-2.47,12.68h-2.36l-1.92-8.48-.02-.15-.02,.14-1.89,8.5h-2.34l-2.47-12.68h2.52l1.28,8.51Z"/><path class="c" d="M975.22,119.6c-.94,0-1.79-.16-2.57-.47s-1.44-.74-1.99-1.29-.98-1.19-1.28-1.94-.46-1.55-.46-2.42v-.48c0-1.01,.16-1.91,.49-2.72s.76-1.49,1.3-2.06,1.18-1.01,1.9-1.31,1.48-.46,2.28-.46c.92,0,1.73,.15,2.44,.46s1.29,.74,1.76,1.3,.83,1.22,1.07,1.99,.36,1.61,.36,2.52v1.18h-8.79c.05,.49,.17,.95,.36,1.37s.45,.79,.77,1.1,.69,.55,1.11,.73,.89,.26,1.4,.26c.71,0,1.37-.14,1.96-.42s1.08-.67,1.46-1.16l1.52,1.43c-.2,.3-.46,.6-.79,.88s-.7,.54-1.12,.76-.91,.4-1.45,.54-1.12,.21-1.75,.21Zm-.34-10.89c-.39,0-.75,.07-1.09,.21s-.64,.35-.9,.62-.49,.6-.67,.98-.31,.83-.39,1.32h5.94v-.21c-.02-.38-.1-.74-.22-1.08s-.3-.66-.53-.93-.53-.49-.88-.66-.77-.25-1.25-.25Z"/><path class="c" d="M994.86,113.17c0,.94-.11,1.8-.32,2.58s-.53,1.46-.96,2.03-.94,1.02-1.56,1.34-1.33,.48-2.13,.48-1.44-.14-2.01-.41-1.05-.67-1.46-1.18l-.13,1.36h-2.54v-18h2.8v6.53c.4-.46,.87-.82,1.41-1.07s1.18-.38,1.91-.38c.81,0,1.53,.16,2.15,.47s1.14,.76,1.56,1.33,.74,1.25,.96,2.04,.32,1.67,.32,2.62v.25Zm-2.8-.25c0-.56-.05-1.1-.15-1.6s-.26-.95-.48-1.33-.52-.69-.9-.91-.84-.33-1.38-.33c-.66,0-1.21,.15-1.63,.46s-.75,.7-.97,1.2v5.24c.23,.49,.55,.89,.98,1.21s.97,.47,1.65,.47c.53,0,.98-.11,1.35-.32s.66-.51,.89-.88,.39-.81,.49-1.32,.15-1.04,.15-1.62v-.25Z"/><path class="c" d="M1020.61,119.36c-.08-.16-.14-.34-.19-.55s-.1-.44-.13-.68c-.2,.2-.42,.39-.66,.57s-.52,.33-.82,.46-.62,.24-.97,.32-.72,.12-1.12,.12c-.67,0-1.28-.1-1.82-.29s-1.01-.46-1.39-.8-.69-.74-.9-1.2-.32-.96-.32-1.5c0-1.36,.51-2.4,1.52-3.12s2.46-1.08,4.35-1.08h2.05v-.83c0-.67-.23-1.21-.68-1.6s-1.09-.59-1.92-.59c-.38,0-.7,.04-.98,.13s-.52,.21-.7,.37-.33,.34-.42,.55-.14,.44-.14,.68h-2.8c0-.49,.12-.97,.35-1.44s.57-.88,1.01-1.24,.99-.65,1.63-.87,1.38-.33,2.21-.33c.75,0,1.45,.09,2.09,.28s1.2,.46,1.66,.82,.84,.82,1.1,1.36,.4,1.18,.4,1.9v5.65c0,.55,.04,1.06,.12,1.52s.2,.85,.36,1.19v.2h-2.87Zm-3.38-2.03c.36,0,.7-.04,1.01-.13s.6-.21,.86-.35,.47-.31,.66-.5,.33-.38,.44-.57v-2.38h-1.78c-1.14,0-1.98,.18-2.53,.55s-.81,.89-.81,1.57c0,.26,.04,.5,.13,.72s.22,.41,.39,.57,.4,.29,.67,.38,.59,.14,.97,.14Z"/><path class="c" d="M1035.19,115.93c0-.21-.04-.4-.13-.58s-.24-.34-.46-.48-.53-.28-.91-.4-.88-.25-1.48-.36c-.75-.16-1.43-.34-2.03-.56s-1.12-.48-1.56-.79-.77-.66-1-1.06-.35-.87-.35-1.4,.12-1.01,.36-1.47,.59-.87,1.04-1.22,1-.63,1.64-.84,1.37-.31,2.16-.31c.84,0,1.6,.11,2.27,.32s1.23,.5,1.69,.86,.81,.79,1.06,1.28,.37,1.02,.37,1.58h-2.8c0-.25-.05-.49-.16-.72s-.27-.44-.49-.62-.49-.32-.81-.43-.7-.16-1.12-.16-.79,.04-1.1,.13-.56,.21-.77,.35-.35,.31-.45,.51-.15,.4-.15,.61,.04,.4,.11,.57,.21,.33,.42,.47,.48,.27,.84,.38,.82,.22,1.39,.32c.8,.14,1.51,.32,2.15,.53s1.18,.47,1.63,.77,.79,.67,1.04,1.08,.36,.91,.36,1.47-.13,1.08-.39,1.55-.62,.87-1.1,1.21-1.05,.6-1.72,.79-1.42,.28-2.24,.28c-.92,0-1.73-.12-2.44-.37s-1.29-.57-1.77-.97-.84-.85-1.08-1.36-.37-1.02-.37-1.55h2.72c.02,.39,.12,.72,.3,1s.41,.49,.69,.66,.59,.29,.94,.36,.69,.11,1.04,.11c.87,0,1.53-.15,1.98-.44s.68-.67,.68-1.13Z"/><path class="c" d="M1049.59,115.93c0-.21-.04-.4-.13-.58s-.24-.34-.46-.48-.53-.28-.91-.4-.88-.25-1.48-.36c-.75-.16-1.43-.34-2.03-.56s-1.12-.48-1.56-.79-.77-.66-1-1.06-.35-.87-.35-1.4,.12-1.01,.36-1.47,.59-.87,1.04-1.22,1-.63,1.64-.84,1.37-.31,2.16-.31c.84,0,1.6,.11,2.27,.32s1.23,.5,1.69,.86,.81,.79,1.06,1.28,.37,1.02,.37,1.58h-2.8c0-.25-.05-.49-.16-.72s-.27-.44-.49-.62-.49-.32-.81-.43-.7-.16-1.12-.16-.79,.04-1.1,.13-.56,.21-.77,.35-.35,.31-.45,.51-.15,.4-.15,.61,.04,.4,.11,.57,.21,.33,.42,.47,.48,.27,.84,.38,.82,.22,1.39,.32c.8,.14,1.51,.32,2.15,.53s1.18,.47,1.63,.77,.79,.67,1.04,1.08,.36,.91,.36,1.47-.13,1.08-.39,1.55-.62,.87-1.1,1.21-1.05,.6-1.72,.79-1.42,.28-2.24,.28c-.92,0-1.73-.12-2.44-.37s-1.29-.57-1.77-.97-.84-.85-1.08-1.36-.37-1.02-.37-1.55h2.72c.02,.39,.12,.72,.3,1s.41,.49,.69,.66,.59,.29,.94,.36,.69,.11,1.04,.11c.87,0,1.53-.15,1.98-.44s.68-.67,.68-1.13Z"/><path class="c" d="M1061.64,119.6c-.94,0-1.79-.16-2.57-.47s-1.44-.74-1.99-1.29-.98-1.19-1.28-1.94-.46-1.55-.46-2.42v-.48c0-1.01,.16-1.91,.49-2.72s.76-1.49,1.3-2.06,1.18-1.01,1.9-1.31,1.48-.46,2.28-.46c.92,0,1.73,.15,2.44,.46s1.29,.74,1.76,1.3,.83,1.22,1.07,1.99,.36,1.61,.36,2.52v1.18h-8.79c.05,.49,.17,.95,.36,1.37s.45,.79,.77,1.1,.69,.55,1.11,.73,.89,.26,1.4,.26c.71,0,1.37-.14,1.96-.42s1.08-.67,1.46-1.16l1.52,1.43c-.2,.3-.46,.6-.79,.88s-.7,.54-1.12,.76-.91,.4-1.45,.54-1.12,.21-1.75,.21Zm-.34-10.89c-.39,0-.75,.07-1.09,.21s-.64,.35-.9,.62-.49,.6-.67,.98-.31,.83-.39,1.32h5.94v-.21c-.02-.38-.1-.74-.22-1.08s-.3-.66-.53-.93-.53-.49-.88-.66-.77-.25-1.25-.25Z"/><path class="c" d="M1071.75,106.68l.07,1.34c.25-.49,.59-.88,1.01-1.15s.93-.42,1.52-.42c.54,0,.99,.11,1.34,.32s.62,.55,.8,1c.25-.41,.57-.73,.96-.97s.86-.36,1.42-.36c.41,0,.79,.07,1.14,.21s.64,.35,.89,.65,.44,.68,.57,1.14,.21,1.02,.21,1.66v9.26h-2.6v-9.28c0-.51-.11-.86-.32-1.05s-.49-.29-.83-.29-.57,.08-.76,.23-.32,.35-.41,.6v9.79h-2.54v-9.28c0-.49-.1-.84-.3-1.04s-.47-.3-.81-.3-.59,.07-.77,.21-.33,.33-.43,.57v9.83h-2.6v-12.68h2.45Z"/><path class="c" d="M1095.68,113.17c0,.94-.11,1.8-.32,2.58s-.53,1.46-.96,2.03-.94,1.02-1.56,1.34-1.33,.48-2.13,.48-1.44-.14-2.01-.41-1.05-.67-1.46-1.18l-.13,1.36h-2.54v-18h2.8v6.53c.4-.46,.87-.82,1.41-1.07s1.18-.38,1.91-.38c.81,0,1.53,.16,2.15,.47s1.14,.76,1.56,1.33,.74,1.25,.96,2.04,.32,1.67,.32,2.62v.25Zm-2.8-.25c0-.56-.05-1.1-.15-1.6s-.26-.95-.48-1.33-.52-.69-.9-.91-.84-.33-1.38-.33c-.66,0-1.21,.15-1.63,.46s-.75,.7-.97,1.2v5.24c.23,.49,.55,.89,.98,1.21s.97,.47,1.65,.47c.53,0,.98-.11,1.35-.32s.66-.51,.89-.88,.39-.81,.49-1.32,.15-1.04,.15-1.62v-.25Z"/><path class="c" d="M1099.45,101.36h6.86v15.68h3.87v2.32h-10.72v-2.32h4.03v-13.35h-4.03v-2.33Z"/><path class="c" d="M1118.37,114.29l.48,1.52,3.56-9.13h3.11l-6.42,14.6c-.14,.32-.32,.67-.55,1.04s-.51,.72-.84,1.04-.73,.59-1.19,.8-1,.32-1.62,.32c-.26,0-.52-.02-.78-.06s-.49-.09-.7-.15l.4-2.18c.05,0,.13,0,.22,0s.19,0,.29,.02,.2,.01,.29,.02,.16,0,.22,0c.27,0,.52-.08,.73-.24s.4-.34,.57-.55,.3-.41,.4-.61,.18-.33,.23-.4l.83-1.57-5.39-12.08h3.09l3.06,7.61Z"/></g></g><g><rect class="e" x="1137.3" y="88.59" width="405.1" height="47.53" rx="12" ry="12"/><g><path class="c" d="M1215.06,117.07h8.13v2.3h-10.95v-17.06h2.81v14.77Z"/><path class="c" d="M1234.59,117.63c-.43,.62-.95,1.11-1.56,1.46s-1.3,.52-2.06,.52c-.66,0-1.26-.1-1.8-.3s-1.01-.53-1.39-.97-.69-1-.9-1.69-.32-1.51-.32-2.47v-7.5h2.8v7.52c0,.61,.04,1.11,.13,1.51s.23,.71,.42,.95,.42,.4,.7,.5,.62,.15,1.01,.15c.75,0,1.36-.15,1.82-.44s.81-.69,1.04-1.19v-9h2.81v12.68h-2.53l-.16-1.73Z"/><path class="c" d="M1240.34,112.91c0-.91,.13-1.77,.4-2.55s.66-1.47,1.16-2.05,1.12-1.03,1.85-1.36,1.55-.49,2.47-.49,1.76,.16,2.49,.49,1.35,.78,1.85,1.36,.89,1.26,1.15,2.05,.4,1.64,.4,2.55v.25c0,.92-.13,1.78-.4,2.57s-.65,1.47-1.15,2.04-1.12,1.03-1.85,1.35-1.55,.49-2.47,.49-1.76-.16-2.49-.49-1.35-.78-1.85-1.35-.89-1.26-1.16-2.04-.4-1.64-.4-2.57v-.25Zm2.8,.25c0,.58,.06,1.12,.18,1.63s.31,.96,.56,1.34,.58,.69,.97,.91,.86,.33,1.39,.33,.98-.11,1.37-.33,.71-.53,.96-.91,.44-.83,.56-1.34,.18-1.05,.18-1.63v-.25c0-.56-.06-1.1-.18-1.61s-.31-.95-.56-1.34-.57-.69-.96-.91-.85-.34-1.39-.34-.99,.11-1.38,.34-.71,.53-.96,.91-.44,.83-.56,1.34-.18,1.04-.18,1.61v.25Z"/><path class="c" d="M1263.52,115.93c0-.21-.04-.4-.13-.58s-.24-.34-.46-.48-.53-.28-.91-.4-.88-.25-1.48-.36c-.75-.16-1.43-.34-2.03-.56s-1.12-.48-1.56-.79-.77-.66-1-1.06-.35-.87-.35-1.4,.12-1.01,.36-1.47,.59-.87,1.04-1.22,1-.63,1.64-.84,1.37-.31,2.16-.31c.84,0,1.6,.11,2.27,.32s1.23,.5,1.69,.86,.81,.79,1.06,1.28,.37,1.02,.37,1.58h-2.8c0-.25-.05-.49-.16-.72s-.27-.44-.49-.62-.49-.32-.81-.43-.7-.16-1.12-.16-.79,.04-1.1,.13-.56,.21-.77,.35-.35,.31-.45,.51-.15,.4-.15,.61,.04,.4,.11,.57,.21,.33,.42,.47,.48,.27,.84,.38,.82,.22,1.39,.32c.8,.14,1.51,.32,2.15,.53s1.18,.47,1.63,.77,.79,.67,1.04,1.08,.36,.91,.36,1.47-.13,1.08-.39,1.55-.62,.87-1.1,1.21-1.05,.6-1.72,.79-1.42,.28-2.24,.28c-.92,0-1.73-.12-2.44-.37s-1.29-.57-1.77-.97-.84-.85-1.08-1.36-.37-1.02-.37-1.55h2.72c.02,.39,.12,.72,.3,1s.41,.49,.69,.66,.59,.29,.94,.36,.69,.11,1.04,.11c.87,0,1.53-.15,1.98-.44s.68-.67,.68-1.13Z"/><path class="c" d="M1289.61,117.37c.34,0,.68-.05,1-.16s.61-.26,.86-.46,.45-.43,.59-.69,.21-.55,.21-.87h2.65c0,.61-.13,1.18-.42,1.72s-.67,1-1.16,1.4-1.05,.71-1.69,.95-1.31,.35-2.02,.35c-.98,0-1.83-.17-2.57-.5s-1.35-.79-1.84-1.38-.86-1.26-1.11-2.03-.37-1.59-.37-2.46v-.42c0-.87,.12-1.69,.37-2.46s.62-1.45,1.11-2.03,1.11-1.04,1.84-1.38,1.59-.51,2.55-.51c.77,0,1.47,.12,2.13,.35s1.21,.56,1.69,.98,.84,.93,1.1,1.51,.39,1.23,.38,1.92h-2.65c0-.34-.05-.67-.18-.97s-.31-.57-.56-.8-.53-.41-.86-.54-.69-.2-1.08-.2c-.59,0-1.07,.12-1.46,.36s-.7,.55-.94,.94-.4,.83-.5,1.32-.15,.99-.15,1.5v.42c0,.52,.05,1.02,.15,1.51s.26,.93,.5,1.32,.55,.7,.94,.94,.88,.36,1.48,.36Z"/><path class="c" d="M1304.37,119.6c-.94,0-1.79-.16-2.57-.47s-1.44-.74-1.99-1.29-.98-1.19-1.28-1.94-.46-1.55-.46-2.42v-.48c0-1.01,.16-1.91,.49-2.72s.76-1.49,1.3-2.06,1.18-1.01,1.9-1.31,1.48-.46,2.28-.46c.92,0,1.73,.15,2.44,.46s1.29,.74,1.76,1.3,.83,1.22,1.07,1.99,.36,1.61,.36,2.52v1.18h-8.79c.05,.49,.17,.95,.36,1.37s.45,.79,.77,1.1,.69,.55,1.11,.73,.89,.26,1.4,.26c.71,0,1.37-.14,1.96-.42s1.08-.67,1.46-1.16l1.52,1.43c-.2,.3-.46,.6-.79,.88s-.7,.54-1.12,.76-.91,.4-1.45,.54-1.12,.21-1.75,.21Zm-.34-10.89c-.39,0-.75,.07-1.09,.21s-.64,.35-.9,.62-.49,.6-.67,.98-.31,.83-.39,1.32h5.94v-.21c-.02-.38-.1-.74-.22-1.08s-.3-.66-.53-.93-.53-.49-.88-.66-.77-.25-1.25-.25Z"/><path class="c" d="M1321.57,106.45c.23,0,.45,0,.68,.02s.44,.04,.65,.07,.4,.06,.57,.1,.32,.08,.43,.12l-.4,2.75c-.86-.2-1.71-.29-2.54-.29-.94,0-1.69,.2-2.27,.59s-1,.93-1.27,1.63v7.92h-2.8v-12.68h2.62l.13,1.98c.52-.69,1.13-1.23,1.83-1.62s1.49-.59,2.36-.59Z"/><path class="c" d="M1332.88,103.61v3.07h4.79v2.09h-4.79v6.08c0,.48,.06,.87,.17,1.18s.27,.56,.47,.75,.44,.32,.71,.39,.57,.11,.9,.11c.24,0,.49-.01,.76-.04s.52-.06,.76-.09,.47-.07,.68-.12,.38-.08,.52-.12l.32,1.93c-.2,.12-.45,.22-.73,.32s-.6,.18-.93,.24-.69,.11-1.05,.15-.72,.05-1.07,.05c-.63,0-1.21-.09-1.74-.26s-.98-.45-1.36-.82-.68-.85-.89-1.43-.32-1.28-.32-2.09v-6.23h-3.09v-2.09h3.09v-3.07h2.8Z"/><path class="c" d="M1342.28,106.68h6.76v10.36h3.76v2.32h-10.52v-2.32h3.94v-8.03h-3.94v-2.33Zm3.7-3.28c0-.44,.14-.8,.42-1.08s.68-.43,1.18-.43,.92,.14,1.2,.43,.43,.65,.43,1.08-.14,.8-.43,1.08-.69,.43-1.2,.43-.9-.14-1.18-.43-.42-.65-.42-1.08Z"/><path class="c" d="M1359.26,119.36v-10.59h-3.41v-2.09h3.41v-.79c0-.82,.12-1.54,.37-2.17s.6-1.16,1.07-1.58,1.03-.75,1.68-.97,1.39-.33,2.21-.33c.54,0,1.05,.04,1.54,.12s1,.18,1.53,.29l-.25,2.23c-.3-.09-.66-.16-1.07-.23s-.86-.1-1.37-.1c-1.01,0-1.74,.24-2.21,.71s-.7,1.16-.7,2.04v.79h4.71v2.09h-4.71v10.59h-2.81Z"/><path class="c" d="M1371.09,106.68h6.76v10.36h3.76v2.32h-10.52v-2.32h3.94v-8.03h-3.94v-2.33Zm3.7-3.28c0-.44,.14-.8,.42-1.08s.68-.43,1.18-.43,.92,.14,1.2,.43,.43,.65,.43,1.08-.14,.8-.43,1.08-.69,.43-1.2,.43-.9-.14-1.18-.43-.42-.65-.42-1.08Z"/><path class="c" d="M1390.42,117.37c.34,0,.68-.05,1-.16s.61-.26,.86-.46,.45-.43,.59-.69,.21-.55,.21-.87h2.65c0,.61-.13,1.18-.42,1.72s-.67,1-1.16,1.4-1.05,.71-1.69,.95-1.31,.35-2.02,.35c-.98,0-1.83-.17-2.57-.5s-1.35-.79-1.84-1.38-.86-1.26-1.11-2.03-.37-1.59-.37-2.46v-.42c0-.87,.12-1.69,.37-2.46s.62-1.45,1.11-2.03,1.11-1.04,1.84-1.38,1.59-.51,2.55-.51c.77,0,1.47,.12,2.13,.35s1.21,.56,1.69,.98,.84,.93,1.1,1.51,.39,1.23,.38,1.92h-2.65c0-.34-.05-.67-.18-.97s-.31-.57-.56-.8-.53-.41-.86-.54-.69-.2-1.08-.2c-.59,0-1.07,.12-1.46,.36s-.7,.55-.94,.94-.4,.83-.5,1.32-.15,.99-.15,1.5v.42c0,.52,.05,1.02,.15,1.51s.26,.93,.5,1.32,.55,.7,.94,.94,.88,.36,1.48,.36Z"/><path class="c" d="M1407.37,119.36c-.08-.16-.14-.34-.19-.55s-.1-.44-.13-.68c-.2,.2-.42,.39-.66,.57s-.52,.33-.82,.46-.62,.24-.97,.32-.72,.12-1.12,.12c-.67,0-1.28-.1-1.82-.29s-1.01-.46-1.39-.8-.69-.74-.9-1.2-.32-.96-.32-1.5c0-1.36,.51-2.4,1.52-3.12s2.46-1.08,4.35-1.08h2.05v-.83c0-.67-.23-1.21-.68-1.6s-1.09-.59-1.92-.59c-.38,0-.7,.04-.98,.13s-.52,.21-.7,.37-.33,.34-.42,.55-.14,.44-.14,.68h-2.8c0-.49,.12-.97,.35-1.44s.57-.88,1.01-1.24,.99-.65,1.63-.87,1.38-.33,2.21-.33c.75,0,1.45,.09,2.09,.28s1.2,.46,1.66,.82,.84,.82,1.1,1.36,.4,1.18,.4,1.9v5.65c0,.55,.04,1.06,.12,1.52s.2,.85,.36,1.19v.2h-2.87Zm-3.38-2.03c.36,0,.7-.04,1.01-.13s.6-.21,.86-.35,.47-.31,.66-.5,.33-.38,.44-.57v-2.38h-1.78c-1.14,0-1.98,.18-2.53,.55s-.81,.89-.81,1.57c0,.26,.04,.5,.13,.72s.22,.41,.39,.57,.4,.29,.67,.38,.59,.14,.97,.14Z"/><path class="c" d="M1419.3,103.61v3.07h4.79v2.09h-4.79v6.08c0,.48,.06,.87,.17,1.18s.27,.56,.47,.75,.44,.32,.71,.39,.57,.11,.9,.11c.24,0,.49-.01,.76-.04s.52-.06,.76-.09,.47-.07,.68-.12,.38-.08,.52-.12l.32,1.93c-.2,.12-.45,.22-.73,.32s-.6,.18-.93,.24-.69,.11-1.05,.15-.72,.05-1.07,.05c-.63,0-1.21-.09-1.74-.26s-.98-.45-1.36-.82-.68-.85-.89-1.43-.32-1.28-.32-2.09v-6.23h-3.09v-2.09h3.09v-3.07h2.8Z"/><path class="c" d="M1428.7,106.68h6.76v10.36h3.76v2.32h-10.52v-2.32h3.94v-8.03h-3.94v-2.33Zm3.7-3.28c0-.44,.14-.8,.42-1.08s.68-.43,1.18-.43,.92,.14,1.2,.43,.43,.65,.43,1.08-.14,.8-.43,1.08-.69,.43-1.2,.43-.9-.14-1.18-.43-.42-.65-.42-1.08Z"/><path class="c" d="M1441.97,112.91c0-.91,.13-1.77,.4-2.55s.66-1.47,1.16-2.05,1.12-1.03,1.85-1.36,1.55-.49,2.47-.49,1.76,.16,2.49,.49,1.35,.78,1.85,1.36,.89,1.26,1.15,2.05,.4,1.64,.4,2.55v.25c0,.92-.13,1.78-.4,2.57s-.65,1.47-1.15,2.04-1.12,1.03-1.85,1.35-1.55,.49-2.47,.49-1.76-.16-2.49-.49-1.35-.78-1.85-1.35-.89-1.26-1.16-2.04-.4-1.64-.4-2.57v-.25Zm2.8,.25c0,.58,.06,1.12,.18,1.63s.31,.96,.56,1.34,.58,.69,.97,.91,.86,.33,1.39,.33,.98-.11,1.37-.33,.71-.53,.96-.91,.44-.83,.56-1.34,.18-1.05,.18-1.63v-.25c0-.56-.06-1.1-.18-1.61s-.31-.95-.56-1.34-.57-.69-.96-.91-.85-.34-1.39-.34-.99,.11-1.38,.34-.71,.53-.96,.91-.44,.83-.56,1.34-.18,1.04-.18,1.61v.25Z"/><path class="c" d="M1459.42,106.68l.18,1.76c.46-.63,1.02-1.12,1.67-1.47s1.38-.52,2.17-.52c.65,0,1.24,.09,1.78,.28s1,.48,1.38,.88,.69,.91,.9,1.55,.32,1.39,.32,2.29v7.92h-2.8v-7.88c0-.52-.06-.96-.18-1.31s-.29-.63-.52-.84-.49-.36-.81-.45-.68-.13-1.09-.13c-.62,0-1.15,.14-1.61,.41s-.83,.64-1.11,1.11v9.09h-2.81v-12.68h2.53Z"/></g></g><g><rect class="b" x="204.75" y="166.69" width="662.96" height="47.53" rx="12" ry="12"/><g><path class="c" d="M245.61,195.17h8.13v2.3h-10.95v-17.06h2.81v14.77Z"/><path class="c" d="M265.14,195.73c-.43,.62-.95,1.11-1.56,1.46s-1.3,.52-2.06,.52c-.66,0-1.26-.1-1.8-.3s-1.01-.53-1.39-.97-.69-1-.9-1.69-.32-1.51-.32-2.47v-7.5h2.8v7.52c0,.61,.04,1.11,.13,1.51s.23,.71,.42,.95,.42,.4,.7,.5,.62,.15,1.01,.15c.75,0,1.36-.15,1.82-.44s.81-.69,1.04-1.19v-9h2.81v12.68h-2.53l-.16-1.73Z"/><path class="c" d="M270.89,191.01c0-.91,.13-1.77,.4-2.55s.66-1.47,1.16-2.05,1.12-1.03,1.85-1.36,1.55-.49,2.47-.49,1.76,.16,2.49,.49,1.35,.78,1.85,1.36,.89,1.26,1.15,2.05,.4,1.64,.4,2.55v.25c0,.92-.13,1.78-.4,2.57s-.65,1.47-1.15,2.04-1.12,1.03-1.85,1.35-1.55,.49-2.47,.49-1.76-.16-2.49-.49-1.35-.78-1.85-1.35-.89-1.26-1.16-2.04-.4-1.64-.4-2.57v-.25Zm2.8,.25c0,.58,.06,1.12,.18,1.63s.31,.96,.56,1.34,.58,.69,.97,.91,.86,.33,1.39,.33,.98-.11,1.37-.33,.71-.53,.96-.91,.44-.83,.56-1.34,.18-1.05,.18-1.63v-.25c0-.56-.06-1.1-.18-1.61s-.31-.95-.56-1.34-.57-.69-.96-.91-.85-.34-1.39-.34-.99,.11-1.38,.34-.71,.53-.96,.91-.44,.83-.56,1.34-.18,1.04-.18,1.61v.25Z"/><path class="c" d="M294.07,194.03c0-.21-.04-.4-.13-.58s-.24-.34-.46-.48-.53-.28-.91-.4-.88-.25-1.48-.36c-.75-.16-1.43-.34-2.03-.56s-1.12-.48-1.56-.79-.77-.66-1-1.06-.35-.87-.35-1.4,.12-1.01,.36-1.47,.59-.87,1.04-1.22,1-.63,1.64-.84,1.37-.31,2.16-.31c.84,0,1.6,.11,2.27,.32s1.23,.5,1.69,.86,.81,.79,1.06,1.28,.37,1.02,.37,1.58h-2.8c0-.25-.05-.49-.16-.72s-.27-.44-.49-.62-.49-.32-.81-.43-.7-.16-1.12-.16-.79,.04-1.1,.13-.56,.21-.77,.35-.35,.31-.45,.51-.15,.4-.15,.61,.04,.4,.11,.57,.21,.33,.42,.47,.48,.27,.84,.38,.82,.22,1.39,.32c.8,.14,1.51,.32,2.15,.53s1.18,.47,1.63,.77,.79,.67,1.04,1.08,.36,.91,.36,1.47-.13,1.08-.39,1.55-.62,.87-1.1,1.21-1.05,.6-1.72,.79-1.42,.28-2.24,.28c-.92,0-1.73-.12-2.44-.37s-1.29-.57-1.77-.97-.84-.85-1.08-1.36-.37-1.02-.37-1.55h2.72c.02,.39,.12,.72,.3,1s.41,.49,.69,.66,.59,.29,.94,.36,.69,.11,1.04,.11c.87,0,1.53-.15,1.98-.44s.68-.67,.68-1.13Z"/><path class="c" d="M310.91,199.67h-10.76v-2.2h10.76v2.2Z"/><path class="c" d="M317.41,186.54c.44-.62,.97-1.11,1.6-1.46s1.33-.53,2.1-.53c.66,0,1.26,.1,1.81,.29s1.02,.5,1.41,.91,.7,.94,.91,1.58,.33,1.42,.33,2.31v7.82h-2.8v-7.84c0-.48-.06-.9-.18-1.25s-.29-.63-.52-.86-.49-.39-.81-.5-.68-.16-1.09-.16c-.61,0-1.15,.13-1.62,.38s-.85,.6-1.15,1.03v9.21h-2.8v-18h2.8v7.08Z"/><path class="c" d="M337.15,195.73c-.43,.62-.95,1.11-1.56,1.46s-1.3,.52-2.06,.52c-.66,0-1.26-.1-1.8-.3s-1.01-.53-1.39-.97-.69-1-.9-1.69-.32-1.51-.32-2.47v-7.5h2.8v7.52c0,.61,.04,1.11,.13,1.51s.23,.71,.42,.95,.42,.4,.7,.5,.62,.15,1.01,.15c.75,0,1.36-.15,1.82-.44s.81-.69,1.04-1.19v-9h2.81v12.68h-2.53l-.16-1.73Z"/><path class="c" d="M354.56,191.27c0,.94-.11,1.8-.32,2.58s-.53,1.46-.96,2.03-.94,1.02-1.56,1.34-1.33,.48-2.13,.48-1.44-.14-2.01-.41-1.05-.67-1.46-1.18l-.13,1.36h-2.54v-18h2.8v6.53c.4-.46,.87-.82,1.41-1.07s1.18-.38,1.91-.38c.81,0,1.53,.16,2.15,.47s1.14,.76,1.56,1.33,.74,1.25,.96,2.04,.32,1.67,.32,2.62v.25Zm-2.8-.25c0-.56-.05-1.1-.15-1.6s-.26-.95-.48-1.33-.52-.69-.9-.91-.84-.33-1.38-.33c-.66,0-1.21,.15-1.63,.46s-.75,.7-.97,1.2v5.24c.23,.49,.55,.89,.98,1.21s.97,.47,1.65,.47c.53,0,.98-.11,1.35-.32s.66-.51,.89-.88,.39-.81,.49-1.32,.15-1.04,.15-1.62v-.25Z"/></g></g><g><rect class="b" x="709.56" y="216.22" width="414.85" height="47.53" rx="12" ry="12"/><g><path class="c" d="M750.42,244.7h8.13v2.3h-10.95v-17.06h2.81v14.77Z"/><path class="c" d="M769.94,245.26c-.43,.62-.95,1.11-1.56,1.46s-1.3,.52-2.06,.52c-.66,0-1.26-.1-1.8-.3s-1.01-.53-1.39-.97-.69-1-.9-1.69-.32-1.51-.32-2.47v-7.5h2.8v7.52c0,.61,.04,1.11,.13,1.51s.23,.71,.42,.95,.42,.4,.7,.5,.62,.15,1.01,.15c.75,0,1.36-.15,1.82-.44s.81-.69,1.04-1.19v-9h2.81v12.68h-2.53l-.16-1.73Z"/><path class="c" d="M775.69,240.54c0-.91,.13-1.77,.4-2.55s.66-1.47,1.16-2.05,1.12-1.03,1.85-1.36,1.55-.49,2.47-.49,1.76,.16,2.49,.49,1.35,.78,1.85,1.36,.89,1.26,1.15,2.05,.4,1.64,.4,2.55v.25c0,.92-.13,1.78-.4,2.57s-.65,1.47-1.15,2.04-1.12,1.03-1.85,1.35-1.55,.49-2.47,.49-1.76-.16-2.49-.49-1.35-.78-1.85-1.35-.89-1.26-1.16-2.04-.4-1.64-.4-2.57v-.25Zm2.8,.25c0,.58,.06,1.12,.18,1.63s.31,.96,.56,1.34,.58,.69,.97,.91,.86,.33,1.39,.33,.98-.11,1.37-.33,.71-.53,.96-.91,.44-.83,.56-1.34,.18-1.05,.18-1.63v-.25c0-.56-.06-1.1-.18-1.61s-.31-.95-.56-1.34-.57-.69-.96-.91-.85-.34-1.39-.34-.99,.11-1.38,.34-.71,.53-.96,.91-.44,.83-.56,1.34-.18,1.04-.18,1.61v.25Z"/><path class="c" d="M798.87,243.56c0-.21-.04-.4-.13-.58s-.24-.34-.46-.48-.53-.28-.91-.4-.88-.25-1.48-.36c-.75-.16-1.43-.34-2.03-.56s-1.12-.48-1.56-.79-.77-.66-1-1.06-.35-.87-.35-1.4,.12-1.01,.36-1.47,.59-.87,1.04-1.22,1-.63,1.64-.84,1.37-.31,2.16-.31c.84,0,1.6,.11,2.27,.32s1.23,.5,1.69,.86,.81,.79,1.06,1.28,.37,1.02,.37,1.58h-2.8c0-.25-.05-.49-.16-.72s-.27-.44-.49-.62-.49-.32-.81-.43-.7-.16-1.12-.16-.79,.04-1.1,.13-.56,.21-.77,.35-.35,.31-.45,.51-.15,.4-.15,.61,.04,.4,.11,.57,.21,.33,.42,.47,.48,.27,.84,.38,.82,.22,1.39,.32c.8,.14,1.51,.32,2.15,.53s1.18,.47,1.63,.77,.79,.67,1.04,1.08,.36,.91,.36,1.47-.13,1.08-.39,1.55-.62,.87-1.1,1.21-1.05,.6-1.72,.79-1.42,.28-2.24,.28c-.92,0-1.73-.12-2.44-.37s-1.29-.57-1.77-.97-.84-.85-1.08-1.36-.37-1.02-.37-1.55h2.72c.02,.39,.12,.72,.3,1s.41,.49,.69,.66,.59,.29,.94,.36,.69,.11,1.04,.11c.87,0,1.53-.15,1.98-.44s.68-.67,.68-1.13Z"/><path class="c" d="M815.71,249.2h-10.76v-2.2h10.76v2.2Z"/><path class="c" d="M820.03,234.31h6.76v10.36h3.76v2.32h-10.52v-2.32h3.94v-8.03h-3.94v-2.33Zm3.7-3.28c0-.44,.14-.8,.42-1.08s.68-.43,1.18-.43,.92,.14,1.2,.43,.43,.65,.43,1.08-.14,.8-.43,1.08-.69,.43-1.2,.43-.9-.14-1.18-.43-.42-.65-.42-1.08Z"/><path class="c" d="M836.35,234.31l.18,1.76c.46-.63,1.02-1.12,1.67-1.47s1.38-.52,2.17-.52c.65,0,1.24,.09,1.78,.28s1,.48,1.38,.88,.69,.91,.9,1.55,.32,1.39,.32,2.29v7.92h-2.8v-7.88c0-.52-.06-.96-.18-1.31s-.29-.63-.52-.84-.49-.36-.81-.45-.68-.13-1.09-.13c-.62,0-1.15,.14-1.61,.41s-.83,.64-1.11,1.11v9.09h-2.81v-12.68h2.53Z"/><path class="c" d="M856.48,243.56c0-.21-.04-.4-.13-.58s-.24-.34-.46-.48-.53-.28-.91-.4-.88-.25-1.48-.36c-.75-.16-1.43-.34-2.03-.56s-1.12-.48-1.56-.79-.77-.66-1-1.06-.35-.87-.35-1.4,.12-1.01,.36-1.47,.59-.87,1.04-1.22,1-.63,1.64-.84,1.37-.31,2.16-.31c.84,0,1.6,.11,2.27,.32s1.23,.5,1.69,.86,.81,.79,1.06,1.28,.37,1.02,.37,1.58h-2.8c0-.25-.05-.49-.16-.72s-.27-.44-.49-.62-.49-.32-.81-.43-.7-.16-1.12-.16-.79,.04-1.1,.13-.56,.21-.77,.35-.35,.31-.45,.51-.15,.4-.15,.61,.04,.4,.11,.57,.21,.33,.42,.47,.48,.27,.84,.38,.82,.22,1.39,.32c.8,.14,1.51,.32,2.15,.53s1.18,.47,1.63,.77,.79,.67,1.04,1.08,.36,.91,.36,1.47-.13,1.08-.39,1.55-.62,.87-1.1,1.21-1.05,.6-1.72,.79-1.42,.28-2.24,.28c-.92,0-1.73-.12-2.44-.37s-1.29-.57-1.77-.97-.84-.85-1.08-1.36-.37-1.02-.37-1.55h2.72c.02,.39,.12,.72,.3,1s.41,.49,.69,.66,.59,.29,.94,.36,.69,.11,1.04,.11c.87,0,1.53-.15,1.98-.44s.68-.67,.68-1.13Z"/><path class="c" d="M873.72,240.78c0,.92-.11,1.78-.33,2.57s-.54,1.47-.96,2.04-.94,1.02-1.55,1.35-1.32,.49-2.12,.49c-.72,0-1.35-.12-1.9-.35s-1.03-.57-1.42-1.01v6h-2.8v-17.55h2.58l.12,1.28c.41-.48,.89-.86,1.45-1.12s1.21-.39,1.95-.39c.8,0,1.52,.16,2.14,.47s1.14,.75,1.56,1.32,.74,1.25,.96,2.04,.33,1.67,.33,2.63v.25Zm-2.8-.25c0-.57-.06-1.11-.18-1.61s-.3-.95-.54-1.32-.55-.68-.93-.9-.82-.33-1.34-.33c-.62,0-1.14,.13-1.55,.4s-.73,.62-.96,1.07v5.67c.23,.44,.55,.79,.96,1.07s.93,.41,1.58,.41c.52,0,.96-.11,1.34-.34s.68-.53,.92-.91,.41-.83,.53-1.34,.17-1.05,.17-1.62v-.25Z"/><path class="c" d="M882.93,247.23c-.94,0-1.79-.16-2.57-.47s-1.44-.74-1.99-1.29-.98-1.19-1.28-1.94-.46-1.55-.46-2.42v-.48c0-1.01,.16-1.91,.49-2.72s.76-1.49,1.3-2.06,1.18-1.01,1.9-1.31,1.48-.46,2.28-.46c.92,0,1.73,.15,2.44,.46s1.29,.74,1.76,1.3,.83,1.22,1.07,1.99,.36,1.61,.36,2.52v1.18h-8.79c.05,.49,.17,.95,.36,1.37s.45,.79,.77,1.1,.69,.55,1.11,.73,.89,.26,1.4,.26c.71,0,1.37-.14,1.96-.42s1.08-.67,1.46-1.16l1.52,1.43c-.2,.3-.46,.6-.79,.88s-.7,.54-1.12,.76-.91,.4-1.45,.54-1.12,.21-1.75,.21Zm-.34-10.89c-.39,0-.75,.07-1.09,.21s-.64,.35-.9,.62-.49,.6-.67,.98-.31,.83-.39,1.32h5.94v-.21c-.02-.38-.1-.74-.22-1.08s-.3-.66-.53-.93-.53-.49-.88-.66-.77-.25-1.25-.25Z"/><path class="c" d="M896.97,245c.34,0,.68-.05,1-.16s.61-.26,.86-.46,.45-.43,.59-.69,.21-.55,.21-.87h2.65c0,.61-.13,1.18-.42,1.72s-.67,1-1.16,1.4-1.05,.71-1.69,.95-1.31,.35-2.02,.35c-.98,0-1.83-.17-2.57-.5s-1.35-.79-1.84-1.38-.86-1.26-1.11-2.03-.37-1.59-.37-2.46v-.42c0-.87,.12-1.69,.37-2.46s.62-1.45,1.11-2.03,1.11-1.04,1.84-1.38,1.59-.51,2.55-.51c.77,0,1.47,.12,2.13,.35s1.21,.56,1.69,.98,.84,.93,1.1,1.51,.39,1.23,.38,1.92h-2.65c0-.34-.05-.67-.18-.97s-.31-.57-.56-.8-.53-.41-.86-.54-.69-.2-1.08-.2c-.59,0-1.07,.12-1.46,.36s-.7,.55-.94,.94-.4,.83-.5,1.32-.15,.99-.15,1.5v.42c0,.52,.05,1.02,.15,1.51s.26,.93,.5,1.32,.55,.7,.94,.94,.88,.36,1.48,.36Z"/><path class="c" d="M911.44,231.24v3.07h4.79v2.09h-4.79v6.08c0,.48,.06,.87,.17,1.18s.27,.56,.47,.75,.44,.32,.71,.39,.57,.11,.9,.11c.24,0,.49-.01,.76-.04s.52-.06,.76-.09,.47-.07,.68-.12,.38-.08,.52-.12l.32,1.93c-.2,.12-.45,.22-.73,.32s-.6,.18-.93,.24-.69,.11-1.05,.15-.72,.05-1.07,.05c-.63,0-1.21-.09-1.74-.26s-.98-.45-1.36-.82-.68-.85-.89-1.43-.32-1.28-.32-2.09v-6.23h-3.09v-2.09h3.09v-3.07h2.8Z"/><path class="c" d="M919.72,240.54c0-.91,.13-1.77,.4-2.55s.66-1.47,1.16-2.05,1.12-1.03,1.85-1.36,1.55-.49,2.47-.49,1.76,.16,2.49,.49,1.35,.78,1.85,1.36,.89,1.26,1.15,2.05,.4,1.64,.4,2.55v.25c0,.92-.13,1.78-.4,2.57s-.65,1.47-1.15,2.04-1.12,1.03-1.85,1.35-1.55,.49-2.47,.49-1.76-.16-2.49-.49-1.35-.78-1.85-1.35-.89-1.26-1.16-2.04-.4-1.64-.4-2.57v-.25Zm2.8,.25c0,.58,.06,1.12,.18,1.63s.31,.96,.56,1.34,.58,.69,.97,.91,.86,.33,1.39,.33,.98-.11,1.37-.33,.71-.53,.96-.91,.44-.83,.56-1.34,.18-1.05,.18-1.63v-.25c0-.56-.06-1.1-.18-1.61s-.31-.95-.56-1.34-.57-.69-.96-.91-.85-.34-1.39-.34-.99,.11-1.38,.34-.71,.53-.96,.91-.44,.83-.56,1.34-.18,1.04-.18,1.61v.25Z"/><path class="c" d="M943.34,234.08c.23,0,.45,0,.68,.02s.44,.04,.65,.07,.4,.06,.57,.1,.32,.08,.43,.12l-.4,2.75c-.86-.2-1.71-.29-2.54-.29-.94,0-1.69,.2-2.27,.59s-1,.93-1.27,1.63v7.92h-2.8v-12.68h2.62l.13,1.98c.52-.69,1.13-1.23,1.83-1.62s1.49-.59,2.36-.59Z"/></g></g><g><rect class="b" x="1130.43" y="216.22" width="414.85" height="47.53" rx="12" ry="12"/><g><path class="c" d="M1171.29,244.7h8.13v2.3h-10.95v-17.06h2.81v14.77Z"/><path class="c" d="M1190.82,245.26c-.43,.62-.95,1.11-1.56,1.46s-1.3,.52-2.06,.52c-.66,0-1.26-.1-1.8-.3s-1.01-.53-1.39-.97-.69-1-.9-1.69-.32-1.51-.32-2.47v-7.5h2.8v7.52c0,.61,.04,1.11,.13,1.51s.23,.71,.42,.95,.42,.4,.7,.5,.62,.15,1.01,.15c.75,0,1.36-.15,1.82-.44s.81-.69,1.04-1.19v-9h2.81v12.68h-2.53l-.16-1.73Z"/><path class="c" d="M1196.57,240.54c0-.91,.13-1.77,.4-2.55s.66-1.47,1.16-2.05,1.12-1.03,1.85-1.36,1.55-.49,2.47-.49,1.76,.16,2.49,.49,1.35,.78,1.85,1.36,.89,1.26,1.15,2.05,.4,1.64,.4,2.55v.25c0,.92-.13,1.78-.4,2.57s-.65,1.47-1.15,2.04-1.12,1.03-1.85,1.35-1.55,.49-2.47,.49-1.76-.16-2.49-.49-1.35-.78-1.85-1.35-.89-1.26-1.16-2.04-.4-1.64-.4-2.57v-.25Zm2.8,.25c0,.58,.06,1.12,.18,1.63s.31,.96,.56,1.34,.58,.69,.97,.91,.86,.33,1.39,.33,.98-.11,1.37-.33,.71-.53,.96-.91,.44-.83,.56-1.34,.18-1.05,.18-1.63v-.25c0-.56-.06-1.1-.18-1.61s-.31-.95-.56-1.34-.57-.69-.96-.91-.85-.34-1.39-.34-.99,.11-1.38,.34-.71,.53-.96,.91-.44,.83-.56,1.34-.18,1.04-.18,1.61v.25Z"/><path class="c" d="M1219.75,243.56c0-.21-.04-.4-.13-.58s-.24-.34-.46-.48-.53-.28-.91-.4-.88-.25-1.48-.36c-.75-.16-1.43-.34-2.03-.56s-1.12-.48-1.56-.79-.77-.66-1-1.06-.35-.87-.35-1.4,.12-1.01,.36-1.47,.59-.87,1.04-1.22,1-.63,1.64-.84,1.37-.31,2.16-.31c.84,0,1.6,.11,2.27,.32s1.23,.5,1.69,.86,.81,.79,1.06,1.28,.37,1.02,.37,1.58h-2.8c0-.25-.05-.49-.16-.72s-.27-.44-.49-.62-.49-.32-.81-.43-.7-.16-1.12-.16-.79,.04-1.1,.13-.56,.21-.77,.35-.35,.31-.45,.51-.15,.4-.15,.61,.04,.4,.11,.57,.21,.33,.42,.47,.48,.27,.84,.38,.82,.22,1.39,.32c.8,.14,1.51,.32,2.15,.53s1.18,.47,1.63,.77,.79,.67,1.04,1.08,.36,.91,.36,1.47-.13,1.08-.39,1.55-.62,.87-1.1,1.21-1.05,.6-1.72,.79-1.42,.28-2.24,.28c-.92,0-1.73-.12-2.44-.37s-1.29-.57-1.77-.97-.84-.85-1.08-1.36-.37-1.02-.37-1.55h2.72c.02,.39,.12,.72,.3,1s.41,.49,.69,.66,.59,.29,.94,.36,.69,.11,1.04,.11c.87,0,1.53-.15,1.98-.44s.68-.67,.68-1.13Z"/><path class="c" d="M1236.59,249.2h-10.76v-2.2h10.76v2.2Z"/><path class="c" d="M1241.91,234.31l.07,1.34c.25-.49,.59-.88,1.01-1.15s.93-.42,1.52-.42c.54,0,.99,.11,1.34,.32s.62,.55,.8,1c.25-.41,.57-.73,.96-.97s.86-.36,1.42-.36c.41,0,.79,.07,1.14,.21s.64,.35,.89,.65,.44,.68,.57,1.14,.21,1.02,.21,1.66v9.26h-2.6v-9.28c0-.51-.11-.86-.32-1.05s-.49-.29-.83-.29-.57,.08-.76,.23-.32,.35-.41,.6v9.79h-2.54v-9.28c0-.49-.1-.84-.3-1.04s-.47-.3-.81-.3-.59,.07-.77,.21-.33,.33-.43,.57v9.83h-2.6v-12.68h2.45Z"/><path class="c" d="M1262.78,246.99c-.08-.16-.14-.34-.19-.55s-.1-.44-.13-.68c-.2,.2-.42,.39-.66,.57s-.52,.33-.82,.46-.62,.24-.97,.32-.72,.12-1.12,.12c-.67,0-1.28-.1-1.82-.29s-1.01-.46-1.39-.8-.69-.74-.9-1.2-.32-.96-.32-1.5c0-1.36,.51-2.4,1.52-3.12s2.46-1.08,4.35-1.08h2.05v-.83c0-.67-.23-1.21-.68-1.6s-1.09-.59-1.92-.59c-.38,0-.7,.04-.98,.13s-.52,.21-.7,.37-.33,.34-.42,.55-.14,.44-.14,.68h-2.8c0-.49,.12-.97,.35-1.44s.57-.88,1.01-1.24,.99-.65,1.63-.87,1.38-.33,2.21-.33c.75,0,1.45,.09,2.09,.28s1.2,.46,1.66,.82,.84,.82,1.1,1.36,.4,1.18,.4,1.9v5.65c0,.55,.04,1.06,.12,1.52s.2,.85,.36,1.19v.2h-2.87Zm-3.38-2.03c.36,0,.7-.04,1.01-.13s.6-.21,.86-.35,.47-.31,.66-.5,.33-.38,.44-.57v-2.38h-1.78c-1.14,0-1.98,.18-2.53,.55s-.81,.89-.81,1.57c0,.26,.04,.5,.13,.72s.22,.41,.39,.57,.4,.29,.67,.38,.59,.14,.97,.14Z"/><path class="c" d="M1271.63,234.31l.18,1.76c.46-.63,1.02-1.12,1.67-1.47s1.38-.52,2.17-.52c.65,0,1.24,.09,1.78,.28s1,.48,1.38,.88,.69,.91,.9,1.55,.32,1.39,.32,2.29v7.92h-2.8v-7.88c0-.52-.06-.96-.18-1.31s-.29-.63-.52-.84-.49-.36-.81-.45-.68-.13-1.09-.13c-.62,0-1.15,.14-1.61,.41s-.83,.64-1.11,1.11v9.09h-2.81v-12.68h2.53Z"/><path class="c" d="M1291.58,246.99c-.08-.16-.14-.34-.19-.55s-.1-.44-.13-.68c-.2,.2-.42,.39-.66,.57s-.52,.33-.82,.46-.62,.24-.97,.32-.72,.12-1.12,.12c-.67,0-1.28-.1-1.82-.29s-1.01-.46-1.39-.8-.69-.74-.9-1.2-.32-.96-.32-1.5c0-1.36,.51-2.4,1.52-3.12s2.46-1.08,4.35-1.08h2.05v-.83c0-.67-.23-1.21-.68-1.6s-1.09-.59-1.92-.59c-.38,0-.7,.04-.98,.13s-.52,.21-.7,.37-.33,.34-.42,.55-.14,.44-.14,.68h-2.8c0-.49,.12-.97,.35-1.44s.57-.88,1.01-1.24,.99-.65,1.63-.87,1.38-.33,2.21-.33c.75,0,1.45,.09,2.09,.28s1.2,.46,1.66,.82,.84,.82,1.1,1.36,.4,1.18,.4,1.9v5.65c0,.55,.04,1.06,.12,1.52s.2,.85,.36,1.19v.2h-2.87Zm-3.38-2.03c.36,0,.7-.04,1.01-.13s.6-.21,.86-.35,.47-.31,.66-.5,.33-.38,.44-.57v-2.38h-1.78c-1.14,0-1.98,.18-2.53,.55s-.81,.89-.81,1.57c0,.26,.04,.5,.13,.72s.22,.41,.39,.57,.4,.29,.67,.38,.59,.14,.97,.14Z"/><path class="c" d="M1297.54,240.56c0-.96,.12-1.84,.36-2.64s.58-1.48,1.03-2.05,.98-1.01,1.61-1.32,1.33-.47,2.12-.47,1.41,.13,1.97,.39,1.03,.63,1.43,1.11l.12-1.27h2.54v12.34c0,.85-.14,1.61-.42,2.27s-.67,1.22-1.18,1.67-1.11,.8-1.81,1.04-1.48,.36-2.32,.36c-.34,0-.73-.04-1.17-.11s-.87-.2-1.31-.36-.86-.39-1.25-.66-.74-.6-1.02-.98l1.34-1.68c.48,.56,.99,.96,1.54,1.21s1.12,.36,1.71,.36c.47,0,.89-.07,1.28-.2s.71-.33,.97-.59,.47-.58,.62-.96,.22-.81,.22-1.31v-.86c-.4,.44-.87,.77-1.4,1.01s-1.16,.35-1.87,.35c-.77,0-1.47-.16-2.1-.49s-1.16-.77-1.61-1.34-.79-1.25-1.03-2.03-.36-1.64-.36-2.56v-.25Zm2.81,.25c0,.57,.06,1.11,.18,1.61s.3,.94,.54,1.31,.55,.67,.93,.88,.83,.32,1.34,.32c.65,0,1.18-.13,1.58-.4s.73-.63,.97-1.08v-5.6c-.25-.45-.58-.8-.98-1.07s-.92-.4-1.55-.4c-.52,0-.96,.11-1.34,.33s-.69,.52-.94,.9-.43,.83-.55,1.34-.18,1.05-.18,1.62v.25Z"/><path class="c" d="M1318.21,247.23c-.94,0-1.79-.16-2.57-.47s-1.44-.74-1.99-1.29-.98-1.19-1.28-1.94-.46-1.55-.46-2.42v-.48c0-1.01,.16-1.91,.49-2.72s.76-1.49,1.3-2.06,1.18-1.01,1.9-1.31,1.48-.46,2.28-.46c.92,0,1.73,.15,2.44,.46s1.29,.74,1.76,1.3,.83,1.22,1.07,1.99,.36,1.61,.36,2.52v1.18h-8.79c.05,.49,.17,.95,.36,1.37s.45,.79,.77,1.1,.69,.55,1.11,.73,.89,.26,1.4,.26c.71,0,1.37-.14,1.96-.42s1.08-.67,1.46-1.16l1.52,1.43c-.2,.3-.46,.6-.79,.88s-.7,.54-1.12,.76-.91,.4-1.45,.54-1.12,.21-1.75,.21Zm-.34-10.89c-.39,0-.75,.07-1.09,.21s-.64,.35-.9,.62-.49,.6-.67,.98-.31,.83-.39,1.32h5.94v-.21c-.02-.38-.1-.74-.22-1.08s-.3-.66-.53-.93-.53-.49-.88-.66-.77-.25-1.25-.25Z"/><path class="c" d="M1335.41,234.08c.23,0,.45,0,.68,.02s.44,.04,.65,.07,.4,.06,.57,.1,.32,.08,.43,.12l-.4,2.75c-.86-.2-1.71-.29-2.54-.29-.94,0-1.69,.2-2.27,.59s-1,.93-1.27,1.63v7.92h-2.8v-12.68h2.62l.13,1.98c.52-.69,1.13-1.23,1.83-1.62s1.49-.59,2.36-.59Z"/></g></g></svg>